<svg width="auto" height="auto" viewBox="0 0 24 25" fill="currentColor" xmlns="http://www.w3.org/2000/svg">
<g clip-path="url(#clip0_19_31212)">
<path d="M22.5 12.2002V18.2002C22.5 18.3991 22.421 18.5899 22.2803 18.7305C22.1397 18.8712 21.9489 18.9502 21.75 18.9502H2.25C2.05109 18.9502 1.86032 18.8712 1.71967 18.7305C1.57902 18.5899 1.5 18.3991 1.5 18.2002V6.2002C1.5 6.00128 1.57902 5.81052 1.71967 5.66987C1.86032 5.52921 2.05109 5.4502 2.25 5.4502H21.75C21.9489 5.4502 22.1397 5.52921 22.2803 5.66987C22.421 5.81052 22.5 6.00128 22.5 6.2002V12.2002ZM24 12.2002V6.2002C24 5.60346 23.7629 5.03116 23.341 4.60921C22.919 4.18725 22.3467 3.9502 21.75 3.9502H2.25C1.65326 3.9502 1.08097 4.18725 0.65901 4.60921C0.237053 5.03116 0 5.60346 0 6.2002L0 18.2002C0 18.7969 0.237053 19.3692 0.65901 19.7912C1.08097 20.2131 1.65326 20.4502 2.25 20.4502H21.75C22.3467 20.4502 22.919 20.2131 23.341 19.7912C23.7629 19.3692 24 18.7969 24 18.2002V12.2002ZM15.178 10.7262L18.991 14.2512C19.1371 14.3862 19.3309 14.4576 19.5297 14.4497C19.7285 14.4419 19.916 14.3553 20.051 14.2092C20.186 14.0631 20.2574 13.8693 20.2495 13.6705C20.2417 13.4717 20.1551 13.2842 20.009 13.1492L16.196 9.6242C16.1236 9.55735 16.0388 9.50542 15.9464 9.47135C15.854 9.43729 15.7557 9.42176 15.6573 9.42566C15.5589 9.42956 15.4622 9.45281 15.3727 9.49408C15.2833 9.53535 15.2028 9.59384 15.136 9.66619C15.0692 9.73855 15.0172 9.82337 14.9832 9.9158C14.9491 10.0082 14.9336 10.1065 14.9375 10.2049C14.9414 10.3033 14.9646 10.4 15.0059 10.4895C15.0472 10.5789 15.1056 10.6594 15.178 10.7262ZM7.804 9.6242L3.99 13.1502C3.84387 13.2852 3.75734 13.4727 3.74947 13.6715C3.74159 13.8703 3.813 14.0641 3.948 14.2102C4.08299 14.3563 4.27051 14.4429 4.4693 14.4507C4.66809 14.4586 4.86187 14.3872 5.008 14.2522L8.821 10.7272C8.96713 10.5922 9.05366 10.4047 9.06153 10.2059C9.06941 10.0071 8.998 9.81333 8.863 9.6672C8.79616 9.59484 8.71572 9.53635 8.62627 9.49508C8.53683 9.45381 8.44013 9.43056 8.3417 9.42666C8.14291 9.41879 7.94913 9.4902 7.803 9.6252L7.804 9.6242ZM22.454 4.5972L12.941 11.1572C12.6644 11.3482 12.3362 11.4505 12 11.4505C11.6638 11.4505 11.3356 11.3482 11.059 11.1572L1.546 4.5972C1.46527 4.53636 1.37307 4.49246 1.27495 4.46816C1.17683 4.44385 1.0748 4.43964 0.975007 4.45576C0.875212 4.47188 0.779707 4.50801 0.694229 4.56198C0.608751 4.61594 0.535064 4.68663 0.477597 4.7698C0.42013 4.85296 0.380069 4.94689 0.35982 5.04593C0.339571 5.14497 0.339552 5.24708 0.359766 5.34612C0.379979 5.44517 0.420007 5.53911 0.477444 5.6223C0.534881 5.70548 0.608541 5.7762 0.694 5.8302L10.207 12.3902C10.7341 12.7541 11.3595 12.949 12 12.949C12.6405 12.949 13.2659 12.7541 13.793 12.3902L23.306 5.8302C23.3897 5.77539 23.4615 5.70439 23.5174 5.62139C23.5732 5.53839 23.6119 5.44505 23.6311 5.34689C23.6503 5.24872 23.6497 5.1477 23.6293 5.04977C23.6089 4.95184 23.5691 4.85899 23.5122 4.77667C23.4554 4.69435 23.3827 4.62424 23.2983 4.57045C23.214 4.51666 23.1198 4.48029 23.0211 4.46347C22.9225 4.44665 22.8216 4.44973 22.7242 4.47253C22.6268 4.49532 22.5349 4.53837 22.454 4.5972Z" fill="currentColor"/>
</g>
<defs>
<clipPath id="clip0_19_31212">
<rect width="24" height="24" fill="white" transform="translate(0 0.200195)"/>
</clipPath>
</defs>
</svg>
