<svg width="auto" height="auto" viewBox="0 0 24 25" fill="currentColor" xmlns="http://www.w3.org/2000/svg">
<path d="M14.6621 23.4383L14.6741 23.4453C17.1341 25.0113 20.3841 24.6553 22.4661 22.5723L23.2401 21.7983C23.7262 21.3116 23.9993 20.6518 23.9993 19.9638C23.9993 19.2759 23.7262 18.6161 23.2401 18.1293L19.9801 14.8693C19.4933 14.3829 18.8333 14.1096 18.1451 14.1096C17.4569 14.1096 16.7969 14.3829 16.3101 14.8693C16.2087 14.971 16.0883 15.0517 15.9558 15.1068C15.8232 15.1619 15.6811 15.1904 15.5375 15.1906C15.3939 15.1908 15.2517 15.1627 15.119 15.1079C14.9863 15.0531 14.8657 14.9727 14.7641 14.8713L14.7631 14.8703L9.54409 9.65034C9.33916 9.44488 9.22407 9.16653 9.22407 8.87634C9.22407 8.58614 9.33916 8.30779 9.54409 8.10234C10.0303 7.61636 10.3037 6.9572 10.304 6.26975C10.3044 5.5823 10.0318 4.92284 9.54609 4.43634C9.54609 4.43434 9.54609 4.43434 9.54409 4.43334L6.28409 1.17034C5.79734 0.684193 5.13753 0.411133 4.44959 0.411133C3.76165 0.411133 3.10184 0.684193 2.61509 1.17034L1.84109 1.94434C0.830405 2.95524 0.194523 4.28049 0.0383589 5.70141C-0.117805 7.12234 0.21508 8.55405 0.982093 9.76033L1.00009 9.78633C4.62739 15.1569 9.25087 19.7821 14.6201 23.4113L14.6621 23.4383ZM15.4601 22.1683C10.2504 18.6476 5.76405 14.1606 2.24409 8.95034L2.23909 8.94234C1.65848 8.02458 1.40769 6.93647 1.52802 5.85716C1.64835 4.77785 2.13262 3.77169 2.90109 3.00434L3.67509 2.23034C3.88059 2.02509 4.15915 1.90981 4.44959 1.90981C4.74003 1.90981 5.01859 2.02509 5.22409 2.23034L8.48409 5.49434V5.49634C8.91209 5.92334 8.91109 6.61533 8.48409 7.04134C7.99765 7.52813 7.72439 8.18815 7.72439 8.87634C7.72439 9.56452 7.99765 10.2245 8.48409 10.7113L13.7021 15.9313L13.7041 15.9323C14.1906 16.4183 14.8503 16.6912 15.538 16.6908C16.2257 16.6904 16.8851 16.4169 17.3711 15.9303C17.5766 15.7254 17.8549 15.6103 18.1451 15.6103C18.4353 15.6103 18.7136 15.7254 18.9191 15.9303L22.1791 19.1903C22.6071 19.6173 22.6071 20.3103 22.1791 20.7383L21.4061 21.5123C20.6364 22.2819 19.6272 22.766 18.5452 22.8845C17.4632 23.003 16.3732 22.749 15.4551 22.1643L15.4181 22.1423L15.4601 22.1683Z" fill="currentColor"/>
</svg>
