<svg xmlns="http://www.w3.org/2000/svg"  viewBox="0 0 21 21" fill="none">
  <path d="M2.49964 13.3611L0.979648 11.8411C0.359648 11.2211 0.359648 10.2011 0.979648 9.58109L2.49964 8.06107C2.75964 7.80107 2.96964 7.29106 2.96964 6.93106V4.78104C2.96964 3.90104 3.68964 3.18106 4.56964 3.18106H6.71964C7.07964 3.18106 7.58964 2.97109 7.84964 2.71109L9.36963 1.19107C9.98963 0.571074 11.0096 0.571074 11.6296 1.19107L13.1497 2.71109C13.4097 2.97109 13.9196 3.18106 14.2796 3.18106H16.4297C17.3097 3.18106 18.0296 3.90104 18.0296 4.78104V6.93106C18.0296 7.29106 18.2396 7.80107 18.4996 8.06107L20.0197 9.58109C20.6397 10.2011 20.6397 11.2211 20.0197 11.8411L18.4996 13.3611C18.2396 13.6211 18.0296 14.1311 18.0296 14.4911V16.641C18.0296 17.521 17.3097 18.2411 16.4297 18.2411H14.2796C13.9196 18.2411 13.4097 18.4511 13.1497 18.7111L11.6296 20.2311C11.0096 20.8511 9.98963 20.8511 9.36963 20.2311L7.84964 18.7111C7.58964 18.4511 7.07964 18.2411 6.71964 18.2411H4.56964C3.68964 18.2411 2.96964 17.521 2.96964 16.641V14.4911C2.96964 14.1211 2.75964 13.6111 2.49964 13.3611Z" fill="#8EA604" fill-opacity="0.4"/>
  <path d="M6.51074 11.2007L8.84133 13.7007L14.0107 8.20068" stroke="#8EA604" stroke-width="1.5" stroke-linecap="round" stroke-linejoin="round"/>
</svg>