<svg width="132" height="103" viewBox="0 0 132 103" fill="none" xmlns="http://www.w3.org/2000/svg">
<rect x="8" width="100" height="100" rx="8" fill="#F1F6F9"/>
<path d="M132 92.1596H5V92.2231H132V92.1596Z" fill="white"/>
<path d="M39.9657 93.8893H31.5532V93.9528H39.9657V93.8893Z" fill="white"/>
<path d="M58.8201 96.2159H48.4696V96.2794H58.8201V96.2159Z" fill="white"/>
<path d="M31.2991 95.421H18.3248V95.4845H31.2991V95.421Z" fill="white"/>
<path d="M119.275 94.316H95.6171V94.3795H119.275V94.316Z" fill="white"/>
<path d="M93.3565 94.316H91.7487V94.3795H93.3565V94.316Z" fill="white"/>
<path d="M86.1378 95.3879H75.4114V95.4514H86.1378V95.3879Z" fill="white"/>
<path d="M65.198 80.8312H16.1531C15.7689 80.8305 15.4007 80.6774 15.1292 80.4055C14.8578 80.1336 14.7053 79.7651 14.7053 79.3809V10.4376C14.7087 10.0556 14.8626 9.69037 15.1337 9.42119C15.4048 9.15201 15.7711 9.00065 16.1531 9H65.198C65.5826 9 65.9515 9.1528 66.2235 9.42479C66.4955 9.69679 66.6483 10.0657 66.6483 10.4503V79.3809C66.6483 79.7655 66.4955 80.1344 66.2235 80.4064C65.9515 80.6784 65.5826 80.8312 65.198 80.8312ZM16.1531 9.0508C15.7857 9.05147 15.4337 9.19788 15.1741 9.45789C14.9146 9.7179 14.7688 10.0703 14.7688 10.4376V79.3809C14.7688 79.7482 14.9146 80.1006 15.1741 80.3606C15.4337 80.6206 15.7857 80.767 16.1531 80.7677H65.198C65.5656 80.767 65.9179 80.6207 66.1779 80.3608C66.4378 80.1008 66.5842 79.7485 66.5848 79.3809V10.4376C66.5842 10.07 66.4378 9.71768 66.1779 9.45774C65.9179 9.1978 65.5656 9.05147 65.198 9.0508H16.1531Z" fill="white"/>
<path d="M120.141 80.8312H71.0933C70.7088 80.8305 70.3403 80.6775 70.0685 80.4057C69.7966 80.1338 69.6436 79.7653 69.6429 79.3809V10.4376C69.647 10.0554 69.8014 9.69014 70.0729 9.42103C70.3444 9.15192 70.711 9.00065 71.0933 9H120.141C120.522 9.00132 120.888 9.15297 121.158 9.42208C121.429 9.69119 121.583 10.0561 121.586 10.4376V79.3809C121.586 79.7646 121.434 80.1328 121.163 80.4046C120.892 80.6765 120.524 80.8299 120.141 80.8312ZM71.0933 9.0508C70.7257 9.05147 70.3733 9.1978 70.1134 9.45774C69.8534 9.71768 69.7071 10.07 69.7064 10.4376V79.3809C69.7071 79.7485 69.8534 80.1008 70.1134 80.3608C70.3733 80.6207 70.7257 80.767 71.0933 80.7677H120.141C120.508 80.767 120.861 80.6207 121.121 80.3608C121.381 80.1008 121.527 79.7485 121.528 79.3809V10.4376C121.527 10.07 121.381 9.71768 121.121 9.45774C120.861 9.1978 120.508 9.05147 120.141 9.0508H71.0933Z" fill="white"/>
<path d="M61.0715 49.8155C66.5407 48.8265 70.1726 43.5911 69.1836 38.1219C68.1946 32.6527 62.9592 29.0208 57.49 30.0097C52.0208 30.9987 48.3889 36.2341 49.3779 41.7034C50.3669 47.1726 55.6023 50.8045 61.0715 49.8155Z" fill="white"/>
<path d="M16.2776 92.1596H120.344C120.344 92.1596 115.073 85.8884 107.014 84.7428C98.9546 83.5973 85.01 82.8937 85.01 82.8937C85.01 82.8937 82.8408 73.2925 73.5393 72.8531C72.2998 68.1846 68.373 46.8689 58.7616 43.5211C49.1503 40.1734 49.45 32.876 41.2864 29.8001C33.1229 26.7241 23.542 49.9956 21.6522 56.498C17.1031 72.0784 16.2776 92.1596 16.2776 92.1596Z" fill="white"/>
<path d="M21.6497 56.498C22.3393 54.2647 23.1404 52.0674 24.05 49.9143C24.3258 49.786 24.6081 49.6724 24.8959 49.5739C30.8826 47.5419 39.2977 73.3636 53.6207 60.3156C62.6098 52.1266 67.8142 57.1736 70.7276 62.0174C71.6268 64.9765 72.3075 67.7451 72.8054 69.8508C67.8828 69.8508 64.2125 59.2132 58.6499 62.1952C51.1976 66.1906 38.5585 70.3232 32.4473 62.0123C28.1979 56.2186 23.6894 56.7317 21.3424 57.58C21.444 57.2143 21.5456 56.851 21.6497 56.498Z" fill="white"/>
<path d="M19.6685 64.5726C28.462 65.3524 30.8039 90.1428 61.5506 81.8954C72.8307 78.8677 85.5485 85.7918 93.3387 92.1596H78.9394C74.6214 87.8416 70.0672 83.3255 64.9516 84.5675C48.241 88.6188 36.3131 88.3343 29.732 78.8855C26.43 74.1332 21.9494 72.5584 18.3147 72.1672C18.6957 69.6882 19.1427 67.1253 19.6685 64.5726Z" fill="white"/>
<path d="M113.908 17.9891H79.8716C79.8716 17.9891 80.0773 15.4008 84.5376 14.6286C80.7276 12.9472 89.0816 9.40385 98.1418 14.3086C97.4357 12.6754 105.493 13.2647 107.956 15.4897C108.835 14.0368 116.519 16.5794 113.908 17.9891Z" fill="white"/>
<path d="M52.6504 22.9217H33.6283C33.6283 22.9217 29.1706 22.0302 29.7446 19.668C30.3187 17.3058 37.0573 19.2743 37.0573 19.2743C37.0573 19.2743 35.0253 15.9723 41.5353 16.9146C48.0453 17.857 48.688 21.1158 48.688 21.1158C48.688 21.1158 57.2579 20.3233 52.6504 22.9217Z" fill="white"/>
<path d="M113.364 56.9069H103.712C103.712 56.9069 101.449 56.4548 101.741 55.2585C102.033 54.0621 105.452 55.0578 105.452 55.0578C105.452 55.0578 104.416 53.3865 107.725 53.8615C111.035 54.3364 111.357 55.9925 111.357 55.9925C111.357 55.9925 115.703 55.5887 113.364 56.9069Z" fill="white"/>
<path d="M14.7917 102.104C22.2969 101.903 28.2185 95.6567 28.018 88.1516C27.8175 80.6464 21.5709 74.7248 14.0658 74.9253C6.56067 75.1258 0.639068 81.3724 0.839529 88.8775C1.03999 96.3826 7.2866 102.304 14.7917 102.104Z" fill="#3D820E"/>
<path opacity="0.5" d="M22.5023 96.1628C27.6617 90.7087 28.2267 82.8651 23.7642 78.6437C19.3017 74.4222 11.5015 75.4214 6.34205 80.8755C1.18258 86.3296 0.61759 94.1732 5.08011 98.3946C9.54263 102.616 17.3428 101.617 22.5023 96.1628Z" fill="white"/>
<path d="M19.7308 93.541C24.8903 88.0869 26.6961 81.4172 23.7642 78.6436C20.8323 75.8701 14.273 78.0432 9.11353 83.4973C3.95406 88.9513 2.14824 95.6211 5.08011 98.3946C8.01198 101.168 14.5713 98.9951 19.7308 93.541Z" fill="#3D820E"/>
<path opacity="0.5" d="M16.6899 90.6644C21.8494 85.2103 25.0167 79.8285 23.7642 78.6437C22.5118 77.4589 17.3139 80.9198 12.1544 86.3739C6.99496 91.828 3.82768 97.2099 5.08012 98.3946C6.33257 99.5794 11.5304 96.1185 16.6899 90.6644Z" fill="white"/>
<path d="M96.3775 98.2671C96.1771 98.2677 95.9833 98.1957 95.8318 98.0644L41.0516 51.2891C40.8967 51.1403 40.8045 50.938 40.7939 50.7234C40.7833 50.5089 40.855 50.2985 40.9944 50.1351C41.1339 49.9718 41.3305 49.8679 41.544 49.8448C41.7575 49.8216 41.9718 49.8809 42.143 50.0105L96.9232 96.789C97.0543 96.9004 97.1479 97.0493 97.1915 97.2156C97.2351 97.3819 97.2266 97.5576 97.167 97.7188C97.1075 97.8801 96.9998 98.0192 96.8586 98.1173C96.7174 98.2154 96.5495 98.2677 96.3775 98.2671Z" fill="#3D820E"/>
<path d="M60.4822 98.2671C60.2923 98.2667 60.108 98.2031 59.9583 98.0863C59.8352 97.9914 59.7408 97.8642 59.6857 97.7188C59.6307 97.5735 59.6171 97.4157 59.6465 97.263L64.8885 71.0688C64.91 70.9607 64.9525 70.8579 65.0138 70.7662C65.075 70.6745 65.1537 70.5959 65.2453 70.5346C65.337 70.4734 65.4398 70.4308 65.5479 70.4093C65.656 70.3878 65.7673 70.3877 65.8754 70.4092C65.9835 70.4307 66.0863 70.4733 66.178 70.5346C66.2696 70.5958 66.3483 70.6745 66.4096 70.7661C66.4708 70.8578 66.5134 70.9606 66.5349 71.0687C66.5564 71.1768 66.5564 71.2881 66.5349 71.3962L61.6142 95.9689L90.1971 82.8905C90.2976 82.8417 90.4069 82.8134 90.5184 82.8074C90.63 82.8014 90.7417 82.8178 90.8469 82.8555C90.9521 82.8933 91.0486 82.9517 91.1309 83.0272C91.2132 83.1028 91.2796 83.1941 91.3261 83.2957C91.3727 83.3973 91.3985 83.5072 91.4019 83.6189C91.4054 83.7306 91.3866 83.8418 91.3464 83.9461C91.3063 84.0504 91.2458 84.1457 91.1684 84.2263C91.0909 84.3068 90.9982 84.3711 90.8956 84.4154L60.819 98.1798C60.7139 98.2316 60.5993 98.2613 60.4822 98.2671Z" fill="#3D820E"/>
<path d="M41.5973 50.6342H14.8043C21.7427 62.4996 40.9985 87.119 60.086 87.119H83.4425C68.3559 87.1066 48.5356 62.4996 41.5973 50.6342Z" fill="#3D820E"/>
<path opacity="0.2" d="M41.5973 50.6342H14.8043C21.7427 62.4996 40.9985 87.119 60.086 87.119H83.4425C68.3559 87.1066 48.5356 62.4996 41.5973 50.6342Z" fill="black"/>
<path d="M45.5919 53.9303L45.7821 53.7276L46.0004 53.4875C46.1469 53.3285 46.2966 53.1757 46.4401 52.9948C46.7301 52.6549 47.017 52.315 47.2945 51.9657C47.8451 51.2708 48.3603 50.5485 48.8381 49.8016C49.0751 49.4305 49.2965 49.0532 49.5023 48.6759C49.7081 48.2986 49.9046 47.915 50.0792 47.5283C50.4232 46.7752 50.6947 45.991 50.89 45.1864L51.3982 46.9296C51.1016 46.5704 50.7476 46.2627 50.3505 46.019C49.8335 45.6784 49.2985 45.3661 48.7476 45.0835C48.177 44.7873 47.5814 44.5035 46.9733 44.226L45.1428 43.4027L45.0992 43.3809C44.8556 43.2709 44.6578 43.0798 44.5394 42.8402C44.4211 42.6006 44.3896 42.3273 44.4504 42.0671C44.5111 41.8069 44.6603 41.5758 44.8725 41.4133C45.0846 41.2508 45.3466 41.167 45.6137 41.1762C46.3449 41.2086 47.0737 41.2826 47.7965 41.3976C48.5252 41.5123 49.2476 41.6642 49.9607 41.8529C50.7065 42.051 51.4362 42.3054 52.1435 42.6138C52.9978 42.974 53.7789 43.4876 54.448 44.1293C54.65 44.3313 54.8031 44.5768 54.8955 44.847C54.9879 45.1173 55.0173 45.4051 54.9812 45.6885L54.9563 45.8662C54.8062 46.9946 54.5289 48.1025 54.1299 49.1686C53.7472 50.1972 53.2778 51.1913 52.7267 52.1404C52.1907 53.0701 51.5916 53.962 50.9336 54.8097C50.6031 55.2307 50.2694 55.6454 49.9108 56.057C49.733 56.2566 49.5522 56.4562 49.3651 56.6526L49.0751 56.9458L48.7632 57.2576C48.3365 57.6906 47.7552 57.9363 47.1473 57.9406C46.5394 57.945 45.9547 57.7078 45.5217 57.281C45.0887 56.8542 44.843 56.273 44.8387 55.6651C44.8343 55.0572 45.0716 54.4724 45.4983 54.0395L45.5919 53.9303Z" fill="#FFC3BD"/>
<path d="M46.384 41.2323L43.7022 40.9018L42.8135 44.1355C42.8135 44.1355 45.5202 44.8309 46.6927 43.0815L46.384 41.2323Z" fill="#FFC3BD"/>
<path d="M41.6097 40.8831L41.2635 43.5929L42.8134 44.1355L43.7021 40.9018L41.6097 40.8831Z" fill="#FFC3BD"/>
<path d="M49.493 79.4167C49.493 79.4167 42.2366 73.7569 36.0841 62.8551C35.7411 62.2464 35.5333 61.5711 35.4749 60.8749C35.4165 60.1787 35.5088 59.4782 35.7456 58.8209C35.9823 58.1636 36.3579 57.5651 36.8468 57.0661C37.3357 56.5671 37.9265 56.1793 38.5787 55.9292C40.8957 55.0436 43.3904 54.2047 45.4235 53.5561C46.4233 53.2339 47.5007 53.2448 48.4937 53.5873C49.4868 53.9297 50.3419 54.5852 50.9306 55.4552C53.444 59.1972 55.9199 64.4735 63.6348 70.7944C63.7383 70.8784 63.8193 70.9868 63.8706 71.1099C63.9219 71.2329 63.9417 71.3668 63.9284 71.4994C63.9151 71.6321 63.8691 71.7594 63.7944 71.8698C63.7198 71.9803 63.6188 72.0704 63.5007 72.1322L49.493 79.4167Z" fill="#3D820E"/>
<path opacity="0.8" d="M49.493 79.4167C49.493 79.4167 42.2366 73.7569 36.0841 62.8551C35.7411 62.2464 35.5333 61.5711 35.4749 60.8749C35.4165 60.1787 35.5088 59.4782 35.7456 58.8209C35.9823 58.1636 36.3579 57.5651 36.8468 57.0661C37.3357 56.5671 37.9265 56.1793 38.5787 55.9292C40.8957 55.0436 43.3904 54.2047 45.4235 53.5561C46.4233 53.2339 47.5007 53.2448 48.4937 53.5873C49.4868 53.9297 50.3419 54.5852 50.9306 55.4552C53.444 59.1972 55.9199 64.4735 63.6348 70.7944C63.7383 70.8784 63.8193 70.9868 63.8706 71.1099C63.9219 71.2329 63.9417 71.3668 63.9284 71.4994C63.9151 71.6321 63.8691 71.7594 63.7944 71.8698C63.7198 71.9803 63.6188 72.0704 63.5007 72.1322L49.493 79.4167Z" fill="white"/>
<path opacity="0.2" d="M35.5289 61.4393C36.4395 58.586 37.2253 59.4467 37.5839 59.7305C40.3686 61.9445 41.8155 66.7218 41.5411 71.047C39.5082 68.4395 37.6716 65.6846 36.0466 62.8052C35.8036 62.3798 35.6289 61.9189 35.5289 61.4393Z" fill="black"/>
<path d="M36.1184 48.4825C37.5684 50.3348 39.7825 53.8181 39.0777 55.7265C40.9648 56.5287 43.0904 56.5633 45.0026 55.8232C47.4443 54.9469 46.6242 54.1205 45.5359 53.5093C43.0038 53.8742 42.1057 51.9346 41.6784 50.2163L36.1184 48.4825Z" fill="#FFC3BD"/>
<path opacity="0.2" d="M41.691 50.2319L38.5726 49.2652C38.7328 50.1023 39.0177 50.9106 39.4177 51.6632C40.0788 52.6736 41.8438 53.2224 43.1597 52.9636C42.3521 52.3025 41.9405 51.2329 41.691 50.2319Z" fill="black"/>
<path d="M42.7855 41.3165C43.9144 42.224 44.4383 44.2946 44.0329 45.7352C41.9903 42.514 41.9623 41.5629 41.9623 41.5629L42.7855 41.3165Z" fill="#263238"/>
<path d="M35.7847 45.7821C36.5082 48.7133 36.7826 50.4596 38.5632 51.7724C39.1261 52.2113 39.7988 52.4869 40.5078 52.569C41.2168 52.6512 41.9348 52.5368 42.5831 52.2384C43.2315 51.94 43.7853 51.469 44.184 50.877C44.5826 50.285 44.8108 49.5947 44.8436 48.8817C44.9964 46.1438 43.7896 41.8155 40.6618 41.0234C37.5341 40.2314 35.0644 42.8539 35.7847 45.7821Z" fill="#FFC3BD"/>
<path d="M36.2961 48.4794C37.0601 47.4285 37.4343 45.361 36.9853 43.8237C38.8563 43.3466 44.6471 43.0098 43.063 39.8977C41.4788 36.7855 39.3209 38.1857 39.2804 39.2989C35.7317 38.2699 33.3555 39.4486 34.3222 40.5463C30.6675 41.8685 31.9523 44.834 32.763 45.1895C31.497 46.6988 32.0552 50.0729 34.0322 50.1477C36.0092 50.2225 36.8637 51.7318 37.98 51.3015C37.768 50.1539 36.2961 48.4794 36.2961 48.4794Z" fill="#263238"/>
<path d="M40.1005 46.1095C40.1348 46.3371 40.2782 46.5024 40.4279 46.4805C40.5776 46.4587 40.668 46.2591 40.6369 46.0346C40.6057 45.8101 40.4591 45.6417 40.3094 45.6635C40.1597 45.6854 40.0693 45.8849 40.1005 46.1095Z" fill="#263238"/>
<path d="M42.8821 45.5731C42.9133 45.8007 43.0598 45.966 43.1939 45.9442C43.328 45.9223 43.4372 45.7228 43.406 45.4982C43.3748 45.2737 43.2376 45.1147 43.0973 45.1147C42.9569 45.1147 42.8478 45.3486 42.8821 45.5731Z" fill="#263238"/>
<path d="M34.8866 48.9128C35.318 49.4495 35.9361 49.8036 36.6173 49.9045C37.5153 50.0261 37.8022 49.2091 37.4124 48.4389C37.0663 47.7435 36.1651 46.8454 35.345 47.0761C34.5248 47.3069 34.3658 48.233 34.8866 48.9128Z" fill="#FFC3BD"/>
<path d="M41.984 45.8257C41.984 45.8257 42.7885 47.1385 43.5182 47.7279C43.1628 48.1832 42.3988 48.0958 42.3988 48.0958L41.984 45.8257Z" fill="#ED847E"/>
<path d="M41.2263 49.3119C40.6595 49.3123 40.1157 49.088 39.7139 48.6883C39.7071 48.6819 39.7017 48.6741 39.698 48.6655C39.6943 48.657 39.6924 48.6477 39.6924 48.6384C39.6924 48.629 39.6943 48.6198 39.698 48.6112C39.7017 48.6026 39.7071 48.5949 39.7139 48.5885C39.7278 48.5753 39.7462 48.568 39.7654 48.568C39.7845 48.568 39.8029 48.5753 39.8168 48.5885C40.0425 48.7996 40.3125 48.9576 40.6071 49.0509C40.9016 49.1443 41.2134 49.1706 41.5194 49.128C41.5384 49.1252 41.5577 49.1298 41.5733 49.1408C41.589 49.1518 41.5998 49.1684 41.6036 49.1872C41.6054 49.1965 41.6053 49.206 41.6032 49.2152C41.6011 49.2244 41.5972 49.233 41.5916 49.2406C41.5861 49.2483 41.579 49.2546 41.5709 49.2594C41.5628 49.2641 41.5537 49.2672 41.5444 49.2683C41.4395 49.2904 41.3332 49.305 41.2263 49.3119Z" fill="#263238"/>
<path d="M38.4353 45.2613C38.4103 45.2605 38.3858 45.2541 38.3636 45.2425C38.3294 45.2246 38.3037 45.1939 38.292 45.1571C38.2804 45.1204 38.2836 45.0804 38.3012 45.0461C38.4025 44.8462 38.5518 44.6747 38.7358 44.5468C38.9198 44.4189 39.1326 44.3386 39.3552 44.3133C39.3939 44.3106 39.4322 44.3232 39.4618 44.3482C39.4915 44.3732 39.5103 44.4088 39.5143 44.4474C39.5164 44.4657 39.5148 44.4843 39.5094 44.502C39.504 44.5197 39.495 44.5361 39.483 44.5502C39.471 44.5642 39.4563 44.5756 39.4396 44.5837C39.423 44.5918 39.4049 44.5963 39.3864 44.597C39.2104 44.6197 39.0428 44.6858 38.8986 44.7892C38.7543 44.8926 38.638 45.0301 38.56 45.1895C38.5474 45.2114 38.5292 45.2296 38.5073 45.2422C38.4854 45.2548 38.4606 45.2613 38.4353 45.2613Z" fill="#263238"/>
<path d="M43.8238 44.519C43.7998 44.5232 43.7752 44.5217 43.7519 44.5147C43.7287 44.5076 43.7073 44.4952 43.6897 44.4785C43.5633 44.3454 43.4075 44.2436 43.2348 44.1814C43.0621 44.1191 42.8772 44.0981 42.6949 44.1199C42.6567 44.1257 42.6177 44.1172 42.5854 44.0958C42.5531 44.0745 42.5299 44.042 42.5203 44.0045C42.5157 43.9867 42.5149 43.9681 42.5178 43.9499C42.5207 43.9317 42.5274 43.9143 42.5373 43.8988C42.5473 43.8833 42.5603 43.87 42.5756 43.8597C42.591 43.8495 42.6082 43.8425 42.6263 43.8392C42.854 43.8123 43.0849 43.838 43.3011 43.9142C43.5173 43.9904 43.7132 44.1152 43.8737 44.2789C43.8998 44.3062 43.9144 44.3425 43.9144 44.3803C43.9144 44.418 43.8998 44.4543 43.8737 44.4816C43.8594 44.4969 43.8425 44.5096 43.8238 44.519Z" fill="#263238"/>
<path d="M93.9047 96.4647L97.4503 95.813L88.6565 87.7177L86.1868 91.2633L93.9047 96.4647Z" fill="#FFC3BD"/>
<path d="M93.755 98.3856C93.4743 97.5748 93.6895 96.4803 92.8943 95.2298C92.8943 95.2298 94.7653 93.337 95.5449 94.1696C96.3245 95.0022 98.7443 95.8566 101.688 95.183C102.1 95.0895 102.224 96.3212 101.298 96.6393C99.7672 97.1632 98.6352 97.528 97.3286 97.9771C96.2122 98.3606 96.0126 98.7037 95.1457 99.0685C94.4223 99.3741 94.0387 99.1995 93.755 98.3856Z" fill="#FFC3BD"/>
<path d="M60.3106 73.7787C60.3106 73.7787 71.914 75.3379 78.7308 77.739C83.2555 79.3262 91.8279 89.9661 91.8279 89.9661L88.3603 93.4493C88.3603 93.4493 79.7567 87.7645 73.4452 84.6898C62.3968 86.8727 51.1988 87.5961 49.493 79.426C52.0407 77.7328 60.3106 73.7787 60.3106 73.7787Z" fill="#263238"/>
<path opacity="0.2" d="M77.0001 77.5987L75.8088 85.8873C77.7297 86.9101 79.7317 88.0701 81.5591 89.1647L77.0001 77.5987Z" fill="black"/>
<path d="M93.5899 90.1688L88.5943 95.0833L86.9072 93.4742L92.0432 88.226L93.5899 90.1688Z" fill="#3D820E"/>
<path d="M63.7409 71.2434C63.7409 71.2434 76.8942 67.0118 83.6984 69.4036C88.2232 70.9908 84.0445 86.0712 84.0445 86.0712L77.8827 86.8259C77.8827 86.8259 77.1997 80.8137 76.6353 77.7483C71.0441 80.0871 54.6291 85.0453 52.9358 76.8752C55.471 75.1975 63.7409 71.2434 63.7409 71.2434Z" fill="#263238"/>
<path d="M80.3397 95.0833L83.2772 95.2143L83.0309 85.379L78.7213 85.6908L80.3397 95.0833Z" fill="#FFC3BD"/>
<path d="M79.2702 96.9637C79.5165 96.1404 80.3335 95.3827 80.4208 93.9015C80.4208 93.9015 83.0527 93.4711 83.1899 94.6C83.3271 95.7288 84.7928 97.8399 87.5743 99.0218C87.961 99.1871 87.3405 100.269 86.405 99.9729C84.8458 99.502 83.7263 99.1309 82.4041 98.7256C81.2753 98.3825 80.9104 98.5416 79.9967 98.3295C79.2421 98.1549 79.03 97.79 79.2702 96.9637Z" fill="#FFC3BD"/>
<path d="M84.665 86.9662L77.7423 88.0482L77.3088 85.7562L84.5403 84.4839L84.665 86.9662Z" fill="#3D820E"/>
<path d="M39.8729 60.2887C40.0506 62.3187 40.2252 64.4049 40.4529 66.4381C40.5589 67.4547 40.6961 68.465 40.8395 69.4535C40.9698 70.3807 41.1604 71.2984 41.4102 72.2008C41.4565 72.3573 41.5106 72.5113 41.5724 72.6623C41.5911 72.7122 41.6098 72.7465 41.5942 72.7278C41.5786 72.7091 41.5942 72.7434 41.5412 72.6748L41.4726 72.6062L41.4227 72.5594L41.3697 72.522L41.3385 72.5033C41.3237 72.4927 41.308 72.4833 41.2917 72.4752C41.2449 72.4565 41.2699 72.4752 41.3135 72.5002C41.3759 72.532 41.4405 72.5591 41.5069 72.5812C41.6945 72.6507 41.8861 72.709 42.0807 72.7559C42.5079 72.8619 42.985 72.9492 43.4714 73.0241C43.9579 73.0989 44.4568 73.1737 44.962 73.2361C46.9796 73.4887 49.0783 73.654 51.152 73.8598H51.1738C51.4479 73.8903 51.7019 74.0186 51.8892 74.2211C52.0765 74.4236 52.1846 74.6868 52.1937 74.9625C52.2028 75.2382 52.1123 75.5079 51.9387 75.7223C51.7652 75.9367 51.5202 76.0814 51.2486 76.1299C49.1144 76.49 46.9573 76.6984 44.7936 76.7536C43.6558 76.7967 42.5164 76.7529 41.3853 76.6226C41.0593 76.5817 40.7357 76.5245 40.4155 76.4511C40.2408 76.4075 40.06 76.3576 39.8573 76.2859C39.6167 76.2053 39.3848 76.1008 39.165 75.974C39.1057 75.9397 39.0278 75.8929 38.9529 75.8399L38.8407 75.762L38.7315 75.6747L38.6068 75.5624C38.5587 75.518 38.5129 75.4711 38.4696 75.4221C38.4078 75.3555 38.3495 75.2858 38.295 75.2131C38.1465 75.0232 38.013 74.822 37.8958 74.6113C37.7217 74.2921 37.5686 73.9619 37.4374 73.6228C37.2164 73.0556 37.03 72.4756 36.8792 71.8859C36.7327 71.3277 36.6079 70.7819 36.4926 70.2362C36.2587 69.1479 36.0934 68.0721 35.9313 66.9994C35.6194 64.8477 35.4167 62.7366 35.3076 60.56C35.284 59.9631 35.494 59.3805 35.8931 58.936C36.2922 58.4915 36.8489 58.2201 37.4449 58.1795C38.0409 58.1389 38.6293 58.3323 39.0849 58.7185C39.5406 59.1048 39.8278 59.6535 39.8853 60.2481L39.8729 60.2887Z" fill="#FFC3BD"/>
<path d="M71.3372 68.8142L77.8577 71.8234C78.26 72.0074 78.5437 72.5937 78.2724 72.681L59.7088 78.4811C59.5591 78.507 59.4057 78.5024 59.2578 78.4676C59.1099 78.4327 58.9706 78.3684 58.8482 78.2784L53.3879 74.9979C52.9981 74.764 52.7642 74.2308 53.0355 74.1528L71.3372 68.8142Z" fill="#3D820E"/>
<path opacity="0.4" d="M71.3372 68.8142L77.8577 71.8234C78.26 72.0074 78.5437 72.5937 78.2724 72.681L59.7088 78.4811C59.5591 78.507 59.4057 78.5024 59.2578 78.4676C59.1099 78.4327 58.9706 78.3684 58.8482 78.2784L53.3879 74.9979C52.9981 74.764 52.7642 74.2308 53.0355 74.1528L71.3372 68.8142Z" fill="black"/>
<path d="M76.9554 58.7027L75.4692 59.1533L75.567 59.4756L77.0531 59.0249L76.9554 58.7027Z" fill="#3D820E"/>
<path d="M73.8294 59.6437L68.255 61.3341L68.3527 61.6564L73.9272 59.9659L73.8294 59.6437Z" fill="#3D820E"/>
<path d="M79.1299 59.2596L59.9988 65.0722C59.8763 65.1135 59.7682 65.1888 59.687 65.2893C59.6058 65.3898 59.555 65.5114 59.5404 65.6398L58.8668 77.8513C58.859 77.9032 58.8652 77.9563 58.8849 78.005C58.9046 78.0537 58.937 78.0962 58.9788 78.1281C59.0205 78.1599 59.0701 78.18 59.1223 78.1862C59.1744 78.1923 59.2273 78.1844 59.2753 78.1631L78.4096 72.3692C78.5321 72.327 78.6401 72.2511 78.7212 72.1501C78.8024 72.0491 78.8532 71.9272 78.868 71.7985L79.5415 59.5902C79.5539 59.5364 79.5509 59.4803 79.5329 59.4282C79.5148 59.3762 79.4824 59.3302 79.4394 59.2957C79.3965 59.2612 79.3446 59.2395 79.2899 59.2331C79.2351 59.2267 79.1797 59.2359 79.1299 59.2596Z" fill="#3D820E"/>
<path opacity="0.4" d="M59.5404 65.6241L58.8668 77.8356C58.859 77.8876 58.8652 77.9407 58.8849 77.9894C58.9046 78.0381 58.937 78.0806 58.9788 78.1124C59.0205 78.1443 59.0701 78.1644 59.1223 78.1705C59.1744 78.1767 59.2273 78.1687 59.2753 78.1475L59.9988 65.0504C59.8755 65.0921 59.7667 65.1683 59.6854 65.27C59.6042 65.3717 59.5538 65.4946 59.5404 65.6241Z" fill="black"/>
<path d="M50.7558 73.7725L53.3753 73.261L53.2381 76.6912C53.2381 76.6912 50.2725 76.9469 49.8079 75.5842L50.0667 74.4367C50.104 74.2707 50.1892 74.1193 50.3117 74.0013C50.4342 73.8832 50.5886 73.8037 50.7558 73.7725Z" fill="#FFC3BD"/>
<path d="M55.3368 73.4793L56.316 76.0239L53.2382 76.6912L53.3754 73.261L55.3368 73.4793Z" fill="#FFC3BD"/>
<path d="M69.5814 98.2671C69.382 98.2675 69.1892 98.1955 69.0389 98.0644L14.2586 51.2891C14.1037 51.1403 14.0115 50.938 14.0009 50.7234C13.9903 50.5089 14.062 50.2985 14.2015 50.1351C14.3409 49.9718 14.5375 49.8679 14.751 49.8448C14.9645 49.8216 15.1788 49.8809 15.3501 50.0105L70.1272 96.789C70.2582 96.9004 70.3518 97.0493 70.3955 97.2156C70.4391 97.3819 70.4305 97.5576 70.371 97.7188C70.3114 97.8801 70.2037 98.0192 70.0625 98.1173C69.9213 98.2154 69.7534 98.2677 69.5814 98.2671Z" fill="#3D820E"/>
<path opacity="0.3" d="M69.5814 98.2671C69.382 98.2675 69.1892 98.1955 69.0389 98.0644L14.2586 51.2891C14.1037 51.1403 14.0115 50.938 14.0009 50.7234C13.9903 50.5089 14.062 50.2985 14.2015 50.1351C14.3409 49.9718 14.5375 49.8679 14.751 49.8448C14.9645 49.8216 15.1788 49.8809 15.3501 50.0105L70.1272 96.789C70.2582 96.9004 70.3518 97.0493 70.3955 97.2156C70.4391 97.3819 70.4305 97.5576 70.371 97.7188C70.3114 97.8801 70.2037 98.0192 70.0625 98.1173C69.9213 98.2154 69.7534 98.2677 69.5814 98.2671Z" fill="white"/>
<path d="M33.6861 98.2671C33.4972 98.2663 33.314 98.2026 33.1653 98.0863C33.0424 97.9912 32.9483 97.8639 32.8932 97.7186C32.8382 97.5733 32.8244 97.4156 32.8535 97.263L38.0985 71.0688C38.12 70.9607 38.1626 70.8579 38.2239 70.7662C38.2851 70.6745 38.3638 70.5959 38.4554 70.5346C38.5471 70.4734 38.6499 70.4308 38.758 70.4093C38.8661 70.3878 38.9774 70.3877 39.0855 70.4092C39.1936 70.4307 39.2964 70.4733 39.3881 70.5346C39.4797 70.5958 39.5584 70.6745 39.6197 70.7661C39.6809 70.8578 39.7235 70.9606 39.745 71.0687C39.7665 71.1768 39.7665 71.2881 39.745 71.3962L34.8243 95.9689L63.4072 82.8905C63.5077 82.8417 63.6169 82.8134 63.7285 82.8074C63.8401 82.8014 63.9518 82.8178 64.057 82.8555C64.1621 82.8933 64.2587 82.9517 64.341 83.0272C64.4233 83.1028 64.4897 83.1941 64.5362 83.2957C64.5828 83.3973 64.6085 83.5072 64.612 83.6189C64.6155 83.7306 64.5966 83.8418 64.5565 83.9461C64.5164 84.0504 64.4559 84.1457 64.3785 84.2263C64.301 84.3068 64.2083 84.3711 64.1057 84.4154L34.026 98.1798C33.9199 98.232 33.8042 98.2618 33.6861 98.2671Z" fill="#3D820E"/>
<path opacity="0.3" d="M33.6861 98.2671C33.4972 98.2663 33.314 98.2026 33.1653 98.0863C33.0424 97.9912 32.9483 97.8639 32.8932 97.7186C32.8382 97.5733 32.8244 97.4156 32.8535 97.263L38.0985 71.0688C38.12 70.9607 38.1626 70.8579 38.2239 70.7662C38.2851 70.6745 38.3638 70.5959 38.4554 70.5346C38.5471 70.4734 38.6499 70.4308 38.758 70.4093C38.8661 70.3878 38.9774 70.3877 39.0855 70.4092C39.1936 70.4307 39.2964 70.4733 39.3881 70.5346C39.4797 70.5958 39.5584 70.6745 39.6197 70.7661C39.6809 70.8578 39.7235 70.9606 39.745 71.0687C39.7665 71.1768 39.7665 71.2881 39.745 71.3962L34.8243 95.9689L63.4072 82.8905C63.5077 82.8417 63.6169 82.8134 63.7285 82.8074C63.8401 82.8014 63.9518 82.8178 64.057 82.8555C64.1621 82.8933 64.2587 82.9517 64.341 83.0272C64.4233 83.1028 64.4897 83.1941 64.5362 83.2957C64.5828 83.3973 64.6085 83.5072 64.612 83.6189C64.6155 83.7306 64.5966 83.8418 64.5565 83.9461C64.5164 84.0504 64.4559 84.1457 64.3785 84.2263C64.301 84.3068 64.2083 84.3711 64.1057 84.4154L34.026 98.1798C33.9199 98.232 33.8042 98.2618 33.6861 98.2671Z" fill="white"/>
</svg>
