<svg width="101" height="110" viewBox="0 0 101 110" fill="none" xmlns="http://www.w3.org/2000/svg">
<rect y="10" width="100" height="100" rx="8" fill="#F1F6F9"/>
<path d="M101 83.202L54.9695 109.776L0 78.0406C0.196649 77.6205 0.41272 77.203 0.643358 76.7903C1.28916 75.6334 2.02888 74.5315 2.85505 73.4958C5.33866 70.3712 8.80794 67.4433 13.2775 64.8699C33.3988 53.253 66.0159 53.253 86.1372 64.8699C92.7966 68.7131 97.2515 73.3501 99.5021 78.2566C100.019 79.3783 100.425 80.5475 100.716 81.7477C100.828 82.2309 100.92 82.714 101 83.202Z" fill="#0F344A"/>
<path opacity="0.4" d="M101 83.202L54.9695 109.776L0 78.0406C0.196649 77.6205 0.41272 77.203 0.643358 76.7903C1.28916 75.6334 2.02888 74.5315 2.85505 73.4958C5.33866 70.3712 8.80794 67.4433 13.2775 64.8699C33.3988 53.253 66.0159 53.253 86.1372 64.8699C92.7966 68.7131 97.2515 73.3501 99.5021 78.2566C100.019 79.3783 100.425 80.5475 100.716 81.7477C100.828 82.2309 100.92 82.714 101 83.202Z" fill="black"/>
<path d="M100.709 81.7477L54.9695 108.155L0.653076 76.7903C1.29888 75.6334 2.0386 74.5315 2.86477 73.4958C5.33867 70.3712 8.80795 67.4433 13.2775 64.8699C33.3988 53.253 66.0159 53.253 86.1372 64.8699C92.7966 68.7131 97.2515 73.3501 99.5021 78.2566C100.016 79.3785 100.42 80.5477 100.709 81.7477Z" fill="#0F344A"/>
<path d="M99.4899 78.2566L55.3045 103.772L2.86475 73.4958C5.33864 70.3712 8.80792 67.4433 13.2774 64.8699C33.3988 53.253 66.0158 53.253 86.1372 64.8699C92.7844 68.7131 97.2394 73.3428 99.4899 78.2566Z" fill="#0F344A"/>
<path d="M99.4899 78.2566L55.3045 103.772L2.86475 73.4958C5.33864 70.3712 8.80792 67.4433 13.2774 64.8699C33.3988 53.253 66.0158 53.253 86.1372 64.8699C92.7844 68.7131 97.2394 73.3428 99.4899 78.2566Z" fill="#0F344A"/>
<path opacity="0.4" d="M99.4899 78.2566L55.3045 103.772L2.86475 73.4958C5.33864 70.3712 8.80792 67.4433 13.2774 64.8699C33.3988 53.253 66.0158 53.253 86.1372 64.8699C92.7844 68.7131 97.2394 73.3428 99.4899 78.2566Z" fill="white"/>
<path opacity="0.2" d="M60.2062 93.3792C55.3701 96.1711 47.5332 96.1711 42.6971 93.3792C39.439 91.4977 38.3781 88.8296 39.5094 86.4358C39.558 86.3338 39.609 86.2343 39.6648 86.1347C39.82 85.8568 39.9978 85.592 40.1965 85.3433C40.8936 84.5024 41.7417 83.7992 42.6971 83.27C47.5332 80.4805 55.3701 80.4805 60.2062 83.27C61.8061 84.195 62.8767 85.3093 63.4181 86.4868C63.5418 86.7569 63.6393 87.0381 63.7094 87.3268C63.7368 87.439 63.7587 87.5524 63.775 87.6667C64.1003 89.7157 62.9083 91.8182 60.2062 93.3792Z" fill="black"/>
<path opacity="0.2" d="M83.2773 83.4205C80.4806 85.035 75.9479 85.035 73.1536 83.4205C71.2696 82.3256 70.6554 80.7888 71.3012 79.4122C71.3303 79.354 71.3594 79.2957 71.391 79.2374C71.4817 79.0775 71.5848 78.9248 71.6993 78.781C72.105 78.293 72.5992 77.8861 73.156 77.5817C75.9504 75.9672 80.483 75.9672 83.2798 77.5817C84.2048 78.1158 84.8238 78.7616 85.137 79.4414C85.208 79.5978 85.2649 79.7603 85.307 79.9269C85.3215 79.9949 85.3361 80.0629 85.3458 80.1284C85.5279 81.301 84.8408 82.5174 83.2773 83.4205Z" fill="black"/>
<path opacity="0.2" d="M31.3644 82.8548L17.849 75.0423C17.7093 74.9618 17.5933 74.8459 17.5126 74.7063C17.432 74.5667 17.3895 74.4084 17.3895 74.2472C17.3895 74.086 17.432 73.9276 17.5126 73.788C17.5933 73.6484 17.7093 73.5326 17.849 73.4521L23.2435 70.3372C23.6775 70.0867 24.1698 69.9547 24.671 69.9547C25.1722 69.9547 25.6645 70.0867 26.0985 70.3372L39.6139 78.1401C39.7536 78.2206 39.8696 78.3365 39.9502 78.476C40.0309 78.6156 40.0734 78.774 40.0734 78.9352C40.0734 79.0964 40.0309 79.2548 39.9502 79.3943C39.8696 79.5339 39.7536 79.6498 39.6139 79.7303L34.2194 82.8451C33.7862 83.0972 33.2944 83.2308 32.7932 83.2325C32.292 83.2342 31.7992 83.1039 31.3644 82.8548Z" fill="black"/>
<path d="M85.3166 72.0998L87.4433 73.3355C87.4433 73.3355 86.3702 69.9099 86.9578 66.4625C87.1008 65.6503 87.3948 64.8722 87.8245 64.1683C87.9896 63.8211 89.2811 61.6701 88.1449 60.6796C87.0087 59.689 84.3649 61.6507 84.4839 66.9699C84.5434 68.7082 84.8232 70.4319 85.3166 72.0998Z" fill="#0F344A"/>
<path opacity="0.3" d="M85.3166 72.0998L87.4433 73.3355C87.4433 73.3355 86.3702 69.9099 86.9578 66.4625C87.1008 65.6503 87.3948 64.8722 87.8245 64.1683C87.9896 63.8211 89.2811 61.6701 88.1449 60.6796C87.0087 59.689 84.3649 61.6507 84.4839 66.9699C84.5434 68.7082 84.8232 70.4319 85.3166 72.0998Z" fill="black"/>
<path d="M86.3048 72.7747C86.2846 72.7744 86.2649 72.768 86.2484 72.7563C86.2319 72.7446 86.2194 72.7282 86.2125 72.7092C86.2125 72.6873 85.3992 70.4538 85.4405 66.8704C85.4818 63.287 87.3827 61.3423 87.3973 61.3229C87.4065 61.3137 87.4175 61.3063 87.4296 61.3013C87.4416 61.2963 87.4546 61.2938 87.4677 61.2938C87.4807 61.2938 87.4937 61.2963 87.5058 61.3013C87.5179 61.3063 87.5288 61.3137 87.5381 61.3229C87.5473 61.3322 87.5547 61.3431 87.5597 61.3552C87.5647 61.3673 87.5672 61.3803 87.5672 61.3933C87.5672 61.4064 87.5647 61.4194 87.5597 61.4314C87.5547 61.4435 87.5473 61.4545 87.5381 61.4637C87.5187 61.4832 85.6808 63.3525 85.6396 66.8728C85.5983 70.3931 86.3897 72.6193 86.3995 72.6412C86.4074 72.666 86.4055 72.6929 86.3942 72.7164C86.3829 72.7398 86.3631 72.7581 86.3388 72.7674C86.3281 72.7724 86.3165 72.7749 86.3048 72.7747Z" fill="white"/>
<path d="M86.9652 73.066L90.4806 75.1321C90.4806 75.1321 92.0902 74.8893 91.9664 73.3817C91.8425 71.874 91.1919 71.5098 92.0052 70.8446C92.8185 70.1794 93.0297 70.1333 92.9909 69.4827C92.952 68.832 92.5053 68.5455 92.3063 68.2858C92.1072 68.026 91.5245 67.4846 91.93 66.698C92.3354 65.9114 92.8841 65.1515 92.0683 64.7922C91.5828 64.5761 90.7646 64.8456 90.2232 65.421C89.6818 65.9964 89.2327 66.4115 88.718 66.5451C88.2033 66.6786 87.1351 66.6883 87.1691 67.5744C87.2031 68.4606 87.4361 68.764 87.2225 69.1573C86.8171 69.8978 85.0885 70.296 86.9652 73.066Z" fill="#0F344A"/>
<path d="M88.3975 74.008C88.3725 74.0075 88.3485 73.9979 88.3301 73.9809C88.3118 73.9639 88.3003 73.9407 88.2979 73.9158C88.2979 73.8624 87.9119 68.6208 91.5536 65.1758C91.5628 65.1666 91.5738 65.1592 91.5859 65.1542C91.598 65.1492 91.6109 65.1466 91.624 65.1466C91.6371 65.1466 91.65 65.1492 91.6621 65.1542C91.6742 65.1592 91.6851 65.1666 91.6944 65.1758C91.7125 65.1948 91.7226 65.22 91.7226 65.2462C91.7226 65.2724 91.7125 65.2977 91.6944 65.3166C88.1231 68.6912 88.497 73.8405 88.5019 73.8915C88.5029 73.9046 88.5013 73.9177 88.4972 73.9302C88.4931 73.9426 88.4865 73.9542 88.478 73.9641C88.4694 73.974 88.4589 73.9821 88.4472 73.988C88.4355 73.9939 88.4227 73.9974 88.4096 73.9983L88.3975 74.008Z" fill="white"/>
<path d="M89.0239 69.5166C88.9988 69.5167 88.9745 69.5072 88.956 69.4901C88.9375 69.473 88.9262 69.4495 88.9244 69.4244C88.8969 69.0224 88.7883 68.6302 88.6051 68.2714C88.422 67.9126 88.168 67.5945 87.8586 67.3365C87.8401 67.3201 87.8284 67.2974 87.8258 67.2728C87.8231 67.2482 87.8297 67.2235 87.8442 67.2036C87.8588 67.1836 87.8802 67.1697 87.9044 67.1647C87.9286 67.1596 87.9538 67.1638 87.9751 67.1763C88.3104 67.4491 88.5856 67.7884 88.7832 68.1728C88.9808 68.5572 89.0967 68.9784 89.1235 69.4098C89.1245 69.4229 89.1229 69.436 89.1188 69.4485C89.1147 69.461 89.1081 69.4725 89.0996 69.4824C89.091 69.4923 89.0805 69.5005 89.0688 69.5064C89.0571 69.5122 89.0443 69.5157 89.0312 69.5166H89.0239Z" fill="white"/>
<path d="M88.7666 70.4101C88.7471 70.4108 88.7279 70.4057 88.7115 70.3953C88.695 70.385 88.682 70.37 88.6742 70.3522C88.6663 70.3345 88.664 70.3147 88.6675 70.2956C88.671 70.2765 88.6801 70.2589 88.6937 70.245C88.7326 70.2013 89.6478 69.2083 91.7697 69.5021C91.7942 69.5074 91.8157 69.5218 91.8301 69.5423C91.8444 69.5628 91.8506 69.5879 91.8472 69.6128C91.8438 69.6376 91.8312 69.6602 91.8119 69.6761C91.7926 69.6921 91.768 69.7001 91.743 69.6987C89.7328 69.422 88.8491 70.3688 88.8418 70.3785C88.8323 70.3889 88.8207 70.3971 88.8077 70.4026C88.7947 70.408 88.7806 70.4106 88.7666 70.4101Z" fill="white"/>
<path d="M33.3502 60.1382L26.4141 56.1348V43.7241C26.4141 43.071 26.6447 42.566 27.0429 42.3354C27.2328 42.236 27.4463 42.1905 27.6603 42.2037C27.8743 42.217 28.0805 42.2885 28.2567 42.4106L31.7794 44.4524C32.6607 44.9598 33.3502 46.2684 33.3502 47.4288V60.1382ZM26.9336 55.8362L32.8307 59.2351V47.4361C32.8307 46.4771 32.231 45.3191 31.5197 44.9088L27.9848 42.867C27.8873 42.7967 27.7732 42.7528 27.6536 42.7396C27.5341 42.7264 27.4132 42.7444 27.3026 42.7918C27.0598 42.9253 26.9336 43.2773 26.9336 43.7313V55.8362Z" fill="#37474F"/>
<path d="M31.7284 43.9887L28.6913 42.2358C28.5946 42.18 28.4849 42.1506 28.3732 42.1506C28.2615 42.1506 28.1518 42.18 28.0551 42.2359C27.9584 42.2917 27.8781 42.3721 27.8223 42.4688C27.7665 42.5655 27.7371 42.6753 27.7372 42.7869C27.7379 42.8985 27.7675 43.0079 27.8233 43.1045C27.8791 43.2012 27.959 43.2816 28.0552 43.338L31.0924 45.0909C31.1891 45.1467 31.2988 45.1761 31.4105 45.1761C31.5221 45.1761 31.6318 45.1467 31.7285 45.0908C31.8252 45.035 31.9055 44.9546 31.9613 44.8579C32.0172 44.7612 32.0465 44.6515 32.0465 44.5398C32.0458 44.4282 32.0161 44.3188 31.9604 44.2222C31.9046 44.1255 31.8247 44.0451 31.7284 43.9887Z" fill="#0F344A"/>
<path d="M34.0033 77.5477C33.9765 78.0373 33.8349 78.5137 33.5898 78.9385C33.3448 79.3632 33.0032 79.7242 32.5928 79.9925C31.8135 80.4416 31.1798 80.0775 31.1798 79.1768C31.208 78.6885 31.3505 78.2138 31.596 77.7908C31.8414 77.3678 32.1829 77.0084 32.5928 76.7417C33.3697 76.2853 34.0033 76.6495 34.0033 77.5477Z" fill="#263238"/>
<path d="M31.5464 80.058L32.3111 80.4974V78.6572L31.5464 80.058Z" fill="#263238"/>
<path d="M34.6417 77.9192C34.6148 78.4084 34.473 78.8844 34.228 79.3087C33.9829 79.733 33.6415 80.0936 33.2312 80.3615C32.4519 80.8131 31.8207 80.4465 31.8207 79.5482C31.8473 79.0586 31.9888 78.5821 32.2339 78.1573C32.479 77.7326 32.8206 77.3715 33.2312 77.1034C34.0105 76.6543 34.6417 77.0185 34.6417 77.9192Z" fill="#455A64"/>
<path d="M36.0985 57.3365V75.9527C36.0985 76.4746 35.9164 76.834 35.63 76.9723L29.8834 80.3202V59.7473L35.8946 56.3145C36.0246 56.6398 36.0938 56.9862 36.0985 57.3365Z" fill="#0F344A"/>
<path opacity="0.4" d="M36.0985 57.3365V75.9527C36.0985 76.4746 35.9164 76.834 35.63 76.9723L29.8834 80.3202V59.7473L35.8946 56.3145C36.0246 56.6398 36.0938 56.9862 36.0985 57.3365Z" fill="black"/>
<path d="M35.8945 56.3023L29.8833 59.7473L24.2582 56.2343L18.8953 52.8792L24.6369 49.541L24.6661 49.524C24.7948 49.4534 24.9409 49.4207 25.0874 49.4298C25.2339 49.4388 25.3749 49.4891 25.4939 49.575L34.8675 54.9889C35.3424 55.3046 35.7026 55.7653 35.8945 56.3023Z" fill="#0F344A"/>
<path opacity="0.2" d="M35.8945 56.3023L33.1196 57.8876L32.6656 58.1474L29.8833 59.7473L24.2582 56.2343L18.8953 52.8792L21.726 51.2331L22.2432 50.9321L24.6369 49.541L24.6661 49.524C24.7948 49.4534 24.9409 49.4207 25.0874 49.4298C25.2339 49.4388 25.3749 49.4891 25.4939 49.575L34.8675 54.9889C35.3424 55.3046 35.7026 55.7653 35.8945 56.3023Z" fill="black"/>
<path d="M29.0822 80.2522L19.7086 74.8408C19.0264 74.445 18.4729 73.3841 18.4729 72.4785V53.8624C18.4729 52.952 19.0264 52.5344 19.7086 52.9277L29.0822 58.3416C29.7644 58.7349 30.318 59.7983 30.318 60.7014V79.3176C30.318 80.228 29.7644 80.6455 29.0822 80.2522Z" fill="#0F344A"/>
<path d="M33.4425 78.2493V59.2763C33.4353 58.7957 33.3252 58.3222 33.1196 57.8876C32.8925 57.3504 32.5094 56.8937 32.0198 56.5767L22.2432 50.92L21.7261 51.221L31.76 57.0258C32.1667 57.3013 32.482 57.6918 32.6656 58.1474C32.8286 58.502 32.917 58.8862 32.9254 59.2763V78.5504L33.4425 78.2493Z" fill="#37474F"/>
<path opacity="0.2" d="M22.0174 74.7461C21.8686 74.6373 21.7472 74.4952 21.6629 74.3313C21.5786 74.1673 21.5337 73.986 21.5319 73.8017V56.4237C21.5319 56.0595 21.7528 55.892 22.0174 56.0498C22.1665 56.1583 22.2881 56.3003 22.3724 56.4643C22.4568 56.6283 22.5015 56.8098 22.503 56.9942V74.3722C22.503 74.7363 22.282 74.9039 22.0174 74.7461Z" fill="black"/>
<path opacity="0.2" d="M24.3967 75.8192C24.2476 75.7106 24.126 75.5687 24.0417 75.4047C23.9573 75.2407 23.9126 75.0592 23.9111 74.8748V57.4992C23.9111 57.1351 24.1321 56.9675 24.3967 57.1253C24.5455 57.2341 24.6669 57.3761 24.7512 57.5401C24.8355 57.704 24.8804 57.8854 24.8822 58.0697V75.4453C24.8895 75.8094 24.6686 75.977 24.3967 75.8192Z" fill="black"/>
<path opacity="0.2" d="M26.7832 77.1301C26.6343 77.0214 26.5129 76.8793 26.4286 76.7154C26.3444 76.5514 26.2995 76.3701 26.2976 76.1857V58.8078C26.2976 58.446 26.5185 58.2785 26.7832 58.4363C26.9319 58.5446 27.0533 58.6862 27.1376 58.8497C27.222 59.0133 27.2668 59.1943 27.2687 59.3783V76.7563C27.2784 77.1204 27.0575 77.2879 26.7832 77.1301Z" fill="black"/>
<path d="M55.8386 84.9063C55.8386 84.9063 55.5351 84.9815 55.6201 85.6735C55.7051 86.3654 55.8119 87.2515 55.8119 87.2515C55.8119 87.2515 55.9114 88.6863 55.9042 89.6234C55.8969 90.5606 55.8435 91.8084 56.0328 92.4858C56.2222 93.1631 56.6204 93.8672 57.2297 93.8429C57.8391 93.8186 59.2763 92.9252 59.1355 90.5533C59.0991 89.9075 58.4315 87.7249 58.4315 87.7249C58.4315 87.7249 58.5383 85.6031 58.5237 85.0811C58.5272 84.9969 58.506 84.9135 58.4629 84.8411C58.4198 84.7687 58.3566 84.7103 58.2809 84.6732L55.8386 84.9063Z" fill="#37474F"/>
<path d="M55.4963 82.9811L55.8702 85.0956C55.8702 85.0956 56.0523 85.7341 57.1934 85.7341C57.4523 85.7393 57.7046 85.652 57.9049 85.4878C58.1051 85.3235 58.2402 85.0932 58.2858 84.8383L58.3538 82.8135L55.4963 82.9811Z" fill="#945959"/>
<path d="M43.445 43.0686L42.3937 45.0108L37.3391 46.7782C37.3391 46.7782 36.4773 46.1979 36.4044 46.2683C36.3316 46.3388 36.0136 46.9967 37.2007 47.5599L38.082 49.1574C38.082 49.1574 44.2 47.9435 44.7293 47.5599C45.2585 47.1763 46.1276 45.3749 46.1276 45.3749C46.1276 45.3749 45.5256 43.02 43.445 43.0686Z" fill="#945959"/>
<path d="M47.3756 87.5404L46.5428 87.0015V85.9235L47.344 85.9964L47.3756 87.5404Z" fill="#263238"/>
<path d="M48.5117 84.797L48.4801 86.8728L47.3755 87.5404L47.2493 85.7706C47.2493 85.7706 48.1136 84.7825 48.5117 84.797Z" fill="#263238"/>
<path d="M45.4915 82.362C45.4915 82.362 45.4333 82.4081 44.7316 84.2896C44.03 86.1711 43.2993 86.8679 42.8744 87.2199C42.4495 87.572 41.4857 88.225 41.4857 88.7276C41.4857 89.2301 42.299 89.6259 43.4886 89.5239C44.6782 89.4219 46.3534 89.1306 46.7831 87.7031C46.9239 87.2418 46.9506 86.3994 47.4896 85.8191C48.0286 85.2389 48.5117 84.797 48.5117 84.797C48.5117 84.797 48.5675 82.8936 48.0261 82.3838L45.4915 82.362Z" fill="#37474F"/>
<path d="M45.4381 80.0483L45.4964 82.5538C45.4964 82.5538 45.5862 83.3161 46.7612 83.1631C47.9363 83.0102 48.014 82.4688 48.014 82.4688L48.5457 80.041L45.4381 80.0483Z" fill="#945959"/>
<path d="M50.1504 67.8828C50.0845 68.19 50.0511 68.5032 50.0509 68.8174C50.0509 69.1085 50.0802 69.3989 50.1383 69.6842C50.3276 70.5986 50.3276 71.5422 50.1383 72.4567L48.5529 80.0483C48.0739 80.3007 47.5406 80.4326 46.9991 80.4326C46.4577 80.4326 45.9244 80.3007 45.4454 80.0483C45.4454 80.0483 45.3483 72.5611 45.3483 66.9893C45.3483 56.5305 46.5476 51.0316 46.5476 51.0316H52.0586V59.1525L50.2281 67.5623L50.1504 67.8828Z" fill="#945959"/>
<path d="M52.7749 56.834L50.8618 67.2297C50.6641 67.3682 50.4485 67.4793 50.2209 67.5599C48.218 68.2882 45.3411 66.9869 45.3411 66.9869C45.3411 56.5281 46.5404 51.0292 46.5404 51.0292L52.486 51.0074L52.7749 56.834Z" fill="#37474F"/>
<path d="M52.702 57.237L52.0513 53.1584H47.7129C47.7129 53.1584 47.9435 55.6662 49.8275 56.9238L51.2526 65.103L52.702 57.237Z" fill="#263238"/>
<path d="M58.7519 71.2647L58.3538 82.8111C57.9598 83.1446 57.4683 83.3412 56.953 83.3714C56.4377 83.4016 55.9265 83.2638 55.4963 82.9786L52.8015 67.8366V67.7881L50.4223 56.2125C48.3732 55.659 47.2662 53.2652 46.8122 51.9323C46.7051 51.6371 46.6136 51.3364 46.5378 51.0316L56.9433 50.0897C57.0649 50.3882 57.1655 50.6948 57.2443 51.0074C57.6695 52.675 57.9056 54.3852 57.9484 56.1057C57.9484 57.7031 57.9119 64.1562 57.8974 66.7223V66.7417C57.8969 67.4343 58.0338 68.12 58.3004 68.7592C58.6312 69.5516 58.7852 70.4066 58.7519 71.2647Z" fill="#945959"/>
<path d="M57.9484 56.1057C57.9484 57.7031 57.912 64.1562 57.8974 66.7223C57.1934 67.2927 56.3654 67.69 55.4799 67.8823C54.5945 68.0746 53.6763 68.0564 52.7991 67.8294C52.5772 67.7775 52.3591 67.711 52.146 67.6303L50.4223 56.2125C47.5551 55.5886 46.7806 51.9348 46.7806 51.9348H46.8171L57.2565 51.0195C57.6766 52.6837 57.9087 54.3897 57.9484 56.1057Z" fill="#37474F"/>
<path d="M49.257 26.6253C49.257 26.6253 50.33 24.7923 52.5466 25.0958C54.7631 25.3992 57.373 27.9921 57.0598 29.7571L49.257 26.6253Z" fill="#0F344A"/>
<path opacity="0.4" d="M49.257 26.6253C49.257 26.6253 50.33 24.7923 52.5466 25.0958C54.7631 25.3992 57.373 27.9921 57.0598 29.7571L49.257 26.6253Z" fill="white"/>
<path d="M58.8037 34.748C59.8595 32.2363 57.4478 28.8267 53.417 27.1323C49.3863 25.4379 45.2628 26.1005 44.207 28.6121C43.1512 31.1238 45.5629 34.5334 49.5936 36.2278C53.6244 37.9222 57.7479 37.2597 58.8037 34.748Z" fill="#0F344A"/>
<path d="M56.0402 38.383C53.2167 39.4148 48.633 39.7789 48.633 36.4407C48.633 36.3242 48.633 36.215 48.633 36.1033C48.633 34.8336 48.5845 33.9523 48.5335 33.355C48.5335 33.355 48.5335 33.338 48.5335 33.3283C48.5138 32.9632 48.4642 32.6002 48.3854 32.2431L48.3271 31.5585L48.2762 30.988L48.247 30.6189L48.1111 29.0385L48.0431 28.2373C48.3518 28.0435 48.7058 27.9338 49.07 27.9193C49.2411 27.9029 49.413 27.8981 49.5847 27.9047C50.2985 27.9314 51.2842 28.1475 52.5515 28.7763C53.1725 29.0859 53.7606 29.4576 54.3067 29.8858C54.4888 30.0266 54.6539 30.1674 54.8044 30.3082C56.0717 31.4687 56.3898 32.4932 56.3898 32.4932V34.5422C56.3898 35.1346 57.2565 36.1785 57.7542 35.0933C57.742 35.0885 58.8661 37.3609 56.0402 38.383Z" fill="#263238"/>
<path d="M49.1842 37.1035C49.1842 37.1035 47.8586 36.9044 46.6302 38.3174C45.4017 39.7304 43.4449 43.0758 43.4449 43.0758C43.4449 43.0758 45.4114 43.7459 46.1276 45.3822L48.7982 40.716L49.1842 37.1035Z" fill="#0F344A"/>
<path opacity="0.6" d="M49.1842 37.1035C49.1842 37.1035 47.8586 36.9044 46.6302 38.3174C45.4017 39.7304 43.4449 43.0758 43.4449 43.0758C43.4449 43.0758 45.4114 43.7459 46.1276 45.3822L48.7982 40.716L49.1842 37.1035Z" fill="black"/>
<path d="M50.4053 37.1035L53.5614 37.2176C53.5614 37.2176 55.9406 37.5988 56.4747 37.9848L56.6592 44.212L55.9843 47.7808C55.9843 47.7808 57.1351 49.9828 57.5041 52.1945C57.5041 52.1945 55.5449 53.6512 50.9807 53.6512C48.0431 53.6512 46.3121 52.1945 46.3121 52.1945C46.3121 52.1945 47.3876 46.6398 47.2103 45.6177C47.2103 45.6177 45.8459 44.7704 45.8556 42.6364C45.8654 40.5024 49.1768 37.1035 49.1768 37.1035H50.4053Z" fill="#0F344A"/>
<path opacity="0.4" d="M50.4053 37.1035L53.5614 37.2176C53.5614 37.2176 55.9406 37.5988 56.4747 37.9848L56.6592 44.212L55.9843 47.7808C55.9843 47.7808 57.1351 49.9828 57.5041 52.1945C57.5041 52.1945 55.5449 53.6512 50.9807 53.6512C48.0431 53.6512 46.3121 52.1945 46.3121 52.1945C46.3121 52.1945 47.3876 46.6398 47.2103 45.6177C47.2103 45.6177 45.8459 44.7704 45.8556 42.6364C45.8654 40.5024 49.1768 37.1035 49.1768 37.1035H50.4053Z" fill="black"/>
<path d="M51.7455 30.4077C51.7464 30.9 51.6014 31.3815 51.3286 31.7913C51.0559 32.2011 50.6677 32.5208 50.2132 32.71C49.7588 32.8992 49.2584 32.9493 48.7754 32.854C48.2924 32.7587 47.8486 32.5224 47.5 32.1748C47.1514 31.8272 46.9137 31.384 46.817 30.9013C46.7203 30.4187 46.769 29.9181 46.9568 29.4631C47.1446 29.0081 47.4632 28.619 47.8722 28.345C48.2812 28.0711 48.7623 27.9246 49.2546 27.9241C49.914 27.9241 50.5464 28.1856 51.0133 28.6511C51.4803 29.1167 51.7436 29.7484 51.7455 30.4077Z" fill="#263238"/>
<path d="M53.5712 37.4094L50.4103 37.3851L50.4054 33.0224L53.5664 33.02L53.5712 37.4094Z" fill="#945959"/>
<path d="M50.4224 36.8486C51.0673 36.6073 51.6566 36.2379 52.1548 35.7626C52.653 35.2874 53.0497 34.7162 53.3212 34.0834V33.02H50.4078L50.4224 36.8486Z" fill="#703838"/>
<path d="M54.7778 31.7406C54.7778 31.8037 54.7559 31.8668 54.7438 31.93L54.4209 32.3135L53.8212 33.0176C53.7411 33.0337 53.6586 33.0337 53.5784 33.0176H53.5517C53.326 32.9666 53.0492 32.7748 53.0492 32.095C53.0492 32.095 49.5265 31.8523 48.7472 28.366C48.8221 28.1948 48.939 28.0453 49.0871 27.9314C49.2581 27.9151 49.4301 27.9102 49.6018 27.9169C50.3155 27.9436 51.3012 28.1596 52.5685 28.7884C53.1832 29.0952 53.7655 29.4628 54.3068 29.8858C54.4889 30.0266 54.6539 30.1674 54.8045 30.3082C54.8771 30.7837 54.8681 31.2681 54.7778 31.7406Z" fill="#263238"/>
<path d="M49.5047 31.9639L49.5071 33.6634L48.5117 33.3575L49.5047 31.9639Z" fill="#703838"/>
<path d="M51.0026 32.1436C51.0026 32.2123 50.9822 32.2794 50.9441 32.3365C50.9059 32.3936 50.8517 32.4381 50.7883 32.4643C50.7248 32.4906 50.655 32.4975 50.5877 32.4841C50.5203 32.4707 50.4585 32.4376 50.4099 32.3891C50.3614 32.3405 50.3283 32.2787 50.3149 32.2113C50.3015 32.144 50.3084 32.0742 50.3347 32.0107C50.3609 31.9473 50.4054 31.8931 50.4625 31.8549C50.5196 31.8168 50.5867 31.7964 50.6554 31.7964C50.7475 31.7964 50.8358 31.833 50.9009 31.8981C50.966 31.9632 51.0026 32.0515 51.0026 32.1436Z" fill="#263238"/>
<path d="M48.7229 31.9032C48.7234 31.972 48.7034 32.0394 48.6656 32.0968C48.6277 32.1542 48.5737 32.1991 48.5103 32.2257C48.4469 32.2524 48.377 32.2596 48.3095 32.2465C48.242 32.2333 48.1799 32.2005 48.1311 32.152C48.0823 32.1036 48.049 32.0417 48.0354 31.9743C48.0218 31.9069 48.0286 31.837 48.0548 31.7734C48.081 31.7098 48.1255 31.6554 48.1826 31.6172C48.2397 31.5789 48.307 31.5585 48.3757 31.5585C48.4674 31.5585 48.5553 31.5947 48.6204 31.6593C48.6854 31.7239 48.7223 31.8116 48.7229 31.9032Z" fill="#263238"/>
<path d="M47.9558 31.1846L48.6331 30.7816C48.6331 30.7816 48.3734 30.5121 48.1136 30.6748C48.0404 30.7351 47.9864 30.8155 47.9584 30.9061C47.9303 30.9967 47.9294 31.0935 47.9558 31.1846Z" fill="#263238"/>
<path d="M49.5944 34.2242C49.9888 34.2525 50.3813 34.1473 50.7087 33.9256C50.7087 33.9256 50.784 34.5131 50.2936 34.6248C50.1487 34.649 49.9999 34.6223 49.8724 34.5493C49.745 34.4763 49.6467 34.3614 49.5944 34.2242Z" fill="#703838"/>
<path d="M53.5371 33.1487C53.5263 32.8614 53.5794 32.5754 53.6925 32.3111C53.7471 32.1463 53.8489 32.0011 53.9853 31.8936C54.1217 31.7861 54.2867 31.7211 54.4597 31.7066C55.3483 31.6823 55.4696 32.5369 55.4575 32.8404C55.4259 33.6391 54.7802 34.5034 53.576 34.5398L53.5371 33.1487Z" fill="#945959"/>
<path d="M50.4224 37.3851C50.4224 37.3851 49.4804 39.3783 51.0924 39.4633C52.7045 39.5483 53.5785 37.4118 53.5785 37.4118L50.4224 37.3851Z" fill="#945959"/>
<path d="M34.7074 39.3759L39.7232 53.1171L44.6224 56.8583L50.2257 54.3407L55.4017 58.951L50.3592 45.0836L45.4673 40.9588L39.3784 42.8768L34.7074 39.3759Z" fill="#EBEBEB"/>
<path d="M45.4673 40.9588L50.2257 54.3407L44.6224 56.8583L39.3784 42.8768L45.4673 40.9588Z" fill="#E0E0E0"/>
<path d="M36.7807 48.2154C36.7172 47.9703 36.7484 47.7103 36.8681 47.4871C37.1108 47.0016 37.5964 46.1615 37.861 46.2926C38.2155 46.4747 39.4026 48.5942 38.7884 49.8226C38.247 50.9078 37.0817 49.3225 36.7807 48.2154Z" fill="#945959"/>
<path d="M56.8147 46.5427L57.6304 48.1912L54.5738 51.1676C54.2519 51.0208 53.8935 50.9735 53.5445 51.0317C53.0496 51.1064 52.5463 51.1064 52.0514 51.0317C51.7528 50.9807 51.2794 51.3108 51.9421 51.6896C52.2535 51.8962 52.6098 52.0252 52.9812 52.0659C52.3031 52.3058 51.599 52.4647 50.8836 52.5393C49.9829 52.5878 49.427 52.8233 50.1237 53.6245C50.8205 54.4257 51.8377 55.2147 52.7749 54.9865C53.712 54.7583 55.0448 54.1683 55.6542 53.6488C55.6542 53.6488 61.3959 50.3446 61.0997 48.7617C60.8035 47.1788 60.1917 44.9914 60.1917 44.9914L56.8147 46.5427Z" fill="#945959"/>
<path d="M56.1785 37.8294C56.1785 37.8294 54.3747 39.2448 54.9404 41.442C55.506 43.6391 56.8146 46.5403 56.8146 46.5403C56.8146 46.5403 59.5459 46.8413 60.1916 44.9889L58.3999 39.8906C58.2409 39.4387 57.9845 39.0272 57.6489 38.6853C57.3133 38.3434 56.9066 38.0794 56.4577 37.912L56.1785 37.8294Z" fill="#0F344A"/>
<path opacity="0.6" d="M56.1785 37.8294C56.1785 37.8294 54.3747 39.2448 54.9404 41.442C55.506 43.6391 56.8146 46.5403 56.8146 46.5403C56.8146 46.5403 59.5459 46.8413 60.1916 44.9889L58.3999 39.8906C58.2409 39.4387 57.9845 39.0272 57.6489 38.6853C57.3133 38.3434 56.9066 38.0794 56.4577 37.912L56.1785 37.8294Z" fill="black"/>
<path d="M52.8962 52.0586L52.401 50.6966L51.3522 50.6505L51.0463 51.6896L51.7989 52.0659L52.8962 52.0586Z" fill="#EBEBEB"/>
<path d="M36.7783 30.8083C38.0505 28.7229 38.8516 26.3242 38.8516 24.1708C38.873 23.2423 38.6785 22.3215 38.2835 21.4808L38.7205 21.0438L37.0211 20.0727C35.8558 19.3638 34.2462 19.4464 32.4569 20.4782C28.9269 22.5175 26.0646 27.475 26.0646 31.5512C26.0646 33.6342 26.8123 35.0812 28.0068 35.7294L29.7548 36.7345V36.1081C30.7103 36.0414 31.6352 35.7431 32.4496 35.239C33.4366 34.6511 34.3268 33.914 35.0886 33.054C36.3389 34.1247 38.604 31.6823 38.604 31.6823C37.3124 32.4349 36.8924 31.6896 36.7783 30.8083Z" fill="#0F344A"/>
<path opacity="0.2" d="M36.7783 30.8083C38.0505 28.7229 38.8516 26.3242 38.8516 24.1708C38.873 23.2423 38.6785 22.3215 38.2835 21.4808L38.7205 21.0438L37.0211 20.0727C35.8558 19.3638 34.2462 19.4464 32.4569 20.4782C28.9269 22.5175 26.0646 27.475 26.0646 31.5512C26.0646 33.6342 26.8123 35.0812 28.0068 35.7294L29.7548 36.7345V36.1081C30.7103 36.0414 31.6352 35.7431 32.4496 35.239C33.4366 34.6511 34.3268 33.914 35.0886 33.054C36.3389 34.1247 38.604 31.6823 38.604 31.6823C37.3124 32.4349 36.8924 31.6896 36.7783 30.8083Z" fill="black"/>
<g opacity="0.3">
<path d="M36.8269 29.0773C36.8269 29.0773 36.1301 33.1196 38.6065 31.6896C38.6065 31.6896 35.7053 34.8214 34.6541 32.4446L36.8269 29.0773Z" fill="black"/>
</g>
<path d="M38.6808 31.453C41.1774 27.1288 41.1775 22.4548 38.6809 21.0134C36.1844 19.5721 32.1366 21.9091 29.64 26.2333C27.1434 30.5576 27.1434 35.2315 29.6399 36.6729C32.1364 38.1143 36.1842 35.7773 38.6808 31.453Z" fill="#0F344A"/>
<path d="M38.5264 30.0606C38.5264 30.0606 37.832 34.1004 40.3084 32.6729C40.3084 32.6729 37.395 35.8022 36.356 33.4279L38.5264 30.0606Z" fill="#0F344A"/>
<path d="M34.234 25.0521C32.8841 25.829 31.7916 27.7226 31.7916 29.2788C31.7916 30.835 34.234 33.4522 34.234 33.4522C34.234 33.4522 36.6739 28.0164 36.6739 26.4602C36.6739 24.904 35.5814 24.2728 34.234 25.0521ZM34.234 29.0603C33.6586 29.3929 33.1949 29.1234 33.1949 28.4607C33.2139 28.1001 33.318 27.7492 33.4986 27.4365C33.6792 27.1239 33.9312 26.8584 34.234 26.6617C34.8069 26.3291 35.273 26.5986 35.273 27.2613C35.2534 27.6218 35.1491 27.9725 34.9685 28.285C34.788 28.5976 34.5363 28.8632 34.234 29.0603Z" fill="#0F344A"/>
<path opacity="0.5" d="M34.234 25.0521C32.8841 25.829 31.7916 27.7226 31.7916 29.2788C31.7916 30.835 34.234 33.4522 34.234 33.4522C34.234 33.4522 36.6739 28.0164 36.6739 26.4602C36.6739 24.904 35.5814 24.2728 34.234 25.0521ZM34.234 29.0603C33.6586 29.3929 33.1949 29.1234 33.1949 28.4607C33.2139 28.1001 33.318 27.7492 33.4986 27.4365C33.6792 27.1239 33.9312 26.8584 34.234 26.6617C34.8069 26.3291 35.273 26.5986 35.273 27.2613C35.2534 27.6218 35.1491 27.9725 34.9685 28.285C34.788 28.5976 34.5363 28.8632 34.234 29.0603Z" fill="black"/>
<path d="M82.5884 78.9428V68.4231H74.3917V79.0273C74.3917 79.6355 74.7944 80.2409 75.5941 80.7167C77.199 81.6431 79.798 81.6431 81.403 80.7167C82.2449 80.2268 82.6419 79.582 82.5884 78.9428Z" fill="#263238"/>
<path d="M81.4031 66.7562C83.0053 67.6797 83.0053 69.1834 81.4031 70.1069C79.8009 71.0305 77.1992 71.0333 75.5942 70.1069C73.9892 69.1806 73.992 67.6797 75.5942 66.7562C77.1963 65.8326 79.7981 65.8298 81.4031 66.7562Z" fill="#37474F"/>
<path d="M64.9562 7.76868L77.599 15.07V7.70674L64.9562 0.408264L61.4984 2.09209L64.9562 7.76868Z" fill="#0F344A"/>
<path opacity="0.3" d="M64.9562 7.76868L77.599 15.07V7.70674L64.9562 0.408264L61.4984 2.09209L64.9562 7.76868Z" fill="white"/>
<path d="M64.4576 8.01364L77.1004 15.3149V7.9517L64.4576 0.653229L60.9999 2.33706L64.4576 8.01364Z" fill="#0F344A"/>
<path opacity="0.7" d="M64.4576 8.01364L77.1004 15.3149V7.9517L64.4576 0.653229L60.9999 2.33706L64.4576 8.01364Z" fill="white"/>
<path d="M92.0439 7.76868L79.4011 15.07V7.70674L92.0439 0.408264L95.5017 2.09209L92.0439 7.76868Z" fill="#0F344A"/>
<path opacity="0.3" d="M92.0439 7.76868L79.4011 15.07V7.70674L92.0439 0.408264L95.5017 2.09209L92.0439 7.76868Z" fill="white"/>
<path d="M92.5422 8.01364L79.8994 15.3149V7.9517L92.5422 0.653229L96 2.33706L92.5422 8.01364Z" fill="#0F344A"/>
<path opacity="0.5" d="M92.5422 8.01364L79.8994 15.3149V7.9517L92.5422 0.653229L96 2.33706L92.5422 8.01364Z" fill="white"/>
<path d="M87.4466 5.85279V5.94705L87.2104 6.08282V5.98856L87.4466 5.85279ZM87.264 5.84934L87.3728 5.78681V6.20862C87.3728 6.22021 87.3744 6.22836 87.3774 6.23308C87.3805 6.2376 87.3848 6.23957 87.3902 6.239C87.3958 6.23832 87.4023 6.23588 87.4096 6.23167C87.4147 6.22873 87.4198 6.22531 87.4249 6.22139C87.43 6.21728 87.434 6.21414 87.4367 6.21199L87.4538 6.29553C87.4484 6.30063 87.4407 6.30729 87.4308 6.31552C87.4209 6.32394 87.4089 6.33251 87.3948 6.34122C87.3686 6.35746 87.3456 6.36665 87.3258 6.36877C87.3063 6.37079 87.291 6.36522 87.2801 6.35204C87.2692 6.33886 87.2639 6.31739 87.264 6.28764V5.84934ZM87.6921 6.17302C87.6517 6.19621 87.617 6.20675 87.5879 6.20463C87.5589 6.20222 87.5366 6.18813 87.521 6.16237C87.5053 6.13642 87.4975 6.09959 87.4975 6.05187C87.4975 6.00533 87.5053 5.95998 87.521 5.91583C87.5366 5.87167 87.5587 5.83161 87.5871 5.79563C87.6157 5.75955 87.6493 5.73046 87.6877 5.70834C87.7136 5.69347 87.7377 5.68444 87.76 5.68124C87.7825 5.67775 87.8021 5.68073 87.8188 5.69019C87.8356 5.69955 87.8487 5.71598 87.8581 5.73946C87.8674 5.76275 87.8721 5.79364 87.8721 5.83213V5.86659L87.5409 6.05696V5.9792L87.7697 5.84769C87.7697 5.82962 87.7663 5.81557 87.7595 5.80554C87.7527 5.79552 87.7432 5.79005 87.7312 5.78914C87.7192 5.78794 87.7054 5.79189 87.6895 5.80099C87.673 5.81048 87.6584 5.82331 87.6456 5.83949C87.633 5.85537 87.6231 5.87273 87.616 5.89157C87.6088 5.91021 87.6052 5.92851 87.605 5.94648V6.02041C87.605 6.0428 87.6086 6.06009 87.6157 6.07228C87.623 6.08437 87.6333 6.09102 87.6466 6.09222C87.6599 6.09343 87.6756 6.08879 87.6939 6.07832C87.706 6.07138 87.717 6.06305 87.7271 6.05335C87.7371 6.04365 87.7457 6.03282 87.7529 6.02085C87.76 6.00889 87.7655 5.99614 87.7692 5.98259L87.8698 5.93242C87.8647 5.96324 87.8542 5.99361 87.8384 6.02353C87.8228 6.05315 87.8025 6.0809 87.7776 6.10677C87.7529 6.13235 87.7244 6.15443 87.6921 6.17302ZM88.0519 5.35412V5.95738L87.9431 6.01991V5.41664L88.0519 5.35412Z" fill="#455A64"/>
<path d="M66.2826 4.646V4.04274L66.3932 4.10629V4.3552L66.6177 4.48421V4.23531L66.728 4.29871V4.90197L66.6177 4.83857V4.58937L66.3932 4.46035V4.70955L66.2826 4.646ZM66.8172 4.9532V4.50075L66.926 4.56328V5.01573L66.8172 4.9532ZM66.8718 4.47384C66.8556 4.46454 66.8418 4.45038 66.8302 4.43136C66.8188 4.41223 66.8131 4.39393 66.8131 4.37646C66.8131 4.35918 66.8188 4.34763 66.8302 4.34181C66.8418 4.3359 66.8556 4.33759 66.8718 4.34688C66.888 4.35618 66.9018 4.37039 66.9132 4.38951C66.9248 4.40854 66.9306 4.42669 66.9306 4.44397C66.9306 4.46145 66.9248 4.47315 66.9132 4.47906C66.9018 4.48488 66.888 4.48314 66.8718 4.47384ZM67.1219 4.52508V5.12834L67.0131 5.06581V4.46255L67.1219 4.52508ZM67.3179 4.63769V5.24095L67.2091 5.17843V4.57516L67.3179 4.63769ZM67.7314 5.15519L67.6318 5.10502C67.6301 5.09422 67.6264 5.08328 67.6208 5.07219C67.6152 5.06091 67.6078 5.05028 67.5986 5.04028C67.5896 5.03018 67.5788 5.02152 67.5662 5.01427C67.5493 5.00459 67.5351 5.00054 67.5235 5.00213C67.5119 5.00353 67.5061 5.01101 67.5061 5.02456C67.5061 5.03536 67.5099 5.04664 67.5174 5.05841C67.5249 5.07018 67.5377 5.08355 67.5559 5.09854L67.6269 5.15584C67.6651 5.18679 67.6935 5.21766 67.7122 5.24846C67.731 5.27925 67.7403 5.31095 67.7403 5.34354C67.7403 5.3732 67.7328 5.39486 67.7176 5.40854C67.7026 5.42232 67.682 5.42795 67.6558 5.42545C67.6298 5.42285 67.5997 5.41177 67.5657 5.3922C67.5137 5.36235 67.4723 5.32611 67.4415 5.28346C67.4109 5.24071 67.3929 5.19621 67.3876 5.14998L67.4947 5.205C67.4979 5.22512 67.5057 5.24356 67.5181 5.26033C67.5306 5.2769 67.5465 5.29076 67.5659 5.30191C67.585 5.31287 67.6003 5.31746 67.6119 5.31567C67.6236 5.31378 67.6296 5.30611 67.6298 5.29266C67.6296 5.28117 67.6254 5.26944 67.6172 5.25748C67.6091 5.24532 67.5965 5.23239 67.5794 5.21867L67.5115 5.16402C67.4732 5.13317 67.4447 5.10146 67.426 5.0689C67.4074 5.03644 67.3981 5.00332 67.3981 4.96954C67.3981 4.94048 67.4049 4.91935 67.4185 4.90617C67.4323 4.89308 67.4517 4.88799 67.4765 4.89088C67.5015 4.89388 67.5308 4.90501 67.5644 4.92429C67.6139 4.95276 67.6529 4.98725 67.6813 5.02774C67.7099 5.06834 67.7266 5.11082 67.7314 5.15519Z" fill="#455A64"/>
<path d="M79.3082 68.6709C78.7896 68.8792 78.2105 68.8792 77.6919 68.6709C77.5142 68.6004 77.3618 68.4782 77.2543 68.3201C77.1469 68.1619 77.0894 67.9752 77.0894 67.784V3.4296H79.9051V67.784C79.9059 67.9746 79.8494 68.1611 79.743 68.3192C79.6365 68.4773 79.4851 68.5999 79.3082 68.6709Z" fill="#455A64"/>
<path d="M80.6764 2.17659C80.6764 2.60708 80.5488 3.0279 80.3096 3.38584C80.0704 3.74378 79.7305 4.02275 79.3328 4.1875C78.9351 4.35224 78.4974 4.39534 78.0752 4.31136C77.653 4.22737 77.2652 4.02007 76.9608 3.71567C76.6564 3.41127 76.449 3.02344 76.3651 2.60122C76.2811 2.179 76.3242 1.74136 76.4889 1.34364C76.6537 0.945925 76.9326 0.605988 77.2906 0.366821C77.6485 0.127654 78.0693 0 78.4998 0C79.0771 0 79.6307 0.229319 80.0389 0.637508C80.4471 1.0457 80.6764 1.59932 80.6764 2.17659Z" fill="#37474F"/>
<path d="M92.5423 23.751L79.4011 9.33704L79.8995 9.09207L92.5423 16.3905L96.0001 22.0671L92.5423 23.751Z" fill="#0F344A"/>
<path opacity="0.3" d="M92.5423 23.751L79.4011 9.33704L79.8995 9.09207L92.5423 16.3905L96.0001 22.0671L92.5423 23.751Z" fill="white"/>
<path d="M92.0439 23.996L79.4011 16.6975V9.33707L92.0439 16.6355L95.5017 22.3121L92.0439 23.996Z" fill="#0F344A"/>
<path opacity="0.7" d="M92.0439 23.996L79.4011 16.6975V9.33707L92.0439 16.6355L95.5017 22.3121L92.0439 23.996Z" fill="white"/>
<path d="M64.4576 23.751L77.5988 9.33704L77.1004 9.09207L64.4576 16.3905L60.9999 22.0671L64.4576 23.751Z" fill="#0F344A"/>
<path opacity="0.3" d="M64.4576 23.751L77.5988 9.33704L77.1004 9.09207L64.4576 16.3905L60.9999 22.0671L64.4576 23.751Z" fill="white"/>
<path d="M64.9562 23.996L77.599 16.6975V9.33707L64.9562 16.6355L61.4984 22.3121L64.9562 23.996Z" fill="#0F344A"/>
<path opacity="0.5" d="M64.9562 23.996L77.599 16.6975V9.33707L64.9562 16.6355L61.4984 22.3121L64.9562 23.996Z" fill="white"/>
<path d="M66.2941 18.3376V17.7343L66.5035 17.6139C66.542 17.5918 66.5741 17.58 66.5998 17.5783C66.6255 17.5767 66.6449 17.5839 66.6578 17.5998C66.6707 17.6155 66.6772 17.6385 66.6772 17.6688C66.6772 17.6923 66.6731 17.7154 66.6649 17.738C66.6568 17.7603 66.6455 17.7813 66.6312 17.8009C66.6171 17.8203 66.6009 17.8375 66.5827 17.8527V17.8586C66.6026 17.8481 66.6213 17.8439 66.6386 17.8459C66.6562 17.8478 66.6704 17.8564 66.6813 17.8717C66.6922 17.8869 66.6976 17.9093 66.6976 17.9389C66.6976 17.9709 66.6907 18.0035 66.6769 18.0365C66.6633 18.0693 66.6431 18.1006 66.6164 18.1305C66.5897 18.1604 66.5567 18.1866 66.5176 18.2091L66.2941 18.3376ZM66.4047 18.1697L66.4949 18.1179C66.5257 18.1002 66.5481 18.0805 66.5623 18.0588C66.5764 18.037 66.5835 18.0146 66.5835 17.9919C66.5835 17.9752 66.58 17.9625 66.573 17.9537C66.566 17.9449 66.5561 17.9407 66.5431 17.9408C66.5304 17.9409 66.5151 17.946 66.4974 17.9562L66.4047 18.0095V18.1697ZM66.4047 17.9232L66.4867 17.8761C66.5018 17.8674 66.5153 17.8566 66.527 17.8437C66.5389 17.8306 66.5483 17.8164 66.5551 17.8011C66.5621 17.7857 66.5656 17.77 66.5656 17.7541C66.5656 17.7323 66.5589 17.7186 66.5454 17.713C66.5321 17.7073 66.5132 17.7115 66.4887 17.7255L66.4047 17.7738V17.9232ZM66.9463 17.9716C66.906 17.9948 66.8712 18.0053 66.8421 18.0032C66.8132 18.0008 66.7909 17.9867 66.7752 17.9609C66.7595 17.935 66.7517 17.8981 66.7517 17.8504C66.7517 17.8039 66.7595 17.7585 66.7752 17.7144C66.7909 17.6702 66.8129 17.6301 66.8414 17.5942C66.87 17.5581 66.9035 17.529 66.942 17.5069C66.9679 17.492 66.9919 17.483 67.0142 17.4798C67.0367 17.4763 67.0563 17.4793 67.073 17.4887C67.0898 17.4981 67.103 17.5145 67.1123 17.538C67.1217 17.5613 67.1264 17.5922 67.1264 17.6307V17.6651L66.7951 17.8555V17.7777L67.024 17.6462C67.024 17.6282 67.0205 17.6141 67.0137 17.6041C67.0069 17.5941 66.9975 17.5886 66.9854 17.5877C66.9735 17.5865 66.9596 17.5904 66.9438 17.5995C66.9272 17.609 66.9126 17.6219 66.8998 17.638C66.8872 17.6539 66.8774 17.6713 66.8702 17.6901C66.8631 17.7087 66.8594 17.7271 66.8592 17.745V17.819C66.8592 17.8413 66.8628 17.8586 66.87 17.8708C66.8773 17.8829 66.8876 17.8896 66.9009 17.8908C66.9141 17.892 66.9299 17.8873 66.9481 17.8769C66.9602 17.8699 66.9713 17.8616 66.9813 17.8519C66.9913 17.8422 66.9999 17.8314 67.0071 17.8194C67.0142 17.8074 67.0197 17.7947 67.0234 17.7811L67.1241 17.731C67.119 17.7618 67.1085 17.7922 67.0927 17.8221C67.077 17.8517 67.0567 17.8794 67.0319 17.9053C67.0072 17.9309 66.9787 17.953 66.9463 17.9716ZM67.3092 17.7627C67.2842 17.7771 67.2619 17.7849 67.2423 17.7861C67.2227 17.7872 67.2072 17.7811 67.1958 17.7678C67.1846 17.7542 67.179 17.7325 67.179 17.7026C67.179 17.6775 67.183 17.6541 67.191 17.6324C67.199 17.6107 67.2099 17.5907 67.2237 17.5724C67.2375 17.5541 67.2531 17.5372 67.2707 17.5218C67.2884 17.5063 67.3069 17.4919 67.3263 17.4786C67.3491 17.4628 67.3675 17.4496 67.3815 17.4393C67.3955 17.4287 67.4056 17.4191 67.4119 17.4106C67.4182 17.4021 67.4213 17.393 67.4213 17.3834V17.3816C67.4213 17.363 67.4162 17.3515 67.406 17.3471C67.396 17.3427 67.3817 17.3458 67.3631 17.3565C67.3435 17.3677 67.328 17.3817 67.3164 17.3983C67.3048 17.4148 67.2971 17.4316 67.2934 17.4487L67.1928 17.4971C67.1979 17.4666 67.2079 17.4371 67.2229 17.4085C67.2379 17.3796 67.2572 17.353 67.2809 17.3286C67.3047 17.3039 67.3323 17.2826 67.3636 17.2646C67.3854 17.252 67.4063 17.243 67.4262 17.2374C67.4463 17.2318 67.4641 17.2307 67.4796 17.2342C67.4952 17.2375 67.5076 17.2463 67.5166 17.2606C67.5256 17.2746 67.5301 17.2951 67.5301 17.322V17.6272L67.427 17.6865V17.6238L67.4239 17.6255C67.4176 17.6433 67.4092 17.6606 67.3986 17.6775C67.3881 17.6941 67.3754 17.7098 67.3606 17.7244C67.3457 17.7388 67.3286 17.7515 67.3092 17.7627ZM67.3404 17.6582C67.3564 17.649 67.3705 17.6372 67.3828 17.6229C67.395 17.6084 67.4047 17.5929 67.4116 17.5763C67.4186 17.5597 67.4221 17.5435 67.4221 17.5276V17.4796C67.4187 17.4841 67.414 17.4891 67.4081 17.4947C67.4023 17.5 67.3957 17.5056 67.3884 17.5116C67.3811 17.5174 67.3738 17.5231 67.3664 17.5286C67.3591 17.534 67.3525 17.5389 67.3465 17.5433C67.3337 17.5528 67.3226 17.5627 67.3131 17.5729C67.3035 17.5831 67.2961 17.5937 67.2908 17.6048C67.2856 17.6157 67.2829 17.627 67.2829 17.6388C67.2829 17.6559 67.2883 17.6658 67.299 17.6687C67.3099 17.6713 67.3237 17.6678 67.3404 17.6582ZM67.7918 17.4857C67.7516 17.5088 67.717 17.5188 67.6881 17.5158C67.6593 17.5125 67.6372 17.4977 67.6217 17.4715C67.6064 17.4451 67.5987 17.4091 67.5987 17.3633C67.5987 17.317 67.6065 17.2719 67.6219 17.228C67.6376 17.1839 67.6598 17.1437 67.6886 17.1075C67.7174 17.0712 67.7516 17.0416 67.7913 17.0188C67.8255 16.9991 67.8555 16.9891 67.8812 16.9886C67.9069 16.9882 67.9272 16.9966 67.9422 17.0139C67.9572 17.0312 67.9654 17.0569 67.967 17.091L67.8643 17.15C67.8614 17.1291 67.8538 17.1153 67.8413 17.1087C67.8291 17.1018 67.813 17.1041 67.7931 17.1155C67.7762 17.1252 67.7615 17.139 67.7489 17.1568C67.7364 17.1744 67.7267 17.1952 67.7198 17.2192C67.7128 17.2433 67.7093 17.2695 67.7093 17.298C67.7093 17.3269 67.7127 17.3495 67.7195 17.3658C67.7265 17.382 67.7363 17.3918 67.7489 17.3951C67.7615 17.3985 67.7762 17.3953 67.7931 17.3857C67.8055 17.3785 67.8166 17.3692 67.8265 17.3576C67.8366 17.3459 67.8448 17.3326 67.8513 17.3177C67.8579 17.3025 67.8623 17.2864 67.8643 17.2693L67.967 17.2103C67.9653 17.2458 67.9571 17.281 67.9425 17.3157C67.928 17.3501 67.908 17.3821 67.8824 17.4115C67.8569 17.4409 67.8267 17.4656 67.7918 17.4857ZM68.1454 17.012V17.2736L68.0366 17.3361V16.7328L68.1424 16.6721V16.9027L68.147 16.9001C68.1558 16.8683 68.1701 16.8392 68.1899 16.8127C68.2096 16.786 68.2344 16.7641 68.2642 16.747C68.2914 16.7313 68.3152 16.7246 68.3354 16.7267C68.3559 16.7285 68.3717 16.7389 68.3829 16.758C68.3943 16.7768 68.4 16.8039 68.3998 16.8393V17.1274L68.291 17.1899V16.9242C68.2912 16.8962 68.285 16.8781 68.2726 16.8697C68.2604 16.8612 68.2432 16.8634 68.221 16.8761C68.2062 16.8846 68.1931 16.8958 68.1817 16.9096C68.1705 16.9233 68.1616 16.939 68.1551 16.9567C68.1488 16.974 68.1456 16.9925 68.1454 17.012Z" fill="#455A64"/>
<path d="M82.1185 13.6029V12.9997L82.3248 13.1183C82.3645 13.1411 82.3983 13.1692 82.4262 13.2028C82.4541 13.2361 82.4754 13.2724 82.49 13.3116C82.5049 13.3508 82.5123 13.3904 82.5123 13.4304C82.5123 13.4705 82.5048 13.5015 82.4898 13.5236C82.4748 13.5456 82.4531 13.557 82.4247 13.5577C82.3964 13.5585 82.3622 13.5474 82.322 13.5243L82.1905 13.4487V13.3465L82.3041 13.4118C82.3254 13.4241 82.3429 13.4299 82.3567 13.4294C82.3707 13.4288 82.3811 13.4229 82.3879 13.4117C82.3949 13.4004 82.3984 13.3848 82.3984 13.365C82.3984 13.3449 82.3949 13.3255 82.3879 13.3065C82.3811 13.2875 82.3707 13.2698 82.3567 13.2536C82.3428 13.2371 82.3251 13.2227 82.3036 13.2104L82.229 13.1675V13.6665L82.1185 13.6029ZM82.6834 13.9361C82.6583 13.9218 82.636 13.9039 82.6165 13.8827C82.5969 13.8612 82.5814 13.8373 82.57 13.8109C82.5587 13.7844 82.5531 13.7562 82.5531 13.7264C82.5531 13.7012 82.5571 13.6824 82.5651 13.67C82.5731 13.6575 82.584 13.65 82.5978 13.6475C82.6116 13.645 82.6273 13.6462 82.6448 13.6509C82.6625 13.6558 82.6811 13.6628 82.7005 13.6717C82.7233 13.6821 82.7417 13.6901 82.7557 13.6958C82.7696 13.7013 82.7797 13.7034 82.786 13.7021C82.7923 13.7008 82.7955 13.6953 82.7955 13.6857V13.6839C82.7955 13.6653 82.7904 13.6479 82.7802 13.6318C82.7701 13.6158 82.7558 13.6025 82.7373 13.5918C82.7177 13.5806 82.7021 13.5766 82.6905 13.58C82.679 13.5832 82.6713 13.5911 82.6675 13.6039L82.5669 13.5367C82.572 13.5121 82.5821 13.4941 82.5971 13.4827C82.612 13.4711 82.6314 13.4667 82.655 13.4695C82.6789 13.4722 82.7064 13.4825 82.7378 13.5005C82.7596 13.5131 82.7804 13.528 82.8003 13.5453C82.8204 13.5628 82.8382 13.5821 82.8537 13.6034C82.8694 13.6248 82.8817 13.6478 82.8908 13.6724C82.8998 13.6968 82.9043 13.7225 82.9043 13.7494V14.0546L82.8011 13.9953V13.9325L82.798 13.9308C82.7917 13.9413 82.7833 13.9489 82.7728 13.9536C82.7622 13.9582 82.7495 13.9592 82.7347 13.9568C82.7199 13.9542 82.7028 13.9473 82.6834 13.9361ZM82.7145 13.8675C82.7305 13.8767 82.7447 13.8811 82.7569 13.8809C82.7692 13.8805 82.7788 13.876 82.7858 13.8675C82.7928 13.8589 82.7963 13.8467 82.7963 13.8308V13.7828C82.7929 13.7833 82.7882 13.783 82.7822 13.7817C82.7764 13.7804 82.7699 13.7785 82.7625 13.776C82.7552 13.7734 82.7479 13.7707 82.7406 13.7678C82.7333 13.7648 82.7266 13.7621 82.7207 13.7596C82.7079 13.7545 82.6967 13.7515 82.6872 13.7507C82.6777 13.7499 82.6703 13.7521 82.665 13.7571C82.6597 13.7619 82.6571 13.7702 82.6571 13.782C82.6571 13.7991 82.6624 13.8152 82.6732 13.8304C82.6841 13.8455 82.6978 13.8579 82.7145 13.8675ZM82.9887 14.1031V13.6506L83.0942 13.7112V13.7902L83.0983 13.7925C83.1054 13.7686 83.1174 13.7543 83.1343 13.7496C83.1511 13.7448 83.1705 13.7487 83.1925 13.7613C83.1979 13.7644 83.2038 13.7682 83.2101 13.7726C83.2164 13.777 83.2219 13.7812 83.2267 13.7854V13.8967C83.2216 13.892 83.2145 13.8864 83.2055 13.8798C83.1965 13.8732 83.1882 13.8678 83.1807 13.8635C83.1647 13.8543 83.1504 13.8501 83.1378 13.8509C83.1254 13.8516 83.1155 13.857 83.1082 13.8669C83.1011 13.8769 83.0975 13.8912 83.0975 13.9096V14.1656L82.9887 14.1031ZM83.3815 14.1987L83.3818 14.0483L83.3976 14.0574L83.5233 13.9579L83.6482 14.0296L83.4794 14.16L83.4536 14.1452L83.3815 14.1987ZM83.283 14.2722V13.6689L83.3918 13.7315V14.3347L83.283 14.2722ZM83.5281 14.4131L83.4127 14.1497L83.4852 14.1027L83.6556 14.4863L83.5281 14.4131Z" fill="#455A64"/>
</svg>
