<svg width="78" height="88" viewBox="0 0 78 88" fill="none" xmlns="http://www.w3.org/2000/svg">
<path d="M40.2301 77.0149H11.2051C9.95193 77.0213 8.70981 76.7801 7.55015 76.305C6.39049 75.8299 5.33615 75.1303 4.44772 74.2464C3.55929 73.3625 2.85428 72.3118 2.37322 71.1546C1.89215 69.9974 1.64451 68.7565 1.64453 67.5033V27.0547C1.64451 25.8014 1.89215 24.5606 2.37322 23.4034C2.85428 22.2462 3.55929 21.1954 4.44772 20.3116C5.33615 19.4277 6.39049 18.7281 7.55015 18.253C8.70981 17.7779 9.95193 17.5366 11.2051 17.5431H40.2301C42.7527 17.5431 45.172 18.5452 46.9558 20.329C48.7396 22.1127 49.7417 24.532 49.7417 27.0547V67.5033C49.7417 70.0259 48.7396 72.4452 46.9558 74.229C45.172 76.0128 42.7527 77.0149 40.2301 77.0149V77.0149Z" stroke-width="3" stroke-linecap="round" stroke-linejoin="round"/>
<path d="M14.833 77.0149V17.4941" stroke-width="3" stroke-linecap="round" stroke-linejoin="round"/>
<path d="M38.4648 77.0149V17.4941" stroke-width="3" stroke-linecap="round" stroke-linejoin="round"/>
<path d="M10.4209 77.7012H18.8048V81.3293C18.8048 82.4866 18.3451 83.5965 17.5267 84.4148C16.7084 85.2331 15.5985 85.6929 14.4413 85.6929V85.6929C13.414 85.6929 12.4288 85.2848 11.7024 84.5584C10.9761 83.832 10.568 82.8469 10.568 81.8196V77.7012H10.4209Z" stroke-width="3" stroke-linecap="round" stroke-linejoin="round"/>
<path d="M34.3467 77.7012H42.5835V81.3293C42.5835 82.4866 42.1238 83.5965 41.3054 84.4148C40.4871 85.2331 39.3772 85.6929 38.2199 85.6929H38.4161C37.3888 85.6929 36.4036 85.2848 35.6772 84.5584C34.9509 83.832 34.5428 82.8469 34.5428 81.8196V77.7012H34.3467Z" stroke-width="3" stroke-linecap="round" stroke-linejoin="round"/>
<path d="M20.4717 16.5622V2.78516" stroke-width="3" stroke-linecap="round" stroke-linejoin="round"/>
<path d="M31.6016 16.5622V2.78516" stroke-width="3" stroke-linecap="round" stroke-linejoin="round"/>
<path d="M14.1963 2H36.9946" stroke-width="3" stroke-linecap="round" stroke-linejoin="round"/>
<path d="M55.5254 71.6464L64.3574 65.4596C69.4081 61.9216 69.7843 59.786 66.2462 54.7352C64.4989 55.9592 62.0984 55.5244 60.884 53.7908C59.6601 52.0435 60.0716 49.6389 61.8189 48.415L60.9392 47.1591C57.4011 42.1084 55.2656 41.7322 50.2148 45.2703L41.5057 51.371L47.9984 60.6398" fill="white"/>
<path d="M55.5254 71.6464L64.3574 65.4596C69.4081 61.9216 69.7843 59.786 66.2462 54.7352C64.4989 55.9592 62.0984 55.5244 60.884 53.7908C59.6601 52.0435 60.0716 49.6389 61.8189 48.415L60.9392 47.1591C57.4011 42.1084 55.2656 41.7322 50.2148 45.2703L41.5057 51.371L47.9984 60.6398" stroke-width="2.7" stroke-linecap="round" stroke-linejoin="round"/>
<path d="M52.7817 67.4646L55.6504 71.5598L51.8691 74.2086C49.8488 75.6238 47.6954 75.077 44.1665 72.828L43.4905 72.3859C44.6833 70.5736 44.1499 68.0983 42.2967 66.9343C40.4708 65.7511 38.0187 66.2885 36.8315 68.1376L36.1882 67.7132C30.8566 64.2851 30.363 62.128 33.7815 56.7827L36.3526 52.784L47.4746 59.8885L49.913 63.3694" fill="white"/>
<path d="M52.7817 67.4646L55.6504 71.5598L51.8691 74.2086C49.8488 75.6238 47.6954 75.077 44.1665 72.828L43.4905 72.3859C44.6833 70.5736 44.1499 68.0983 42.2967 66.9343C40.4708 65.7511 38.0187 66.2885 36.8315 68.1376L36.1882 67.7132C30.8566 64.2851 30.363 62.128 33.7815 56.7827L36.3526 52.784L47.4746 59.8885L49.913 63.3694" stroke-width="2.7" stroke-linecap="round" stroke-linejoin="round"/>
<path d="M51.7887 74.271L51.5566 74.4336" stroke-width="2.7" stroke-linecap="round" stroke-linejoin="round"/>
</svg>
