<svg viewBox="0 0 57 37" fill="none" xmlns="http://www.w3.org/2000/svg">
    <path id="path14" fill-rule="evenodd" clip-rule="evenodd"
        d="M8.12341 36.7468L10.456 25.0833H14.2431L11.9105 36.7468H8.12341ZM19.5396 32.9323H21.9548L21.3236 28.651L19.5396 32.9323ZM14.2431 36.7468L19.9514 25.0833H23.6838L26.044 36.7468H22.5312L22.3391 35.3748H18.6067L18.003 36.7468H14.2431ZM29.5292 36.7468L30.8189 27.9649H27.5259L28.0748 25.0286H38.256L37.6796 27.9649H34.5513L33.2611 36.7468H29.5292ZM42.2352 32.9323H44.6508L44.0194 28.651L42.2352 32.9323ZM36.9388 36.7468L42.6472 25.0833H46.4069L48.7397 36.7468H45.1995L45.0347 35.3748H41.3026L40.6986 36.7468H36.9388ZM57 11.9102H39.2166C38.5579 15.176 36.2804 17.8932 31.7795 19.7867C32.3009 21.351 34.057 22.8055 35.8685 22.8055H45.5287C46.9833 22.8055 48.1634 21.543 48.63 20.5553H38.805C38.229 20.4454 38.174 19.979 38.7777 19.924H48.4379C49.6726 19.924 50.825 18.8264 51.4561 17.6737H40.2319C39.6556 17.5913 39.6556 17.0972 40.2319 17.0149H51.5388C52.6912 17.0149 53.7342 15.6977 54.1458 14.7921H41.7142C41.1102 14.7097 41.1102 14.1334 41.7142 14.106H54.393C55.381 14.106 56.3412 13.0357 57 11.9102ZM0 11.9102H17.8108C18.4694 15.176 20.7198 17.8932 25.2204 19.7867C24.7267 21.351 22.9702 22.8055 21.1589 22.8055H11.4989C10.0169 22.8055 8.86431 21.543 8.39774 20.5553H18.1949C18.7987 20.4454 18.8261 19.979 18.2225 19.924H8.58998C7.3275 19.924 6.20234 18.8264 5.54376 17.6737H16.7954C17.3444 17.5913 17.3444 17.0972 16.7954 17.0149H5.46126C4.33626 17.0149 3.29317 15.6977 2.85423 14.7921H15.286C15.9172 14.7097 15.9172 14.1334 15.286 14.106H2.63473C1.64659 14.106 0.686287 13.0357 0 11.9102ZM22.7233 2.086C23.382 2.63467 24.1229 3.15599 24.9187 3.45821C25.6048 2.14069 26.5378 1.01564 27.6082 -2.67029e-05C25.8245 0.247147 24.1505 0.93325 22.7233 2.086ZM19.5946 8.58981H23.5464C23.6289 6.94308 23.9856 5.51618 24.6442 4.03423C23.7387 3.64998 22.9976 3.156 22.2567 2.52494C20.6101 4.17167 19.7042 6.28467 19.5946 8.58981ZM28.1843 4.85741V8.58981H24.2326C24.2601 7.10822 24.5894 5.62591 25.2204 4.25406C26.1536 4.6106 27.1692 4.83007 28.1843 4.85741ZM34.2768 2.086C33.618 2.63467 32.8772 3.15599 32.1087 3.45821C31.3953 2.11334 30.5171 1.04299 29.4195 -2.67029e-05C31.2035 0.247147 32.8772 0.93325 34.2768 2.086ZM37.4328 8.58981H33.4536C33.3989 6.97078 33.042 5.48883 32.4106 4.03423C33.2611 3.64998 34.057 3.12865 34.7711 2.52494C36.4722 4.22635 37.3508 6.33936 37.4328 8.58981ZM28.843 4.85741V8.58981H32.7948C32.7948 7.08051 32.4106 5.65325 31.7795 4.25406C30.8463 4.6106 29.8309 4.83007 28.843 4.85741ZM22.7233 15.7527C23.382 15.2311 24.1505 14.6824 24.9187 14.3805C25.6321 15.7254 26.5104 16.8227 27.6082 17.8108C25.8245 17.5913 24.1229 16.9051 22.7233 15.7527ZM19.5946 9.24857H23.5464C23.6289 10.8953 23.9856 12.3222 24.6442 13.8315C23.7387 14.2161 22.9976 14.7097 22.2567 15.3134C20.6377 13.6944 19.7042 11.5537 19.5946 9.24857ZM28.1843 12.981V9.24857H24.2326C24.2601 10.7305 24.5894 12.2398 25.2204 13.5573C26.1536 13.2281 27.1692 13.0083 28.1843 12.981ZM34.2768 15.7527C33.6454 15.2037 32.8772 14.7097 32.1087 14.3805C31.3953 15.7254 30.5171 16.8227 29.4195 17.8108C31.2035 17.5913 32.8772 16.9051 34.2768 15.7527ZM37.4328 9.24857H33.4536C33.3989 10.8953 33.0694 12.3495 32.4106 13.8315C33.2611 14.2161 34.03 14.7097 34.7711 15.3134C36.3902 13.6944 37.3508 11.499 37.4328 9.24857ZM28.843 12.981V9.24857H32.7948C32.7948 10.7305 32.4106 12.2125 31.7795 13.5573C30.874 13.2281 29.8036 13.0083 28.843 12.981ZM28.1843 0.384224C27.1142 1.26246 26.1536 2.44291 25.55 3.70502C26.3733 3.97918 27.2789 4.19901 28.1843 4.19901V0.384224ZM28.843 0.384224C29.886 1.26246 30.8463 2.4152 31.4777 3.70502C30.6268 4.00688 29.7212 4.19901 28.843 4.19901V0.384224ZM28.1843 17.454C27.1142 16.6033 26.1536 15.4232 25.55 14.1334C26.3733 13.8315 27.2789 13.6671 28.1843 13.6671V17.454ZM28.843 17.4816C29.886 16.6033 30.8463 15.4232 31.4777 14.1334C30.6268 13.8588 29.7212 13.6671 28.843 13.6671V17.4816Z"
         />
</svg>