<svg width="30" height="30" viewBox="0 0 24 30" fill="none" xmlns="http://www.w3.org/2000/svg">
<path opacity="0.4" d="M20.4279 8.92341L20.2296 8.8101L18.2607 7.67694L14.1955 5.32564C12.949 4.60325 11.051 4.60325 9.80451 5.32564L5.7393 7.67694L3.77044 8.82426L3.51548 8.96591C0.980033 10.6656 0.810059 10.9773 0.810059 13.711V20.2408C0.810059 22.9746 0.980033 23.2862 3.57213 25.0284L9.80451 28.6262C10.4277 28.9945 11.2068 29.1645 12 29.1645C12.779 29.1645 13.5723 28.9945 14.1955 28.6262L20.4845 24.9859C23.02 23.2862 23.1899 22.9746 23.1899 20.2408V13.711C23.1899 10.9773 23.02 10.6656 20.4279 8.92341Z" fill="white"/>
<path d="M3.77026 8.8243L5.73913 7.67698L9.6202 5.43899L9.80433 5.32567C11.0508 4.60329 12.9488 4.60329 14.1953 5.32567L14.3795 5.43899L18.2605 7.67698L20.2294 8.81014V5.77894C20.2294 2.59193 18.473 0.835533 15.286 0.835533H8.6995C5.5125 0.835533 3.77026 2.59193 3.77026 5.77894V8.8243Z" fill="white"/>
<path d="M16.0227 16.8981L15.1445 17.9746C15.0029 18.1304 14.9037 18.4421 14.9179 18.6545L15.0029 20.0426C15.0595 20.8925 14.4504 21.3316 13.6572 21.02L12.3683 20.5101C12.17 20.4392 11.83 20.4392 11.6317 20.5101L10.3427 21.02C9.54954 21.3316 8.94046 20.8925 8.99712 20.0426L9.08211 18.6545C9.09627 18.4421 8.99712 18.1304 8.85548 17.9746L7.97728 16.8981C7.42486 16.2466 7.66566 15.5242 8.4872 15.3117L9.83283 14.9718C10.0453 14.9151 10.3003 14.7168 10.4136 14.5327L11.1643 13.3712C11.6317 12.6488 12.3683 12.6488 12.8357 13.3712L13.5864 14.5327C13.6997 14.7168 13.9547 14.9151 14.1672 14.9718L15.5128 15.3117C16.3343 15.5242 16.5751 16.2466 16.0227 16.8981Z" fill="white"/>
</svg>
