<svg viewBox="0 0 503 178" fill="none" xmlns="http://www.w3.org/2000/svg">
<path d="M330.378 68.8467C328.312 68.2253 326.242 67.6053 323.764 67.1933C322.937 66.9853 322.109 66.7787 321.282 66.5733C320.248 61.8173 318.801 57.0627 316.941 52.5147C319.421 53.9613 321.694 55.408 323.764 56.856C327.898 60.3707 330.378 64.092 330.378 68.02V68.8467ZM313.426 44.656C310.944 39.488 307.844 34.7333 304.742 30.392C303.916 29.3573 303.088 28.324 302.261 27.2907C300.193 24.8093 298.128 22.536 295.852 20.468C298.954 22.536 301.848 24.8093 304.742 27.2907C305.982 28.532 307.43 29.7707 308.67 31.012C314.253 36.5947 319.216 43.004 323.35 49.8267C320.456 47.9653 317.148 46.312 313.426 44.656ZM311.772 64.7107C309.498 64.5053 307.017 64.092 304.742 63.6773C303.088 63.472 301.641 63.264 300.193 63.0573C298.745 56.4413 296.68 50.0333 294.197 44.244C297.713 45.0707 301.228 46.104 304.742 47.3453C305.362 47.552 306.189 47.9653 307.017 48.172C307.637 48.3773 308.464 48.792 309.082 48.9987C311.566 54.1667 313.632 59.7507 315.078 65.332C314.045 65.124 313.013 64.9187 311.772 64.7107ZM281.794 61.1973C278.9 60.9893 276.212 60.784 273.316 60.784C272.284 52.9267 271.042 46.104 269.389 39.696C273.524 40.108 277.66 40.7293 281.794 41.5547C283.654 41.7627 285.309 42.176 287.169 42.5907C290.062 48.5867 292.338 55.2013 294.197 62.436C290.062 62.0253 285.928 61.6107 281.794 61.1973ZM267.734 34.1133C266.906 31.4267 266.08 28.7373 265.254 26.2573C263.393 21.296 261.532 16.9533 259.258 13.0253C258.432 11.5773 257.605 10.3373 256.777 9.09601C257.605 9.51067 258.432 9.92534 259.258 10.3373C266.906 14.6787 273.73 21.088 279.518 29.3573C280.348 30.392 280.965 31.4267 281.794 32.6667C282.412 33.7 283.24 34.94 283.861 36.1813C283.24 35.9747 282.412 35.9747 281.794 35.7667C277.244 34.94 272.489 34.5267 267.734 34.1133ZM259.258 60.1627H252.229H244.993C242.305 60.1627 239.617 60.3707 236.93 60.3707C237.962 52.5147 239.41 45.6907 241.064 39.076C242.512 39.076 243.752 39.076 244.993 38.868H252.229C254.504 38.868 256.984 38.868 259.258 39.076C260.705 39.076 262.153 39.076 263.393 39.2813C265.048 45.6907 266.493 52.5147 267.321 60.3707C264.633 60.3707 261.945 60.1627 259.258 60.1627ZM222.044 35.56C221.01 35.7667 220.184 35.9747 219.15 36.1813C219.977 34.5267 221.01 33.08 222.044 31.632C222.457 30.8067 222.87 29.9787 223.49 29.3573C229.488 20.8813 236.93 14.6787 244.993 10.3373C245.82 9.92534 246.44 9.51067 247.268 9.09601C246.44 10.1307 245.613 11.372 244.993 12.612C241.892 17.78 239.617 24.3973 238.997 26.2573C238.17 28.7373 237.344 31.2187 236.516 33.9067C231.554 34.3187 226.8 34.94 222.044 35.56ZM230.934 60.576C228.04 60.784 224.938 60.9893 222.044 61.1973C217.494 61.404 213.154 61.8173 209.02 62.436C210.673 55.2013 212.946 48.5867 215.842 42.3827C217.909 41.9693 219.977 41.7627 222.044 41.3493C226.178 40.5227 230.52 40.108 234.862 39.696C233.209 46.104 231.968 52.9267 230.934 60.576ZM203.022 63.0573C201.576 63.264 200.129 63.472 198.682 63.6773C196.2 64.092 193.513 64.2987 191.032 64.7107C190.205 64.9187 189.378 65.124 188.55 65.332C190.205 59.5427 192.273 53.9613 194.753 48.5867C194.96 48.5867 195.373 48.3773 195.786 48.172C196.822 47.7587 197.854 47.552 198.682 47.1387C201.989 46.104 205.505 45.0707 209.02 44.0373C206.538 50.0333 204.469 56.4413 203.022 63.0573ZM179.868 49.6187C183.796 42.796 188.55 36.5947 194.133 31.012C195.581 29.5653 197.236 28.1173 198.682 26.6707C201.784 23.984 205.09 21.5013 208.606 19.2267C206.125 21.708 203.85 24.1893 201.576 26.876C200.542 27.9107 199.716 29.152 198.682 30.392C195.581 34.7333 192.893 39.2813 190.41 44.244C186.484 45.8973 182.969 47.7587 179.868 49.6187ZM182.349 66.3653C181.521 66.5733 180.489 66.7787 179.661 66.9853C176.973 67.6053 174.7 68.2253 172.425 68.8467V68.02C172.425 67.6053 172.425 67.1933 172.63 66.7787C172.838 65.5387 173.252 64.2987 173.872 63.0573C174.906 60.784 176.973 58.7147 179.661 56.6493C181.728 54.9947 184.21 53.5467 186.897 52.1C185.037 56.6493 183.589 61.404 182.349 66.3653ZM222.044 16.1267C226.385 13.232 231.14 10.7507 235.896 8.88934C230.934 12.1987 226.385 16.54 222.044 21.916C220.802 23.156 219.769 24.6027 218.736 26.0493C216.254 29.5653 213.98 33.4933 211.913 37.628C207.365 38.6613 203.022 39.696 198.682 41.1427L198.474 41.3493L198.682 40.936C200.957 37.2147 203.436 33.7 205.918 30.5973C210.673 24.8093 216.048 20.0547 222.044 16.1267ZM252.229 14.4733C254.504 14.8867 256.777 19.6413 259.258 26.2573C259.465 26.876 259.878 27.496 260.084 28.324C260.705 29.9787 261.326 31.8387 261.74 33.7C260.912 33.4933 260.084 33.4933 259.258 33.4933C256.984 33.4933 254.504 33.2853 252.229 33.2853C249.954 33.2853 247.473 33.2853 244.993 33.4933H242.718C243.338 31.8387 243.752 29.9787 244.372 28.1173C244.58 27.496 244.785 26.876 244.993 26.2573C247.886 17.3667 250.161 14.0587 252.229 14.4733ZM281.794 16.3333C287.582 20.2613 293.165 25.2227 297.92 31.012C300.193 33.9067 302.676 37.2147 304.742 40.7293C304.742 40.936 304.949 41.1427 305.156 41.5547L304.742 41.3493C300.401 39.9027 295.852 38.6613 291.098 37.628C289.029 33.4933 286.754 29.5653 284.276 26.0493C283.449 24.8093 282.621 23.776 281.794 22.7427C277.452 17.16 272.904 12.8187 267.941 9.304C272.904 11.164 277.452 13.4373 281.794 16.3333ZM323.764 40.108C320.456 35.3547 316.733 31.012 312.804 26.876C310.118 24.3973 307.43 21.916 304.742 19.6413C297.506 13.852 289.649 9.30401 281.794 5.99601C274.35 3.10134 266.906 1.24001 259.258 0.414672C256.984 0.206672 254.504 0.206676 252.229 9.68684e-06C249.954 9.68684e-06 247.473 0.206672 244.993 0.414672C237.137 1.03467 229.488 2.89468 222.044 5.78801C213.98 8.88934 206.125 13.4373 198.682 19.2267C195.786 21.5013 192.893 24.1893 189.998 26.876C186.276 30.8067 182.762 34.94 179.661 39.2813C172.63 49.6187 167.462 61.1973 164.776 73.808L164.981 74.0147C164.981 75.8747 167.877 77.116 171.184 75.6693C173.252 74.6347 176.146 73.808 179.661 72.9827C180.074 72.7747 180.489 72.7747 181.108 72.568C180.902 73.6013 180.694 74.6347 180.489 75.6693C180.902 77.116 184.829 77.736 186.276 75.6693C186.484 74.2213 186.897 72.7747 187.104 71.3267C188.758 70.9147 190.41 70.708 192.066 70.5C194.34 70.0867 196.614 69.6733 198.682 69.4667C199.716 69.26 200.749 69.0533 201.784 68.8467C201.576 70.5 201.37 71.9467 201.162 73.396C201.989 75.256 204.677 76.084 206.745 73.808C207.157 71.9467 207.365 70.0867 207.778 68.2253C212.533 67.6053 217.081 67.1933 222.044 66.7787C224.732 66.5733 227.626 66.3653 230.313 66.1587C230.313 67.8133 230.106 69.6733 229.901 71.5347C230.106 73.188 234.241 74.8427 235.896 71.5347C236.102 69.6733 236.102 67.8133 236.31 65.952C239.204 65.7467 242.098 65.7467 244.993 65.5387H252.229C254.504 65.5387 256.984 65.5387 259.258 65.7467C262.153 65.7467 265.048 65.7467 267.941 65.952C268.149 67.8133 268.149 69.6733 268.354 71.5347C270.009 74.8427 274.144 73.188 274.35 71.5347C274.144 69.6733 273.938 68.02 273.938 66.1587C276.417 66.3653 279.105 66.5733 281.794 66.7787C286.342 67.1933 290.89 67.6053 295.438 68.2253C295.645 69.88 296.058 71.7413 296.265 73.6013C298.333 75.8747 301.02 75.048 301.848 73.188C301.848 71.7413 301.433 70.2947 301.228 69.0533C302.469 69.0533 303.502 69.26 304.742 69.4667C306.809 69.6733 308.67 70.0867 310.738 70.5C312.804 70.708 314.872 71.1213 316.526 71.5347C316.941 72.9827 317.148 74.4293 317.561 75.8747C318.801 77.944 322.937 77.3227 323.142 75.6693C323.142 74.8427 322.937 73.808 322.729 72.7747L323.764 72.9827C327.072 73.808 329.758 74.8427 331.62 75.6693C335.133 77.116 337.822 75.8747 338.028 74.0147V73.808C335.548 61.6107 330.586 50.0333 323.764 40.108Z" fill="black"/>
<path d="M31.8687 104.617H43.6634C45.4074 104.617 46.6381 104.565 47.3554 104.464C48.0741 104.36 48.7314 104.145 49.3301 103.821C50.6287 103.121 51.2794 101.857 51.2794 100.027C51.2794 98.1988 50.6287 96.9322 49.3301 96.2322C48.7154 95.8908 48.0607 95.6722 47.3687 95.5788C46.6767 95.4842 45.4407 95.4375 43.6634 95.4375H31.8687V104.617ZM31.8687 110.385V122.001C31.8687 122.515 31.9927 122.912 32.2407 123.193C32.4874 123.477 32.9114 123.693 33.5087 123.848V124.668H22.5861V123.848C23.2021 123.677 23.6287 123.455 23.8687 123.181C24.1074 122.908 24.2274 122.515 24.2274 122.001V92.3602C24.2274 91.8308 24.1074 91.4282 23.8687 91.1548C23.6287 90.8815 23.2021 90.6588 22.5861 90.4882V89.6668H44.4834C47.1501 89.6668 49.2661 89.8215 50.8301 90.1295C52.3954 90.4375 53.7581 90.9762 54.9207 91.7455C56.2701 92.6335 57.2794 93.8388 57.9461 95.3602C58.5781 96.8308 58.8954 98.4042 58.8954 100.079C58.8954 105.788 55.7234 109.131 49.3821 110.104L56.1767 119.771C57.3727 121.464 58.2487 122.552 58.8047 123.039C59.3607 123.527 60.0394 123.797 60.8434 123.848V124.668H48.1981V123.848C49.0674 123.711 49.5034 123.404 49.5034 122.924C49.5034 122.617 49.1021 121.872 48.3007 120.693L41.2114 110.385H31.8687Z" fill="black"/>
<path d="M74.3309 109.309V118.898H96.8442C97.3575 118.898 97.7495 118.78 98.0242 118.54C98.2962 118.301 98.5189 117.873 98.6909 117.258H99.5109V126.31H98.6909C98.5189 125.693 98.2962 125.266 98.0242 125.026C97.7495 124.786 97.3575 124.669 96.8442 124.669H65.0482V123.848C65.6642 123.677 66.0909 123.454 66.3309 123.181C66.5696 122.908 66.6896 122.505 66.6896 121.977V92.3596C66.6896 91.8316 66.5696 91.4289 66.3309 91.1556C66.0909 90.8823 65.6642 90.6596 65.0482 90.4889V89.6676H96.2282C96.7415 89.6676 97.1349 89.5463 97.4082 89.3023C97.6815 89.0583 97.9042 88.6329 98.0749 88.0276H98.8949V97.0783H98.0749C97.9042 96.4703 97.6815 96.0449 97.4082 95.8023C97.1349 95.5583 96.7415 95.4383 96.2282 95.4383H74.3309V103.745H88.5362C89.0496 103.745 89.4415 103.625 89.7162 103.386C89.9895 103.146 90.2109 102.72 90.3829 102.105H91.2029V110.95H90.3829C90.2109 110.352 89.9895 109.929 89.7162 109.68C89.4415 109.433 89.0496 109.309 88.5362 109.309H74.3309Z" fill="black"/>
<path d="M101.946 123.335L105.229 114.464L105.998 114.746C105.981 114.951 105.973 115.122 105.973 115.258C105.973 115.959 106.408 116.608 107.28 117.206C108.202 117.806 109.438 118.308 110.985 118.719C112.532 119.131 114.014 119.335 115.434 119.335C117.724 119.335 119.39 118.812 120.434 117.771C120.964 117.242 121.322 116.612 121.51 115.886C121.698 115.159 121.793 114.062 121.793 112.591V92.3603C121.793 91.8309 121.673 91.4283 121.434 91.1549C121.194 90.8816 120.768 90.6589 120.152 90.4883V89.6669H131.076V90.4883C130.46 90.6589 130.032 90.8816 129.793 91.1549C129.554 91.4283 129.434 91.8309 129.434 92.3603V112.975C129.434 116.36 128.964 118.806 128.024 120.31C127.032 121.899 125.562 123.126 123.613 123.988C121.665 124.852 119.39 125.284 116.793 125.284C115.306 125.284 114.014 125.186 112.921 124.988C111.826 124.792 110.04 124.326 107.562 123.591C106.024 123.146 104.929 122.924 104.28 122.924C103.716 122.924 103.194 123.164 102.716 123.643L101.946 123.335Z" fill="black"/>
<path d="M169.255 92.6331L165.076 100.873L164.357 100.462C164.375 100.292 164.383 100.156 164.383 100.052C164.383 99.4718 163.887 98.8464 162.896 98.1798C159.853 96.0611 156.281 94.9997 152.177 94.9997C150.365 94.9997 148.768 95.2224 147.383 95.6664C146.373 96.0077 145.559 96.5211 144.935 97.2037C144.311 97.8864 143.999 98.6304 143.999 99.4331C143.999 100.748 144.793 101.644 146.383 102.122C147.203 102.361 148.964 102.617 151.665 102.89L155.691 103.3C158.084 103.557 160.02 103.906 161.499 104.35C162.977 104.794 164.289 105.418 165.435 106.221C166.596 107.057 167.515 108.16 168.191 109.526C168.865 110.893 169.204 112.353 169.204 113.908C169.204 116.368 168.409 118.553 166.819 120.466C165.383 122.209 163.152 123.498 160.127 124.336C157.869 124.968 155.451 125.284 152.869 125.284C148.237 125.284 143.665 124.172 139.152 121.95C138.195 121.505 137.621 121.284 137.435 121.284C137.212 121.284 136.861 121.472 136.383 121.848L135.64 121.464L139.435 112.873L140.177 113.232V113.565C140.177 114.334 140.545 115.045 141.28 115.693C142.392 116.685 144.109 117.54 146.435 118.258C148.759 118.977 150.964 119.334 153.049 119.334C155.323 119.334 157.263 118.95 158.869 118.182C159.759 117.757 160.468 117.19 160.999 116.482C161.528 115.773 161.793 115.036 161.793 114.268C161.793 113.106 161.169 112.28 159.921 111.784C159.049 111.444 157.289 111.128 154.64 110.838L150.691 110.429C148.04 110.156 146.169 109.893 145.075 109.646C143.981 109.398 142.887 109 141.793 108.453C140.237 107.682 139.015 106.529 138.127 104.989C137.323 103.604 136.921 102.012 136.921 100.216C136.921 97.2558 137.939 94.8104 139.973 92.8757C142.64 90.3277 146.64 89.0517 151.973 89.0517C154.212 89.0517 156.297 89.2798 158.229 89.7344C160.161 90.1904 162.571 91.0264 165.46 92.2451C166.451 92.6411 167.059 92.8384 167.281 92.8384C167.64 92.8384 168.059 92.6411 168.537 92.2451L169.255 92.6331Z" fill="black"/>
<path d="M183.794 109.309V118.898H206.307C206.82 118.898 207.212 118.78 207.487 118.54C207.759 118.301 207.982 117.873 208.154 117.258H208.974V126.31H208.154C207.982 125.693 207.759 125.266 207.487 125.026C207.212 124.786 206.82 124.669 206.307 124.669H174.511V123.848C175.127 123.677 175.554 123.454 175.794 123.181C176.032 122.908 176.152 122.505 176.152 121.977V92.3596C176.152 91.8316 176.032 91.4289 175.794 91.1556C175.554 90.8823 175.127 90.6596 174.511 90.4889V89.6676H205.691C206.204 89.6676 206.598 89.5463 206.871 89.3023C207.144 89.0583 207.367 88.6329 207.538 88.0276H208.358V97.0783H207.538C207.367 96.4703 207.144 96.0449 206.871 95.8023C206.598 95.5583 206.204 95.4383 205.691 95.4383H183.794V103.745H197.999C198.512 103.745 198.904 103.625 199.179 103.386C199.452 103.146 199.674 102.72 199.846 102.105H200.666V110.95H199.846C199.674 110.352 199.452 109.929 199.179 109.68C198.904 109.433 198.512 109.309 197.999 109.309H183.794Z" fill="black"/>
<path d="M245.538 112.078H236.897C236.367 112.078 235.969 112.198 235.705 112.438C235.439 112.677 235.222 113.105 235.05 113.718H234.23V105.565H235.05C235.222 106.198 235.439 106.63 235.703 106.86C235.967 107.092 236.365 107.206 236.894 107.206H253.486V108.026C252.881 108.198 252.455 108.42 252.211 108.693C251.967 108.966 251.846 109.37 251.846 109.898V117.078C251.846 117.608 251.963 118.01 252.199 118.284C252.434 118.557 252.863 118.778 253.486 118.95V119.592C246.842 123.385 240.401 125.284 234.166 125.284C228.51 125.284 223.899 123.941 220.329 121.258C215.835 117.873 213.589 113.172 213.589 107.156C213.589 101.549 215.589 97.0864 219.589 93.7718C223.383 90.6251 228.426 89.0518 234.717 89.0518C236.717 89.0518 238.602 89.2371 240.371 89.6051C242.141 89.9718 244.153 90.5918 246.41 91.4624C247.571 91.9251 248.401 92.1558 248.897 92.1558C249.257 92.1558 249.675 91.9584 250.153 91.5651L250.871 91.9504L246.757 100.334L246.013 99.9518C245.995 99.3904 245.919 98.9878 245.782 98.7398C245.645 98.4931 245.338 98.1904 244.859 97.8331C243.817 97.0504 242.287 96.3838 240.271 95.8304C238.257 95.2771 236.35 94.9998 234.557 94.9998C230.901 94.9998 227.867 96.0264 225.458 98.0758C222.742 100.397 221.383 103.464 221.383 107.272C221.383 110.958 222.709 113.94 225.358 116.21C227.786 118.293 230.982 119.334 234.949 119.334C236.879 119.334 238.786 119.112 240.666 118.668C242.546 118.224 244.17 117.617 245.538 116.848V112.078Z" fill="black"/>
<path d="M281.825 110.951L276.149 98.4815L270.381 110.951H281.825ZM284.024 115.745H268.116L265.76 120.668C265.436 121.352 265.273 121.891 265.273 122.284C265.273 123.036 265.845 123.557 266.988 123.848V124.668H255.409V123.848C256.094 123.711 256.616 123.472 256.974 123.131C257.334 122.788 257.742 122.121 258.205 121.131L271.076 94.2322C271.488 93.3775 271.692 92.6935 271.692 92.1802C271.692 91.3948 271.196 90.8308 270.205 90.4882V89.6668H282.616V90.4882C281.608 90.7788 281.102 91.2842 281.102 92.0002C281.102 92.4975 281.265 93.0615 281.589 93.6935L294.922 120.668C295.488 121.812 295.982 122.596 296.409 123.015C296.837 123.432 297.409 123.711 298.129 123.848V124.668H285.242V123.848C286.376 123.659 286.941 123.131 286.941 122.257C286.941 121.899 286.77 121.369 286.428 120.668L284.024 115.745Z" fill="black"/>
<path d="M310.386 104.617H322.181C323.924 104.617 325.154 104.565 325.873 104.464C326.59 104.36 327.248 104.145 327.848 103.821C329.146 103.121 329.796 101.857 329.796 100.027C329.796 98.1988 329.146 96.9322 327.848 96.2322C327.233 95.8908 326.578 95.6722 325.886 95.5788C325.193 95.4842 323.958 95.4375 322.181 95.4375H310.386V104.617ZM310.386 110.385V122.001C310.386 122.515 310.509 122.912 310.757 123.193C311.005 123.477 311.428 123.693 312.026 123.848V124.668H301.102V123.848C301.72 123.677 302.146 123.455 302.386 123.181C302.625 122.908 302.745 122.515 302.745 122.001V92.3602C302.745 91.8308 302.625 91.4282 302.386 91.1548C302.146 90.8815 301.72 90.6588 301.102 90.4882V89.6668H323.001C325.668 89.6668 327.784 89.8215 329.348 90.1295C330.913 90.4375 332.274 90.9762 333.437 91.7455C334.788 92.6335 335.796 93.8388 336.462 95.3602C337.094 96.8308 337.413 98.4042 337.413 100.079C337.413 105.788 334.241 109.131 327.9 110.104L334.693 119.771C335.889 121.464 336.766 122.552 337.321 123.039C337.877 123.527 338.556 123.797 339.36 123.848V124.668H326.714V123.848C327.584 123.711 328.021 123.404 328.021 122.924C328.021 122.617 327.62 121.872 326.817 120.693L319.729 110.385H310.386Z" fill="black"/>
<path d="M367.006 110.951L361.33 98.4815L355.563 110.951H367.006ZM369.203 115.745H353.298L350.941 120.668C350.615 121.352 350.454 121.891 350.454 122.284C350.454 123.036 351.025 123.557 352.167 123.848V124.668H340.591V123.848C341.274 123.711 341.797 123.472 342.154 123.131C342.514 122.788 342.925 122.121 343.386 121.131L356.258 94.2322C356.667 93.3775 356.873 92.6935 356.873 92.1802C356.873 91.3948 356.377 90.8308 355.386 90.4882V89.6668H367.797V90.4882C366.787 90.7788 366.285 91.2842 366.285 92.0002C366.285 92.4975 366.446 93.0615 366.771 93.6935L380.105 120.668C380.669 121.812 381.165 122.596 381.591 123.015C382.019 123.432 382.591 123.711 383.31 123.848V124.668H370.425V123.848C371.555 123.659 372.123 123.131 372.123 122.257C372.123 121.899 371.951 121.369 371.61 120.668L369.203 115.745Z" fill="black"/>
<path d="M394.925 100.693V121.977C394.925 122.505 395.045 122.908 395.285 123.181C395.524 123.454 395.952 123.677 396.565 123.848V124.668H386.285V123.848C386.899 123.677 387.327 123.454 387.565 123.181C387.805 122.908 387.925 122.505 387.925 121.977V92.3329C387.925 91.8223 387.805 91.4289 387.565 91.1556C387.327 90.8823 386.899 90.6596 386.285 90.4889V89.6663H398.181V90.4889C397.447 90.6769 397.079 91.0703 397.079 91.6663C397.079 92.0783 397.319 92.5316 397.797 93.0263L417.105 113.105V92.3329C417.105 91.8223 416.985 91.4289 416.745 91.1556C416.507 90.8823 416.079 90.6596 415.464 90.4889V89.6663H425.745V90.4889C425.131 90.6596 424.704 90.8823 424.464 91.1556C424.225 91.4289 424.105 91.8223 424.105 92.3329V121.977C424.105 122.505 424.225 122.908 424.464 123.181C424.704 123.454 425.131 123.677 425.745 123.848V124.668H414.72V123.848C415.439 123.693 415.797 123.326 415.797 122.745C415.797 122.404 415.379 121.805 414.541 120.95L394.925 100.693Z" fill="black"/>
<path d="M450.438 95.4377V121.976C450.438 122.506 450.558 122.908 450.798 123.182C451.037 123.455 451.465 123.678 452.078 123.848V124.668H441.157V123.848C441.772 123.678 442.198 123.455 442.438 123.182C442.678 122.908 442.798 122.506 442.798 121.976V95.4377H431.925C431.412 95.4377 431.02 95.5551 430.745 95.7897C430.472 96.0231 430.25 96.4537 430.078 97.0777H429.258V88.0271H430.078C430.266 88.6497 430.493 89.0791 430.758 89.3151C431.024 89.5497 431.412 89.6671 431.925 89.6671H461.285C461.814 89.6671 462.217 89.5497 462.49 89.3151C462.764 89.0791 462.985 88.6497 463.157 88.0271H463.977V97.0777H463.157C462.985 96.4537 462.764 96.0231 462.49 95.7897C462.217 95.5551 461.814 95.4377 461.285 95.4377H450.438Z" fill="black"/>
<path d="M469.105 121.977V92.3342C469.105 91.8222 468.985 91.4288 468.746 91.1555C468.508 90.8822 468.08 90.6595 467.465 90.4888V89.6675H478.388V90.4888C477.772 90.6422 477.345 90.8595 477.105 91.1422C476.865 91.4248 476.746 91.8222 476.746 92.3342V121.977C476.746 122.505 476.87 122.911 477.118 123.193C477.365 123.477 477.79 123.693 478.388 123.847V124.669H467.465V123.847C468.08 123.677 468.508 123.454 468.746 123.181C468.985 122.907 469.105 122.505 469.105 121.977Z" fill="black"/>
<path d="M107.19 149.292V156.941C107.19 157.264 107.266 157.508 107.415 157.68C107.566 157.852 107.822 157.984 108.186 158.076V158.573H101.562V158.076C101.935 157.973 102.194 157.839 102.339 157.672C102.484 157.507 102.556 157.264 102.556 156.941V138.985C102.556 138.664 102.484 138.421 102.339 138.256C102.194 138.089 101.935 137.953 101.562 137.851V137.353H120.342C120.654 137.353 120.891 137.281 121.058 137.139C121.223 136.995 121.358 136.736 121.462 136.359H121.959V141.847H121.462C121.358 141.467 121.223 141.207 121.058 141.064C120.891 140.923 120.654 140.852 120.342 140.852H107.19V145.92H115.787C116.108 145.92 116.352 145.845 116.518 145.699C116.683 145.549 116.818 145.292 116.922 144.925H117.419V150.287H116.922C116.818 149.92 116.683 149.661 116.518 149.513C116.352 149.368 116.108 149.292 115.787 149.292H107.19Z" fill="black"/>
<path d="M164.679 140.586C162.656 140.586 160.97 141.188 159.622 142.389C158.023 143.808 157.224 145.665 157.224 147.964C157.224 150.262 158.023 152.12 159.622 153.54C160.97 154.74 162.667 155.34 164.71 155.34C166.754 155.34 168.446 154.74 169.784 153.54C170.583 152.825 171.195 151.949 171.62 150.914C171.994 149.993 172.18 149.04 172.18 148.058C172.18 145.654 171.382 143.766 169.784 142.389C168.424 141.209 166.723 140.608 164.679 140.586ZM164.663 136.98C168.366 136.98 171.3 137.98 173.468 139.981C175.76 142.073 176.906 144.78 176.906 148.096C176.906 150.128 176.356 152.024 175.258 153.785C173.111 157.226 169.59 158.948 164.695 158.948C161.023 158.948 158.104 157.948 155.936 155.946C154.775 154.88 153.894 153.6 153.292 152.108C152.763 150.79 152.499 149.406 152.499 147.956C152.499 145.832 153.043 143.889 154.132 142.125C156.216 138.758 159.727 137.042 164.663 136.98Z" fill="black"/>
<path d="M214.286 144.038V156.942C214.286 157.263 214.359 157.507 214.505 157.673C214.649 157.839 214.909 157.973 215.282 158.075V158.573H209.047V158.075C209.421 157.973 209.679 157.839 209.825 157.673C209.97 157.507 210.042 157.263 210.042 156.942V138.969C210.042 138.659 209.97 138.421 209.825 138.255C209.679 138.089 209.421 137.954 209.047 137.85V137.353H216.261V137.85C215.814 137.963 215.591 138.203 215.591 138.566C215.591 138.815 215.737 139.089 216.027 139.39L227.734 151.563V138.969C227.734 138.659 227.661 138.421 227.517 138.255C227.37 138.089 227.113 137.954 226.739 137.85V137.353H232.973V137.85C232.599 137.954 232.341 138.089 232.195 138.255C232.05 138.421 231.978 138.659 231.978 138.969V156.942C231.978 157.263 232.05 157.507 232.195 157.673C232.341 157.839 232.599 157.973 232.973 158.075V158.573H226.287V158.075C226.723 157.983 226.941 157.761 226.941 157.407C226.941 157.201 226.687 156.839 226.179 156.321L214.286 144.038Z" fill="black"/>
<path d="M271.239 155.076H277.06C278.918 155.076 280.314 154.823 281.248 154.315C283.251 153.227 284.251 151.107 284.251 147.956C284.251 145.676 283.711 143.931 282.634 142.716C282.031 142.044 281.306 141.563 280.454 141.279C279.602 140.993 278.472 140.852 277.06 140.852H271.239V155.076ZM266.606 156.941V138.985C266.606 138.664 266.535 138.421 266.388 138.256C266.243 138.089 265.986 137.953 265.611 137.851V137.353H277.45C280.043 137.353 282.035 137.649 283.424 138.24C285.415 139.1 286.888 140.519 287.842 142.499C288.6 144.053 288.978 145.873 288.978 147.956C288.978 151.615 287.852 154.403 285.602 156.321C284.656 157.128 283.552 157.707 282.287 158.052C281.023 158.401 279.41 158.573 277.45 158.573H265.611V158.076C265.986 157.973 266.243 157.839 266.388 157.672C266.535 157.507 266.606 157.264 266.606 156.941Z" fill="black"/>
<path d="M326.746 149.261V155.075H340.396C340.707 155.075 340.946 155.003 341.111 154.858C341.276 154.714 341.412 154.454 341.516 154.081H342.014V159.567H341.516C341.412 159.195 341.276 158.937 341.111 158.791C340.946 158.646 340.707 158.573 340.396 158.573H321.118V158.075C321.492 157.973 321.751 157.839 321.896 157.673C322.042 157.507 322.112 157.263 322.112 156.942V138.985C322.112 138.665 322.042 138.421 321.896 138.255C321.751 138.089 321.492 137.954 321.118 137.85V137.353H340.023C340.334 137.353 340.572 137.279 340.738 137.13C340.904 136.983 341.039 136.726 341.142 136.358H341.64V141.846H341.142C341.039 141.477 340.904 141.219 340.738 141.071C340.572 140.925 340.334 140.851 340.023 140.851H326.746V145.889H335.359C335.67 145.889 335.908 145.815 336.074 145.67C336.24 145.526 336.375 145.266 336.479 144.894H336.976V150.257H336.479C336.375 149.894 336.24 149.638 336.074 149.487C335.908 149.337 335.67 149.261 335.359 149.261H326.746Z" fill="black"/>
<path d="M379.363 144.038V156.942C379.363 157.263 379.436 157.507 379.58 157.673C379.724 157.839 379.985 157.973 380.357 158.075V158.573H374.123V158.075C374.496 157.973 374.756 157.839 374.9 157.673C375.045 157.507 375.117 157.263 375.117 156.942V138.969C375.117 138.659 375.045 138.421 374.9 138.255C374.756 138.089 374.496 137.954 374.123 137.85V137.353H381.336V137.85C380.891 137.963 380.668 138.203 380.668 138.566C380.668 138.815 380.813 139.089 381.104 139.39L392.811 151.563V138.969C392.811 138.659 392.737 138.421 392.592 138.255C392.447 138.089 392.188 137.954 391.816 137.85V137.353H398.049V137.85C397.675 137.954 397.417 138.089 397.272 138.255C397.125 138.421 397.055 138.659 397.055 138.969V156.942C397.055 157.263 397.125 157.507 397.272 157.673C397.417 157.839 397.675 157.973 398.049 158.075V158.573H391.364V158.075C391.8 157.983 392.016 157.761 392.016 157.407C392.016 157.201 391.764 156.839 391.256 156.321L379.363 144.038Z" fill="black"/>
<path d="M11.7827 99.0316H18.1933V109.37H11.7827C11.576 109.37 11.3707 109.576 11.1627 109.782C10.7493 110.197 10.5427 110.61 10.5427 111.229V165.397C10.5427 166.018 10.7493 166.432 11.1627 166.844C11.3707 167.052 11.576 167.052 11.7827 167.052H491.021C491.227 167.052 491.433 167.052 491.641 166.844C492.055 166.432 492.26 166.018 492.26 165.397V111.229C492.26 110.61 492.055 110.197 491.641 109.782C491.433 109.576 491.227 109.37 491.021 109.37H482.957V99.0316H491.021C494.328 99.0316 497.431 100.478 499.497 102.96C501.564 105.026 502.804 107.922 502.804 111.229V165.397C502.804 168.705 501.564 171.6 499.497 173.874C497.431 176.148 494.328 177.594 491.021 177.594V177.802H11.7827V177.594C8.476 177.594 5.37333 176.148 3.30667 173.874C1.23867 171.6 0 168.705 0 165.397V111.229C0 107.922 1.23867 105.026 3.30667 102.96C5.37333 100.478 8.476 99.0316 11.7827 99.0316Z" fill="black"/>
</svg>