<svg width="30" height="30" viewBox="0 0 36 36" fill="none" xmlns="http://www.w3.org/2000/svg">
<path d="M15.7523 3.45764L8.32483 6.24109C6.61309 6.88113 5.21393 8.90546 5.21393 10.7363V21.7956C5.21393 23.552 6.37495 25.8592 7.78901 26.916L14.1894 31.694C16.2882 33.2718 19.7414 33.2718 21.8402 31.694L28.2406 26.916C29.6547 25.8592 30.8157 23.552 30.8157 21.7956V10.7363C30.8157 8.90546 29.4165 6.88113 27.7048 6.24109L20.2773 3.45764C19.0121 2.99622 16.9877 2.99622 15.7523 3.45764Z" fill="white"/>
<path opacity="0.4" d="M18.0001 23.2097C21.2884 23.2097 23.954 20.544 23.954 17.2558C23.954 13.9675 21.2884 11.3019 18.0001 11.3019C14.7119 11.3019 12.0462 13.9675 12.0462 17.2558C12.0462 20.544 14.7119 23.2097 18.0001 23.2097Z" stroke="#531953" stroke-width="2.23271" stroke-miterlimit="10" stroke-linecap="round" stroke-linejoin="round"/>
<path opacity="0.4" d="M18.3723 15.3952V16.7795C18.3723 17.3005 18.1043 17.7917 17.6429 18.0596L16.5117 18.7443" stroke="#531953" stroke-width="2.23271" stroke-miterlimit="10" stroke-linecap="round" stroke-linejoin="round"/>
</svg>
