<svg width="304" height="374" viewBox="0 0 304 374" fill="none" xmlns="http://www.w3.org/2000/svg">
<path fill-rule="evenodd" clip-rule="evenodd" d="M87.3818 84.9872C87.1218 85.7741 86.8786 86.562 86.4409 87.2891C85.7762 88.3895 84.8262 89.0532 83.5628 89.1932C80.8973 89.4888 78.7025 88.5179 76.9636 86.5515C76.0423 85.512 75.9157 84.278 76.4475 82.9872C76.5846 82.6643 76.8709 82.3935 76.8184 82.0034C79.6535 81.2788 82.3543 80.1654 85.0781 79.127L87.5424 82.5712C87.4902 83.376 87.4367 84.1797 87.3818 84.9872Z" fill="#9B9B9B"/>
<path fill-rule="evenodd" clip-rule="evenodd" d="M96.055 66.9506C95.6347 68.2928 95.1054 69.5716 94.0372 70.5317C94.0596 70.1724 94.1023 69.813 94.1061 69.4562C94.1257 67.6273 92.5061 66.4772 90.8434 67.1444C90.0523 67.46 89.4085 67.9548 88.9544 68.7238C88.4523 69.5688 88.1633 70.4747 87.9292 71.419C87.5377 73.0012 87.6129 74.6271 87.4362 76.232C86.4279 75.2852 85.6277 74.1632 84.8495 73.0316C84.458 70.6856 84.7939 68.4429 85.7564 66.2862C86.346 64.9759 87.1682 63.8499 88.2882 62.9654C90.8669 60.9256 93.9721 61.5687 95.5606 64.4626C95.6375 64.6018 95.7324 64.7306 95.817 64.8632L95.8338 64.8565C95.7754 65.0105 95.8209 65.1337 95.951 65.2225L95.9444 65.183C95.8716 65.3446 95.9185 65.4867 96.0175 65.6203C95.9615 65.7662 95.9615 65.9069 96.0707 66.0329C96.0004 66.1711 95.9797 66.3047 96.098 66.4282L96.0966 66.3911C95.9965 66.578 95.9353 66.7638 96.0655 66.9629L96.055 66.9506Z" fill="#9B9B9B"/>
<path fill-rule="evenodd" clip-rule="evenodd" d="M72.2625 72.6024C75.218 71.5615 78.1357 71.6749 81.009 72.9218L81.0765 73.0027L81.1734 72.9771C81.5404 73.186 81.9057 73.391 82.271 73.5961C82.441 73.9774 82.9046 74.0747 83.0869 74.4816C83.5911 75.5967 84.152 76.6831 84.6901 77.7821C84.1926 77.5865 83.6786 77.4165 83.1947 77.1915C81.6426 76.4676 80.01 76.0187 78.3138 75.8717C77.0545 75.7626 75.8464 76.0012 74.8093 76.8315C73.5029 77.8776 73.174 80.2411 75.5294 81.1928C75.7991 81.3006 76.0609 81.4192 76.3264 81.5339C75.5539 81.8439 74.7446 81.9881 73.9252 82.0126C71.8419 82.0745 70.1202 80.9594 69.3581 79.0938C68.5884 77.2023 69.0939 75.1384 70.6485 73.7175C71.1394 73.2658 71.7461 73.0027 72.2625 72.6024Z" fill="#9B9B9B"/>
<path fill-rule="evenodd" clip-rule="evenodd" d="M75.8281 82.0085C75.5622 81.8906 75.2977 81.7699 75.0304 81.6615C72.6582 80.6923 72.9919 78.2917 74.3047 77.2266C75.3477 76.382 76.5646 76.141 77.8326 76.2519C79.5376 76.4013 81.18 76.8593 82.7384 77.5912C83.2296 77.8229 83.7422 77.9929 84.2467 78.1944C84.4801 78.3974 84.5844 78.6783 84.6904 78.9635C81.8595 80.0632 79.0548 81.2367 76.1115 82.0071C76.0178 82.0057 75.9229 82.0071 75.8281 82.0085Z" fill="#444444"/>
<path fill-rule="evenodd" clip-rule="evenodd" d="M90.2473 84.8152C90.1406 84.8432 90.0339 84.8736 89.9261 84.9006C89.1333 84.536 88.5073 83.9769 87.9598 83.3173C87.6886 82.9923 87.3611 82.719 87.0592 82.4216L84.638 79.0473C84.5404 78.7832 84.4427 78.5239 84.2178 78.3322C83.7048 77.2969 83.1678 76.2717 82.6923 75.222C82.5138 74.8372 82.074 74.7469 81.9134 74.39C82.1898 74.418 82.362 74.3711 82.2913 74.0216C82.0817 72.9912 81.335 72.3103 80.5835 71.713C79.4936 70.8492 78.2522 70.2561 76.768 70.7386C76.4839 70.8303 76.1833 70.8086 76.1382 70.4415C76.1011 70.1277 76.3016 69.9118 76.6252 69.9118C77.9824 69.9027 79.2882 70.0997 80.4267 70.895C80.7479 71.1186 81.0166 71.4069 81.4124 71.5024C81.7014 71.2634 81.4984 70.9968 81.447 70.7564C81.1412 69.2929 81.4061 67.9031 81.9715 66.5449C82.1076 66.2097 82.3375 65.9938 82.6898 66.1754C83.1048 66.3913 82.9186 66.7051 82.6884 66.9402C81.3865 68.2296 81.8172 71.9723 83.5586 73.2924C83.723 73.4156 83.8938 73.4856 84.1019 73.4614C84.8745 74.5489 85.6635 75.6223 86.6554 76.5296L86.653 76.5054C86.5438 76.6373 86.6351 76.7136 86.7327 76.7937C86.8188 77.0453 86.9794 77.2395 87.176 77.4113C87.9097 78.6306 88.641 79.8426 89.3695 81.056C89.4968 81.7142 89.8604 82.282 90.1007 82.8943C90.3477 83.5196 90.5391 84.1508 90.2473 84.8152Z" fill="#363636"/>
<path fill-rule="evenodd" clip-rule="evenodd" d="M89.8705 81.0003C89.0959 79.6806 88.3212 78.357 87.5427 77.033C89.6945 74.9592 91.8026 72.8435 93.7364 70.5538C94.0702 70.522 94.4015 70.4737 94.7371 70.4558C96.1552 70.3799 97.2409 70.9572 97.9935 72.1815C99.4308 74.524 99.2303 78.3073 97.5285 80.4615C96.8451 81.3278 95.9508 81.8282 94.8613 81.9622C93.5863 82.1224 92.3645 81.8887 91.1658 81.473C90.7361 81.3208 90.3026 81.1564 89.8705 81.0003Z" fill="#9B9B9B"/>
<path fill-rule="evenodd" clip-rule="evenodd" d="M92.9949 71.5017C91.0226 73.6794 88.874 75.694 86.6837 77.673C86.4709 77.4952 86.2929 77.2913 86.1998 77.032C86.1735 76.9309 86.1456 76.8336 86.1179 76.7346L86.1207 76.7612C86.311 75.1678 86.2292 73.5559 86.6487 71.9846C86.8975 71.0493 87.2075 70.149 87.7442 69.3111C88.2291 68.549 88.9156 68.0585 89.7606 67.7453C91.5383 67.0819 93.2675 68.2229 93.2479 70.036C93.2423 70.3926 93.1979 70.7491 93.173 71.1046C93.1118 71.2386 93.0548 71.3702 92.9949 71.5017Z" fill="#444444"/>
<path fill-rule="evenodd" clip-rule="evenodd" d="M70.4284 312.459C70.4585 313.078 70.2265 313.383 69.8819 313.621C69.3931 313.96 68.9397 314.475 68.3987 314.593C65.9201 315.125 65.1469 317.172 64.1651 319.072C63.2299 320.888 61.9416 321.052 61.0546 319.233C59.8724 316.808 58.3808 315.013 55.791 313.985C54.382 313.425 54.3956 311.668 55.8322 311.105C58.4357 310.083 59.9546 308.334 61.0833 305.857C61.8772 304.107 63.3261 304.258 64.1252 306.004C65.0605 308.044 66.0024 309.929 68.4565 310.598C69.3532 310.839 70.2223 311.528 70.4284 312.459Z" fill="#CCCCCC"/>
<path fill-rule="evenodd" clip-rule="evenodd" d="M67.5768 104.421C67.5768 112.804 60.873 119.599 52.6031 119.599C44.3332 119.599 37.6294 112.804 37.6294 104.421C37.6294 96.0379 44.3332 89.2441 52.6031 89.2441C60.873 89.2441 67.5768 96.0379 67.5768 104.421Z" fill="#F6F6F6"/>
<path fill-rule="evenodd" clip-rule="evenodd" d="M278.636 60.9449C278.667 61.5635 278.433 61.8675 278.09 62.1058C277.6 62.4452 277.145 62.9599 276.606 63.0774C274.126 63.6114 273.356 65.6565 272.373 67.5591C271.439 69.3729 270.148 69.5374 269.262 67.718C268.08 65.2936 266.586 63.5005 263.996 62.4697C262.59 61.9113 262.6 60.1538 264.038 59.5912C266.642 58.5685 268.16 56.8204 269.29 54.3415C270.085 52.5949 271.533 52.7439 272.331 54.4892C273.265 56.529 274.21 58.4138 276.662 59.0818C277.558 59.3256 278.429 60.0142 278.636 60.9449Z" fill="#CCCCCC"/>
<mask id="mask0_8343_9006" style="mask-type:alpha" maskUnits="userSpaceOnUse" x="293" y="170" width="11" height="12">
<path fill-rule="evenodd" clip-rule="evenodd" d="M293.464 170.391H303.446V181.432H293.464V170.391Z" fill="white"/>
</mask>
<g mask="url(#mask0_8343_9006)">
<path fill-rule="evenodd" clip-rule="evenodd" d="M298.457 171.106C296.057 171.106 294.111 173.26 294.111 175.91C294.111 178.561 296.057 180.717 298.457 180.717C300.854 180.717 302.799 178.561 302.799 175.91C302.799 173.26 300.854 171.106 298.457 171.106ZM298.457 181.432C295.703 181.432 293.464 178.957 293.464 175.91C293.464 172.867 295.703 170.391 298.457 170.391C301.207 170.391 303.446 172.867 303.446 175.91C303.446 178.957 301.207 181.432 298.457 181.432Z" fill="#BABABA"/>
</g>
<path fill-rule="evenodd" clip-rule="evenodd" d="M104.849 101.201C106.854 86.8128 113.23 72.7082 124.282 60.6085C151.321 31.0204 198.625 24.1406 234.239 44.6145C276.61 68.9756 287.065 120.812 258.234 157.412C256.733 159.318 255.152 161.142 253.507 162.888C247.944 168.776 248.927 177.749 255.785 182.327C302.24 213.407 312.502 273.352 278.633 316.108C245.925 357.398 182.608 367.608 136.684 338.928C108.435 321.283 92.738 293.285 91.1999 264.37C90.2255 246.035 78.9099 229.633 61.3736 220.925C58.0241 219.263 54.7982 217.254 51.75 214.893C30.9199 198.749 25.778 170.476 39.8066 148.979C49.051 134.814 64.1769 126.357 80.2912 124.32C93.2779 122.681 103.178 113.183 104.849 101.201Z" fill="#F6F6F6"/>
<path fill-rule="evenodd" clip-rule="evenodd" d="M249.875 84.4811L249.826 86.3124C249.623 93.7338 249.99 101.302 251.54 110.442C253.828 123.951 258.286 137.165 265.448 149.54C270.025 157.447 275.616 164.824 282.299 171.578L282.743 172.031C296.438 186.125 303.449 205.351 300.955 223.015C299.251 235.102 293.624 244.418 279.811 261.579L275.423 267.04C269.258 274.811 265.088 280.995 261.967 287.458C260.067 291.38 258.695 295.204 257.88 298.979C257.646 300.067 257.53 300.981 257.376 302.772L257.285 303.874C257.061 306.523 256.869 307.877 256.418 309.318L256.281 309.735C256.103 310.253 255.935 310.693 255.658 311.355L255.091 312.691C254.451 314.21 254.154 315.015 253.902 315.998L253.601 317.177C252.709 320.599 251.95 323.104 251.012 325.592C248.475 332.306 245.06 338.289 240.708 343.383C226.505 360.017 200.472 368.187 175.815 364.422C152.783 360.906 131.338 347.708 117.072 329.104C108.199 317.534 102.634 304.784 101.237 292.031C101.064 290.46 100.999 289.172 100.951 286.751L100.91 284.564C100.778 278.493 100.354 275.648 98.7324 272.186L98.5837 271.873C96.3382 267.188 93.3561 263.436 87.0868 256.69L55.7476 222.975C49.6928 216.46 46.2356 212.404 43.251 207.964L42.7951 207.278C38.7732 201.146 36.5378 195.313 36.2386 189.359C35.9111 182.836 37.9552 176.057 41.9939 168.766C46.5914 160.469 52.8893 152.922 60.4924 146.599C63.2012 144.347 65.5878 142.573 69.9382 139.545L73.4325 137.13C79.7679 132.764 82.8504 130.518 86.0687 127.763L86.7786 127.149C91.938 122.643 95.8511 117.772 98.2286 112.606C99.5298 109.778 100.327 106.91 100.561 104.078C100.603 103.564 100.613 103.127 100.6 102.404L100.576 101.381C100.548 100.285 100.555 99.7449 100.619 99.0787L100.723 98.0703C101.558 90.3469 103.362 82.7635 106.101 75.5593C114.688 52.9725 133.268 34.4681 156.411 26.6758C174.577 20.5587 195.747 21.6168 212.656 29.6396C217.356 31.8702 225.882 38.0093 232.818 45.3918C243.454 56.7124 249.791 69.7946 249.875 84.4125V84.4811ZM249.476 84.4811L249.469 83.7568C249.203 69.5182 242.943 56.7509 232.531 45.6697C225.629 38.3238 217.143 32.2141 212.487 30.0042C195.672 22.0258 174.607 20.973 156.536 27.0578C133.508 34.8113 115.017 53.2275 106.472 75.7042C103.627 83.1872 101.794 91.0824 101.015 99.1179C100.958 99.7099 100.948 100.204 100.967 101.114L100.998 102.403C101.008 102.99 101.003 103.392 100.979 103.801L100.957 104.111C100.719 106.993 99.9091 109.907 98.5886 112.776C96.1853 117.999 92.2368 122.913 87.0378 127.454L86.7992 127.662C83.7839 130.278 81.0324 132.342 75.8394 135.952L70.9533 139.328C66.6413 142.317 64.1865 144.106 61.6872 146.135L60.7443 146.91C53.179 153.202 46.9133 160.71 42.3403 168.963C38.3351 176.194 36.3121 182.903 36.6354 189.338C36.9304 195.212 39.1406 200.978 43.1261 207.055C46.0529 211.518 49.3471 215.463 55.1276 221.718L87.7912 256.861C93.9421 263.505 96.8542 267.237 99.0914 272.014L99.2195 272.291C100.768 275.699 101.178 278.595 101.308 284.574L101.334 285.981C101.384 288.896 101.444 290.274 101.632 291.985L101.713 292.692C103.226 305.13 108.719 317.555 117.386 328.856C131.59 347.379 152.946 360.521 175.875 364.023C200.403 367.767 226.299 359.642 240.407 343.117C244.728 338.062 248.118 332.12 250.641 325.445C251.572 322.974 252.327 320.483 253.216 317.072L253.57 315.697C253.8 314.843 254.077 314.084 254.602 312.835L255.112 311.628C255.497 310.718 255.693 310.214 255.903 309.602L255.973 309.399C256.418 308.048 256.62 306.824 256.827 304.549L257.037 302.093C257.138 300.995 257.233 300.246 257.369 299.504L257.492 298.892C258.314 295.085 259.699 291.229 261.61 287.283C264.654 280.985 268.678 274.956 274.556 267.493L275.682 266.076L280.913 259.562C293.656 243.569 298.929 234.529 300.563 222.958C303.064 205.235 295.92 185.911 282.019 171.863L281.249 171.078C274.878 164.514 269.524 157.375 265.105 149.744C257.919 137.324 253.444 124.065 251.148 110.51C249.595 101.34 249.224 93.7471 249.427 86.3012L249.476 84.4811Z" fill="#D2D2D2"/>
<path fill-rule="evenodd" clip-rule="evenodd" d="M157.311 230.892L184.515 164.113L181.771 162.955L154.568 229.733L157.311 230.892Z" fill="#8D8D8D"/>
<path fill-rule="evenodd" clip-rule="evenodd" d="M203.056 209.28L138.671 178.859L137.457 181.685L201.843 212.106L203.056 209.28Z" fill="#8D8D8D"/>
<path fill-rule="evenodd" clip-rule="evenodd" d="M184.515 229.766L157.387 162.955L154.568 164.081L181.696 230.892L184.515 229.766Z" fill="#8D8D8D"/>
<path fill-rule="evenodd" clip-rule="evenodd" d="M137.138 212.103L203.053 184.605L201.942 181.748L136.028 209.246L137.138 212.103Z" fill="#8D8D8D"/>
<path fill-rule="evenodd" clip-rule="evenodd" d="M33.2461 281.485L60.4497 214.705L57.7063 213.547L30.5027 280.326L33.2461 281.485Z" fill="#8D8D8D"/>
<path fill-rule="evenodd" clip-rule="evenodd" d="M78.9861 261.317L14.6016 230.896L13.3875 233.721L77.7734 264.142L78.9861 261.317Z" fill="#8D8D8D"/>
<path fill-rule="evenodd" clip-rule="evenodd" d="M61.8749 280.358L34.7465 213.547L31.9275 214.674L59.0559 281.485L61.8749 280.358Z" fill="#8D8D8D"/>
<path fill-rule="evenodd" clip-rule="evenodd" d="M13.0735 262.695L78.9878 235.198L77.8755 232.34L11.9626 259.838L13.0735 262.695Z" fill="#8D8D8D"/>
<path fill-rule="evenodd" clip-rule="evenodd" d="M139.789 209.818C146.799 227.243 166.491 235.641 183.683 228.534C200.876 221.429 209.159 201.47 202.148 184.044C195.139 166.618 175.447 158.221 158.255 165.326C141.063 172.433 132.778 192.392 139.789 209.818ZM133.335 212.484C124.874 191.45 134.871 167.362 155.624 158.785C176.375 150.207 200.141 160.342 208.603 181.376C217.063 202.41 207.066 226.498 186.315 235.077C165.564 243.653 141.797 233.519 133.335 212.484Z" fill="#757575"/>
<path fill-rule="evenodd" clip-rule="evenodd" d="M15.7196 260.412C22.7306 277.837 42.4211 286.234 59.6138 279.128C76.8065 272.023 85.0897 252.063 78.0787 234.638C71.069 217.211 51.3775 208.814 34.1858 215.919C16.9932 223.027 8.70855 242.985 15.7196 260.412ZM9.26522 263.079C0.804285 242.045 10.8033 217.955 31.5547 209.379C52.3061 200.8 76.0714 210.936 84.5333 231.969C92.9943 253.003 82.9967 277.092 62.2453 285.671C41.495 294.246 17.7272 284.114 9.26522 263.079Z" fill="#757575"/>
<path fill-rule="evenodd" clip-rule="evenodd" d="M174.101 200.319C174.556 200.13 174.968 199.827 175.299 199.411C176.332 198.107 176.129 196.196 174.843 195.145L100.958 134.723C99.674 133.672 97.7945 133.881 96.7581 135.184C95.7245 136.49 95.9278 138.398 97.214 139.45L171.099 199.873C171.974 200.591 173.128 200.722 174.101 200.319Z" fill="#CFCFCF"/>
<path fill-rule="evenodd" clip-rule="evenodd" d="M98.9265 230.186C98.9758 229.88 98.9576 229.557 98.8586 229.244C98.549 228.265 97.5623 227.764 96.6547 228.125L44.5102 248.914C43.6029 249.275 43.1211 250.362 43.4297 251.344C43.7394 252.324 44.7274 252.826 45.6336 252.463L97.7796 231.675C98.3978 231.429 98.8198 230.844 98.9265 230.186Z" fill="#CFCFCF"/>
<path fill-rule="evenodd" clip-rule="evenodd" d="M45.8463 251.101C45.5024 251.168 45.1406 251.151 44.7861 251.037C43.6742 250.68 43.0724 249.491 43.4461 248.383L64.8636 184.663C65.2345 183.555 66.4392 182.949 67.5529 183.305C68.6662 183.663 69.2666 184.851 68.894 185.96L47.4754 249.68C47.2227 250.435 46.5821 250.959 45.8463 251.101Z" fill="#CFCFCF"/>
<path fill-rule="evenodd" clip-rule="evenodd" d="M65.8253 187.367C65.5495 187.242 65.2994 187.046 65.1024 186.784C64.4866 185.963 64.6398 184.798 65.4439 184.184L111.686 148.872C112.49 148.259 113.64 148.429 114.259 149.251C114.874 150.074 114.722 151.238 113.917 151.852L67.6755 187.162C67.1279 187.581 66.4166 187.636 65.8253 187.367Z" fill="#CFCFCF"/>
<path fill-rule="evenodd" clip-rule="evenodd" d="M96.9359 232.344C96.579 232.358 96.2127 232.282 95.8708 232.105C94.7956 231.549 94.3646 230.205 94.9104 229.101L126.196 165.637C126.74 164.535 128.054 164.093 129.129 164.647C130.204 165.202 130.634 166.548 130.089 167.651L98.8032 231.114C98.432 231.868 97.7039 232.314 96.9359 232.344Z" fill="#CFCFCF"/>
<path fill-rule="evenodd" clip-rule="evenodd" d="M61.4265 203.067C62.2274 202.74 62.8835 202.078 63.1588 201.196C63.649 199.632 62.8268 197.975 61.2712 197.46C60.893 197.336 21.2474 188.62 1.05479 219.007C0.13809 220.387 0.513514 222.251 1.89556 223.169C3.27621 224.089 5.14041 223.715 6.05991 222.329C23.6976 195.785 59.0707 203.068 59.4094 203.17C60.0959 203.373 60.8048 203.32 61.4265 203.067Z" fill="#CFCFCF"/>
<path fill-rule="evenodd" clip-rule="evenodd" d="M85.9898 151.038C99.3387 148.007 100.509 139.298 100.37 135.587C100.106 128.582 94.8979 121.52 89.6559 121.055C88.4786 120.949 87.4335 121.904 87.3366 123.188C87.24 124.471 88.1203 125.598 89.305 125.701C91.8354 125.926 95.8752 130.53 96.0725 135.776C96.2838 141.395 91.8392 145.311 83.6428 146.77C82.443 146.984 81.6772 148.179 81.871 149.45C82.0634 150.721 83.1712 151.579 84.3422 151.37C84.9108 151.27 85.4601 151.159 85.9898 151.038Z" fill="#AFAFAF"/>
<path fill-rule="evenodd" clip-rule="evenodd" d="M196.372 16.2909L157.559 27.1748L119.932 5.39648L110.361 97.3104L149.79 118.838L190.504 104.828L227.284 125.371L231.576 37.0737L196.372 16.2909Z" fill="#D0D0D0"/>
<path fill-rule="evenodd" clip-rule="evenodd" d="M114.639 94.6101L123.076 12.627L156.734 31.877L195.726 20.9245L227.298 39.3414L223.282 118.147L190.441 99.9168L149.738 113.658L114.639 94.6101Z" fill="white"/>
<path fill-rule="evenodd" clip-rule="evenodd" d="M126.465 45.9506C126.228 46.3537 125.99 46.8008 126.06 47.2721C126.206 48.228 127.484 48.5751 128.417 48.3414C129.35 48.1105 130.197 47.5419 131.161 47.5405C133.018 47.5419 134.246 49.5989 134.547 51.4368C135.311 56.1197 132.821 60.9747 134.224 65.5575C135.544 69.8691 139.791 72.4468 143.242 75.3302C144.848 76.6688 146.464 78.4802 146.242 80.5589C146.145 81.4878 145.674 82.3664 145.739 83.3048C145.866 85.0895 147.781 86.1721 148.5 87.8127C149.107 89.1954 148.793 90.7853 148.522 92.2685C147.91 95.627 147.589 99.2099 148.798 102.428C149.054 103.108 149.632 103.886 150.3 103.652C150.374 102.179 150.449 100.707 150.522 99.2379C150.632 97.0672 150.881 94.6166 152.559 93.3255C153.104 92.9063 153.768 92.6488 154.262 92.167C155.143 91.3098 155.322 89.9309 156.033 88.9232C156.713 87.9607 157.808 87.4268 158.732 86.7165C159.654 86.0066 160.477 84.8957 160.228 83.7264C159.901 82.2005 158.107 81.6561 156.757 80.914C154.502 79.6712 152.92 77.2028 150.466 76.4554C149.264 76.0884 147.979 76.1804 146.756 75.9001C145.531 75.6157 144.254 74.7508 144.136 73.4824C144.092 72.9765 144.24 72.4639 144.14 71.9646C144.041 71.4667 143.51 70.9811 143.071 71.2145C142.965 71.2708 142.88 71.3628 142.787 71.4387C141.845 72.2092 140.244 70.9755 140.478 69.7649C140.711 68.5581 142.198 67.9441 143.366 68.3234C143.981 68.5221 144.556 68.936 145.195 68.908C145.589 68.8933 145.95 68.7075 146.286 68.506C149.016 66.8643 150.817 63.8259 153.774 62.7101C154.282 62.5177 154.832 62.3792 155.237 62.0184C156.115 61.2364 155.96 59.8134 155.733 58.6238C155.497 57.3866 155.031 55.8954 153.819 55.6138C152.861 55.3909 151.982 56.077 151.055 56.3625C149.457 56.8527 147.439 55.8702 147.009 54.2069C146.11 50.7321 150.972 51.1247 152.806 50.094C153.626 49.6349 154.313 48.7392 154.125 47.7886C153.99 47.1038 153.427 46.5552 152.796 46.2564C150.495 45.1683 150.425 47.5604 148.42 47.3334C147.277 47.2014 146.624 45.7515 145.491 45.5115C145.013 45.4111 144.524 45.5461 144.04 45.4846C142.39 45.2739 141.592 43.2086 140.104 42.5641C138.263 41.767 135.992 40.8661 134.047 40.2853C130.281 39.1614 128.074 43.2355 126.465 45.9506Z" fill="#BABABA"/>
<path fill-rule="evenodd" clip-rule="evenodd" d="M154.678 44.4342C155.302 44.4818 155.615 43.7121 155.948 43.1627C156.897 41.597 158.896 41.3447 160.468 40.5498C161.437 40.0607 162.287 39.3206 162.928 38.4081C163.034 38.2594 163.139 38.0856 163.124 37.8921C163.099 37.5782 162.78 37.3819 162.495 37.3022C160.921 36.8634 159.482 38.0911 157.947 38.5565C156.817 38.8973 155.572 38.8256 154.481 39.2913C153.87 39.5519 153.289 40.0355 153.16 40.7321C153.019 41.4805 153.806 44.3639 154.678 44.4342Z" fill="#BABABA"/>
<path fill-rule="evenodd" clip-rule="evenodd" d="M165 41.3836C164.68 41.3573 164.385 41.1684 164.068 41.0988C163.546 40.9844 163.03 41.2062 162.55 41.4245C161.589 41.8629 160.63 42.3003 159.666 42.739C159.399 42.8612 159.114 42.998 158.961 43.2604C158.736 43.6438 158.87 44.1732 159.118 44.5609C159.367 44.951 159.718 45.2568 159.983 45.6326C160.947 46.9958 160.595 48.8753 160.154 50.4659C159.712 52.059 159.249 53.8808 160.071 55.3517C160.283 55.7299 160.672 56.0938 161.056 55.9689C161.363 55.8692 161.506 55.5092 161.616 55.1876C162.047 53.9266 162.662 52.533 163.877 52.1944C164.404 52.0485 164.974 52.1314 165.502 51.996C166.85 51.6559 167.526 50.0772 167.785 48.6231C168.04 47.1693 168.091 45.5892 168.894 44.4174C169.286 43.845 169.841 43.401 170.119 42.7576C170.698 41.4112 169.289 40.6849 168.405 40.2895C166.566 39.4648 166.682 41.5214 165 41.3836Z" fill="#BABABA"/>
<path fill-rule="evenodd" clip-rule="evenodd" d="M170.428 71.4049C169.229 72.24 168.131 73.3233 167.642 74.7235C167.15 76.1276 167.399 77.8872 168.526 78.8959C170.418 80.5859 173.934 79.708 175.226 81.8927C175.852 82.948 175.631 84.288 176.003 85.457C176.189 86.0381 176.529 86.6099 176.461 87.2127C176.393 87.839 175.899 88.3187 175.7 88.9132C175.137 90.5846 176.965 92.1436 177.272 93.9074C177.388 94.5645 177.297 95.2916 177.661 95.8524C178.261 96.7796 179.73 96.5687 180.443 95.7643C181.158 94.9627 181.355 93.8217 181.644 92.7731C181.932 91.7241 182.43 90.6139 183.414 90.2224C183.842 90.0527 184.332 90.0356 184.721 89.7844C185.398 89.3449 185.508 88.3708 185.411 87.5398C185.312 86.7103 185.08 85.8513 185.322 85.0655C185.978 82.9532 189.392 82.992 190.046 80.8931C187.082 80.3507 184.722 77.206 184.993 74.1609C185.92 74.2344 186.454 75.2725 186.857 76.1423C187.26 77.0107 187.982 78.0009 188.884 77.8284C189.575 77.6976 189.952 76.8799 189.867 76.157C189.783 75.4341 189.363 74.7904 188.948 74.1879C190.793 73.5129 192.977 74.1249 194.543 75.4317C196.106 76.7357 197.108 78.6486 197.67 80.6195C197.918 81.4984 198.614 82.6715 199.357 82.2251C199.684 82.0288 199.778 81.5946 199.852 81.2073C200.044 80.1905 200.32 79.1405 201.012 78.4134C201.702 77.6867 202.93 77.4128 203.731 78.0754C204.307 78.5499 204.513 79.3368 204.85 80.0089C205.188 80.6821 205.88 81.3409 206.555 81.1163C207.347 80.8532 207.365 79.7028 207.843 79.0082C208.633 77.8578 210.566 78.1223 211.335 76.9614C212.229 75.6133 210.826 73.6 211.399 72.069C211.533 71.7107 211.768 71.4087 212.02 71.1309C212.944 70.1089 214.122 69.3675 215.035 68.3413C215.945 67.3193 216.583 65.8511 216.124 64.4789C215.855 63.6748 215.233 62.9842 215.123 62.1476C214.956 60.8663 216.035 59.8684 217.092 59.2687C218.149 58.6673 219.372 58.1278 219.838 56.9773C219.936 56.737 219.999 56.4725 220.162 56.2772C220.402 55.9886 220.798 55.9137 221.147 55.787C222.48 55.3007 223.322 53.708 222.916 52.2504C222.509 50.7955 220.824 49.7588 219.489 50.2277C218.857 50.4495 218.349 50.9467 217.704 51.1349C216.08 51.6094 214.42 50.0167 212.694 49.8991C210.972 49.7802 209.408 51.1482 207.7 50.7623C206.589 50.5111 205.643 49.5493 204.516 49.4915C203.701 49.4488 202.97 49.8963 202.177 50.0555C201.383 50.2116 200.313 49.8726 200.18 49.0388C200.105 48.5752 200.351 48.0713 200.109 47.6613C199.752 47.0493 198.857 47.3621 198.313 47.7508C197.064 48.6368 195.813 49.5237 194.559 50.4149C194.13 50.7221 193.688 51.0387 193.404 51.4904C192.95 52.2157 192.785 53.6814 191.66 53.624C191.316 53.6093 190.983 53.4771 190.642 53.4036C189.478 53.159 188.328 53.624 187.261 54.082C186.712 54.3171 186.152 54.5593 185.719 54.9707C185.104 55.5557 184.816 56.4081 184.535 57.2272C183.857 59.2005 181.652 59.1991 180.43 60.7033C180.176 61.0161 179.981 61.382 179.669 61.6347C179.152 62.0528 178.427 62.0755 177.762 62.1756C175.066 62.5804 172.89 64.4631 170.859 66.2773C170.681 66.4361 170.498 66.6034 170.407 66.8277C170.133 67.5225 170.993 68.2668 171.735 68.1905C172.475 68.1128 173.044 67.5463 173.569 67.0295C174.094 66.5096 174.708 65.9781 175.453 65.9928C176.407 66.0142 177.119 66.8983 177.955 67.3969C179.066 68.0582 180.531 67.9994 181.528 67.2552C182.35 66.6408 183.101 65.552 184.111 65.8378C185.304 66.1758 185.6 68.2213 186.824 68.2839C187.35 68.3108 187.78 67.926 188.262 67.7363C189.551 67.2272 191.223 68.4816 191.16 69.9112C191.147 70.2104 191.066 70.5165 190.868 70.7303C190.44 71.1963 189.656 71.0627 189.099 70.7194C188.543 70.3748 188.085 69.8643 187.494 69.5907C186.662 69.203 185.627 69.3822 185.005 70.0221C184.7 70.3346 184.491 70.7383 184.174 71.0389C182.335 72.7743 179.357 72.1382 177.377 70.9882C174.936 69.5718 172.721 69.8122 170.428 71.4049Z" fill="#BABABA"/>
<path fill-rule="evenodd" clip-rule="evenodd" d="M205.536 82.5252C204.698 81.2929 204.228 82.5346 204.624 83.7232C204.902 84.5584 206.08 88.397 207.072 87.7175C207.434 87.4663 207.361 86.7126 207.207 86.171C206.824 84.8302 206.253 83.5819 205.536 82.5252Z" fill="#BABABA"/>
<path fill-rule="evenodd" clip-rule="evenodd" d="M212.044 85.959C212.375 85.6417 212.65 85.2617 212.851 84.8425C212.958 84.6221 213.046 84.381 213.036 84.1291C213.025 83.8775 212.896 83.6144 212.671 83.5035C211.981 83.1676 210.496 84.7421 210.268 85.339C209.8 86.5594 211.429 86.55 212.044 85.959Z" fill="#BABABA"/>
<path fill-rule="evenodd" clip-rule="evenodd" d="M207.462 89.6075C207.404 89.6422 207.343 89.6849 207.333 89.7457C207.32 89.814 207.377 89.8801 207.439 89.9291C207.832 90.2331 208.428 90.1425 208.947 90.1852C209.748 90.2492 210.489 90.6673 211.288 90.6796C211.818 90.6876 212.316 90.519 212.8 90.3489C212.913 90.3094 213.049 90.2433 213.034 90.1355C213.029 90.0907 212.998 90.0508 212.962 90.0155C212.602 89.6513 211.979 89.6177 211.431 89.5739C210.035 89.4641 208.731 88.8486 207.462 89.6075Z" fill="#BABABA"/>
<path fill-rule="evenodd" clip-rule="evenodd" d="M213.071 87.043C213.129 87.2442 213.352 87.3338 213.511 87.4678C213.77 87.6861 213.866 88.0455 214.012 88.3569C214.157 88.6676 214.438 88.9856 214.759 88.9356C215.025 88.8964 215.193 88.6252 215.444 88.5318C215.884 88.3649 216.337 88.7872 216.655 89.1672C216.962 89.5356 217.27 89.9012 217.578 90.2679C217.737 90.4576 217.923 90.6612 218.157 90.6822C218.447 90.7088 218.683 90.4299 218.728 90.1364C218.776 89.8407 218.683 89.5367 218.589 89.2473C218.455 88.8278 218.281 88.3624 217.895 88.1781C217.632 88.0559 217.332 88.0941 217.056 88.0164C216.48 87.8558 216.129 87.2523 215.661 86.8604C215.315 86.571 212.711 85.7764 213.071 87.043Z" fill="#BABABA"/>
<path fill-rule="evenodd" clip-rule="evenodd" d="M216.753 90.7651C216.359 90.5558 215.894 90.7623 215.514 90.9677C213.828 91.8802 212.136 92.7962 210.44 93.7136C210.172 93.8581 209.896 94.0099 209.697 94.2394C209.387 94.5953 209.306 95.0907 209.237 95.5624C209.085 96.5872 208.932 97.6138 208.78 98.6414C208.76 98.782 208.74 98.9304 208.798 99.0609C208.934 99.3548 209.377 99.3649 209.647 99.1963C209.917 99.0276 210.093 98.7463 210.353 98.5626C211.016 98.0952 211.957 98.3968 212.774 98.2904C213.209 98.2345 213.618 98.056 214.055 98.0217C214.493 97.9864 215.006 98.1484 215.181 98.5525C215.262 98.7414 215.257 98.9531 215.317 99.1494C215.378 99.3446 215.553 99.5423 215.755 99.5119C216.075 99.4674 216.118 98.9314 216.441 98.901C217.134 99.7071 216.967 100.903 217.356 101.884C217.399 101.997 217.456 102.114 217.558 102.182C217.792 102.339 218.091 102.158 218.291 101.975C218.955 101.362 219.495 100.633 220.032 99.9111C220.525 99.247 221.022 98.5742 221.325 97.8037C221.626 97.0333 221.715 96.1425 221.383 95.3619C221.074 94.6285 220.43 94.0621 220.121 93.3259C219.913 92.8343 219.851 92.2587 219.465 91.8774C219.35 91.7633 219.192 91.6695 219.036 91.7C218.305 91.8406 218.692 93.8427 217.66 92.9151C217.057 92.3756 217.552 91.1363 216.753 90.7651Z" fill="#BABABA"/>
<mask id="mask1_8343_9006" style="mask-type:alpha" maskUnits="userSpaceOnUse" x="117" y="0" width="29" height="43">
<path fill-rule="evenodd" clip-rule="evenodd" d="M117.011 0H145.914V42.9359H117.011V0Z" fill="white"/>
</mask>
<g mask="url(#mask1_8343_9006)">
<path fill-rule="evenodd" clip-rule="evenodd" d="M135.144 12.4735C134.729 10.4795 132.93 9.39795 130.337 9.52041C128.167 10.3853 127.456 12.0361 127.81 14.2089C128.152 16.3103 129.595 17.1633 131.785 17.3851C134.638 16.2795 135.639 14.8453 135.144 12.4735ZM130.542 41.3877C128.092 37.3111 125.56 33.2899 123.112 29.2123C121.482 26.4958 119.602 23.9305 118.292 21.0205C116.859 17.8386 116.678 14.5129 117.499 11.1376C118.294 7.86685 120.042 5.2623 122.612 3.1392C126.115 0.246692 130.125 -0.48387 134.324 0.285879C137.764 0.916723 140.708 2.78022 142.873 5.75599C144.351 7.78603 145.41 10.0127 145.761 12.5326C146.303 16.4233 145.379 20.01 143.441 23.3423C140.078 29.1235 136.716 34.9057 133.32 40.6665C132.879 41.416 132.771 42.417 131.795 42.9363C131.303 42.4937 130.907 41.9958 130.542 41.3877Z" fill="#888888"/>
</g>
<path fill-rule="evenodd" clip-rule="evenodd" d="M132.741 16.9698C135.438 15.7519 136.385 14.1711 135.917 11.5606C135.524 9.36329 133.823 8.17368 131.373 8.30699C129.321 9.26113 128.648 11.0777 128.983 13.4717C129.307 15.7844 130.671 16.7252 132.741 16.9698Z" fill="#FDFDFD"/>
<path fill-rule="evenodd" clip-rule="evenodd" d="M239.27 171.726C241.38 173.804 241.401 177.197 239.323 179.304L226.489 192.313C224.41 194.419 221.017 194.442 218.911 192.364C216.804 190.285 216.781 186.893 218.859 184.786L231.695 171.777C233.774 169.67 237.164 169.647 239.27 171.726Z" fill="#757575"/>
<path fill-rule="evenodd" clip-rule="evenodd" d="M221.763 171.726C223.87 169.647 227.262 169.67 229.341 171.777L242.177 184.786C244.255 186.893 244.231 190.285 242.125 192.364C240.018 194.442 236.624 194.419 234.546 192.313L221.711 179.304C219.633 177.197 219.656 173.804 221.763 171.726Z" fill="#757575"/>
<path fill-rule="evenodd" clip-rule="evenodd" d="M133.194 47.9535C133.122 48.733 133.289 49.7435 133.671 50.9971C133.784 51.368 134.172 51.5755 134.538 51.4611C134.904 51.3467 135.109 50.9534 134.996 50.5829C134.663 49.4898 134.524 48.6435 134.575 48.0843C134.611 47.6981 134.331 47.3559 133.949 47.3195C133.568 47.2835 133.23 47.5672 133.194 47.9535ZM136.458 57.5613C136.857 58.3577 137.289 59.1929 137.755 60.0648C137.937 60.4059 138.358 60.5333 138.695 60.3485C139.032 60.1641 139.157 59.738 138.975 59.3968C138.515 58.5358 138.088 57.7114 137.695 56.9263C137.522 56.5803 137.105 56.4421 136.763 56.6174C136.421 56.7926 136.285 57.2153 136.458 57.5613ZM142.635 68.5932C142.141 67.7742 141.662 66.9698 141.199 66.1818C141.003 65.8487 141.111 65.4177 141.44 65.2193C141.769 65.0209 142.195 65.1304 142.39 65.4635C142.851 66.2466 143.327 67.0464 143.819 67.8613C144.018 68.1923 143.915 68.6244 143.588 68.8266C143.261 69.0288 142.834 68.9242 142.635 68.5932ZM146.336 74.5672C146.833 75.3502 147.337 76.1378 147.847 76.9275C148.056 77.2522 148.486 77.3435 148.806 77.1312C149.127 76.9191 149.217 76.4839 149.007 76.1592C148.5 75.3723 147.997 74.5878 147.503 73.8076C147.295 73.4815 146.867 73.387 146.544 73.5966C146.222 73.8062 146.129 74.2407 146.336 74.5672ZM152.741 84.3231L151.69 82.7661C151.475 82.4452 151.557 82.0086 151.874 81.7906C152.19 81.5722 152.622 81.6555 152.837 81.9764C153.013 82.2377 153.188 82.4977 153.362 82.7563L154.402 84.2888C154.62 84.6079 154.541 85.0452 154.226 85.2657C153.91 85.4864 153.479 85.4063 153.261 85.0872C153.088 84.8342 152.915 84.5795 152.741 84.3231ZM157.279 90.8358L157.87 91.6532C158.253 92.178 158.611 92.6629 158.94 93.1017C159.172 93.4106 159.607 93.4708 159.912 93.236C160.217 93.0013 160.276 92.5608 160.044 92.2518L159.535 91.5678C159.182 91.0895 158.802 90.5678 158.4 90.0087C158.174 89.6952 157.74 89.6263 157.431 89.8548C157.121 90.0832 157.053 90.5227 157.279 90.8358ZM165.544 100.436C164.882 99.7723 164.229 99.104 163.585 98.4308C163.318 98.1526 163.325 97.7079 163.6 97.4378C163.874 97.1677 164.314 97.1747 164.58 97.4529C165.218 98.1194 165.865 98.781 166.521 99.4385C166.793 99.7114 166.795 100.156 166.525 100.431C166.255 100.707 165.816 100.709 165.544 100.436ZM170.616 105.283C171.304 105.91 172 106.532 172.704 107.151C172.993 107.405 173.431 107.373 173.682 107.08C173.933 106.787 173.902 106.344 173.612 106.089C172.915 105.477 172.225 104.86 171.544 104.239C171.259 103.979 170.82 104.003 170.564 104.291C170.308 104.579 170.331 105.023 170.616 105.283ZM180.273 113.399C179.534 112.825 178.802 112.247 178.078 111.665C177.778 111.423 177.728 110.982 177.966 110.678C178.204 110.374 178.64 110.323 178.94 110.564C179.659 111.142 180.385 111.715 181.117 112.284C181.421 112.52 181.479 112.961 181.246 113.269C181.013 113.577 180.577 113.635 180.273 113.399ZM185.872 117.57L186.358 117.916C186.955 118.34 187.555 118.76 188.159 119.178C188.475 119.397 188.906 119.315 189.123 118.995C189.339 118.675 189.258 118.238 188.941 118.019L188.045 117.394L186.672 116.422C186.359 116.198 185.926 116.274 185.705 116.591C185.484 116.908 185.559 117.346 185.872 117.57ZM194.848 123.603L193.974 123.047C193.651 122.84 193.554 122.406 193.759 122.078C193.963 121.75 194.391 121.652 194.715 121.86C195.292 122.228 195.872 122.595 196.455 122.96L197.063 123.338C197.389 123.54 197.492 123.972 197.292 124.303C197.092 124.634 196.665 124.738 196.338 124.535C196.13 124.406 195.927 124.28 195.727 124.155L194.848 123.603ZM202.275 128.169L203.891 129.169C204.144 129.326 204.39 129.481 204.632 129.633C204.958 129.838 205.385 129.737 205.588 129.408C205.79 129.078 205.69 128.645 205.365 128.44L204.232 127.732C203.839 127.488 203.429 127.235 202.994 126.968C202.667 126.767 202.24 126.872 202.041 127.204C201.843 127.536 201.947 127.967 202.275 128.169ZM212.603 135.119C211.894 134.57 211.158 134.022 210.389 133.471C210.077 133.247 210.003 132.808 210.224 132.492C210.445 132.176 210.878 132.1 211.191 132.325C211.973 132.885 212.723 133.444 213.446 134.003C213.75 134.239 213.808 134.68 213.575 134.988C213.342 135.296 212.907 135.355 212.603 135.119ZM217.792 139.663C218.325 140.198 218.838 140.74 219.333 141.29L219.658 141.657C219.911 141.948 220.35 141.975 220.637 141.718C220.924 141.461 220.951 141.017 220.697 140.727L220.359 140.344C219.848 139.776 219.318 139.217 218.769 138.666C218.497 138.393 218.057 138.395 217.788 138.67C217.518 138.946 217.52 139.391 217.792 139.663ZM224.867 149.689C224.489 148.865 224.072 148.049 223.619 147.249C223.429 146.912 223.544 146.483 223.876 146.29C224.208 146.097 224.632 146.214 224.822 146.551C225.295 147.386 225.73 148.237 226.125 149.098C226.286 149.45 226.135 149.867 225.788 150.031C225.44 150.194 225.028 150.041 224.867 149.689ZM226.981 156.218C227.153 157.124 227.273 158.027 227.339 158.921C227.368 159.308 227.701 159.597 228.083 159.568C228.464 159.539 228.751 159.202 228.722 158.815C228.652 157.867 228.525 156.912 228.343 155.953C228.271 155.572 227.907 155.322 227.531 155.396C227.155 155.469 226.908 155.837 226.981 156.218ZM226.056 167.771C226.33 167.083 226.561 166.38 226.751 165.663C226.851 165.289 227.231 165.067 227.601 165.167C227.971 165.267 228.19 165.653 228.091 166.027C227.887 166.798 227.637 167.555 227.342 168.296C227.199 168.656 226.795 168.83 226.44 168.685C226.085 168.54 225.913 168.131 226.056 167.771Z" fill="#757575"/>
<path fill-rule="evenodd" clip-rule="evenodd" d="M37.6307 128.827C35.5758 128.827 33.9051 130.521 33.9051 132.602C33.9051 134.684 35.5758 136.377 37.6307 136.377C39.6856 136.377 41.3559 134.684 41.3559 132.602C41.3559 130.521 39.6856 128.827 37.6307 128.827ZM37.6307 136.938C35.2718 136.938 33.3523 134.994 33.3523 132.602C33.3523 130.212 35.2718 128.266 37.6307 128.266C39.9896 128.266 41.9087 130.212 41.9087 132.602C41.9087 134.994 39.9896 136.938 37.6307 136.938Z" fill="#BABABA"/>
<path fill-rule="evenodd" clip-rule="evenodd" d="M285.766 329.191C285.766 331.587 283.849 333.526 281.487 333.526C279.125 333.526 277.208 331.587 277.208 329.191C277.208 326.794 279.125 324.855 281.487 324.855C283.849 324.855 285.766 326.794 285.766 329.191Z" fill="#CCCCCC"/>
<path fill-rule="evenodd" clip-rule="evenodd" d="M285.766 342.194C285.766 344.591 283.849 346.533 281.487 346.533C279.125 346.533 277.208 344.591 277.208 342.194C277.208 339.798 279.125 337.859 281.487 337.859C283.849 337.859 285.766 339.798 285.766 342.194Z" fill="#CCCCCC"/>
<path fill-rule="evenodd" clip-rule="evenodd" d="M285.766 355.212C285.766 357.609 283.849 359.551 281.487 359.551C279.125 359.551 277.208 357.609 277.208 355.212C277.208 352.819 279.125 350.877 281.487 350.877C283.849 350.877 285.766 352.819 285.766 355.212Z" fill="#CCCCCC"/>
<path fill-rule="evenodd" clip-rule="evenodd" d="M253.126 319.591C251.838 319.528 243.717 317.565 240.677 316.575C241.667 312.509 242.657 308.433 243.679 304.231C243.864 304.147 244.032 303.993 244.161 304.025C247.979 304.952 251.792 305.896 255.603 306.862C255.785 306.908 255.918 307.149 256.107 307.331C255.109 311.428 254.116 315.511 253.126 319.591ZM248.623 337.995C247.391 337.942 239.109 335.941 236.198 334.979C237.188 330.906 238.182 326.83 239.211 322.593C243.371 323.643 247.447 324.668 251.607 325.717C250.61 329.832 249.616 333.912 248.623 337.995ZM247.048 344.881C246.107 348.743 245.169 352.61 244.214 356.542C239.998 355.479 235.89 354.443 231.699 353.39C232.664 349.419 233.63 345.455 234.606 341.441C235.117 340.906 235.603 341.193 236.069 341.308C239.609 342.194 243.15 343.089 246.67 343.974C246.894 344.254 247.146 344.489 247.048 344.881ZM227.606 332.827C223.532 331.802 219.528 330.791 215.468 329.769C216.473 325.633 217.463 321.561 218.472 317.415C222.517 318.436 226.522 319.444 230.611 320.473C229.621 324.545 228.63 328.615 227.606 332.827ZM223.236 351.091C223.174 351.13 223.128 351.161 223.077 351.186C223.03 351.207 222.972 351.238 222.929 351.231C219.002 350.241 215.075 349.254 210.923 348.208C211.306 346.634 211.662 345.168 212.019 343.705C212.471 341.844 212.924 339.982 213.375 338.124C213.532 337.484 213.783 336.851 213.472 336.267C213.892 335.801 214.287 335.808 214.757 335.927C218.516 336.893 222.28 337.831 225.997 338.768C226.059 338.873 226.094 338.919 226.115 338.971C226.133 339.017 226.155 339.076 226.145 339.122C225.177 343.117 224.205 347.109 223.236 351.091ZM207.386 308.23C204.61 307.53 201.848 306.834 199.096 306.141C199.093 304.962 201.101 296.373 202.009 293.727C204.788 294.431 207.579 295.134 210.389 295.841C211.621 296.152 212.848 296.46 214.093 296.775C213.1 300.858 212.109 304.931 211.081 309.161C209.839 308.846 208.616 308.538 207.386 308.23ZM222.59 299.074C222.903 298.731 223.236 298.682 223.657 298.79C227.202 299.696 230.75 300.589 234.298 301.474C234.652 301.561 234.907 301.715 235.096 302.146C234.12 306.145 233.126 310.232 232.111 314.406C227.993 313.366 223.882 312.331 219.627 311.26C220.632 307.121 221.614 303.087 222.59 299.074ZM274.227 300.736C274.07 300.683 273.912 300.624 273.751 300.585C246.569 293.734 219.382 286.891 192.197 280.047L188.275 297.44C190.912 299.182 193.312 301.197 195.337 303.678C197.14 305.886 198.708 308.216 199.745 310.9C200.002 311.568 200.306 312.215 200.588 312.873C202.363 313.321 204.144 313.769 205.935 314.22C207.161 314.528 208.39 314.836 209.635 315.151C208.629 319.283 207.64 323.352 206.61 327.586C205.388 327.285 204.151 326.981 202.916 326.676C202.562 326.589 202.21 326.501 201.856 326.414C201.459 327.236 201.582 328.149 201.455 329.017C201.282 330.185 200.548 331.151 200.422 332.32C200.777 332.411 201.128 332.498 201.484 332.589C202.681 332.89 203.88 333.191 205.066 333.488C204.937 334.947 202.991 343.201 202.116 346.004C200.899 345.696 199.676 345.388 198.455 345.08C196.684 344.636 194.916 344.191 193.143 343.744C191.311 345.427 189.306 346.865 187.132 348.051C184.328 349.583 181.384 350.706 178.215 351.165C177.499 351.27 176.788 351.403 176.075 351.529L175.958 352.057C176.082 352.253 176.24 352.438 176.257 352.68C176.895 352.862 177.53 353.065 178.173 353.225C183.924 354.674 189.676 356.123 195.428 357.571C214.667 362.42 233.906 367.266 253.143 372.116C253.682 372.252 254.21 372.41 254.746 372.557C256.516 372.091 257.52 370.912 257.95 369.124C259.294 363.537 260.662 357.952 262.02 352.368C264.402 342.568 266.789 332.768 269.168 322.967C269.315 322.366 269.441 321.76 269.574 321.155L274.357 301.421C274.049 301.246 274.203 300.977 274.227 300.736Z" fill="#CFCFCF"/>
<path fill-rule="evenodd" clip-rule="evenodd" d="M259.746 274.889C263.269 275.802 276.547 278.612 277.327 279.164C277.051 279.535 277.289 279.815 277.52 280.039C278.682 281.173 278.825 282.537 278.454 284.045C277.758 286.883 277.083 289.727 276.386 292.568C275.638 295.623 274.875 298.674 274.116 301.728C274.021 301.69 273.927 301.676 273.829 301.686C273.671 301.634 273.517 301.575 273.356 301.533C246.195 294.657 219.033 287.782 191.872 280.91C191.564 280.725 191.636 280.466 191.705 280.176C193.08 274.519 194.41 268.846 195.843 263.204C196.246 261.622 197.14 260.307 198.864 259.867C199.309 259.753 201.218 259.807 202.062 260.019C205.609 260.915 209.157 261.813 212.706 262.71C212.967 263.258 212.783 263.789 212.652 264.326C212.164 266.336 211.672 268.345 211.203 270.361C211.105 270.786 210.943 271.199 211.032 271.67C211.308 273.15 211.624 274.603 212.712 275.728C212.378 276.337 212.667 276.922 212.787 277.513C213.302 280.06 215.896 281.162 217.918 280.819C220.336 280.403 221.641 278.486 221.677 276.215C221.704 274.564 221.061 272.955 219.467 272.205C218.417 271.711 217.255 271.377 216.095 271.59C215.946 271.618 215.8 271.654 215.654 271.699C215.586 271.72 215.517 271.751 215.446 271.766C215.413 271.772 215.382 271.771 215.351 271.784C215.307 271.802 215.27 271.847 215.24 271.882C215.227 271.898 215.145 271.991 215.156 272.013C215.092 271.878 215.059 271.729 215.058 271.578C215.058 271.515 215.063 271.457 215.053 271.393C215.021 271.186 215.153 270.97 215.199 270.774C215.727 268.533 216.277 266.299 216.821 264.063C218.237 264.407 219.655 264.752 221.071 265.097C222.43 265.529 223.809 265.884 225.21 266.139C225.791 266.308 226.367 266.495 226.952 266.644C233.788 268.393 240.628 270.135 247.465 271.879C246.926 274.123 246.377 276.365 245.859 278.612C245.733 279.143 245.635 279.668 245.659 280.256C245.733 281.862 246.349 283.213 247.206 284.493C246.926 285.235 247.202 285.956 247.412 286.617C248.235 289.206 251.425 290.182 253.164 289.482C255.162 288.678 256.464 286.809 256.306 284.626C256.194 283.073 255.456 281.649 254.032 280.963C253.255 280.592 252.423 280.305 251.558 280.273C251.058 280.256 250.519 280.312 250.047 280.497C249.949 280.539 249.9 280.616 249.865 280.714C249.816 280.837 249.767 281.075 249.84 281.201C249.697 280.963 249.55 280.707 249.543 280.427C249.54 280.312 249.561 280.196 249.592 280.088C249.606 280.039 249.617 280.004 249.62 279.959C249.638 279.812 249.708 279.679 249.743 279.539C250.271 277.299 250.82 275.063 251.362 272.827" fill="#757575"/>
<path fill-rule="evenodd" clip-rule="evenodd" d="M201.45 325.522C201.481 325.032 201.51 324.539 201.539 324.049C201.579 323.493 201.603 322.933 201.61 322.37C201.653 320.974 201.636 319.581 201.444 318.189C201.197 316.404 200.896 314.63 200.284 312.923C200.214 312.727 200.229 312.496 200.206 312.279C199.929 311.639 199.631 311.005 199.378 310.351C198.36 307.73 196.821 305.449 195.052 303.29C192.979 300.764 190.518 298.724 187.8 296.971C186.681 296.499 185.56 296.034 184.538 295.358C184.252 295.264 183.959 295.187 183.668 295.11C182.707 294.722 181.724 294.382 180.716 294.102C180.714 294.099 180.711 294.099 180.707 294.099C180.369 293.899 179.922 293.784 179.53 293.798C178.504 293.56 177.458 293.375 176.392 293.249C176.361 293.242 176.329 293.231 176.297 293.224C175.868 293.168 175.441 293.067 175.012 293.06C174.582 293.049 174.154 293.06 173.727 293.067C173.519 293.063 173.312 293.053 173.104 293.053C157.354 293.053 144.587 305.995 144.587 321.964C144.587 337.926 157.354 350.871 173.104 350.871C186.379 350.871 197.536 341.673 200.713 329.224C200.861 328.85 200.996 328.472 201.056 328.066C201.092 327.824 201.109 327.579 201.121 327.335C201.218 326.817 201.299 326.295 201.368 325.767C201.396 325.687 201.412 325.603 201.45 325.522Z" fill="#757575"/>
<path fill-rule="evenodd" clip-rule="evenodd" d="M225.079 265.316C223.609 265.054 222.165 264.69 220.74 264.247C221.075 262.893 221.41 261.541 221.795 259.982C221.625 259.76 221.41 259.405 221.121 259.124C220.437 258.465 219.7 258.076 218.657 258.376C217.695 258.652 217.261 259.256 217.047 260.145C216.8 261.162 216.539 262.174 216.282 263.186C215.777 265.223 215.264 267.257 214.768 269.295C214.7 269.576 214.644 269.862 214.561 270.14C214.538 270.217 214.518 270.298 214.504 270.377C214.477 270.54 214.465 270.703 214.474 270.867C214.492 271.224 214.594 271.578 214.774 271.888C214.853 272.022 214.951 272.142 215.032 272.275C215.1 272.386 215.193 272.463 215.3 272.536C215.517 272.679 215.758 272.782 216 272.877C218.065 273.665 218.358 274.324 217.569 276.433C217.369 276.573 217.141 276.752 216.894 276.895C216.696 277.011 216.474 277.081 216.311 277.147C213.908 276.72 213.822 276.682 211.975 275.148C210.833 273.994 210.5 272.504 210.211 270.987C210.119 270.504 210.289 270.08 210.392 269.644C210.883 267.578 211.399 265.516 211.912 263.456C212.048 262.905 212.843 259.087 213.365 257.773C214.018 256.134 215.33 255.025 216.998 254.428C221.422 252.839 226.013 256.095 225.868 260.948C225.822 262.471 225.435 263.877 225.079 265.316Z" fill="#AFAFAF"/>
<path fill-rule="evenodd" clip-rule="evenodd" d="M247.464 283.9C246.565 282.584 245.917 281.199 245.84 279.554C245.812 278.952 245.917 278.413 246.047 277.868C246.592 275.562 247.17 273.262 247.737 270.96C248.125 269.384 248.517 267.807 248.814 266.613C250.277 264.031 252.236 262.826 255.112 262.697C255.606 262.819 256.407 262.981 257.184 263.218C258.408 263.59 259.381 264.279 260.137 265.363C261.589 267.437 261.837 269.648 261.169 272.028C260.983 272.699 260.815 273.375 260.637 274.048L256.61 273.076C256.809 272.293 257.086 271.244 257.233 270.449C257.645 268.187 256.323 266.794 254.112 267.126C253.576 267.16 252.75 268.222 252.684 268.505C252.408 269.648 252.117 270.79 251.83 271.932C251.26 274.226 250.683 276.517 250.126 278.816C250.091 278.956 250.032 279.089 249.997 279.229C249.976 279.306 249.986 279.39 249.962 279.463C249.948 279.516 249.923 279.558 249.913 279.614C249.892 279.733 249.909 279.858 249.948 279.97C250.004 280.135 250.098 280.278 250.196 280.425C250.305 280.59 250.406 280.772 250.532 280.926C250.658 281.076 250.798 281.216 250.917 281.373C252.044 281.741 253.3 281.975 253.625 283.469C253.611 283.599 253.615 283.774 253.576 283.942C253.188 285.674 252.478 286.062 250.732 285.705C249.43 285.439 248.503 284.585 247.464 283.9Z" fill="#AFAFAF"/>
<path fill-rule="evenodd" clip-rule="evenodd" d="M241.88 302.671C242.087 302.58 242.279 302.405 242.426 302.44C246.754 303.483 251.079 304.543 255.4 305.628C255.603 305.677 255.757 305.949 255.97 306.156C254.84 310.757 253.713 315.344 252.59 319.927C251.128 319.854 241.919 317.65 238.476 316.54C239.595 311.974 240.722 307.394 241.88 302.671Z" fill="#BABABA"/>
<path fill-rule="evenodd" clip-rule="evenodd" d="M238.92 321.955C243.158 323.04 247.307 324.1 251.541 325.181C250.526 329.429 249.515 333.641 248.504 337.857C247.248 337.805 238.819 335.737 235.855 334.743C236.863 330.541 237.871 326.329 238.92 321.955Z" fill="#BABABA"/>
<path fill-rule="evenodd" clip-rule="evenodd" d="M234.542 341.082C235.064 340.533 235.561 340.826 236.033 340.945C239.647 341.859 243.262 342.786 246.855 343.699C247.082 343.986 247.338 344.227 247.243 344.633C246.281 348.618 245.322 352.607 244.346 356.662C240.046 355.567 235.855 354.497 231.575 353.408C232.562 349.311 233.545 345.225 234.542 341.082Z" fill="#F6F6F6"/>
<path fill-rule="evenodd" clip-rule="evenodd" d="M197.545 337.202C196.307 339.325 194.593 341.047 193.072 342.933C195.939 343.65 198.805 344.367 201.658 345.081C202.495 342.415 204.357 334.57 204.481 333.185C203.009 332.818 201.522 332.447 200.037 332.072C199.228 333.794 198.508 335.55 197.545 337.202Z" fill="#F6F6F6"/>
<path fill-rule="evenodd" clip-rule="evenodd" d="M236.233 301.046C236.02 300.567 235.733 300.392 235.334 300.294C231.321 299.307 227.308 298.314 223.299 297.299C223.181 297.271 223.067 297.25 222.959 297.243C222.852 297.24 222.749 297.247 222.65 297.271C222.451 297.317 222.27 297.425 222.092 297.617C220.989 302.096 219.878 306.602 218.74 311.224C219.645 311.448 220.524 311.669 221.419 311.889C225.281 312.851 229.08 313.796 232.86 314.737C234.011 310.073 235.134 305.514 236.233 301.046Z" fill="#BABABA"/>
<path fill-rule="evenodd" clip-rule="evenodd" d="M225.838 338.19C225.827 338.162 225.812 338.137 225.793 338.106C225.775 338.074 225.749 338.036 225.718 337.983C224.76 337.742 223.792 337.497 222.83 337.252C219.942 336.524 217.04 335.793 214.135 335.044C213.894 334.981 213.67 334.95 213.454 334.992C213.237 335.037 213.027 335.153 212.81 335.394C212.891 335.548 212.934 335.699 212.953 335.856C213.008 336.325 212.831 336.818 212.712 337.315C212.245 339.239 211.779 341.164 211.313 343.088C210.946 344.6 210.578 346.118 210.185 347.745C211.253 348.018 212.309 348.284 213.353 348.546C215.442 349.075 217.486 349.593 219.517 350.103C220.532 350.359 221.544 350.614 222.555 350.87C222.601 350.884 222.66 350.845 222.709 350.824C222.741 350.81 222.776 350.786 222.808 350.765C222.83 350.754 222.848 350.744 222.873 350.726C223.872 346.608 224.872 342.479 225.869 338.347C225.878 338.309 225.859 338.26 225.843 338.218C225.839 338.207 225.84 338.197 225.838 338.19Z" fill="#F6F6F6"/>
<path fill-rule="evenodd" clip-rule="evenodd" d="M210.643 309.878C211.347 310.05 212.045 310.221 212.756 310.393C213.956 305.599 215.112 300.981 216.27 296.352C211.507 295.187 206.836 294.043 202.173 292.898C201.115 295.893 198.772 305.634 198.776 306.971C199.43 307.132 200.091 307.293 200.745 307.454C204.025 308.255 207.318 309.063 210.643 309.878Z" fill="#BABABA"/>
<path fill-rule="evenodd" clip-rule="evenodd" d="M273.833 300.68C273.777 300.914 273.721 301.145 273.665 301.379C273.329 301.187 273.493 300.897 273.521 300.634C273.63 300.624 273.735 300.638 273.833 300.68Z" fill="#DFDFDF"/>
<path fill-rule="evenodd" clip-rule="evenodd" d="M247.373 283.932C248.29 284.545 249.108 285.311 250.256 285.549C251.795 285.867 252.422 285.521 252.768 283.967C252.8 283.82 252.796 283.663 252.807 283.544C252.52 282.207 251.414 281.994 250.42 281.668C250.109 281.252 249.63 280.934 249.868 280.314C251.204 279.779 252.52 280.122 253.702 280.685C255.018 281.315 255.704 282.624 255.809 284.055C255.952 286.06 254.745 287.777 252.894 288.519C251.285 289.163 248.325 288.264 247.562 285.885C247.369 285.276 247.114 284.615 247.373 283.932Z" fill="#CFCFCF"/>
<path fill-rule="evenodd" clip-rule="evenodd" d="M213.183 275.269C214.836 276.655 214.913 276.69 217.063 277.078C217.209 277.015 217.408 276.952 217.584 276.847C217.806 276.721 218.009 276.557 218.189 276.431C218.895 274.524 218.632 273.928 216.785 273.216C216.51 273.11 216.232 272.986 216.005 272.791C215.878 272.681 215.767 272.542 215.701 272.385C215.674 272.318 215.672 272.262 215.628 272.204C215.577 272.138 215.529 272.069 215.507 271.987C215.457 271.8 215.597 271.629 215.775 271.585C215.947 271.544 216.111 271.483 216.283 271.448C216.505 271.403 216.731 271.377 216.957 271.372C217.849 271.35 218.717 271.629 219.519 272.003C221.014 272.698 221.617 274.19 221.593 275.721C221.559 277.823 220.335 279.604 218.067 279.985C216.169 280.307 213.736 279.286 213.252 276.92C213.14 276.375 212.87 275.834 213.183 275.269Z" fill="#CFCFCF"/>
<path fill-rule="evenodd" clip-rule="evenodd" d="M184.456 312.36C184.464 312.203 184.404 312.087 184.303 312C184.404 312.087 184.464 312.203 184.456 312.36ZM179.481 298.124C167.222 294.887 154.093 302.546 150.989 315.45C147.93 328.165 155.15 341.065 168.113 344.34C180.955 347.59 193.401 339.882 196.621 327.017C199.916 313.854 191.671 301.091 179.481 298.124Z" fill="white"/>
<path fill-rule="evenodd" clip-rule="evenodd" d="M283.94 281.96C283.636 281.362 283.265 280.809 282.828 280.372C281.932 279.952 281.015 279.76 280.112 279.532C279.112 279.28 278.101 279.067 277.163 278.602C276.89 278.965 277.124 279.245 277.355 279.469C278.503 280.592 278.646 281.943 278.279 283.437C277.59 286.254 276.921 289.074 276.229 291.89C275.487 294.92 263.608 344.048 261.6 352.343C260.253 357.903 258.895 363.459 257.569 369.026C257.142 370.807 256.145 371.983 254.392 372.441C254.392 372.829 254.697 372.829 254.949 372.896C256.334 373.249 257.723 373.662 259.126 373.949C259.767 374.082 260.218 373.942 260.813 373.711C261.187 373.564 261.509 373.445 261.824 373.179C262.65 372.483 263.164 371.514 263.395 370.454C263.965 367.829 282.425 291.768 284.052 285.043C284.119 284.77 284.175 284.494 284.245 284.224C284.451 283.426 284.308 282.674 283.94 281.96Z" fill="#AFAFAF"/>
<path fill-rule="evenodd" clip-rule="evenodd" d="M188.604 290.999C188.901 291.195 188.784 291.471 188.694 291.702C188.337 292.615 188.534 293.725 187.777 294.494C186.746 294.235 185.715 293.98 184.684 293.718C181.998 293.039 179.312 292.356 176.628 291.674C175.47 291.342 174.31 291.006 173.108 290.656C173.378 289.526 173.628 288.487 173.919 287.266C178.796 288.504 183.7 289.75 188.604 290.999Z" fill="#757575"/>
<path fill-rule="evenodd" clip-rule="evenodd" d="M176.468 291.609C179.149 292.302 181.832 292.998 184.514 293.695L183.971 295.944C182.732 295.514 176.966 294.055 175.958 293.782C176.129 293.058 176.298 292.334 176.468 291.609Z" fill="#AFAFAF"/>
<path fill-rule="evenodd" clip-rule="evenodd" d="M155.995 317.623C155.995 318.421 155.357 319.068 154.569 319.068C153.782 319.068 153.143 318.421 153.143 317.623C153.143 316.825 153.782 316.178 154.569 316.178C155.357 316.178 155.995 316.825 155.995 317.623Z" fill="#AFAFAF"/>
<path fill-rule="evenodd" clip-rule="evenodd" d="M193.072 327.744C193.072 328.542 192.434 329.189 191.646 329.189C190.859 329.189 190.22 328.542 190.22 327.744C190.22 326.946 190.859 326.299 191.646 326.299C192.434 326.299 193.072 326.946 193.072 327.744Z" fill="#AFAFAF"/>
<path fill-rule="evenodd" clip-rule="evenodd" d="M170.254 342.205C170.254 343.003 169.616 343.65 168.829 343.65C168.041 343.65 167.402 343.003 167.402 342.205C167.402 341.407 168.041 340.76 168.829 340.76C169.616 340.76 170.254 341.407 170.254 342.205Z" fill="#AFAFAF"/>
<path fill-rule="evenodd" clip-rule="evenodd" d="M178.81 303.172C178.81 303.969 178.172 304.617 177.384 304.617C176.596 304.617 175.958 303.969 175.958 303.172C175.958 302.374 176.596 301.727 177.384 301.727C178.172 301.727 178.81 302.374 178.81 303.172Z" fill="#AFAFAF"/>
<path fill-rule="evenodd" clip-rule="evenodd" d="M163.8 308.952L161.698 305.299L162.449 304.617L164.551 308.27L163.8 308.952Z" fill="#8D8D8D"/>
<path fill-rule="evenodd" clip-rule="evenodd" d="M185.056 313.298L188.795 311.321L188.255 310.404L184.517 312.381L185.056 313.298Z" fill="#8D8D8D"/>
<path fill-rule="evenodd" clip-rule="evenodd" d="M159.883 329.186L155.993 330.05L156.38 330.631L160.271 329.766L159.883 329.186Z" fill="#8D8D8D"/>
<path fill-rule="evenodd" clip-rule="evenodd" d="M179.751 336.416L181.663 340.233L180.725 340.751L178.811 336.934L179.751 336.416Z" fill="#8D8D8D"/>
<path fill-rule="evenodd" clip-rule="evenodd" d="M177.385 308.947L170.712 320.119L170.73 320.126C170.432 320.605 170.255 321.172 170.255 321.781C170.255 323.475 171.585 324.85 173.225 324.85C174.866 324.85 176.194 323.475 176.194 321.781C176.194 321.778 176.192 321.771 176.192 321.764L177.385 308.947Z" fill="#757575"/>
</svg>
