<svg width="132" height="38" viewBox="0 0 132 38" fill="none" xmlns="http://www.w3.org/2000/svg">
<path d="M9.55051 3.02923C6.78398 3.56717 5.30465 5.44994 5.30465 8.4278V9.5421H3.86375H2.42285V11.0791V12.5968L3.80612 12.6544L5.20859 12.7121L5.30465 19.8205L5.40071 26.929H7.70616H10.0116L10.0692 19.7629L10.1077 12.5968L11.587 12.6544L13.0471 12.7121L15.7368 19.686L18.4265 26.66L16.9663 31.2133C16.1402 33.7108 15.487 35.8241 15.487 35.901C15.487 35.9971 16.5629 36.0547 17.8693 36.0547C19.9634 36.0547 20.2708 36.0163 20.3861 35.7089C20.4437 35.536 21.7309 32.001 23.2103 27.8896C24.6896 23.759 26.7453 18.0146 27.8019 15.0944C28.8394 12.1934 29.7039 9.75343 29.7039 9.67659C29.7039 9.59974 28.6088 9.56131 27.264 9.58053L24.8049 9.63816L22.9989 15.4402C21.9807 18.6486 21.1161 21.2614 21.0585 21.2614C21.0009 21.2614 20.0595 18.6294 18.9644 15.4018L16.9471 9.5421H13.5274H10.1077V8.48544C10.1077 7.60169 10.1845 7.33272 10.588 6.94848C10.9914 6.52581 11.222 6.46818 12.317 6.46818H13.5658V4.75831V3.06765L12.3939 2.93317C10.9914 2.79868 10.6648 2.79868 9.55051 3.02923Z" fill="black"/>
<path d="M105.591 7.14064C105.591 9.52293 105.572 11.4633 105.533 11.4633C105.495 11.4633 105.072 11.0791 104.592 10.618C102.267 8.38942 97.9828 8.48548 95.4084 10.8101C94.4093 11.7131 93.5256 13.1156 93.0453 14.5949C92.5266 16.2279 92.4881 19.7053 92.9877 21.3575C94.102 25.0655 96.4074 27.1019 99.7311 27.3517C101.883 27.5246 103.401 27.0635 104.726 25.8339L105.764 24.8925L105.821 25.9108L105.879 26.929H108.088H110.298L110.355 14.8639L110.394 2.81794H107.992H105.591V7.14064ZM103.401 13.0003C104.4 13.4998 105.091 14.4796 105.495 15.9782C106.206 18.7447 105.475 22.03 103.881 23.1635C102.44 24.2009 100.135 24.0088 98.9242 22.76C97.7715 21.5689 97.4256 20.4738 97.4256 18.0915C97.4256 16.3624 97.5025 15.8245 97.8291 15.1136C98.3094 14.1146 99.1163 13.2501 99.9232 12.885C100.807 12.5008 102.459 12.5584 103.401 13.0003Z" fill="black"/>
<path d="M112.508 14.9218V27.0254H114.813H117.119V24.0091V20.9928L118.118 20.0706L119.117 19.1485L119.904 20.4165C120.327 21.1081 121.403 22.8564 122.306 24.2973L123.939 26.9293L126.782 26.987C128.339 27.0062 129.607 26.987 129.607 26.9485C129.607 26.8909 128.012 24.4318 126.052 21.4539C124.093 18.476 122.498 15.9785 122.498 15.9016C122.498 15.8056 123.939 14.3455 125.687 12.6356L128.857 9.54245L126.014 9.56166L123.17 9.58087L120.289 12.5779C118.713 14.2302 117.349 15.6134 117.272 15.6519C117.176 15.6903 117.119 12.8277 117.119 9.27348V2.81824H114.813H112.508V14.9218Z" fill="black"/>
<path d="M34.8718 9.59952C31.4905 10.7715 29.3964 13.7109 29.1658 17.5533C28.9929 20.6849 29.7038 22.875 31.4713 24.8154C33.8151 27.3899 38.33 28.1776 41.961 26.6214C43.1714 26.0834 44.7276 24.5273 45.4384 23.1056C45.765 22.4332 46.034 21.8376 46.034 21.7607C46.034 21.7031 45.1118 21.6455 43.9783 21.6455L41.9034 21.6647L41.5192 22.2602C40.2127 24.3351 35.9861 24.3544 34.6221 22.2795C34.1418 21.5686 33.6615 19.8011 33.8536 19.4937C33.9112 19.3977 36.7546 19.34 40.1935 19.34H46.4182V18.3218C46.399 14.6523 44.497 11.2902 41.6537 9.8877C40.4817 9.31134 40.2127 9.25371 38.2531 9.19607C36.4472 9.15764 35.9477 9.21528 34.8718 9.59952ZM39.1177 12.8079C40.0014 13.0577 40.9428 14.0375 41.327 15.0942C41.8266 16.5351 42.0379 16.4582 37.792 16.4582C35.6787 16.4582 33.9112 16.3814 33.8536 16.2853C33.7959 16.2085 33.8344 15.8434 33.9304 15.4976C34.5452 13.3459 36.8314 12.1739 39.1177 12.8079Z" fill="black"/>
<path d="M55.7744 9.4275C54.7561 9.79253 53.6226 10.5802 53.1231 11.2719C52.8734 11.5792 52.6236 11.8482 52.5275 11.8482C52.4507 11.8482 52.3738 11.3295 52.3738 10.6955V9.54278H50.1645H47.9551V18.2842V27.0449L50.3182 26.9873L52.662 26.9296L52.7581 21.07C52.8349 16.0941 52.9118 15.1143 53.1807 14.634C53.8724 13.3852 54.8714 12.8088 56.3699 12.8088C57.5611 12.8088 58.5025 13.3275 58.9828 14.2689C59.367 14.9606 59.3862 15.4409 59.4823 20.9739L59.5783 26.9296H61.8838H64.1892V20.3976C64.1892 14.6532 64.1508 13.731 63.8434 12.7512C63.3631 11.2142 62.0759 9.88859 60.6542 9.46593C59.3862 9.1009 56.7734 9.08169 55.7744 9.4275Z" fill="black"/>
<path d="M70.4908 9.44615C67.5129 10.2723 66.3218 11.7324 66.3026 14.4797C66.3026 15.9206 66.341 16.1127 66.8789 16.862C67.6666 17.9763 68.973 18.6103 71.9701 19.3211C75.0633 20.0704 75.9854 20.397 76.6194 21.0118C77.215 21.5881 77.2919 22.1645 76.8692 22.9714C76.216 24.2394 73.4494 24.6621 71.778 23.7399C71.0672 23.3556 70.8366 23.1059 70.5292 22.2606L70.145 21.2615H67.9932H65.8223V21.7995C65.8223 23.4133 67.1479 25.3729 68.877 26.3143C71.4514 27.7168 76.1199 27.7552 78.8288 26.3911C80.8461 25.3537 81.8067 23.8167 81.8259 21.5689C81.8643 18.5142 80.4426 17.3999 74.9096 16.1896C71.4514 15.4211 70.51 14.691 71.1056 13.2501C71.413 12.5393 72.1815 12.2319 73.68 12.2319C75.4475 12.2511 76.4081 12.8467 76.85 14.1915C76.946 14.4989 77.2342 14.5373 79.1939 14.5373H81.4224L81.288 13.8265C80.9421 11.9437 79.6549 10.4452 77.7337 9.6959C76.3505 9.15796 72.047 9.00427 70.4908 9.44615Z" fill="black"/>
<path d="M89.3962 20.8959C89.5308 21.0305 89.6846 21.0881 89.7423 21.0305C89.8 20.9728 89.7038 20.8574 89.5116 20.7997C89.2424 20.6844 89.2232 20.7036 89.3962 20.8959Z" fill="black"/>
<path d="M84.5357 21.491L83.9785 22.125L84.6125 21.5679C85.1889 21.0299 85.3234 20.8762 85.1697 20.8762C85.1312 20.8762 84.8623 21.1644 84.5357 21.491Z" fill="black"/>
<path d="M90.6054 22.2209C90.7207 22.4324 90.8553 22.6055 90.913 22.6055C90.9515 22.6055 90.913 22.4324 90.7976 22.2209C90.6823 22.0094 90.5477 21.8364 90.49 21.8364C90.4516 21.8364 90.49 22.0094 90.6054 22.2209Z" fill="black"/>
<path d="M84.3625 26.4475C84.5548 26.659 84.7471 26.832 84.8048 26.832C84.8625 26.832 84.7471 26.659 84.5548 26.4475C84.3625 26.236 84.1702 26.0629 84.1126 26.0629C84.0549 26.0629 84.1702 26.236 84.3625 26.4475Z" fill="black"/>
<path d="M89.357 27.2158C89.2994 27.3312 89.3763 27.3504 89.5301 27.2927C89.8762 27.1581 89.9338 27.0235 89.6647 27.0235C89.5493 27.0235 89.4147 27.1005 89.357 27.2158Z" fill="black"/>
<path d="M86.3408 27.7347C86.4754 27.7924 86.6485 27.7732 86.7062 27.7155C86.7831 27.6578 86.6677 27.6001 86.4562 27.6193C86.2447 27.6193 86.187 27.677 86.3408 27.7347Z" fill="black"/>
<path d="M88.2627 27.7347C88.3973 27.7924 88.5703 27.7732 88.628 27.7155C88.7049 27.6578 88.5896 27.6001 88.3781 27.6193C88.1665 27.6193 88.1089 27.677 88.2627 27.7347Z" fill="black"/>
<ellipse cx="87.5316" cy="23.9525" rx="4.03454" ry="4.03452" fill="black"/>
</svg>
