<svg width="149" height="39" viewBox="0 0 149 39" fill="none" xmlns="http://www.w3.org/2000/svg">
<path d="M16.4523 4.81527C15.823 6.14779 12.3437 13.6987 8.67927 21.6568L2.05371 36.0924L5.57007 36.2034C7.53183 36.2404 9.23449 36.1664 9.38254 36.0183C9.5306 35.8703 11.3813 31.9468 13.4911 27.32C15.6009 22.6562 17.4517 18.8807 17.5627 18.8807C17.6737 18.8807 18.7842 21.0275 19.9686 23.6926C21.1531 26.3206 22.2265 28.5044 22.3376 28.5044C22.4486 28.5044 24.9286 23.2854 27.8527 16.919C30.7768 10.5895 33.2938 5.22243 33.4789 5.00035C33.6639 4.81527 33.812 5.07437 33.812 5.70362C33.812 6.25883 31.4061 11.959 28.4449 18.3625C25.4838 24.766 23.0778 30.1701 23.0778 30.3551C23.0778 31.6506 24.2253 29.5038 28.63 19.8801C32.6275 11.2558 33.6639 9.294 33.738 10.2194C33.812 11.0337 32.5165 14.2169 29.0001 21.8048C24.6695 31.2805 23.522 34.1676 24.5214 33.1312C24.7065 32.9091 26.7793 28.6155 29.1112 23.5815C31.4431 18.5476 33.4418 14.328 33.5899 14.1799C33.7009 14.0689 33.812 14.439 33.812 15.0312C33.812 15.6235 31.9243 20.2132 29.5553 25.3212C25.5208 34.0566 24.9286 35.5372 25.5948 35.5372C25.7429 35.5372 27.5936 31.6877 29.7034 27.0239C31.8502 22.3601 33.6269 18.5846 33.7009 18.6216C33.738 18.6956 35.5887 22.6562 37.8095 27.431L41.8071 36.0924L45.5455 36.2034L49.284 36.3145L41.585 19.621C37.3654 10.4414 33.812 2.85352 33.738 2.77948C33.6269 2.66844 31.8502 6.29585 29.7774 10.8116C27.6676 15.3644 25.8539 19.1768 25.7429 19.3249C25.5948 19.4729 24.3363 17.03 22.8928 13.9578C21.4862 10.8486 19.7095 6.99912 18.9692 5.37049L17.5627 2.40934L16.4523 4.81527Z" fill="black"/>
<path d="M66.0887 4.81517C65.4595 6.14769 62.2022 13.2174 58.7969 20.5463C55.3916 27.8751 52.3934 34.4266 52.0973 35.0929L51.5791 36.2773H55.2435H58.945L59.8703 34.2416L60.7957 32.2058H67.1991H73.6026L74.491 34.2416L75.3423 36.2773H79.0437C81.0795 36.2773 82.6711 36.1293 82.5971 35.9812C82.5601 35.7962 82.0789 34.7227 81.5607 33.5753L80.6353 31.4655H71.1597C65.9407 31.4655 61.573 31.3544 61.4619 31.2064C61.3139 31.0953 61.3879 30.7622 61.61 30.4661C61.9431 30.096 63.9419 29.9849 70.8636 29.9849C76.5268 29.9849 79.71 29.8369 79.71 29.6148C79.71 29.3927 76.5638 29.2446 70.9746 29.2446C64.164 29.2446 62.2762 29.1336 62.3873 28.7634C62.5353 28.4303 64.6081 28.2823 70.7895 28.2082C76.0456 28.1712 78.9327 27.9861 78.7846 27.7641C78.6366 27.542 75.4904 27.3939 70.8265 27.3939C64.127 27.3939 63.0906 27.3199 63.2756 26.8387C63.4607 26.3945 64.7562 26.2835 70.7895 26.2094L78.1184 26.0984L73.1955 15.3643C70.4564 9.44196 68.0135 4.1119 67.7173 3.51967L67.1991 2.40924L66.0887 4.81517ZM68.9018 22.1009L70.4194 25.3581L67.4212 25.4692C65.7926 25.5432 64.349 25.5062 64.238 25.3951C64.0159 25.173 66.829 18.8806 67.1621 18.8806C67.2732 18.8806 68.0505 20.3242 68.9018 22.1009Z" fill="black"/>
<path d="M95.7369 3.14938C88.0379 5.22219 83.041 11.6627 83.041 19.4357C83.041 30.725 93.9232 38.7942 104.805 35.5369L106.36 35.0557V27.8749C106.36 21.7676 106.434 20.7312 106.915 20.7312C107.396 20.7312 107.47 21.7306 107.47 27.4308C107.47 32.6128 107.582 34.0933 107.952 33.9823C108.285 33.8342 108.433 32.0946 108.507 27.2827C108.581 21.8046 108.692 20.7312 109.136 20.7312C109.617 20.7312 109.691 21.6936 109.691 26.8756C109.691 30.8361 109.802 32.9089 110.061 32.7608C110.284 32.6128 110.432 30.1698 110.432 26.6165C110.432 21.6195 110.506 20.7312 110.987 20.7312C111.468 20.7312 111.542 21.5825 111.542 26.1353C111.542 29.6146 111.69 31.4283 111.912 31.2803C112.134 31.1322 112.282 28.7633 112.282 25.321V19.6208H107.47C103.436 19.6208 102.659 19.6948 102.659 20.176C102.659 20.5831 103.066 20.7312 104.139 20.7312H105.62V24.0625V27.3938L104.102 28.134C99.5494 30.4659 93.9602 28.7263 91.2582 24.1365C90.4069 22.6189 90.2588 21.9897 90.2588 19.4357C90.2588 16.8817 90.4069 16.2524 91.2582 14.7349C94.4414 9.33077 100.697 8.14631 106.064 11.9588C106.656 12.3289 107.063 12.0698 109.21 9.88599L111.727 7.40603L110.617 6.48067C106.656 3.22341 100.586 1.85388 95.7369 3.14938Z" fill="black"/>
<path d="M130.79 3.00283C128.088 3.52103 124.794 5.37174 122.499 7.66663C115.947 14.2182 115.984 24.7302 122.536 31.2447C127.051 35.7235 133.714 37.3891 139.488 35.4644L140.969 34.9832L141.08 27.8394C141.154 21.8801 141.265 20.7327 141.709 20.7327C142.19 20.7327 142.264 21.7691 142.264 27.6173C142.264 32.0961 142.375 34.391 142.634 34.2429C142.857 34.0948 143.005 31.3928 143.005 27.3582C143.005 21.7321 143.079 20.7327 143.56 20.7327C144.041 20.7327 144.115 21.658 144.115 26.84C144.115 30.6525 144.263 32.9474 144.485 32.9474C144.707 32.9474 144.855 30.6525 144.855 26.84C144.855 20.9178 144.892 20.7327 145.633 20.7327C146.373 20.7327 146.373 20.8807 146.262 26.0627C146.188 30.3564 146.225 31.3188 146.632 31.0227C146.965 30.7265 147.076 29.246 147.002 25.2114L146.891 19.8073H142.19C139.266 19.8073 137.452 19.9554 137.452 20.1775C137.452 20.3625 138.119 20.5846 138.933 20.6587L140.414 20.7697V24.064V27.3212L138.674 28.2096C136.268 29.357 132.382 29.394 130.235 28.2466C128.236 27.2102 125.83 24.5452 125.201 22.7315C124.534 20.6957 124.609 17.8456 125.349 15.8468C126.607 12.5525 130.901 9.62839 134.491 9.62839C136.083 9.62839 138.859 10.5908 140.192 11.5901L141.413 12.5525L143.893 10.0355L146.373 7.51857L145.188 6.51919C141.45 3.37297 135.898 2.00344 130.79 3.00283Z" fill="black"/>
</svg>
