<svg width="37" height="39" viewBox="0 0 37 39" fill="none" xmlns="http://www.w3.org/2000/svg">
<g clip-path="url(#clip0_6123_3653)">
<path d="M19.9783 0.744141C30.5 0.744141 36.05 3.98161 36.05 12.0368C36.05 18.0877 31.6948 23.9846 22.6376 23.9846C20.3637 23.9846 18.822 23.7148 18.1668 23.5221V21.6721C22.4449 20.5544 23.9095 19.5909 23.9095 12.3451C23.9095 5.48473 22.9459 3.17225 19.2074 3.17225C17.0491 3.17225 16.6637 3.75037 16.6637 6.17847L16.6252 31.2303C16.6637 34.622 16.7408 34.7761 21.0189 35.4699V38.1292H0.784668V35.4699C4.56172 34.7376 4.67734 34.5834 4.67734 31.2303V7.64304C4.67734 4.32849 4.48464 4.09724 0.784668 3.40349V0.744141H19.9783ZM7.22107 19.9763C6.29608 19.9763 5.94921 20.5929 5.94921 21.7877V23.9846H6.14191L6.18046 23.7919C6.219 23.5992 6.25754 23.5221 6.68149 23.5221H9.41793C9.84188 23.5221 9.88043 23.5992 9.91897 23.7919L9.95751 23.9846H10.1888V21.6721H9.95751L9.91897 21.9033C9.84188 22.1346 9.84188 22.1731 9.41793 22.1731H6.29608C6.25754 22.1346 6.219 22.019 6.219 21.9033C6.219 21.4794 6.4117 21.3638 7.25961 21.3638C8.03044 21.3638 8.18461 21.5179 8.22315 22.019H8.41585C8.4544 21.9419 8.53148 21.7492 8.53148 21.5179C8.53148 20.4773 7.87628 19.9763 7.22107 19.9763ZM10.0346 15.968H9.88043L9.80334 16.1221C9.72626 16.3534 9.68772 16.3534 9.37939 16.3534H6.95128L6.8742 16.4305L7.02837 17.9336H7.18253L7.29816 17.7409C7.41378 17.5482 7.45232 17.5096 7.72211 17.5096H9.53355C9.53355 17.6252 9.61064 17.7794 9.61064 17.9721C9.61064 18.2034 9.49501 18.319 9.1096 18.319H6.95128L6.8742 18.3961L7.02837 19.8992H7.18253L7.29816 19.7065C7.45232 19.5138 7.45232 19.4752 7.72211 19.4752H9.41793C9.95751 19.4752 10.2273 19.1669 10.2273 18.7044C10.2273 18.2034 9.99605 17.8565 9.7648 17.4711H10.1888L10.2273 17.394L10.0346 15.968ZM6.06483 17.2398C5.83358 17.2398 5.64088 17.394 5.64088 17.6252C5.64088 17.7409 5.67942 17.8565 5.79504 17.9721L6.52733 18.7044L6.64295 18.6659L6.45025 17.5482C6.4117 17.3555 6.219 17.2398 6.06483 17.2398ZM8.37731 12.268C7.29816 12.268 6.8742 12.8847 6.8742 13.4628C6.8742 13.9253 7.10545 14.2336 7.3367 14.5034H6.37316C5.94921 14.5034 5.64088 14.4649 5.64088 14.4649L5.60234 14.5419L5.71796 16.0836H5.87213L5.98775 15.8523C6.10337 15.6982 6.14192 15.6596 6.45025 15.6596H9.84188C10.1117 15.3128 10.2273 14.8117 10.2273 14.1565C10.2273 13.0774 9.72626 12.268 8.37731 12.268ZM8.6471 13.5013C9.80334 13.5013 9.95751 13.694 9.95751 14.0794C9.95751 14.2722 9.88043 14.4263 9.7648 14.5034H7.56795C7.56795 14.4263 7.5294 14.3107 7.5294 14.118C7.5294 13.694 7.76065 13.5013 8.6471 13.5013ZM10.1888 10.3024H9.95751V10.3795C9.88043 10.6493 9.88043 10.6493 9.57209 10.6493H6.37316C5.94921 10.6493 5.64088 10.6493 5.64088 10.6493L5.60234 10.7263L5.71796 12.268H5.87213L5.98775 12.0368C6.10337 11.844 6.14192 11.844 6.45025 11.844H9.57209C9.84188 11.844 9.88043 11.844 9.95751 12.1138V12.2295H10.1888V10.3024ZM10.1888 8.29824H9.95751V8.41387C9.88043 8.64512 9.88043 8.68366 9.57209 8.68366H7.68357C7.41378 8.68366 7.22107 8.68366 6.95128 8.64512L6.8742 8.7222L7.02837 10.2639H7.18253L7.3367 10.0711C7.45232 9.87844 7.49086 9.8399 7.76065 9.8399H9.57209C9.84188 9.8399 9.88043 9.87844 9.95751 10.1097V10.1868H10.1888V8.29824ZM6.14191 8.64512C5.79504 8.64512 5.56379 8.95345 5.56379 9.30032C5.56379 9.64719 5.79504 9.91698 6.14191 9.91698C6.48879 9.91698 6.72004 9.64719 6.72004 9.30032C6.72004 8.95345 6.48879 8.64512 6.14191 8.64512ZM7.49086 5.29202C7.06691 5.29202 6.8742 5.71597 6.8742 6.33264C6.8742 7.25763 7.29816 8.2597 8.57002 8.2597C9.61064 8.2597 10.2273 7.68158 10.2273 6.67951C10.2273 5.94722 9.88043 5.48473 9.64918 5.33056H9.41793C9.53355 5.56181 9.64918 5.79306 9.64918 6.17847C9.64918 6.87221 9.14814 7.10346 8.26169 7.10346C7.29816 7.10346 7.14399 6.75659 7.14399 6.4868C7.14399 6.29409 7.18253 6.29409 7.41378 6.25555C7.68357 6.25555 7.95336 6.13993 7.95336 5.75452C7.95336 5.48473 7.76065 5.29202 7.49086 5.29202ZM8.53148 1.74622C7.41378 1.74622 6.8742 2.59413 6.8742 3.48058C6.8742 4.32849 7.3367 5.21494 8.57002 5.21494C9.72626 5.21494 10.2273 4.40557 10.2273 3.48058C10.2273 2.63267 9.7648 1.74622 8.53148 1.74622ZM8.60856 2.97954C9.88043 2.97954 9.95751 3.21079 9.95751 3.48058C9.95751 3.82745 9.80334 3.98161 8.4544 3.98161C7.37524 3.98161 7.14399 3.82745 7.14399 3.51912C7.14399 3.17225 7.29816 2.97954 8.60856 2.97954Z" fill="black"/>
</g>
<defs>
<clipPath id="clip0_6123_3653">
<rect width="35.2653" height="37.3851" fill="black" transform="translate(0.784668 0.744141)"/>
</clipPath>
</defs>
</svg>
