<svg viewBox="0 0 32 35" fill="none" xmlns="http://www.w3.org/2000/svg">
<path d="M31 7.46688C25.45 6.91688 19.8667 6.63354 14.3 6.63354C11 6.63354 7.7 6.80021 4.4 7.13355L1 7.46688" stroke-width="1.5" stroke-linecap="round" stroke-linejoin="round"/>
<path d="M10.168 5.78276L10.5346 3.59943C10.8013 2.0161 11.0013 0.832764 13.818 0.832764H18.1846C21.0013 0.832764 21.218 2.08276 21.468 3.6161L21.8346 5.78276" stroke-width="1.5" stroke-linecap="round" stroke-linejoin="round"/>
<path d="M27.4193 12.7339L26.3359 29.5172C26.1526 32.1339 26.0026 34.1672 21.3526 34.1672H10.6526C6.0026 34.1672 5.8526 32.1339 5.66927 29.5172L4.58594 12.7339" stroke-width="1.5" stroke-linecap="round" stroke-linejoin="round"/>
<path d="M13.2188 24.9995H18.7687" stroke-width="1.5" stroke-linecap="round" stroke-linejoin="round"/>
<path d="M11.832 18.3328H20.1654" stroke-width="1.5" stroke-linecap="round" stroke-linejoin="round"/>
</svg>
