<svg width="22" height="18" viewBox="0 0 22 18" fill="none" xmlns="http://www.w3.org/2000/svg">
<path d="M11.0204 17.9999C10.9088 17.9997 10.7986 17.9748 10.6977 17.927C10.5968 17.8792 10.5077 17.8097 10.4369 17.7235L0.199096 5.43818C0.0710382 5.29846 0 5.11582 0 4.92629C0 4.73676 0.0710382 4.55412 0.199096 4.4144L4.19182 0.237397C4.2708 0.155667 4.36672 0.0922309 4.47284 0.0515502C4.57897 0.0108696 4.69271 -0.00606813 4.80609 0.00192829H17.0914C17.295 0.0021075 17.4901 0.0831214 17.634 0.227159L21.6677 4.26083C21.8008 4.39521 21.8797 4.574 21.8891 4.76293C21.8986 4.95186 21.8379 5.13763 21.7189 5.28461L11.6244 17.7132C11.553 17.8021 11.4626 17.874 11.3599 17.9236C11.2572 17.9731 11.1447 17.9992 11.0306 17.9999H11.0204ZM1.80642 4.97748L11.0204 16.024L20.0808 4.90581L16.7638 1.53759H5.08251L1.80642 4.97748Z" fill="currentColor"/>
<path d="M21.1147 5.71462H0.78248C0.578838 5.71462 0.383537 5.63372 0.239541 5.48973C0.0955447 5.34573 0.0146484 5.15043 0.0146484 4.94679C0.0146484 4.74315 0.0955447 4.54784 0.239541 4.40385C0.383537 4.25985 0.578838 4.17896 0.78248 4.17896H21.1147C21.3183 4.17896 21.5136 4.25985 21.6576 4.40385C21.8016 4.54784 21.8825 4.74315 21.8825 4.94679C21.8825 5.15043 21.8016 5.34573 21.6576 5.48973C21.5136 5.63372 21.3183 5.71462 21.1147 5.71462Z" fill="currentColor"/>
<path d="M11.0198 18C10.8161 18 10.6208 17.9191 10.4768 17.7751C10.3328 17.6311 10.252 17.4358 10.252 17.2322V0.810801C10.252 0.607159 10.3328 0.411858 10.4768 0.267861C10.6208 0.123865 10.8161 0.0429688 11.0198 0.0429688C11.2234 0.0429688 11.4187 0.123865 11.5627 0.267861C11.7067 0.411858 11.7876 0.607159 11.7876 0.810801V17.1912C11.7947 17.2958 11.78 17.4007 11.7445 17.4993C11.709 17.5979 11.6534 17.6881 11.5812 17.7641C11.509 17.8401 11.4219 17.9003 11.3252 17.9409C11.2286 17.9815 11.1246 18.0017 11.0198 18Z" fill="currentColor"/>
</svg>
