<svg viewBox="0 0 524 462" fill="none" xmlns="http://www.w3.org/2000/svg">
<path d="M262 462C406.699 462 524 397.977 524 319C524 240.023 406.699 176 262 176C117.301 176 0 240.023 0 319C0 397.977 117.301 462 262 462Z" fill="#FAFAFA"/>
<path d="M462.03 130.028C457.208 129.863 452.512 128.439 448.41 125.898C430.95 115.818 416.78 90.1877 416.78 68.6877V25.1877C416.78 14.1877 420.41 6.01767 427.01 2.18767C433.01 -1.29233 440.88 -0.602332 449.08 4.12767C466.53 14.2077 480.73 39.8677 480.73 61.3377V104.808C480.73 115.808 477.1 123.968 470.51 127.808C467.932 129.289 465.004 130.055 462.03 130.028ZM449.03 124.778C456.82 129.278 464.2 129.968 469.82 126.718C475.91 123.208 479.4 115.238 479.4 104.868V61.3977C479.4 40.3377 465.49 15.1777 448.4 5.30767C440.61 0.807668 433.23 0.117668 427.61 3.36767C421.52 6.87767 418.03 14.8477 418.03 25.2277V68.6877C418.04 89.7477 431.95 114.908 449.05 124.778H449.03Z" fill="#E0E0E0"/>
<path d="M448.72 14.8277C443.13 11.6077 437.95 10.8277 433.72 12.0077C433.31 12.1377 432.89 12.2777 432.5 12.4377C432.11 12.5977 431.71 12.7877 431.33 12.9877C430.184 13.6024 429.133 14.3805 428.21 15.2977C427.703 15.7854 427.225 16.303 426.78 16.8477C425.414 18.7163 424.398 20.8169 423.78 23.0477C423.78 23.2477 423.66 23.4677 423.61 23.6777C423.23 25.0969 422.97 26.5452 422.83 28.0077C422.789 28.2894 422.762 28.5732 422.75 28.8577C422.697 29.2977 422.667 29.7477 422.66 30.2077C422.66 30.4277 422.66 30.6577 422.66 30.8777C422.66 31.0977 422.66 31.5377 422.66 31.8777V68.0777C422.66 85.8077 434.33 106.928 448.74 115.238C452.063 117.306 455.869 118.468 459.78 118.608H460.6L461.41 118.538C462.215 118.454 463.012 118.3 463.79 118.078L464.46 117.848C464.72 117.758 464.97 117.668 465.22 117.558L465.84 117.268L466.54 116.898C466.76 116.771 466.98 116.631 467.2 116.478C467.419 116.347 467.629 116.203 467.83 116.048L468.43 115.558C472.43 112.228 474.8 106.268 474.8 98.2177V62.0077C474.78 44.2677 463.13 23.1877 448.72 14.8277ZM469.66 98.1877C469.66 103.278 468.58 107.408 466.53 110.118C466.465 110.19 466.404 110.267 466.35 110.348C465.909 110.406 465.465 110.44 465.02 110.448C462.008 110.302 459.084 109.383 456.53 107.778C443.77 100.418 433.01 80.8577 433 65.0577V28.8677C433 26.4777 433.34 20.4777 436.28 16.7477C436.504 16.6983 436.731 16.6649 436.96 16.6477C437.19 16.6322 437.42 16.6322 437.65 16.6477C440.666 16.7913 443.594 17.7109 446.15 19.3177C458.9 26.6877 469.66 46.2477 469.66 62.0477V98.1877Z" fill="#37474F"/>
<path d="M469.66 62.0074V98.1874C469.66 103.277 468.58 107.407 466.53 110.117C466.464 110.19 466.404 110.266 466.35 110.347C465.909 110.406 465.465 110.439 465.02 110.447C462.008 110.302 459.083 109.382 456.53 107.777C443.77 100.417 433.01 80.8574 433 65.0574V28.8674C433 26.4774 433.34 20.4774 436.28 16.7474C436.504 16.698 436.731 16.6646 436.96 16.6474C437.19 16.6319 437.42 16.6319 437.65 16.6474C440.666 16.791 443.594 17.7106 446.15 19.3174C458.9 26.6474 469.66 46.1874 469.66 62.0074Z" fill="#2274A5"/>
<path opacity="0.6" d="M469.66 62.0074V98.1874C469.66 103.277 468.58 107.407 466.53 110.117C466.464 110.19 466.404 110.266 466.35 110.347C465.909 110.406 465.465 110.439 465.02 110.447C462.008 110.302 459.083 109.382 456.53 107.777C443.77 100.417 433.01 80.8574 433 65.0574V28.8674C433 26.4774 433.34 20.4774 436.28 16.7474C436.504 16.698 436.731 16.6646 436.96 16.6474C437.19 16.6319 437.42 16.6319 437.65 16.6474C440.666 16.791 443.594 17.7106 446.15 19.3174C458.9 26.6474 469.66 46.1874 469.66 62.0074Z" fill="white"/>
<path d="M441.54 53.1875C443.34 55.9175 445.05 58.6975 446.75 61.4875C448.45 64.2775 450.07 67.1075 451.75 69.9075C453.43 72.7075 454.99 75.5775 456.56 78.4475C458.13 81.3175 459.68 84.1775 461.14 87.0975C459.34 84.3675 457.63 81.5875 455.94 78.7975C454.25 76.0075 452.61 73.1875 450.94 70.3775C449.27 67.5675 447.71 64.7075 446.14 61.8475C444.57 58.9875 443.01 56.1875 441.54 53.1875Z" fill="white"/>
<path d="M451.36 57.668C452.36 59.158 453.36 60.668 454.3 62.218C455.24 63.768 456.14 65.318 457.07 66.858C458 68.398 458.85 69.998 459.7 71.578C460.55 73.158 461.4 74.768 462.18 76.398C461.18 74.908 460.18 73.398 459.24 71.848C458.3 70.298 457.4 68.758 456.47 67.208C455.54 65.658 454.69 64.078 453.84 62.488C452.99 60.898 452.14 59.308 451.36 57.668Z" fill="white"/>
<path d="M440.49 63.9473C441.49 65.4373 442.49 66.9473 443.42 68.4973C444.35 70.0473 445.27 71.5973 446.19 73.1373C447.11 74.6773 447.97 76.2773 448.83 77.8573C449.69 79.4373 450.52 81.0473 451.3 82.6773C450.3 81.1873 449.3 79.6773 448.37 78.1273C447.44 76.5773 446.52 75.0273 445.6 73.4873C444.68 71.9473 443.81 70.3573 442.96 68.7673C442.11 67.1773 441.27 65.5873 440.49 63.9473Z" fill="white"/>
<path d="M448.78 14.8379C434.37 6.51788 422.7 14.1579 422.7 31.8379V68.0379C422.7 85.7679 434.37 106.888 448.78 115.208C463.19 123.528 474.86 115.898 474.86 98.2079V62.0079C474.78 44.2679 463.14 23.1879 448.78 14.8379ZM469.67 98.1879C469.67 103.278 468.59 107.408 466.53 110.118C465.768 111.183 464.755 112.045 463.582 112.627C462.408 113.209 461.11 113.495 459.8 113.458C456.784 113.314 453.856 112.395 451.3 110.788C438.55 103.448 427.78 83.8779 427.78 68.0779V31.8779C427.78 28.3079 428.5 16.6079 437.66 16.6079C440.675 16.7594 443.6 17.6785 446.16 19.2779C458.91 26.6479 469.67 46.2179 469.67 62.0079V98.1879Z" fill="#455A64"/>
<path d="M468.42 52.1274L427.94 28.7574C428.44 23.9274 430.4 16.6074 437.65 16.6074C440.666 16.751 443.594 17.6707 446.15 19.2774C456.33 25.1874 465.24 38.8174 468.42 52.1274Z" fill="#E0E0E0"/>
<path d="M443.54 34.4678V32.0078L449.94 35.6978V38.1578L443.54 34.4678Z" fill="#455A64"/>
<path d="M364.36 129.307C364.394 128.941 364.525 128.59 364.74 128.292C364.954 127.993 365.244 127.757 365.58 127.607L376.24 121.457C377.149 120.994 378.155 120.752 379.175 120.752C380.196 120.752 381.201 120.994 382.11 121.457L450.95 161.187C451.288 161.335 451.579 161.571 451.794 161.87C452.008 162.169 452.138 162.52 452.17 162.887V166.067C452.142 166.434 452.013 166.786 451.798 167.084C451.583 167.382 451.289 167.615 450.95 167.757L440.29 173.917C439.381 174.381 438.376 174.622 437.355 174.622C436.335 174.622 435.329 174.381 434.42 173.917L365.58 134.187C365.245 134.037 364.955 133.8 364.741 133.502C364.527 133.203 364.395 132.853 364.36 132.487V129.307Z" fill="#2274A5"/>
<g opacity="0.1">
<path d="M364.36 129.307C364.394 128.941 364.525 128.59 364.74 128.292C364.954 127.993 365.244 127.757 365.58 127.607L376.24 121.457C377.149 120.994 378.155 120.752 379.175 120.752C380.196 120.752 381.201 120.994 382.11 121.457L450.95 161.187C451.288 161.335 451.579 161.571 451.794 161.87C452.008 162.169 452.138 162.52 452.17 162.887V166.067C452.142 166.434 452.013 166.786 451.798 167.084C451.583 167.382 451.289 167.615 450.95 167.757L440.29 173.917C439.381 174.381 438.376 174.622 437.355 174.622C436.335 174.622 435.329 174.381 434.42 173.917L365.58 134.187C365.245 134.037 364.955 133.8 364.741 133.502C364.527 133.203 364.395 132.853 364.36 132.487V129.307Z" fill="black"/>
</g>
<path d="M365.58 127.607L376.24 121.457C377.149 120.994 378.155 120.752 379.175 120.752C380.196 120.752 381.201 120.994 382.11 121.457L437.36 153.327V174.607C436.337 174.629 435.325 174.388 434.42 173.907L365.58 134.187C365.245 134.037 364.955 133.8 364.741 133.502C364.527 133.203 364.395 132.853 364.36 132.487V129.307C364.394 128.941 364.525 128.59 364.74 128.292C364.954 127.993 365.244 127.757 365.58 127.607Z" fill="#2274A5"/>
<g opacity="0.35">
<path d="M365.58 127.607L376.24 121.457C377.149 120.994 378.155 120.752 379.175 120.752C380.196 120.752 381.201 120.994 382.11 121.457L437.36 153.327V174.607C436.337 174.629 435.325 174.388 434.42 173.907L365.58 134.187C365.245 134.037 364.955 133.8 364.741 133.502C364.527 133.203 364.395 132.853 364.36 132.487V129.307C364.394 128.941 364.525 128.59 364.74 128.292C364.954 127.993 365.244 127.757 365.58 127.607Z" fill="black"/>
</g>
<path d="M449.12 153.738L383.78 116.008C382.71 115.384 381.494 115.056 380.255 115.056C379.017 115.056 377.8 115.384 376.73 116.008L370.73 119.488C366.5 121.928 364.87 122.558 364.52 124.768C364.46 125.108 364.44 128.888 364.44 129.308C364.475 129.673 364.606 130.022 364.821 130.319C365.035 130.616 365.325 130.85 365.66 130.998L434.5 170.728C435.411 171.187 436.416 171.426 437.435 171.426C438.455 171.426 439.46 171.187 440.37 170.728L451.03 164.568C451.365 164.419 451.654 164.185 451.869 163.888C452.083 163.591 452.215 163.242 452.25 162.878C452.25 162.468 452.25 158.688 452.25 158.348C452.04 155.958 451.45 155.088 449.12 153.738Z" fill="#37474F"/>
<path d="M383.31 116.598L449.37 154.718C449.713 154.83 450.011 155.047 450.222 155.339C450.434 155.631 450.548 155.982 450.548 156.343C450.548 156.703 450.434 157.054 450.222 157.346C450.011 157.638 449.713 157.855 449.37 157.968L439.47 163.688C438.5 164.172 437.43 164.424 436.345 164.424C435.261 164.424 434.191 164.172 433.22 163.688L367.16 125.568C366.84 125.424 366.564 125.199 366.358 124.914C366.153 124.63 366.026 124.296 365.99 123.948C366.024 123.597 366.151 123.261 366.356 122.975C366.562 122.689 366.839 122.462 367.16 122.318L377.06 116.598C378.031 116.113 379.101 115.861 380.185 115.861C381.27 115.861 382.34 116.113 383.31 116.598Z" fill="#455A64"/>
<path d="M293.72 246.857L286.32 251.127L289.32 280.407C289.602 282.189 290.254 283.891 291.234 285.405C292.214 286.919 293.501 288.211 295.01 289.197L348.06 319.807C348.671 320.22 349.381 320.461 350.117 320.503C350.853 320.545 351.587 320.388 352.24 320.047L359.63 315.777C360.173 315.445 360.635 314.994 360.981 314.46C361.327 313.925 361.549 313.319 361.63 312.687L365.97 288.517L293.72 246.857Z" fill="#EBEBEB"/>
<path d="M289.3 280.408C289.582 282.189 290.234 283.892 291.214 285.406C292.194 286.92 293.481 288.211 294.99 289.198L348.04 319.808C350.85 321.428 353.6 320.158 354.17 316.958L358.51 292.788L286.32 251.128L289.3 280.408Z" fill="#E0E0E0"/>
<path opacity="0.1" d="M289.3 280.408C289.582 282.189 290.234 283.892 291.214 285.406C292.194 286.92 293.481 288.211 294.99 289.198L348.04 319.808C350.85 321.428 353.6 320.158 354.17 316.958L358.51 292.788L286.32 251.128L289.3 280.408Z" fill="black"/>
<path d="M371.94 201.697L364.54 205.967L367.54 235.247C367.822 237.03 368.474 238.734 369.454 240.25C370.434 241.765 371.72 243.059 373.23 244.047L426.28 274.647C426.891 275.06 427.601 275.3 428.337 275.343C429.073 275.385 429.806 275.228 430.46 274.887L437.85 270.627C438.391 270.29 438.851 269.837 439.197 269.301C439.542 268.765 439.766 268.159 439.85 267.527L444.19 243.357L371.94 201.697Z" fill="#EBEBEB"/>
<path d="M367.53 235.248C367.812 237.03 368.464 238.734 369.444 240.25C370.424 241.766 371.71 243.059 373.22 244.048L426.27 274.648C429.08 276.278 431.83 274.998 432.4 271.798L436.78 247.628L364.58 205.968L367.53 235.248Z" fill="#E0E0E0"/>
<path opacity="0.1" d="M367.53 235.248C367.812 237.03 368.464 238.734 369.444 240.25C370.424 241.766 371.71 243.059 373.22 244.048L426.27 274.648C429.08 276.278 431.83 274.998 432.4 271.798L436.78 247.628L364.58 205.968L367.53 235.248Z" fill="black"/>
<path d="M284.511 233.468L286.321 251.128L358.511 292.788L362.071 278.248L284.511 233.468Z" fill="#2274A5"/>
<path opacity="0.35" d="M284.511 233.468L286.321 251.128L358.511 292.788L362.071 278.248L284.511 233.468Z" fill="black"/>
<path d="M447.7 212.187C447.701 207.166 446.38 202.234 443.87 197.885C441.36 193.537 437.749 189.927 433.4 187.417L385.58 159.827L366.46 148.827L280.83 198.267L284.51 233.497L362.07 278.277L447.7 228.837V212.187Z" fill="#455A64"/>
<path d="M366.461 148.798L280.841 198.238L283.021 219.038L304.731 212.028L390.351 162.588L366.461 148.798Z" fill="#37474F"/>
<path d="M280.83 198.237L347.78 236.877C352.128 239.388 355.739 242.998 358.249 247.346C360.759 251.694 362.08 256.627 362.08 261.647V278.247L284.52 233.467L280.83 198.237Z" fill="#263238"/>
<path d="M377.08 74.7075C376.607 70.2247 375.08 65.9174 372.625 62.1373C370.169 58.3573 366.854 55.2117 362.95 52.9575L356.44 49.1875L270.78 98.6375L280.78 198.238L295.38 206.658C296.748 207.447 298.3 207.863 299.88 207.863C301.46 207.863 303.012 207.447 304.38 206.658L376.83 164.827C379.411 163.338 381.507 161.135 382.866 158.483C384.225 155.831 384.789 152.842 384.49 149.878L377.08 74.7075Z" fill="#455A64"/>
<path d="M362.95 52.9575L356.44 49.1875L270.78 98.6375L272.84 118.247L371.84 61.0775C369.488 57.7699 366.457 55.0017 362.95 52.9575Z" fill="#37474F"/>
<path d="M277.33 102.398L270.78 98.6377L280.78 198.238L294.78 206.308C295.262 206.599 295.815 206.749 296.378 206.74C296.94 206.731 297.489 206.565 297.962 206.259C298.434 205.954 298.811 205.522 299.049 205.012C299.288 204.503 299.378 203.936 299.31 203.378L291.45 124.188C290.984 119.699 289.461 115.385 287.007 111.597C284.552 107.81 281.237 104.658 277.33 102.398Z" fill="#263238"/>
<path d="M374.72 48.3075L373.48 36.4675C372.8 30.0075 367.97 22.2975 362.69 19.2475L353.13 13.7275L267.13 63.3975L270.83 98.6375L280.39 104.148C282.81 105.548 284.89 105.708 286.39 104.878L372.39 55.2175C374.15 54.1875 375.09 51.8075 374.72 48.3075Z" fill="#455A64"/>
<path d="M267.11 63.3975L276.67 68.9175C281.95 71.9175 286.78 79.6675 287.46 86.1275L288.7 97.9675C289.38 104.427 285.65 107.197 280.37 104.147L270.78 98.6375L267.11 63.3975Z" fill="#263238"/>
<path d="M286.78 52.018L292.78 55.458C295.407 56.9769 297.678 59.0424 299.437 61.5146C301.197 63.9869 302.405 66.8083 302.98 69.788L305.98 85.128L358.54 54.778L355.54 39.438C354.967 36.4576 353.76 33.6354 352 31.1629C350.24 28.6904 347.969 26.6253 345.34 25.108L339.34 21.668L286.78 52.018Z" fill="#EBEBEB"/>
<path d="M264.36 187.037C264.396 186.673 264.528 186.324 264.742 186.027C264.956 185.731 265.246 185.496 265.58 185.347L276.24 179.187C277.151 178.728 278.156 178.489 279.175 178.489C280.195 178.489 281.2 178.728 282.11 179.187L350.95 218.917C351.289 219.06 351.583 219.293 351.798 219.591C352.013 219.889 352.142 220.241 352.17 220.607V223.787C352.138 224.154 352.008 224.505 351.794 224.805C351.579 225.104 351.288 225.34 350.95 225.487L340.29 231.647C339.38 232.106 338.375 232.345 337.355 232.345C336.336 232.345 335.331 232.106 334.42 231.647L265.58 191.917C265.246 191.769 264.956 191.534 264.742 191.237C264.528 190.94 264.396 190.592 264.36 190.227V187.037Z" fill="#2274A5"/>
<g opacity="0.1">
<path d="M264.36 187.037C264.396 186.673 264.528 186.324 264.742 186.027C264.956 185.731 265.246 185.496 265.58 185.347L276.24 179.187C277.151 178.728 278.156 178.489 279.175 178.489C280.195 178.489 281.2 178.728 282.11 179.187L350.95 218.917C351.289 219.06 351.583 219.293 351.798 219.591C352.013 219.889 352.142 220.241 352.17 220.607V223.787C352.138 224.154 352.008 224.505 351.794 224.805C351.579 225.104 351.288 225.34 350.95 225.487L340.29 231.647C339.38 232.106 338.375 232.345 337.355 232.345C336.336 232.345 335.331 232.106 334.42 231.647L265.58 191.917C265.246 191.769 264.956 191.534 264.742 191.237C264.528 190.94 264.396 190.592 264.36 190.227V187.037Z" fill="black"/>
</g>
<path d="M265.58 185.347L276.24 179.187C277.151 178.728 278.156 178.489 279.175 178.489C280.195 178.489 281.2 178.728 282.11 179.187L337.36 211.067V232.347C336.337 232.365 335.326 232.124 334.42 231.647L265.58 191.917C265.246 191.769 264.956 191.534 264.742 191.237C264.528 190.94 264.396 190.592 264.36 190.227V187.037C264.396 186.673 264.528 186.324 264.742 186.027C264.956 185.731 265.246 185.496 265.58 185.347Z" fill="#2274A5"/>
<g opacity="0.35">
<path d="M265.58 185.347L276.24 179.187C277.151 178.728 278.156 178.489 279.175 178.489C280.195 178.489 281.2 178.728 282.11 179.187L337.36 211.067V232.347C336.337 232.365 335.326 232.124 334.42 231.647L265.58 191.917C265.246 191.769 264.956 191.534 264.742 191.237C264.528 190.94 264.396 190.592 264.36 190.227V187.037C264.396 186.673 264.528 186.324 264.742 186.027C264.956 185.731 265.246 185.496 265.58 185.347Z" fill="black"/>
</g>
<path d="M349.12 211.477L283.78 173.747C282.716 173.133 281.509 172.81 280.28 172.81C279.051 172.81 277.844 173.133 276.78 173.747L270.78 177.227C266.55 179.657 264.92 180.297 264.57 182.507C264.51 182.837 264.49 186.627 264.49 187.037C264.524 187.404 264.655 187.754 264.87 188.053C265.084 188.352 265.374 188.588 265.71 188.737L334.55 228.457C335.459 228.921 336.465 229.163 337.485 229.163C338.506 229.163 339.511 228.921 340.42 228.457L351.08 222.307C351.417 222.16 351.709 221.924 351.923 221.625C352.138 221.326 352.268 220.974 352.3 220.607C352.3 220.207 352.3 216.427 352.3 216.087C352.04 213.697 351.45 212.817 349.12 211.477Z" fill="#37474F"/>
<path d="M283.31 174.338L349.38 212.458C349.718 212.575 350.01 212.794 350.218 213.086C350.425 213.377 350.536 213.725 350.536 214.083C350.536 214.44 350.425 214.789 350.218 215.08C350.01 215.371 349.718 215.591 349.38 215.708L339.47 221.428C338.499 221.912 337.43 222.164 336.345 222.164C335.26 222.164 334.191 221.912 333.22 221.428L267.16 183.308C266.818 183.196 266.519 182.978 266.308 182.686C266.096 182.394 265.982 182.043 265.982 181.683C265.982 181.322 266.096 180.971 266.308 180.679C266.519 180.388 266.818 180.17 267.16 180.058L277.06 174.338C278.031 173.854 279.1 173.602 280.185 173.602C281.27 173.602 282.339 173.854 283.31 174.338Z" fill="#455A64"/>
<path d="M193.72 304.598L186.32 308.868L189.32 338.158C189.604 339.938 190.257 341.64 191.237 343.154C192.216 344.668 193.502 345.96 195.01 346.948L248.01 377.548C248.621 377.961 249.331 378.201 250.067 378.243C250.803 378.285 251.537 378.128 252.19 377.788L259.58 373.528C260.123 373.192 260.584 372.739 260.93 372.203C261.276 371.667 261.498 371.06 261.58 370.428L265.92 346.258L193.72 304.598Z" fill="#EBEBEB"/>
<path d="M189.301 338.188C189.584 339.969 190.237 341.671 191.217 343.185C192.197 344.698 193.482 345.991 194.991 346.978L247.991 377.578C250.801 379.208 253.55 377.928 254.12 374.728L258.46 350.558L186.271 308.898L189.301 338.188Z" fill="#E0E0E0"/>
<path opacity="0.1" d="M189.301 338.188C189.584 339.969 190.237 341.671 191.217 343.185C192.197 344.698 193.482 345.991 194.991 346.978L247.991 377.578C250.801 379.208 253.55 377.928 254.12 374.728L258.46 350.558L186.271 308.898L189.301 338.188Z" fill="black"/>
<path d="M271.94 259.448L264.54 263.718L267.54 292.998C267.822 294.78 268.474 296.482 269.454 297.996C270.434 299.51 271.72 300.802 273.23 301.788L326.28 332.398C326.892 332.808 327.602 333.047 328.337 333.089C329.072 333.131 329.805 332.975 330.46 332.638L337.85 328.368C338.391 328.033 338.851 327.582 339.196 327.047C339.542 326.513 339.765 325.909 339.85 325.278L344.19 301.108L271.94 259.448Z" fill="#EBEBEB"/>
<path d="M267.53 292.998C267.812 294.779 268.464 296.482 269.444 297.996C270.424 299.51 271.71 300.801 273.22 301.788L326.27 332.398C329.08 334.018 331.83 332.738 332.4 329.548L336.78 305.378L264.58 263.718L267.53 292.998Z" fill="#E0E0E0"/>
<path opacity="0.1" d="M267.53 292.998C267.812 294.779 268.464 296.482 269.444 297.996C270.424 299.51 271.71 300.801 273.22 301.788L326.27 332.398C329.08 334.018 331.83 332.738 332.4 329.548L336.78 305.378L264.58 263.718L267.53 292.998Z" fill="black"/>
<path d="M347.7 269.958C347.7 264.937 346.379 260.005 343.869 255.657C341.359 251.309 337.748 247.698 333.4 245.188L285.58 217.578L266.46 206.578L180.83 256.018L184.51 291.188L262.07 335.958L347.7 286.518V269.958Z" fill="#455A64"/>
<path d="M266.461 206.538L180.841 255.978L183.021 276.788L204.731 269.768L290.351 220.338L266.461 206.538Z" fill="#37474F"/>
<path d="M180.83 255.979L247.78 294.629C252.128 297.139 255.739 300.749 258.249 305.098C260.759 309.446 262.08 314.378 262.08 319.398V335.988L184.51 291.189L180.83 255.979Z" fill="#263238"/>
<path d="M277.08 132.458C276.609 127.975 275.083 123.667 272.627 119.887C270.171 116.106 266.855 112.961 262.95 110.708L256.44 106.948L170.78 156.378L180.78 255.978L195.37 264.408C196.74 265.192 198.292 265.605 199.87 265.605C201.449 265.605 203 265.192 204.37 264.408L276.82 222.578C279.4 221.087 281.494 218.883 282.853 216.232C284.211 213.58 284.777 210.593 284.48 207.628L277.08 132.458Z" fill="#455A64"/>
<path d="M262.95 110.708L256.44 106.948L170.78 156.378L172.84 175.988L271.84 118.818C269.487 115.514 266.456 112.749 262.95 110.708Z" fill="#37474F"/>
<path d="M177.33 160.188L170.78 156.378L180.78 255.978L194.78 264.058C195.262 264.349 195.815 264.499 196.378 264.49C196.94 264.482 197.489 264.315 197.962 264.01C198.434 263.704 198.811 263.272 199.049 262.762C199.288 262.253 199.378 261.686 199.31 261.128L191.4 181.898C190.925 177.428 189.404 173.134 186.959 169.362C184.515 165.59 181.216 162.447 177.33 160.188Z" fill="#263238"/>
<path d="M274.72 106.048L273.48 94.188C272.8 87.728 267.97 80.018 262.69 76.978L253.13 71.458L167.13 121.118L170.83 156.358L180.39 161.878C182.81 163.268 184.89 163.438 186.39 162.598L272.39 112.938C274.15 111.958 275.09 109.558 274.72 106.048Z" fill="#455A64"/>
<path d="M167.11 121.188L176.67 126.708C181.95 129.758 186.78 137.468 187.46 143.928L188.7 155.768C189.38 162.228 185.7 164.998 180.37 161.948L170.78 156.378L167.11 121.188Z" fill="#263238"/>
<path d="M184.511 291.208L186.321 308.878L258.511 350.538L262.071 335.988L184.511 291.208Z" fill="#2274A5"/>
<path opacity="0.35" d="M184.511 291.208L186.321 308.878L258.511 350.538L262.071 335.988L184.511 291.208Z" fill="black"/>
<path d="M344.141 301.098L347.701 286.558L262.071 335.988L258.511 350.538L344.141 301.098Z" fill="#2274A5"/>
<path d="M444.41 242.728L447.97 228.188L362.34 277.618L358.78 292.168L444.41 242.728Z" fill="#2274A5"/>
<path opacity="0.1" d="M344.141 301.098L347.701 286.558L262.071 335.988L258.511 350.538L344.141 301.098Z" fill="black"/>
<path opacity="0.1" d="M344.141 301.098L347.701 286.558L262.071 335.988L258.511 350.538L344.141 301.098Z" fill="black"/>
<path opacity="0.1" d="M344.141 301.098L347.701 286.558L262.071 335.988L258.511 350.538L344.141 301.098Z" fill="black"/>
<path opacity="0.1" d="M444.41 242.728L447.97 228.188L362.34 277.618L358.78 292.168L444.41 242.728Z" fill="black"/>
<path d="M186.78 109.758L192.78 113.208C195.407 114.725 197.677 116.788 199.437 119.259C201.197 121.73 202.405 124.55 202.98 127.528L205.93 142.868L258.49 112.518L255.55 97.188C254.977 94.209 253.77 91.3882 252.01 88.9173C250.25 86.4464 247.978 84.3832 245.35 82.868L239.35 79.418L186.78 109.758Z" fill="#EBEBEB"/>
<path d="M164.36 244.789C164.394 244.422 164.525 244.072 164.74 243.773C164.954 243.474 165.244 243.238 165.58 243.089L176.24 236.939C177.149 236.475 178.155 236.233 179.175 236.233C180.196 236.233 181.201 236.475 182.11 236.939L250.95 276.659C251.288 276.806 251.579 277.042 251.794 277.341C252.008 277.64 252.138 277.992 252.17 278.359V281.539C252.137 281.904 252.006 282.253 251.791 282.55C251.577 282.847 251.286 283.082 250.95 283.229L240.29 289.389C239.38 289.848 238.375 290.087 237.355 290.087C236.336 290.087 235.331 289.848 234.42 289.389L165.58 249.669C165.245 249.518 164.955 249.282 164.741 248.983C164.527 248.685 164.395 248.335 164.36 247.969V244.789Z" fill="#2274A5"/>
<g opacity="0.1">
<path d="M164.36 244.789C164.394 244.422 164.525 244.072 164.74 243.773C164.954 243.474 165.244 243.238 165.58 243.089L176.24 236.939C177.149 236.475 178.155 236.233 179.175 236.233C180.196 236.233 181.201 236.475 182.11 236.939L250.95 276.659C251.288 276.806 251.579 277.042 251.794 277.341C252.008 277.64 252.138 277.992 252.17 278.359V281.539C252.137 281.904 252.006 282.253 251.791 282.55C251.577 282.847 251.286 283.082 250.95 283.229L240.29 289.389C239.38 289.848 238.375 290.087 237.355 290.087C236.336 290.087 235.331 289.848 234.42 289.389L165.58 249.669C165.245 249.518 164.955 249.282 164.741 248.983C164.527 248.685 164.395 248.335 164.36 247.969V244.789Z" fill="black"/>
</g>
<path d="M165.58 243.089L176.24 236.939C177.149 236.475 178.155 236.233 179.175 236.233C180.196 236.233 181.201 236.475 182.11 236.939L237.36 268.809V290.089C236.337 290.11 235.325 289.869 234.42 289.389L165.58 249.669C165.245 249.518 164.955 249.282 164.741 248.983C164.527 248.685 164.395 248.335 164.36 247.969V244.789C164.394 244.422 164.525 244.072 164.74 243.773C164.954 243.474 165.244 243.238 165.58 243.089Z" fill="#2274A5"/>
<g opacity="0.35">
<path d="M165.58 243.089L176.24 236.939C177.149 236.475 178.155 236.233 179.175 236.233C180.196 236.233 181.201 236.475 182.11 236.939L237.36 268.809V290.089C236.337 290.11 235.325 289.869 234.42 289.389L165.58 249.669C165.245 249.518 164.955 249.282 164.741 248.983C164.527 248.685 164.395 248.335 164.36 247.969V244.789C164.394 244.422 164.525 244.072 164.74 243.773C164.954 243.474 165.244 243.238 165.58 243.089Z" fill="black"/>
</g>
<path d="M249.12 269.189L183.78 231.489C182.716 230.874 181.509 230.551 180.28 230.551C179.051 230.551 177.844 230.874 176.78 231.489L170.78 234.969C166.55 237.409 164.92 238.039 164.57 240.249C164.57 240.589 164.49 244.369 164.49 244.789C164.526 245.153 164.658 245.501 164.872 245.798C165.086 246.095 165.376 246.33 165.71 246.479L234.42 286.189C235.331 286.648 236.336 286.887 237.355 286.887C238.375 286.887 239.38 286.648 240.29 286.189L250.95 280.029C251.286 279.882 251.576 279.647 251.791 279.35C252.006 279.053 252.137 278.704 252.17 278.339C252.17 277.929 252.17 274.149 252.17 273.809C252.04 271.439 251.45 270.559 249.12 269.189Z" fill="#37474F"/>
<path d="M183.31 232.079L249.38 270.189C249.718 270.306 250.01 270.525 250.218 270.817C250.425 271.108 250.536 271.456 250.536 271.814C250.536 272.171 250.425 272.52 250.218 272.811C250.01 273.102 249.718 273.322 249.38 273.439L239.47 279.189C238.499 279.673 237.43 279.925 236.345 279.925C235.26 279.925 234.191 279.673 233.22 279.189L167.16 241.069C166.818 240.957 166.519 240.739 166.308 240.447C166.096 240.155 165.982 239.804 165.982 239.444C165.982 239.083 166.096 238.732 166.308 238.44C166.519 238.149 166.818 237.931 167.16 237.819L177.06 232.099C178.029 231.612 179.098 231.356 180.183 231.353C181.267 231.349 182.338 231.598 183.31 232.079Z" fill="#455A64"/>
<path d="M93.7203 362.339L86.3203 366.609L89.3203 395.889C89.6022 397.67 90.2541 399.373 91.2341 400.887C92.2142 402.401 93.5005 403.692 95.0103 404.679L148.06 435.289C148.671 435.702 149.381 435.942 150.117 435.984C150.853 436.027 151.587 435.869 152.24 435.529L159.63 431.259C160.174 430.926 160.635 430.476 160.981 429.941C161.327 429.406 161.549 428.801 161.63 428.169L165.97 403.999L93.7203 362.339Z" fill="#EBEBEB"/>
<path d="M89.3003 395.888C89.5822 397.67 90.2341 399.372 91.2141 400.886C92.1942 402.4 93.4805 403.692 94.9903 404.678L148.04 435.288C150.86 436.908 153.6 435.638 154.18 432.438L158.51 408.268L86.3203 366.608L89.3003 395.888Z" fill="#F5F5F5"/>
<path d="M171.94 317.188L164.54 321.458L167.54 350.738C167.826 352.52 168.479 354.222 169.459 355.737C170.439 357.252 171.723 358.547 173.23 359.538L226.28 390.138C226.891 390.551 227.601 390.792 228.337 390.834C229.073 390.876 229.806 390.719 230.46 390.378L237.85 386.108C238.393 385.776 238.855 385.325 239.201 384.791C239.547 384.256 239.769 383.65 239.85 383.018L244.19 358.848L171.94 317.188Z" fill="#EBEBEB"/>
<path d="M167.53 350.728C167.816 352.51 168.469 354.212 169.449 355.727C170.429 357.242 171.713 358.537 173.22 359.528L226.27 390.128C229.08 391.748 231.83 390.478 232.4 387.278L236.78 363.108L164.58 321.448L167.53 350.728Z" fill="#E0E0E0"/>
<path opacity="0.1" d="M167.53 350.728C167.816 352.51 168.469 354.212 169.449 355.727C170.429 357.242 171.713 358.537 173.22 359.528L226.27 390.128C229.08 391.748 231.83 390.478 232.4 387.278L236.78 363.108L164.58 321.448L167.53 350.728Z" fill="black"/>
<path d="M84.5107 348.948L86.3207 366.608L158.511 408.268L162.071 393.728L84.5107 348.948Z" fill="#2274A5"/>
<path opacity="0.35" d="M84.5107 348.948L86.3207 366.608L158.511 408.268L162.071 393.728L84.5107 348.948Z" fill="black"/>
<path d="M244.141 358.839L247.701 344.299L162.071 393.729L158.511 408.269L244.141 358.839Z" fill="#2274A5"/>
<path opacity="0.1" d="M244.141 358.839L247.701 344.299L162.071 393.729L158.511 408.269L244.141 358.839Z" fill="black"/>
<path d="M247.701 327.689C247.7 322.668 246.378 317.736 243.868 313.388C241.358 309.041 237.748 305.43 233.401 302.919L185.581 275.309L166.461 264.309L80.8408 313.709L84.5108 348.949L162.071 393.729L247.701 344.289V327.689Z" fill="#455A64"/>
<path d="M166.46 264.278L80.8301 313.708L83.0201 334.518L104.73 327.508L190.35 278.068L166.46 264.278Z" fill="#37474F"/>
<path d="M80.8408 313.708L147.781 352.358C152.129 354.868 155.739 358.479 158.25 362.827C160.76 367.175 162.081 372.107 162.081 377.128V393.728L84.5108 348.948L80.8408 313.708Z" fill="#263238"/>
<path d="M177.08 190.189C176.607 185.706 175.08 181.399 172.625 177.619C170.169 173.838 166.854 170.693 162.95 168.439L156.44 164.679L70.7803 214.119L80.7803 313.709L95.4303 322.189C96.7984 322.979 98.3504 323.394 99.9303 323.394C101.51 323.394 103.062 322.979 104.43 322.189L176.88 280.359C179.461 278.869 181.557 276.666 182.916 274.014C184.275 271.362 184.839 268.374 184.54 265.409L177.08 190.189Z" fill="#455A64"/>
<path d="M162.95 168.439L156.44 164.679L70.7803 214.119L72.8403 233.729L171.84 176.559C169.49 173.249 166.459 170.48 162.95 168.439Z" fill="#37474F"/>
<path d="M77.3303 217.878L70.7803 214.118L80.7803 313.708L94.7803 321.788C95.2617 322.079 95.8153 322.229 96.3779 322.22C96.9404 322.212 97.4892 322.045 97.9616 321.74C98.434 321.434 98.8109 321.002 99.0494 320.493C99.2879 319.983 99.3783 319.417 99.3103 318.858L91.4003 239.628C90.9344 235.151 89.4171 230.847 86.972 227.067C84.5269 223.287 81.2232 220.139 77.3303 217.878Z" fill="#263238"/>
<path d="M174.72 163.788L173.48 151.948C172.8 145.488 167.97 137.778 162.69 134.728L153.13 129.188L67.1299 178.858L70.7799 214.118L80.3299 219.628C82.7499 221.028 84.8299 221.188 86.3299 220.358L172.33 170.688C174.15 169.698 175.09 167.288 174.72 163.788Z" fill="#455A64"/>
<path d="M67.1104 178.879L76.6703 184.389C81.9503 187.439 86.7803 195.189 87.4604 201.609L88.7003 213.449C89.3803 219.909 85.6504 222.679 80.3703 219.629L70.7803 214.119L67.1104 178.879Z" fill="#263238"/>
<path d="M86.7803 167.498L92.7803 170.938C95.4074 172.457 97.6776 174.523 99.4374 176.995C101.197 179.467 102.405 182.289 102.98 185.268L105.98 200.608L158.54 170.258L155.54 154.918C154.967 151.938 153.76 149.116 152 146.643C150.24 144.171 147.969 142.106 145.34 140.588L139.34 137.148L86.7803 167.498Z" fill="#EBEBEB"/>
<path d="M155.7 344.949C174.7 336.079 202.51 320.389 216.45 310.189C218.96 308.359 218.77 305.539 216.08 303.979L190.36 289.189C188.848 288.422 187.176 288.022 185.48 288.022C183.785 288.022 182.113 288.422 180.6 289.189C169.44 295.619 131.09 317.589 119.93 324.019C117.23 325.569 117.23 328.089 119.93 329.649L145.73 344.499C147.264 345.28 148.947 345.724 150.667 345.802C152.386 345.879 154.102 345.589 155.7 344.949Z" fill="#37474F"/>
<path d="M168.16 210.129C175.44 209.419 187.68 215.649 191.07 220.569C194.63 225.729 216.07 297.759 210.99 305.079C204.57 314.259 168.87 334.149 151.99 335.079C147.162 335.329 142.338 334.504 137.867 332.662C133.397 330.82 129.391 328.008 126.14 324.429C121.78 319.189 113.94 243.889 117.33 237.189C122.78 226.399 158.88 211.029 168.16 210.129Z" fill="#2274A5"/>
<path opacity="0.2" d="M168.16 210.129C175.44 209.419 187.68 215.649 191.07 220.569C194.63 225.729 216.07 297.759 210.99 305.079C204.57 314.259 168.87 334.149 151.99 335.079C147.162 335.329 142.338 334.504 137.867 332.662C133.397 330.82 129.391 328.008 126.14 324.429C121.78 319.189 113.94 243.889 117.33 237.189C122.78 226.399 158.88 211.029 168.16 210.129Z" fill="white"/>
<path opacity="0.1" d="M118.26 275.649C117.97 272.499 117.7 269.379 117.47 266.359C117.38 265.149 117.29 263.959 117.21 262.789C117.05 260.449 116.91 258.189 116.8 256.039C116.8 254.969 116.7 253.929 116.66 252.919C116.6 251.399 116.55 249.919 116.53 248.609C116.51 247.299 116.53 245.999 116.53 244.839C116.53 244.449 116.53 244.079 116.53 243.709C116.61 240.449 116.86 238.149 117.34 237.209C117.49 236.909 117.68 236.599 117.88 236.279L118.09 235.969C118.24 235.759 118.39 235.549 118.56 235.339L118.86 234.959C119.02 234.759 119.2 234.559 119.38 234.359C119.56 234.159 119.6 234.099 119.72 233.979L120.59 233.099L121.2 232.539L121.62 232.159C121.85 231.949 122.1 231.749 122.34 231.539L122.71 231.229C122.98 231.009 123.26 230.779 123.55 230.559C130.5 232.479 131.24 232.119 131.44 232.209C133.868 233.354 135.959 235.106 137.511 237.296C139.063 239.486 140.024 242.039 140.3 244.709L146.3 281.949L146.88 285.479C147.59 290.429 159.69 335.599 143.81 334.239H143.18C132.25 331.769 128.18 326.949 126.12 324.439C125.628 323.692 125.266 322.867 125.05 321.999C124.89 321.519 124.74 320.999 124.59 320.399L124.35 319.469C124.12 318.469 123.88 317.469 123.64 316.249C123.56 315.849 123.48 315.449 123.4 315.029C122.2 308.789 120.96 300.129 119.86 290.839C119.64 288.979 119.43 287.089 119.23 285.199C119.09 283.939 118.96 282.669 118.83 281.399C118.76 280.759 118.7 280.129 118.63 279.489L118.26 275.649Z" fill="black"/>
<path opacity="0.4" d="M116.61 241.459C116.612 240.012 116.856 238.576 117.33 237.209C122.81 226.399 158.88 211.029 168.16 210.129C175.44 209.419 187.67 215.649 191.07 220.569C192.173 222.67 193.087 224.866 193.8 227.129C180.34 235.309 145.17 253.919 141.09 252.959C136.09 251.789 117.09 242.049 116.62 241.479L116.61 241.459Z" fill="black"/>
<path d="M164.78 293.549C171.99 289.659 187.78 279.429 192.25 277.049C193.034 276.556 193.924 276.259 194.846 276.183C195.769 276.106 196.696 276.252 197.55 276.609C198.3 276.989 200.91 278.319 201.55 278.609C202.078 278.826 202.543 279.17 202.905 279.612C203.266 280.054 203.512 280.578 203.62 281.139C204.99 288.999 205.71 292.229 205.94 296.049C206.1 298.659 205.94 301.049 202.17 304.049C198.4 307.049 181.62 317.329 176.61 320.049C171.89 322.659 166.74 324.719 164.33 323.429C163.7 323.089 160.88 321.759 160.13 321.369C159.75 321.153 159.428 320.846 159.194 320.477C158.961 320.107 158.822 319.685 158.79 319.249C158.22 315.249 156.7 306.629 156.2 303.699C155.66 300.189 157.21 297.669 164.78 293.549Z" fill="#2274A5"/>
<path opacity="0.3" d="M164.78 293.549C171.99 289.659 187.78 279.429 192.25 277.049C193.034 276.556 193.924 276.259 194.846 276.183C195.769 276.106 196.696 276.252 197.55 276.609C198.3 276.989 200.91 278.319 201.55 278.609C202.078 278.826 202.543 279.17 202.905 279.612C203.266 280.054 203.512 280.578 203.62 281.139C204.99 288.999 205.71 292.229 205.94 296.049C206.1 298.659 205.94 301.049 202.17 304.049C198.4 307.049 181.62 317.329 176.61 320.049C171.89 322.659 166.74 324.719 164.33 323.429C163.7 323.089 160.88 321.759 160.13 321.369C159.75 321.153 159.428 320.846 159.194 320.477C158.961 320.107 158.822 319.685 158.79 319.249C158.22 315.249 156.7 306.629 156.2 303.699C155.66 300.189 157.21 297.669 164.78 293.549Z" fill="black"/>
<path opacity="0.4" d="M160.69 302.529L156.46 300.629C157.23 298.439 159.6 296.369 164.82 293.549C172.03 289.659 187.82 279.429 192.29 277.049C193.074 276.556 193.964 276.259 194.886 276.183C195.809 276.106 196.736 276.252 197.59 276.609C198.34 276.989 200.95 278.319 201.59 278.609C202.386 278.951 203.033 279.569 203.41 280.349L160.69 302.529Z" fill="black"/>
<path d="M203.69 281.188C205.06 289.048 205.78 292.278 206.01 296.098C206.17 298.708 206.01 301.098 202.24 304.098C198.47 307.098 181.69 317.378 176.68 320.098C170.55 323.488 163.68 325.978 163.03 321.358C162.46 317.358 160.94 308.738 160.44 305.818C159.83 302.198 161.38 299.678 168.99 295.568C176.2 291.668 191.99 281.438 196.46 279.058C200.23 277.098 203.27 278.788 203.69 281.188Z" fill="#2274A5"/>
<path opacity="0.18" d="M203.69 281.188C205.06 289.048 205.78 292.278 206.01 296.098C206.17 298.708 206.01 301.098 202.24 304.098C198.47 307.098 181.69 317.378 176.68 320.098C170.55 323.488 163.68 325.978 163.03 321.358C162.46 317.358 160.94 308.738 160.44 305.818C159.83 302.198 161.38 299.678 168.99 295.568C176.2 291.668 191.99 281.438 196.46 279.058C200.23 277.098 203.27 278.788 203.69 281.188Z" fill="black"/>
<path d="M156.46 300.628C157.03 298.528 161.01 299.788 162.18 302.488C163.35 305.188 163.69 308.848 164.24 310.018C164.79 311.188 204.1 287.768 205.11 286.478C205.58 285.878 204.28 279.268 202.63 278.128C200.98 276.988 197.27 275.028 195.01 275.538C192.75 276.048 168.92 290.428 164.24 292.968C159.56 295.508 155.92 298.058 156.46 300.628Z" fill="#2274A5"/>
<path opacity="0.1" d="M156.46 300.628C157.03 298.528 161.01 299.788 162.18 302.488C163.35 305.188 163.69 308.848 164.24 310.018C164.79 311.188 204.1 287.768 205.11 286.478C205.58 285.878 204.28 279.268 202.63 278.128C200.98 276.988 197.27 275.028 195.01 275.538C192.75 276.048 168.92 290.428 164.24 292.968C159.56 295.508 155.92 298.058 156.46 300.628Z" fill="black"/>
<path d="M176.83 306.998L172.07 309.598C171.944 309.673 171.803 309.72 171.657 309.735C171.512 309.749 171.364 309.732 171.226 309.683C171.087 309.634 170.961 309.556 170.857 309.453C170.752 309.35 170.671 309.226 170.62 309.088L169.76 306.818C169.676 306.567 169.681 306.295 169.773 306.047C169.866 305.8 170.042 305.592 170.27 305.458L175.05 302.778C175.174 302.706 175.312 302.661 175.455 302.647C175.598 302.633 175.742 302.65 175.877 302.697C176.013 302.743 176.137 302.818 176.241 302.917C176.345 303.015 176.427 303.135 176.48 303.268L177.36 305.638C177.441 305.891 177.432 306.164 177.336 306.412C177.24 306.66 177.061 306.866 176.83 306.998Z" fill="#37474F"/>
<path d="M200.25 292.979L195.49 295.589C195.364 295.664 195.223 295.71 195.077 295.725C194.932 295.74 194.784 295.722 194.646 295.673C194.507 295.625 194.381 295.546 194.277 295.444C194.172 295.341 194.091 295.216 194.04 295.079L193.18 292.809C193.096 292.555 193.102 292.281 193.197 292.031C193.291 291.782 193.469 291.572 193.7 291.439L198.47 288.759C198.595 288.687 198.733 288.643 198.877 288.629C199.02 288.616 199.164 288.634 199.3 288.681C199.436 288.728 199.559 288.805 199.663 288.904C199.767 289.004 199.848 289.125 199.9 289.259L200.78 291.629C200.862 291.88 200.854 292.153 200.758 292.399C200.661 292.645 200.482 292.85 200.25 292.979Z" fill="#37474F"/>
<path opacity="0.15" d="M203.781 260.309C202.251 254.609 201.301 250.719 199.781 245.949C197.581 244.689 194.551 243.129 194.551 243.129L177.201 249.309L160.981 255.089L157.291 256.409C156.141 256.819 155.001 257.529 153.851 257.849C150.851 258.689 146.091 256.589 143.601 255.079C141.111 253.569 139.601 252.079 136.601 251.619C137.527 256.819 138.497 262.012 139.511 267.199C140.511 272.079 141.031 277.049 143.361 281.629C143.993 282.842 144.894 283.895 145.994 284.707C147.094 285.52 148.365 286.071 149.711 286.319C152.966 286.792 156.28 286.667 159.491 285.949C159.491 285.949 160.391 290.329 161.141 292.479C162.242 294.102 163.906 295.26 165.811 295.729C168.571 294.979 167.421 283.079 167.421 283.079L187.651 272.079C187.651 272.079 188.831 276.329 189.711 278.399C191.061 280.009 193.511 281.759 194.321 281.549C197.811 280.629 195.011 267.869 195.011 267.869C195.011 267.869 201.061 264.499 203.781 260.309Z" fill="black"/>
<path d="M168.91 210.059C176.91 209.379 186.51 213.369 191.52 218.719C196.53 224.069 205.18 251.499 203.01 256.619C200.84 261.739 180.1 273.989 167.38 280.189C157.22 285.099 151.58 284.189 147.15 282.409C143.81 281.069 143.25 276.409 142.49 272.959C140.49 264.079 137.57 248.139 130.74 243.409C123.91 238.679 117.74 237.409 116.62 241.529C116.62 241.529 113.87 235.749 125.24 228.969C144.07 217.679 159.05 210.899 168.91 210.059Z" fill="#2274A5"/>
<path opacity="0.1" d="M168.91 210.059C176.91 209.379 186.51 213.369 191.52 218.719C196.53 224.069 205.18 251.499 203.01 256.619C200.84 261.739 180.1 273.989 167.38 280.189C157.22 285.099 151.58 284.189 147.15 282.409C143.81 281.069 143.25 276.409 142.49 272.959C140.49 264.079 137.57 248.139 130.74 243.409C123.91 238.679 117.74 237.409 116.62 241.529C116.62 241.529 113.87 235.749 125.24 228.969C144.07 217.679 159.05 210.899 168.91 210.059Z" fill="black"/>
<path d="M176.781 235.578L168.781 231.888C168.406 231.702 167.976 231.662 167.573 231.774C167.171 231.887 166.824 232.145 166.601 232.498L159.971 244.948C159.882 245.13 159.833 245.328 159.825 245.53C159.818 245.732 159.852 245.934 159.926 246.122C160.001 246.31 160.113 246.48 160.257 246.623C160.4 246.765 160.572 246.876 160.761 246.948L168.671 250.678C169.04 250.873 169.469 250.92 169.872 250.81C170.274 250.701 170.62 250.443 170.841 250.088L177.571 237.568C177.659 237.387 177.708 237.19 177.716 236.988C177.723 236.787 177.689 236.586 177.614 236.399C177.54 236.212 177.427 236.042 177.284 235.901C177.14 235.76 176.969 235.65 176.781 235.578Z" fill="#FAFAFA"/>
<path d="M169.9 249.189L176.28 237.329C176.324 237.238 176.349 237.138 176.352 237.037C176.356 236.936 176.338 236.835 176.301 236.741C176.263 236.647 176.206 236.561 176.134 236.491C176.062 236.42 175.975 236.365 175.88 236.329L168.63 232.989C168.446 232.892 168.232 232.87 168.031 232.925C167.831 232.981 167.659 233.111 167.55 233.289L161.25 245.189C161.208 245.28 161.185 245.379 161.182 245.48C161.179 245.581 161.197 245.681 161.235 245.775C161.272 245.869 161.328 245.954 161.4 246.025C161.471 246.096 161.557 246.152 161.65 246.189L168.82 249.569C169.014 249.659 169.236 249.669 169.438 249.598C169.639 249.527 169.806 249.38 169.9 249.189Z" fill="#37474F"/>
<path d="M170.97 243.618C171.155 243.511 171.311 243.359 171.421 243.175C171.531 242.991 171.593 242.783 171.6 242.568L171.05 236.998C171.05 236.638 170.68 236.518 170.3 236.738C170.117 236.847 169.964 237.001 169.855 237.184C169.747 237.368 169.687 237.575 169.68 237.788L170.22 243.358C170.26 243.718 170.59 243.838 170.97 243.618Z" fill="#2274A5"/>
<path d="M167.141 245.829C167.326 245.722 167.481 245.569 167.592 245.385C167.702 245.202 167.764 244.993 167.771 244.779L167.231 239.209C167.231 238.849 166.851 238.739 166.481 238.949C166.295 239.056 166.14 239.208 166.029 239.392C165.919 239.576 165.858 239.785 165.851 239.999L166.391 245.569C166.431 245.929 166.781 246.049 167.141 245.829Z" fill="#2274A5"/>
<path d="M164.47 265.078L157.78 268.188C157.78 268.188 161.53 283.758 162.78 291.448C162.78 291.448 165 294.618 166.65 295.038C168.3 295.458 169.72 291.558 169.59 288.748C169.46 285.938 166.33 271.668 164.47 265.078Z" fill="#455A64"/>
<path d="M164.93 266.579L158.04 269.479C157.862 269.567 157.665 269.614 157.466 269.617C157.267 269.619 157.069 269.577 156.888 269.494C156.707 269.411 156.547 269.288 156.419 269.135C156.292 268.982 156.2 268.802 156.15 268.609L155.34 265.459C155.268 265.102 155.32 264.731 155.487 264.407C155.655 264.083 155.927 263.827 156.26 263.679L163.17 260.679C163.345 260.587 163.539 260.536 163.736 260.53C163.934 260.524 164.13 260.564 164.31 260.646C164.489 260.728 164.648 260.85 164.773 261.004C164.898 261.157 164.986 261.336 165.03 261.529L165.86 264.819C165.933 265.175 165.879 265.544 165.71 265.865C165.54 266.186 165.265 266.438 164.93 266.579Z" fill="#37474F"/>
<path d="M165.53 285.719C165.01 285.992 164.586 286.417 164.311 286.936C164.036 287.455 163.924 288.045 163.99 288.629C164.016 288.875 164.102 289.112 164.242 289.317C164.381 289.523 164.568 289.691 164.788 289.806C165.007 289.922 165.252 289.982 165.5 289.98C165.748 289.979 165.992 289.917 166.21 289.799C166.743 289.538 167.181 289.118 167.462 288.596C167.744 288.074 167.855 287.477 167.78 286.889C167.761 286.635 167.678 286.391 167.538 286.178C167.399 285.966 167.207 285.793 166.981 285.676C166.756 285.559 166.504 285.501 166.25 285.508C165.996 285.516 165.748 285.588 165.53 285.719Z" fill="#E0E0E0"/>
<path d="M192.17 251.099L185.63 254.479C185.63 254.479 189.16 269.869 190.85 277.479C190.85 277.479 193.24 280.549 194.91 280.879C196.58 281.209 197.77 277.259 197.48 274.459C196.251 266.559 194.476 258.754 192.17 251.099Z" fill="#455A64"/>
<path d="M192.71 252.589L186.02 255.809C185.843 255.903 185.648 255.958 185.449 255.968C185.249 255.979 185.049 255.945 184.864 255.87C184.679 255.794 184.512 255.679 184.377 255.532C184.241 255.385 184.14 255.21 184.08 255.019L183.08 251.909C182.983 251.559 183.011 251.186 183.159 250.854C183.307 250.522 183.565 250.252 183.89 250.089L190.6 246.759C190.771 246.662 190.963 246.605 191.159 246.593C191.356 246.58 191.553 246.612 191.735 246.686C191.918 246.76 192.082 246.874 192.214 247.02C192.346 247.166 192.444 247.34 192.5 247.529L193.5 250.789C193.589 251.134 193.559 251.499 193.416 251.826C193.273 252.152 193.024 252.421 192.71 252.589Z" fill="#37474F"/>
<path d="M193.31 271.699C192.8 271.996 192.394 272.444 192.149 272.982C191.904 273.519 191.831 274.119 191.94 274.699C191.979 274.945 192.077 275.177 192.226 275.376C192.375 275.575 192.571 275.734 192.796 275.839C193.021 275.945 193.268 275.994 193.517 275.982C193.765 275.969 194.007 275.896 194.22 275.769C194.734 275.476 195.141 275.028 195.386 274.489C195.63 273.95 195.698 273.348 195.58 272.769C195.55 272.52 195.458 272.282 195.311 272.079C195.164 271.875 194.968 271.712 194.741 271.605C194.514 271.498 194.264 271.451 194.014 271.467C193.763 271.483 193.521 271.563 193.31 271.699Z" fill="#E0E0E0"/>
<path d="M114.3 292.678C114.7 292.438 120.42 287.618 121.11 287.218C122.32 286.518 143.11 296.618 145.18 298.448C146.62 299.728 148.03 321.028 147.53 322.588C147.34 323.158 140.9 327.488 140.71 328.048C140.21 329.618 118.32 319.398 116.62 316.648C114.92 313.898 112.51 293.708 114.3 292.678Z" fill="#2274A5"/>
<path opacity="0.18" d="M114.3 292.678C114.7 292.438 120.42 287.618 121.11 287.218C122.32 286.518 143.11 296.618 145.18 298.448C146.62 299.728 148.03 321.028 147.53 322.588C147.34 323.158 140.9 327.488 140.71 328.048C140.21 329.618 118.32 319.398 116.62 316.648C114.92 313.898 112.51 293.708 114.3 292.678Z" fill="black"/>
<path d="M138.37 303.909C139.81 305.179 141.22 326.489 140.71 328.049C140.2 329.609 118.32 319.399 116.62 316.649C114.92 313.899 112.51 293.709 114.3 292.649C115.51 291.969 136.31 302.079 138.37 303.909Z" fill="#2274A5"/>
<path opacity="0.4" d="M121.1 287.189C120.42 287.579 114.71 292.419 114.3 292.639C115.51 291.949 136.3 302.059 138.37 303.879L145.18 298.429C143.12 296.619 122.32 286.509 121.1 287.189Z" fill="black"/>
<path opacity="0.3" d="M138.37 303.909C139.81 305.179 141.22 326.489 140.71 328.049C140.2 329.609 118.32 319.399 116.62 316.649C114.92 313.899 112.51 293.709 114.3 292.649C115.51 291.969 136.31 302.079 138.37 303.909Z" fill="black"/>
<path d="M145.18 298.458C143.64 297.728 139.73 300.089 138.13 301.639C136.53 303.189 135.58 309.979 131.03 311.389C126.48 312.799 118.96 307.698 117.03 304.208C115.1 300.718 112.24 293.278 114.1 290.408C115.031 288.896 116.45 287.747 118.123 287.15C119.796 286.554 121.622 286.546 123.3 287.128C126.87 288.498 144.26 295.188 145.18 298.458Z" fill="#2274A5"/>
<path opacity="0.2" d="M145.18 298.458C143.64 297.728 139.73 300.089 138.13 301.639C136.53 303.189 135.58 309.979 131.03 311.389C126.48 312.799 118.96 307.698 117.03 304.208C115.1 300.718 112.24 293.278 114.1 290.408C115.031 288.896 116.45 287.747 118.123 287.15C119.796 286.554 121.622 286.546 123.3 287.128C126.87 288.498 144.26 295.188 145.18 298.458Z" fill="black"/>
<path d="M124.43 303.008C124.999 303.242 125.494 303.626 125.862 304.119C126.231 304.612 126.458 305.196 126.52 305.808C126.52 306.928 125.67 307.498 124.52 307.098C123.947 306.87 123.449 306.488 123.08 305.993C122.711 305.499 122.486 304.913 122.43 304.298C122.399 304.052 122.438 303.801 122.544 303.576C122.649 303.35 122.815 303.159 123.024 303.024C123.233 302.889 123.476 302.816 123.725 302.814C123.974 302.811 124.218 302.878 124.43 303.008Z" fill="#37474F"/>
<path d="M138.66 228.709C137.55 229.349 134 227.939 133.42 227.199C132.84 226.459 132.07 219.919 134.26 216.199C136.45 212.479 151.64 205.389 155.6 205.769C158.57 206.094 161.31 207.521 163.28 209.769C163.86 210.689 164.98 216.769 164.08 218.039C163.18 219.309 159.38 217.509 159.01 216.979C158.64 216.449 159.72 211.979 157.07 211.109C154.67 210.339 144.07 214.869 139.88 218.399C138.07 219.929 138.53 223.599 138.79 225.399C139.05 227.199 139.22 228.379 138.66 228.709Z" fill="#37474F"/>
<path d="M156.11 211.018C158.88 210.688 161.53 210.838 162.45 213.348C163.37 215.858 163.34 218.128 162.94 218.458C161.513 218.346 160.149 217.826 159.01 216.958C158.64 216.428 159.72 211.958 157.07 211.088C156.745 210.999 156.405 210.975 156.07 211.018H156.11Z" fill="#263238"/>
<path d="M64.3604 302.519C64.3961 302.154 64.5278 301.806 64.7421 301.509C64.9564 301.212 65.2457 300.977 65.5803 300.829L76.2403 294.669C77.1507 294.21 78.1559 293.971 79.1754 293.971C80.1948 293.971 81.2 294.21 82.1104 294.669L150.95 334.399C151.289 334.541 151.583 334.774 151.798 335.072C152.013 335.37 152.142 335.722 152.17 336.089V339.269C152.138 339.635 152.008 339.987 151.794 340.286C151.579 340.585 151.288 340.821 150.95 340.969L140.29 347.119C139.381 347.582 138.376 347.824 137.355 347.824C136.335 347.824 135.329 347.582 134.42 347.119L65.5803 307.399C65.2457 307.25 64.9564 307.015 64.7421 306.718C64.5278 306.422 64.3961 306.073 64.3604 305.709V302.519Z" fill="#2274A5"/>
<g opacity="0.1">
<path d="M64.3604 302.519C64.3961 302.154 64.5278 301.806 64.7421 301.509C64.9564 301.212 65.2457 300.977 65.5803 300.829L76.2403 294.669C77.1507 294.21 78.1559 293.971 79.1754 293.971C80.1948 293.971 81.2 294.21 82.1104 294.669L150.95 334.399C151.289 334.541 151.583 334.774 151.798 335.072C152.013 335.37 152.142 335.722 152.17 336.089V339.269C152.138 339.635 152.008 339.987 151.794 340.286C151.579 340.585 151.288 340.821 150.95 340.969L140.29 347.119C139.381 347.582 138.376 347.824 137.355 347.824C136.335 347.824 135.329 347.582 134.42 347.119L65.5803 307.399C65.2457 307.25 64.9564 307.015 64.7421 306.718C64.5278 306.422 64.3961 306.073 64.3604 305.709V302.519Z" fill="black"/>
</g>
<path d="M65.5803 300.829L76.2403 294.669C77.1507 294.21 78.1559 293.971 79.1754 293.971C80.1948 293.971 81.2 294.21 82.1104 294.669L137.36 326.539V347.829C136.336 347.847 135.324 347.602 134.42 347.119L65.5803 307.399C65.2457 307.25 64.9564 307.015 64.7421 306.718C64.5278 306.422 64.3961 306.073 64.3604 305.709V302.519C64.3961 302.154 64.5278 301.806 64.7421 301.509C64.9564 301.212 65.2457 300.977 65.5803 300.829Z" fill="#2274A5"/>
<g opacity="0.35">
<path d="M65.5803 300.829L76.2403 294.669C77.1507 294.21 78.1559 293.971 79.1754 293.971C80.1948 293.971 81.2 294.21 82.1104 294.669L137.36 326.539V347.829C136.336 347.847 135.324 347.602 134.42 347.119L65.5803 307.399C65.2457 307.25 64.9564 307.015 64.7421 306.718C64.5278 306.422 64.3961 306.073 64.3604 305.709V302.519C64.3961 302.154 64.5278 301.806 64.7421 301.509C64.9564 301.212 65.2457 300.977 65.5803 300.829Z" fill="black"/>
</g>
<path d="M149.12 326.959L83.7804 289.189C82.7104 288.565 81.494 288.236 80.2554 288.236C79.0169 288.236 77.8005 288.565 76.7304 289.189L70.7304 292.669C66.5004 295.099 64.8704 295.739 64.5204 297.949C64.5204 298.279 64.4404 302.069 64.4404 302.479C64.4651 302.838 64.5833 303.185 64.7832 303.485C64.9832 303.785 65.258 304.028 65.5804 304.189L134.42 343.909C135.329 344.372 136.335 344.614 137.355 344.614C138.376 344.614 139.382 344.372 140.29 343.909L150.95 337.759C151.288 337.611 151.579 337.375 151.794 337.076C152.008 336.777 152.138 336.425 152.17 336.059C152.17 335.659 152.17 331.879 152.17 331.539C152.04 329.189 151.45 328.299 149.12 326.959Z" fill="#37474F"/>
<path d="M83.31 289.818L149.38 327.938C149.698 328.083 149.973 328.309 150.176 328.594C150.38 328.878 150.505 329.21 150.54 329.558C150.507 329.908 150.382 330.243 150.178 330.529C149.975 330.815 149.699 331.042 149.38 331.188L139.47 336.908C138.499 337.393 137.43 337.645 136.345 337.645C135.26 337.645 134.191 337.393 133.22 336.908L67.16 298.788C66.8175 298.676 66.5192 298.459 66.3078 298.167C66.0963 297.875 65.9824 297.524 65.9824 297.163C65.9824 296.803 66.0963 296.452 66.3078 296.16C66.5192 295.868 66.8175 295.651 67.16 295.538L77.06 289.818C78.0306 289.334 79.1004 289.082 80.185 289.082C81.2696 289.082 82.3394 289.334 83.31 289.818Z" fill="#455A64"/>
<path d="M268.09 446.278C266.349 446.312 264.628 445.902 263.09 445.088L241.31 432.548C240.65 432.306 240.081 431.867 239.679 431.291C239.277 430.715 239.062 430.03 239.062 429.328C239.062 428.625 239.277 427.94 239.679 427.364C240.081 426.788 240.65 426.35 241.31 426.108L338.78 369.808C340.339 369.019 342.062 368.607 343.81 368.607C345.557 368.607 347.28 369.019 348.84 369.808L370.54 382.348C371.199 382.59 371.768 383.028 372.17 383.604C372.572 384.18 372.788 384.865 372.788 385.568C372.788 386.27 372.572 386.955 372.17 387.531C371.768 388.107 371.199 388.546 370.54 388.788L273.1 445.078C271.558 445.894 269.834 446.306 268.09 446.278ZM241.56 426.588L241.84 427.058C241.352 427.204 240.924 427.504 240.619 427.913C240.315 428.322 240.151 428.818 240.151 429.328C240.151 429.837 240.315 430.333 240.619 430.742C240.924 431.151 241.352 431.451 241.84 431.598L263.62 444.188C265.014 444.897 266.556 445.267 268.12 445.267C269.684 445.267 271.226 444.897 272.62 444.188L370.06 387.898C370.548 387.751 370.976 387.451 371.28 387.042C371.584 386.633 371.749 386.137 371.749 385.628C371.749 385.118 371.584 384.622 371.28 384.213C370.976 383.804 370.548 383.504 370.06 383.358L348.35 370.818C346.954 370.114 345.413 369.748 343.85 369.748C342.287 369.748 340.746 370.114 339.35 370.818L241.84 427.118L241.56 426.588Z" fill="#2274A5"/>
<path d="M267.009 436.608C266.402 436.885 265.71 436.917 265.079 436.698C264.876 436.568 264.721 436.375 264.639 436.148C264.529 435.888 264.549 435.718 264.639 435.628C264.816 435.562 265.001 435.522 265.189 435.508C265.659 435.418 266.049 435.328 266.369 435.238C266.722 435.148 267.059 435.007 267.369 434.818C267.576 434.729 267.759 434.592 267.902 434.418C268.045 434.244 268.143 434.038 268.189 433.818C268.189 433.448 267.929 433.078 267.299 432.718C266.726 432.365 266.063 432.181 265.389 432.188C264.682 432.221 263.995 432.431 263.389 432.798L262.779 433.158C262.625 433.245 262.446 433.28 262.269 433.258C262.036 433.214 261.813 433.13 261.609 433.008L261.359 432.858C261.099 432.708 260.959 432.588 260.919 432.478C260.879 432.368 260.919 432.278 261.089 432.188L261.579 431.908C262.139 431.578 262.419 431.228 262.389 430.908C262.365 430.704 262.287 430.51 262.164 430.345C262.042 430.18 261.878 430.05 261.689 429.968C261.267 429.722 260.788 429.587 260.299 429.578C259.775 429.567 259.258 429.706 258.809 429.978C258.554 430.109 258.323 430.286 258.129 430.498C258.008 430.642 257.904 430.799 257.819 430.968C257.785 431.075 257.723 431.172 257.639 431.248C257.354 431.324 257.054 431.324 256.769 431.248C256.423 431.227 256.084 431.143 255.769 430.998C255.439 430.798 255.459 430.478 255.839 429.998C257.079 428.688 258.778 427.907 260.579 427.818C261.628 427.767 262.668 428.017 263.579 428.538C264.056 428.766 264.433 429.161 264.639 429.648C264.7 429.855 264.711 430.073 264.671 430.285C264.631 430.497 264.541 430.697 264.409 430.868H264.479C265.312 430.635 266.181 430.567 267.039 430.668C267.898 430.765 268.727 431.033 269.479 431.458C270.076 431.758 270.57 432.228 270.899 432.808C271.018 433.024 271.08 433.267 271.08 433.513C271.08 433.759 271.018 434.002 270.899 434.218C270.56 434.765 270.08 435.211 269.509 435.508C268.721 435.969 267.882 436.338 267.009 436.608Z" fill="#455A64"/>
<path d="M273.54 432.587C273.22 432.495 272.911 432.368 272.62 432.207C272.5 432.137 272.44 432.077 272.44 432.017L270.78 426.767C270.677 426.415 270.525 426.078 270.33 425.767C270.158 425.529 269.936 425.33 269.68 425.187C269.256 424.941 268.769 424.823 268.28 424.847C267.764 424.87 267.262 425.021 266.82 425.287C266.54 425.434 266.295 425.639 266.1 425.887C265.954 426.099 265.833 426.328 265.74 426.567C265.71 426.701 265.64 426.824 265.54 426.917C265.251 427.033 264.936 427.068 264.63 427.017C264.302 427 263.982 426.914 263.69 426.767C263.563 426.708 263.463 426.602 263.413 426.472C263.363 426.341 263.365 426.196 263.42 426.067C263.563 425.679 263.804 425.335 264.12 425.067C264.505 424.706 264.931 424.391 265.39 424.127C266.386 423.526 267.517 423.182 268.68 423.127C269.726 423.078 270.766 423.324 271.68 423.837C272.133 424.08 272.526 424.422 272.83 424.837C273.147 425.339 273.371 425.895 273.49 426.477L274.78 430.277L278.44 428.157C278.594 428.07 278.773 428.035 278.95 428.057C279.184 428.1 279.409 428.188 279.61 428.317L279.86 428.457C280.11 428.607 280.26 428.727 280.3 428.837C280.34 428.947 280.3 429.037 280.12 429.127L274.23 432.537C274.011 432.628 273.769 432.645 273.54 432.587Z" fill="#455A64"/>
<path d="M301.06 414.408C299.482 414.199 297.968 413.654 296.62 412.808C295.03 411.898 294.14 411.038 293.94 410.258C293.74 409.478 294.25 408.728 295.45 408.038C295.89 407.779 296.36 407.574 296.85 407.428C297.005 407.394 297.165 407.394 297.32 407.428C297.467 407.45 297.607 407.504 297.73 407.588C297.967 407.712 298.173 407.89 298.33 408.108C298.46 408.298 298.42 408.428 298.18 408.478C297.781 408.571 297.398 408.719 297.04 408.918C296.43 409.268 296.25 409.688 296.47 410.158C296.98 410.874 297.67 411.443 298.47 411.808C299.351 412.349 300.318 412.735 301.33 412.948C302.079 413.089 302.855 412.962 303.52 412.588C303.681 412.497 303.831 412.39 303.97 412.268C304.09 412.158 304.2 412.038 304.33 411.898L304.42 411.808C304.626 411.729 304.854 411.729 305.06 411.808C305.354 411.882 305.637 411.996 305.9 412.148C306.002 412.196 306.086 412.277 306.14 412.378C306.14 412.448 306.14 412.548 306.06 412.658C305.932 412.822 305.784 412.969 305.62 413.098C305.395 413.277 305.157 413.441 304.91 413.588C303.743 414.256 302.397 414.543 301.06 414.408Z" fill="#455A64"/>
<path d="M285.92 418.277L281.4 420.887C280.3 421.527 280.4 422.637 281.71 423.367L286.03 425.867L294.54 420.957L290.22 418.457C289.566 418.096 288.837 417.891 288.091 417.86C287.345 417.828 286.601 417.971 285.92 418.277Z" fill="#455A64"/>
<path d="M282.78 416.328C284.09 417.078 284.09 418.328 282.78 419.058C282.047 419.428 281.237 419.621 280.415 419.621C279.594 419.621 278.784 419.428 278.05 419.058C276.75 418.298 276.75 417.058 278.05 416.328C278.782 415.953 279.593 415.758 280.415 415.758C281.238 415.758 282.048 415.953 282.78 416.328Z" fill="#455A64"/>
<path d="M311.28 412.768L302.57 417.768C301.621 418.246 300.573 418.495 299.51 418.495C298.447 418.495 297.399 418.246 296.45 417.768L287.74 412.768C286.05 411.768 286.05 410.208 287.74 409.228L296.45 404.228C297.398 403.745 298.446 403.493 299.51 403.493C300.574 403.493 301.622 403.745 302.57 404.228L311.28 409.228C312.97 410.188 312.97 411.798 311.28 412.768ZM288.86 409.878C288.629 409.961 288.43 410.113 288.289 410.313C288.148 410.514 288.072 410.753 288.072 410.998C288.072 411.243 288.148 411.482 288.289 411.683C288.43 411.883 288.629 412.035 288.86 412.118L297.57 417.118C298.171 417.423 298.836 417.583 299.51 417.583C300.184 417.583 300.849 417.423 301.45 417.118L310.16 412.118C310.391 412.035 310.59 411.883 310.731 411.683C310.872 411.482 310.948 411.243 310.948 410.998C310.948 410.753 310.872 410.514 310.731 410.313C310.59 410.113 310.391 409.961 310.16 409.878L301.45 404.878C300.849 404.572 300.184 404.413 299.51 404.413C298.836 404.413 298.171 404.572 297.57 404.878L288.86 409.878Z" fill="#455A64"/>
<path d="M318.5 405.417C318.33 405.409 318.165 405.357 318.02 405.267L309.71 400.467C309.54 400.367 309.45 400.277 309.45 400.187C309.45 400.097 309.52 400.017 309.68 399.927L312.03 398.577C312.821 398.087 313.721 397.802 314.65 397.747C315.474 397.715 316.289 397.92 317 398.337C317.421 398.542 317.77 398.87 318 399.277C318.08 399.434 318.118 399.609 318.109 399.784C318.101 399.96 318.046 400.13 317.95 400.277H318.01C318.585 400.111 319.185 400.054 319.78 400.107C320.451 400.153 321.102 400.355 321.68 400.697C322.51 401.177 322.91 401.697 322.87 402.247C322.83 402.797 322.33 403.357 321.36 403.917L318.99 405.287C318.842 405.376 318.672 405.421 318.5 405.417ZM315.86 400.817C316.18 400.627 316.33 400.417 316.28 400.187C316.23 399.957 316.01 399.727 315.61 399.487C315.259 399.271 314.861 399.141 314.45 399.107C314.097 399.107 313.751 399.204 313.45 399.387L312.36 400.007L314.82 401.437L315.86 400.817ZM320.07 403.037C320.8 402.617 320.7 402.147 319.78 401.607C319.406 401.376 318.98 401.242 318.54 401.217C318.12 401.212 317.707 401.327 317.35 401.547L316.16 402.227L318.81 403.757L320.07 403.037Z" fill="#455A64"/>
<path d="M328.229 402.987L319.519 407.987C318.57 408.47 317.52 408.722 316.454 408.722C315.389 408.722 314.339 408.47 313.389 407.987L304.689 402.987C302.999 401.987 302.999 400.427 304.689 399.447L313.389 394.447C314.34 393.969 315.39 393.72 316.454 393.72C317.519 393.72 318.568 393.969 319.519 394.447L328.229 399.447C329.919 400.427 329.919 402.007 328.229 402.987ZM305.779 400.097C305.544 400.175 305.339 400.326 305.194 400.527C305.049 400.728 304.971 400.969 304.971 401.217C304.971 401.465 305.049 401.707 305.194 401.908C305.339 402.109 305.544 402.259 305.779 402.337L314.489 407.337C315.09 407.643 315.755 407.802 316.429 407.802C317.104 407.802 317.768 407.643 318.369 407.337L327.069 402.337C327.305 402.259 327.51 402.109 327.655 401.908C327.8 401.707 327.878 401.465 327.878 401.217C327.878 400.969 327.8 400.728 327.655 400.527C327.51 400.326 327.305 400.175 327.069 400.097L318.359 395.097C317.759 394.796 317.096 394.64 316.424 394.64C315.753 394.64 315.09 394.796 314.489 395.097L305.779 400.097Z" fill="#455A64"/>
<path d="M334.67 395.937L334.48 395.797L328.14 389.627C327.97 389.467 328.14 389.267 328.52 389.017L329.23 388.617C329.381 388.506 329.553 388.428 329.735 388.388C329.918 388.349 330.107 388.348 330.29 388.387L340.96 392.047L341.21 392.167C341.39 392.267 341.29 392.427 340.93 392.627L340.4 392.937C340.278 393.031 340.138 393.1 339.988 393.137C339.838 393.175 339.683 393.182 339.53 393.157L337.29 392.347L334.98 393.677L336.37 394.977C336.5 395.087 336.37 395.247 336.05 395.447L335.52 395.757C335.13 395.977 334.85 396.037 334.67 395.937ZM335.67 391.687L331.78 390.317C331.44 390.187 331.07 390.037 330.68 389.857H330.62C330.92 390.087 331.18 390.297 331.4 390.497L333.79 392.687L335.67 391.687Z" fill="#455A64"/>
<path d="M345.17 393.188L336.47 398.188C335.52 398.671 334.47 398.922 333.405 398.922C332.34 398.922 331.289 398.671 330.34 398.188L321.63 393.188C319.94 392.188 319.94 390.628 321.63 389.658L330.34 384.658C331.289 384.175 332.34 383.923 333.405 383.923C334.47 383.923 335.52 384.175 336.47 384.658L345.17 389.658C346.86 390.638 346.86 392.188 345.17 393.188ZM322.78 390.318C322.548 390.398 322.347 390.548 322.205 390.748C322.062 390.948 321.986 391.187 321.986 391.433C321.986 391.678 322.062 391.917 322.205 392.117C322.347 392.317 322.548 392.467 322.78 392.548L331.48 397.548C332.081 397.853 332.746 398.013 333.42 398.013C334.094 398.013 334.759 397.853 335.36 397.548L344.07 392.548C344.305 392.47 344.51 392.319 344.655 392.118C344.8 391.917 344.878 391.676 344.878 391.428C344.878 391.18 344.8 390.938 344.655 390.737C344.51 390.536 344.305 390.386 344.07 390.308L335.36 385.308C334.759 385.002 334.094 384.843 333.42 384.843C332.746 384.843 332.081 385.002 331.48 385.308L322.78 390.318Z" fill="#455A64"/>
<path d="M355.43 384.188L350.78 386.878C350.173 387.189 349.501 387.351 348.82 387.351C348.138 387.351 347.466 387.189 346.86 386.878L340.99 383.488C340.752 383.41 340.545 383.258 340.398 383.055C340.252 382.852 340.173 382.608 340.173 382.358C340.173 382.108 340.252 381.864 340.398 381.661C340.545 381.458 340.752 381.307 340.99 381.228L345.68 378.518C346.288 378.212 346.959 378.053 347.64 378.053C348.32 378.053 348.992 378.212 349.6 378.518L355.47 381.908C355.714 381.986 355.926 382.14 356.076 382.348C356.225 382.556 356.303 382.807 356.299 383.063C356.294 383.319 356.207 383.567 356.051 383.77C355.894 383.972 355.676 384.119 355.43 384.188ZM342.15 381.948C342.059 381.979 341.981 382.038 341.925 382.116C341.869 382.194 341.839 382.287 341.839 382.383C341.839 382.479 341.869 382.572 341.925 382.65C341.981 382.728 342.059 382.787 342.15 382.818L348.03 386.208C348.264 386.327 348.522 386.389 348.785 386.389C349.047 386.389 349.306 386.327 349.54 386.208L354.23 383.498C354.32 383.467 354.399 383.408 354.455 383.33C354.51 383.252 354.54 383.159 354.54 383.063C354.54 382.967 354.51 382.874 354.455 382.796C354.399 382.718 354.32 382.659 354.23 382.628L348.35 379.228C348.118 379.11 347.86 379.048 347.6 379.048C347.339 379.048 347.082 379.11 346.85 379.228L342.15 381.948Z" fill="#455A64"/>
<path d="M351.57 382.978L347.71 380.748C347.363 380.615 346.991 380.565 346.622 380.599C346.252 380.634 345.896 380.753 345.58 380.948L343.44 382.188C342.75 382.588 342.6 383.138 343.09 383.428L346.95 385.658C347.299 385.788 347.673 385.836 348.044 385.8C348.415 385.764 348.773 385.643 349.09 385.448L351.22 384.218C351.91 383.808 352.07 383.258 351.57 382.978Z" fill="#455A64"/>
<path d="M105.36 108.848C105.136 108.848 104.915 108.789 104.72 108.678C104.466 108.503 104.263 108.263 104.131 107.984C103.999 107.705 103.944 107.396 103.97 107.088V76.1882C103.991 75.5949 104.15 75.0147 104.435 74.4939C104.72 73.973 105.122 73.5259 105.61 73.1882L168.38 36.8882C168.598 36.7483 168.848 36.6683 169.106 36.656C169.364 36.6437 169.621 36.6996 169.85 36.8182C170.107 36.9939 170.313 37.2345 170.446 37.5156C170.58 37.7967 170.636 38.1081 170.61 38.4182V69.2782C170.602 69.8851 170.449 70.4812 170.164 71.0169C169.878 71.5527 169.469 72.0125 168.97 72.3582L106.19 108.608C105.939 108.76 105.653 108.842 105.36 108.848ZM169.21 37.8482C169.125 37.8562 169.043 37.8835 168.97 37.9282L106.19 74.1882C105.876 74.4221 105.618 74.7229 105.435 75.0688C105.252 75.4147 105.148 75.7971 105.13 76.1882V107.088C105.13 107.468 105.24 107.638 105.3 107.668C105.354 107.68 105.41 107.68 105.463 107.668C105.517 107.656 105.567 107.632 105.61 107.598L168.38 71.3582C168.702 71.1139 168.965 70.7999 169.149 70.4396C169.332 70.0794 169.432 69.6824 169.44 69.2782V38.4182C169.44 38.0282 169.33 37.8682 169.27 37.8282L169.21 37.8482Z" fill="#2274A5"/>
<path d="M128.65 82.0284C128.688 81.9918 128.738 81.9712 128.79 81.9712C128.843 81.9712 128.893 81.9918 128.93 82.0284C128.975 82.0783 129.009 82.137 129.029 82.2007C129.05 82.2644 129.057 82.3318 129.05 82.3984V84.8484C129.049 85.0252 129.008 85.1994 128.93 85.3584C128.875 85.5012 128.778 85.6235 128.65 85.7084L121.51 89.8284C121.473 89.865 121.423 89.8856 121.37 89.8856C121.318 89.8856 121.268 89.865 121.23 89.8284C121.187 89.7779 121.153 89.7191 121.133 89.6555C121.112 89.592 121.105 89.525 121.11 89.4584V74.4584C121.112 74.2816 121.153 74.1074 121.23 73.9484C121.285 73.8056 121.383 73.6833 121.51 73.5984L128.51 69.5984C128.549 69.564 128.599 69.5449 128.65 69.5449C128.702 69.5449 128.752 69.564 128.79 69.5984C128.834 69.6489 128.867 69.7077 128.888 69.7713C128.908 69.8348 128.916 69.9018 128.91 69.9684V72.4284C128.909 72.6052 128.868 72.7794 128.79 72.9384C128.733 73.0797 128.635 73.2012 128.51 73.2884L123.87 75.9584V78.4684L128.18 75.9784C128.22 75.9459 128.269 75.9281 128.32 75.9281C128.371 75.9281 128.421 75.9459 128.46 75.9784C128.504 76.0289 128.537 76.0877 128.558 76.1513C128.578 76.2148 128.586 76.2818 128.58 76.3484V78.8084C128.579 78.9852 128.538 79.1594 128.46 79.3184C128.405 79.4612 128.308 79.5835 128.18 79.6684L123.89 82.1884V84.7784L128.65 82.0284Z" fill="#455A64"/>
<path d="M135.06 77.3277L133.13 82.6077C133.07 82.7777 133 82.9477 132.93 83.0977C132.833 83.2664 132.691 83.4049 132.52 83.4977L130.23 84.8177C130.197 84.8472 130.154 84.8635 130.11 84.8635C130.065 84.8635 130.023 84.8472 129.99 84.8177C129.921 84.7335 129.889 84.6256 129.9 84.5177V84.4077C129.9 84.4077 129.9 84.3077 129.9 84.2377L133.38 74.7477L130.05 69.4577C130.034 69.3817 130.034 69.3036 130.05 69.2277C130.05 69.0862 130.081 68.9464 130.14 68.8177C130.189 68.6994 130.273 68.5985 130.38 68.5277L132.65 67.1877C132.85 67.0677 133 67.0677 133.09 67.1877L133.28 67.4177L135.1 70.2877L136.86 65.3577L137.06 64.8977C137.147 64.6893 137.302 64.5166 137.5 64.4077L139.8 63.0777C139.832 63.0508 139.873 63.0361 139.915 63.0361C139.957 63.0361 139.997 63.0508 140.03 63.0777C140.067 63.1176 140.095 63.165 140.112 63.2168C140.129 63.2685 140.135 63.3234 140.13 63.3777C140.143 63.4705 140.143 63.5648 140.13 63.6577L136.78 72.8977L140.23 78.2977C140.23 78.2977 140.23 78.3977 140.23 78.4277C140.23 78.4577 140.23 78.4977 140.23 78.5277C140.225 78.673 140.191 78.8159 140.13 78.9477C140.083 79.0621 140.003 79.1598 139.9 79.2277L137.61 80.5477C137.41 80.6677 137.27 80.6877 137.19 80.6277C137.11 80.5556 137.042 80.4712 136.99 80.3777L135.06 77.3277Z" fill="#455A64"/>
<path d="M141.89 78.0883C141.85 78.1208 141.801 78.1385 141.75 78.1385C141.699 78.1385 141.649 78.1208 141.61 78.0883C141.523 77.9856 141.479 77.8526 141.49 77.7183V62.7183C141.49 62.5413 141.531 62.3669 141.61 62.2083C141.667 62.0642 141.764 61.9394 141.89 61.8483L143.89 60.7183C143.929 60.681 143.981 60.6602 144.035 60.6602C144.089 60.6602 144.141 60.681 144.18 60.7183C144.225 60.7681 144.258 60.8268 144.279 60.8906C144.3 60.9543 144.307 61.0216 144.3 61.0883V76.0883C144.298 76.2651 144.257 76.4393 144.18 76.5983C144.119 76.7405 144.018 76.8621 143.89 76.9483L141.89 78.0883Z" fill="#455A64"/>
<path d="M154.11 54.8085C154.15 54.7733 154.201 54.7539 154.255 54.7539C154.308 54.7539 154.36 54.7733 154.4 54.8085C154.443 54.859 154.477 54.9178 154.497 54.9813C154.518 55.0449 154.525 55.1119 154.52 55.1785V57.6385C154.518 57.8153 154.477 57.9895 154.4 58.1485C154.339 58.2907 154.238 58.4123 154.11 58.4985L151.46 60.0285V71.9285C151.458 72.1053 151.417 72.2795 151.34 72.4385C151.285 72.5813 151.187 72.7035 151.06 72.7885L149.06 73.9285C149.021 73.9657 148.969 73.9865 148.915 73.9865C148.861 73.9865 148.809 73.9657 148.77 73.9285C148.726 73.8779 148.693 73.8191 148.672 73.7556C148.652 73.6921 148.644 73.625 148.65 73.5585V61.6485L146.03 63.1885C145.991 63.2257 145.939 63.2466 145.885 63.2466C145.831 63.2466 145.779 63.2257 145.74 63.1885C145.695 63.1386 145.661 63.0799 145.641 63.0162C145.62 62.9524 145.613 62.8851 145.62 62.8185V60.3385C145.621 60.1617 145.662 59.9874 145.74 59.8285C145.798 59.6846 145.899 59.5623 146.03 59.4785L154.11 54.8085Z" fill="#455A64"/>
<path d="M159.45 68.0484V51.8184L166.65 55.7784L159.45 68.0484Z" fill="#E0E0E0"/>
<path d="M115.06 93.6782V77.4482L107.86 89.7182L115.06 93.6782Z" fill="#E0E0E0"/>
<path d="M89.3495 116.428C89.6513 116.192 89.8929 115.887 90.0545 115.54C90.2161 115.192 90.2932 114.811 90.2795 114.428C90.3395 113.058 90.3995 111.678 90.4295 110.328C90.4115 110.096 90.4463 109.863 90.5311 109.647C90.616 109.43 90.7488 109.236 90.9195 109.078C91.8002 108.244 92.5338 107.267 93.0895 106.188C93.3191 105.854 93.4637 105.469 93.5108 105.067C93.5578 104.664 93.5059 104.256 93.3595 103.878C92.8095 102.488 92.2695 101.068 91.6795 99.7281C91.3898 98.9316 91.2672 98.084 91.3195 97.2381C91.3195 96.0881 91.3195 94.9281 91.3195 93.7781C91.3195 91.9381 90.4695 91.1081 89.3195 91.7781C88.1695 92.4481 87.3195 94.2181 87.3195 96.0781C87.3195 97.2281 87.3195 98.3681 87.3195 99.5181C87.3383 100.501 87.2137 101.481 86.9495 102.428C86.3595 104.428 85.8295 106.488 85.2695 108.518C84.9795 109.598 85.0495 110.128 85.5495 110.518C85.8509 110.754 86.2029 110.916 86.5777 110.992C86.9525 111.069 87.34 111.057 87.7095 110.958C88.0695 110.878 88.1995 111.078 88.2095 111.628C88.2095 112.958 88.2995 114.258 88.3495 115.568C88.4495 116.378 88.8395 116.728 89.3495 116.428Z" fill="#E0E0E0"/>
<path d="M76.19 104.998C76.19 104.058 76.12 103.128 76.1 102.178C76.0374 101.46 76.1589 100.738 76.4528 100.08C76.7468 99.4223 77.2035 98.8502 77.78 98.4179C78.78 97.8479 79.68 97.2979 80.64 96.7579C81.6 96.2179 82.4 96.9479 82.35 98.5879C82.27 101.028 82.17 103.488 82.12 105.918C82.1422 107.209 81.7301 108.469 80.95 109.498C80.8021 109.78 80.7168 110.09 80.7 110.408C80.55 113.598 80.42 116.778 80.29 119.958C80.2772 120.691 80.0124 121.397 79.54 121.958C79.12 122.418 78.62 122.538 78.38 122.118C78.204 121.767 78.1084 121.381 78.1 120.988C77.96 118.198 77.84 115.408 77.73 112.598C77.73 111.908 77.64 111.428 77.15 111.378C76.66 111.328 76.37 110.708 76.33 109.838C76.26 108.218 76.21 106.588 76.15 104.968L76.19 104.998Z" fill="#E0E0E0"/>
<path d="M91.1498 86.7985C91.1658 87.5356 91.0086 88.2661 90.6908 88.9313C90.3729 89.5965 89.9033 90.1778 89.3198 90.6285C88.3198 91.2185 87.4798 90.4285 87.4898 88.8385C87.4781 88.0912 87.6422 87.3517 87.9687 86.6795C88.2953 86.0073 88.7752 85.4212 89.3698 84.9685C90.3798 84.4185 91.1598 85.1885 91.1498 86.7985Z" fill="#E0E0E0"/>
<path d="M79.2403 96.4477C78.2403 97.0477 77.4004 96.2677 77.4104 94.6777C77.394 93.9387 77.5499 93.2061 77.8658 92.5378C78.1817 91.8696 78.6489 91.2841 79.2304 90.8277C80.2304 90.2277 81.0704 91.0177 81.0704 92.5977C81.084 93.3373 80.9258 94.0699 80.6083 94.738C80.2907 95.4061 79.8225 95.9913 79.2403 96.4477Z" fill="#E0E0E0"/>
<path d="M194.43 55.7581C194.731 55.5217 194.973 55.2173 195.135 54.8697C195.296 54.5221 195.373 54.1412 195.36 53.7581C195.42 52.3881 195.48 51.0181 195.51 49.6581C195.491 49.4254 195.527 49.1915 195.614 48.9747C195.7 48.758 195.836 48.5641 196.01 48.4081C196.887 47.5582 197.617 46.568 198.17 45.4781C198.401 45.1449 198.546 44.7598 198.593 44.3569C198.641 43.954 198.588 43.5457 198.44 43.1681C197.89 41.7781 197.35 40.3681 196.76 39.0181C196.47 38.2217 196.347 37.374 196.4 36.5281C196.4 35.3781 196.4 34.2181 196.4 33.0681C196.4 31.2281 195.56 30.3981 194.4 31.0681C193.24 31.7381 192.4 33.5081 192.4 35.3681C192.4 36.5181 192.4 37.6581 192.4 38.8081C192.423 39.7912 192.299 40.7723 192.03 41.7181C191.44 43.7181 190.91 45.7781 190.35 47.8081C190.06 48.8881 190.13 49.4181 190.63 49.8081C190.933 50.0397 191.285 50.1995 191.659 50.2757C192.033 50.3519 192.42 50.3425 192.79 50.2481C193.16 50.1581 193.28 50.3581 193.29 50.9181C193.29 52.2381 193.38 53.5381 193.43 54.8481C193.53 55.7081 193.92 56.0581 194.43 55.7581Z" fill="#E0E0E0"/>
<path d="M181.27 44.328C181.27 43.388 181.2 42.458 181.18 41.508C181.125 40.7869 181.254 40.0636 181.555 39.4059C181.856 38.7482 182.319 38.1778 182.9 37.748C183.85 37.188 184.81 36.638 185.76 36.098C186.71 35.558 187.52 36.278 187.47 37.918C187.39 40.368 187.29 42.818 187.24 45.248C187.266 46.5392 186.853 47.8009 186.07 48.828C185.923 49.1098 185.837 49.4202 185.82 49.738C185.67 52.928 185.54 56.108 185.41 59.288C185.398 60.021 185.133 60.7273 184.66 61.288C184.24 61.748 183.74 61.878 183.5 61.448C183.324 61.0967 183.229 60.7107 183.22 60.318C183.08 57.538 182.957 54.7413 182.85 51.928C182.85 51.238 182.76 50.758 182.27 50.718C181.78 50.678 181.49 50.038 181.45 49.168C181.38 47.558 181.33 45.928 181.27 44.298V44.328Z" fill="#E0E0E0"/>
<path d="M196.23 26.1281C196.247 26.8653 196.09 27.5962 195.772 28.2615C195.454 28.9268 194.984 29.508 194.4 29.9581C193.4 30.5581 192.56 29.7681 192.57 28.1681C192.557 27.4221 192.72 26.6834 193.047 26.0125C193.374 25.3417 193.854 24.7576 194.45 24.3081C195.46 23.7481 196.24 24.5581 196.23 26.1281Z" fill="#E0E0E0"/>
<path d="M184.32 35.778C183.32 36.378 182.48 35.598 182.49 34.008C182.48 33.2745 182.639 32.5485 182.955 31.8862C183.271 31.2239 183.734 30.6429 184.31 30.188C185.31 29.588 186.15 30.378 186.15 31.958C186.159 32.6927 185.999 33.4197 185.682 34.0823C185.364 34.7449 184.898 35.3253 184.32 35.778Z" fill="#E0E0E0"/>
</svg>
