<svg width="250" height="250" viewBox="0 0 383 379" fill="none" xmlns="http://www.w3.org/2000/svg">
<path fill-rule="evenodd" clip-rule="evenodd" d="M191.5 378.218C296.985 378.218 382.5 293.55 382.5 189.109C382.5 84.6669 296.985 0 191.5 0C86.0136 0 0.5 84.6669 0.5 189.109C0.5 293.55 86.0136 378.218 191.5 378.218ZM191.5 355.525C284.328 355.525 359.58 281.018 359.58 189.109C359.58 97.1999 284.328 22.6931 191.5 22.6931C98.6719 22.6931 23.42 97.1999 23.42 189.109C23.42 281.018 98.6719 355.525 191.5 355.525ZM191.5 332.832C271.67 332.832 336.66 268.485 336.66 189.109C336.66 109.733 271.67 45.3861 191.5 45.3861C111.33 45.3861 46.34 109.733 46.34 189.109C46.34 268.485 111.33 332.832 191.5 332.832ZM191.5 310.139C259.011 310.139 313.74 255.951 313.74 189.109C313.74 122.266 259.011 68.0792 191.5 68.0792C123.989 68.0792 69.26 122.266 69.26 189.109C69.26 255.951 123.989 310.139 191.5 310.139ZM290.82 189.109C290.82 243.419 246.353 287.445 191.5 287.445C136.647 287.445 92.18 243.419 92.18 189.109C92.18 134.799 136.647 90.7723 191.5 90.7723C246.353 90.7723 290.82 134.799 290.82 189.109ZM267.9 189.109C267.9 230.885 233.694 264.752 191.5 264.752C149.305 264.752 115.1 230.885 115.1 189.109C115.1 147.332 149.305 113.465 191.5 113.465C233.694 113.465 267.9 147.332 267.9 189.109Z" fill="#E3E3E3"/>
</svg>
