<svg width="106" height="80" viewBox="0 0 106 80" fill="none" xmlns="http://www.w3.org/2000/svg">
<path fill-rule="evenodd" clip-rule="evenodd" d="M51.1527 7.16825C46.8054 3.59363 41.9336 1.24632 36.905 0.0168627C36.4125 -0.104132 36.0426 0.451232 36.3187 0.876222C43.76 12.3166 44.2259 27.5158 36.2701 39.6661C28.312 51.8205 14.1637 57.5079 0.664674 55.3155C0.165569 55.2336 -0.19331 55.7911 0.113662 56.1923C2.49877 59.2905 5.43377 62.05 8.8999 64.306C26.4492 75.7314 50.3433 69.7583 60.1785 50.6634C67.7435 35.9751 63.9307 17.6729 51.1527 7.16825Z" fill="#FED600"/>
<path fill-rule="evenodd" clip-rule="evenodd" d="M96.5035 46.8239C95.5472 45.6625 88.7442 39.918 78.1823 39.918C72.4625 39.918 66.2546 40.4119 60.9488 42.2818C60.1096 42.5773 59.2991 42.9342 58.471 43.2545C57.4595 43.6449 56.5541 44.4957 55.6817 45.1341C54.3368 46.1197 53.0161 47.1388 51.7496 48.2215C49.2364 50.3675 46.9308 52.7863 45.1917 55.5955C43.3156 58.6246 42.1893 62.0355 41.8349 65.5672C41.1469 65.2879 40.4502 65.0356 39.7446 64.807C38.8844 64.5288 38.011 64.2861 37.1298 64.0791C36.3237 63.8882 35.4161 63.6024 34.5835 63.6132C33.8083 63.624 33.0288 63.294 32.2558 63.1819C31.3746 63.0535 30.4857 63.0007 29.5979 62.9511L24.7582 62.6696C24.6157 62.661 24.4733 62.6513 24.3297 62.6437C22.5376 62.5424 20.7388 62.4583 18.9467 62.5898C16.6775 62.757 14.4503 63.3037 12.4351 64.3476C11.7373 64.7088 11.0637 65.1186 10.4188 65.5662C9.14126 66.4537 7.96305 67.504 6.89969 68.6169C5.9059 69.6554 5.01371 70.7877 4.25622 72.0062C3.85649 72.649 3.49541 73.3154 3.17298 73.9991C2.87926 74.6246 2.44972 75.2511 2.33488 75.938C2.28408 76.2378 2.12619 78.8475 2.24986 78.8561C5.94898 79.0826 9.60723 78.8615 13.2975 78.882C17.1391 78.9025 100.974 79.8234 105.504 79.7889C107.347 68.2082 103.99 55.9147 96.5035 46.8239Z" fill="#D8F3FF"/>
</svg>
