<svg width="11" height="16" viewBox="0 0 11 16" fill="none" xmlns="http://www.w3.org/2000/svg">
<path d="M5.85208 6.85256C5.78403 6.84121 5.70464 6.84121 5.63658 6.85256C4.07137 6.79585 2.82373 5.51418 2.82373 3.92628C2.82373 2.30435 4.12808 1 5.75 1C7.37193 1 8.67628 2.31569 8.67628 3.92628C8.66494 5.51418 7.4173 6.80719 5.85208 6.85256Z" stroke="#515151" stroke-width="1.17" stroke-linecap="round" stroke-linejoin="round"/>
<path d="M2.55197 10.2122C0.952728 11.2784 0.952728 13.0251 2.55197 14.0913C4.36672 15.3049 7.33836 15.3049 9.15311 14.0913C10.7524 13.0251 10.7524 11.2784 9.15311 10.2122C7.3497 9.00998 4.36672 9.00998 2.55197 10.2122Z" stroke="#515151" stroke-width="1.17" stroke-linecap="round" stroke-linejoin="round"/>
</svg>
