<svg xmlns="http://www.w3.org/2000/svg" viewBox="0 0 75 15" fill="none">
<path d="M6.03974 8.78573L8.66416 8.12064L9.76066 11.5L6.03974 8.78573ZM12.0795 4.4177H7.4598L6.03974 0.067646L4.61969 4.4177H0L3.73889 7.11401L2.31883 11.4641L6.05772 8.76775L8.35857 7.11401L12.0795 4.4177Z" fill="#219653"/>
<path d="M20.8524 2.23973V3.42102H18.5025V11.0676H17.0545V3.42102H14.6919V2.23973H20.8524ZM23.7669 5.08499C23.9786 4.72933 24.2581 4.45412 24.6053 4.25935C24.9609 4.05612 25.3801 3.95451 25.8628 3.95451V5.45335H25.4944C24.927 5.45335 24.4952 5.5973 24.1988 5.88521C23.9109 6.17313 23.7669 6.67274 23.7669 7.38406V11.0676H22.3189V4.06882H23.7669V5.08499ZM33.5321 4.06882V11.0676H32.0841V10.242C31.8554 10.5299 31.5548 10.7586 31.1822 10.9279C30.8181 11.0888 30.4286 11.1693 30.0136 11.1693C29.4632 11.1693 28.9678 11.0549 28.5275 10.8263C28.0956 10.5977 27.7527 10.2589 27.4986 9.81014C27.2531 9.36134 27.1303 8.81939 27.1303 8.18428V4.06882H28.5656V7.96835C28.5656 8.59498 28.7223 9.07766 29.0356 9.41638C29.3489 9.74663 29.7765 9.91176 30.3185 9.91176C30.8604 9.91176 31.2881 9.74663 31.6014 9.41638C31.9232 9.07766 32.0841 8.59498 32.0841 7.96835V4.06882H33.5321ZM37.9831 11.182C37.4327 11.182 36.9373 11.0846 36.4969 10.8898C36.0651 10.6866 35.7221 10.4156 35.4681 10.0769C35.214 9.7297 35.0785 9.3444 35.0616 8.921H36.5605C36.5859 9.21738 36.7256 9.46719 36.9796 9.67042C37.2421 9.86519 37.5681 9.96257 37.9577 9.96257C38.3641 9.96257 38.6775 9.88636 38.8976 9.73393C39.1263 9.57304 39.2406 9.36981 39.2406 9.12423C39.2406 8.86173 39.1136 8.66696 38.8595 8.53994C38.6139 8.41292 38.2202 8.2732 37.6782 8.12077C37.1532 7.97682 36.7256 7.83709 36.3953 7.70161C36.0651 7.56612 35.7772 7.35865 35.5316 7.07921C35.2945 6.79976 35.1759 6.4314 35.1759 5.97413C35.1759 5.60154 35.286 5.26281 35.5062 4.95797C35.7264 4.64465 36.0397 4.39908 36.4461 4.22125C36.8611 4.04342 37.3353 3.95451 37.8688 3.95451C38.6648 3.95451 39.3041 4.15774 39.7868 4.5642C40.2779 4.9622 40.5404 5.50839 40.5743 6.20277H39.1263C39.1009 5.88945 38.9738 5.63964 38.7452 5.45335C38.5166 5.26705 38.2075 5.1739 37.818 5.1739C37.4369 5.1739 37.1447 5.24588 36.9415 5.38984C36.7383 5.53379 36.6367 5.72432 36.6367 5.96143C36.6367 6.14772 36.7044 6.30438 36.8399 6.4314C36.9754 6.55842 37.1405 6.66004 37.3353 6.73625C37.53 6.804 37.818 6.89291 38.199 7.00299C38.7071 7.13848 39.122 7.2782 39.4438 7.42216C39.7741 7.55765 40.0577 7.76088 40.2949 8.03186C40.532 8.30284 40.6547 8.66273 40.6632 9.11153C40.6632 9.50953 40.5531 9.86519 40.333 10.1785C40.1128 10.4918 39.7995 10.7374 39.393 10.9152C38.995 11.0931 38.525 11.182 37.9831 11.182ZM43.9172 5.25011V9.12423C43.9172 9.38674 43.9765 9.57727 44.095 9.69583C44.2221 9.80591 44.4338 9.86095 44.7301 9.86095H45.6193V11.0676H44.4761C43.8241 11.0676 43.3245 10.9152 42.9773 10.6104C42.6301 10.3055 42.4565 9.81014 42.4565 9.12423V5.25011H41.6308V4.06882H42.4565V2.32864H43.9172V4.06882H45.6193V5.25011H43.9172ZM48.4019 5.09769C48.6475 4.7759 48.982 4.50493 49.4054 4.28476C49.8288 4.06459 50.3072 3.95451 50.8407 3.95451C51.4504 3.95451 52.0051 4.10693 52.5047 4.41178C53.0128 4.70816 53.4108 5.12733 53.6987 5.66928C53.9866 6.21123 54.1305 6.83363 54.1305 7.53648C54.1305 8.23933 53.9866 8.87019 53.6987 9.42908C53.4108 9.9795 53.0128 10.4114 52.5047 10.7247C52.0051 11.0295 51.4504 11.182 50.8407 11.182C50.3072 11.182 49.833 11.0761 49.4181 10.8644C49.0032 10.6442 48.6644 10.3733 48.4019 10.0515V14.3956H46.9539V4.06882H48.4019V5.09769ZM52.6571 7.53648C52.6571 7.0538 52.5555 6.63887 52.3523 6.29168C52.1575 5.93602 51.895 5.66928 51.5647 5.49145C51.243 5.30516 50.8958 5.21201 50.5232 5.21201C50.159 5.21201 49.8119 5.30516 49.4816 5.49145C49.1598 5.67775 48.8973 5.94872 48.6941 6.30438C48.4993 6.66004 48.4019 7.07921 48.4019 7.56188C48.4019 8.04456 48.4993 8.46796 48.6941 8.83209C48.8973 9.18774 49.1598 9.45872 49.4816 9.64502C49.8119 9.83131 50.159 9.92446 50.5232 9.92446C50.8958 9.92446 51.243 9.83131 51.5647 9.64502C51.895 9.45025 52.1575 9.17081 52.3523 8.80668C52.5555 8.44256 52.6571 8.01916 52.6571 7.53648ZM56.2992 3.14157C56.0367 3.14157 55.8165 3.05266 55.6387 2.87483C55.4609 2.697 55.372 2.47683 55.372 2.21433C55.372 1.95182 55.4609 1.73165 55.6387 1.55382C55.8165 1.37599 56.0367 1.28708 56.2992 1.28708C56.5533 1.28708 56.7692 1.37599 56.947 1.55382C57.1249 1.73165 57.2138 1.95182 57.2138 2.21433C57.2138 2.47683 57.1249 2.697 56.947 2.87483C56.7692 3.05266 56.5533 3.14157 56.2992 3.14157ZM57.0105 4.06882V11.0676H55.5625V4.06882H57.0105ZM60.3597 1.66814V11.0676H58.9117V1.66814H60.3597ZM65.2966 11.182C64.6361 11.182 64.0391 11.0338 63.5056 10.7374C62.9722 10.4325 62.553 10.0091 62.2481 9.46719C61.9433 8.91677 61.7909 8.28167 61.7909 7.56188C61.7909 6.85057 61.9475 6.2197 62.2608 5.66928C62.5742 5.11886 63.0018 4.69546 63.5437 4.39908C64.0857 4.1027 64.6912 3.95451 65.3601 3.95451C66.0291 3.95451 66.6346 4.1027 67.1765 4.39908C67.7185 4.69546 68.1461 5.11886 68.4594 5.66928C68.7728 6.2197 68.9294 6.85057 68.9294 7.56188C68.9294 8.2732 68.7685 8.90407 68.4467 9.45449C68.1249 10.0049 67.6846 10.4325 67.1257 10.7374C66.5753 11.0338 65.9656 11.182 65.2966 11.182ZM65.2966 9.92446C65.6692 9.92446 66.0164 9.83555 66.3382 9.65772C66.6684 9.47989 66.9352 9.21315 67.1384 8.85749C67.3417 8.50183 67.4433 8.06997 67.4433 7.56188C67.4433 7.0538 67.3459 6.62617 67.1511 6.27898C66.9564 5.92332 66.6981 5.65658 66.3763 5.47875C66.0545 5.30092 65.7073 5.21201 65.3347 5.21201C64.9621 5.21201 64.615 5.30092 64.2932 5.47875C63.9799 5.65658 63.73 5.92332 63.5437 6.27898C63.3575 6.62617 63.2643 7.0538 63.2643 7.56188C63.2643 8.31554 63.4548 8.89983 63.8359 9.31476C64.2254 9.72123 64.7123 9.92446 65.2966 9.92446ZM72.0502 5.25011V9.12423C72.0502 9.38674 72.1095 9.57727 72.2281 9.69583C72.3551 9.80591 72.5668 9.86095 72.8632 9.86095H73.7523V11.0676H72.6091C71.9571 11.0676 71.4575 10.9152 71.1103 10.6104C70.7631 10.3055 70.5895 9.81014 70.5895 9.12423V5.25011H69.7639V4.06882H70.5895V2.32864H72.0502V4.06882H73.7523V5.25011H72.0502Z"/>
</svg>