<svg xmlns="http://www.w3.org/2000/svg" viewBox="0 0 70 14" fill="none">
<path d="M13.1319 0.957584H0.196533V13.893H13.1319V0.957584Z" fill="#219653"/>
<path d="M27.1434 0.957565H14.208V13.8929H27.1434V0.957565Z" fill="#219653"/>
<path d="M41.1606 0.957565H28.2252V13.8929H41.1606V0.957565Z" fill="#219653"/>
<path d="M55.1721 0.957565H42.2367V13.8929H55.1721V0.957565Z" fill="#219653"/>
<path d="M69.1838 0.957565H56.2484V13.8929H69.1838V0.957565Z" fill="#219653"/>
<path d="M6.66447 9.67535L8.63173 9.1768L9.45366 11.71L6.66447 9.67535ZM11.1919 6.40108H7.72894L6.66447 3.14029L5.59999 6.40108H2.13708L4.93975 8.42224L3.87528 11.683L6.67794 9.66188L8.40266 8.42224L11.1919 6.40108Z" fill="white"/>
<path d="M20.6762 9.67535L22.6434 9.1768L23.4654 11.71L20.6762 9.67535ZM25.2036 6.40108H21.7407L20.6762 3.14029L19.6117 6.40108H16.1488L18.9515 8.42224L17.887 11.683L20.6897 9.66188L22.4144 8.42224L25.2036 6.40108Z" fill="white"/>
<path d="M34.693 9.67535L36.6603 9.1768L37.4822 11.71L34.693 9.67535ZM39.2204 6.40108H35.7575L34.693 3.14029L33.6286 6.40108H30.1656L32.9683 8.42224L31.9038 11.683L34.7065 9.66188L36.4312 8.42224L39.2204 6.40108Z" fill="white"/>
<path d="M48.7045 9.67535L50.6718 9.1768L51.4937 11.71L48.7045 9.67535ZM53.2319 6.40108H49.769L48.7045 3.14029L47.64 6.40108H44.1771L46.9798 8.42224L45.9153 11.683L48.718 9.66188L50.4427 8.42224L53.2319 6.40108Z" fill="white"/>
<path d="M62.7162 9.67535L64.6835 9.1768L65.5054 11.71L62.7162 9.67535ZM67.2436 6.40108H63.7807L62.7162 3.14029L61.6518 6.40108H58.1888L60.9915 8.42224L59.927 11.683L62.7297 9.66188L64.4544 8.42224L67.2436 6.40108Z" fill="white"/>
</svg>