<svg width="117" height="39" viewBox="0 0 117 39" fill="none" xmlns="http://www.w3.org/2000/svg">
<path fill-rule="evenodd" clip-rule="evenodd" d="M0 38.9998H34.5172V15.6895H0V38.9998Z" fill="#E7505B"/>
<path fill-rule="evenodd" clip-rule="evenodd" d="M0 38.9998H34.5172V15.6895H0V38.9998Z" fill="#B84314"/>
<path fill-rule="evenodd" clip-rule="evenodd" d="M27.793 20.6205H30.4826V15.6895H27.793V20.6205Z" fill="#E7505B"/>
<path fill-rule="evenodd" clip-rule="evenodd" d="M27.793 39.0004H30.4826V34.0693H27.793V39.0004Z" fill="#E7505B"/>
<path fill-rule="evenodd" clip-rule="evenodd" d="M69.9307 38.9998H104.448V15.6895H69.9307V38.9998Z" fill="#E7505B"/>
<path fill-rule="evenodd" clip-rule="evenodd" d="M69.9307 38.9998H104.448V15.6895H69.9307V38.9998Z" fill="#EF9200"/>
<path fill-rule="evenodd" clip-rule="evenodd" d="M97.2754 20.6205H99.965V15.6895H97.2754V20.6205Z" fill="black"/>
<path fill-rule="evenodd" clip-rule="evenodd" d="M96.8271 39.0004H99.5168V34.0693H96.8271V39.0004Z" fill="#E7505B"/>
<path fill-rule="evenodd" clip-rule="evenodd" d="M21.9658 39H79.3451V0.448242H21.9658V39Z" fill="#EF9200"/>
<path fill-rule="evenodd" clip-rule="evenodd" d="M59.6211 39H79.3452V0.448242H59.6211V39Z" fill="#B84314"/>
<path fill-rule="evenodd" clip-rule="evenodd" d="M67.6895 8.06893H72.6205V0.448242H67.6895V8.06893Z" fill="#EF9200"/>
<path fill-rule="evenodd" clip-rule="evenodd" d="M67.2412 38.9996H71.724V30.9307H67.2412V38.9996Z" fill="#EF9200"/>
<path fill-rule="evenodd" clip-rule="evenodd" d="M113.981 38.5515H71.6059C70.6802 38.5515 69.9307 37.7674 69.9307 36.7988V29.5859H115.655V36.7988C115.655 37.7674 114.905 38.5515 113.981 38.5515Z" fill="#EC5400"/>
<path fill-rule="evenodd" clip-rule="evenodd" d="M115.655 29.5863H69.9307V25.8529C69.9307 24.9448 70.6798 24.207 71.6041 24.207H113.981C114.906 24.207 115.655 24.9448 115.655 25.8529V29.5863Z" fill="#B84314"/>
<path fill-rule="evenodd" clip-rule="evenodd" d="M69.9307 33.6211V36.7632C69.9307 37.7518 70.5961 38.5521 71.418 38.5521H73.9651V38.4736C73.9651 35.794 72.1585 33.6211 69.9307 33.6211Z" fill="#B84314"/>
<path fill-rule="evenodd" clip-rule="evenodd" d="M116.104 33.6211V36.7632C116.104 37.7518 115.291 38.5521 114.287 38.5521H111.173V38.4736C111.173 35.794 113.381 33.6211 116.104 33.6211Z" fill="#B84314"/>
<path fill-rule="evenodd" clip-rule="evenodd" d="M79.3447 38.5519H81.5861V24.207H79.3447V38.5519Z" fill="#3A3A3A"/>
<path fill-rule="evenodd" clip-rule="evenodd" d="M80.2413 33.6206C79.2548 33.6206 78.4482 32.9021 78.4482 32.0234V29.3901C78.4482 28.5114 79.2548 27.793 80.2413 27.793C81.2279 27.793 82.0344 28.5114 82.0344 29.3901V32.0234C82.0344 32.9021 81.2279 33.6206 80.2413 33.6206Z" fill="black"/>
<path fill-rule="evenodd" clip-rule="evenodd" d="M104.448 38.5519H106.69V24.207H104.448V38.5519Z" fill="#3A3A3A"/>
<path fill-rule="evenodd" clip-rule="evenodd" d="M105.569 33.6206C104.706 33.6206 104 32.9021 104 32.0234V29.3901C104 28.5114 104.706 27.793 105.569 27.793C106.432 27.793 107.138 28.5114 107.138 29.3901V32.0234C107.138 32.9021 106.432 33.6206 105.569 33.6206Z" fill="black"/>
<path fill-rule="evenodd" clip-rule="evenodd" d="M89.2073 34.0695C89.2073 35.308 88.4049 36.3109 87.4142 36.3109C86.4235 36.3109 85.6211 35.308 85.6211 34.0695C85.6211 32.831 86.4235 31.8281 87.4142 31.8281C88.4049 31.8281 89.2073 32.831 89.2073 34.0695Z" fill="#3A3A3A"/>
<path fill-rule="evenodd" clip-rule="evenodd" d="M99.9651 34.0695C99.9651 35.308 99.0624 36.3109 97.9479 36.3109C96.8334 36.3109 95.9307 35.308 95.9307 34.0695C95.9307 32.831 96.8334 31.8281 97.9479 31.8281C99.0624 31.8281 99.9651 32.831 99.9651 34.0695Z" fill="#3A3A3A"/>
<path fill-rule="evenodd" clip-rule="evenodd" d="M97.5047 34.966H87.635C87.0207 34.966 86.5176 34.5627 86.5176 34.0703V34.0677C86.5176 33.5753 87.0207 33.1729 87.635 33.1729H97.5047C98.119 33.1729 98.621 33.5753 98.621 34.0677V34.0703C98.621 34.5627 98.119 34.966 97.5047 34.966Z" fill="#B84314"/>
<path fill-rule="evenodd" clip-rule="evenodd" d="M52.4485 36.9141C52.4485 37.8161 51.7113 38.5521 50.8107 38.5521H11.9493C11.0477 38.5521 10.3105 37.8161 10.3105 36.9141V9.25912C10.3105 8.35815 11.0477 7.62109 11.9493 7.62109H50.8107C51.7113 7.62109 52.4485 8.35815 52.4485 9.25912V36.9141Z" fill="#FF6200"/>
<path fill-rule="evenodd" clip-rule="evenodd" d="M10.3105 9.14572V12.9814C10.4391 12.9919 10.5676 13.0004 10.698 13.0004C13.4548 13.0004 15.6899 10.8021 15.6899 8.08919C15.6899 7.93094 15.6811 7.7746 15.6657 7.62109H11.8605C11.0082 7.62109 10.3105 8.30713 10.3105 9.14572Z" fill="black"/>
<path fill-rule="evenodd" clip-rule="evenodd" d="M50.7663 7.62109H46.6473C46.6316 7.77457 46.6211 7.93089 46.6211 8.0891C46.6211 10.8015 49.0471 13.0004 52.0396 13.0004C52.1781 13.0004 52.3134 12.9909 52.4487 12.9815V9.14545C52.4487 8.30796 51.6914 7.62109 50.7663 7.62109Z" fill="black"/>
<path fill-rule="evenodd" clip-rule="evenodd" d="M10.698 32.2764C10.5675 32.2764 10.439 32.2883 10.3105 32.2992V36.8037C10.3105 37.7665 11.0081 38.5522 11.8612 38.5522H15.6541C15.6754 38.3425 15.6899 38.1273 15.6899 37.91C15.6899 34.7987 13.4543 32.2764 10.698 32.2764Z" fill="#FFC164"/>
<path fill-rule="evenodd" clip-rule="evenodd" d="M52.4487 32.2992C52.3134 32.2883 52.1781 32.2764 52.0396 32.2764C49.0471 32.2764 46.6211 34.7993 46.6211 37.909C46.6211 38.1263 46.6358 38.3425 46.6588 38.5522H50.7663C51.6914 38.5522 52.4487 37.7656 52.4487 36.804V32.2992Z" fill="#FFC164"/>
<path fill-rule="evenodd" clip-rule="evenodd" d="M19.2754 38.5521H23.7581V7.62109H19.2754V38.5521Z" fill="#992F03"/>
<path fill-rule="evenodd" clip-rule="evenodd" d="M19.2754 7.62109V18.7652C19.2754 20.0378 20.279 21.0694 21.5168 21.0694C22.7546 21.0694 23.7581 20.0378 23.7581 18.7652V7.62109H19.2754Z" fill="#B84314"/>
<path fill-rule="evenodd" clip-rule="evenodd" d="M22.5785 12.1035H20.4552C19.5569 12.1035 18.8271 12.7718 18.8271 13.5916V15.0982C18.8271 15.9189 19.5569 16.5863 20.4552 16.5863H22.5785C23.4767 16.5863 24.2065 15.9189 24.2065 15.0982V13.5916C24.2065 12.7718 23.4767 12.1035 22.5785 12.1035Z" fill="#6B2104"/>
<path fill-rule="evenodd" clip-rule="evenodd" d="M39 38.5521H43.4828V7.62109H39V38.5521Z" fill="#992F03"/>
<path fill-rule="evenodd" clip-rule="evenodd" d="M39 7.62109V18.7652C39 20.0378 40.0034 21.0694 41.2409 21.0694C42.4794 21.0694 43.4828 20.0378 43.4828 18.7652V7.62109H39Z" fill="#B84314"/>
<path fill-rule="evenodd" clip-rule="evenodd" d="M42.3031 12.1035H40.1798C39.2815 12.1035 38.5518 12.7718 38.5518 13.5916V15.0982C38.5518 15.9189 39.2815 16.5863 40.1798 16.5863H42.3031C43.2013 16.5863 43.9311 15.9189 43.9311 15.0982V13.5916C43.9311 12.7718 43.2013 12.1035 42.3031 12.1035Z" fill="#6B2104"/>
<path fill-rule="evenodd" clip-rule="evenodd" d="M31.3794 0C27.4252 0 24.207 3.14087 24.207 7.00437V7.62069H26.833V7.00437C26.833 4.55647 28.8731 2.56442 31.3794 2.56442C33.8857 2.56442 35.9258 4.55647 35.9258 7.00437V7.62069H38.5519V7.00437C38.5519 3.14087 35.3337 0 31.3794 0Z" fill="#6B2104"/>
</svg>
