<svg xmlns="http://www.w3.org/2000/svg" width="auto" height="auto" fill="none">
  <g opacity="0.21">
    <path fill-rule="evenodd" clip-rule="evenodd" d="M175.974 155.182C182.875 150.351 184.552 140.84 179.72 133.939L128.324 60.5387C121.845 51.2849 124.094 38.5304 133.347 32.0508C142.601 25.5712 155.356 27.8201 161.835 37.074L162.995 38.7296C167.826 45.6301 177.337 47.3071 184.238 42.4753C191.138 37.6436 192.815 28.1328 187.983 21.2324L186.824 19.5767C170.681 -3.47801 138.905 -9.08098 115.85 7.0621C92.7955 23.2052 87.1925 54.9812 103.336 78.036L154.731 151.437C159.563 158.337 169.074 160.014 175.974 155.182Z" fill="white"/>
    <mask id="mask0_5300_5077" style="mask-type:alpha" maskUnits="userSpaceOnUse" x="94" y="-3" width="97" height="161">
      <path fill-rule="evenodd" clip-rule="evenodd" d="M175.973 155.179C182.873 150.348 184.55 140.837 179.718 133.936L128.323 60.5358C121.843 51.2819 124.092 38.5275 133.346 32.0479C142.6 25.5682 155.354 27.8172 161.834 37.071L162.993 38.7267C167.825 45.6271 177.336 47.3041 184.236 42.4724C191.136 37.6407 192.813 28.1299 187.982 21.2294L186.822 19.5738C170.679 -3.48094 138.903 -9.08391 115.849 7.05917C92.7938 23.2022 87.1908 54.9783 103.334 78.033L154.73 151.434C159.561 158.334 169.072 160.011 175.973 155.179Z" fill="#EF476F"/>
    </mask>
    <g mask="url(#mask0_5300_5077)">
      <circle cx="104.736" cy="104.736" r="99.6515" transform="matrix(0.5 -0.866025 -0.866025 -0.5 119.224 191.485)" stroke="#E53E3E" stroke-width="10.1685"/>
      <circle cx="128.123" cy="128.123" r="123.039" transform="matrix(0.5 -0.866025 -0.866025 -0.5 127.784 223.433)" stroke="#E53E3E" stroke-width="10.1685"/>
      <circle cx="80.3313" cy="80.3313" r="75.247" transform="matrix(0.5 -0.866025 -0.866025 -0.5 110.292 158.147)" stroke="#E53E3E" stroke-width="10.1685"/>
      <circle cx="52.8763" cy="52.8763" r="47.792" transform="matrix(0.5 -0.866025 -0.866025 -0.5 100.242 120.644)" stroke="#E53E3E" stroke-width="10.1685"/>
      <circle cx="29.4887" cy="29.4887" r="24.4044" transform="matrix(0.5 -0.866025 -0.866025 -0.5 91.6821 88.6962)" stroke="#E53E3E" stroke-width="10.1685"/>
    </g>
    <path fill-rule="evenodd" clip-rule="evenodd" d="M123.971 163.908C130.871 159.076 132.548 149.565 127.717 142.665L76.3209 69.264C69.8413 60.0102 72.0902 47.2557 81.3441 40.7761C90.5979 34.2965 103.352 36.5455 109.832 45.7993L110.991 47.455C115.823 54.3554 125.334 56.0324 132.234 51.2007C139.135 46.3689 140.812 36.8581 135.98 29.9577L134.821 28.302C118.678 5.24733 86.9015 -0.355639 63.8468 15.7874C40.7921 31.9305 35.1891 63.7066 51.3322 86.7613L102.728 160.162C107.56 167.062 117.07 168.739 123.971 163.908Z" fill="white"/>
    <mask id="mask1_5300_5077" style="mask-type:alpha" maskUnits="userSpaceOnUse" x="42" y="6" width="97" height="161">
      <path fill-rule="evenodd" clip-rule="evenodd" d="M123.969 163.905C130.869 159.073 132.546 149.563 127.715 142.662L76.3188 69.2614C69.8392 60.0075 72.0882 47.2531 81.342 40.7734C90.5958 34.2938 103.35 36.5428 109.83 45.7966L110.989 47.4523C115.821 54.3527 125.332 56.0297 132.232 51.198C139.133 46.3663 140.81 36.8554 135.978 29.955L134.819 28.2994C118.676 5.24465 86.8994 -0.358325 63.8447 15.7848C40.79 31.9278 35.187 63.7039 51.3301 86.7586L102.726 160.159C107.558 167.06 117.068 168.737 123.969 163.905Z" fill="#EF476F"/>
    </mask>
    <g mask="url(#mask1_5300_5077)">
      <circle cx="104.736" cy="104.736" r="99.6515" transform="matrix(0.5 -0.866025 -0.866025 -0.5 67.2207 200.21)" stroke="#E53E3E" stroke-width="10.1685"/>
      <circle cx="128.123" cy="128.123" r="123.039" transform="matrix(0.5 -0.866025 -0.866025 -0.5 75.7805 232.158)" stroke="#E53E3E" stroke-width="10.1685"/>
      <circle cx="80.3313" cy="80.3313" r="75.247" transform="matrix(0.5 -0.866025 -0.866025 -0.5 58.2878 166.873)" stroke="#E53E3E" stroke-width="10.1685"/>
      <circle cx="52.8763" cy="52.8763" r="47.792" transform="matrix(0.5 -0.866025 -0.866025 -0.5 48.2385 129.37)" stroke="#E53E3E" stroke-width="10.1685"/>
      <circle cx="29.4887" cy="29.4887" r="24.4044" transform="matrix(0.5 -0.866025 -0.866025 -0.5 39.6778 97.4218)" stroke="#E53E3E" stroke-width="10.1685"/>
    </g>
    <circle cx="10.7041" cy="10.7041" r="10.7041" transform="matrix(0.75455 -0.656242 -0.656242 -0.75455 177.105 90.3848)" fill="white"/>
    <circle cx="10.7041" cy="10.7041" r="10.7041" transform="matrix(0.75455 -0.656242 -0.656242 -0.75455 48.5338 149.499)" fill="white"/>
  </g>
</svg>