<svg width="149" height="149" viewBox="0 0 149 149" fill="none" xmlns="http://www.w3.org/2000/svg">
<path fill-rule="evenodd" clip-rule="evenodd" d="M111.033 121.259C115.386 118.211 116.445 112.21 113.396 107.856L80.9674 61.543C76.879 55.7042 78.298 47.6566 84.1368 43.5683C89.9756 39.4799 98.0232 40.8989 102.112 46.7377L102.843 47.7823C105.892 52.1362 111.893 53.1943 116.246 50.1457C120.6 47.0971 121.658 41.0962 118.61 36.7423L117.878 35.6976C107.693 21.151 87.6433 17.6158 73.0967 27.8014C58.5502 37.987 55.0149 58.0364 65.2005 72.583L97.6291 118.896C100.678 123.25 106.679 124.308 111.033 121.259Z" fill="white"/>
<mask id="mask0_5593_338" style="mask-type:alpha" maskUnits="userSpaceOnUse" x="59" y="21" width="62" height="102">
<path fill-rule="evenodd" clip-rule="evenodd" d="M111.031 121.257C115.385 118.209 116.443 112.208 113.395 107.854L80.9662 61.5411C76.8778 55.7023 78.2968 47.6548 84.1356 43.5664C89.9744 39.4781 98.022 40.8971 102.11 46.7358L102.842 47.7805C105.89 52.1344 111.891 53.1925 116.245 50.1439C120.599 47.0953 121.657 41.0943 118.609 36.7404L117.877 35.6958C107.692 21.1492 87.6422 17.614 73.0956 27.7996C58.549 37.9852 55.0137 58.0346 65.1994 72.5812L97.628 118.894C100.677 123.248 106.678 124.306 111.031 121.257Z" fill="#EF476F"/>
</mask>
<g mask="url(#mask0_5593_338)">
<circle cx="66.084" cy="66.084" r="62.876" transform="matrix(0.5 -0.866025 -0.866025 -0.5 75.2256 144.165)" stroke="#E53E3E" stroke-width="6.41592"/>
<circle cx="80.8406" cy="80.8406" r="77.6326" transform="matrix(0.5 -0.866025 -0.866025 -0.5 80.6267 164.323)" stroke="#E53E3E" stroke-width="6.41592"/>
<circle cx="50.6858" cy="50.6858" r="47.4778" transform="matrix(0.5 -0.866025 -0.866025 -0.5 69.5894 123.13)" stroke="#E53E3E" stroke-width="6.41592"/>
<circle cx="33.3628" cy="33.3628" r="30.1548" transform="matrix(0.5 -0.866025 -0.866025 -0.5 63.2488 99.4669)" stroke="#E53E3E" stroke-width="6.41592"/>
<circle cx="18.6062" cy="18.6062" r="15.3982" transform="matrix(0.5 -0.866025 -0.866025 -0.5 57.8477 79.3092)" stroke="#E53E3E" stroke-width="6.41592"/>
</g>
<path fill-rule="evenodd" clip-rule="evenodd" d="M78.2207 126.764C82.5746 123.716 83.6327 117.715 80.5841 113.361L48.1555 67.0481C44.0671 61.2093 45.4861 53.1617 51.3249 49.0734C57.1637 44.985 65.2113 46.404 69.2996 52.2428L70.0311 53.2875C73.0797 57.6413 79.0807 58.6995 83.4346 55.6508C87.7884 52.6022 88.8466 46.6013 85.7979 42.2474L85.0665 41.2027C74.8808 26.6562 54.8314 23.1209 40.2848 33.3065C25.7383 43.4922 22.203 63.5416 32.3886 78.0882L64.8173 124.401C67.8659 128.755 73.8668 129.813 78.2207 126.764Z" fill="white"/>
<mask id="mask1_5593_338" style="mask-type:alpha" maskUnits="userSpaceOnUse" x="26" y="27" width="62" height="102">
<path fill-rule="evenodd" clip-rule="evenodd" d="M78.2194 126.763C82.5732 123.714 83.6314 117.713 80.5827 113.359L48.1541 67.0463C44.0658 61.2075 45.4848 53.1599 51.3236 49.0715C57.1624 44.9832 65.2099 46.4022 69.2983 52.241L70.0298 53.2856C73.0784 57.6395 79.0793 58.6976 83.4332 55.649C87.7871 52.6004 88.8452 46.5995 85.7966 42.2456L85.0651 41.2009C74.8795 26.6543 54.8301 23.1191 40.2835 33.3047C25.7369 43.4903 22.2017 63.5397 32.3873 78.0863L64.8159 124.399C67.8645 128.753 73.8655 129.811 78.2194 126.763Z" fill="#EF476F"/>
</mask>
<g mask="url(#mask1_5593_338)">
<circle cx="66.084" cy="66.084" r="62.876" transform="matrix(0.5 -0.866025 -0.866025 -0.5 42.4135 149.67)" stroke="#E53E3E" stroke-width="6.41592"/>
<circle cx="80.8406" cy="80.8406" r="77.6326" transform="matrix(0.5 -0.866025 -0.866025 -0.5 47.8145 169.828)" stroke="#E53E3E" stroke-width="6.41592"/>
<circle cx="50.6858" cy="50.6858" r="47.4778" transform="matrix(0.5 -0.866025 -0.866025 -0.5 36.7773 128.635)" stroke="#E53E3E" stroke-width="6.41592"/>
<circle cx="33.3628" cy="33.3628" r="30.1548" transform="matrix(0.5 -0.866025 -0.866025 -0.5 30.4365 104.972)" stroke="#E53E3E" stroke-width="6.41592"/>
<circle cx="18.6062" cy="18.6062" r="15.3982" transform="matrix(0.5 -0.866025 -0.866025 -0.5 25.0352 84.8142)" stroke="#E53E3E" stroke-width="6.41592"/>
</g>
<circle cx="6.75386" cy="6.75386" r="6.75386" transform="matrix(0.75455 -0.656242 -0.656242 -0.75455 111.746 80.3745)" fill="white"/>
<circle cx="6.75386" cy="6.75386" r="6.75386" transform="matrix(0.75455 -0.656242 -0.656242 -0.75455 30.6227 117.673)" fill="white"/>
</svg>
