<svg width="52" height="48" viewBox="0 0 52 48" fill="currentColor" xmlns="http://www.w3.org/2000/svg">
<path d="M14.587 19.3622V27.6832H13.7537V23.7906H9.24203V27.6832H8.40873V19.3622H9.24203V23.1001H13.7537V19.3622H14.587ZM15.7502 24.4215C15.7502 23.7548 15.8811 23.1715 16.143 22.6716C16.4128 22.1637 16.7819 21.7748 17.2501 21.505C17.7263 21.2272 18.262 21.0883 18.8572 21.0883C19.4762 21.0883 20.0079 21.2312 20.4523 21.5169C20.9047 21.8026 21.2301 22.1676 21.4285 22.612V21.1835H22.2618V27.6832H21.4285V26.2428C21.2221 26.6872 20.8928 27.0563 20.4404 27.3499C19.996 27.6356 19.4643 27.7785 18.8453 27.7785C18.258 27.7785 17.7263 27.6396 17.2501 27.3618C16.7819 27.084 16.4128 26.6912 16.143 26.1833C15.8811 25.6754 15.7502 25.0881 15.7502 24.4215ZM21.4285 24.4334C21.4285 23.9096 21.3213 23.4493 21.1071 23.0525C20.8928 22.6557 20.5992 22.3502 20.2262 22.1359C19.8611 21.9216 19.4563 21.8145 19.0119 21.8145C18.5516 21.8145 18.139 21.9176 17.7739 22.124C17.4088 22.3303 17.1192 22.6319 16.9049 23.0287C16.6985 23.4176 16.5954 23.8818 16.5954 24.4215C16.5954 24.9532 16.6985 25.4214 16.9049 25.8262C17.1192 26.223 17.4088 26.5285 17.7739 26.7428C18.139 26.9491 18.5516 27.0523 19.0119 27.0523C19.4563 27.0523 19.8611 26.9452 20.2262 26.7309C20.5992 26.5166 20.8928 26.2111 21.1071 25.8143C21.3213 25.4175 21.4285 24.9572 21.4285 24.4334ZM24.6284 22.612C24.8347 22.1756 25.1601 21.8145 25.6045 21.5288C26.0569 21.2351 26.5926 21.0883 27.2116 21.0883C27.7989 21.0883 28.3266 21.2272 28.7948 21.505C29.271 21.7748 29.64 22.1637 29.9019 22.6716C30.1718 23.1715 30.3067 23.7548 30.3067 24.4215C30.3067 25.0881 30.1718 25.6754 29.9019 26.1833C29.64 26.6912 29.271 27.084 28.7948 27.3618C28.3266 27.6396 27.7989 27.7785 27.2116 27.7785C26.6005 27.7785 26.0688 27.6356 25.6164 27.3499C25.1641 27.0563 24.8347 26.6912 24.6284 26.2547V30.7545H23.807V21.1835H24.6284V22.612ZM29.4615 24.4215C29.4615 23.8818 29.3543 23.4176 29.1401 23.0287C28.9337 22.6319 28.648 22.3303 28.283 22.124C27.9179 21.9176 27.5052 21.8145 27.0449 21.8145C26.6005 21.8145 26.1918 21.9216 25.8188 22.1359C25.4537 22.3502 25.1641 22.6557 24.9498 23.0525C24.7355 23.4493 24.6284 23.9096 24.6284 24.4334C24.6284 24.9572 24.7355 25.4175 24.9498 25.8143C25.1641 26.2111 25.4537 26.5166 25.8188 26.7309C26.1918 26.9452 26.6005 27.0523 27.0449 27.0523C27.5052 27.0523 27.9179 26.9491 28.283 26.7428C28.648 26.5285 28.9337 26.223 29.1401 25.8262C29.3543 25.4214 29.4615 24.9532 29.4615 24.4215ZM32.3043 22.612C32.5106 22.1756 32.836 21.8145 33.2804 21.5288C33.7328 21.2351 34.2684 21.0883 34.8875 21.0883C35.4747 21.0883 36.0025 21.2272 36.4707 21.505C36.9469 21.7748 37.3159 22.1637 37.5778 22.6716C37.8476 23.1715 37.9826 23.7548 37.9826 24.4215C37.9826 25.0881 37.8476 25.6754 37.5778 26.1833C37.3159 26.6912 36.9469 27.084 36.4707 27.3618C36.0025 27.6396 35.4747 27.7785 34.8875 27.7785C34.2764 27.7785 33.7447 27.6356 33.2923 27.3499C32.8399 27.0563 32.5106 26.6912 32.3043 26.2547V30.7545H31.4829V21.1835H32.3043V22.612ZM37.1374 24.4215C37.1374 23.8818 37.0302 23.4176 36.8159 23.0287C36.6096 22.6319 36.3239 22.3303 35.9588 22.124C35.5938 21.9176 35.1811 21.8145 34.7208 21.8145C34.2764 21.8145 33.8677 21.9216 33.4947 22.1359C33.1296 22.3502 32.8399 22.6557 32.6257 23.0525C32.4114 23.4493 32.3043 23.9096 32.3043 24.4334C32.3043 24.9572 32.4114 25.4175 32.6257 25.8143C32.8399 26.2111 33.1296 26.5166 33.4947 26.7309C33.8677 26.9452 34.2764 27.0523 34.7208 27.0523C35.1811 27.0523 35.5938 26.9491 35.9588 26.7428C36.3239 26.5285 36.6096 26.223 36.8159 25.8262C37.0302 25.4214 37.1374 24.9532 37.1374 24.4215ZM44.5156 21.1835L40.6587 30.7426H39.7897L41.0515 27.6475L38.385 21.1835H39.3016L41.5158 26.7309L43.6585 21.1835H44.5156ZM8.09365 32.3622L8.09365 40.6832H7.26035V36.7906H2.74866L2.74866 40.6832H1.91537L1.91537 32.3622H2.74866L2.74866 36.1001H7.26035V32.3622H8.09365ZM12.4828 40.7785C11.8718 40.7785 11.3202 40.6435 10.8282 40.3737C10.3441 40.096 9.95916 39.7071 9.67346 39.2071C9.3957 38.6992 9.25681 38.108 9.25681 37.4334C9.25681 36.7588 9.39966 36.1715 9.68537 35.6716C9.97107 35.1637 10.3599 34.7748 10.852 34.505C11.344 34.2272 11.8956 34.0883 12.5067 34.0883C13.1177 34.0883 13.6693 34.2272 14.1613 34.505C14.6613 34.7748 15.0502 35.1637 15.328 35.6716C15.6137 36.1715 15.7565 36.7588 15.7565 37.4334C15.7565 38.1 15.6137 38.6873 15.328 39.1952C15.0423 39.7031 14.6494 40.096 14.1494 40.3737C13.6495 40.6435 13.0939 40.7785 12.4828 40.7785ZM12.4828 40.0523C12.9114 40.0523 13.3082 39.9571 13.6733 39.7666C14.0383 39.5682 14.332 39.2746 14.5542 38.8857C14.7843 38.4889 14.8994 38.0048 14.8994 37.4334C14.8994 36.862 14.7883 36.3818 14.5661 35.993C14.3439 35.5962 14.0502 35.3025 13.6852 35.1121C13.3201 34.9137 12.9233 34.8145 12.4948 34.8145C12.0662 34.8145 11.6694 34.9137 11.3043 35.1121C10.9393 35.3025 10.6456 35.5962 10.4234 35.993C10.2091 36.3818 10.102 36.862 10.102 37.4334C10.102 38.0048 10.2091 38.4889 10.4234 38.8857C10.6456 39.2746 10.9353 39.5682 11.2924 39.7666C11.6575 39.9571 12.0543 40.0523 12.4828 40.0523ZM17.7517 31.8741V40.6832H16.9184V31.8741H17.7517ZM19.6982 32.9574C19.5315 32.9574 19.3887 32.8979 19.2696 32.7788C19.1506 32.6598 19.0911 32.513 19.0911 32.3384C19.0911 32.1638 19.1506 32.0209 19.2696 31.9098C19.3887 31.7908 19.5315 31.7313 19.6982 31.7313C19.8648 31.7313 20.0077 31.7908 20.1267 31.9098C20.2458 32.0209 20.3053 32.1638 20.3053 32.3384C20.3053 32.513 20.2458 32.6598 20.1267 32.7788C20.0077 32.8979 19.8648 32.9574 19.6982 32.9574ZM20.1148 34.1835V40.6832H19.2815V34.1835H20.1148ZM21.2638 37.4215C21.2638 36.7548 21.3987 36.1715 21.6685 35.6716C21.9383 35.1637 22.3074 34.7748 22.7756 34.505C23.2518 34.2272 23.7875 34.0883 24.3827 34.0883C24.9541 34.0883 25.4699 34.2272 25.9302 34.505C26.3905 34.7827 26.7278 35.1438 26.9421 35.5882V31.8741H27.7754V40.6832H26.9421V39.2309C26.7437 39.6833 26.4183 40.0563 25.9659 40.3499C25.5136 40.6356 24.9818 40.7785 24.3708 40.7785C23.7756 40.7785 23.2399 40.6396 22.7637 40.3618C22.2955 40.084 21.9264 39.6912 21.6566 39.1833C21.3947 38.6754 21.2638 38.0881 21.2638 37.4215ZM26.9421 37.4334C26.9421 36.9096 26.8349 36.4493 26.6207 36.0525C26.4064 35.6557 26.1127 35.3502 25.7397 35.1359C25.3747 34.9216 24.9699 34.8145 24.5255 34.8145C24.0652 34.8145 23.6525 34.9176 23.2875 35.124C22.9224 35.3303 22.6328 35.6319 22.4185 36.0287C22.2121 36.4176 22.109 36.8818 22.109 37.4215C22.109 37.9532 22.2121 38.4214 22.4185 38.8262C22.6328 39.223 22.9224 39.5285 23.2875 39.7428C23.6525 39.9491 24.0652 40.0523 24.5255 40.0523C24.9699 40.0523 25.3747 39.9452 25.7397 39.7309C26.1127 39.5166 26.4064 39.2111 26.6207 38.8143C26.8349 38.4175 26.9421 37.9572 26.9421 37.4334ZM28.9396 37.4215C28.9396 36.7548 29.0706 36.1715 29.3325 35.6716C29.6023 35.1637 29.9713 34.7748 30.4396 34.505C30.9157 34.2272 31.4514 34.0883 32.0466 34.0883C32.6657 34.0883 33.1974 34.2312 33.6418 34.5169C34.0942 34.8026 34.4195 35.1676 34.6179 35.612V34.1835H35.4512V40.6832H34.6179V39.2428C34.4116 39.6872 34.0823 40.0563 33.6299 40.3499C33.1855 40.6356 32.6538 40.7785 32.0347 40.7785C31.4475 40.7785 30.9157 40.6396 30.4396 40.3618C29.9713 40.084 29.6023 39.6912 29.3325 39.1833C29.0706 38.6754 28.9396 38.0881 28.9396 37.4215ZM34.6179 37.4334C34.6179 36.9096 34.5108 36.4493 34.2965 36.0525C34.0823 35.6557 33.7886 35.3502 33.4156 35.1359C33.0506 34.9216 32.6458 34.8145 32.2014 34.8145C31.7411 34.8145 31.3284 34.9176 30.9634 35.124C30.5983 35.3303 30.3086 35.6319 30.0944 36.0287C29.888 36.4176 29.7848 36.8818 29.7848 37.4215C29.7848 37.9532 29.888 38.4214 30.0944 38.8262C30.3086 39.223 30.5983 39.5285 30.9634 39.7428C31.3284 39.9491 31.7411 40.0523 32.2014 40.0523C32.6458 40.0523 33.0506 39.9452 33.4156 39.7309C33.7886 39.5166 34.0823 39.2111 34.2965 38.8143C34.5108 38.4175 34.6179 37.9572 34.6179 37.4334ZM42.3533 34.1835L38.4964 43.7426H37.6274L38.8892 40.6475L36.2227 34.1835H37.1393L39.3535 39.7309L41.4962 34.1835H42.3533ZM45.3642 40.7785C44.6182 40.7785 44.0071 40.6078 43.5309 40.2666C43.0627 39.9174 42.8008 39.4452 42.7453 38.85H43.6024C43.642 39.215 43.8127 39.5126 44.1142 39.7428C44.4237 39.965 44.8364 40.0761 45.3523 40.0761C45.8046 40.0761 46.1578 39.969 46.4117 39.7547C46.6736 39.5404 46.8046 39.2746 46.8046 38.9571C46.8046 38.7349 46.7332 38.5524 46.5903 38.4095C46.4475 38.2667 46.2649 38.1556 46.0427 38.0762C45.8284 37.9889 45.5348 37.8976 45.1618 37.8024C44.6777 37.6754 44.2849 37.5485 43.9833 37.4215C43.6817 37.2945 43.4238 37.108 43.2095 36.862C43.0032 36.608 42.9 36.2707 42.9 35.8501C42.9 35.5327 42.9952 35.239 43.1857 34.9692C43.3762 34.6994 43.646 34.4851 43.9952 34.3264C44.3444 34.1677 44.7412 34.0883 45.1856 34.0883C45.884 34.0883 46.4475 34.2669 46.876 34.624C47.3046 34.9732 47.5347 35.4573 47.5664 36.0763H46.7332C46.7093 35.6954 46.5586 35.3898 46.2808 35.1597C46.011 34.9216 45.638 34.8026 45.1618 34.8026C44.7412 34.8026 44.3999 34.9018 44.138 35.1002C43.8762 35.2986 43.7452 35.5446 43.7452 35.8382C43.7452 36.0922 43.8206 36.3025 43.9714 36.4691C44.1301 36.6279 44.3245 36.7548 44.5547 36.8501C44.7848 36.9374 45.0943 37.0366 45.4832 37.1477C45.9514 37.2747 46.3244 37.3977 46.6022 37.5167C46.88 37.6358 47.1181 37.8103 47.3165 38.0405C47.5149 38.2706 47.618 38.5762 47.626 38.9571C47.626 39.3063 47.5307 39.6198 47.3403 39.8976C47.1498 40.1674 46.8839 40.3817 46.5427 40.5404C46.2014 40.6991 45.8086 40.7785 45.3642 40.7785ZM49.9564 32.3622L49.8493 38.481H49.1469L49.0517 32.3622H49.9564ZM49.5398 40.7427C49.3652 40.7427 49.2183 40.6832 49.0993 40.5642C48.9882 40.4451 48.9326 40.2983 48.9326 40.1237C48.9326 39.9491 48.9882 39.8063 49.0993 39.6952C49.2183 39.5761 49.3652 39.5166 49.5398 39.5166C49.7064 39.5166 49.8453 39.5761 49.9564 39.6952C50.0754 39.8063 50.135 39.9491 50.135 40.1237C50.135 40.2983 50.0754 40.4451 49.9564 40.5642C49.8453 40.6832 49.7064 40.7427 49.5398 40.7427Z" fill="currentColor"/>
<g opacity="0.26">
<path d="M26.6922 36.4255L24.7692 38.546L16.2916 38.8523L18.2146 36.7319L26.6922 36.4255ZM23.9838 30.3705L22.0608 32.491L30.5483 32.1843L32.4714 30.0639L23.9838 30.3705ZM29.763 24.0089L27.8399 26.1293L36.3175 25.823L38.2406 23.7026L29.763 24.0089ZM34.6036 17.6811C34.6801 18.1398 34.5507 18.7085 33.9745 19.3651L33.6091 19.768L40.4191 19.5219C40.5741 18.8293 40.6392 18.1398 40.6147 17.4639L34.6036 17.6811ZM32.404 9.65932L32.626 15.8042C33.017 15.8311 33.4452 16.0617 33.8698 16.4668C34.0765 16.6542 34.5115 17.0692 34.6036 17.6811L34.6934 17.6779L34.4129 9.91489C33.7561 9.72327 33.0834 9.64503 32.404 9.65932Z" fill="currentColor"/>
<path d="M37.9564 11.9609C36.8794 10.9333 35.6749 10.2488 34.413 9.91495C33.7562 9.72333 33.0835 9.64509 32.4041 9.65939L32.4781 11.7077C33.1575 11.6934 33.8416 11.8122 34.4911 12.0759C35.2215 12.3674 35.9382 12.8337 36.591 13.4664C37.8647 14.6818 38.5441 16.0519 38.6077 17.5365C38.6399 18.1506 38.563 18.7892 38.3763 19.4317C38.3582 19.4837 38.3404 19.5458 38.3223 19.5978C37.8567 21.1015 36.9532 22.1084 36.9048 22.1511L18.3857 42.571C18.0303 42.9735 17.3709 42.987 16.9778 42.6218C16.5739 42.2355 16.5502 41.581 16.9252 41.1675L24.8867 32.3889L26.8197 30.2681L35.4543 20.7474C35.7427 20.4293 35.9894 20.0615 36.1854 19.675C36.4924 19.0383 36.6673 18.345 36.6107 17.6087C36.5489 16.729 36.1361 15.821 35.2352 14.9613C35.0178 14.7539 34.8014 14.5771 34.5758 14.4212C33.9297 13.9728 33.2518 13.7512 32.5521 13.7559C32.5018 13.7475 32.4619 13.7489 32.4119 13.7508C31.0629 13.7995 30.065 14.6559 29.5733 15.1864L28.9108 15.918C28.5454 16.3208 27.8864 16.3446 27.4929 15.9692C27.2961 15.7815 27.187 15.529 27.177 15.2525C27.1674 14.9862 27.2577 14.7163 27.4407 14.5251L28.1234 13.7724C28.1619 13.73 30.0217 11.7964 32.4814 11.7998L32.4041 9.65939C32.2554 9.69552 30.1245 10.2972 29.9766 10.3538C28.1027 11.0676 26.8841 12.1251 26.6529 12.3693L25.9802 13.1217C25.4322 13.7261 25.1504 14.5054 25.18 15.3247C25.2096 16.144 25.5472 16.9111 26.1371 17.4641C27.3077 18.5908 29.2838 18.5194 30.3709 17.3111L31.0248 16.5902C31.2944 16.3035 31.8369 15.8225 32.4859 15.799C32.5359 15.7972 32.5758 15.7958 32.6261 15.8042C33.017 15.8311 33.4453 16.0618 33.8699 16.4669C34.0766 16.6542 34.5115 17.0692 34.6036 17.6812C34.6802 18.1399 34.5508 18.7086 33.9746 19.3652L33.6092 19.7681L27.84 26.1294L23.9839 30.3706L15.4551 39.7747C14.3301 41.0152 14.4004 42.9611 15.612 44.1171C16.2022 44.6793 16.9627 44.9707 17.7715 44.9415C18.5703 44.9126 19.3077 44.5671 19.8558 43.9638L26.6923 36.4256L30.5484 32.1844L38.2406 23.7026L38.3753 23.5542C38.5964 23.3103 39.7284 21.9876 40.2972 20.0186C40.3422 19.8529 40.3862 19.6873 40.4202 19.522C40.5752 18.8293 40.6402 18.1399 40.6158 17.4639C40.5319 15.4468 39.6236 13.5517 37.9564 11.9609Z" fill="currentColor"/>
<path d="M24.0143 36.4255L25.9374 38.546L34.415 38.8523L32.4919 36.7319L24.0143 36.4255ZM26.7227 30.3705L28.6458 32.491L20.1582 32.1843L18.2352 30.0639L26.7227 30.3705ZM20.9435 24.0089L22.8666 26.1293L14.389 25.823L12.466 23.7026L20.9435 24.0089ZM16.103 17.6811C16.0264 18.1398 16.1559 18.7085 16.732 19.3651L17.0974 19.768L10.2874 19.5219C10.1325 18.8293 10.0674 18.1398 10.0918 17.4639L16.103 17.6811ZM18.3025 9.65932L18.0805 15.8042C17.6896 15.8311 17.2613 16.0617 16.8368 16.4668C16.63 16.6542 16.1951 17.0692 16.103 17.6811L16.0131 17.6779L16.2936 9.91489C16.9504 9.72327 17.6232 9.64503 18.3025 9.65932Z" fill="currentColor"/>
<path d="M12.7503 11.9609C13.8273 10.9333 15.0318 10.2488 16.2937 9.91495C16.9505 9.72333 17.6232 9.64509 18.3026 9.65939L18.2286 11.7077C17.5492 11.6934 16.865 11.8122 16.2156 12.0759C15.4852 12.3674 14.7684 12.8337 14.1157 13.4664C12.842 14.6818 12.1626 16.0519 12.0989 17.5365C12.0667 18.1506 12.1436 18.7892 12.3304 19.4317C12.3485 19.4837 12.3663 19.5458 12.3844 19.5978C12.85 21.1015 13.7534 22.1084 13.8019 22.1511L32.321 42.571C32.6764 42.9735 33.3358 42.987 33.7289 42.6218C34.1328 42.2355 34.1564 41.581 33.7814 41.1675L25.82 32.3889L23.8869 30.2681L15.2524 20.7474C14.9639 20.4293 14.7172 20.0615 14.5212 19.675C14.2143 19.0383 14.0394 18.345 14.096 17.6087C14.1578 16.729 14.5705 15.821 15.4714 14.9613C15.6889 14.7539 15.9053 14.5771 16.1309 14.4212C16.777 13.9728 17.4549 13.7512 18.1546 13.7559C18.2049 13.7475 18.2448 13.7489 18.2947 13.7508C19.6438 13.7995 20.6416 14.6559 21.1334 15.1864L21.7958 15.918C22.1612 16.3208 22.8203 16.3446 23.2138 15.9692C23.4105 15.7815 23.5196 15.529 23.5296 15.2525C23.5392 14.9862 23.449 14.7163 23.2659 14.5251L22.5833 13.7724C22.5448 13.73 20.685 11.7964 18.2252 11.7998L18.3026 9.65939C18.4513 9.69552 20.5822 10.2972 20.7301 10.3538C22.604 11.0676 23.8226 12.1251 24.0537 12.3693L24.7264 13.1217C25.2745 13.7261 25.5563 14.5054 25.5267 15.3247C25.4971 16.144 25.1594 16.9111 24.5695 17.4641C23.399 18.5908 21.4229 18.5194 20.3357 17.3111L19.6819 16.5902C19.4123 16.3035 18.8698 15.8225 18.2207 15.799C18.1708 15.7972 18.1309 15.7958 18.0806 15.8042C17.6896 15.8311 17.2614 16.0618 16.8368 16.4669C16.6301 16.6542 16.1951 17.0692 16.103 17.6812C16.0265 18.1399 16.1559 18.7086 16.7321 19.3652L17.0975 19.7681L22.8667 26.1294L26.7228 30.3706L35.2515 39.7747C36.3765 41.0152 36.3062 42.9611 35.0946 44.1171C34.5044 44.6793 33.744 44.9707 32.9352 44.9415C32.1364 44.9126 31.399 44.5671 30.8509 43.9638L24.0144 36.4256L20.1583 32.1844L12.466 23.7026L12.3314 23.5542C12.1103 23.3103 10.9782 21.9876 10.4095 20.0186C10.3645 19.8529 10.3205 19.6873 10.2865 19.522C10.1315 18.8293 10.0664 18.1399 10.0909 17.4639C10.1747 15.4468 11.0831 13.5517 12.7503 11.9609Z" fill="currentColor"/>
</g>
<path d="M31.9169 8.45039C31.7113 8.39286 31.4858 8.29136 31.3481 8.20725C31.2781 8.16449 31.255 8.08011 31.2851 8.00381C31.2998 7.96652 31.3158 7.92855 31.3308 7.89425C31.692 6.99802 32.6441 4.6175 29.1737 2.93289L28.8172 2.75977C28.6476 2.6774 28.4568 2.82399 28.4927 3.00908L28.568 3.39812C28.5703 3.40983 28.7554 4.42357 28.034 5.33272C27.9473 5.44193 27.7831 5.43251 27.698 5.32211L26.8043 4.16314C26.709 4.03958 26.5207 4.04555 26.4334 4.1749L26.28 4.40238C26.248 4.45432 25.9707 4.88783 25.5545 6.24779C25.516 6.37363 25.3803 6.44201 25.2524 6.4109C24.9688 6.34192 24.6683 6.32795 24.3636 6.38699C24.2979 6.39971 24.2338 6.41563 24.171 6.43433C24.0402 6.47333 23.8965 6.4068 23.848 6.27919C23.4913 5.34122 22.8212 4.76638 22.2617 4.29199C22.0074 4.07687 21.7671 3.87338 21.6192 3.68025L21.3776 3.36581C21.2627 3.21634 21.0265 3.26213 20.9758 3.4437L20.5501 4.96849C20.5125 5.10295 20.3635 5.17323 20.2421 5.10427C19.2457 4.53819 19.0319 3.55513 19.0223 3.50802L18.947 3.11898C18.9111 2.93389 18.6793 2.86917 18.5528 3.00892L18.2868 3.30263C15.6957 6.16375 17.4707 8.01288 18.1387 8.70884C18.1612 8.73225 18.1852 8.7572 18.2087 8.7819C18.2691 8.8455 18.2836 8.93895 18.2319 9.00984C18.1339 9.14435 17.9668 9.31684 17.8027 9.44362L17.6459 9.56511C17.5463 9.64224 17.5278 9.78535 17.6045 9.88528L17.7247 10.0419C18.5866 11.164 19.6916 11.399 20.3689 11.4248C20.5004 11.4298 20.6065 11.5369 20.6166 11.6681C20.6223 11.742 20.6319 11.8162 20.6464 11.8907C20.8702 13.0462 21.9925 13.8042 23.148 13.5803C23.5655 13.4994 23.9273 13.2982 24.2119 13.0222C24.328 12.9096 24.5272 12.9201 24.6313 13.0438C25.113 13.6161 25.8781 13.9211 26.6635 13.769C27.819 13.5451 28.577 12.4228 28.3531 11.2673C28.2653 10.8137 28.0386 10.4221 27.7262 10.1266C27.6079 10.0148 27.6105 9.81374 27.7426 9.71858C29.5771 8.39718 30.0278 6.85695 30.0481 6.78423C30.1113 6.55804 29.9794 6.32398 29.7535 6.2599C29.5288 6.19558 29.292 6.32712 29.2261 6.55254C29.2216 6.56734 28.8342 7.83943 27.3166 8.9687C27.1361 9.10299 26.8732 8.89242 26.8942 8.66846C26.9124 8.47541 26.904 8.27678 26.8653 8.07664C26.7871 7.67324 26.5975 7.3212 26.3365 7.04019C26.2784 6.97755 26.2535 6.88963 26.2777 6.80763C26.3915 6.42107 26.4945 6.10281 26.5837 5.84515C26.6423 5.676 26.8636 5.643 26.9727 5.78496L27.5783 6.57333C27.6552 6.67354 27.7989 6.69237 27.8991 6.6154L28.0583 6.49308C28.9061 5.84369 29.2474 5.05125 29.3746 4.41051C29.4078 4.24374 29.5983 4.15147 29.7359 4.25141C31.3891 5.45271 30.868 6.75337 30.5373 7.57397C30.4208 7.86615 30.3417 8.06411 30.3807 8.2653C30.4337 8.53878 30.6348 8.7501 30.8687 8.90742C30.9916 8.99009 31.0286 9.16202 30.9273 9.27014C30.3646 9.87113 29.7467 10.2569 29.2474 10.4939C29.1326 10.5492 29.0822 10.6868 29.1195 10.8086C29.1463 10.896 29.17 10.9944 29.1914 11.1049C29.1921 11.1084 29.1927 11.1119 29.1934 11.1154C29.223 11.2704 29.3873 11.3746 29.5309 11.309C30.3088 10.9537 31.3511 10.2912 32.1557 9.09989L32.3079 8.87231C32.3943 8.74317 32.3296 8.56737 32.1801 8.52501L31.9169 8.45039ZM26.027 8.23905C26.1613 8.93229 25.7064 9.60574 25.0132 9.74004C24.32 9.87435 23.6465 9.4195 23.5122 8.72625C23.3779 8.03301 23.8328 7.35956 24.526 7.22525C25.2192 7.09095 25.8927 7.5458 26.027 8.23905ZM20.8219 10.5521C20.8096 10.5544 19.7569 10.7456 18.832 9.9726C18.7353 9.89183 18.7358 9.74727 18.8163 9.65036C19.0374 9.38397 19.2251 9.04381 19.1585 8.7C19.1192 8.49714 18.9742 8.34606 18.7552 8.11758C18.1428 7.47975 17.1729 6.46962 18.2571 4.73684C18.3474 4.59258 18.5589 4.60707 18.652 4.74955C19.0087 5.29585 19.6212 5.90258 20.6523 6.19062L20.8429 6.24385C20.9646 6.27784 21.0908 6.20672 21.1248 6.08502L21.4188 5.03192C21.4541 4.90568 21.6095 4.85879 21.7096 4.94342C22.3095 5.45209 22.9895 6.0283 23.1874 7.04973C23.1885 7.05565 23.1885 7.06126 23.1845 7.06576C22.9378 7.34271 22.7666 7.6801 22.6899 8.0472C22.662 8.18088 22.5347 8.27699 22.4019 8.24504C20.4798 7.78248 19.6038 6.69776 19.5905 6.68073C19.4462 6.49516 19.1799 6.46023 18.9928 6.60345C18.8059 6.74751 18.7703 7.01531 18.914 7.2023C18.9642 7.26734 20.1248 8.73426 22.7146 9.17799C22.7443 9.18307 22.7696 9.20427 22.7795 9.23267C22.7998 9.29053 22.7554 9.35404 22.6941 9.35464C22.5759 9.3558 22.4565 9.36565 22.336 9.38899C21.6566 9.52061 21.1212 9.96664 20.8357 10.5433C20.833 10.5488 20.8278 10.5509 20.8219 10.5521ZM22.9856 12.742C22.2924 12.8763 21.6189 12.4215 21.4846 11.7283C21.3503 11.035 21.8052 10.3616 22.4984 10.2273C23.1917 10.0929 23.8651 10.5478 23.9994 11.241C24.1337 11.9343 23.6789 12.6077 22.9856 12.742ZM26.5011 12.9307C25.8078 13.065 25.1344 12.6101 25.0001 11.9169C24.8658 11.2237 25.3206 10.5502 26.0139 10.4159C26.7071 10.2816 27.3806 10.7365 27.5149 11.4297C27.6492 12.1229 27.1943 12.7964 26.5011 12.9307Z" fill="currentColor"/>
</svg>
