<svg stroke="currentColor" width="18" height="25" viewBox="0 0 18 25" fill="none" xmlns="http://www.w3.org/2000/svg">
<path d="M14.8879 1H5.55324C5.1012 1 4.67173 1.15822 4.32139 1.42945L1.84646 3.40713C0.851962 4.19821 0.851962 5.70123 1.84646 6.4923L4.32139 8.46999C4.67173 8.75252 5.1125 8.89944 5.55324 8.89944H14.8879C15.9841 8.89944 16.8656 8.01795 16.8656 6.92175V2.96638C16.8656 1.88147 15.9841 1 14.8879 1Z" stroke="currentColor" stroke-width="1.69516" stroke-linecap="round" stroke-linejoin="round"/>
<path d="M3.11148 12.3008H12.4462C12.8982 12.3008 13.3277 12.459 13.678 12.7302L16.153 14.7079C17.1474 15.499 17.1474 17.002 16.153 17.7931L13.678 19.7708C13.3277 20.0533 12.8869 20.2002 12.4462 20.2002H3.11148C2.01527 20.2002 1.13379 19.3187 1.13379 18.2225V14.2672C1.13379 13.1823 2.01527 12.3008 3.11148 12.3008Z" stroke="currentColor" stroke-width="1.69516" stroke-linecap="round" stroke-linejoin="round"/>
<path d="M8.98926 12.3015V8.91113" stroke="currentColor" stroke-width="1.69516" stroke-linecap="round" stroke-linejoin="round"/>
<path d="M8.98926 23.6022V20.2119" stroke="currentColor" stroke-width="1.69516" stroke-linecap="round" stroke-linejoin="round"/>
<path d="M5.59863 23.6016H12.3793" stroke="currentColor" stroke-width="1.69516" stroke-linecap="round" stroke-linejoin="round"/>
</svg>
