<svg stroke="currentColor" width="25" height="25" viewBox="0 0 25 25" fill="none" xmlns="http://www.w3.org/2000/svg">
<path d="M18.0258 7.05263V6.04918C18.0258 4.71005 17.4336 3.42577 16.3796 2.47887C15.3256 1.53197 13.8961 1 12.4055 1C10.9149 1 9.48532 1.53197 8.4313 2.47887C7.37729 3.42577 6.78516 4.71005 6.78516 6.04918V7.05263" stroke="currentColor" stroke-width="1.69516" stroke-linecap="round" stroke-linejoin="round"/>
<path d="M2.10475 21.2311C2.27859 22.2523 3.14888 22.9953 4.18112 23.0816C6.88607 23.3077 9.71349 23.6016 12.6231 23.6016C15.56 23.6016 18.3925 23.4165 21.1305 23.1338C22.1322 23.0304 22.9484 22.2805 23.1148 21.2873C23.4362 19.3682 23.6486 17.3828 23.6486 15.3326C23.6486 13.2725 23.4556 11.2557 23.1244 9.33543C22.9565 8.3621 22.1529 7.63322 21.1707 7.52908C18.4108 7.23643 15.5769 7.06348 12.6231 7.06348C9.66527 7.06348 6.78034 7.22604 4.04079 7.5249C3.07546 7.63021 2.28493 8.34345 2.11599 9.29969C1.77542 11.2273 1.59766 13.2612 1.59766 15.3326C1.59766 17.3635 1.78076 19.3279 2.10475 21.2311Z" stroke="currentColor" stroke-width="1.69516" stroke-linejoin="round"/>
<path d="M6.78125 22.4991V7.06348" stroke="currentColor" stroke-width="1.69516" stroke-linecap="round" stroke-linejoin="round"/>
<path d="M18.0273 22.4991V7.06348" stroke="currentColor" stroke-width="1.69516" stroke-linecap="round" stroke-linejoin="round"/>
</svg>
