<svg stroke="currentColor" width="29" height="25" viewBox="0 0 29 25" fill="none" xmlns="http://www.w3.org/2000/svg">
<path d="M1.16016 23.5908H27.3311" stroke="currentColor" stroke-width="1.69516" stroke-miterlimit="10" stroke-linecap="round" stroke-linejoin="round"/>
<path d="M23.501 23.6025V18.2969" stroke="currentColor" stroke-width="1.69516" stroke-miterlimit="10" stroke-linecap="round" stroke-linejoin="round"/>
<path d="M23.5243 10.374C22.073 10.374 20.9072 11.5398 20.9072 12.9911V15.6914C20.9072 17.1427 22.073 18.3085 23.5243 18.3085C24.9756 18.3085 26.1414 17.1427 26.1414 15.6914V12.9911C26.1414 11.5398 24.9756 10.374 23.5243 10.374Z" stroke="currentColor" stroke-width="1.69516" stroke-miterlimit="10" stroke-linecap="round" stroke-linejoin="round"/>
<path d="M2.46875 23.5902V4.59257C2.46875 2.20151 3.6584 1 6.02567 1H13.4368C15.804 1 16.9817 2.20151 16.9817 4.59257V23.5902" stroke="currentColor" stroke-width="1.69516" stroke-miterlimit="10" stroke-linecap="round" stroke-linejoin="round"/>
<path d="M6.87012 7.2334H12.7586" stroke="currentColor" stroke-width="1.69516" stroke-miterlimit="10" stroke-linecap="round" stroke-linejoin="round"/>
<path d="M6.87012 11.6943H12.7586" stroke="currentColor" stroke-width="1.69516" stroke-miterlimit="10" stroke-linecap="round" stroke-linejoin="round"/>
<path d="M9.78418 23.5908V19.1299" stroke="currentColor" stroke-width="1.69516" stroke-miterlimit="10" stroke-linecap="round" stroke-linejoin="round"/>
</svg>
