<svg width="137" height="77" viewBox="0 0 137 77" fill="none" xmlns="http://www.w3.org/2000/svg">
<path opacity="0.4" fill-rule="evenodd" clip-rule="evenodd" d="M86.6689 25.4248L213.543 46.9945L213.799 30.9751C213.799 30.9751 196.98 37.1744 180.209 34.252C163.439 31.3297 163.547 24.5847 147.641 22.1451C133.004 19.9002 114.775 26.3429 89.6102 24.4788L86.6689 25.4248Z" fill="#D94407"/>
<path d="M3.69131 26.2734L82.7331 32.5784L96.2986 29.2497C97.5885 28.9277 98.8004 28.3494 99.8622 27.5493C100.924 26.7492 101.814 25.7437 102.479 24.5925L19.6241 17.9858C15.1471 17.6289 10.6464 18.2587 6.43931 19.8306L5.29237 20.2577C3.97375 20.7548 2.83697 21.6403 2.03222 22.7971C1.81668 23.1202 1.68876 23.4937 1.66101 23.881C1.63325 24.2684 1.7066 24.6563 1.87386 25.0067C2.04113 25.3572 2.29658 25.6582 2.61518 25.8803C2.93378 26.1023 3.3046 26.2378 3.69131 26.2734Z" fill="#D94407"/>
<path opacity="0.1" d="M2.02541 22.7643C2.22757 22.4702 2.4533 22.193 2.7004 21.9355L95.7246 29.3536L82.7341 32.5997L3.68935 26.2744C3.29482 26.247 2.91469 26.1151 2.58801 25.8922C2.26133 25.6693 1.99986 25.3635 1.83046 25.0061C1.66105 24.6488 1.58984 24.2528 1.6241 23.8588C1.65836 23.4648 1.79687 23.087 2.02541 22.7643Z" fill="#0F344A"/>
<path d="M6.43089 19.7978C7.58548 19.3683 8.76529 19.0098 9.96369 18.7244L24.6313 19.8979C24.6147 20.1227 24.5536 20.342 24.4515 20.5431C24.3495 20.7441 24.2085 20.9228 24.0367 21.0689C23.865 21.215 23.6659 21.3255 23.4511 21.394C23.2363 21.4624 23.01 21.4876 22.7854 21.4679L5.61053 20.0951L6.43089 19.7978Z" fill="white"/>
<path d="M27.563 20.9823L27.8151 21.0025C28.0747 21.0232 28.2683 21.2505 28.2476 21.5101L28.1866 22.2731C28.1659 22.5327 27.9386 22.7264 27.679 22.7056L27.4269 22.6855C27.1673 22.6647 26.9737 22.4374 26.9944 22.1778L27.0554 21.4148C27.0761 21.1552 27.3034 20.9616 27.563 20.9823Z" fill="white"/>
<path d="M30.354 21.215L30.6061 21.2351C30.8657 21.2557 31.0594 21.4829 31.0388 21.7425L30.9781 22.5056C30.9574 22.7652 30.7302 22.9589 30.4706 22.9382L30.2185 22.9182C29.9589 22.8975 29.7652 22.6703 29.7858 22.4107L29.8465 21.6477C29.8672 21.3881 30.0944 21.1944 30.354 21.215Z" fill="white"/>
<path d="M33.1382 21.4306L33.3903 21.4507C33.6499 21.4715 33.8435 21.6987 33.8228 21.9583L33.7618 22.7213C33.7411 22.981 33.5138 23.1746 33.2542 23.1539L33.0021 23.1337C32.7425 23.113 32.5489 22.8857 32.5696 22.6261L32.6306 21.8631C32.6513 21.6035 32.8786 21.4098 33.1382 21.4306Z" fill="white"/>
<path d="M35.9361 21.6571L36.1881 21.6773C36.4477 21.698 36.6414 21.9253 36.6206 22.1849L36.5597 22.9479C36.5389 23.2075 36.3116 23.4012 36.052 23.3804L35.8 23.3603C35.5404 23.3395 35.3467 23.1123 35.3675 22.8526L35.4284 22.0896C35.4492 21.83 35.6765 21.6364 35.9361 21.6571Z" fill="white"/>
<path d="M38.7349 21.8781L38.987 21.8981C39.2466 21.9188 39.4403 22.146 39.4196 22.4056L39.3589 23.1686C39.3383 23.4283 39.1111 23.622 38.8514 23.6013L38.5994 23.5813C38.3398 23.5606 38.146 23.3334 38.1667 23.0738L38.2274 22.3108C38.2481 22.0512 38.4753 21.8574 38.7349 21.8781Z" fill="white"/>
<path d="M41.5122 22.0898L41.7643 22.1099C42.0239 22.1306 42.2176 22.3579 42.1968 22.6175L42.1358 23.3805C42.1151 23.6401 41.8878 23.8338 41.6282 23.813L41.3761 23.7929C41.1165 23.7721 40.9229 23.5449 40.9436 23.2853L41.0046 22.5223C41.0254 22.2626 41.2526 22.069 41.5122 22.0898Z" fill="white"/>
<path d="M44.313 22.3302L44.5651 22.3503C44.8247 22.371 45.0184 22.5982 44.9978 22.8578L44.9371 23.6208C44.9164 23.8804 44.6892 24.0741 44.4296 24.0535L44.1775 24.0334C43.9179 24.0128 43.7242 23.7856 43.7448 23.5259L43.8055 22.7629C43.8262 22.5033 44.0534 22.3096 44.313 22.3302Z" fill="white"/>
<path d="M47.1001 22.538L47.3522 22.5581C47.6118 22.5789 47.8054 22.8062 47.7847 23.0658L47.7237 23.8288C47.703 24.0884 47.4757 24.282 47.2161 24.2613L46.964 24.2411C46.7044 24.2204 46.5108 23.9931 46.5315 23.7335L46.5925 22.9705C46.6133 22.7109 46.8405 22.5173 47.1001 22.538Z" fill="#D94407"/>
<path d="M49.8911 22.7687L50.1432 22.7888C50.4028 22.8094 50.5965 23.0366 50.5759 23.2962L50.5152 24.0593C50.4945 24.3189 50.2673 24.5126 50.0077 24.492L49.7556 24.4719C49.496 24.4512 49.3023 24.224 49.3229 23.9644L49.3837 23.2014C49.4043 22.9418 49.6315 22.7481 49.8911 22.7687Z" fill="#D94407"/>
<path d="M52.6773 22.9853L52.9293 23.0054C53.189 23.0262 53.3826 23.2534 53.3619 23.513L53.3009 24.276C53.2801 24.5356 53.0529 24.7293 52.7932 24.7085L52.5412 24.6884C52.2816 24.6677 52.0879 24.4404 52.1087 24.1808L52.1697 23.4178C52.1904 23.1582 52.4177 22.9645 52.6773 22.9853Z" fill="#D94407"/>
<path d="M55.481 23.214L55.733 23.2341C55.9927 23.2547 56.1864 23.4819 56.1657 23.7416L56.105 24.5046C56.0844 24.7642 55.8572 24.9579 55.5975 24.9373L55.3455 24.9172C55.0859 24.8966 54.8921 24.6693 54.9128 24.4097L54.9735 23.6467C54.9942 23.3871 55.2214 23.1934 55.481 23.214Z" fill="#D94407"/>
<path d="M58.2691 23.4384L58.5211 23.4585C58.7808 23.4793 58.9744 23.7065 58.9536 23.9662L58.8927 24.7292C58.8719 24.9888 58.6447 25.1824 58.385 25.1617L58.133 25.1415C57.8734 25.1208 57.6797 24.8935 57.7005 24.6339L57.7615 23.8709C57.7822 23.6113 58.0095 23.4176 58.2691 23.4384Z" fill="#D94407"/>
<path d="M60.6105 24.0457L60.8637 24.0655C61.1245 24.086 61.3194 24.3139 61.2989 24.5747L61.2389 25.3412C61.2184 25.602 60.9904 25.7968 60.7297 25.7763L60.4765 25.7565C60.2157 25.7361 60.0208 25.5081 60.0413 25.2473L60.1014 24.4809C60.1218 24.2201 60.3498 24.0252 60.6105 24.0457Z" fill="white"/>
<path d="M63.8492 23.8778L64.1012 23.898C64.3608 23.9187 64.5545 24.146 64.5337 24.4056L64.4728 25.1686C64.452 25.4282 64.2247 25.6219 63.9651 25.6011L63.7131 25.581C63.4534 25.5602 63.2598 25.333 63.2806 25.0733L63.3415 24.3103C63.3623 24.0507 63.5895 23.8571 63.8492 23.8778Z" fill="white"/>
<path d="M66.6402 24.0918L66.8922 24.1119C67.1518 24.1326 67.3455 24.3599 67.3248 24.6195L67.264 25.3825C67.2433 25.6421 67.016 25.8358 66.7564 25.8151L66.5044 25.795C66.2447 25.7743 66.0511 25.5471 66.0718 25.2874L66.1326 24.5244C66.1533 24.2648 66.3805 24.0711 66.6402 24.0918Z" fill="white"/>
<path d="M69.4302 24.3251L69.6823 24.3452C69.9419 24.366 70.1355 24.5933 70.1148 24.8529L70.0538 25.6159C70.0331 25.8755 69.8058 26.0691 69.5462 26.0484L69.2941 26.0282C69.0345 26.0075 68.8409 25.7802 68.8616 25.5206L68.9226 24.7576C68.9433 24.498 69.1706 24.3044 69.4302 24.3251Z" fill="white"/>
<path d="M72.2261 24.5568L72.4782 24.5769C72.7378 24.5975 72.9315 24.8247 72.9108 25.0843L72.8501 25.8474C72.8295 26.107 72.6023 26.3007 72.3427 26.28L72.0906 26.26C71.831 26.2393 71.6373 26.0121 71.6579 25.7525L71.7186 24.9895C71.7393 24.7299 71.9665 24.5361 72.2261 24.5568Z" fill="white"/>
<path d="M75.023 24.7756L75.275 24.7956C75.5347 24.8163 75.7284 25.0435 75.7077 25.3031L75.647 26.0661C75.6264 26.3257 75.3991 26.5194 75.1395 26.4988L74.8875 26.4787C74.6278 26.4581 74.4341 26.2309 74.4548 25.9713L74.5155 25.2082C74.5361 24.9486 74.7634 24.7549 75.023 24.7756Z" fill="white"/>
<path d="M77.8081 24.9921L78.0602 25.0122C78.3198 25.033 78.5135 25.2603 78.4927 25.5199L78.4317 26.2829C78.411 26.5425 78.1837 26.7361 77.9241 26.7154L77.672 26.6952C77.4124 26.6745 77.2188 26.4472 77.2395 26.1876L77.3005 25.4246C77.3213 25.165 77.5485 24.9714 77.8081 24.9921Z" fill="white"/>
<path d="M80.5982 25.209L80.8502 25.2291C81.1099 25.2498 81.3035 25.4771 81.2828 25.7367L81.222 26.4997C81.2013 26.7593 80.974 26.953 80.7144 26.9323L80.4624 26.9122C80.2028 26.8915 80.0091 26.6642 80.0298 26.4046L80.0906 25.6416C80.1113 25.382 80.3386 25.1883 80.5982 25.209Z" fill="white"/>
<path d="M98.567 12.6503L102.657 13.0088L100.94 24.468L85.1226 23.1697C90.4938 23.5998 98.567 12.6503 98.567 12.6503Z" fill="#D94407"/>
<path d="M75.6404 30.2282C76.3435 29.4451 77.2979 28.932 78.3389 28.7775L89.007 27.1974L94.1124 27.6035L85.9701 31.0511L75.6404 30.2282Z" fill="#D94407"/>
<path d="M29.3604 27.5652L62.6433 18.3122C64.4853 17.7984 66.4035 17.6141 68.3096 17.7678L72.8631 18.129L53.5333 29.4935L29.3604 27.5652Z" fill="#D94407"/>
<path d="M30.8673 28.0669L51.9493 35.4446C53.1381 35.8573 54.3748 36.1159 55.6294 36.2142L58.6557 36.4701L51.6611 29.7347L30.8673 28.0669Z" fill="#D94407"/>
<path d="M88.1778 31.2297L82.7315 32.5848L3.68871 26.2731C3.17433 26.2342 2.6891 26.0191 2.31488 25.664C1.94066 25.309 1.70032 24.8357 1.63445 24.3241L88.1778 31.2297Z" fill="#D94407"/>
</svg>
