<svg width="151" height="150" viewBox="0 0 151 150" fill="none" xmlns="http://www.w3.org/2000/svg">
<path d="M75.5 150C116.921 150 150.5 116.421 150.5 75C150.5 33.5786 116.921 0 75.5 0C34.0786 0 0.5 33.5786 0.5 75C0.5 116.421 34.0786 150 75.5 150Z" fill="url(#paint0_linear_1159_6748)"/>
<path d="M120.5 150H30.5V53C34.742 52.9952 38.8089 51.308 41.8084 48.3085C44.808 45.3089 46.4952 41.242 46.5 37H104.5C104.496 39.1014 104.908 41.1828 105.713 43.1238C106.518 45.0648 107.7 46.8268 109.191 48.308C110.672 49.7991 112.434 50.9816 114.375 51.787C116.317 52.5924 118.398 53.0047 120.5 53V150Z" fill="white"/>
<path d="M75.5 102C88.7548 102 99.5 91.2548 99.5 78C99.5 64.7452 88.7548 54 75.5 54C62.2452 54 51.5 64.7452 51.5 78C51.5 91.2548 62.2452 102 75.5 102Z" fill="#D94407"/>
<path d="M84.6924 88.6068C84.3019 88.9973 83.6687 88.9973 83.2782 88.6068L76.2071 81.5357C75.8166 81.1452 75.1834 81.1452 74.7929 81.5357L67.7218 88.6068C67.3313 88.9973 66.6981 88.9973 66.3076 88.6068L64.8934 87.1925C64.5029 86.802 64.5029 86.1689 64.8934 85.7783L71.9645 78.7073C72.355 78.3167 72.355 77.6836 71.9645 77.2931L64.8934 70.222C64.5029 69.8315 64.5029 69.1983 64.8934 68.8078L66.3076 67.3936C66.6981 67.003 67.3313 67.003 67.7218 67.3936L74.7929 74.4646C75.1834 74.8552 75.8166 74.8552 76.2071 74.4646L83.2782 67.3936C83.6687 67.003 84.3019 67.003 84.6924 67.3936L86.1066 68.8078C86.4971 69.1983 86.4971 69.8315 86.1066 70.222L79.0355 77.2931C78.645 77.6836 78.645 78.3167 79.0355 78.7073L86.1066 85.7783C86.4971 86.1689 86.4971 86.802 86.1066 87.1925L84.6924 88.6068Z" fill="white"/>
<path d="M88.5 108H62.5C60.8431 108 59.5 109.343 59.5 111C59.5 112.657 60.8431 114 62.5 114H88.5C90.1569 114 91.5 112.657 91.5 111C91.5 109.343 90.1569 108 88.5 108Z" fill="#F1F6F9"/>
<path d="M97.5 120H53.5C51.8431 120 50.5 121.343 50.5 123C50.5 124.657 51.8431 126 53.5 126H97.5C99.1569 126 100.5 124.657 100.5 123C100.5 121.343 99.1569 120 97.5 120Z" fill="#F1F6F9"/>
<defs>
<linearGradient id="paint0_linear_1159_6748" x1="75.5" y1="0" x2="75.5" y2="150" gradientUnits="userSpaceOnUse">
<stop offset="0" stop-color="#F7F7F7"/>
<stop offset="1" stop-color="#F7F7F7"/>
</linearGradient>
</defs>
</svg>
