<svg stroke="currentColor" width="32" height="32" viewBox="0 0 35 36" fill="none" xmlns="http://www.w3.org/2000/svg">
<path d="M12.3032 35.3164C13.7408 35.3164 14.9062 34.151 14.9062 32.7134C14.9062 31.2758 13.7408 30.1104 12.3032 30.1104C10.8656 30.1104 9.7002 31.2758 9.7002 32.7134C9.7002 34.151 10.8656 35.3164 12.3032 35.3164Z" stroke="currentColor"/>
<path d="M26.7026 35.3164C28.1402 35.3164 29.3056 34.151 29.3056 32.7134C29.3056 31.2758 28.1402 30.1104 26.7026 30.1104C25.265 30.1104 24.0996 31.2758 24.0996 32.7134C24.0996 34.151 25.265 35.3164 26.7026 35.3164Z" stroke="currentColor"/>
<path d="M2.5 7.31055H5.17036C5.71762 7.31055 6.19555 7.6808 6.3323 8.21069L10.6677 25.0104C10.8045 25.5403 11.2824 25.9105 11.8296 25.9105H25.1584C25.6129 25.9105 26.0284 25.6537 26.2317 25.2472L32.5 12.7105" stroke="currentColor" stroke-width="2.5" stroke-linecap="round"/>
</svg>
