<svg viewBox="0 0 109 109" fill="none" xmlns="http://www.w3.org/2000/svg">
<g clip-path="url(#clip0_25_16)">
<rect width="109" height="109" fill="#F1F6F9"/>
<path d="M149.841 5.76094L81.2383 69.5416L-25.6887 36.6787C-25.5164 35.8798 -25.3097 35.0774 -25.0761 34.2775C-24.4224 32.0359 -23.5857 29.8518 -22.5745 27.7471C-19.539 21.4015 -14.7328 15.0055 -8.06874 8.82428C21.9196 -19.0569 77.949 -31.9048 117.089 -19.8753C130.042 -15.8967 139.522 -9.68602 145.32 -2.14413C146.65 -0.42087 147.809 1.42744 148.781 3.37476C149.163 4.16068 149.512 4.95425 149.841 5.76094Z" fill="#0F344A"/>
<path opacity="0.4" d="M149.841 5.76094L81.2383 69.5416L-25.6887 36.6787C-25.5164 35.8798 -25.3097 35.0774 -25.0761 34.2775C-24.4224 32.0359 -23.5857 29.8518 -22.5745 27.7471C-19.539 21.4015 -14.7328 15.0055 -8.06874 8.82428C21.9196 -19.0569 77.949 -31.9048 117.089 -19.8753C130.042 -15.8967 139.522 -9.68602 145.32 -2.14413C146.65 -0.42087 147.809 1.42744 148.781 3.37476C149.163 4.16068 149.512 4.95425 149.841 5.76094Z" fill="#0F344A"/>
<path d="M148.768 3.37804L80.5997 66.7562L-25.0592 34.2741C-24.4055 32.0325 -23.5688 29.8484 -22.5576 27.7437C-19.5387 21.4019 -14.7325 15.0059 -8.06851 8.82469C21.9199 -19.0565 77.9492 -31.9044 117.089 -19.8749C130.043 -15.8963 139.522 -9.68561 145.321 -2.14372C146.646 -0.419021 147.8 1.43024 148.768 3.37804Z" fill="#0F344A"/>
<path d="M145.299 -2.13883L79.4487 59.0968L-22.558 27.7438C-19.5392 21.402 -14.7329 15.006 -8.06892 8.82479C21.9195 -19.0564 77.9488 -31.9043 117.089 -19.8748C130.021 -15.8914 139.498 -9.69324 145.299 -2.13883Z" fill="#0F344A"/>
<path d="M145.299 -2.13883L79.4487 59.0968L-22.558 27.7438C-19.5392 21.402 -14.7329 15.006 -8.06892 8.82479C21.9195 -19.0564 77.9488 -31.9043 117.089 -19.8748C130.021 -15.8914 139.498 -9.69324 145.299 -2.13883Z" fill="#0F344A"/>
<path opacity="0.4" d="M145.299 -2.13883L79.4487 59.0968L-22.558 27.7438C-19.5392 21.402 -14.7329 15.006 -8.06892 8.82479C21.9195 -19.0564 77.9488 -31.9043 117.089 -19.8748C130.021 -15.8914 139.498 -9.69324 145.299 -2.13883Z" fill="white"/>
<path opacity="0.2" d="M63.7826 80.9273C58.6592 83.8851 50.3568 83.8851 45.2334 80.9273C41.7818 78.934 40.6578 76.1074 41.8564 73.5714C41.9078 73.4634 41.9618 73.3579 42.021 73.2525C42.1854 72.958 42.3738 72.6775 42.5843 72.414C43.3227 71.5232 44.2212 70.7782 45.2334 70.2175C50.3568 67.2623 58.6592 67.2623 63.7826 70.2175C65.4775 71.1974 66.6118 72.378 67.1853 73.6254C67.3163 73.9115 67.4197 74.2095 67.494 74.5153C67.523 74.6341 67.5461 74.7543 67.5634 74.8754C67.9081 77.0461 66.6452 79.2735 63.7826 80.9273Z" fill="#0F344A"/>
<path opacity="0.2" d="M88.2247 70.3769C85.2618 72.0872 80.4599 72.0872 77.4995 70.3769C75.5037 69.2169 74.853 67.5888 75.5371 66.1305C75.568 66.0688 75.5988 66.0071 75.6323 65.9453C75.7283 65.7758 75.8375 65.6142 75.9589 65.4618C76.3887 64.9448 76.9122 64.5137 77.5021 64.1912C80.4625 62.4809 85.2644 62.4809 88.2273 64.1912C89.2072 64.7571 89.8631 65.4412 90.1949 66.1614C90.2701 66.3271 90.3303 66.4993 90.3749 66.6758C90.3904 66.7478 90.4058 66.8198 90.4161 66.8893C90.609 68.1315 89.8811 69.4201 88.2247 70.3769Z" fill="#0F344A"/>
<path opacity="0.2" d="M33.2279 69.7777L18.9096 61.5011C18.7616 61.4158 18.6387 61.293 18.5533 61.1452C18.4678 60.9973 18.4229 60.8295 18.4229 60.6587C18.4229 60.488 18.4678 60.3202 18.5533 60.1723C18.6387 60.0245 18.7616 59.9017 18.9096 59.8164L24.6246 56.5166C25.0844 56.2511 25.6059 56.1113 26.1369 56.1113C26.6678 56.1113 27.1894 56.2511 27.6492 56.5166L41.9675 64.7829C42.1155 64.8682 42.2384 64.991 42.3238 65.1388C42.4093 65.2867 42.4542 65.4545 42.4542 65.6253C42.4542 65.796 42.4093 65.9638 42.3238 66.1117C42.2384 66.2596 42.1155 66.3823 41.9675 66.4676L36.2525 69.7675C35.7936 70.0345 35.2725 70.176 34.7416 70.1778C34.2106 70.1796 33.6886 70.0417 33.2279 69.7777V69.7777Z" fill="#0F344A"/>
<path d="M90.3851 58.3834L92.6382 59.6925C92.6382 59.6925 91.5014 56.0634 92.1238 52.4112C92.2753 51.5508 92.5868 50.7264 93.042 49.9807C93.2169 49.6129 94.5852 47.3341 93.3815 46.2847C92.1778 45.2353 89.3769 47.3135 89.5029 52.9488C89.566 54.7903 89.8625 56.6164 90.3851 58.3834V58.3834Z" fill="#0F344A"/>
<path opacity="0.3" d="M90.3851 58.3834L92.6382 59.6925C92.6382 59.6925 91.5014 56.0634 92.1238 52.4112C92.2753 51.5508 92.5868 50.7264 93.042 49.9807C93.2169 49.6129 94.5852 47.3341 93.3815 46.2847C92.1778 45.2353 89.3769 47.3135 89.5029 52.9488C89.566 54.7903 89.8625 56.6164 90.3851 58.3834V58.3834Z" fill="#0F344A"/>
<path d="M91.4317 59.0986C91.4103 59.0983 91.3894 59.0915 91.372 59.0791C91.3545 59.0667 91.3413 59.0493 91.3339 59.0292C91.3339 59.006 90.4723 56.6398 90.516 52.8435C90.5598 49.0472 92.5736 46.9871 92.5891 46.9665C92.5989 46.9567 92.6105 46.9489 92.6233 46.9436C92.6361 46.9383 92.6498 46.9356 92.6637 46.9356C92.6775 46.9356 92.6912 46.9383 92.704 46.9436C92.7168 46.9489 92.7285 46.9567 92.7382 46.9665C92.748 46.9763 92.7558 46.9879 92.7611 47.0007C92.7664 47.0135 92.7691 47.0272 92.7691 47.0411C92.7691 47.0549 92.7664 47.0687 92.7611 47.0815C92.7558 47.0943 92.748 47.1059 92.7382 47.1157C92.7177 47.1363 90.7707 49.1167 90.7269 52.8461C90.6832 56.5755 91.5217 58.934 91.532 58.9571C91.5404 58.9834 91.5384 59.0119 91.5264 59.0368C91.5145 59.0617 91.4935 59.081 91.4677 59.0909C91.4564 59.0961 91.4441 59.0988 91.4317 59.0986V59.0986Z" fill="white"/>
<path d="M92.132 59.4067L95.8562 61.5954C95.8562 61.5954 97.5615 61.3382 97.4303 59.741C97.2991 58.1438 96.6098 57.758 97.4714 57.0533C98.3331 56.3486 98.5568 56.2997 98.5157 55.6104C98.4745 54.9211 98.0013 54.6176 97.7904 54.3424C97.5795 54.0672 96.9622 53.4937 97.3917 52.6603C97.8212 51.827 98.4025 51.022 97.5383 50.6413C97.0239 50.4124 96.1572 50.6979 95.5836 51.3075C95.01 51.917 94.5342 52.3568 93.989 52.4983C93.4437 52.6398 92.312 52.65 92.348 53.5888C92.384 54.5276 92.6309 54.8491 92.4046 55.2658C91.9751 56.0502 90.1438 56.472 92.132 59.4067Z" fill="#0F344A"/>
<path d="M93.649 60.4046C93.6225 60.4041 93.5971 60.3938 93.5777 60.3758C93.5582 60.3578 93.5461 60.3333 93.5435 60.3069C93.5435 60.2503 93.1346 54.6973 96.9926 51.0477C97.0024 51.0379 97.014 51.0301 97.0268 51.0248C97.0396 51.0195 97.0533 51.0168 97.0672 51.0168C97.081 51.0168 97.0947 51.0195 97.1075 51.0248C97.1203 51.0301 97.132 51.0379 97.1418 51.0477C97.1609 51.0678 97.1716 51.0945 97.1716 51.1223C97.1716 51.1501 97.1609 51.1768 97.1418 51.1969C93.3584 54.7719 93.7545 60.2271 93.7596 60.2811C93.7606 60.295 93.7589 60.3089 93.7546 60.3221C93.7502 60.3353 93.7433 60.3475 93.7343 60.358C93.7252 60.3686 93.7141 60.3772 93.7017 60.3834C93.6893 60.3896 93.6757 60.3933 93.6619 60.3943L93.649 60.4046Z" fill="white"/>
<path d="M94.3127 55.6474C94.286 55.6475 94.2603 55.6375 94.2407 55.6193C94.2212 55.6012 94.2092 55.5763 94.2073 55.5497C94.1781 55.1239 94.0631 54.7084 93.869 54.3282C93.675 53.9481 93.4059 53.6111 93.0782 53.3378C93.0586 53.3204 93.0462 53.2963 93.0434 53.2703C93.0406 53.2443 93.0475 53.2181 93.0629 53.1969C93.0783 53.1758 93.1011 53.1611 93.1267 53.1557C93.1523 53.1504 93.179 53.1548 93.2016 53.168C93.5568 53.457 93.8483 53.8165 94.0577 54.2237C94.2671 54.631 94.3898 55.0772 94.4182 55.5343C94.4192 55.5481 94.4175 55.562 94.4132 55.5752C94.4088 55.5884 94.4019 55.6006 94.3928 55.6112C94.3837 55.6217 94.3727 55.6303 94.3602 55.6365C94.3478 55.6427 94.3343 55.6464 94.3204 55.6474H94.3127Z" fill="white"/>
<path d="M94.04 56.5938C94.0194 56.5946 93.9991 56.5891 93.9817 56.5782C93.9642 56.5673 93.9504 56.5514 93.9421 56.5325C93.9338 56.5137 93.9314 56.4928 93.9351 56.4725C93.9387 56.4523 93.9484 56.4336 93.9629 56.4189C94.004 56.3726 94.9736 55.3207 97.2216 55.6319C97.2475 55.6375 97.2703 55.6527 97.2855 55.6744C97.3008 55.6962 97.3072 55.7228 97.3037 55.7491C97.3001 55.7754 97.2867 55.7994 97.2663 55.8162C97.2458 55.8331 97.2198 55.8417 97.1933 55.8402C95.0637 55.547 94.1275 56.5501 94.1197 56.5604C94.1097 56.5714 94.0973 56.5801 94.0836 56.5859C94.0698 56.5916 94.0549 56.5944 94.04 56.5938V56.5938Z" fill="white"/>
<path d="M35.3316 45.7112L27.9834 41.47V28.322C27.9834 27.6301 28.2277 27.0952 28.6495 26.8508C28.8508 26.7455 29.077 26.6973 29.3037 26.7114C29.5303 26.7254 29.7489 26.8012 29.9355 26.9306L33.6675 29.0936C34.6011 29.6312 35.3316 31.0175 35.3316 32.2469V45.7112ZM28.5338 41.1537L34.7812 44.7545V32.2546C34.7812 31.2386 34.1459 30.0118 33.3923 29.5771L29.6475 27.4141C29.5441 27.3396 29.4233 27.293 29.2966 27.2791C29.17 27.2651 29.0419 27.2841 28.9247 27.3344C28.6675 27.4758 28.5338 27.8488 28.5338 28.3297V41.1537Z" fill="#37474F"/>
<path d="M33.6132 28.6025L30.3957 26.7456C30.2932 26.6864 30.177 26.6553 30.0587 26.6553C29.9403 26.6553 29.8241 26.6864 29.7217 26.7456C29.6192 26.8048 29.5342 26.8899 29.475 26.9924C29.4159 27.0949 29.3848 27.2111 29.3849 27.3294C29.3856 27.4476 29.417 27.5635 29.4761 27.6659C29.5352 27.7682 29.6198 27.8535 29.7218 27.9132L32.9394 29.7702C33.0418 29.8294 33.158 29.8605 33.2763 29.8605C33.3947 29.8605 33.5109 29.8293 33.6133 29.7702C33.7158 29.711 33.8008 29.6259 33.86 29.5234C33.9191 29.4209 33.9502 29.3047 33.9501 29.1864C33.9494 29.0682 33.918 28.9522 33.8589 28.8499C33.7998 28.7475 33.7152 28.6623 33.6132 28.6025V28.6025Z" fill="#0F344A"/>
<path d="M36.0232 64.1552C35.9948 64.6739 35.8448 65.1786 35.5852 65.6286C35.3256 66.0785 34.9637 66.461 34.5289 66.7452C33.7033 67.221 33.032 66.8352 33.032 65.881C33.0619 65.3638 33.2129 64.8608 33.4729 64.4127C33.7329 63.9646 34.0947 63.5839 34.5289 63.3013C35.3519 62.8178 36.0232 63.2036 36.0232 64.1552Z" fill="#263238"/>
<path d="M33.4209 66.8151L34.2311 67.2806V65.3311L33.4209 66.8151Z" fill="#263238"/>
<path d="M36.6996 64.5484C36.671 65.0667 36.5208 65.571 36.2612 66.0205C36.0016 66.47 35.6399 66.852 35.2053 67.1358C34.3797 67.6142 33.7109 67.2258 33.7109 66.2742C33.7391 65.7555 33.8891 65.2507 34.1487 64.8007C34.4083 64.3507 34.7703 63.9682 35.2053 63.6842C36.0309 63.2084 36.6996 63.5942 36.6996 64.5484Z" fill="#455A64"/>
<path d="M38.2435 42.743V62.465C38.2435 63.018 38.0506 63.3986 37.7471 63.5452L31.6592 67.092V45.297L38.0274 41.6602C38.1652 42.0048 38.2385 42.3718 38.2435 42.743V42.743Z" fill="#0F344A"/>
<path opacity="0.4" d="M38.2435 42.743V62.465C38.2435 63.018 38.0506 63.3986 37.7471 63.5452L31.6592 67.092V45.297L38.0274 41.6602C38.1652 42.0048 38.2385 42.3718 38.2435 42.743V42.743Z" fill="#0F344A"/>
<path d="M38.0268 41.6477L31.6586 45.2974L25.6993 41.5757L20.0178 38.0212L26.1005 34.4847L26.1314 34.4667C26.2677 34.3919 26.4225 34.3573 26.5777 34.3669C26.7329 34.3764 26.8823 34.4298 27.0084 34.5207L36.9389 40.2563C37.442 40.5907 37.8236 41.0788 38.0268 41.6477V41.6477Z" fill="#0F344A"/>
<path opacity="0.2" d="M38.0268 41.6477L35.0871 43.3272L34.6061 43.6024L31.6586 45.2974L25.6993 41.5757L20.0178 38.0212L23.0167 36.2774L23.5645 35.9585L26.1005 34.4847L26.1314 34.4667C26.2677 34.3919 26.4225 34.3573 26.5777 34.3669C26.7329 34.3764 26.8823 34.4298 27.0084 34.5207L36.9389 40.2563C37.442 40.5907 37.8236 41.0788 38.0268 41.6477V41.6477Z" fill="#0F344A"/>
<path d="M30.8099 67.0206L20.8795 61.2876C20.1567 60.8684 19.5703 59.7444 19.5703 58.7851V39.063C19.5703 38.0986 20.1567 37.6562 20.8795 38.0728L30.8099 43.8084C31.5326 44.225 32.1191 45.3516 32.1191 46.3083V66.0304C32.1191 66.9949 31.5326 67.4373 30.8099 67.0206Z" fill="#0F344A"/>
<path d="M35.429 64.8982V44.7981C35.4214 44.2889 35.3048 43.7873 35.087 43.3269C34.8464 42.7578 34.4405 42.2739 33.9218 41.9381L23.5644 35.9453L23.0166 36.2642L33.6466 42.4139C34.0775 42.7057 34.4115 43.1194 34.606 43.6021C34.7786 43.9777 34.8723 44.3848 34.8812 44.7981V65.2172L35.429 64.8982Z" fill="#37474F"/>
<path opacity="0.2" d="M23.3249 61.1872C23.1673 61.072 23.0387 60.9215 22.9494 60.7478C22.8601 60.5741 22.8125 60.382 22.8105 60.1867V41.7764C22.8105 41.3906 23.0446 41.2131 23.3249 41.3803C23.4829 41.4953 23.6117 41.6457 23.7011 41.8194C23.7904 41.9932 23.8378 42.1854 23.8393 42.3808V60.7911C23.8393 61.1769 23.6053 61.3544 23.3249 61.1872Z" fill="#0F344A"/>
<path opacity="0.2" d="M25.8464 62.3233C25.6885 62.2084 25.5596 62.058 25.4703 61.8842C25.381 61.7104 25.3336 61.5182 25.332 61.3228V42.9151C25.332 42.5293 25.5661 42.3518 25.8464 42.519C26.0041 42.6342 26.1327 42.7847 26.222 42.9584C26.3113 43.1321 26.3588 43.3242 26.3608 43.5195V61.9272C26.3685 62.313 26.1345 62.4905 25.8464 62.3233Z" fill="#0F344A"/>
<path opacity="0.2" d="M28.3738 63.7129C28.2161 63.5976 28.0875 63.4472 27.9982 63.2735C27.9089 63.0998 27.8614 62.9077 27.8594 62.7124V44.3021C27.8594 43.9188 28.0934 43.7414 28.3738 43.9085C28.5314 44.0233 28.66 44.1732 28.7493 44.3465C28.8386 44.5198 28.8862 44.7115 28.8882 44.9065V63.3168C28.8985 63.7026 28.6644 63.8801 28.3738 63.7129Z" fill="#0F344A"/>
<path d="M59.1565 71.9512C59.1565 71.9512 58.835 72.0309 58.925 72.7639C59.015 73.497 59.1282 74.4357 59.1282 74.4357C59.1282 74.4357 59.2336 75.9558 59.2259 76.9486C59.2182 77.9414 59.1616 79.2634 59.3622 79.981C59.5628 80.6985 59.9847 81.4444 60.6302 81.4187C61.2758 81.393 62.7984 80.4465 62.6492 77.9336C62.6107 77.2495 61.9034 74.9373 61.9034 74.9373C61.9034 74.9373 62.0165 72.6894 62.0011 72.1364C62.0047 72.0472 61.9824 71.9588 61.9367 71.8821C61.891 71.8054 61.824 71.7436 61.7439 71.7043L59.1565 71.9512Z" fill="#37474F"/>
<path d="M58.7929 69.9112L59.189 72.1514C59.189 72.1514 59.3819 72.8278 60.5907 72.8278C60.865 72.8333 61.1323 72.7408 61.3445 72.5668C61.5566 72.3928 61.6998 72.1488 61.7481 71.8787L61.8201 69.7337L58.7929 69.9112Z" fill="#945959"/>
<path d="M46.0263 27.6279L44.9126 29.6855L39.5577 31.5579C39.5577 31.5579 38.6446 30.9432 38.5675 31.0178C38.4903 31.0924 38.1534 31.7894 39.4111 32.3861L40.3447 34.0785C40.3447 34.0785 46.8261 32.7925 47.3868 32.3861C47.9475 31.9797 48.8683 30.0713 48.8683 30.0713C48.8683 30.0713 48.2304 27.5765 46.0263 27.6279Z" fill="#945959"/>
<path d="M50.1907 74.7415L49.3085 74.1705V73.0285L50.1573 73.1057L50.1907 74.7415Z" fill="#263238"/>
<path d="M51.394 71.8343L51.3606 74.0334L50.1903 74.7407L50.0565 72.8657C50.0565 72.8657 50.9722 71.8189 51.394 71.8343Z" fill="#263238"/>
<path d="M48.1939 69.2551C48.1939 69.2551 48.1322 69.3039 47.3889 71.2972C46.6456 73.2905 45.8714 74.0287 45.4213 74.4016C44.9712 74.7746 43.9501 75.4664 43.9501 75.9988C43.9501 76.5312 44.8117 76.9505 46.072 76.8424C47.3323 76.7344 49.1069 76.4258 49.5622 74.9134C49.7114 74.4248 49.7397 73.5323 50.3106 72.9176C50.8816 72.3029 51.3934 71.8348 51.3934 71.8348C51.3934 71.8348 51.4526 69.8183 50.8791 69.2782L48.1939 69.2551Z" fill="#37474F"/>
<path d="M48.1376 66.8038L48.1993 69.4581C48.1993 69.4581 48.2945 70.2657 49.5393 70.1037C50.7842 69.9416 50.8665 69.3681 50.8665 69.3681L51.4298 66.7961L48.1376 66.8038Z" fill="#945959"/>
<path d="M53.1293 53.916C53.0595 54.2414 53.0242 54.5733 53.0238 54.9062C53.0239 55.2146 53.055 55.5222 53.1164 55.8244C53.317 56.7932 53.317 57.7928 53.1164 58.7616L51.4369 66.8042C50.9294 67.0716 50.3645 67.2113 49.7909 67.2113C49.2172 67.2113 48.6523 67.0716 48.1448 66.8042C48.1448 66.8042 48.0419 58.8722 48.0419 52.9695C48.0419 41.8893 49.3125 36.0638 49.3125 36.0638H55.1509V44.6671L53.2116 53.5765L53.1293 53.916Z" fill="#945959"/>
<path d="M55.9105 42.2101L53.8838 53.2233C53.6743 53.3701 53.4459 53.4878 53.2048 53.5731C51.0829 54.3447 48.0351 52.9661 48.0351 52.9661C48.0351 41.886 49.3056 36.0604 49.3056 36.0604L55.6044 36.0373L55.9105 42.2101Z" fill="#37474F"/>
<path d="M55.833 42.6374L55.1437 38.3165H50.5476C50.5476 38.3165 50.7919 40.9734 52.7878 42.3057L54.2975 50.9707L55.833 42.6374Z" fill="#263238"/>
<path d="M62.2425 57.4985L61.8207 69.7309C61.4033 70.0842 60.8825 70.2925 60.3366 70.3245C59.7907 70.3565 59.2492 70.2105 58.7934 69.9084L55.9385 53.8668V53.8154L53.418 41.5521C51.2472 40.9657 50.0744 38.4297 49.5934 37.0177C49.48 36.7049 49.383 36.3864 49.3028 36.0635L60.3263 35.0656C60.4552 35.3818 60.5618 35.7067 60.6453 36.0378C61.0957 37.8045 61.3459 39.6163 61.3911 41.439C61.3911 43.1313 61.3525 49.9677 61.3371 52.6863V52.7069C61.3366 53.4406 61.4817 54.167 61.7641 54.8442C62.1145 55.6837 62.2777 56.5895 62.2425 57.4985V57.4985Z" fill="#945959"/>
<path d="M61.3906 41.4383C61.3906 43.1307 61.3521 49.967 61.3366 52.6856C60.5908 53.2899 59.7136 53.7108 58.7756 53.9145C57.8375 54.1182 56.8647 54.099 55.9354 53.8585C55.7004 53.8035 55.4693 53.733 55.2436 53.6476L53.4175 41.5515C50.3799 40.8905 49.5595 37.0196 49.5595 37.0196H49.5981L60.6576 36.05C61.1028 37.813 61.3486 39.6204 61.3906 41.4383V41.4383Z" fill="#37474F"/>
<path d="M52.1834 10.2074C52.1834 10.2074 53.3203 8.26552 55.6685 8.58702C58.0167 8.90851 60.7816 11.6554 60.4498 13.5252L52.1834 10.2074Z" fill="#0F344A"/>
<path opacity="0.4" d="M52.1834 10.2074C52.1834 10.2074 53.3203 8.26552 55.6685 8.58702C58.0167 8.90851 60.7816 11.6554 60.4498 13.5252L52.1834 10.2074Z" fill="white"/>
<path d="M62.2976 18.8124C63.4161 16.1515 60.8612 12.5393 56.5909 10.7443C52.3207 8.94925 47.9523 9.65114 46.8338 12.312C45.7152 14.9729 48.2702 18.5851 52.5404 20.3801C56.8106 22.1752 61.1791 21.4733 62.2976 18.8124Z" fill="#0F344A"/>
<path d="M59.3694 22.6634C56.3782 23.7565 51.5223 24.1422 51.5223 20.6058C51.5223 20.4823 51.5223 20.3666 51.5223 20.2483C51.5223 18.9031 51.4708 17.9695 51.4168 17.3368C51.4168 17.3368 51.4168 17.3188 51.4168 17.3085C51.3959 16.9216 51.3435 16.5371 51.2599 16.1588L51.1982 15.4335L51.1442 14.8291L51.1133 14.4381L50.9693 12.7638L50.8973 11.915C51.2243 11.7096 51.5994 11.5935 51.9852 11.5781C52.1664 11.5607 52.3486 11.5556 52.5305 11.5626C53.2867 11.5909 54.3309 11.8198 55.6735 12.486C56.3314 12.814 56.9545 13.2078 57.533 13.6614C57.7259 13.8106 57.9008 13.9597 58.0603 14.1089C59.4029 15.3383 59.7398 16.4237 59.7398 16.4237V18.5945C59.7398 19.222 60.658 20.328 61.1852 19.1783C61.1724 19.1732 62.3632 21.5805 59.3694 22.6634Z" fill="#263238"/>
<path d="M52.1063 21.3081C52.1063 21.3081 50.702 21.0972 49.4006 22.5941C48.0992 24.091 46.0261 27.6352 46.0261 27.6352C46.0261 27.6352 48.1094 28.3451 48.8682 30.0786L51.6974 25.1353L52.1063 21.3081Z" fill="#0F344A"/>
<path opacity="0.6" d="M52.1063 21.3081C52.1063 21.3081 50.702 21.0972 49.4006 22.5941C48.0992 24.091 46.0261 27.6352 46.0261 27.6352C46.0261 27.6352 48.1094 28.3451 48.8682 30.0786L51.6974 25.1353L52.1063 21.3081Z" fill="#0F344A"/>
<path d="M53.4 21.3078L56.7435 21.4287C56.7435 21.4287 59.2641 21.8325 59.8299 22.2414L60.0254 28.8386L59.3104 32.6194C59.3104 32.6194 60.5295 34.9522 60.9205 37.2953C60.9205 37.2953 58.8449 38.8385 54.0095 38.8385C50.8974 38.8385 49.0636 37.2953 49.0636 37.2953C49.0636 37.2953 50.203 31.4106 50.0152 30.3278C50.0152 30.3278 48.5698 29.4302 48.58 27.1694C48.5903 24.9086 52.0985 21.3078 52.0985 21.3078H53.4Z" fill="#0F344A"/>
<path opacity="0.4" d="M53.4 21.3078L56.7435 21.4287C56.7435 21.4287 59.2641 21.8325 59.8299 22.2414L60.0254 28.8386L59.3104 32.6194C59.3104 32.6194 60.5295 34.9522 60.9205 37.2953C60.9205 37.2953 58.8449 38.8385 54.0095 38.8385C50.8974 38.8385 49.0636 37.2953 49.0636 37.2953C49.0636 37.2953 50.203 31.4106 50.0152 30.3278C50.0152 30.3278 48.5698 29.4302 48.58 27.1694C48.5903 24.9086 52.0985 21.3078 52.0985 21.3078H53.4Z" fill="#0F344A"/>
<path d="M54.8196 14.2145C54.8206 14.736 54.6669 15.2461 54.378 15.6803C54.089 16.1144 53.6778 16.4531 53.1963 16.6535C52.7148 16.8539 52.1847 16.907 51.6731 16.8061C51.1614 16.7051 50.6912 16.4547 50.3219 16.0865C49.9526 15.7183 49.7008 15.2488 49.5983 14.7374C49.4959 14.226 49.5475 13.6958 49.7464 13.2137C49.9454 12.7317 50.2829 12.3194 50.7162 12.0292C51.1495 11.739 51.6592 11.5838 52.1807 11.5833C52.8792 11.5833 53.5493 11.8603 54.0439 12.3535C54.5386 12.8467 54.8175 13.5159 54.8196 14.2145V14.2145Z" fill="#263238"/>
<path d="M56.7542 21.6318L53.4054 21.6061L53.4003 16.9842L56.749 16.9816L56.7542 21.6318Z" fill="#945959"/>
<path d="M53.4177 21.0376C54.1009 20.782 54.7252 20.3907 55.253 19.8872C55.7808 19.3837 56.2011 18.7785 56.4886 18.1081V16.9816H53.4023L53.4177 21.0376Z" fill="#703838"/>
<path d="M58.0322 15.6266C58.0322 15.6935 58.009 15.7603 57.9962 15.8272L57.6541 16.2336L57.0188 16.9795C56.934 16.9966 56.8465 16.9966 56.7616 16.9795H56.7333C56.4942 16.9254 56.2009 16.7223 56.2009 16.0021C56.2009 16.0021 52.469 15.7449 51.6434 12.0515C51.7227 11.8702 51.8466 11.7118 52.0034 11.5911C52.1847 11.5738 52.3668 11.5687 52.5487 11.5757C53.3049 11.604 54.3491 11.8329 55.6917 12.499C56.3429 12.824 56.9598 13.2135 57.5332 13.6616C57.7261 13.8108 57.901 13.9599 58.0605 14.1091C58.1375 14.6129 58.1279 15.1261 58.0322 15.6266V15.6266Z" fill="#263238"/>
<path d="M52.4454 15.8625L52.448 17.6629L51.3935 17.3388L52.4454 15.8625Z" fill="#703838"/>
<path d="M54.0324 16.0525C54.0324 16.1253 54.0108 16.1964 53.9704 16.2569C53.93 16.3174 53.8725 16.3645 53.8053 16.3923C53.7381 16.4202 53.6642 16.4275 53.5928 16.4133C53.5215 16.3991 53.4559 16.364 53.4045 16.3126C53.3531 16.2612 53.318 16.1956 53.3039 16.1243C53.2897 16.0529 53.2969 15.979 53.3248 15.9118C53.3526 15.8446 53.3998 15.7871 53.4602 15.7467C53.5207 15.7063 53.5918 15.6847 53.6646 15.6847C53.7621 15.6847 53.8557 15.7235 53.9246 15.7925C53.9936 15.8614 54.0324 15.955 54.0324 16.0525V16.0525Z" fill="#263238"/>
<path d="M51.6173 15.799C51.6178 15.8718 51.5967 15.9432 51.5566 16.004C51.5165 16.0648 51.4592 16.1124 51.3921 16.1406C51.3249 16.1688 51.2509 16.1765 51.1794 16.1626C51.1079 16.1487 51.0421 16.1139 50.9904 16.0625C50.9387 16.0112 50.9034 15.9457 50.889 15.8743C50.8746 15.8028 50.8817 15.7288 50.9095 15.6614C50.9373 15.5941 50.9844 15.5365 51.0449 15.4959C51.1055 15.4554 51.1767 15.4338 51.2495 15.4338C51.3466 15.4338 51.4398 15.4722 51.5087 15.5406C51.5776 15.609 51.6166 15.7019 51.6173 15.799V15.799Z" fill="#263238"/>
<path d="M50.8053 15.038L51.5229 14.611C51.5229 14.611 51.2477 14.3255 50.9725 14.4978C50.8949 14.5617 50.8378 14.6469 50.8081 14.7429C50.7784 14.8389 50.7774 14.9414 50.8053 15.038Z" fill="#263238"/>
<path d="M52.5409 18.2579C52.9588 18.2879 53.3746 18.1765 53.7215 17.9416C53.7215 17.9416 53.8012 18.564 53.2817 18.6823C53.1282 18.708 52.9705 18.6797 52.8355 18.6024C52.7005 18.525 52.5964 18.4033 52.5409 18.2579V18.2579Z" fill="#703838"/>
<path d="M56.7182 17.1183C56.7067 16.814 56.7629 16.5109 56.8828 16.231C56.9406 16.0563 57.0485 15.9025 57.1929 15.7887C57.3374 15.6748 57.5122 15.6059 57.6955 15.5905C58.6369 15.5648 58.7655 16.4702 58.7526 16.7917C58.7192 17.6379 58.035 18.5535 56.7593 18.5921L56.7182 17.1183Z" fill="#945959"/>
<path d="M53.4178 21.6065C53.4178 21.6065 52.4199 23.7181 54.1277 23.8081C55.8355 23.8981 56.7614 21.6348 56.7614 21.6348L53.4178 21.6065Z" fill="#945959"/>
<path d="M36.7694 23.716L42.0832 38.2735L47.2735 42.2369L53.2096 39.5698L58.6931 44.454L53.3511 29.7628L48.1685 25.3929L41.7179 27.4248L36.7694 23.716Z" fill="#EBEBEB"/>
<path d="M48.1682 25.3918L53.2093 39.5686L47.2732 42.2358L41.7177 27.4237L48.1682 25.3918Z" fill="#E0E0E0"/>
<path d="M38.9656 33.0802C38.8984 32.8205 38.9314 32.545 39.0582 32.3086C39.3154 31.7942 39.8298 30.9043 40.1101 31.0432C40.4856 31.2361 41.7433 33.4814 41.0926 34.7828C40.5191 35.9325 39.2845 34.253 38.9656 33.0802Z" fill="#945959"/>
<path d="M60.1902 31.3079L61.0544 33.0543L57.8163 36.2076C57.4752 36.0521 57.0955 36.0019 56.7257 36.0635C56.2014 36.1427 55.6682 36.1427 55.144 36.0635C54.8276 36.0095 54.3261 36.3593 55.0282 36.7606C55.3581 36.9794 55.7355 37.1161 56.129 37.1592C55.4107 37.4134 54.6647 37.5818 53.9068 37.6607C52.9526 37.7122 52.3636 37.9617 53.1018 38.8104C53.84 39.6592 54.9176 40.4951 55.9104 40.2533C56.9032 40.0116 58.3152 39.3866 58.9608 38.8362C58.9608 38.8362 65.0436 35.3357 64.7298 33.6587C64.416 31.9818 63.7678 29.6644 63.7678 29.6644L60.1902 31.3079Z" fill="#945959"/>
<path d="M59.5161 22.0771C59.5161 22.0771 57.6051 23.5766 58.2044 25.9042C58.8037 28.2319 60.19 31.3054 60.19 31.3054C60.19 31.3054 63.0835 31.6243 63.7676 29.6619L61.8695 24.2607C61.701 23.7819 61.4294 23.346 61.0738 22.9838C60.7183 22.6215 60.2875 22.3419 59.8119 22.1645L59.5161 22.0771Z" fill="#0F344A"/>
<path opacity="0.6" d="M59.5161 22.0771C59.5161 22.0771 57.6051 23.5766 58.2044 25.9042C58.8037 28.2319 60.19 31.3054 60.19 31.3054C60.19 31.3054 63.0835 31.6243 63.7676 29.6619L61.8695 24.2607C61.701 23.7819 61.4294 23.346 61.0738 22.9838C60.7183 22.6215 60.2875 22.3419 59.8119 22.1645L59.5161 22.0771Z" fill="#0F344A"/>
<path d="M56.0389 37.1511L55.5142 35.7082L54.4031 35.6594L54.079 36.7602L54.8763 37.1588L56.0389 37.1511Z" fill="#EBEBEB"/>
<path d="M38.9635 14.6382C40.3112 12.4288 41.16 9.88772 41.16 7.60636C41.1826 6.62267 40.9765 5.64715 40.5581 4.7566L41.0211 4.29364L39.2207 3.26484C37.9861 2.51382 36.2809 2.60127 34.3853 3.69436C30.6457 5.85484 27.6133 11.1068 27.6133 15.4252C27.6133 17.632 28.4055 19.1649 29.6709 19.8516L31.5227 20.9164V20.2528C32.535 20.1821 33.5148 19.8661 34.3776 19.3321C35.4233 18.7092 36.3664 17.9284 37.1734 17.0173C38.498 18.1515 40.8976 15.5641 40.8976 15.5641C39.5293 16.3614 39.0844 15.5718 38.9635 14.6382Z" fill="#0F344A"/>
<path opacity="0.2" d="M38.9635 14.6382C40.3112 12.4288 41.16 9.88772 41.16 7.60636C41.1826 6.62267 40.9765 5.64715 40.5581 4.7566L41.0211 4.29364L39.2207 3.26484C37.9861 2.51382 36.2809 2.60127 34.3853 3.69436C30.6457 5.85484 27.6133 11.1068 27.6133 15.4252C27.6133 17.632 28.4055 19.1649 29.6709 19.8516L31.5227 20.9164V20.2528C32.535 20.1821 33.5148 19.8661 34.3776 19.3321C35.4233 18.7092 36.3664 17.9284 37.1734 17.0173C38.498 18.1515 40.8976 15.5641 40.8976 15.5641C39.5293 16.3614 39.0844 15.5718 38.9635 14.6382Z" fill="#0F344A"/>
<g opacity="0.3">
<path d="M39.0158 12.8048C39.0158 12.8048 38.2776 17.0872 40.9011 15.5723C40.9011 15.5723 37.8275 18.8901 36.7139 16.3722L39.0158 12.8048Z" fill="#0F344A"/>
</g>
<path d="M40.9792 15.3218C43.6241 10.7407 43.6242 5.78906 40.9793 4.26205C38.3345 2.73505 34.0463 5.21091 31.4014 9.79204C28.7564 14.3732 28.7564 19.3248 31.4012 20.8518C34.0461 22.3788 38.3343 19.903 40.9792 15.3218Z" fill="#0F344A"/>
<path d="M40.816 13.8466C40.816 13.8466 40.0804 18.1264 42.7038 16.614C42.7038 16.614 39.6174 19.9293 38.5166 17.4139L40.816 13.8466Z" fill="#0F344A"/>
<path d="M36.2681 8.54033C34.8381 9.36337 33.6807 11.3695 33.6807 13.0182C33.6807 14.6668 36.2681 17.4394 36.2681 17.4394C36.2681 17.4394 38.8529 11.6807 38.8529 10.0321C38.8529 8.38344 37.6955 7.71472 36.2681 8.54033ZM36.2681 12.7867C35.6585 13.1391 35.1673 12.8536 35.1673 12.1514C35.1875 11.7694 35.2977 11.3977 35.4891 11.0664C35.6804 10.7352 35.9473 10.4539 36.2681 10.2456C36.8751 9.8932 37.3689 10.1787 37.3689 10.8808C37.3481 11.2627 37.2376 11.6342 37.0463 11.9654C36.855 12.2965 36.5884 12.5779 36.2681 12.7867V12.7867Z" fill="#0F344A"/>
<path opacity="0.5" d="M36.2681 8.54033C34.8381 9.36337 33.6807 11.3695 33.6807 13.0182C33.6807 14.6668 36.2681 17.4394 36.2681 17.4394C36.2681 17.4394 38.8529 11.6807 38.8529 10.0321C38.8529 8.38344 37.6955 7.71472 36.2681 8.54033ZM36.2681 12.7867C35.6585 13.1391 35.1673 12.8536 35.1673 12.1514C35.1875 11.7694 35.2977 11.3977 35.4891 11.0664C35.6804 10.7352 35.9473 10.4539 36.2681 10.2456C36.8751 9.8932 37.3689 10.1787 37.3689 10.8808C37.3481 11.2627 37.2376 11.6342 37.0463 11.9654C36.855 12.2965 36.5884 12.5779 36.2681 12.7867V12.7867Z" fill="#0F344A"/>
<path d="M87.4952 65.6319V54.4873H78.8115V65.7214C78.8115 66.3658 79.2381 67.0071 80.0853 67.5113C81.7856 68.4927 84.539 68.4927 86.2393 67.5113C87.1312 66.9922 87.5518 66.3091 87.4952 65.6319Z" fill="#263238"/>
<path d="M86.2387 52.7223C87.936 53.7007 87.936 55.2936 86.2387 56.2721C84.5413 57.2505 81.785 57.2535 80.0847 56.2721C78.3843 55.2907 78.3873 53.7007 80.0847 52.7223C81.782 51.7438 84.5384 51.7408 86.2387 52.7223Z" fill="#37474F"/>
<path d="M84.0196 54.7499C83.4702 54.9706 82.8567 54.9706 82.3073 54.7499V54.7499C82.119 54.6752 81.9575 54.5457 81.8437 54.3782C81.7299 54.2106 81.669 54.0128 81.6689 53.8102V-14.3672H84.652V53.8102C84.6528 54.0122 84.5929 54.2097 84.4802 54.3773C84.3674 54.5448 84.207 54.6746 84.0196 54.7499V54.7499Z" fill="#455A64"/>
<path d="M98.04 7.16175L84.1181 -8.10844L84.6461 -8.36797L98.04 -0.635924L101.703 5.37789L98.04 7.16175Z" fill="#0F344A"/>
<path opacity="0.3" d="M98.04 7.16175L84.1181 -8.10844L84.6461 -8.36797L98.04 -0.635924L101.703 5.37789L98.04 7.16175Z" fill="white"/>
<path d="M97.512 7.42141L84.1181 -0.310637V-8.10831L97.512 -0.376264L101.175 5.63755L97.512 7.42141Z" fill="#0F344A"/>
<path opacity="0.7" d="M97.512 7.42141L84.1181 -0.310637V-8.10831L97.512 -0.376264L101.175 5.63755L97.512 7.42141Z" fill="white"/>
<path d="M68.287 7.16175L82.2088 -8.10844L81.6808 -8.36797L68.287 -0.635924L64.6238 5.37789L68.287 7.16175Z" fill="#0F344A"/>
<path opacity="0.3" d="M68.287 7.16175L82.2088 -8.10844L81.6808 -8.36797L68.287 -0.635924L64.6238 5.37789L68.287 7.16175Z" fill="white"/>
<path d="M68.8155 7.42144L82.2094 -0.310606V-8.10828L68.8155 -0.376234L65.1523 5.63758L68.8155 7.42144Z" fill="#0F344A"/>
<path opacity="0.5" d="M68.8155 7.42144L82.2094 -0.310606V-8.10828L68.8155 -0.376234L65.1523 5.63758L68.8155 7.42144Z" fill="white"/>
<path d="M70.5556 0.864933C70.5866 0.854743 70.6115 0.858307 70.6303 0.875626C70.6491 0.89236 70.6585 0.918595 70.6585 0.954331C70.6585 1.00589 70.6427 1.05594 70.6112 1.10451C70.5802 1.15219 70.5368 1.19209 70.4809 1.2242L70.2318 1.36738V0.750493L70.4726 0.612125C70.5269 0.58089 70.5693 0.570869 70.5998 0.58206C70.6308 0.592959 70.6463 0.623014 70.6463 0.672225C70.6463 0.708547 70.6379 0.743534 70.6211 0.777187C70.6049 0.810548 70.583 0.839797 70.5556 0.864933ZM70.3621 0.925185L70.4474 0.876143C70.4688 0.863883 70.485 0.849269 70.4962 0.832302C70.5079 0.814457 70.5137 0.794989 70.5137 0.773899C70.5137 0.752809 70.5079 0.740055 70.4962 0.735638C70.485 0.730929 70.4688 0.734705 70.4474 0.746965L70.3621 0.796007V0.925185ZM70.4581 1.11607C70.4799 1.10351 70.4967 1.08832 70.5084 1.07047C70.5206 1.05175 70.5267 1.03155 70.5267 1.00987C70.5267 0.988196 70.5203 0.974855 70.5076 0.96985C70.4954 0.964554 70.4784 0.968182 70.4566 0.980734L70.3621 1.03503V1.17124L70.4581 1.11607ZM71.1119 0.608479C71.1119 0.622539 71.1112 0.637623 71.1097 0.65373L70.8148 0.823187C70.8168 0.852483 70.8252 0.8711 70.8399 0.879038C70.8552 0.886098 70.8737 0.883352 70.8956 0.8708C70.9281 0.852117 70.9507 0.82331 70.9634 0.784376L71.102 0.704683C71.0949 0.740992 71.082 0.777434 71.0632 0.814012C71.0449 0.850298 71.0218 0.883792 70.9938 0.914493C70.9659 0.945195 70.9347 0.97047 70.9001 0.990321C70.8585 1.01426 70.8214 1.02532 70.7889 1.02349C70.7564 1.02167 70.731 1.00698 70.7127 0.979404C70.6944 0.951834 70.6853 0.912564 70.6853 0.861596C70.6853 0.810628 70.6942 0.760996 70.7119 0.712699C70.7302 0.66411 70.7556 0.620223 70.7881 0.581036C70.8206 0.541849 70.858 0.510141 70.9001 0.485912C70.9413 0.462267 70.9778 0.451208 71.0098 0.452736C71.0418 0.454264 71.0667 0.468373 71.0845 0.495064C71.1028 0.521463 71.1119 0.559268 71.1119 0.608479ZM70.9786 0.645562C70.9786 0.619785 70.971 0.60366 70.9557 0.597185C70.9405 0.590711 70.9215 0.594042 70.8986 0.607178C70.8768 0.61973 70.8582 0.637708 70.843 0.661111C70.8283 0.684223 70.8191 0.710275 70.8156 0.739267L70.9786 0.645562ZM71.1319 0.604032C71.1319 0.55365 71.14 0.504748 71.1563 0.457327C71.173 0.409614 71.1957 0.367332 71.2241 0.33048C71.2525 0.293629 71.2843 0.265132 71.3193 0.24499C71.3493 0.227767 71.3755 0.219763 71.3978 0.220979C71.4207 0.221903 71.4382 0.230286 71.4504 0.246128V0.176706L71.5807 0.101829V0.592178L71.4504 0.667054V0.597632C71.4377 0.627778 71.4199 0.656449 71.397 0.683645C71.3747 0.71055 71.3485 0.732613 71.3186 0.749836C71.284 0.769686 71.2525 0.777533 71.2241 0.773376C71.1957 0.768633 71.173 0.752038 71.1563 0.723592C71.14 0.694267 71.1319 0.654414 71.1319 0.604032ZM71.4504 0.42188C71.4504 0.384386 71.4412 0.360056 71.423 0.348888C71.4052 0.337429 71.3833 0.339144 71.3574 0.354031C71.3315 0.368919 71.3094 0.392455 71.2911 0.42464C71.2734 0.455948 71.2645 0.490348 71.2645 0.527842C71.2645 0.565336 71.2734 0.590105 71.2911 0.60215C71.3094 0.613317 71.3315 0.611457 71.3574 0.596569C71.3833 0.581682 71.4052 0.558291 71.423 0.526398C71.4412 0.494213 71.4504 0.459374 71.4504 0.42188ZM71.6262 0.320858C71.6262 0.26989 71.635 0.220257 71.6528 0.171961C71.6711 0.123372 71.6963 0.0796304 71.7283 0.0407354C71.7608 0.00154837 71.7978 -0.0300136 71.8395 -0.0539507C71.8928 -0.0846017 71.9373 -0.0940337 71.9728 -0.0822465C72.0089 -0.0707512 72.0325 -0.0389226 72.0437 0.0132393L71.905 0.0929321C71.8933 0.0621524 71.8707 0.0563957 71.8372 0.0756621C71.8133 0.0893821 71.7943 0.111167 71.7801 0.141017C71.7658 0.170281 71.7587 0.204831 71.7587 0.244668C71.7587 0.284505 71.7658 0.311175 71.7801 0.324678C71.7943 0.337594 71.8133 0.337193 71.8372 0.323473C71.8707 0.304206 71.8933 0.272469 71.905 0.228261L72.0437 0.148569C72.0325 0.212403 72.0089 0.271087 71.9728 0.32462C71.9368 0.378153 71.8923 0.420099 71.8395 0.450458C71.7978 0.474395 71.7608 0.485453 71.7283 0.483631C71.6963 0.481517 71.6711 0.466675 71.6528 0.439104C71.635 0.411241 71.6262 0.371826 71.6262 0.320858ZM72.3518 -0.346649C72.4006 -0.374672 72.4397 -0.378403 72.4692 -0.35784C72.4986 -0.337863 72.5134 -0.295361 72.5134 -0.230332V0.0561436L72.3838 0.130582V-0.135683C72.3838 -0.16849 72.3765 -0.189741 72.3617 -0.199437C72.347 -0.209132 72.3272 -0.206828 72.3023 -0.192524C72.2774 -0.17822 72.2576 -0.157755 72.2429 -0.131128C72.2282 -0.104502 72.2208 -0.0747851 72.2208 -0.041978V0.224287L72.0905 0.299163V-0.35112L72.2208 -0.425996V-0.200155C72.234 -0.229421 72.252 -0.257066 72.2749 -0.283091C72.2977 -0.309115 72.3234 -0.330301 72.3518 -0.346649Z" fill="#455A64"/>
</g>
<defs>
<clipPath id="clip0_25_16">
<rect width="109" height="109" fill="white"/>
</clipPath>
</defs>
</svg>
