<svg viewBox="0 0 26 28" fill="none" xmlns="http://www.w3.org/2000/svg">
<path d="M1 11.3684V7.3158C1 6.76351 1.44772 6.3158 2 6.3158H2.26316" stroke="auto" stroke-width="1.5" stroke-linecap="round"/>
<path d="M25 11.3684V7.3158C25 6.76351 24.5523 6.3158 24 6.3158H23.7368" stroke="auto" stroke-width="1.5" stroke-linecap="round"/>
<path d="M3.01318 3.78947C3.01318 2.11082 4.374 0.75 6.05266 0.75H19.9474C21.626 0.75 22.9869 2.11082 22.9869 3.78947V20.2105C22.9869 21.8892 21.626 23.25 19.9474 23.25H6.05266C4.374 23.25 3.01318 21.8892 3.01318 20.2105V3.78947Z" stroke="auto" stroke-width="1.5"/>
<path d="M3.52637 16.421L5.97405 17.4001C6.42758 17.5815 6.78694 17.9409 6.96835 18.3944V18.3944C7.4373 19.5668 6.57388 20.8421 5.31119 20.8421H3.52637" stroke="auto" stroke-width="1.5" stroke-linecap="round"/>
<path d="M22.4736 16.421L20.026 17.4001C19.5724 17.5815 19.2131 17.9409 19.0317 18.3944V18.3944C18.5627 19.5668 19.4261 20.8421 20.6888 20.8421H22.4736" stroke="auto" stroke-width="1.5" stroke-linecap="round"/>
<path d="M11.1052 20.2106H14.8947" stroke="auto" stroke-width="1.5" stroke-linecap="round"/>
<path d="M3.52637 4.42102H22.4737" stroke="auto" stroke-width="1.5" stroke-linecap="square"/>
<path d="M3.52637 13.8948H22.4737" stroke="auto" stroke-width="1.5" stroke-linecap="square"/>
<path d="M4.78955 24V24.9263C4.78955 25.81 5.5059 26.5263 6.38955 26.5263H6.97902C7.86268 26.5263 8.57902 25.81 8.57902 24.9263V24" stroke="auto" stroke-width="1.5" stroke-linecap="square"/>
<path d="M17.4211 24V24.9263C17.4211 25.81 18.1375 26.5263 19.0211 26.5263H19.6106C20.4943 26.5263 21.2106 25.81 21.2106 24.9263V24" stroke="auto" stroke-width="1.5" stroke-linecap="square"/>
</svg>
