<svg width="32" height="32" viewBox="0 0 32 32" fill="none" xmlns="http://www.w3.org/2000/svg">
<path d="M19.399 2.66699H12.599C10.199 2.66699 9.66563 3.86701 9.35897 5.34701L8.26562 10.5736H23.7323L22.639 5.34701C22.3323 3.86701 21.799 2.66699 19.399 2.66699Z" stroke="black" stroke-width="1.5" stroke-linecap="round" stroke-linejoin="round"/>
<path d="M25.6489 19.0939C25.7555 20.2272 24.8489 21.2006 23.6889 21.2006H21.8755C20.8355 21.2006 20.6889 20.7606 20.5022 20.2006L20.3022 19.6272C20.0355 18.8405 19.8622 18.3072 18.4622 18.3072H13.5155C12.1288 18.3072 11.9155 18.9072 11.6755 19.6272L11.4755 20.2006C11.2888 20.7473 11.1422 21.2006 10.1022 21.2006H8.28885C7.12885 21.2006 6.22218 20.2272 6.32885 19.0939L6.87552 13.2006C7.00885 11.7473 7.28884 10.5605 9.82217 10.5605H22.1555C24.6888 10.5605 24.9689 11.7473 25.1022 13.2006L25.6489 19.0939Z" stroke="black" stroke-width="1.5" stroke-linecap="round" stroke-linejoin="round"/>
<path d="M8.26239 7.66699H7.28906" stroke="black" stroke-width="1.5" stroke-linecap="round" stroke-linejoin="round"/>
<path d="M24.6999 7.66699H23.7266" stroke="black" stroke-width="1.5" stroke-linecap="round" stroke-linejoin="round"/>
<path d="M10.1953 14.4404H13.0887" stroke="black" stroke-width="1.5" stroke-linecap="round" stroke-linejoin="round"/>
<path d="M18.9062 14.4404H21.7996" stroke="black" stroke-width="1.5" stroke-linecap="round" stroke-linejoin="round"/>
<path d="M16 22.667V24.0003" stroke="black" stroke-width="1.5" stroke-linecap="round" stroke-linejoin="round"/>
<path d="M16 28V29.3333" stroke="black" stroke-width="1.5" stroke-linecap="round" stroke-linejoin="round"/>
<path d="M4.0013 24L2.66797 29.3333" stroke="black" stroke-width="1.5" stroke-linecap="round" stroke-linejoin="round"/>
<path d="M28 24L29.3333 29.3333" stroke="black" stroke-width="1.5" stroke-linecap="round" stroke-linejoin="round"/>
</svg>
