<svg viewBox="0 0 15 13" fill="none" xmlns="http://www.w3.org/2000/svg">
<path d="M1.44246 4.91404L2.66901 6.37212C2.85674 6.59115 2.85674 6.95411 2.66901 7.17313L1.44246 8.63122C1.2735 8.96914 1.44246 9.38216 1.80542 9.50732L2.63772 9.78267C2.83797 9.8515 3.13209 9.78267 3.28228 9.63248L4.70907 8.21194C4.8092 8.10556 5.00945 8.0242 5.15338 8.0242H6.93688C7.19971 8.0242 7.32487 8.2182 7.22474 8.46225L5.89807 11.5349C5.69156 12.0167 5.94813 12.411 6.4738 12.411H7.28106C7.70034 12.411 8.18219 12.0981 8.3449 11.7101L9.85305 8.21194C9.89685 8.11181 10.0283 8.0242 10.1409 8.0242H12.0183C12.6065 8.0242 13.3011 7.59241 13.5702 7.06675C13.6641 6.87901 13.6641 6.65999 13.5702 6.47225C13.3011 5.94659 12.6003 5.51479 12.012 5.51479H10.1347C10.022 5.51479 9.89059 5.42718 9.84679 5.32706L8.33864 1.83516C8.18219 1.44717 7.70034 1.13428 7.28106 1.13428H6.4738C5.94813 1.13428 5.69156 1.52852 5.89807 2.01038L7.22474 5.083C7.33112 5.3208 7.19971 5.52105 6.93688 5.52105L5.15338 5.52105C5.00945 5.52105 4.8092 5.4397 4.70907 5.33957L3.28228 3.91903C3.13209 3.76884 2.84423 3.70001 2.63772 3.76884L1.80542 4.04419C1.44246 4.15683 1.26724 4.56985 1.44246 4.91404Z" stroke-linecap="round" stroke-linejoin="round"/>
</svg>
