<svg width="20" height="21" viewBox="0 0 20 21" fill="none" xmlns="http://www.w3.org/2000/svg">
<g filter="url(#filter0_b_7259_7705)">
<circle cx="10.1965" cy="10.2473" r="9.26" stroke="#515151"/>
</g>
<path d="M13.5428 7.73874H10.5684C10.3712 7.73893 10.1822 7.81734 10.0428 7.95675C9.90334 8.09617 9.82493 8.2852 9.82473 8.48235V10.7132H5.73483V6.99512H4.99121V12.9441H5.73483V11.4568H14.6583V12.9441H15.4019V9.59778C15.4013 9.10491 15.2052 8.6324 14.8567 8.28389C14.5082 7.93538 14.0357 7.73933 13.5428 7.73874ZM14.6583 10.7132H10.5684V8.48235H13.5428C13.8386 8.48265 14.1221 8.60026 14.3312 8.80938C14.5403 9.0185 14.658 9.30204 14.6583 9.59778V10.7132Z" fill="#515151"/>
<path d="M7.79645 8.11081C7.90676 8.11081 8.01458 8.14352 8.1063 8.2048C8.19802 8.26608 8.2695 8.35318 8.31171 8.45509C8.35392 8.557 8.36497 8.66914 8.34345 8.77733C8.32193 8.88551 8.26881 8.98489 8.19081 9.06288C8.11282 9.14088 8.01344 9.194 7.90526 9.21552C7.79707 9.23704 7.68493 9.22599 7.58302 9.18378C7.48111 9.14157 7.39401 9.07009 7.33273 8.97837C7.27145 8.88665 7.23874 8.77883 7.23874 8.66852C7.23893 8.52067 7.29776 8.37892 7.4023 8.27437C7.50685 8.16983 7.6486 8.111 7.79645 8.11081ZM7.79645 7.36719C7.53907 7.36719 7.28747 7.44351 7.07347 7.5865C6.85947 7.72949 6.69267 7.93273 6.59418 8.17052C6.49568 8.40831 6.46991 8.66996 6.52012 8.9224C6.57033 9.17483 6.69427 9.40671 6.87627 9.5887C7.05826 9.7707 7.29014 9.89464 7.54257 9.94485C7.79501 9.99506 8.05666 9.96929 8.29445 9.8708C8.53224 9.7723 8.73548 9.60551 8.87847 9.3915C9.02146 9.1775 9.09778 8.9259 9.09778 8.66852C9.09778 8.32339 8.96068 7.99239 8.71663 7.74834C8.47258 7.50429 8.14159 7.36719 7.79645 7.36719Z" fill="#515151"/>
<defs>
<filter id="filter0_b_7259_7705" x="-3.56348" y="-3.5127" width="27.5195" height="27.5195" filterUnits="userSpaceOnUse" color-interpolation-filters="sRGB">
<feFlood flood-opacity="0" result="BackgroundImageFix"/>
<feGaussianBlur in="BackgroundImage" stdDeviation="2"/>
<feComposite in2="SourceAlpha" operator="in" result="effect1_backgroundBlur_7259_7705"/>
<feBlend mode="normal" in="SourceGraphic" in2="effect1_backgroundBlur_7259_7705" result="shape"/>
</filter>
</defs>
</svg>
