<svg  viewBox="0 0 15 16"  fill="none" xmlns="http://www.w3.org/2000/svg">
<path d="M10.6334 17.5132H2.13337M3.34766 16.2989L1.52623 18.1204M9.41908 16.2989L11.2405 18.1204M3.04408 1.7275H3.9548C3.9548 1.56648 4.01877 1.41205 4.13263 1.29819C4.24649 1.18433 4.40092 1.12036 4.56194 1.12036H8.2048C8.36582 1.12036 8.52025 1.18433 8.63411 1.29819C8.74798 1.41205 8.81194 1.56648 8.81194 1.7275H9.72266C10.2857 1.72911 10.8253 1.9535 11.2235 2.35167C11.6217 2.74984 11.8461 3.28941 11.8477 3.8525V13.2253C11.8477 14.5648 6.38337 15.6918 6.38337 15.6918C6.38337 15.6918 0.919085 14.5648 0.919085 13.2253V3.8525C0.919085 3.28892 1.14297 2.74842 1.54148 2.3499C1.94 1.95139 2.4805 1.7275 3.04408 1.7275V1.7275ZM6.38337 13.2632C6.74362 13.2632 7.09577 13.1564 7.3953 12.9563C7.69483 12.7561 7.92829 12.4716 8.06615 12.1388C8.20401 11.806 8.24008 11.4398 8.1698 11.0864C8.09952 10.7331 7.92605 10.4086 7.67132 10.1538C7.41658 9.89911 7.09204 9.72564 6.73871 9.65536C6.38539 9.58508 6.01916 9.62115 5.68634 9.75901C5.35352 9.89687 5.06905 10.1303 4.86891 10.4299C4.66877 10.7294 4.56194 11.0815 4.56194 11.4418C4.56194 11.9249 4.75384 12.3882 5.09543 12.7297C5.43701 13.0713 5.9003 13.2632 6.38337 13.2632ZM2.74051 7.19179C2.74051 7.35281 2.80448 7.50724 2.91834 7.6211C3.0322 7.73497 3.18663 7.79893 3.34766 7.79893H9.41908C9.58011 7.79893 9.73454 7.73497 9.8484 7.6211C9.96226 7.50724 10.0262 7.35281 10.0262 7.19179V4.76322C10.0262 4.60219 9.96226 4.44777 9.8484 4.3339C9.73454 4.22004 9.58011 4.15608 9.41908 4.15608H3.34766C3.18663 4.15608 3.0322 4.22004 2.91834 4.3339C2.80448 4.44777 2.74051 4.60219 2.74051 4.76322V7.19179Z" stroke-linecap="round" stroke-linejoin="round"/>
</svg>
