<svg viewBox="0 0 24 24" fill="none" xmlns="http://www.w3.org/2000/svg">
  <path d="M4.5 4.83C4.17 6.57 3.5 12.67 3.5 12.67L5 14V21.5C5 22.33 5.67 23 6.5 23C7.33 23 8 22.33 8 21.5V2.58C8 2.58 8 1.67 6.83 1.67C5.67 1.67 4.5 3.33 4.5 4.83Z" stroke-linecap="round" stroke-linejoin="round"/>
  <path d="M17.5 0.67V5.67" stroke-linecap="round" stroke-linejoin="round"/>
  <path d="M19 0.67V5.67" stroke-linecap="round" stroke-linejoin="round"/>
  <path d="M20.5 0.67V8C20.5 9.67 19.17 10.17 18.5 10.33L19 21.5C19 22.17 18.83 23 17.67 23C16.5 23 16.33 22.17 16.33 21.5L17 10.33C16.33 10.17 15 9.67 15 8V0.67" stroke-linecap="round" stroke-linejoin="round"/>
</svg>
