<svg width="22" height="23" viewBox="0 0 22 23" fill="none" xmlns="http://www.w3.org/2000/svg">
<path d="M8.86002 18.3606L10.54 16.9406C10.79 16.7306 11.21 16.7306 11.47 16.9406L13.14 18.3606C13.53 18.5606 14.01 18.3606 14.15 17.9406L14.47 16.9806C14.55 16.7506 14.47 16.4106 14.3 16.2406L12.66 14.5906C12.54 14.4706 12.45 14.2406 12.45 14.0806V12.2306C12.45 11.8106 12.76 11.6106 13.15 11.7706L16.5 13.2106C17.05 13.4506 17.51 13.1506 17.51 12.5506V11.6206C17.51 11.1406 17.15 10.5806 16.7 10.3906L12.76 8.69059C12.59 8.62059 12.46 8.41059 12.46 8.23059V6.16059C12.46 5.48059 11.96 4.68059 11.36 4.37059C11.14 4.26059 10.89 4.26059 10.67 4.37059C10.06 4.67059 9.57002 5.48059 9.57002 6.16059V8.23059C9.57002 8.41059 9.43002 8.62059 9.27002 8.69059L5.33002 10.3906C4.89002 10.5806 4.52002 11.1406 4.52002 11.6206V12.5506C4.52002 13.1506 4.97002 13.4506 5.53002 13.2106L8.88002 11.7706C9.26002 11.6006 9.58002 11.8106 9.58002 12.2306V14.0806C9.58002 14.2506 9.48002 14.4806 9.37002 14.5906L7.70002 16.2306C7.53002 16.4006 7.45002 16.7406 7.53002 16.9706L7.85002 17.9306C7.99002 18.3606 8.46002 18.5606 8.86002 18.3606Z" stroke="#0F344A" stroke-width="1.5" stroke-linecap="round" stroke-linejoin="round"/>
<path d="M8 21.3606H14C19 21.3606 21 19.3606 21 14.3606V8.3606C21 3.3606 19 1.3606 14 1.3606H8C3 1.3606 1 3.3606 1 8.3606V14.3606C1 19.3606 3 21.3606 8 21.3606Z" stroke="#0F344A" stroke-width="1.5" stroke-linecap="round" stroke-linejoin="round"/>
</svg>
