<svg width="60" height="65" viewBox="0 0 60 65" fill="none" xmlns="http://www.w3.org/2000/svg">
<path d="M44.7016 19.4691V16.7387C44.7016 13.095 43.0905 9.60048 40.2225 7.02397C37.3546 4.44747 33.4648 3 29.4089 3C25.353 3 21.4633 4.44747 18.5953 7.02397C15.7274 9.60048 14.1162 13.095 14.1162 16.7387V19.4691" stroke="#0F344A" stroke-width="4.24734" stroke-linecap="round" stroke-linejoin="round"/>
<path opacity="0.4" d="M1.11957 56.4438C1.69422 60.1821 4.88229 62.8987 8.65058 63.2226C15.5167 63.8129 22.6623 64.5001 29.9999 64.5001C37.4336 64.5001 44.6216 64.0642 51.5854 63.3842C55.2449 63.0268 58.2353 60.2858 58.7975 56.6521C59.5306 51.9132 59.9999 47.0284 59.9999 42.0001C59.9999 36.9333 59.571 31.9627 58.823 27.1953C58.264 23.6325 55.3206 20.9678 51.732 20.61C44.704 19.9092 37.4939 19.5001 29.9999 19.5001C22.4876 19.5001 15.1482 19.8854 8.14193 20.5981C4.61451 20.9569 1.719 23.5646 1.16159 27.0662C0.397259 31.8675 -6.10352e-05 36.8918 -6.10352e-05 42.0001C-6.10352e-05 46.9568 0.400779 51.7679 1.11957 56.4438Z" fill="#0F344A"/>
<path d="M14.0998 61.5001V19.5001" stroke="#0F344A" stroke-width="4.24734" stroke-linecap="round" stroke-linejoin="round"/>
<path d="M44.7003 61.5001V19.5001" stroke="#0F344A" stroke-width="4.24734" stroke-linecap="round" stroke-linejoin="round"/>
</svg>
