<svg width="56" height="56" viewBox="0 0 56 56" fill="none" xmlns="http://www.w3.org/2000/svg">
<path d="M28.0085 54.3883C42.7903 54.3883 54.7733 42.4053 54.7733 27.6234C54.7733 12.8416 42.7903 0.858643 28.0085 0.858643C13.2267 0.858643 1.24365 12.8416 1.24365 27.6234C1.24365 42.4053 13.2267 54.3883 28.0085 54.3883Z" fill="#3D820E"/>
<path opacity="0.2" d="M50.3348 32.8778C53.2461 20.5426 45.6066 8.18284 33.2714 5.27147C20.9362 2.3601 8.57643 9.99964 5.66506 22.3348C2.75369 34.67 10.3932 47.0298 22.7284 49.9412C35.0636 52.8526 47.4234 45.213 50.3348 32.8778Z" fill="black"/>
<path d="M25.1544 38.5826C24.8435 38.5893 24.5343 38.5346 24.2445 38.4216C23.9547 38.3085 23.6901 38.1395 23.4658 37.924L13.7224 28.3832C13.2745 27.9488 13.0176 27.3543 13.0081 26.7304C12.9986 26.1066 13.2373 25.5045 13.6717 25.0566C14.1061 24.6088 14.7007 24.3518 15.3245 24.3423C15.9484 24.3328 16.5505 24.5716 16.9983 25.006L18.3936 26.3168L24.9856 32.8243L38.7986 17.4071C39.2221 16.9803 39.7933 16.7322 40.3944 16.7142C40.9955 16.6962 41.5805 16.9095 42.0289 17.3102C42.4772 17.7109 42.7547 18.2684 42.8041 18.8678C42.8534 19.4671 42.6708 20.0624 42.294 20.5311L26.8431 37.772C26.63 38.0104 26.37 38.2024 26.0795 38.3361C25.789 38.4697 25.4741 38.5421 25.1544 38.5488V38.5826Z" fill="white"/>
</svg>
