<svg width="23" height="25" viewBox="0 0 23 25" fill="none" xmlns="http://www.w3.org/2000/svg">
<path d="M22 24.0316H1.04593" stroke="#515151" stroke-width="1.3" stroke-linecap="round"/>
<path d="M17.2188 23.6429V22.9795C17.2188 22.5247 16.85 22.156 16.3952 22.156H11.4087C10.8528 22.156 10.4566 21.6165 10.6229 21.0861L11.1338 19.4567M9.0979 19.3194L8.15971 22.0249C8.12961 22.1117 8.11425 22.2029 8.11425 22.2947V23.6429" stroke="#515151" stroke-width="1.3"/>
<path d="M17.3789 13.9207H12.6164C11.542 13.9207 10.5332 13.4039 9.90556 12.5318L5.42638 6.30792C5.0174 5.73963 4.79735 5.05717 4.79735 4.35701V3.59009C4.79735 3.12724 4.62829 2.68033 4.32194 2.33338C3.56614 1.47742 2.23121 1.47742 1.47542 2.33338C1.16907 2.68033 1 3.12724 1 3.59008V4.91779C1 5.46687 1.13538 6.00749 1.39415 6.49178L7.35377 17.645C7.93462 18.7321 9.06695 19.4109 10.2995 19.4109H17.3789C18.895 19.4109 20.124 18.1819 20.124 16.6658C20.124 15.1497 18.895 13.9207 17.3789 13.9207Z" stroke="#515151" stroke-width="1.3"/>
<rect width="2.05881" height="1.14378" transform="matrix(-1 0 0 1 9.66992 10.0775)" fill="white"/>
<path d="M7.22742 11.6968L12.7846 11.542C13.2491 11.5291 13.6189 11.1488 13.6189 10.6842C13.6189 10.2102 13.2347 9.82599 12.7607 9.82599H4.41702C4.28499 9.82599 4.15427 9.85213 4.0324 9.90291C3.48234 10.1321 3.25352 10.7885 3.54191 11.31L7.38459 18.2583C7.54476 18.5479 7.83786 18.7395 8.1674 18.7701L12.7554 19.1953C13.3416 19.2496 13.8477 18.7883 13.8477 18.1995V16.7737C13.8477 16.2214 13.3999 15.7737 12.8477 15.7737H8.65974C8.3277 15.7737 8.01731 15.6088 7.83133 15.3338L6.42685 13.2566C5.98488 12.6029 6.43865 11.7188 7.22742 11.6968Z" fill="#515151"/>
</svg>
