<svg viewBox="0 0 14 23" fill="none" xmlns="http://www.w3.org/2000/svg">
<g clip-path="url(#clip0_15_10716)">
<path d="M10.5659 19.9645H3.44661C3.13923 19.966 2.83456 19.9069 2.55011 19.7903C2.26566 19.6738 2.00705 19.5022 1.78914 19.2854C1.57122 19.0686 1.39829 18.8109 1.2803 18.527C1.1623 18.2432 1.10156 17.9388 1.10156 17.6314V7.71007C1.10156 7.40268 1.1623 7.09832 1.2803 6.81447C1.39829 6.53063 1.57122 6.2729 1.78914 6.05611C2.00705 5.83931 2.26566 5.66771 2.55011 5.55117C2.83456 5.43464 3.13923 5.37546 3.44661 5.37705H10.5659C11.1847 5.37705 11.7781 5.62284 12.2156 6.06037C12.6532 6.4979 12.899 7.09131 12.899 7.71007V17.6314C12.899 18.2502 12.6532 18.8436 12.2156 19.2811C11.7781 19.7187 11.1847 19.9645 10.5659 19.9645V19.9645Z" stroke="#515151" stroke-linecap="round" stroke-linejoin="round"/>
<path d="M4.33594 19.9647V5.3653" stroke="#515151" stroke-linecap="round" stroke-linejoin="round"/>
<path d="M10.1328 19.9647V5.3653" stroke="#515151" stroke-linecap="round" stroke-linejoin="round"/>
<path d="M3.25 20.1309H5.30643V21.0208C5.30643 21.3047 5.19367 21.5769 4.99294 21.7777C4.79222 21.9784 4.51999 22.0912 4.23612 22.0912V22.0912C3.98416 22.0912 3.74251 21.9911 3.56434 21.8129C3.38617 21.6347 3.28608 21.3931 3.28608 21.1411V20.1309H3.25Z" stroke="#515151" stroke-linecap="round" stroke-linejoin="round"/>
<path d="M9.125 20.1309H11.1454V21.0208C11.1454 21.3047 11.0326 21.5769 10.8319 21.7777C10.6311 21.9784 10.3589 22.0912 10.075 22.0912H10.1231C9.87118 22.0912 9.62953 21.9911 9.45137 21.8129C9.2732 21.6347 9.1731 21.3931 9.1731 21.1411V20.1309H9.125Z" stroke="#515151" stroke-linecap="round" stroke-linejoin="round"/>
<path d="M5.71875 5.1352V1.75592" stroke="#515151" stroke-linecap="round" stroke-linejoin="round"/>
<path d="M8.44922 5.1352V1.75592" stroke="#515151" stroke-linecap="round" stroke-linejoin="round"/>
<path d="M4.17969 1.56451H9.77173" stroke="#515151" stroke-linecap="round" stroke-linejoin="round"/>
</g>
<defs>
<clipPath id="clip0_15_10716">
<rect width="13" height="21.7308" fill="white" transform="translate(0.5 0.962952)"/>
</clipPath>
</defs>
</svg>
