<svg xmlns="http://www.w3.org/2000/svg" width="56" height="116" viewBox="0 0 56 116" fill="none">
<path d="M3.90694 49.9379V35.0711C2.85082 35.1794 1.87073 35.6701 1.15122 36.4508C0.431711 37.2314 0.0224111 38.2482 0.000378855 39.3096V46.3739C-0.00694122 46.8737 0.0918903 47.3693 0.290341 47.8281C0.488792 48.2868 0.782339 48.6982 1.15159 49.0351C1.52084 49.372 1.95738 49.6266 2.43236 49.7822C2.90734 49.9379 3.40994 49.9909 3.90694 49.9379Z" fill="#455A64"/>
<path d="M6.53477 54.9783L11.939 54.505V22.0374L6.53477 22.5107C5.55687 22.6108 4.64953 23.0657 3.98435 23.7895C3.31917 24.5132 2.94226 25.4556 2.92491 26.4385V51.6828C2.91608 52.1453 3.00599 52.6043 3.18865 53.0293C3.3713 53.4543 3.64249 53.8355 3.98412 54.1474C4.32576 54.4592 4.72998 54.6947 5.16981 54.838C5.60965 54.9812 6.07498 55.0291 6.53477 54.9783Z" fill="#37474F"/>
<path d="M24.9905 53.3641L9.15937 54.7487C8.97914 54.7672 8.79705 54.7472 8.62508 54.6902C8.45312 54.6332 8.29518 54.5404 8.16169 54.418C8.02819 54.2955 7.92217 54.1461 7.85061 53.9797C7.77904 53.8132 7.74356 53.6335 7.74651 53.4524V23.8353C7.75366 23.4497 7.90105 23.08 8.16109 22.7952C8.42114 22.5105 8.77603 22.3302 9.15937 22.2882L24.9905 20.9036C25.1707 20.8851 25.3528 20.905 25.5248 20.962C25.6967 21.019 25.8547 21.1118 25.9881 21.2343C26.1216 21.3568 26.2277 21.5062 26.2992 21.6726C26.3708 21.839 26.4063 22.0188 26.4033 22.1999V51.8241C26.3945 52.2084 26.2463 52.5764 25.9864 52.8597C25.7266 53.143 25.3726 53.3222 24.9905 53.3641Z" fill="#263238"/>
<path d="M25.1422 14.7259L5.78247 16.4178V25.8804L25.1422 24.185C26.9083 24.0296 28.3459 21.7866 28.3459 19.1728C28.3459 16.5591 26.9118 14.5705 25.1422 14.7259Z" fill="#FF0909"/>
<path opacity="0.15" d="M25.1422 14.7259L5.78247 16.4178V25.8804L25.1422 24.185C26.9083 24.0296 28.3459 21.7866 28.3459 19.1728C28.3459 16.5591 26.9118 14.5705 25.1422 14.7259Z" fill="black"/>
<path d="M8.96054 21.3797C9.1521 18.7649 7.88163 16.5408 6.12286 16.4119C4.36409 16.2831 2.78304 18.2983 2.59148 20.9131C2.39992 23.5279 3.67039 25.7521 5.42916 25.881C7.18793 26.0098 8.76898 23.9945 8.96054 21.3797Z" fill="#FF0909"/>
<path opacity="0.3" d="M8.96054 21.3797C9.1521 18.7649 7.88163 16.5408 6.12286 16.4119C4.36409 16.2831 2.78304 18.2983 2.59148 20.9131C2.39992 23.5279 3.67039 25.7521 5.42916 25.881C7.18793 26.0098 8.76898 23.9945 8.96054 21.3797Z" fill="black"/>
<path d="M26.9295 97.8586C26.8058 98.3952 26.813 98.9537 26.9507 99.4869C27.1877 99.8332 27.4732 100.144 27.7984 100.409C28.5557 101.074 29.2061 101.852 29.727 102.715C30.3465 103.779 31.1902 104.695 32.1995 105.4C33.5342 106.179 35.116 106.419 36.6218 106.071C37.9922 105.749 38.741 105.213 38.5856 104.146C34.6402 102.069 30.7831 100.13 26.9295 97.8586Z" fill="#263238"/>
<path d="M37.0667 62.2262C33.0507 56.928 31.878 55.6035 29.2112 52.2232C28.1585 52.3753 27.0959 52.4473 26.0323 52.4386L27.7772 50.0015L10.95 50.1533C10.95 53.9221 10.8794 76.9518 10.8794 76.9518C10.7875 78.0361 9.96806 81.1409 9.88682 85.0475C9.77026 90.7166 10.9041 100.695 10.9465 101.581C10.9959 102.41 11.0477 103.235 11.1019 104.054C11.1478 104.743 11.2432 105.244 11.9355 105.506C12.5129 105.737 13.1328 105.845 13.7545 105.82C14.2965 105.791 14.8193 105.61 15.2628 105.297C15.6866 104.983 15.6372 104.195 15.6972 103.715C15.7679 103.146 15.8562 102.581 15.9268 102.009C16.4955 97.2087 18.0955 85.1534 18.8161 79.5479C19.3459 75.4436 20.2678 67.4997 20.8047 62.8196C21.2886 63.2576 21.829 63.7133 22.426 64.2042C25.7321 66.9169 29.7234 69.5025 31.6661 71.1167C30.179 73.1582 28.8969 74.9279 28.3918 78.6013C28.254 79.6185 28.1622 80.6393 28.0915 81.6637C27.922 84.1856 27.8831 86.7111 27.8266 89.2366C27.8054 90.374 27.7807 91.5113 27.7313 92.6487C27.7101 93.1326 27.6853 93.6165 27.65 94.1004C27.6041 94.7044 27.4875 95.16 27.8796 95.7146C28.1347 96.0332 28.4373 96.3108 28.7768 96.5376C28.9362 96.6634 29.1106 96.769 29.296 96.8519C29.7837 97.0026 30.3082 96.9826 30.783 96.7954C31.0917 96.7114 31.3841 96.5765 31.6484 96.3963C31.8748 96.235 32.0462 96.0082 32.1394 95.7464C32.2 95.4354 32.2355 95.12 32.2453 94.8033C32.316 94.39 32.4184 93.9803 32.5244 93.5741C32.8493 92.3308 33.2131 91.1016 33.5275 89.8441C35.0393 83.8925 37.9604 77.4321 39.5322 72.2929C41.1499 67.0512 40.4859 66.7262 37.0667 62.2262Z" fill="#FFA8A7"/>
<path d="M20.063 113.418C20.1937 113.541 20.1549 114.403 20.0065 114.633C19.8582 114.862 18.9469 115.654 17.3009 115.77C15.7362 115.883 14.3339 115.671 13.4155 115.088C12.4972 114.506 12.0486 113.859 11.9638 112.969C11.879 112.079 11.9638 111.203 11.5506 110.528C11.1585 109.896 10.5298 109.179 10.3955 108.837C10.0988 108.088 10.3955 107.017 10.3955 107.017L20.063 113.418Z" fill="#263238"/>
<path d="M28.5789 49.8955H9.87969C8.89422 66.5531 9.38872 81.8615 9.38872 81.8615C9.38872 81.8615 10.8404 83.4403 14.1501 83.6593C17.6504 83.8925 19.0103 82.8752 19.0103 82.8752L22.4365 64.2148L30.8642 71.2403C30.2987 72.1604 29.8254 73.1341 29.4513 74.1473C29.4513 74.1473 30.5816 76.0617 33.7641 76.8352C36.9466 77.6088 38.6491 76.4643 38.6491 76.4643C38.6491 76.4643 41.1004 70.1595 41.1887 68.57C41.277 66.9805 40.3975 66.1363 37.4799 62.1945C34.5624 58.2526 28.5789 49.8955 28.5789 49.8955Z" fill="#FF0909"/>
<path opacity="0.15" d="M22.4365 64.2148L23.0441 61.8483C23.0441 61.8483 27.3639 60.4354 29.6633 57.5179C29.6633 57.5179 28.4165 61.3679 24.5664 62.5689L23.7646 64.2148L30.8642 71.2403L22.4365 64.2148Z" fill="black"/>
<path d="M38.5821 103.369C38.0947 101.733 36.7772 101.073 35.6257 99.9567C34.6972 99.1033 33.9072 98.1107 33.2839 97.0144C32.8755 96.1317 32.705 95.1576 32.7894 94.1887C32.8353 93.3869 33.1073 93.0761 31.4401 93.129C29.773 93.182 29.2325 93.5953 29.116 94.3688C28.9994 95.1424 28.844 95.3508 28.731 94.8386C28.6179 94.3264 28.9641 93.6377 28.3424 93.3622C27.7208 93.0867 27.7384 92.744 27.749 92.4721C27.7569 92.3167 27.7569 92.1611 27.749 92.0058C27.749 92.0058 26.9331 92.0376 27.2227 93.5564C27.5124 95.0753 26.9508 95.591 26.8695 97.0886C26.833 97.4793 26.8812 97.8732 27.0108 98.2436C27.4417 99.2043 28.2541 99.4975 28.9146 100.363C29.5751 101.228 30.3275 102.295 31.0728 103.189C31.5836 103.814 32.2176 104.327 32.9352 104.696C33.6529 105.066 34.4388 105.283 35.2443 105.336C36.7454 105.375 39.0731 105.004 38.5821 103.369Z" fill="#455A64"/>
<path d="M19.1305 111.079C18.6289 110.539 18.2439 110.126 17.7706 109.561C17.4877 109.217 17.2247 108.857 16.9829 108.483C16.7536 108.076 16.5507 107.655 16.3754 107.222C16.0215 106.157 15.8951 105.03 16.0045 103.913C16.1493 102.768 16.7109 101.394 16.386 101.214C16.061 101.034 15.7961 100.773 14.5634 100.744C13.3307 100.716 11.6882 100.684 11.7377 101.684C11.7871 102.684 11.9107 103.15 11.7377 103.061C11.5646 102.973 11.5328 102.302 11.3279 102.002C11.1231 101.702 10.9747 101.97 10.95 101.585C10.9253 101.2 10.8935 100.967 10.8935 100.967C10.8935 100.967 10.1164 101.034 10.2542 102.15C10.3893 103.336 10.4542 104.528 10.4484 105.721C10.4166 106.283 10.1517 107.159 10.4484 107.858C10.6506 108.273 10.8969 108.665 11.1831 109.027C11.673 109.655 12.0006 110.394 12.1368 111.178C12.1792 111.532 12.158 111.885 12.2145 112.213C12.3141 112.794 12.579 113.334 12.9774 113.768C13.3758 114.202 13.8909 114.512 14.461 114.661C15.547 114.966 16.6879 115.023 17.7988 114.827C18.8267 114.647 20.1618 114.227 20.0947 112.997C20.0034 112.266 19.6629 111.589 19.1305 111.079Z" fill="#455A64"/>
<path d="M26.5586 21.0837C29.1724 20.9742 30.4863 22.3306 31.546 26.2266C32.3725 29.2607 33.7924 35.2406 33.7924 35.2406L41.8316 27.1414L45.9678 29.4726C45.9678 29.4726 40.2457 36.9431 36.823 41.2876C34.3505 44.4171 32.4255 44.5302 30.942 42.5133C27.9008 38.3701 24.7466 28.6849 24.7466 28.6849C23.9201 25.6579 24.0614 22.0374 26.5586 21.0837Z" fill="#E9A5A5"/>
<path d="M43.5059 21.5429C43.3086 21.4527 43.091 21.4163 42.8751 21.4374C42.6592 21.4585 42.4528 21.5363 42.2767 21.663C41.7705 21.9932 41.3494 22.4381 41.0474 22.9616C40.7455 23.4851 40.5712 24.0725 40.5389 24.6759C40.5176 24.8885 40.5516 25.103 40.6377 25.2985C40.7237 25.4941 40.8588 25.6641 41.0298 25.7921C41.1323 25.8521 41.8175 26.223 41.9129 26.2795C42.1097 26.3716 42.3277 26.409 42.5439 26.3879C42.7602 26.3667 42.9668 26.2878 43.1421 26.1594C43.6493 25.8301 44.0714 25.3854 44.3741 24.8618C44.6767 24.3382 44.8512 23.7504 44.8834 23.1465C44.9049 22.9327 44.8702 22.717 44.7829 22.5206C44.6956 22.3243 44.5586 22.1541 44.3854 22.0268C44.283 21.9668 43.6048 21.5994 43.5059 21.5429Z" fill="#455A64"/>
<path d="M41.4043 25.1563C41.4043 26.2654 42.1814 26.714 43.1421 26.1594C43.6493 25.8301 44.0715 25.3854 44.3741 24.8618C44.6767 24.3382 44.8513 23.7504 44.8835 23.1465C44.8835 22.0374 44.1064 21.5853 43.1421 22.1399C42.6359 22.4708 42.2147 22.9164 41.9128 23.4404C41.6109 23.9645 41.4367 24.5524 41.4043 25.1563Z" fill="#37474F"/>
<path d="M54.1519 26.0182L44.1242 22.373C44.0596 22.3446 43.9898 22.3302 43.9193 22.3306C43.7199 22.3426 43.5268 22.4045 43.3577 22.5107C42.9164 22.8041 42.5491 23.1955 42.2844 23.6545C42.0196 24.1135 41.8647 24.6275 41.8318 25.1563C41.8318 25.3612 41.8671 25.7886 42.1603 25.9263L51.1249 31.2846L54.1519 26.0182Z" fill="#FF0909"/>
<path opacity="0.5" d="M54.1519 26.0182L44.1242 22.373C44.0596 22.3446 43.9898 22.3302 43.9193 22.3306C43.7199 22.3426 43.5268 22.4045 43.3577 22.5107C42.9164 22.8041 42.5491 23.1955 42.2844 23.6545C42.0196 24.1135 41.8647 24.6275 41.8318 25.1563C41.8318 25.3612 41.8671 25.7886 42.1603 25.9263L51.1249 31.2846L54.1519 26.0182Z" fill="black"/>
<path d="M53.2404 24.7819C52.7707 24.5099 52.1207 24.5452 51.4002 24.962C50.64 25.4576 50.0077 26.1258 49.5547 26.9121C49.1017 27.6984 48.8409 28.5805 48.7935 29.4867C48.7935 30.3027 49.076 30.8749 49.5317 31.1539C49.6836 31.2493 50.7079 31.8003 50.8527 31.8851C51.326 32.1606 51.9759 32.1217 52.6965 31.7085C53.4598 31.2138 54.0954 30.5459 54.5515 29.7589C55.0075 28.972 55.2712 28.0884 55.3209 27.1802C55.3209 26.3608 55.0348 25.7674 54.5721 25.506C54.4025 25.4177 53.3853 24.8667 53.2404 24.7819Z" fill="#455A64"/>
<path d="M50.0898 30.1932C50.0898 31.8533 51.259 32.5279 52.6966 31.6979C53.4585 31.2043 54.0932 30.538 54.5492 29.753C55.0052 28.968 55.2696 28.0866 55.321 27.1802C55.321 25.5201 54.1518 24.8455 52.7142 25.6755C51.9517 26.1685 51.3165 26.8346 50.8605 27.6197C50.4044 28.4048 50.1403 29.2866 50.0898 30.1932Z" fill="#37474F"/>
<path d="M51.5345 31.4082C50.828 31.4082 50.7327 30.557 50.7327 30.1896C50.7817 29.3984 51.0136 28.6293 51.4101 27.9429C51.8067 27.2565 52.357 26.6714 53.018 26.2336C53.2706 26.0732 53.5599 25.9796 53.8586 25.9616C54.5827 25.9616 54.6604 26.8129 54.6604 27.1802C54.6114 27.9715 54.3795 28.7405 53.983 29.427C53.5864 30.1134 53.036 30.6985 52.3751 31.1362C52.1225 31.2967 51.8332 31.3903 51.5345 31.4082Z" fill="#263238"/>
<path d="M53.8058 26.3255C53.8048 26.2073 53.7965 26.0894 53.7811 25.9722C53.5102 26.0026 53.2495 26.0931 53.0181 26.2371C52.3565 26.6745 51.8055 27.2594 51.4083 27.9459C51.0111 28.6324 50.7787 29.4016 50.7293 30.1932C50.7286 30.3113 50.7369 30.4294 50.754 30.5464C51.0248 30.5154 51.2853 30.425 51.517 30.2815C52.1785 29.8441 52.7296 29.2592 53.1268 28.5727C53.5239 27.8863 53.7564 27.117 53.8058 26.3255Z" fill="#FF0909"/>
<path opacity="0.3" d="M53.8058 26.3255C53.8048 26.2073 53.7965 26.0894 53.7811 25.9722C53.5102 26.0026 53.2495 26.0931 53.0181 26.2371C52.3565 26.6745 51.8055 27.2594 51.4083 27.9459C51.0111 28.6324 50.7787 29.4016 50.7293 30.1932C50.7286 30.3113 50.7369 30.4294 50.754 30.5464C51.0248 30.5154 51.2853 30.425 51.517 30.2815C52.1785 29.8441 52.7296 29.2592 53.1268 28.5727C53.5239 27.8863 53.7564 27.117 53.8058 26.3255Z" fill="black"/>
<path d="M52.347 27.0354C52.8344 26.4455 53.4667 26.2477 53.5656 26.4667C53.6645 26.6857 53.3572 28.8191 51.2944 30.0766C51.9803 29.4622 52.5426 28.7225 52.951 27.8973C53.2689 27.1873 52.9757 26.608 52.347 27.0354Z" fill="#E0E0E0"/>
<path d="M39.1648 24.0507C38.968 23.9587 38.75 23.9213 38.5337 23.9424C38.3175 23.9635 38.1109 24.0424 37.9356 24.1708C37.429 24.5008 37.0073 24.9456 36.7047 25.4691C36.4022 25.9926 36.2273 26.58 36.1943 27.1838C36.1722 27.3963 36.2063 27.6108 36.2931 27.806C36.3798 28.0013 36.5163 28.1703 36.6887 28.2964C36.7912 28.36 37.4729 28.7308 37.5718 28.7874C37.7686 28.8794 37.9866 28.9168 38.2028 28.8957C38.4191 28.8746 38.6257 28.7957 38.801 28.6673C39.3076 28.3373 39.7293 27.8925 40.0319 27.369C40.3344 26.8455 40.5093 26.2581 40.5423 25.6543C40.5645 25.4405 40.5302 25.2245 40.4428 25.028C40.3554 24.8315 40.218 24.6614 40.0443 24.5346C39.9419 24.4746 39.2637 24.1073 39.1648 24.0507Z" fill="#455A64"/>
<path d="M37.0598 27.6606C37.0598 28.7732 37.8404 29.2218 38.8012 28.6673C39.3078 28.3373 39.7295 27.8925 40.032 27.369C40.3346 26.8455 40.5095 26.2581 40.5425 25.6543C40.5425 24.5417 39.7619 24.0931 38.8012 24.6477C38.2945 24.9777 37.8728 25.4225 37.5703 25.946C37.2677 26.4694 37.0928 27.0569 37.0598 27.6606Z" fill="#37474F"/>
<path d="M48.0694 29.5291L39.8219 24.8949H39.7971C39.733 24.8653 39.6629 24.8508 39.5923 24.8525C39.3926 24.8628 39.1991 24.9249 39.0307 25.0327C38.5893 25.3251 38.2218 25.7158 37.957 26.1743C37.6923 26.6327 37.5375 27.1463 37.5048 27.6747C37.4968 27.803 37.5146 27.9316 37.5571 28.0529C37.5995 28.1742 37.6658 28.2858 37.752 28.3812L45.0459 34.785L48.0694 29.5291Z" fill="#FF0909"/>
<path opacity="0.5" d="M48.0694 29.5291L39.8219 24.8949H39.7971C39.733 24.8653 39.6629 24.8508 39.5923 24.8525C39.3926 24.8628 39.1991 24.9249 39.0307 25.0327C38.5893 25.3251 38.2218 25.7158 37.957 26.1743C37.6923 26.6327 37.5375 27.1463 37.5048 27.6747C37.4968 27.803 37.5146 27.9316 37.5571 28.0529C37.5995 28.1742 37.6658 28.2858 37.752 28.3812L45.0459 34.785L48.0694 29.5291Z" fill="black"/>
<path d="M47.9671 29.3737C47.7315 29.0726 47.6147 28.6956 47.6386 28.314C47.6661 27.548 47.9111 26.8055 48.345 26.1736L44.8694 28.1763C45.0308 28.0946 45.2054 28.042 45.3851 28.0209L48.0589 29.5221L47.9671 29.3737Z" fill="#263238"/>
<path d="M47.1616 28.2929C46.6883 28.0173 46.0384 28.0562 45.3213 28.473C44.5625 28.9666 43.9308 29.6324 43.4779 30.4161C43.0249 31.1999 42.7634 32.0796 42.7146 32.9836C42.7146 33.7959 42.9972 34.3717 43.4528 34.6507C43.6047 34.7426 44.629 35.2971 44.7739 35.3819C45.2436 35.6574 45.8971 35.6185 46.6176 35.2017C47.3754 34.7074 48.0061 34.0413 48.4584 33.2576C48.9107 32.4739 49.1719 31.5947 49.2208 30.6912C49.2208 29.8717 48.9347 29.2783 48.4755 29.0169C48.3237 28.9286 47.3064 28.3776 47.1616 28.2929Z" fill="#455A64"/>
<path d="M44.0181 33.7006C44.0181 35.3607 45.1837 36.0353 46.6248 35.2017C47.3826 34.7074 48.0133 34.0413 48.4655 33.2576C48.9178 32.4739 49.179 31.5947 49.228 30.6912C49.228 29.0275 48.0624 28.3564 46.6248 29.1865C45.8657 29.6806 45.2339 30.347 44.7809 31.1314C44.328 31.9158 44.0666 32.7961 44.0181 33.7006Z" fill="#37474F"/>
<path d="M45.4521 34.9192C44.7456 34.9192 44.6538 34.0644 44.6538 33.7006C44.7035 32.9094 44.9353 32.1405 45.3311 31.4536C45.7269 30.7668 46.276 30.1807 46.9356 29.741C47.1896 29.5813 47.4801 29.4889 47.7798 29.4726C48.5039 29.4726 48.5816 30.3239 48.5816 30.6912C48.5317 31.4822 48.2995 32.251 47.903 32.9373C47.5066 33.6236 46.9566 34.2089 46.2963 34.6472C46.0426 34.8082 45.752 34.9018 45.4521 34.9192Z" fill="#263238"/>
<path d="M47.7269 29.8399C47.7263 29.7217 47.7169 29.6036 47.6986 29.4867C47.4282 29.5167 47.1677 29.606 46.9357 29.7481C46.2761 30.1878 45.727 30.7739 45.3312 31.4607C44.9354 32.1475 44.7036 32.9165 44.6539 33.7076C44.653 33.8258 44.6612 33.9439 44.6786 34.0609C44.949 34.0309 45.2095 33.9416 45.4416 33.7995C46.1024 33.3608 46.6526 32.775 47.0491 32.088C47.4456 31.4011 47.6776 30.6316 47.7269 29.8399Z" fill="#FF0909"/>
<path opacity="0.3" d="M47.7269 29.8399C47.7263 29.7217 47.7169 29.6036 47.6986 29.4867C47.4282 29.5167 47.1677 29.606 46.9357 29.7481C46.2761 30.1878 45.727 30.7739 45.3312 31.4607C44.9354 32.1475 44.7036 32.9165 44.6539 33.7076C44.653 33.8258 44.6612 33.9439 44.6786 34.0609C44.949 34.0309 45.2095 33.9416 45.4416 33.7995C46.1024 33.3608 46.6526 32.775 47.0491 32.088C47.4456 31.4011 47.6776 30.6316 47.7269 29.8399Z" fill="black"/>
<path d="M46.2679 30.5464C46.7553 29.953 47.3876 29.7552 47.4865 29.9742C47.5854 30.1932 47.2746 32.3301 45.2153 33.5876C45.9001 32.9722 46.4622 32.2327 46.8719 31.4082C47.1969 30.6983 46.8966 30.1155 46.2679 30.5464Z" fill="#E0E0E0"/>
<path d="M44.88 24.1496L48.3521 26.1771L44.88 28.1834L41.3867 26.1665L44.88 24.1496Z" fill="#37474F"/>
<path d="M49.8567 24.4463C49.3728 22.7297 49.0337 22.2423 46.8508 21.5747C44.6679 20.9071 43.6189 20.9213 42.6723 21.5747C41.7257 22.2282 41.8316 23.03 43.135 23.581C44.5267 24.1708 47.3736 24.0649 48.3449 23.8953L49.8567 24.4463Z" fill="#E9A5A5"/>
<path d="M33.7923 35.2406C32.8835 36.0297 32.1228 36.9747 31.5459 38.031C31.9845 36.707 32.6821 35.4835 33.5981 34.4317L33.7923 35.2406Z" fill="#F28F8F"/>
<path d="M9.40308 53.8586C12.1228 55.8401 25.2377 57.3519 30.9492 53.1769C30.9492 53.1769 30.8185 36.1943 30.3699 27.7454C30.3487 27.3639 30.324 26.9895 30.2852 26.6292C30.2852 26.5091 30.2534 26.389 30.2428 26.276C30.1305 25.6223 29.8735 25.002 29.4904 24.4605C28.9401 23.617 28.2836 22.8478 27.5371 22.1716C27.1839 21.8361 26.7707 21.557 26.3821 21.2497C26.2334 21.1136 26.0569 21.0115 25.8647 20.9505C25.6726 20.8895 25.4695 20.8711 25.2695 20.8965H24.8139H24.33C22.1895 20.9919 19.12 21.3381 16.6546 21.6524L16.1742 21.716L15.7504 21.769C14.0585 21.9915 12.8045 22.1752 12.6138 22.2034H12.582C12.0275 22.3447 11.5224 22.4789 11.102 22.6026C9.97175 22.9346 10.8124 22.6485 10.5652 23.7399C9.834 26.9506 9.88345 38.575 9.88345 38.575L9.40308 53.8586Z" fill="#F5F5F5"/>
<path d="M17.3681 9.62897L16.6016 10.452L16.2484 6.16393C15.9414 6.12553 15.6298 6.15775 15.3372 6.25814C15.0445 6.35853 14.7787 6.52444 14.56 6.7432C13.8289 7.47789 14.2068 9.79851 15.1004 12.0732C15.1004 12.0732 15.9482 16.2094 16.2978 16.8911C16.5256 17.3089 16.9048 17.6236 17.3575 17.7706L17.3681 9.62897Z" fill="#263238"/>
<path d="M17.2479 12.2816C16.9159 12.4759 16.4461 11.833 16.0399 11.4021C15.6337 10.9712 14.3021 10.3778 13.6239 11.7765C12.9458 13.1753 14.1891 15.1038 15.2381 15.4429C17.0466 16.0257 17.3292 14.8636 17.3292 14.8636L17.3998 21.5359C19.2754 24.9868 25.7145 23.2737 23.3232 20.9778V19.2823C24.2328 19.3557 25.1465 19.3628 26.0571 19.3035C27.3923 19.1093 27.9468 18.1874 28.3636 16.7498C29.0312 14.4327 29.2926 12.5642 28.7733 8.00065C28.2082 2.99559 22.3943 2.90022 19.2365 4.8535C16.0788 6.80678 17.2479 12.2816 17.2479 12.2816Z" fill="#FFA8A7"/>
<path d="M30.3593 3.1616C30.1822 2.97742 29.9395 2.87072 29.6841 2.86476C29.4287 2.85881 29.1813 2.95408 28.9959 3.12981C29.1668 2.58387 29.2456 2.01327 29.229 1.44144C29.2078 0.826846 28.9464 0.0850939 28.3354 0.000322243C28.0143 -0.00605716 27.6986 0.082407 27.4276 0.254638C25.1034 1.40965 22.5144 1.89709 19.9748 2.42691C18.795 2.63237 17.6421 2.97005 16.538 3.43357C16.2717 3.55598 16.0123 3.69276 15.7609 3.84331C15.0545 4.28129 14.348 5.63764 14.9273 6.45003C14.9617 6.49222 14.9859 6.54178 14.998 6.59485L16.0788 11.448C16.4815 11.8366 17.0996 12.9209 17.2656 12.9209C18.1486 12.9209 18.3535 8.61524 18.5266 7.97592C18.5953 7.79405 18.7127 7.63458 18.8659 7.51497C19.0192 7.39535 19.2024 7.3202 19.3955 7.29775C19.7829 7.25953 20.174 7.29063 20.5505 7.38959C22.1242 7.68713 23.7247 7.81971 25.326 7.78518C26.4738 7.81328 27.6143 7.59529 28.6709 7.14587C29.7023 6.65137 30.5818 5.71181 30.7372 4.57799C30.7847 4.32868 30.7754 4.07186 30.71 3.82664C30.6446 3.58142 30.5247 3.3541 30.3593 3.1616Z" fill="#263238"/>
<path d="M15.2487 6.52774C15.0388 6.7699 14.7414 6.91878 14.4218 6.94164C14.1022 6.96449 13.7866 6.85944 13.5444 6.6496C13.3023 6.43976 13.1534 6.14232 13.1305 5.82271C13.1077 5.5031 13.2127 5.18749 13.4226 4.94534L15.2487 6.52774Z" fill="#263238"/>
<path d="M23.3302 19.2823C23.3302 19.2823 20.3526 18.975 19.3176 18.4134C18.7122 18.0896 18.2195 17.5895 17.9048 16.9794C18.0561 17.5892 18.3288 18.1622 18.7066 18.6642C19.4625 19.6426 23.3337 20.3914 23.3337 20.3914L23.3302 19.2823Z" fill="#F28F8F"/>
<path d="M22.472 11.5752C22.4665 11.692 22.4267 11.8047 22.3577 11.8991C22.2887 11.9936 22.1934 12.0657 22.0838 12.1064C21.9741 12.1472 21.8549 12.1549 21.741 12.1284C21.627 12.102 21.5233 12.0427 21.4428 11.9579C21.3622 11.873 21.3084 11.7664 21.288 11.6512C21.2676 11.536 21.2814 11.4174 21.3278 11.31C21.3743 11.2026 21.4512 11.1113 21.5491 11.0473C21.6471 10.9833 21.7616 10.9494 21.8786 10.95C21.9587 10.9518 22.0376 10.9695 22.1109 11.0019C22.1841 11.0344 22.2502 11.081 22.3054 11.1391C22.3605 11.1972 22.4036 11.2657 22.4322 11.3405C22.4608 11.4154 22.4744 11.4951 22.472 11.5752Z" fill="#263238"/>
<path d="M21.8609 9.31814L20.5787 10.0246C20.4884 9.84911 20.4696 9.6455 20.5262 9.45648C20.5829 9.26746 20.7106 9.10773 20.8825 9.01084C20.9663 8.96417 21.0588 8.93506 21.1543 8.92531C21.2497 8.91555 21.3462 8.92535 21.4377 8.95411C21.5293 8.98287 21.614 9.02997 21.6868 9.09256C21.7595 9.15515 21.8188 9.2319 21.8609 9.31814Z" fill="#263238"/>
<path d="M22.712 15.7113L24.3722 16.3507C24.3354 16.4622 24.2764 16.5651 24.1989 16.6533C24.1214 16.7415 24.0269 16.8131 23.921 16.8639C23.8151 16.9147 23.7001 16.9436 23.5828 16.9489C23.4655 16.9542 23.3483 16.9357 23.2383 16.8946C23.015 16.8032 22.8356 16.6292 22.7375 16.4087C22.6395 16.1882 22.6303 15.9384 22.712 15.7113Z" fill="#F28F8F"/>
<path d="M27.7701 9.85856L26.6116 8.95433C26.6668 8.87601 26.7374 8.80974 26.8191 8.75957C26.9007 8.7094 26.9917 8.67637 27.0866 8.66249C27.1814 8.64861 27.2781 8.65418 27.3707 8.67884C27.4633 8.70351 27.5499 8.74677 27.6253 8.80598C27.7793 8.92975 27.8801 9.10775 27.907 9.30347C27.9339 9.49919 27.885 9.6978 27.7701 9.85856Z" fill="#263238"/>
<path d="M27.3851 11.441C27.3796 11.5578 27.3398 11.6705 27.2708 11.7649C27.2018 11.8594 27.1065 11.9314 26.9969 11.9722C26.8872 12.013 26.768 12.0206 26.654 11.9942C26.5401 11.9678 26.4364 11.9085 26.3559 11.8236C26.2753 11.7388 26.2215 11.6322 26.2011 11.517C26.1806 11.4018 26.1945 11.2832 26.2409 11.1758C26.2874 11.0684 26.3643 10.977 26.4622 10.913C26.5601 10.849 26.6747 10.8152 26.7917 10.8158C26.8718 10.8176 26.9507 10.8353 27.024 10.8677C27.0972 10.9002 27.1633 10.9468 27.2185 11.0049C27.2736 11.063 27.3167 11.1315 27.3453 11.2063C27.3739 11.2811 27.3874 11.3609 27.3851 11.441Z" fill="#263238"/>
<path d="M24.51 10.9959L24.6796 14.5846L26.5587 13.9594L24.51 10.9959Z" fill="#F28F8F"/>
<path d="M16.3401 21.716C16.3401 21.716 19.0033 25.6791 18.7349 30.6559C17.8907 46.3351 9.55127 48.9771 9.55127 48.9771L9.69609 44.4136C9.69609 44.4136 14.2879 41.4501 14.9731 33.524C15.4146 28.3352 13.9135 23.203 12.5819 22.2211C12.5819 22.2246 13.917 21.4935 16.3401 21.716Z" fill="#37474F"/>
<path d="M7.43193 47.9458C8.69291 48.1577 10.1799 47.4442 11.8577 45.12C13.4752 42.9609 14.9546 40.7017 16.287 38.356C17.3255 36.5687 18.0778 35.2371 18.4381 34.4211C19.0739 32.9836 20.2042 31.2422 20.0311 29.6916C19.9471 28.4422 19.6246 27.2204 19.081 26.0923C18.9668 25.8613 18.8295 25.6423 18.6712 25.4389C18.5938 25.3369 18.4819 25.2667 18.3564 25.2414C18.2309 25.216 18.1005 25.2372 17.9895 25.3011L18.1909 25.9546C18.2403 26.661 17.8376 27.816 17.1559 28.7167C16.7432 29.2688 16.2692 29.7724 15.7431 30.2179C15.7478 29.715 15.674 29.2144 15.5241 28.7344C15.2768 27.8196 14.5068 27.0001 14.0265 27.1202C13.5461 27.2403 13.8463 27.3745 13.9629 28.3423C14.0794 29.3101 13.5002 30.5746 13.6803 31.9486C13.7792 32.7222 13.7686 33.8807 13.4225 34.5377C12.9068 35.509 10.5508 37.8085 10.5508 37.8085C11.5292 32.8635 11.6493 31.878 12.0343 29.9494C12.9915 26.4879 12.3875 23.7152 11.4233 22.4825C8.53396 22.8357 6.97982 23.8953 6.24866 26.4879C5.18902 30.2214 4.71924 33.8595 4.71924 41.0757C4.72277 44.8163 5.93076 47.6985 7.43193 47.9458Z" fill="#E9A5A5"/>
<path d="M10.5543 37.8226C8.94367 39.0094 7.85224 40.0479 7.43191 41.7468C7.43191 41.7468 7.31182 38.2677 10.7345 36.9113L10.5543 37.8226Z" fill="#F28F8F"/>
<path d="M23.5315 20.9601C25.5834 22.0416 27.2649 23.7121 28.36 25.7568C29.5079 27.922 30.6099 30.5994 30.6488 35.0075C31.3058 29.2819 31.3835 23.7505 26.548 20.8789C25.5471 20.7053 24.5216 20.733 23.5315 20.9601Z" fill="#37474F"/>
</svg>
