<svg width="23" height="23" viewBox="0 0 23 23" fill="none" xmlns="http://www.w3.org/2000/svg">
<g clip-path="url(#clip0_156_25197)">
<path d="M7.16068 6.87927C4.64276 6.87927 2.60156 8.92047 2.60156 11.4384C2.60156 13.9563 4.64276 15.9975 7.16068 15.9975C9.67859 15.9975 11.7198 13.9563 11.7198 11.4384C11.7198 8.92047 9.67859 6.87927 7.16068 6.87927ZM10.5348 9.72872H8.89167C8.73452 8.94132 8.48909 8.3049 8.23848 7.81389C9.24253 8.11351 10.0667 8.80972 10.5348 9.72872ZM8.30046 11.4384C8.30046 11.7776 8.27505 12.0892 8.24014 12.3882H6.08136C6.04631 12.0892 6.02085 11.7775 6.02085 11.4384C6.02085 11.0991 6.04588 10.7875 6.08059 10.4886H8.2409C8.27543 10.7875 8.30046 11.0991 8.30046 11.4384ZM7.05012 7.65024C7.08759 7.64915 7.12283 7.63912 7.16068 7.63912C7.19891 7.63912 7.23429 7.64934 7.27233 7.65043C7.55746 8.08786 7.90419 8.77985 8.11415 9.72872H6.2073C6.41825 8.77658 6.76627 8.08492 7.05012 7.65024ZM6.08287 7.81389C5.83317 8.30385 5.58755 8.94099 5.43026 9.72872H3.7866C4.25467 8.80972 5.07887 8.1137 6.08287 7.81389ZM3.36142 11.4384C3.36142 11.1085 3.41688 10.7939 3.49629 10.4886H5.31485C5.28313 10.7895 5.26105 11.1024 5.26105 11.4384C5.26105 11.7745 5.2837 12.0871 5.31595 12.3882H3.49629C3.41688 12.0828 3.36142 11.7683 3.36142 11.4384ZM3.7866 13.1481H5.43211C5.59092 13.9372 5.83668 14.5791 6.08178 15.0625C5.0783 14.7627 4.25448 14.0667 3.7866 13.1481ZM7.27105 15.2265C7.23358 15.2277 7.19853 15.2376 7.16068 15.2376C7.12283 15.2376 7.08778 15.2276 7.05012 15.2265C6.77781 14.8077 6.4231 14.1141 6.2083 13.1481H8.11315C7.89864 14.1135 7.54431 14.8067 7.27105 15.2265ZM8.23995 15.0625C8.48539 14.5786 8.73101 13.9373 8.88944 13.1481H10.5348C10.0669 14.0666 9.2432 14.7626 8.23995 15.0625ZM9.0056 12.3882C9.0377 12.0871 9.06031 11.7745 9.06031 11.4384C9.06031 11.1024 9.03842 10.7895 9.00669 10.4886H10.8251C10.9045 10.7939 10.9599 11.1086 10.9599 11.4384C10.9599 11.7683 10.9045 12.0828 10.8251 12.3882H9.0056Z" fill="#515151"/>
<path d="M10.9618 18.2777H3.36328V19.0376H10.9618V18.2777Z" fill="#515151"/>
<path d="M16.2509 12.804L15.8574 14.2719L16.5914 14.4686L16.9848 13.0007L16.2509 12.804Z" fill="#515151"/>
<path d="M15.4644 15.7379L14.0879 20.8754L14.8218 21.072L16.1984 15.9346L15.4644 15.7379Z" fill="#515151"/>
<path d="M20.4713 2.92033L11.6639 0.560324C11.5321 0.525038 11.3998 0.508179 11.2697 0.508179C10.5987 0.508226 9.98465 0.956017 9.80266 1.63494L9.00833 4.5996H1.08212C0.66249 4.5996 0.322266 4.93978 0.322266 5.35946V20.5565C0.322266 20.9762 0.66249 21.3164 1.08212 21.3164H9.85846L15.1615 22.7373C15.2932 22.7726 15.4254 22.7894 15.5557 22.7894C16.2267 22.7894 16.8407 22.3416 17.0227 21.6627L21.546 4.78154C21.7633 3.97087 21.282 3.13755 20.4713 2.92033ZM1.08212 20.5565V5.35946H12.4799C12.899 5.35946 13.2398 5.70035 13.2398 6.11931V19.7967C13.2398 20.2156 12.899 20.5565 12.4799 20.5565H1.08212ZM20.8121 4.58488L16.2888 21.466C16.1998 21.7979 15.8983 22.0296 15.5557 22.0296C15.4896 22.0296 15.4232 22.0208 15.3581 22.0033L12.7084 21.2933C13.4384 21.1824 13.9996 20.5577 13.9996 19.7967V13.7728L14.3888 13.8771L14.7822 12.4091L14.0482 12.2125L13.9996 12.3941V6.35567C14.2365 6.41917 14.5099 6.49244 14.775 6.56349L15.6736 9.50137L16.3027 9.66996L16.2431 6.95686C16.6562 7.06761 17.0781 7.18059 17.3545 7.25467L17.8429 8.11601L18.2624 8.22838L18.1902 7.02909L18.8524 6.02651L18.4329 5.91415L17.5794 6.41589C17.3028 6.34185 16.8811 6.22882 16.4678 6.11807L17.876 3.79834C17.876 3.79834 17.9325 3.62975 16.7875 4.78154C15.6425 5.93334 14.9998 5.72476 14.9998 5.72476C14.5579 5.60636 14.0758 5.47709 13.8146 5.40719C13.5586 4.92876 13.0602 4.59965 12.4799 4.59965H9.79478L10.5364 1.8317C10.6255 1.49988 10.927 1.26813 11.2696 1.26808C11.3356 1.26808 11.4021 1.27691 11.4672 1.29439L20.2747 3.6544C20.4708 3.70692 20.6346 3.83268 20.736 4.00844C20.8376 4.18416 20.8646 4.38889 20.8121 4.58488Z" fill="#515151"/>
<path d="M16.0518 10.7951L15.8574 11.5297L16.5795 11.7207L16.7738 10.9862L16.0518 10.7951Z" fill="#515151"/>
<path d="M17.4951 11.178L17.3008 11.9125L18.0229 12.1035L18.2172 11.369L17.4951 11.178Z" fill="#515151"/>
<path d="M14.6104 10.4123L14.416 11.1469L15.1381 11.3379L15.3324 10.6034L14.6104 10.4123Z" fill="#515151"/>
</g>
<defs>
<clipPath id="clip0_156_25197">
<rect width="23" height="22.2812" fill="white" transform="translate(0 0.328491)"/>
</clipPath>
</defs>
</svg>
