<svg viewBox="0 0 19 24" fill="none" xmlns="http://www.w3.org/2000/svg">
  <path d="M18.9525 6.26683C18.9525 6.26683 17.6383 16.7882 15.4788 19.159C12.8861 21.9988 11.0024 21.5834 9.95671 23.0481C8.91102 21.5816 7.02913 21.9988 4.4328 19.1572C2.27337 16.7882 0.960876 6.26504 0.960876 6.26504C6.65132 3.50398 9.96029 0.408081 9.96029 0.408081C10.0588 0.504772 13.3498 3.54875 18.9525 6.26683Z" fill="currentColor" fill-opacity="0.5"/>
  <path d="M9.96031 0.409868V23.0463C8.91462 21.5798 7.03273 21.997 4.4364 19.1554C2.27697 16.7864 0.964478 6.26325 0.964478 6.26325C6.65133 3.50398 9.96031 0.408081 9.96031 0.408081V0.409868Z" fill="currentColor"/>
  <path d="M17.5578 7.11561C17.5578 7.11561 16.4476 16.0022 14.623 18.0041C12.4296 20.407 10.8395 20.0543 9.95499 21.2916C9.07045 20.0543 7.48042 20.407 5.28876 18.0041C3.46417 16.0022 2.3558 7.11561 2.3558 7.11561C7.16349 4.78786 9.95499 2.16467 9.95499 2.16467C9.95499 2.16467 12.7501 4.7807 17.5578 7.11561Z" fill="currentColor" fill-opacity="0.6"/>
  <path d="M2.3576 7.11557C2.3576 7.11557 3.46776 16.0022 5.29235 18.004C7.48222 20.4052 9.06509 20.0542 9.96038 21.2879V2.16821C9.87264 2.247 7.09546 4.81647 2.3576 7.11557Z" fill="currentColor"/>
  <path d="M12.4484 14.2201C13.8246 12.844 13.8246 10.6128 12.4484 9.23666C11.0723 7.86051 8.84109 7.86051 7.46494 9.23665C6.0888 10.6128 6.0888 12.844 7.46494 14.2201C8.84109 15.5963 11.0723 15.5963 12.4484 14.2201Z" fill="#F7F7F7"/>
  <path d="M9.80631 13.6333C9.67807 13.8302 9.39998 13.8565 9.23713 13.6871L8.23815 12.6483C8.09843 12.503 8.10287 12.272 8.24805 12.1321L8.30376 12.0785C8.44917 11.9384 8.68063 11.943 8.82046 12.0886L9.11373 12.394C9.27649 12.5635 9.55465 12.5374 9.683 12.3405L11.0985 10.1697C11.2086 10.0009 11.4346 9.9532 11.6036 10.0631L11.6684 10.1054C11.8375 10.2154 11.8853 10.4417 11.7752 10.6107L9.80631 13.6333Z" fill="currentColor"/>
</svg>
