<svg width="19" height="19" viewBox="0 0 19 19" fill="none" xmlns="http://www.w3.org/2000/svg">
<path d="M13.9139 13.0634L14.2064 15.4334C14.2814 16.0559 13.6139 16.4909 13.0814 16.1684L9.93891 14.3009C9.59391 14.3009 9.25641 14.2784 8.92641 14.2334C9.48141 13.5809 9.81141 12.7559 9.81141 11.8634C9.81141 9.7334 7.96641 8.00844 5.68641 8.00844C4.81641 8.00844 4.01391 8.25592 3.34641 8.69092C3.32391 8.50342 3.31641 8.31591 3.31641 8.12091C3.31641 4.70841 6.27891 1.94092 9.93891 1.94092C13.5989 1.94092 16.5614 4.70841 16.5614 8.12091C16.5614 10.1459 15.5189 11.9384 13.9139 13.0634Z"  stroke-width="1.5" stroke-linecap="round" stroke-linejoin="round"/>
<path d="M9.81055 11.8633C9.81055 12.7558 9.48055 13.5808 8.92555 14.2333C8.18305 15.1333 7.00555 15.7108 5.68555 15.7108L3.72805 16.8733C3.39805 17.0758 2.97804 16.7983 3.02304 16.4158L3.21054 14.9383C2.20554 14.2408 1.56055 13.1233 1.56055 11.8633C1.56055 10.5433 2.26555 9.38078 3.34555 8.69078C4.01305 8.25578 4.81555 8.0083 5.68555 8.0083C7.96555 8.0083 9.81055 9.73327 9.81055 11.8633Z"  stroke-width="1.5" stroke-linecap="round" stroke-linejoin="round"/>
</svg>
