<svg xmlns="http://www.w3.org/2000/svg" viewBox="0 0 58 59" fill="none"  >
  <path d="M2.9 52.3899V55.4271C2.9 57.0288 4.19837 58.3271 5.8 58.3271H7.73333C9.33496 58.3271 10.6333 57.0288 10.6333 55.4271V52.5271H16.4333C16.9672 52.5271 17.4 52.0944 17.4 51.5605C17.4 51.0266 16.9672 50.5938 16.4333 50.5938H3.86667C2.79892 50.5938 1.93333 49.7282 1.93333 48.6605V19.6605C1.93333 18.5927 2.79892 17.7271 3.86667 17.7271H31.9C32.7151 17.7225 33.443 18.2364 33.7115 19.006C33.816 19.3419 34.0946 19.5945 34.439 19.6656C34.7834 19.7368 35.1393 19.6153 35.3683 19.3483C35.5973 19.0814 35.6632 18.7112 35.5405 18.3816C35.0054 16.8291 33.5421 15.789 31.9 15.7938H28.0333V10.2065C28.6459 9.66105 28.9974 8.88069 29 8.06048V3.22715C29 1.62552 27.7016 0.327148 26.1 0.327148H9.66667C8.06504 0.327148 6.76667 1.62552 6.76667 3.22715V8.06048C6.76924 8.88069 7.12075 9.66105 7.73333 10.2065V15.7938H3.86667C1.73117 15.7938 0 17.525 0 19.6605V48.6605C0.00658766 50.4183 1.198 51.9504 2.9 52.3899ZM8.7 52.5271V55.4271C8.7 55.961 8.26721 56.3938 7.73333 56.3938H5.8C5.26612 56.3938 4.83333 55.961 4.83333 55.4271V52.5271H8.7ZM14.5 8.06048V7.09381H21.2667V8.06048C21.2692 8.88069 21.6208 9.66105 22.2333 10.2065V15.7938H13.5333V10.2065C14.1459 9.66105 14.4974 8.88069 14.5 8.06048ZM26.1 15.7938H24.1667V10.9605H26.1V15.7938ZM8.7 3.22715C8.7 2.69327 9.13279 2.26048 9.66667 2.26048H26.1C26.6339 2.26048 27.0667 2.69327 27.0667 3.22715V8.06048C27.0667 8.59436 26.6339 9.02715 26.1 9.02715H24.1667C23.6328 9.02715 23.2 8.59436 23.2 8.06048V6.12715C23.2 5.59327 22.7672 5.16048 22.2333 5.16048H13.5333C12.9995 5.16048 12.5667 5.59327 12.5667 6.12715V8.06048C12.5667 8.59436 12.1339 9.02715 11.6 9.02715H9.66667C9.13279 9.02715 8.7 8.59436 8.7 8.06048V3.22715ZM9.66667 10.9605H11.6V15.7938H9.66667V10.9605Z" fill="#D94407"/>
  <path d="M4.83337 21.5936V46.727C4.83337 47.2608 5.26617 47.6936 5.80004 47.6936C6.33392 47.6936 6.76671 47.2608 6.76671 46.727V21.5936C6.76671 21.0597 6.33392 20.627 5.80004 20.627C5.26617 20.627 4.83337 21.0597 4.83337 21.5936Z" fill="#D94407"/>
  <path d="M9.66663 21.5936V46.727C9.66663 47.2608 10.0994 47.6936 10.6333 47.6936C11.1672 47.6936 11.6 47.2608 11.6 46.727V21.5936C11.6 21.0597 11.1672 20.627 10.6333 20.627C10.0994 20.627 9.66663 21.0597 9.66663 21.5936Z" fill="#D94407"/>
  <path d="M14.5 21.5936V46.727C14.5 47.2608 14.9328 47.6936 15.4667 47.6936C16.0005 47.6936 16.4333 47.2608 16.4333 46.727V21.5936C16.4333 21.0597 16.0005 20.627 15.4667 20.627C14.9328 20.627 14.5 21.0597 14.5 21.5936Z" fill="#D94407"/>
  <path d="M21.2667 27.3936V21.5936C21.2667 21.0597 20.8339 20.627 20.3 20.627C19.7662 20.627 19.3334 21.0597 19.3334 21.5936V27.3936C19.3334 27.9275 19.7662 28.3603 20.3 28.3603C20.8339 28.3603 21.2667 27.9275 21.2667 27.3936Z" fill="#D94407"/>
  <path d="M24.1667 40.9268C24.7006 40.9268 25.1333 40.494 25.1333 39.9602V36.0935H26.1C26.6339 36.0935 27.0667 35.6607 27.0667 35.1268C27.0667 34.5929 26.6339 34.1602 26.1 34.1602H24.1667C23.6328 34.1602 23.2 34.5929 23.2 35.1268V39.9602C23.2 40.494 23.6328 40.9268 24.1667 40.9268Z" fill="#D94407"/>
  <path d="M26.1 26.4271V30.2938H22.2334C20.6317 30.2938 19.3334 31.5921 19.3334 33.1938V51.5604C19.3334 53.162 20.6317 54.4604 22.2334 54.4604V55.4271C22.2334 57.0287 23.5317 58.3271 25.1334 58.3271H28.0334C29.635 58.3271 30.9334 57.0287 30.9334 55.4271V54.4604H46.4V55.4271C46.4 57.0287 47.6984 58.3271 49.3 58.3271H52.2C53.8017 58.3271 55.1 57.0287 55.1 55.4271V54.4604C56.7017 54.4604 58 53.162 58 51.5604V33.1938C58 31.5921 56.7017 30.2938 55.1 30.2938H51.2334V26.4271C51.2302 23.759 49.0681 21.5969 46.4 21.5938H30.9334C28.2653 21.5969 26.1032 23.759 26.1 26.4271ZM21.2667 51.5604V33.1938C21.2667 32.6599 21.6995 32.2271 22.2334 32.2271H29V52.5271H22.2334C21.6995 52.5271 21.2667 52.0943 21.2667 51.5604ZM31.9 32.2271H46.4V35.7951C46.2541 35.8766 46.1195 35.977 45.9998 36.0938L44.0665 38.0271C43.7026 38.3887 43.4987 38.8809 43.5 39.394V44.7938C43.5 45.8615 44.3656 46.7271 45.4334 46.7271H46.4V52.5271H30.9334V32.2271H31.9ZM45.4334 44.7938V39.394L47.3619 37.4606H47.3715L49.3 39.394V44.7938H45.4334ZM44.4667 30.2938H32.8667V28.3604H44.4667V30.2938ZM29 55.4271C29 55.961 28.5672 56.3938 28.0334 56.3938H25.1334C24.5995 56.3938 24.1667 55.961 24.1667 55.4271V54.4604H29V55.4271ZM53.1667 55.4271C53.1667 55.961 52.7339 56.3938 52.2 56.3938H49.3C48.7662 56.3938 48.3334 55.961 48.3334 55.4271V54.4604H53.1667V55.4271ZM56.0667 33.1938V51.5604C56.0667 52.0943 55.6339 52.5271 55.1 52.5271H48.3334V46.7271H49.3C50.3678 46.7271 51.2334 45.8615 51.2334 44.7938V39.394C51.2348 38.8809 51.0308 38.3887 50.6669 38.0271L48.7336 36.0938C48.6139 35.977 48.4793 35.8766 48.3334 35.7951V32.2271H55.1C55.6339 32.2271 56.0667 32.6599 56.0667 33.1938ZM49.3 26.4271V30.2938H46.4V27.3938C46.4 26.8599 45.9673 26.4271 45.4334 26.4271H31.9C31.3662 26.4271 30.9334 26.8599 30.9334 27.3938V30.2938H28.0334V26.4271C28.0334 24.8255 29.3317 23.5271 30.9334 23.5271H46.4C48.0017 23.5271 49.3 24.8255 49.3 26.4271Z" fill="#D94407"/>
</svg>