<svg  viewBox="0 0 100 101" fill="none" xmlns="http://www.w3.org/2000/svg">
<rect y="0.327148" width="100" height="100" rx="50" />
<path d="M69.3333 42.473V24.2271C69.3333 23.458 69.0278 22.7204 68.4839 22.1765C67.9401 21.6327 67.2025 21.3271 66.4333 21.3271H33.5667C32.7975 21.3271 32.0599 21.6327 31.5161 22.1765C30.9722 22.7204 30.6667 23.458 30.6667 24.2271V40.6605H23.9C23.1309 40.6605 22.3932 40.966 21.8494 41.5099C21.3055 42.0537 21 42.7914 21 43.5605V76.4271C21 77.1963 21.3055 77.9339 21.8494 78.4778C22.3932 79.0216 23.1309 79.3271 23.9 79.3271H64.5C64.7015 79.3273 64.898 79.2641 65.0616 79.1464C65.631 78.7413 79 69.0428 79 56.1271C78.9949 53.1319 78.063 50.2115 76.3323 47.7669C74.6016 45.3222 72.1568 43.473 69.3333 42.473ZM22.9333 47.4271H26.8V51.2938H22.9333V47.4271ZM22.9333 57.0938H26.8V60.9605H22.9333V57.0938ZM22.9333 66.7605H26.8V70.6271H22.9333V66.7605ZM22.9333 76.4271V72.5605H26.8C27.3128 72.5605 27.8045 72.3568 28.1671 71.9942C28.5296 71.6317 28.7333 71.1399 28.7333 70.6271V66.7605C28.7333 66.2477 28.5296 65.756 28.1671 65.3934C27.8045 65.0308 27.3128 64.8271 26.8 64.8271H22.9333V62.8938H26.8C27.3128 62.8938 27.8045 62.6901 28.1671 62.3276C28.5296 61.965 28.7333 61.4732 28.7333 60.9605V57.0938C28.7333 56.5811 28.5296 56.0893 28.1671 55.7267C27.8045 55.3642 27.3128 55.1605 26.8 55.1605H22.9333V53.2271H26.8C27.3128 53.2271 27.8045 53.0235 28.1671 52.6609C28.5296 52.2983 28.7333 51.8066 28.7333 51.2938V47.4271C28.7333 46.9144 28.5296 46.4226 28.1671 46.0601C27.8045 45.6975 27.3128 45.4938 26.8 45.4938H22.9333V43.5605C22.9333 43.3041 23.0352 43.0582 23.2165 42.8769C23.3977 42.6957 23.6436 42.5938 23.9 42.5938H30.6667V77.3938H23.9C23.6436 77.3938 23.3977 77.292 23.2165 77.1107C23.0352 76.9294 22.9333 76.6835 22.9333 76.4271ZM32.6 41.6271V24.2271C32.6 23.9708 32.7018 23.7249 32.8831 23.5436C33.0644 23.3623 33.3103 23.2605 33.5667 23.2605H66.4333C66.6897 23.2605 66.9356 23.3623 67.1169 23.5436C67.2982 23.7249 67.4 23.9708 67.4 24.2271V41.9171C66.4455 41.7237 65.4739 41.6266 64.5 41.6271V37.7605C64.5 37.2477 64.2963 36.756 63.9337 36.3934C63.5712 36.0308 63.0794 35.8271 62.5667 35.8271H58.7C58.1872 35.8271 57.6955 36.0308 57.3329 36.3934C56.9704 36.756 56.7667 37.2477 56.7667 37.7605V41.6271C56.768 41.9688 56.86 42.304 57.0334 42.5983C57.2069 42.8927 57.4554 43.1357 57.7536 43.3024C56.1994 44.127 54.8072 45.2261 53.6443 46.5465C53.483 46.2311 53.238 45.9661 52.9363 45.7805C52.6346 45.5948 52.2876 45.4957 51.9333 45.4938H48.0667C47.5539 45.4938 47.0622 45.6975 46.6996 46.0601C46.337 46.4226 46.1333 46.9144 46.1333 47.4271V51.2938C46.1333 51.8066 46.337 52.2983 46.6996 52.6609C47.0622 53.0235 47.5539 53.2271 48.0667 53.2271H50.29C50.1662 53.8655 50.0851 54.5114 50.0474 55.1605H48.0667C47.5539 55.1605 47.0622 55.3642 46.6996 55.7267C46.337 56.0893 46.1333 56.5811 46.1333 57.0938V60.9605C46.1333 61.4732 46.337 61.965 46.6996 62.3276C47.0622 62.6901 47.5539 62.8938 48.0667 62.8938H51.1987C53.5428 69.5889 58.7648 74.8157 61.7508 77.3938H45.1667V68.6938C45.1667 67.9247 44.8611 67.1871 44.3173 66.6432C43.7734 66.0993 43.0358 65.7938 42.2667 65.7938H38.4C37.6309 65.7938 36.8932 66.0993 36.3494 66.6432C35.8055 67.1871 35.5 67.9247 35.5 68.6938V77.3938H32.6V41.6271ZM58.7 41.6271V37.7605H62.5667V41.6271H58.7ZM50.0309 57.0938C50.0998 58.3987 50.296 59.6937 50.6167 60.9605H48.0667V57.0938H50.0309ZM50.8458 51.2938H48.0667V47.4271H51.9333V48.9235C51.5002 49.6793 51.1362 50.4726 50.8458 51.2938ZM37.4333 77.3938V68.6938C37.4333 68.4374 37.5352 68.1916 37.7165 68.0103C37.8977 67.829 38.1436 67.7271 38.4 67.7271H42.2667C42.523 67.7271 42.7689 67.829 42.9502 68.0103C43.1315 68.1916 43.2333 68.4374 43.2333 68.6938V77.3938H37.4333ZM64.5 77.1454C61.9867 75.1705 51.9333 66.6058 51.9333 56.1271C51.9333 52.7943 53.2573 49.5979 55.614 47.2412C57.9707 44.8845 61.1671 43.5605 64.5 43.5605C67.8329 43.5605 71.0293 44.8845 73.386 47.2412C75.7427 49.5979 77.0667 52.7943 77.0667 56.1271C77.0667 66.6058 67.0133 75.1705 64.5 77.1454Z" fill="#D94407"/>
<path d="M38.25 34.7212H41.75C42.2141 34.7212 42.6592 34.5105 42.9874 34.1354C43.3156 33.7603 43.5 33.2516 43.5 32.7212V28.7212C43.5 28.1908 43.3156 27.6821 42.9874 27.307C42.6592 26.9319 42.2141 26.7212 41.75 26.7212H38.25C37.7859 26.7212 37.3408 26.9319 37.0126 27.307C36.6844 27.6821 36.5 28.1908 36.5 28.7212V32.7212C36.5 33.2516 36.6844 33.7603 37.0126 34.1354C37.3408 34.5105 37.7859 34.7212 38.25 34.7212ZM38.25 28.7212H41.75V32.7212H38.25V28.7212Z" fill="#D94407"/>
<path d="M47.75 34.7212H52.25C52.8467 34.7212 53.419 34.5105 53.841 34.1354C54.2629 33.7603 54.5 33.2516 54.5 32.7212V28.7212C54.5 28.1908 54.2629 27.6821 53.841 27.307C53.419 26.9319 52.8467 26.7212 52.25 26.7212H47.75C47.1533 26.7212 46.581 26.9319 46.159 27.307C45.7371 27.6821 45.5 28.1908 45.5 28.7212V32.7212C45.5 33.2516 45.7371 33.7603 46.159 34.1354C46.581 34.5105 47.1533 34.7212 47.75 34.7212ZM47.75 28.7212H52.25V32.7212H47.75V28.7212Z" fill="#D94407"/>
<path d="M58.25 34.7212H61.75C62.2141 34.7212 62.6592 34.5105 62.9874 34.1354C63.3156 33.7603 63.5 33.2516 63.5 32.7212V28.7212C63.5 28.1908 63.3156 27.6821 62.9874 27.307C62.6592 26.9319 62.2141 26.7212 61.75 26.7212H58.25C57.7859 26.7212 57.3408 26.9319 57.0126 27.307C56.6844 27.6821 56.5 28.1908 56.5 28.7212V32.7212C56.5 33.2516 56.6844 33.7603 57.0126 34.1354C57.3408 34.5105 57.7859 34.7212 58.25 34.7212ZM58.25 28.7212H61.75V32.7212H58.25V28.7212Z" fill="#D94407"/>
<path d="M38.25 42.7212H41.75C42.2141 42.7212 42.6592 42.5632 42.9874 42.2819C43.3156 42.0005 43.5 41.619 43.5 41.2212V38.2212C43.5 37.8234 43.3156 37.4418 42.9874 37.1605C42.6592 36.8792 42.2141 36.7212 41.75 36.7212H38.25C37.7859 36.7212 37.3408 36.8792 37.0126 37.1605C36.6844 37.4418 36.5 37.8234 36.5 38.2212V41.2212C36.5 41.619 36.6844 42.0005 37.0126 42.2819C37.3408 42.5632 37.7859 42.7212 38.25 42.7212ZM38.25 38.2212H41.75V41.2212H38.25V38.2212Z" fill="#D94407"/>
<path d="M47.75 42.7212H52.25C52.8467 42.7212 53.419 42.5632 53.841 42.2819C54.2629 42.0005 54.5 41.619 54.5 41.2212V38.2212C54.5 37.8234 54.2629 37.4418 53.841 37.1605C53.419 36.8792 52.8467 36.7212 52.25 36.7212H47.75C47.1533 36.7212 46.581 36.8792 46.159 37.1605C45.7371 37.4418 45.5 37.8234 45.5 38.2212V41.2212C45.5 41.619 45.7371 42.0005 46.159 42.2819C46.581 42.5632 47.1533 42.7212 47.75 42.7212ZM47.75 38.2212H52.25V41.2212H47.75V38.2212Z" fill="#D94407"/>
<path d="M38.25 52.7212H41.75C42.2141 52.7212 42.6592 52.5105 42.9874 52.1354C43.3156 51.7603 43.5 51.2516 43.5 50.7212V46.7212C43.5 46.1908 43.3156 45.6821 42.9874 45.307C42.6592 44.9319 42.2141 44.7212 41.75 44.7212H38.25C37.7859 44.7212 37.3408 44.9319 37.0126 45.307C36.6844 45.6821 36.5 46.1908 36.5 46.7212V50.7212C36.5 51.2516 36.6844 51.7603 37.0126 52.1354C37.3408 52.5105 37.7859 52.7212 38.25 52.7212ZM38.25 46.7212H41.75V50.7212H38.25V46.7212Z" fill="#D94407"/>
<path d="M38.25 62.7212H41.75C42.2141 62.7212 42.6592 62.5105 42.9874 62.1354C43.3156 61.7603 43.5 61.2516 43.5 60.7212V56.7212C43.5 56.1908 43.3156 55.682 42.9874 55.307C42.6592 54.9319 42.2141 54.7212 41.75 54.7212H38.25C37.7859 54.7212 37.3408 54.9319 37.0126 55.307C36.6844 55.682 36.5 56.1908 36.5 56.7212V60.7212C36.5 61.2516 36.6844 61.7603 37.0126 62.1354C37.3408 62.5105 37.7859 62.7212 38.25 62.7212ZM38.25 56.7212H41.75V60.7212H38.25V56.7212Z" fill="#D94407"/>
<path d="M64.5 46.7212C62.72 46.7212 60.9799 47.249 59.4999 48.238C58.0198 49.2269 56.8663 50.6325 56.1851 52.277C55.5039 53.9216 55.3257 55.7312 55.6729 57.477C56.0202 59.2228 56.8774 60.8265 58.136 62.0851C59.3947 63.3438 60.9984 64.201 62.7442 64.5483C64.49 64.8955 66.2996 64.7173 67.9442 64.0361C69.5887 63.3549 70.9943 62.2014 71.9832 60.7213C72.9722 59.2413 73.5 57.5012 73.5 55.7212C73.4974 53.335 72.5483 51.0474 70.8611 49.3601C69.1738 47.6729 66.8861 46.7238 64.5 46.7212ZM64.5 62.9212C63.076 62.9212 61.6839 62.4989 60.4999 61.7078C59.3159 60.9166 58.393 59.7921 57.8481 58.4765C57.3031 57.1609 57.1605 55.7132 57.4383 54.3165C57.7162 52.9199 58.4019 51.637 59.4088 50.63C60.4158 49.6231 61.6987 48.9373 63.0954 48.6595C64.492 48.3817 65.9397 48.5243 67.2553 49.0693C68.5709 49.6142 69.6954 50.5371 70.4866 51.7211C71.2777 52.9051 71.7 54.2972 71.7 55.7212C71.6979 57.6301 70.9386 59.4602 69.5888 60.81C68.239 62.1598 66.4089 62.919 64.5 62.9212Z" fill="#D94407"/>
</svg>
