<svg xmlns="http://www.w3.org/2000/svg"  viewBox="0 0 42 54" fill="none">
  <path d="M39.3228 0.729492H2.67726C1.3291 0.729492 0.232361 1.82633 0.232361 3.1744V51.4798C0.232361 52.828 1.3292 53.9247 2.67726 53.9247H39.3228C40.6709 53.9247 41.7677 52.8279 41.7677 51.4798V3.1744C41.7677 1.82633 40.6709 0.729492 39.3228 0.729492ZM40.2092 51.4798C40.2092 51.9687 39.8115 52.3663 39.3228 52.3663H2.67726C2.18843 52.3663 1.79082 51.9686 1.79082 51.4798V3.1744C1.79082 2.68556 2.18853 2.28795 2.67726 2.28795H39.3228C39.8116 2.28795 40.2092 2.68566 40.2092 3.1744V51.4798Z" fill="#D94407"/>
  <path d="M12.6715 4.89404H6.00873C5.11979 4.89404 4.39667 5.61717 4.39667 6.50611V13.1689C4.39667 14.0579 5.11979 14.781 6.00873 14.781H12.6715C13.5605 14.781 14.2836 14.0579 14.2836 13.1689V6.50611C14.2836 5.61717 13.5605 4.89404 12.6715 4.89404ZM12.6715 13.2225H6.00873C5.97912 13.2225 5.95512 13.1985 5.95512 13.1689V6.50611C5.95512 6.4765 5.97912 6.4525 6.00873 6.4525H12.4561L9.34019 9.56837L8.22548 8.45366C7.92117 8.14924 7.42776 8.14934 7.12355 8.45366C6.81923 8.75797 6.81923 9.25138 7.12355 9.55559L8.78933 11.2213C8.94143 11.3734 9.14092 11.4495 9.34029 11.4495C9.53967 11.4495 9.73915 11.3735 9.89126 11.2213L12.7253 8.38727V13.1688C12.7252 13.1984 12.7012 13.2225 12.6715 13.2225Z" fill="#D94407"/>
  <path d="M8.22537 20.1133C7.92106 19.8089 7.42765 19.809 7.12344 20.1133C6.81913 20.4176 6.81913 20.911 7.12344 21.2153L8.78922 22.8809C8.94133 23.033 9.14081 23.1092 9.34019 23.1092C9.53957 23.1092 9.73905 23.0331 9.89116 22.8809L14.0552 18.7168C14.1963 18.5759 14.2836 18.3809 14.2836 18.1658C14.2836 17.2768 13.5605 16.5537 12.6715 16.5537H6.00873C5.11979 16.5537 4.39667 17.2768 4.39667 18.1658V24.8286C4.39667 25.7175 5.11979 26.4407 6.00873 26.4407H12.6715C13.5605 26.4407 14.2836 25.7175 14.2836 24.8286V23.1629C14.2836 22.7326 13.9347 22.3837 13.5044 22.3837C13.074 22.3837 12.7252 22.7326 12.7252 23.1629V24.8286C12.7252 24.8582 12.7012 24.8822 12.6715 24.8822H6.00873C5.97912 24.8822 5.95512 24.8582 5.95512 24.8286V18.1658C5.95512 18.1362 5.97912 18.1122 6.00873 18.1122H12.4561L9.34019 21.228L8.22537 20.1133Z" fill="#D94407"/>
  <path d="M12.6715 28.2134H6.00873C5.11979 28.2134 4.39667 28.9365 4.39667 29.8254V36.4883C4.39667 37.3772 5.11979 38.1003 6.00873 38.1003H12.6715C13.5605 38.1003 14.2836 37.3772 14.2836 36.4883V29.8254C14.2836 28.9366 13.5605 28.2134 12.6715 28.2134ZM12.6715 36.5419H6.00873C5.97912 36.5419 5.95512 36.5179 5.95512 36.4883V29.8254C5.95512 29.7958 5.97912 29.7718 6.00873 29.7718H12.4561L9.34019 32.8877L8.22548 31.773C7.92117 31.4686 7.42776 31.4687 7.12355 31.773C6.81923 32.0773 6.81923 32.5707 7.12355 32.8749L8.78933 34.5406C8.94143 34.6927 9.14092 34.7689 9.34029 34.7689C9.53967 34.7689 9.73915 34.6928 9.89126 34.5406L12.7253 31.7066V36.4881C12.7252 36.5179 12.7012 36.5419 12.6715 36.5419Z" fill="#D94407"/>
  <path d="M17.6687 8.11803H27.6629C28.0932 8.11803 28.4421 7.76914 28.4421 7.3388C28.4421 6.90846 28.0932 6.55957 27.6629 6.55957H17.6687C17.2384 6.55957 16.8895 6.90846 16.8895 7.3388C16.8895 7.76914 17.2382 8.11803 17.6687 8.11803Z" fill="#D94407"/>
  <path d="M35.9914 9.89111H17.6687C17.2384 9.89111 16.8895 10.24 16.8895 10.6703C16.8895 11.1007 17.2384 11.4496 17.6687 11.4496H35.9914C36.4218 11.4496 36.7707 11.1007 36.7707 10.6703C36.7707 10.24 36.4218 9.89111 35.9914 9.89111Z" fill="#D94407"/>
  <path d="M17.6687 20.6107H27.6629C28.0932 20.6107 28.4421 20.2618 28.4421 19.8315C28.4421 19.4011 28.0932 19.0522 27.6629 19.0522H17.6687C17.2384 19.0522 16.8895 19.4011 16.8895 19.8315C16.8895 20.2618 17.2382 20.6107 17.6687 20.6107Z" fill="#D94407"/>
  <path d="M35.9914 22.3838H17.6687C17.2384 22.3838 16.8895 22.7327 16.8895 23.163C16.8895 23.5934 17.2384 23.9422 17.6687 23.9422H35.9914C36.4218 23.9422 36.7707 23.5934 36.7707 23.163C36.7707 22.7327 36.4218 22.3838 35.9914 22.3838Z" fill="#D94407"/>
  <path d="M17.6687 32.2709H27.6629C28.0932 32.2709 28.4421 31.922 28.4421 31.4916C28.4421 31.0613 28.0932 30.7124 27.6629 30.7124H17.6687C17.2384 30.7124 16.8895 31.0613 16.8895 31.4916C16.8895 31.922 17.2382 32.2709 17.6687 32.2709Z" fill="#D94407"/>
  <path d="M35.9914 34.0435H17.6687C17.2384 34.0435 16.8895 34.3923 16.8895 34.8227C16.8895 35.253 17.2384 35.6019 17.6687 35.6019H35.9914C36.4218 35.6019 36.7707 35.253 36.7707 34.8227C36.7707 34.3923 36.4218 34.0435 35.9914 34.0435Z" fill="#D94407"/>
  <path d="M17.6687 44.7635H27.6629C28.0932 44.7635 28.4421 44.4146 28.4421 43.9843C28.4421 43.554 28.0932 43.2051 27.6629 43.2051H17.6687C17.2384 43.2051 16.8895 43.554 16.8895 43.9843C16.8895 44.4146 17.2382 44.7635 17.6687 44.7635Z" fill="#D94407"/>
  <path d="M35.9914 46.5361H17.6687C17.2384 46.5361 16.8895 46.885 16.8895 47.3154C16.8895 47.7457 17.2384 48.0946 17.6687 48.0946H35.9914C36.4218 48.0946 36.7707 47.7457 36.7707 47.3154C36.7707 46.885 36.4218 46.5361 35.9914 46.5361Z" fill="#D94407"/>
  <path d="M6.00861 41.432H12.6714C12.701 41.432 12.725 41.456 12.725 41.4856C12.725 41.9159 13.0739 42.2648 13.5043 42.2648C13.9346 42.2648 14.2835 41.9159 14.2835 41.4856C14.2835 40.5967 13.5604 39.8735 12.6714 39.8735H6.00861C5.11967 39.8735 4.39655 40.5967 4.39655 41.4856V48.1484C4.39655 49.0374 5.11967 49.7605 6.00861 49.7605H12.6714C13.5604 49.7605 14.2835 49.0374 14.2835 48.1484V44.8171C14.2835 44.3867 13.9346 44.0378 13.5043 44.0378C13.0739 44.0378 12.725 44.3867 12.725 44.8171V48.1484C12.725 48.178 12.701 48.202 12.6714 48.202H6.00861C5.979 48.202 5.955 48.178 5.955 48.1484V41.4856C5.955 41.4561 5.9791 41.432 6.00861 41.432Z" fill="#D94407"/>
</svg>