<svg xmlns="http://www.w3.org/2000/svg"  viewBox="0 0 60 45" fill="none">
  <path d="M12.3001 10.3271C12.9001 10.4271 13.4001 10.0271 13.4001 9.42715L13.5001 7.72711C13.6 6.92707 14.2 6.32707 15.0001 6.32707H20.9001C21.7001 6.32707 22.4001 6.92707 22.4001 7.72711L22.5001 9.42715C22.5001 9.92719 23.0001 10.3271 23.5 10.3271C24.1 10.3271 24.5 9.82711 24.5 9.32719L24.4 7.62715C24.3001 5.72719 22.7 4.32715 20.9 4.32715H15.0001C13.2001 4.32715 11.7001 5.72719 11.5 7.52719L11.4001 9.22723C11.3001 9.82711 11.7001 10.3271 12.3001 10.3271Z" fill="#D94407"/>
  <path d="M37.2999 10.3271C37.8999 10.4271 38.3999 10.0271 38.3999 9.42715L38.4999 7.72711C38.5999 6.92707 39.1999 6.32707 39.9999 6.32707H45.8999C46.7 6.32707 47.4 6.92707 47.4 7.72711L47.4999 9.42715C47.4999 9.92719 47.9999 10.3271 48.4999 10.3271C49.0999 10.3271 49.4998 9.82711 49.4998 9.32719L49.3999 7.62715C49.2999 5.72719 47.6998 4.32715 45.8998 4.32715H39.9998C38.1998 4.32715 36.6998 5.72719 36.4998 7.52719L36.3998 9.22723C36.2999 9.82711 36.6999 10.3271 37.2999 10.3271Z" fill="#D94407"/>
  <path d="M58 16.3273H53.9522L53.4 5.92731C53.2 2.82734 50.6 0.327266 47.4 0.327266H38.7C35.6 0.327266 32.9 2.72727 32.7 5.82723C32.4307 9.14797 32.081 13.5147 31.8676 16.3272H28.9443L28.3 5.92719C28.0999 2.82723 25.5 0.327148 22.3 0.327148H13.6C10.5 0.327148 7.89996 2.72715 7.59996 5.82711C7.42043 9.14785 7.08 13.5146 6.86742 16.3271H2.00004C0.9 16.3273 0 17.2273 0 18.3274V20.3274C0 21.0634 0.403945 21.7081 0.999961 22.0555V27.3275C0.999961 29.0275 2.29992 30.3275 3.99996 30.3275H4.99992V31.3275C4.99992 33.1825 6.27973 34.7531 7.99992 35.2V41.3275C7.99992 43.0276 9.29988 44.3275 10.9999 44.3275C12.7 44.3275 13.9999 43.0276 13.9999 41.3275V35.3275H22V41.3275C22 43.0276 23.2999 44.3275 25 44.3275C26.7 44.3275 28 43.0276 28 41.3275V35.3275H30H32V41.3275C32 43.0276 33.3 44.3275 35 44.3275C36.7001 44.3275 38 43.0276 38 41.3275V35.3275H46.0001V41.3275C46.0001 43.0276 47.3 44.3275 49.0001 44.3275C50.7001 44.3275 52.0001 43.0276 52.0001 41.3275V35.2C53.7203 34.7531 55.0001 33.1825 55.0001 31.3275V30.3275H56C57.7001 30.3275 59 29.0275 59 27.3275V22.0555C59.5961 21.7082 60 21.0634 60 20.3274V18.3274C60 17.2273 59.1 16.3273 58 16.3273ZM58 20.3273H52V18.3273H52.9999H58V20.3273ZM34.6 6.02738C34.8 3.92738 36.4999 2.32742 38.5999 2.32742H47.2999C49.3999 2.32742 51.1999 4.02746 51.2999 6.12746L51.8999 16.3275C50.8999 16.3275 49.9999 17.2275 49.9999 18.3275V20.3275C49.9999 20.3839 50.0034 20.4402 50.0085 20.4964C50.0106 20.5211 50.0133 20.5456 50.0162 20.5701C50.019 20.5919 50.0227 20.6136 50.0263 20.6353C50.1211 21.2408 50.4888 21.7577 50.9999 22.0555V25.3273H34V22.0554C34.5111 21.7576 34.8787 21.2407 34.9736 20.6352C34.9771 20.6135 34.9807 20.5918 34.9836 20.57C34.9867 20.5455 34.9893 20.521 34.9914 20.4963C34.9964 20.4402 34.9999 20.3838 34.9999 20.3274V18.3274C34.9999 18.2681 34.9963 18.2096 34.991 18.1515C34.9887 18.1254 34.9853 18.0996 34.9819 18.0738C34.9784 18.0479 34.9745 18.022 34.9699 17.9964C34.8567 17.3253 34.4079 16.7653 33.802 16.4976C34.0021 13.6963 34.301 9.31578 34.6 6.02738ZM30 28.3273H29C28.4 28.3273 28.0001 27.9274 28.0001 27.3274V26.3274V22.3273H32V26.3273V27.3273C32 27.9273 31.6001 28.3272 31.0001 28.3272H30V28.3273ZM32.8 18.3274H33V20.3274H27V18.3274H28H32.8ZM9.6 6.02738C9.80004 3.92738 11.5 2.32742 13.6 2.32742H22.3C24.4 2.32742 26.2 4.02746 26.2999 6.12746L26.8999 16.3275C25.9 16.3275 25 17.2275 25 18.3275V20.3275C25 20.3839 25.0035 20.4402 25.0085 20.4964C25.0106 20.5211 25.0133 20.5456 25.0163 20.5701C25.0191 20.5919 25.0227 20.6136 25.0263 20.6353C25.1211 21.2408 25.4889 21.7577 25.9999 22.0555V25.3273H9V22.0554C9.51117 21.7576 9.87879 21.2407 9.97359 20.6352C9.97711 20.6135 9.98074 20.5918 9.98367 20.57C9.98672 20.5455 9.9893 20.521 9.99141 20.4963C9.99645 20.4402 9.99996 20.3838 9.99996 20.3274V18.3274C9.99996 18.2681 9.99633 18.2096 9.99106 18.1515C9.98871 18.1254 9.98531 18.0996 9.98191 18.0738C9.9784 18.0479 9.97453 18.022 9.96996 17.9964C9.85676 17.3257 9.4084 16.766 8.80301 16.4981C9.10207 13.6967 9.40066 9.31602 9.6 6.02738ZM2.00004 18.3274H7.8H8.00004V20.3274H2.00004V18.3274ZM3 27.3274V22.3273H6.99996V26.3273V27.3273C6.99996 27.9273 6.6 28.3272 6 28.3272H3.99996C3.39996 28.3273 3 27.9274 3 27.3274ZM6.99996 31.3273V30.1661C8.10891 29.7939 8.89418 28.8097 8.98934 27.58C8.99004 27.5713 8.99062 27.5626 8.99121 27.5538C8.99637 27.4791 8.99988 27.4038 8.99988 27.3274H25.9999C25.9999 29.0274 27.2999 30.3274 28.9999 30.3274V33.3274H27H23H13.0001H9C7.89996 33.3274 6.99996 32.4274 6.99996 31.3273ZM12 41.3273C12 41.9273 11.6 42.3273 11 42.3273C10.4 42.3273 10.0001 41.9273 10.0001 41.3273V35.3273H12V41.3273ZM26 41.3273C26 41.9273 25.6001 42.3273 25.0001 42.3273C24.4001 42.3273 24.0001 41.9273 24.0001 41.3273V35.3273H26.0002L26 41.3273ZM36 41.3273C36 41.9273 35.6 42.3273 35 42.3273C34.4 42.3273 34.0001 41.9273 34.0001 41.3273V35.3273H36V41.3273ZM50 41.3273C50 41.9273 49.6001 42.3273 49.0001 42.3273C48.4001 42.3273 48.0001 41.9273 48.0001 41.3273V35.3273H50.0002V41.3273H50ZM51 33.3274H47H37.0001H33H31V30.3274C32.7 30.3274 34 29.0274 34 27.3274H51C51 27.4038 51.0035 27.479 51.0087 27.5538C51.0093 27.5626 51.0098 27.5714 51.0105 27.58C51.1057 28.8097 51.891 29.7939 52.9999 30.1661V31.3273C53 32.4274 52.1 33.3274 51 33.3274ZM57 27.3274C57 27.9274 56.6 28.3273 56 28.3273H54C53.4 28.3273 53 27.9274 53 27.3274V26.3274V22.3273H57V27.3274Z" fill="#D94407"/>
</svg>