<svg  viewBox="0 0 100 101" fill="none" xmlns="http://www.w3.org/2000/svg">
<rect y="0.327148" width="100" height="100" rx="50" />
<path d="M71.252 31.5138L50.2997 25.2281C50.1027 25.1694 49.8953 25.1694 49.6983 25.2281L28.7459 31.5138C28.3038 31.6458 28 32.0543 28 32.5174V55.5651C28 64.8302 42.1261 73.0708 49.6899 75.4237C49.7905 75.4551 49.8953 75.4698 50 75.4698C50.1047 75.4698 50.2095 75.4551 50.3101 75.4237C57.8739 73.0686 72 64.8301 72 55.565V32.5174C72 32.0543 71.6962 31.6478 71.252 31.5138ZM69.9048 55.565C69.9048 62.9213 58.249 70.657 50 73.3242C41.7511 70.657 30.0952 62.9213 30.0952 55.565V33.2969L50 27.3254L69.9048 33.2969V55.565Z" fill="#D94407"/>
<path d="M62.7197 42.2925C62.3459 41.9025 61.7383 41.9025 61.3645 42.2925L48.6259 55.5857L41.6355 48.2931C41.2617 47.903 40.6541 47.903 40.2803 48.2931C39.9066 48.6831 39.9066 49.3172 40.2803 49.7072L47.9473 57.7079C48.1351 57.9019 48.3804 58 48.6258 58C48.8712 58 49.1164 57.902 49.3024 57.7079L62.7196 43.7067C63.0935 43.3166 63.0935 42.6826 62.7197 42.2925Z" fill="#D94407"/>
</svg>
