<svg xmlns="http://www.w3.org/2000/svg" width="30" height="12" viewBox="0 0 43 14" fill="none">
  <path d="M2.68349 0.144721L0.569458 5.05996H1.9458L2.33587 4.0757H4.60351L4.99155 5.05996H6.39821L4.2862 0.144721H2.68349ZM3.46565 1.28864L4.15685 3.00858H2.77242L3.46565 1.28864Z" />
  <path d="M6.54378 5.05879V0.143555L8.49964 0.15082L9.63724 3.31985L10.7476 0.143555H12.6878V5.05879H11.459V1.43704L10.1564 5.05879H9.07878L7.77259 1.43704V5.05879H6.54378Z" />
  <path d="M13.5296 5.05883V0.143555H17.5394V1.24303H14.7713V2.0838H17.4747V3.11859H14.7713V3.9917H17.5394V5.05883H13.5296Z" />
  <path d="M18.2498 0.144721V5.06H19.4786V3.31378H19.996L21.4693 5.06H22.971L21.3541 3.24911C22.0177 3.19312 22.7022 2.62358 22.7022 1.73936C22.7022 0.705015 21.8904 0.144721 20.9843 0.144721H18.2498ZM19.4786 1.24419H20.8832C21.2202 1.24419 21.4653 1.50777 21.4653 1.76159C21.4653 2.08814 21.1477 2.27899 20.9014 2.27899H19.4786V1.24419Z" />
  <path d="M24.4603 5.05883H23.2056V0.143555H24.4603V5.05883Z" />
  <path d="M27.435 5.05883H27.1642C25.8538 5.05883 25.0582 4.02647 25.0582 2.62141C25.0582 1.18163 25.8449 0.143555 27.4997 0.143555H28.8579V1.3077H27.45C26.7783 1.3077 26.3032 1.83193 26.3032 2.63353C26.3032 3.58543 26.8464 3.98524 27.629 3.98524H27.9524L27.435 5.05883Z" />
  <path d="M30.1098 0.144721L27.9958 5.05996H29.3721L29.7622 4.0757H32.0298L32.4179 5.05996H33.8246L31.7125 0.144721H30.1098ZM30.892 1.28864L31.5832 3.00858H30.1988L30.892 1.28864Z" />
  <path d="M33.9666 5.05883V0.143555H35.5289L37.5237 3.23178V0.143555H38.7525V5.05883H37.2408L35.1954 1.88977V5.05883H33.9666Z" />
  <path d="M9.51985 13.66V8.74472H13.5297V9.84419H10.7616V10.685H13.465V11.7198H10.7616V12.5929H13.5297V13.66H9.51985Z" />
  <path d="M29.1671 13.66V8.74472H33.1769V9.84419H30.4088V10.685H33.0993V11.7198H30.4088V12.5929H33.1769V13.66H29.1671Z" />
  <path d="M13.6857 13.66L15.6381 11.2327L13.6392 8.74472H15.1874L16.3778 10.2828L17.5722 8.74472H19.0597L17.0872 11.2023L19.0431 13.66H17.4952L16.3394 12.1462L15.2116 13.66H13.6857Z" />
  <path d="M19.1877 8.7453V13.6606H20.4489V12.1084H21.7424C22.8369 12.1084 23.6665 11.5277 23.6665 10.3985C23.6665 9.46313 23.0158 8.7453 21.902 8.7453H19.1877ZM20.4489 9.8569H21.8111C22.1647 9.8569 22.4174 10.0736 22.4174 10.4228C22.4174 10.7508 22.166 10.9887 21.8071 10.9887H20.4489V9.8569Z" />
  <path d="M24.2007 8.74472V13.66H25.4296V11.9138H25.947L27.4203 13.66H28.922L27.3051 11.8491C27.9687 11.7931 28.6532 11.2236 28.6532 10.3394C28.6532 9.30501 27.8414 8.74472 26.9353 8.74472H24.2007ZM25.4296 9.84419H26.8342C27.1712 9.84419 27.4163 10.1078 27.4163 10.3616C27.4163 10.6881 27.0987 10.879 26.8524 10.879H25.4296V9.84419Z" />
  <path d="M33.747 13.66V12.5929H36.2062C36.5701 12.5929 36.7277 12.3962 36.7277 12.1806C36.7277 11.9739 36.5706 11.765 36.2062 11.765H35.0949C34.1289 11.765 33.591 11.1765 33.591 10.2929C33.591 9.50475 34.0836 8.74472 35.5191 8.74472H37.912L37.3946 9.85066H35.3251C34.9294 9.85066 34.8077 10.0583 34.8077 10.2565C34.8077 10.4603 34.9581 10.685 35.2604 10.685H36.4245C37.5014 10.685 37.9686 11.2958 37.9686 12.0957C37.9686 12.9556 37.4479 13.66 36.3659 13.66H33.747Z" />
  <path d="M38.256 13.66V12.5929H40.7153C41.0792 12.5929 41.2367 12.3962 41.2367 12.1806C41.2367 11.9739 41.0797 11.765 40.7153 11.765H39.604C38.638 11.765 38.1 11.1765 38.1 10.2929C38.1 9.50475 38.5927 8.74472 40.0281 8.74472H42.3722L41.9037 9.85066H39.8341C39.4385 9.85066 39.3167 10.0583 39.3167 10.2565C39.3167 10.4603 39.4672 10.685 39.7694 10.685H40.9336C42.0104 10.685 42.4777 11.2958 42.4777 12.0957C42.4777 12.9556 41.957 13.66 40.8749 13.66H38.256Z" />
</svg>