<svg width="30" height="13" viewBox="0 0 30 13" fill="none" xmlns="http://www.w3.org/2000/svg">
<path fill-rule="evenodd" clip-rule="evenodd" d="M3.89397 2.25014C4.44114 2.2963 4.98831 1.9732 5.33029 1.56356C5.66657 1.14238 5.88886 0.576959 5.83187 0C5.34739 0.0230783 4.74892 0.323097 4.40694 0.744277C4.09346 1.10776 3.82557 1.69626 3.89397 2.25014ZM10.406 9.68035V0.686605H13.7403C15.4616 0.686605 16.6642 1.88654 16.6642 3.64029C16.6642 5.39404 15.4388 6.60552 13.6947 6.60552H11.7853V9.68035H10.406ZM5.82744 2.36008C5.3454 2.332 4.90555 2.50681 4.55027 2.64801C4.32164 2.73888 4.12804 2.81582 3.98074 2.81582C3.81545 2.81582 3.61385 2.73476 3.3875 2.64375C3.09091 2.52449 2.75182 2.38815 2.39623 2.39469C1.58117 2.40623 0.823113 2.87351 0.407035 3.6177C-0.447919 5.10609 0.184747 7.30981 1.0112 8.52129C1.41588 9.12125 1.90035 9.77891 2.53872 9.75583C2.81956 9.74511 3.02158 9.65834 3.23066 9.56855C3.47136 9.46517 3.72141 9.35778 4.11184 9.35778C4.48873 9.35778 4.72784 9.46237 4.95738 9.56277C5.17562 9.65824 5.38521 9.74992 5.69635 9.7443C6.35752 9.73276 6.77359 9.14433 7.17827 8.54436C7.61498 7.90043 7.8069 7.27199 7.83602 7.17662L7.83944 7.16559C7.83874 7.16488 7.83334 7.16238 7.82382 7.15797C7.67783 7.09032 6.56201 6.57329 6.55131 5.18685C6.54056 4.02313 7.43635 3.43352 7.57736 3.3407C7.58595 3.33505 7.59173 3.33124 7.59435 3.32926C7.02438 2.47546 6.13523 2.38316 5.82744 2.36008ZM19.1815 9.74893C20.0479 9.74893 20.8515 9.30472 21.2163 8.60091H21.2448V9.6797H22.5215V5.20302C22.5215 3.90501 21.4956 3.06852 19.9168 3.06852C18.4519 3.06852 17.369 3.91655 17.3291 5.08187H18.5716C18.6742 4.52806 19.1815 4.16461 19.8769 4.16461C20.7204 4.16461 21.1935 4.56267 21.1935 5.29532V5.79145L19.4722 5.89529C17.8706 5.99336 17.0042 6.65679 17.0042 7.81057C17.0042 8.97589 17.8991 9.74893 19.1815 9.74893ZM19.5533 8.68227C18.8181 8.68227 18.3507 8.32456 18.3507 7.77645C18.3507 7.21103 18.801 6.88216 19.6616 6.83024L21.1949 6.73215V7.23988C21.1949 8.08224 20.4881 8.68227 19.5533 8.68227ZM26.7567 10.0328C26.2038 11.6077 25.5712 12.1269 24.226 12.1269C24.1234 12.1269 23.7815 12.1154 23.7017 12.0923V11.0135C23.7872 11.025 23.9981 11.0366 24.1064 11.0366C24.7162 11.0366 25.0582 10.777 25.2691 10.102L25.3945 9.70395L23.0576 3.15623H24.4996L26.124 8.46941H26.1525L27.777 3.15623H29.1791L26.7567 10.0328ZM11.7826 1.86319H13.3729C14.5698 1.86319 15.2538 2.50938 15.2538 3.64599C15.2538 4.7826 14.5698 5.43456 13.3672 5.43456H11.7826V1.86319Z" fill="black"/>
</svg>
