<svg xmlns="http://www.w3.org/2000/svg" width="30" height="12" viewBox="0 0 31 13" fill="none">
<g id="Vector">
<path fill-rule="evenodd" clip-rule="evenodd" d="M14.1766 10.1869V6.58578H16.0354C16.7971 6.58578 17.44 6.33059 17.9641 5.82729L18.0898 5.69969C19.0472 4.65764 18.9843 3.03432 17.9641 2.07025C17.4539 1.55986 16.7551 1.2834 16.0354 1.29757H13.0515V10.1869H14.1766ZM14.1767 5.49448V2.38925H16.0638C16.4692 2.38925 16.8536 2.54522 17.1401 2.8288C17.7482 3.42433 17.7621 4.41687 17.1751 5.03366C16.8885 5.33851 16.4831 5.50866 16.0638 5.49448H14.1767Z" />
<path fill-rule="evenodd" clip-rule="evenodd" d="M23.3549 4.57968C22.8727 4.13309 22.2159 3.90624 21.3843 3.90624C20.3151 3.90624 19.5115 4.30322 18.9804 5.09007L19.9727 5.72097C20.3361 5.18222 20.8322 4.91285 21.4612 4.91285C21.8595 4.91285 22.2438 5.06171 22.5443 5.33108C22.8378 5.58628 23.0055 5.9549 23.0055 6.34478V6.60706C22.5722 6.36604 22.0272 6.23845 21.3563 6.23845C20.5737 6.23845 19.9448 6.42275 19.4766 6.79846C19.0084 7.17416 18.7708 7.67037 18.7708 8.30127C18.7568 8.87546 19.0014 9.4213 19.4346 9.78991C19.8749 10.1869 20.4339 10.3854 21.0908 10.3854C21.8665 10.3854 22.4814 10.038 22.9496 9.34332H22.9985V10.1869H24.0747V6.43693C24.0747 5.65008 23.8371 5.02627 23.3549 4.57968ZM20.3013 9.06707C20.0707 8.89692 19.9309 8.62043 19.9309 8.32267C19.9309 7.98946 20.0847 7.71297 20.3852 7.49319C20.6927 7.27341 21.0771 7.15998 21.5314 7.15998C22.1604 7.15289 22.6497 7.29468 22.9991 7.57826C22.9991 8.06035 22.8104 8.47864 22.44 8.83312C22.1045 9.17342 21.6502 9.36484 21.175 9.36484C20.8605 9.37193 20.553 9.26558 20.3013 9.06707Z" />
<path d="M26.3039 12.8594L30.0635 4.10475H28.8406L27.1005 8.47142H27.0796L25.2976 4.10475H24.0747L26.5415 9.79702L25.1439 12.8594H26.3039Z" />
<path d="M10.3955 6.16306C10.3955 5.81567 10.3675 5.46828 10.3116 5.12798H5.56675V7.09179H8.28508C8.17327 7.72276 7.8099 8.28993 7.27881 8.64441V9.92053H8.90003C9.85039 9.03434 10.3955 7.72276 10.3955 6.16306Z" />
<path d="M5.56697 11.1539C6.92264 11.1539 8.06845 10.7004 8.90003 9.92053L7.27881 8.64441C6.82459 8.95635 6.2448 9.13337 5.56697 9.13337C4.25323 9.13337 3.14213 8.233 2.74382 7.02777H1.07369V8.34643C1.92622 10.0692 3.66623 11.1539 5.56697 11.1539Z" />
<path d="M2.74382 7.02777C2.53415 6.3968 2.53432 5.7095 2.744 5.07144V3.75987H1.0736C0.353722 5.19905 0.353722 6.90055 1.0736 8.33973L2.74382 7.02777Z" />
<path d="M5.56697 2.96615C6.28673 2.95197 6.97854 3.22846 7.49566 3.73182L8.93518 2.27137C8.01975 1.40644 6.81782 0.931442 5.56697 0.945621C3.66623 0.945621 1.92614 2.0371 1.0736 3.75987L2.74382 5.07884C3.14213 3.86653 4.25323 2.96615 5.56697 2.96615Z" />
</g>
</svg>