<svg xmlns="http://www.w3.org/2000/svg" width="30" height="16" viewBox="0 0 58 14" fill="none">
  <path fill-rule="evenodd" clip-rule="evenodd" d="M3.3504 13.1606H0.502075V0.402832H3.3504V13.1606ZM10.4615 0.402832H7.67495C7.67495 2.75059 6.62488 4.90546 4.79408 6.31524L3.69009 7.16512L7.96768 13.1611H11.4847L7.54873 7.64388C9.41444 5.73412 10.4615 3.16479 10.4615 0.402832ZM15.0046 13.1571H12.3147V0.405276H15.0046V13.1571ZM23.1317 4.33615V4.90042C22.4059 4.39144 21.5299 4.09233 20.585 4.09233C18.0843 4.09233 16.0571 6.17621 16.0571 8.74682C16.0571 11.3174 18.0843 13.4013 20.585 13.4013C21.5299 13.4013 22.4059 13.1022 23.1317 12.5934V13.1571H25.701V4.33615H23.1317ZM23.1239 8.74713C23.1239 10.0007 22.0816 11.017 20.7959 11.017C19.5102 11.017 18.4679 10.0007 18.4679 8.74713C18.4679 7.49357 19.5102 6.47755 20.7959 6.47755C22.0816 6.47755 23.1239 7.49357 23.1239 8.74713ZM50.2363 4.90042V4.33615H52.8054V13.1571H50.2363V12.5934C49.5105 13.1022 48.6344 13.4013 47.6894 13.4013C45.1887 13.4013 43.1615 11.3174 43.1615 8.74682C43.1615 6.17621 45.1887 4.09233 47.6894 4.09233C48.6344 4.09233 49.5105 4.39144 50.2363 4.90042ZM47.9003 11.017C49.1861 11.017 50.2283 10.0007 50.2283 8.74713C50.2283 7.49357 49.1861 6.47755 47.9003 6.47755C46.6146 6.47755 45.5724 7.49357 45.5724 8.74713C45.5724 10.0007 46.6146 11.017 47.9003 11.017ZM38.5961 4.0989C37.5698 4.0989 36.5985 4.42643 35.9491 5.33007V4.33667H33.391V13.1571H35.9805V8.52166C35.9805 7.18029 36.8556 6.52343 37.9092 6.52343C39.0383 6.52343 39.6874 7.21681 39.6874 8.5034V13.1571H42.2535V7.54769C42.2535 5.49493 40.6658 4.0989 38.5961 4.0989ZM29.6754 4.33631V5.48517C30.1904 4.79603 31.15 4.33682 32.1933 4.33682V6.90357C32.1885 6.90351 32.1837 6.90326 32.179 6.903C32.1737 6.90271 32.1683 6.90242 32.1628 6.90242C31.1463 6.90242 29.6812 7.6493 29.6812 9.03876V13.1571H27.0449V4.33631H29.6754ZM53.9205 11.686C53.9205 10.7705 54.6423 10.0284 55.5326 10.0284C56.423 10.0284 57.1449 10.7705 57.1449 11.686C57.1449 12.6013 56.423 13.3435 55.5326 13.3435C54.6423 13.3435 53.9205 12.6013 53.9205 11.686Z" />
</svg>