<svg xmlns="http://www.w3.org/2000/svg" width="30" height="12" viewBox="0 0 28 18" fill="none">
  <path fill-rule="evenodd" clip-rule="evenodd" d="M13.6023 15.1757C15.3935 13.675 16.5325 11.4215 16.5325 8.90198C16.5325 6.38249 15.3935 4.129 13.6023 2.62824C15.0234 1.43757 16.8551 0.720703 18.8542 0.720703C23.3731 0.720703 27.0364 4.38359 27.0364 8.90198C27.0364 13.4204 23.3731 17.0833 18.8542 17.0833C16.8551 17.0833 15.0234 16.3664 13.6023 15.1757ZM13.6023 15.1757C12.1811 16.3664 10.3495 17.0833 8.35032 17.0833C3.8314 17.0833 0.168091 13.4204 0.168091 8.90198C0.168091 4.38359 3.8314 0.720703 8.35032 0.720703C10.3495 0.720703 12.1811 1.43757 13.6023 2.62824C11.811 4.129 10.672 6.38249 10.672 8.90198C10.672 11.4215 11.811 13.675 13.6023 15.1757Z" />
</svg>