<svg width="35" height="16" viewBox="0 0 35 17" fill="none" xmlns="http://www.w3.org/2000/svg">
<g clip-path="url(#clip0_5_2)">
<path d="M1.36136 14.8277L1.3027 15.2871C1.29656 15.3363 1.30024 15.3864 1.31353 15.4342C1.32682 15.4821 1.34945 15.5268 1.38012 15.5659C1.4108 15.605 1.4489 15.6376 1.49225 15.6619C1.53559 15.6861 1.58331 15.7016 1.63266 15.7074H16.5688C16.6188 15.708 16.6685 15.6988 16.715 15.6802C16.7616 15.6617 16.804 15.6341 16.8398 15.5992C16.8757 15.5642 16.9043 15.5226 16.924 15.4766C16.9438 15.4305 16.9543 15.3811 16.9549 15.331C16.9562 15.3156 16.9562 15.3001 16.9549 15.2846L16.8938 14.8252C16.8767 14.6533 16.9283 14.4816 17.0372 14.3475C17.1462 14.2134 17.3037 14.1277 17.4755 14.1092C17.5598 14.1001 17.645 14.1076 17.7264 14.1314C17.8077 14.1552 17.8836 14.1947 17.9496 14.2478C18.0157 14.3009 18.0706 14.3665 18.1113 14.4409C18.152 14.5152 18.1776 14.5968 18.1868 14.681L18.2454 15.1282C18.3603 16.1228 17.7957 16.9976 16.779 16.9976H1.4689C0.461918 16.9976 -0.100233 16.1228 0.0146414 15.1282L0.0733006 14.681C0.0818446 14.5972 0.106846 14.516 0.146872 14.4418C0.186899 14.3677 0.241163 14.3022 0.306554 14.2491C0.371946 14.196 0.44718 14.1563 0.527945 14.1323C0.608709 14.1083 0.693416 14.1005 0.777211 14.1092C0.949235 14.1283 1.10679 14.2145 1.21569 14.349C1.32459 14.4835 1.37606 14.6555 1.35892 14.8277" fill="black"/>
<path d="M15.1219 11.3749C15.4449 11.3922 15.7616 11.2808 16.0026 11.065C16.2436 10.8493 16.3892 10.5468 16.4075 10.2239C16.4087 10.2028 16.4087 10.1816 16.4075 10.1604C16.3928 9.44933 15.7451 8.98993 15.0241 8.98749H13.565C13.4029 8.98749 13.2475 8.92313 13.1329 8.80856C13.0183 8.694 12.9539 8.53861 12.9539 8.37659C12.9539 8.21458 13.0183 8.05919 13.1329 7.94463C13.2475 7.83006 13.4029 7.7657 13.565 7.7657H14.5426C15.2001 7.73882 15.706 7.34052 15.7378 6.72229C15.7696 6.05519 15.1976 5.5567 14.5011 5.5567H12.1351V11.3651H15.1219M16.9134 6.72229C16.9145 6.97717 16.8647 7.22971 16.7669 7.4651C16.6691 7.70049 16.5253 7.91401 16.3439 8.09314L16.3073 8.13468L16.3562 8.164C16.7136 8.36268 17.0138 8.65007 17.2279 8.99846C17.4419 9.34686 17.5626 9.74451 17.5782 10.1531C17.5867 10.7983 17.3397 11.4206 16.8909 11.8844C16.4422 12.3481 15.8282 12.6156 15.183 12.6284H11.5168C11.3471 12.6259 11.1854 12.5563 11.0668 12.435C10.9482 12.3137 10.8824 12.1505 10.8837 11.9809V5.00934C10.8824 4.92383 10.8983 4.83892 10.9303 4.75962C10.9624 4.68033 11.01 4.60826 11.0704 4.54767C11.1307 4.48708 11.2027 4.4392 11.2818 4.40686C11.361 4.37451 11.4459 4.35836 11.5314 4.35935H14.5011C15.1232 4.34225 15.7268 4.57276 16.1791 5.00023C16.6314 5.4277 16.8955 6.01719 16.9134 6.63921V6.71985" fill="black"/>
<path d="M5.31843 10.2435L5.33554 10.2924L5.35264 10.2435C5.51885 9.7841 5.72171 9.26606 5.93435 8.72115C6.14699 8.17623 6.37429 7.57999 6.59182 7.04729C6.80935 6.51459 7.02199 6.02587 7.22241 5.60558C7.35434 5.2954 7.51817 4.99977 7.71123 4.72345C7.80531 4.60665 7.925 4.51307 8.06105 4.44993C8.1971 4.3868 8.34585 4.3558 8.4958 4.35935H8.64489C8.81438 4.35229 8.98082 4.40602 9.11417 4.51085C9.21653 4.59571 9.28291 4.71621 9.29992 4.84807L10.2311 12.0566C10.2349 12.1364 10.2228 12.2162 10.1956 12.2913C10.1683 12.3663 10.1264 12.4353 10.0723 12.494C9.94619 12.5995 9.78412 12.6521 9.6201 12.6407C9.45263 12.65 9.28699 12.6017 9.15083 12.5038C9.09067 12.4627 9.04008 12.4092 9.00254 12.3467C8.965 12.2843 8.94138 12.2145 8.9333 12.1422C8.90153 11.8978 8.87464 11.6363 8.84531 11.3431C8.81598 11.0499 8.65956 9.79632 8.61801 9.47621C8.57646 9.1561 8.31982 7.11571 8.22939 6.37531V6.31177L7.93121 6.93733C7.831 7.15237 7.72101 7.40894 7.60125 7.7095C7.48148 8.01006 7.35683 8.32773 7.24196 8.66494C7.12709 9.00216 6.53561 10.6345 6.53561 10.6345C6.48183 10.7835 6.37918 11.0841 6.29119 11.3675C6.2032 11.651 6.11277 11.8929 6.09077 11.9393C5.98993 12.1366 5.81485 12.2858 5.60402 12.3541C5.39319 12.4224 5.16387 12.4042 4.96647 12.3034C4.8058 12.2233 4.67482 12.094 4.59252 11.9345C4.56808 11.888 4.48498 11.6388 4.38966 11.3627C4.29433 11.0865 4.20146 10.7884 4.14524 10.6296C4.14524 10.6296 3.57087 8.98261 3.44133 8.66006C3.31179 8.3375 3.19692 8.00762 3.08204 7.70462C2.96717 7.40161 2.84985 7.14748 2.75209 6.93244L2.45146 6.31422V6.37775C2.36102 7.11083 2.10195 9.15366 2.0604 9.47866C2.01885 9.80365 1.86731 11.045 1.83309 11.3358C1.79887 11.6266 1.77199 11.8954 1.74266 12.1348C1.73458 12.2072 1.71096 12.277 1.67342 12.3394C1.63588 12.4018 1.58529 12.4554 1.52513 12.4965C1.38963 12.5939 1.22495 12.6421 1.0583 12.6333C0.895837 12.6443 0.735474 12.5917 0.611025 12.4867C0.55691 12.4279 0.515003 12.359 0.487731 12.2839C0.46046 12.2088 0.448368 12.1291 0.452156 12.0493L1.37115 4.84807C1.39247 4.72122 1.4594 4.60651 1.55935 4.52552C1.69031 4.41483 1.85718 4.35574 2.02862 4.35935H2.17771C2.32625 4.35568 2.47366 4.3859 2.60876 4.44772C2.74386 4.50953 2.86309 4.60133 2.95739 4.71611C3.15136 4.99188 3.31523 5.28761 3.44622 5.59825C3.64664 6.01854 3.85683 6.49912 4.07681 7.03996C4.29678 7.58081 4.51675 8.13876 4.73672 8.71381C4.94936 9.26606 5.14978 9.77677 5.31598 10.2362" fill="black"/>
<path d="M3.49512 6.52016e-06H14.8017C15.8673 6.52016e-06 16.3977 0.799058 16.5126 1.85469L16.5615 2.1919C16.5807 2.36646 16.5301 2.54154 16.4206 2.6789C16.3112 2.81626 16.1518 2.90473 15.9773 2.92497C15.8061 2.93854 15.6364 2.88407 15.5051 2.77336C15.3738 2.66266 15.2914 2.50466 15.2758 2.33363L15.227 2.00863C15.1805 1.60788 15.0119 1.29755 14.6037 1.29755H3.69553C3.28736 1.29755 3.11872 1.60788 3.06984 2.00863L3.02584 2.32874C3.01032 2.50004 2.92752 2.65821 2.79558 2.76859C2.66364 2.87897 2.49332 2.93257 2.32193 2.91764C2.2354 2.90792 2.15164 2.88124 2.07543 2.83913C1.99923 2.79701 1.93208 2.74029 1.87782 2.6722C1.82357 2.60411 1.78327 2.526 1.75924 2.44232C1.73521 2.35865 1.72792 2.27106 1.73778 2.18457L1.78422 1.84735C1.91132 0.794171 2.43925 -0.00732422 3.49512 -0.00732422" fill="black"/>
<path d="M23.8303 7.59954C23.7521 7.9001 23.6714 8.22265 23.5859 8.57697C23.5003 8.93129 23.4148 9.24896 23.3415 9.55441C23.2681 9.85985 23.1826 10.1384 23.0971 10.3754C23.0513 10.5441 22.9891 10.7078 22.9113 10.8642C22.8634 10.9417 22.7947 11.0043 22.7131 11.0449C22.6315 11.0855 22.5401 11.1025 22.4494 11.0939C22.3667 11.0918 22.2846 11.0795 22.2049 11.0572C22.1518 11.0411 22.1026 11.0141 22.0605 10.978C22.0184 10.9418 21.9844 10.8972 21.9605 10.8471C21.8832 10.6837 21.821 10.5136 21.7748 10.3388C21.7015 10.0944 21.6232 9.79632 21.5304 9.46644C21.4375 9.13655 21.3666 8.78957 21.286 8.42058C21.2053 8.0516 21.1271 7.7095 21.0635 7.39428C21 7.07906 20.9413 6.80782 20.8973 6.5879C20.8533 6.36798 20.8289 6.23358 20.8216 6.18715C20.8202 6.16844 20.8202 6.14966 20.8216 6.13095V6.09918C20.8202 6.0555 20.8293 6.01212 20.848 5.97261C20.8667 5.9331 20.8945 5.8986 20.9291 5.87193C21.004 5.81272 21.0977 5.78237 21.1931 5.7864C21.2791 5.78266 21.3642 5.80479 21.4375 5.84994C21.508 5.9026 21.5553 5.98057 21.5695 6.06741C21.5695 6.06741 21.5841 6.15783 21.6135 6.31177C21.6428 6.46572 21.6843 6.64899 21.7308 6.87624C21.7772 7.10349 21.831 7.36496 21.8872 7.65086C21.9434 7.93676 22.0045 8.22754 22.0705 8.52077C22.1365 8.814 22.1976 9.09501 22.2612 9.37114C22.3247 9.64726 22.3809 9.88185 22.4371 10.0798C22.4909 9.89406 22.552 9.68147 22.618 9.442C22.684 9.20253 22.7524 8.95329 22.8184 8.70893C22.8844 8.46457 22.9455 8.19822 23.0066 7.94409C23.0677 7.68995 23.1239 7.45537 23.1777 7.23056C23.2315 7.00575 23.273 6.81759 23.3121 6.64654C23.3512 6.47549 23.3806 6.35087 23.4026 6.26779C23.4273 6.17172 23.4821 6.08609 23.559 6.02343C23.6337 5.95566 23.7296 5.91592 23.8303 5.91103C23.9379 5.90606 24.0437 5.93988 24.1285 6.00633C24.2045 6.06808 24.2564 6.15457 24.2751 6.25068C24.3411 6.51703 24.4047 6.82004 24.4755 7.15237C24.5464 7.48469 24.6222 7.81946 24.698 8.15912C24.7737 8.49878 24.8568 8.83355 24.9424 9.16099C25.0279 9.48843 25.1061 9.77677 25.1868 10.0285C25.2406 9.83053 25.3017 9.59595 25.3652 9.32227C25.4288 9.04859 25.4899 8.76513 25.5559 8.4719C25.6218 8.17867 25.6878 7.89521 25.7465 7.60932C25.8052 7.32342 25.8638 7.06684 25.9127 6.83959C25.9616 6.61233 26.0031 6.42662 26.03 6.28489C26.0569 6.14317 26.0765 6.06497 26.0765 6.06008C26.0934 5.97497 26.1402 5.89871 26.2084 5.84505C26.2815 5.79933 26.3668 5.77715 26.4529 5.78152C26.5489 5.77817 26.6431 5.80841 26.7193 5.86704C26.7535 5.8941 26.781 5.92868 26.7996 5.9681C26.8183 6.00751 26.8276 6.0507 26.8268 6.09429V6.12606C26.828 6.14559 26.828 6.16518 26.8268 6.18471C26.8268 6.22869 26.795 6.36064 26.7486 6.58545C26.7022 6.81026 26.6459 7.07417 26.5799 7.38939C26.514 7.70461 26.4382 8.04672 26.3575 8.41081C26.2769 8.7749 26.1913 9.12189 26.1131 9.45178C26.0349 9.78166 25.9567 10.0724 25.8687 10.3217C25.8229 10.495 25.7607 10.6635 25.683 10.8251C25.6336 10.9277 25.5458 11.0067 25.4385 11.045C25.3597 11.0716 25.2773 11.0865 25.1941 11.089C25.1608 11.0914 25.1273 11.0914 25.0939 11.089C25.0459 11.0822 24.9985 11.0715 24.9522 11.0572C24.8997 11.0385 24.8503 11.0122 24.8055 10.979C24.7543 10.9412 24.7138 10.8907 24.6882 10.8324C24.6168 10.6643 24.558 10.4912 24.5122 10.3144C24.4413 10.07 24.368 9.80121 24.2874 9.4982C24.2067 9.1952 24.1309 8.87265 24.0429 8.54032C23.9549 8.20799 23.8938 7.89766 23.8279 7.60932" fill="black"/>
<path d="M28.154 9.56418C28.0709 9.82808 27.9976 10.0724 27.9365 10.2973C27.8754 10.5221 27.8118 10.7053 27.758 10.8495C27.7451 10.9467 27.694 11.0348 27.6161 11.0944C27.5382 11.1539 27.4398 11.1801 27.3425 11.1672C27.2453 11.1542 27.1572 11.1032 27.0976 11.0253C27.038 10.9473 27.0118 10.849 27.0248 10.7518C27.0243 10.7152 27.0301 10.6788 27.0419 10.6442L27.1446 10.3046C27.2032 10.114 27.279 9.87695 27.3719 9.58861C27.4647 9.30027 27.5698 8.99238 27.6823 8.65272C27.7947 8.31306 27.912 7.97585 28.0318 7.64352C28.1515 7.31119 28.2762 7.00086 28.3886 6.71496C28.4825 6.47473 28.5927 6.24123 28.7186 6.01609C28.7542 5.93446 28.8174 5.86789 28.897 5.82794C28.9936 5.79121 29.0968 5.77458 29.2001 5.77907C29.3063 5.77687 29.4118 5.79598 29.5105 5.83527C29.5515 5.85491 29.5882 5.88253 29.6184 5.91652C29.6486 5.9505 29.6717 5.99017 29.6865 6.0332C29.7647 6.19692 29.8575 6.41929 29.9626 6.69541C30.0677 6.97154 30.1851 7.2721 30.3024 7.59465C30.4197 7.9172 30.5468 8.24464 30.6543 8.57208C30.7619 8.89952 30.8767 9.21719 30.9721 9.50553C31.0674 9.79387 31.1505 10.0407 31.2165 10.2386C31.2825 10.4365 31.3289 10.5734 31.3436 10.6345C31.3554 10.6691 31.3612 10.7054 31.3607 10.742C31.3632 10.7876 31.3555 10.8332 31.3381 10.8754C31.3208 10.9177 31.2943 10.9556 31.2605 10.9863C31.2218 11.0208 31.1765 11.0471 31.1273 11.0634C31.0781 11.0798 31.0262 11.086 30.9745 11.0816C30.8985 11.0888 30.8225 11.067 30.7619 11.0206C30.7106 10.9724 30.6727 10.9118 30.6519 10.8446C30.5957 10.7004 30.5321 10.5172 30.4564 10.2924C30.3806 10.0676 30.3024 9.82319 30.2119 9.55929H28.1466M29.9798 8.84332C29.8624 8.48656 29.7549 8.15912 29.6498 7.86589C29.5447 7.57266 29.4518 7.29164 29.3345 7.01308C29.3076 6.95199 29.2783 6.88357 29.249 6.80048C29.2196 6.7174 29.2001 6.67586 29.1952 6.6612C29.1723 6.70298 29.1542 6.74726 29.1414 6.79315C29.1096 6.88112 29.0828 6.95199 29.0534 7.01308C28.9434 7.28187 28.8383 7.56533 28.7357 7.86589C28.633 8.16645 28.5255 8.49144 28.4106 8.84332H29.9798Z" fill="black"/>
<path d="M32.7881 9.01438C32.7594 8.98571 32.7332 8.95464 32.7099 8.92152L32.6292 8.80912C32.551 8.69916 32.4703 8.56476 32.3848 8.40837C32.2992 8.25198 32.2015 8.08582 32.1111 7.91966C32.0206 7.75349 31.9326 7.56534 31.8495 7.38695C31.7664 7.20857 31.6833 7.04241 31.6173 6.89824C31.5513 6.75407 31.4878 6.6099 31.4389 6.49749C31.4022 6.41863 31.3719 6.3369 31.3485 6.25313C31.339 6.23277 31.3316 6.21148 31.3265 6.1896C31.3265 6.1896 31.3265 6.15783 31.3265 6.12851C31.3262 6.08296 31.3351 6.03782 31.3528 5.99582C31.3704 5.95383 31.3964 5.91584 31.4291 5.88415C31.4676 5.84904 31.5127 5.82206 31.5619 5.80485C31.611 5.78763 31.6631 5.78053 31.7151 5.78396C31.7594 5.77897 31.8043 5.78382 31.8466 5.79819C31.8888 5.81255 31.9274 5.83606 31.9595 5.86705C32.0025 5.91517 32.0364 5.97062 32.0597 6.03077L32.1404 6.21159C32.1819 6.30445 32.2333 6.4193 32.2919 6.55614C32.3506 6.69298 32.4215 6.84448 32.4997 7.01064C32.5779 7.17681 32.6536 7.33564 32.7441 7.49936L32.9763 7.95631C33.0392 8.07928 33.1094 8.19841 33.1865 8.31307C33.3111 8.11851 33.4245 7.91699 33.5262 7.70951C33.646 7.46515 33.7706 7.23301 33.8708 6.99598C33.971 6.75895 34.0761 6.55125 34.1592 6.37287L34.3034 6.03321C34.3276 5.97296 34.3624 5.91751 34.4061 5.86949C34.4373 5.83729 34.4758 5.81297 34.5183 5.79852C34.5608 5.78408 34.6061 5.77993 34.6505 5.78641C34.7025 5.78268 34.7547 5.78965 34.8039 5.80688C34.8531 5.82411 34.8982 5.85124 34.9365 5.88659C34.97 5.91763 34.9966 5.9555 35.0143 5.99765C35.032 6.0398 35.0405 6.08526 35.0391 6.13095C35.0417 6.15124 35.0417 6.17176 35.0391 6.19204L35.0196 6.25558L34.9242 6.49993C34.8778 6.61478 34.8192 6.74429 34.7483 6.90068C34.6774 7.05707 34.6041 7.22079 34.521 7.3894C34.4379 7.558 34.345 7.74372 34.2546 7.9221C34.1641 8.10048 34.0737 8.2642 33.9833 8.41082C33.8928 8.55743 33.8073 8.70649 33.7388 8.81401C33.692 8.8824 33.6388 8.94622 33.58 9.00461V10.7151C33.5824 10.7649 33.5745 10.8147 33.5568 10.8614C33.5392 10.908 33.5121 10.9506 33.4773 10.9864C33.4073 11.0554 33.3129 11.0942 33.2146 11.0942C33.1162 11.0942 33.0218 11.0554 32.9518 10.9864C32.9143 10.95 32.8848 10.9062 32.865 10.8579C32.8452 10.8095 32.8357 10.7576 32.837 10.7053V8.99483" fill="black"/>
</g>
<defs>
<clipPath id="clip0_5_2">
<rect width="35" height="17" fill="white"/>
</clipPath>
</defs>
</svg>
