<svg width="46" height="15" viewBox="0 0 46 15" fill="none" xmlns="http://www.w3.org/2000/svg">
<path d="M5.57923 14.8223C5.07219 14.8223 4.61502 14.517 4.42075 14.0487L0.0956347 3.60755C-0.168977 2.96869 0.13436 2.23627 0.773187 1.97158L5.30331 0.095363C5.61007 -0.0317601 5.95477 -0.0317887 6.26155 0.0952835C6.56833 0.222356 6.81204 0.466115 6.93906 0.772915L11.2642 11.2145C11.5284 11.8532 11.2251 12.5851 10.5866 12.8498L6.05651 14.7269C5.90523 14.7897 5.74305 14.8222 5.57923 14.8223ZM5.78252 0.673636C5.7066 0.67376 5.63146 0.688877 5.5614 0.718118L1.03106 2.59433C0.889445 2.65299 0.776941 2.76551 0.718302 2.90713C0.659663 3.04875 0.659695 3.20787 0.71839 3.34946L5.04351 13.7912C5.16594 14.0859 5.50371 14.2258 5.79864 14.1041L10.3288 12.2266C10.4704 12.168 10.5829 12.0554 10.6415 11.9138C10.7002 11.7722 10.7001 11.6131 10.6414 11.4715L6.31631 1.03079C6.22678 0.814903 6.01623 0.674026 5.78252 0.673636Z" fill="black"/>
<path d="M9.56723 7.6761C8.27165 8.21332 7.18988 8.95384 6.4816 9.8465L4.65546 5.43607C5.48844 4.46829 6.54871 3.72251 7.74108 3.26567C9.03666 2.72844 10.3456 2.46842 11.4576 2.61992L13.2842 7.03013C12.0108 6.93423 10.7336 7.1562 9.56723 7.6761Z" fill="black"/>
<path d="M10.1622 9.02074C8.75985 9.02074 7.47609 9.29172 6.48114 9.84485V5.38542C7.62102 4.81021 8.8859 4.52704 10.1622 4.56131C11.5646 4.56131 12.8735 4.82133 13.8431 5.3865V9.84592C12.7034 9.27024 11.4386 8.98668 10.1622 9.02074ZM17.3263 9.02482L18.4609 5.43828C18.4728 5.3886 18.5153 5.3522 18.5662 5.34803H19.1357C19.1867 5.35519 19.2297 5.38988 19.2474 5.43828L20.1306 7.70109C20.1478 7.74622 20.1929 7.75051 20.208 7.70109L21.0847 5.43828C21.1025 5.38988 21.1454 5.35519 21.1965 5.34803H21.7659C21.8168 5.3522 21.8593 5.3886 21.8712 5.43828L22.993 9.02482C23.006 9.05243 23.0034 9.0849 22.9862 9.11011C22.9689 9.13531 22.9396 9.14948 22.9092 9.14731H22.2322C22.1843 9.14949 22.1416 9.11685 22.1312 9.06995L21.4114 6.74053C21.4006 6.6954 21.349 6.6954 21.334 6.74053L20.4744 9.05276C20.4598 9.10842 20.4095 9.14725 20.3519 9.14731H19.9544C19.8921 9.14731 19.8598 9.11293 19.8362 9.05276L18.9595 6.74053C18.9423 6.6954 18.8971 6.6954 18.8864 6.74053L18.1493 9.06995C18.1379 9.11802 18.0933 9.15076 18.044 9.14731H17.3993C17.3703 9.14686 17.3435 9.1314 17.3286 9.10644C17.3138 9.08149 17.3129 9.0506 17.3263 9.02482ZM23.2079 7.73547C23.1956 7.12448 23.5543 6.56681 24.1153 6.32447C24.6763 6.08214 25.3282 6.2033 25.7647 6.63104C26.2011 7.05878 26.3354 7.70807 26.1045 8.27387C25.8735 8.83967 25.3232 9.20951 24.7121 9.20963C24.3144 9.22319 23.9285 9.07324 23.6443 8.7947C23.36 8.51617 23.2023 8.13338 23.2079 7.73547ZM25.4427 7.73547C25.4158 7.33364 25.0721 7.02732 24.6699 7.04655C24.2676 7.06578 23.9547 7.40348 23.9662 7.80605C23.9777 8.20862 24.3094 8.5279 24.7121 8.52412C25.1303 8.50668 25.4554 8.15373 25.4384 7.73547H25.4427ZM27.5401 8.91523C27.4842 8.8701 27.4348 8.88729 27.4348 8.96465V9.03771C27.4348 9.09423 27.3902 9.1407 27.3338 9.14301H26.8094C26.7522 9.14081 26.7063 9.09493 26.7041 9.03771V5.45118C26.7063 5.39396 26.7522 5.34808 26.8094 5.34588H27.3617C27.4182 5.34819 27.4627 5.39466 27.4627 5.45118V6.47406C27.4627 6.54712 27.5121 6.56861 27.5916 6.51274C27.8031 6.3543 28.0601 6.26838 28.3244 6.26776C29.0894 6.26776 29.6761 6.91244 29.6761 7.74192C29.6935 8.12093 29.5575 8.49098 29.2986 8.76841C29.0398 9.04584 28.6801 9.20722 28.3008 9.21607C28.0188 9.21305 27.7478 9.1059 27.5401 8.91523ZM28.9154 7.74192C28.9365 7.46515 28.8008 7.19986 28.5641 7.05501C28.3273 6.91016 28.0293 6.91016 27.7925 7.05501C27.5557 7.19986 27.4201 7.46515 27.4412 7.74192C27.4337 7.94246 27.5071 8.13762 27.6449 8.28351C27.7827 8.4294 27.9733 8.51378 28.174 8.51768C28.3763 8.51319 28.5685 8.42802 28.7077 8.28112C28.847 8.13422 28.9217 7.93777 28.9154 7.73547V7.74192ZM30.1381 5.60805C30.1381 5.37069 30.3305 5.17827 30.5679 5.17827C30.8052 5.17827 30.9977 5.37069 30.9977 5.60805C30.9977 5.84541 30.8052 6.03783 30.5679 6.03783C30.3305 6.03783 30.1381 5.84541 30.1381 5.60805ZM30.1768 9.04631V6.44612C30.1767 6.38961 30.2213 6.34313 30.2778 6.34083H30.83C30.8591 6.33967 30.8875 6.35011 30.9088 6.36986C30.9302 6.38961 30.9428 6.41705 30.9439 6.44612V9.03771C30.9417 9.09493 30.8959 9.14081 30.8386 9.14301H30.2778C30.2213 9.1407 30.1767 9.09423 30.1768 9.03771V9.04631ZM31.5585 8.19534V5.45118C31.5585 5.39466 31.6031 5.34819 31.6595 5.34588H32.2118C32.269 5.34808 32.3149 5.39396 32.3171 5.45118V8.21253C32.3171 8.39089 32.3945 8.50908 32.59 8.50908C32.6179 8.50908 32.6447 8.52018 32.6645 8.53992C32.6842 8.55967 32.6953 8.58645 32.6953 8.61438V9.0721C32.693 9.12857 32.6465 9.17314 32.59 9.1731C31.8551 9.1731 31.5585 8.93242 31.5585 8.19534ZM32.9016 7.75266C32.9035 7.23368 33.1822 6.75514 33.6326 6.4973C34.083 6.23947 34.6368 6.24152 35.0853 6.50268C35.5337 6.76383 35.8089 7.24442 35.8069 7.76341C35.8069 7.86441 35.779 7.94822 35.678 7.94822H33.7569C33.7074 7.94822 33.6903 7.97615 33.6946 8.02128C33.7423 8.35789 34.0432 8.59958 34.3822 8.57355C34.5862 8.57657 34.7809 8.4883 34.913 8.33287C34.954 8.27528 35.0207 8.24153 35.0913 8.24262H35.6049C35.6952 8.24262 35.7339 8.30493 35.6995 8.39304C35.3982 9.00725 34.7135 9.33294 34.0469 9.17911C33.3803 9.02528 32.9076 8.43248 32.9059 7.74837L32.9016 7.75266ZM34.9409 7.49479C34.9796 7.49479 34.9968 7.4776 34.9903 7.43248C34.9318 7.12404 34.6596 6.90263 34.3457 6.90814C34.0387 6.90785 33.7718 7.1187 33.701 7.41743C33.6903 7.45611 33.701 7.49479 33.7461 7.49479H34.9409ZM36.2711 9.03771V5.45118C36.271 5.39466 36.3156 5.34819 36.3721 5.34588H38.1321C38.9357 5.34588 39.4837 5.81434 39.4837 6.603C39.4837 7.39165 38.8627 7.8773 38.0934 7.8773H37.1607C37.1324 7.87435 37.1042 7.88466 37.0845 7.90524C37.0647 7.92583 37.0556 7.95438 37.0597 7.9826V9.03771C37.0575 9.09493 37.0117 9.14081 36.9545 9.14301H36.3742C36.3169 9.14184 36.2711 9.09504 36.2711 9.03771ZM38.0934 7.22833C38.4264 7.2178 38.6885 6.94038 38.68 6.60729C38.6848 6.44952 38.6244 6.29674 38.513 6.18493C38.4016 6.07311 38.249 6.01213 38.0912 6.01634H37.1522C37.0855 6.01634 37.0576 6.05072 37.0576 6.11734V7.13378C37.0576 7.20039 37.0855 7.23478 37.1522 7.23478L38.0934 7.22833ZM39.7545 7.73547C39.74 7.35543 39.8785 6.98544 40.139 6.70836C40.3996 6.43128 40.7603 6.27025 41.1405 6.26132C41.4149 6.26281 41.6793 6.36445 41.8841 6.54712C41.9335 6.59225 41.9894 6.5858 41.9894 6.51919V6.44612C41.9894 6.39034 42.0346 6.34513 42.0904 6.34513H42.6147C42.6719 6.34733 42.7178 6.39321 42.72 6.45042V8.29419C42.72 8.43387 42.7694 8.49619 42.8661 8.50908C42.9163 8.51008 42.9573 8.54928 42.9607 8.59934V9.08499C42.9607 9.13721 42.9183 9.17954 42.8661 9.17954C42.4965 9.17954 42.2795 9.07425 42.157 8.8615C42.1226 8.80563 42.0839 8.79489 42.028 8.85076C41.792 9.09375 41.4664 9.22897 41.1276 9.22467C40.7466 9.21362 40.386 9.04938 40.1276 8.76911C39.8692 8.48883 39.7347 8.11619 39.7545 7.73547ZM41.9894 7.73547C42.0105 7.45949 41.8752 7.19494 41.6391 7.05049C41.403 6.90604 41.1059 6.90604 40.8698 7.05049C40.6337 7.19494 40.4984 7.45949 40.5195 7.73547C40.4984 8.01145 40.6337 8.276 40.8698 8.42045C41.1059 8.56491 41.403 8.56491 41.6391 8.42045C41.8752 8.276 42.0105 8.01145 41.9894 7.73547ZM43.2207 10.1272V9.66949C43.223 9.61303 43.2695 9.56845 43.326 9.5685C43.6855 9.59542 44.0171 9.37377 44.1297 9.03127C44.1485 8.95938 44.1409 8.8831 44.1082 8.81638L43.081 6.49125C43.0633 6.45964 43.0638 6.42093 43.0825 6.38984C43.1011 6.35875 43.135 6.34004 43.1713 6.34083H43.7235C43.7794 6.34083 43.8138 6.38595 43.8353 6.44183L44.4799 7.92888C44.5251 8.04707 44.5981 8.04062 44.6476 7.92888L45.2622 6.43753C45.2836 6.38166 45.3116 6.34727 45.3674 6.34727H45.8982C45.9313 6.34554 45.963 6.36086 45.9822 6.38788C46.0013 6.4149 46.0053 6.44985 45.9928 6.48051L44.9355 8.98184C44.5509 9.89298 44.1426 10.2325 43.326 10.2325C43.2688 10.2303 43.2229 10.1844 43.2207 10.1272Z" fill="black"/>
</svg>
