<svg xmlns="http://www.w3.org/2000/svg" width="30" height="12" viewBox="0 0 45 12" fill="none">
  <path fill-rule="evenodd" clip-rule="evenodd" d="M6.01692 0.0297852H2.58802C2.35338 0.0297852 2.15382 0.200301 2.11723 0.431833L0.730404 9.22354C0.702839 9.39707 0.837205 9.55344 1.01319 9.55344H2.65018C2.88483 9.55344 3.08439 9.38292 3.12098 9.15092L3.49502 6.7797C3.5311 6.54747 3.73115 6.37718 3.96531 6.37718H5.05078C7.30951 6.37718 8.61302 5.28425 8.95363 3.11857C9.10699 2.1711 8.96012 1.42663 8.51626 0.905103C8.02902 0.33277 7.1645 0.0297852 6.01692 0.0297852ZM6.41252 3.24084C6.22504 4.47111 5.28493 4.47111 4.37594 4.47111H3.85851L4.22151 2.17342C4.24306 2.03469 4.36339 1.93238 4.50378 1.93238H4.74093C5.36013 1.93238 5.9443 1.93238 6.24616 2.28524C6.42597 2.4959 6.48119 2.80863 6.41252 3.24084ZM16.2667 3.2014H14.6247C14.4848 3.2014 14.3639 3.30371 14.3423 3.44267L14.2697 3.90179L14.1549 3.73545C13.7994 3.21949 13.0068 3.04712 12.2156 3.04712C10.401 3.04712 8.8513 4.42123 8.54944 6.34888C8.3926 7.31027 8.61557 8.22967 9.16105 8.8709C9.66153 9.4604 10.3775 9.70609 11.2293 9.70609C12.6913 9.70609 13.5022 8.76604 13.5022 8.76604L13.4289 9.22238C13.4013 9.39684 13.5356 9.5532 13.7105 9.5532H15.1897C15.425 9.5532 15.6233 9.38268 15.6605 9.15069L16.5479 3.53129C16.576 3.35846 16.4421 3.2014 16.2667 3.2014ZM13.9778 6.3969C13.8194 7.33486 13.0748 7.9645 12.1254 7.9645C11.6486 7.9645 11.2674 7.81161 11.0228 7.52185C10.7801 7.23418 10.6878 6.82447 10.765 6.36837C10.9131 5.4383 11.6701 4.78825 12.6052 4.78825C13.0713 4.78825 13.4505 4.94299 13.7001 5.2353C13.9502 5.53063 14.0495 5.94265 13.9778 6.3969ZM23.3618 3.20117H25.0119C25.243 3.20117 25.3778 3.4603 25.2465 3.64984L19.7584 11.5706C19.6696 11.6989 19.5232 11.7753 19.3668 11.7753H17.7187C17.4867 11.7753 17.3512 11.514 17.4856 11.324L19.1944 8.9122L17.377 3.57908C17.3141 3.39372 17.451 3.20117 17.6482 3.20117H19.2696C19.4802 3.20117 19.6661 3.33943 19.7269 3.54104L20.6914 6.76206L22.9673 3.41019C23.0564 3.27935 23.2044 3.20117 23.3618 3.20117Z" />
  <path fill-rule="evenodd" clip-rule="evenodd" d="M41.253 9.22302L42.6602 0.270549C42.6818 0.131583 42.8022 0.0292726 42.9421 0.0288086H44.5264C44.7013 0.0288086 44.8356 0.185637 44.808 0.35917L43.4203 9.15041C43.3841 9.38241 43.1846 9.55292 42.9495 9.55292H41.5347C41.3597 9.55292 41.2254 9.39656 41.253 9.22302ZM30.4758 0.0292732H27.0463C26.8122 0.0292732 26.6126 0.199789 26.5759 0.431321L25.1892 9.22302C25.1615 9.39656 25.2959 9.55292 25.4711 9.55292H27.2307C27.3943 9.55292 27.5342 9.43368 27.5597 9.27128L27.9532 6.77918C27.9894 6.54696 28.1894 6.37667 28.4235 6.37667H29.5085C31.7677 6.37667 33.071 5.28374 33.4118 3.11806C33.5656 2.17059 33.4178 1.42612 32.9742 0.904591C32.4872 0.332258 31.6234 0.0292732 30.4758 0.0292732ZM30.8714 3.24032C30.6844 4.4706 29.7442 4.4706 28.8347 4.4706H28.3177L28.6813 2.17291C28.7029 2.03418 28.8222 1.93187 28.963 1.93187H29.2001C29.8189 1.93187 30.4036 1.93187 30.7053 2.28473C30.8853 2.49538 30.9401 2.80812 30.8714 3.24032ZM40.7247 3.20088H39.0838C38.9427 3.20088 38.823 3.30319 38.8019 3.44216L38.7293 3.90128L38.614 3.73494C38.2585 3.21898 37.4664 3.04661 36.6752 3.04661C34.8605 3.04661 33.3113 4.42072 33.0095 6.34837C32.8531 7.30976 33.0751 8.22915 33.6206 8.87039C34.122 9.45989 34.8371 9.70558 35.6889 9.70558C37.1508 9.70558 37.9615 8.76553 37.9615 8.76553L37.8884 9.22187C37.8608 9.39633 37.9952 9.55269 38.1713 9.55269H39.6497C39.8838 9.55269 40.0834 9.38217 40.12 9.15018L41.008 3.53078C41.0351 3.35795 40.9008 3.20088 40.7247 3.20088ZM38.436 6.39639C38.2785 7.33435 37.533 7.96399 36.5833 7.96399C36.1074 7.96399 35.7255 7.8111 35.4807 7.52134C35.238 7.23366 35.1469 6.82396 35.2232 6.36786C35.3719 5.43779 36.1281 4.78773 37.0631 4.78773C37.5295 4.78773 37.9084 4.94247 38.1583 5.23479C38.4093 5.53012 38.5086 5.94214 38.436 6.39639Z" />
</svg>