<svg xmlns="http://www.w3.org/2000/svg" width="30" height="12" viewBox="0 0 30 10" fill="none">
  <path d="M13.3747 9.47863H11.0154L12.4911 0.355262H14.8503L13.3747 9.47863Z" />
  <path d="M21.9265 0.57836C21.4611 0.393761 20.723 0.189941 19.8104 0.189941C17.4805 0.189941 15.8398 1.43221 15.8298 3.20827C15.8104 4.51865 17.0045 5.24647 17.8975 5.68339C18.8103 6.12986 19.1205 6.42127 19.1205 6.81923C19.1113 7.43043 18.383 7.71217 17.7037 7.71217C16.7618 7.71217 16.2571 7.56692 15.4901 7.22687L15.1794 7.0811L14.8493 9.1291C15.4026 9.38117 16.4221 9.60485 17.4805 9.61466C19.956 9.61466 21.5677 8.39161 21.5868 6.49893C21.5962 5.46035 20.9657 4.66455 19.6064 4.01427C18.7812 3.59682 18.2759 3.31534 18.2759 2.88823C18.2856 2.49994 18.7033 2.10223 19.6348 2.10223C20.4018 2.08275 20.9653 2.26709 21.3922 2.45156L21.6056 2.54844L21.9265 0.57836Z" />
  <path d="M25.0634 6.24654C25.2577 5.72242 26.0053 3.6939 26.0053 3.6939C25.9955 3.71338 26.1993 3.1601 26.3158 2.82044L26.4806 3.60657C26.4806 3.60657 26.9274 5.7904 27.0244 6.24654C26.6557 6.24654 25.5294 6.24654 25.0634 6.24654ZM27.9757 0.355262H26.1507C25.588 0.355262 25.1604 0.520124 24.9176 1.11223L21.4132 9.4785H23.8887C23.8887 9.4785 24.2963 8.35246 24.3839 8.10994C24.6555 8.10994 27.0637 8.10994 27.413 8.10994C27.4808 8.43025 27.6945 9.4785 27.6945 9.4785H29.879L27.9757 0.355262Z" />
  <path d="M9.04463 0.355262L6.73411 6.57653L6.48162 5.31478C6.05446 3.85889 4.71477 2.2771 3.21975 1.49059L5.3361 9.46895H7.83099L11.5394 0.355262H9.04463Z" />
  <path d="M4.5886 0.355262H0.792739L0.753906 0.539624C3.71492 1.29681 5.67594 3.12198 6.48163 5.31574L5.65646 1.12225C5.5206 0.539495 5.10311 0.374486 4.5886 0.355262Z" />
</svg>