<svg viewBox="0 0 21 15" fill="none" xmlns="http://www.w3.org/2000/svg">
<path d="M2.2623 12.1352V13.8207M18.515 12.1352V13.8207M3.16523 2.44379C3.16523 2.10853 3.30793 1.787 3.56193 1.54993C3.81593 1.31287 4.16042 1.17969 4.51963 1.17969H16.2577C16.6169 1.17969 16.9614 1.31287 17.2154 1.54993C17.4694 1.787 17.6121 2.10853 17.6121 2.44379V7.07883H3.16523V2.44379ZM12.646 4.97199H8.13135C7.77214 4.97199 7.42764 5.10517 7.17365 5.34224C6.91965 5.5793 6.77695 5.90083 6.77695 6.23609V7.07883H14.0004V6.23609C14.0004 5.90083 13.8577 5.5793 13.6037 5.34224C13.3497 5.10517 13.0052 4.97199 12.646 4.97199ZM1.35938 8.34287C1.35937 8.00761 1.50207 7.68608 1.75607 7.44902C2.01007 7.21195 2.35456 7.07877 2.71377 7.07877H18.0636C18.4228 7.07877 18.7673 7.21195 19.0213 7.44902C19.2753 7.68608 19.418 8.00761 19.418 8.34287V12.1352H1.35938V8.34287Z" stroke-width="1.35439" stroke-linecap="round" stroke-linejoin="round"/>
</svg>
