<svg width="126" height="78" viewBox="0 0 126 78" fill="none" xmlns="http://www.w3.org/2000/svg">
<path d="M65.3515 38.8984H28.918V105.388H65.3515V38.8984Z" fill="auto"/>
<path d="M72.11 38.0879H32.2656V38.9008H72.11V38.0879Z" fill="auto"/>
<path opacity="0.3" d="M72.11 38.0879H32.2656V38.9008H72.11V38.0879Z" fill="black"/>
<path d="M65.3525 105.389H75.4648L75.4648 38.899H65.3525L65.3525 105.389Z" fill="auto"/>
<path opacity="0.2" d="M65.3525 105.389H75.4648L75.4648 38.899H65.3525L65.3525 105.389Z" fill="black"/>
<path opacity="0.1" d="M62.4101 42.0703H60.372C60.1903 42.0703 60.043 42.2131 60.043 42.3893V44.3786C60.043 44.5547 60.1903 44.6975 60.372 44.6975H62.4101C62.5918 44.6975 62.7391 44.5547 62.7391 44.3786V42.3893C62.7391 42.2131 62.5918 42.0703 62.4101 42.0703Z" fill="black"/>
<path opacity="0.3" d="M56.8476 42.0703H54.8095C54.6278 42.0703 54.4805 42.2131 54.4805 42.3893V44.3786C54.4805 44.5547 54.6278 44.6975 54.8095 44.6975H56.8476C57.0293 44.6975 57.1766 44.5547 57.1766 44.3786V42.3893C57.1766 42.2131 57.0293 42.0703 56.8476 42.0703Z" fill="black"/>
<path opacity="0.3" d="M51.289 42.0703H49.2509C49.0692 42.0703 48.9219 42.2131 48.9219 42.3893V44.3786C48.9219 44.5547 49.0692 44.6975 49.2509 44.6975H51.289C51.4707 44.6975 51.618 44.5547 51.618 44.3786V42.3893C51.618 42.2131 51.4707 42.0703 51.289 42.0703Z" fill="black"/>
<path opacity="0.1" d="M45.7265 42.0703H43.6884C43.5067 42.0703 43.3594 42.2131 43.3594 42.3893V44.3786C43.3594 44.5547 43.5067 44.6975 43.6884 44.6975H45.7265C45.9082 44.6975 46.0555 44.5547 46.0555 44.3786V42.3893C46.0555 42.2131 45.9082 42.0703 45.7265 42.0703Z" fill="black"/>
<path opacity="0.3" d="M40.164 42.0703H38.1259C37.9442 42.0703 37.7969 42.2131 37.7969 42.3893V44.3786C37.7969 44.5547 37.9442 44.6975 38.1259 44.6975H40.164C40.3457 44.6975 40.493 44.5547 40.493 44.3786V42.3893C40.493 42.2131 40.3457 42.0703 40.164 42.0703Z" fill="black"/>
<path opacity="0.3" d="M34.6054 42.0703H32.5673C32.3856 42.0703 32.2383 42.2131 32.2383 42.3893V44.3786C32.2383 44.5547 32.3856 44.6975 32.5673 44.6975H34.6054C34.7871 44.6975 34.9344 44.5547 34.9344 44.3786V42.3893C34.9344 42.2131 34.7871 42.0703 34.6054 42.0703Z" fill="black"/>
<g opacity="0.1">
<path d="M64.1573 46.2031H30.1016V56.6125H64.1573V46.2031Z" fill="black"/>
</g>
<path d="M62.2274 47.6914H61.2686C61.0145 47.6914 60.8086 47.891 60.8086 48.1373V54.6813C60.8086 54.9276 61.0145 55.1272 61.2686 55.1272H62.2274C62.4815 55.1272 62.6874 54.9276 62.6874 54.6813V48.1373C62.6874 47.891 62.4815 47.6914 62.2274 47.6914Z" fill="auto"/>
<path opacity="0.1" d="M58.3602 47.6914H57.4014C57.1473 47.6914 56.9414 47.891 56.9414 48.1373V54.6813C56.9414 54.9276 57.1473 55.1272 57.4014 55.1272H58.3602C58.6143 55.1272 58.8202 54.9276 58.8202 54.6813V48.1373C58.8202 47.891 58.6143 47.6914 58.3602 47.6914Z" fill="black"/>
<path d="M54.4813 47.6914H53.5225C53.2684 47.6914 53.0625 47.891 53.0625 48.1373V54.6813C53.0625 54.9276 53.2684 55.1272 53.5225 55.1272H54.4813C54.7354 55.1272 54.9413 54.9276 54.9413 54.6813V48.1373C54.9413 47.891 54.7354 47.6914 54.4813 47.6914Z" fill="auto"/>
<path d="M50.6024 47.6914H49.6436C49.3895 47.6914 49.1836 47.891 49.1836 48.1373V54.6813C49.1836 54.9276 49.3895 55.1272 49.6436 55.1272H50.6024C50.8565 55.1272 51.0624 54.9276 51.0624 54.6813V48.1373C51.0624 47.891 50.8565 47.6914 50.6024 47.6914Z" fill="auto"/>
<path opacity="0.3" d="M39.8633 49.7453C39.8633 49.5079 39.9359 49.2758 40.072 49.0784C40.2081 48.881 40.4015 48.7272 40.6278 48.6363C40.854 48.5454 41.103 48.5217 41.3433 48.568C41.5835 48.6143 41.8042 48.7286 41.9773 48.8965C42.1505 49.0644 42.2685 49.2783 42.3163 49.5112C42.3641 49.744 42.3395 49.9854 42.2458 50.2047C42.1521 50.4241 41.9933 50.6116 41.7897 50.7435C41.586 50.8754 41.3466 50.9458 41.1017 50.9458C40.7735 50.9449 40.4591 50.8181 40.227 50.5932C39.995 50.3682 39.8642 50.0634 39.8633 49.7453Z" fill="auto"/>
<path opacity="0.1" d="M45.8752 53.0708C45.8745 53.3081 45.8013 53.5398 45.6648 53.7368C45.5283 53.9337 45.3346 54.0871 45.1083 54.1774C44.8819 54.2677 44.6331 54.291 44.3931 54.2443C44.1531 54.1976 43.9327 54.083 43.7599 53.915C43.5871 53.747 43.4695 53.5331 43.422 53.3003C43.3745 53.0675 43.3992 52.8264 43.493 52.6072C43.5869 52.3881 43.7456 52.2008 43.9492 52.069C44.1528 51.9373 44.392 51.8669 44.6368 51.8669C44.7997 51.8669 44.9611 51.8981 45.1116 51.9587C45.262 52.0192 45.3987 52.1079 45.5138 52.2197C45.6288 52.3316 45.7199 52.4643 45.782 52.6104C45.844 52.7564 45.8757 52.9129 45.8752 53.0708Z" fill="black"/>
<path opacity="0.1" d="M43.3984 49.7453C43.3984 49.5079 43.4711 49.2758 43.6071 49.0784C43.7432 48.881 43.9366 48.7272 44.1629 48.6363C44.3892 48.5454 44.6382 48.5217 44.8784 48.568C45.1187 48.6143 45.3393 48.7286 45.5125 48.8965C45.6857 49.0644 45.8036 49.2783 45.8514 49.5112C45.8992 49.744 45.8747 49.9854 45.781 50.2047C45.6872 50.4241 45.5285 50.6116 45.3248 50.7435C45.1212 50.8754 44.8818 50.9458 44.6368 50.9458C44.3087 50.9449 43.9942 50.8181 43.7622 50.5932C43.5301 50.3682 43.3994 50.0634 43.3984 49.7453Z" fill="black"/>
<path opacity="0.1" d="M42.3401 53.071C42.3394 53.3083 42.2661 53.5401 42.1296 53.737C41.9931 53.934 41.7995 54.0873 41.5731 54.1776C41.3468 54.268 41.0979 54.2913 40.8579 54.2445C40.6179 54.1978 40.3976 54.0832 40.2247 53.9152C40.0519 53.7472 39.9343 53.5333 39.8868 53.3006C39.8393 53.0678 39.8641 52.8266 39.9579 52.6074C40.0517 52.3883 40.2104 52.201 40.414 52.0693C40.6176 51.9375 40.8569 51.8672 41.1017 51.8672C41.2646 51.8672 41.4259 51.8984 41.5764 51.9589C41.7269 52.0194 41.8636 52.1082 41.9786 52.22C42.0936 52.3318 42.1848 52.4646 42.2468 52.6106C42.3088 52.7566 42.3405 52.9131 42.3401 53.071Z" fill="black"/>
<path opacity="0.3" d="M36.8219 53.2509C37.8707 52.2343 37.8707 50.586 36.8219 49.5694C35.7731 48.5528 34.0727 48.5528 33.024 49.5694C31.9752 50.586 31.9752 52.2343 33.024 53.2509C34.0727 54.2675 35.7731 54.2675 36.8219 53.2509Z" fill="auto"/>
<g opacity="0.1">
<path d="M64.1573 58.0391H30.1016V68.4484H64.1573V58.0391Z" fill="black"/>
</g>
<path d="M62.2274 59.5273H61.2686C61.0145 59.5273 60.8086 59.727 60.8086 59.9732V66.5172C60.8086 66.7635 61.0145 66.9631 61.2686 66.9631H62.2274C62.4815 66.9631 62.6874 66.7635 62.6874 66.5172V59.9732C62.6874 59.727 62.4815 59.5273 62.2274 59.5273Z" fill="auto"/>
<path opacity="0.1" d="M58.3602 59.5273H57.4014C57.1473 59.5273 56.9414 59.727 56.9414 59.9732V66.5172C56.9414 66.7635 57.1473 66.9631 57.4014 66.9631H58.3602C58.6143 66.9631 58.8202 66.7635 58.8202 66.5172V59.9732C58.8202 59.727 58.6143 59.5273 58.3602 59.5273Z" fill="black"/>
<path d="M54.4813 59.5273H53.5225C53.2684 59.5273 53.0625 59.727 53.0625 59.9732V66.5172C53.0625 66.7635 53.2684 66.9631 53.5225 66.9631H54.4813C54.7354 66.9631 54.9413 66.7635 54.9413 66.5172V59.9732C54.9413 59.727 54.7354 59.5273 54.4813 59.5273Z" fill="auto"/>
<path d="M50.6024 59.5273H49.6436C49.3895 59.5273 49.1836 59.727 49.1836 59.9732V66.5172C49.1836 66.7635 49.3895 66.9631 49.6436 66.9631H50.6024C50.8565 66.9631 51.0624 66.7635 51.0624 66.5172V59.9732C51.0624 59.727 50.8565 59.5273 50.6024 59.5273Z" fill="auto"/>
<path opacity="0.3" d="M39.8633 61.5852C39.8633 61.3478 39.9359 61.1157 40.072 60.9183C40.2081 60.7209 40.4015 60.567 40.6278 60.4761C40.854 60.3853 41.103 60.3615 41.3433 60.4078C41.5835 60.4542 41.8042 60.5685 41.9773 60.7364C42.1505 60.9042 42.2685 61.1181 42.3163 61.351C42.3641 61.5839 42.3395 61.8252 42.2458 62.0446C42.1521 62.2639 41.9933 62.4514 41.7897 62.5833C41.586 62.7152 41.3466 62.7856 41.1017 62.7856C40.7732 62.7856 40.4582 62.6591 40.226 62.434C39.9938 62.2089 39.8633 61.9036 39.8633 61.5852Z" fill="auto"/>
<path opacity="0.3" d="M44.6368 66.1059C45.3208 66.1059 45.8752 65.5685 45.8752 64.9055C45.8752 64.2425 45.3208 63.7051 44.6368 63.7051C43.9529 63.7051 43.3984 64.2425 43.3984 64.9055C43.3984 65.5685 43.9529 66.1059 44.6368 66.1059Z" fill="auto"/>
<path opacity="0.1" d="M43.3984 61.5852C43.3984 61.3478 43.4711 61.1157 43.6071 60.9183C43.7432 60.7209 43.9366 60.567 44.1629 60.4761C44.3892 60.3853 44.6382 60.3615 44.8784 60.4078C45.1187 60.4542 45.3393 60.5685 45.5125 60.7364C45.6857 60.9042 45.8036 61.1181 45.8514 61.351C45.8992 61.5839 45.8747 61.8252 45.781 62.0446C45.6872 62.2639 45.5285 62.4514 45.3248 62.5833C45.1212 62.7152 44.8818 62.7856 44.6368 62.7856C44.3084 62.7856 43.9934 62.6591 43.7612 62.434C43.5289 62.2089 43.3984 61.9036 43.3984 61.5852Z" fill="black"/>
<path opacity="0.1" d="M41.1017 66.1059C41.7856 66.1059 42.3401 65.5685 42.3401 64.9055C42.3401 64.2425 41.7856 63.7051 41.1017 63.7051C40.4177 63.7051 39.8633 64.2425 39.8633 64.9055C39.8633 65.5685 40.4177 66.1059 41.1017 66.1059Z" fill="black"/>
<path opacity="0.3" d="M34.9238 65.847C36.407 65.847 37.6094 64.6815 37.6094 63.2438C37.6094 61.8061 36.407 60.6406 34.9238 60.6406C33.4406 60.6406 32.2383 61.8061 32.2383 63.2438C32.2383 64.6815 33.4406 65.847 34.9238 65.847Z" fill="auto"/>
<g opacity="0.1">
<path d="M64.1573 69.8789H30.1016V80.2883H64.1573V69.8789Z" fill="black"/>
</g>
<path d="M62.2274 71.3633H61.2686C61.0145 71.3633 60.8086 71.5629 60.8086 71.8091V78.3532C60.8086 78.5994 61.0145 78.799 61.2686 78.799H62.2274C62.4815 78.799 62.6874 78.5994 62.6874 78.3532V71.8091C62.6874 71.5629 62.4815 71.3633 62.2274 71.3633Z" fill="auto"/>
<path opacity="0.1" d="M58.3602 71.3633H57.4014C57.1473 71.3633 56.9414 71.5629 56.9414 71.8091V78.3532C56.9414 78.5994 57.1473 78.799 57.4014 78.799H58.3602C58.6143 78.799 58.8202 78.5994 58.8202 78.3532V71.8091C58.8202 71.5629 58.6143 71.3633 58.3602 71.3633Z" fill="black"/>
<path d="M54.4813 71.3633H53.5225C53.2684 71.3633 53.0625 71.5629 53.0625 71.8091V78.3532C53.0625 78.5994 53.2684 78.799 53.5225 78.799H54.4813C54.7354 78.799 54.9413 78.5994 54.9413 78.3532V71.8091C54.9413 71.5629 54.7354 71.3633 54.4813 71.3633Z" fill="auto"/>
<path d="M50.6024 71.3633H49.6436C49.3895 71.3633 49.1836 71.5629 49.1836 71.8091V78.3532C49.1836 78.5994 49.3895 78.799 49.6436 78.799H50.6024C50.8565 78.799 51.0624 78.5994 51.0624 78.3532V71.8091C51.0624 71.5629 50.8565 71.3633 50.6024 71.3633Z" fill="auto"/>
<path opacity="0.3" d="M39.8633 73.4099C39.864 73.1726 39.9372 72.9409 40.0737 72.7439C40.2102 72.5469 40.4039 72.3936 40.6302 72.3033C40.8566 72.213 41.1054 72.1897 41.3454 72.2364C41.5854 72.2831 41.8058 72.3977 41.9786 72.5657C42.1514 72.7337 42.269 72.9476 42.3165 73.1804C42.364 73.4131 42.3393 73.6543 42.2455 73.8735C42.1516 74.0926 41.9929 74.2799 41.7893 74.4117C41.5857 74.5434 41.3465 74.6137 41.1017 74.6137C40.9388 74.6137 40.7774 74.5826 40.6269 74.522C40.4765 74.4615 40.3398 74.3728 40.2247 74.2609C40.1097 74.1491 40.0186 74.0164 39.9565 73.8703C39.8945 73.7243 39.8628 73.5678 39.8633 73.4099Z" fill="auto"/>
<path opacity="0.3" d="M44.6368 77.9419C45.3208 77.9419 45.8752 77.4044 45.8752 76.7414C45.8752 76.0785 45.3208 75.541 44.6368 75.541C43.9529 75.541 43.3984 76.0785 43.3984 76.7414C43.3984 77.4044 43.9529 77.9419 44.6368 77.9419Z" fill="auto"/>
<path opacity="0.1" d="M43.3984 73.4099C43.3991 73.1726 43.4724 72.9409 43.6089 72.7439C43.7454 72.5469 43.939 72.3936 44.1654 72.3033C44.3917 72.213 44.6406 72.1897 44.8806 72.2364C45.1206 72.2831 45.3409 72.3977 45.5138 72.5657C45.6866 72.7337 45.8042 72.9476 45.8517 73.1804C45.8992 73.4131 45.8745 73.6543 45.7806 73.8735C45.6868 74.0926 45.5281 74.2799 45.3245 74.4117C45.1209 74.5434 44.8816 74.6137 44.6368 74.6137C44.4739 74.6137 44.3126 74.5826 44.1621 74.522C44.0116 74.4615 43.875 74.3728 43.7599 74.2609C43.6449 74.1491 43.5537 74.0164 43.4917 73.8703C43.4297 73.7243 43.398 73.5678 43.3984 73.4099Z" fill="black"/>
<path opacity="0.1" d="M41.1017 77.9419C41.7856 77.9419 42.3401 77.4044 42.3401 76.7414C42.3401 76.0785 41.7856 75.541 41.1017 75.541C40.4177 75.541 39.8633 76.0785 39.8633 76.7414C39.8633 77.4044 40.4177 77.9419 41.1017 77.9419Z" fill="black"/>
<path opacity="0.1" d="M34.9238 77.6849C36.407 77.6849 37.6094 76.5194 37.6094 75.0817C37.6094 73.644 36.407 72.4785 34.9238 72.4785C33.4406 72.4785 32.2383 73.644 32.2383 75.0817C32.2383 76.5194 33.4406 77.6849 34.9238 77.6849Z" fill="black"/>
<path d="M29.9297 22.6816H56.219L59.9165 37.2788H33.6272L29.9297 22.6816Z" fill="auto"/>
<path d="M41.0547 37.2773L41.1573 38.0833H69.244L69.1414 37.2773H41.0547Z" fill="auto"/>
<path d="M55.4335 22.6816L59.131 37.2788H59.1345L59.2371 38.0848H33.7298L33.6272 37.2788L29.9297 22.6816H55.4335Z" fill="auto"/>
<path opacity="0.6" d="M55.4335 22.6816L59.131 37.2788H59.1345L59.2371 38.0848H33.7298L33.6272 37.2788L29.9297 22.6816H55.4335Z" fill="auto"/>
<path opacity="0.3" d="M44.8395 14.0449L44.6732 13.9626C44.4609 13.8563 39.4968 11.2943 38.7926 7.92965C38.3711 5.77357 38.1979 3.57878 38.2761 1.38563V1.08381L38.5874 1.06323C38.6263 1.06323 42.3274 0.778559 44.7157 0.0342973L44.8254 0L44.9315 0.0342973C47.3199 0.7717 51.0209 1.06323 51.0598 1.06323L51.3712 1.08381V1.38563C51.461 3.57751 51.2996 5.77228 50.89 7.92965C50.1823 11.2943 45.2287 13.8563 45.0094 13.9626L44.8395 14.0449ZM38.9731 1.72861C38.9283 3.76405 39.1014 5.79851 39.4897 7.79932C40.0558 10.5226 43.9797 12.8068 44.8395 13.287C45.6958 12.8205 49.6197 10.5431 50.1859 7.79932C50.576 5.79875 50.7492 3.76411 50.7024 1.72861C48.7211 1.57213 46.7586 1.24035 44.8395 0.737403C42.9192 1.24012 40.9556 1.5719 38.9731 1.72861Z" fill="auto"/>
<path d="M44.8417 12.1369C43.3591 11.2588 40.8611 9.44104 40.479 7.59925C40.1542 5.95308 39.986 4.28148 39.9766 2.60549C41.6186 2.44134 43.2451 2.15467 44.8417 1.74805C46.437 2.15494 48.0623 2.44161 49.7033 2.60549C49.6925 4.28141 49.5243 5.95289 49.2008 7.59925C48.8187 9.44104 46.3207 11.2588 44.8417 12.1369Z" fill="auto"/>
<path opacity="0.3" d="M19.7194 105.391H19.0117V25.244C19.0145 23.2709 19.8244 21.3795 21.2637 19.9843C22.703 18.5891 24.6543 17.8041 26.6897 17.8014H42.4704C43.0035 17.7996 43.5141 17.5933 43.8907 17.2276C44.2673 16.8619 44.4792 16.3666 44.4801 15.8499H45.1878C45.1878 16.5488 44.9016 17.2191 44.3921 17.7136C43.8826 18.2082 43.1914 18.4864 42.4704 18.4874H26.6897C24.8417 18.4892 23.0698 19.2016 21.763 20.4683C20.4562 21.7351 19.7212 23.4526 19.7194 25.244V105.391Z" fill="auto"/>
</svg>
