<svg width="124" height="86" viewBox="0 0 124 86" fill="none" xmlns="http://www.w3.org/2000/svg">
<path d="M124 77.0713H-16V77.1408H124V77.0713Z" fill="white"/>
<path d="M7.96305 79.7192H-1.31055V79.7888H7.96305V79.7192Z" fill="white"/>
<path d="M34.3538 78.9658H22.1738V79.0353H34.3538V78.9658Z" fill="white"/>
<path d="M17.6898 81.1582H6.83984V81.2277H17.6898V81.1582Z" fill="white"/>
<path d="M109.973 81.8362H97.8799V81.9057H109.973V81.8362Z" fill="white"/>
<path d="M95.3826 81.8362H90.1187V81.9057H95.3826V81.8362Z" fill="white"/>
<path d="M60.9975 80.6619H50.7607V80.7314H60.9975V80.6619Z" fill="white"/>
<path d="M50.3599 64.6671H-3.70527C-4.12881 64.6664 -4.53475 64.4987 -4.83398 64.201C-5.13321 63.9033 -5.30127 63.4998 -5.30127 63.0791V-12.412C-5.30053 -12.8324 -5.13223 -13.2355 -4.83317 -13.5331C-4.5341 -13.8307 -4.12858 -13.9985 -3.70527 -14H50.3599C50.7842 -14 51.1912 -13.8328 51.4915 -13.535C51.7917 -13.2373 51.9608 -12.8334 51.9615 -12.412V63.0791C51.9615 63.2879 51.9201 63.4946 51.8396 63.6874C51.759 63.8803 51.641 64.0555 51.4923 64.203C51.3435 64.3505 51.1669 64.4674 50.9726 64.547C50.7783 64.6267 50.5701 64.6675 50.3599 64.6671ZM-3.70527 -13.9277C-4.10976 -13.927 -4.49748 -13.767 -4.7835 -13.4829C-5.06952 -13.1988 -5.23053 -12.8137 -5.23127 -12.412V63.0791C-5.23127 63.4813 -5.07058 63.8671 -4.78448 64.1518C-4.49838 64.4365 -4.11025 64.5968 -3.70527 64.5976H50.3599C50.7652 64.5968 51.1536 64.4366 51.4401 64.152C51.7267 63.8674 51.888 63.4816 51.8887 63.0791V-12.412C51.8873 -12.814 51.7256 -13.1991 51.4392 -13.4831C51.1527 -13.7671 50.7647 -13.927 50.3599 -13.9277H-3.70527Z" fill="white"/>
<path d="M104.098 55.4463L104.333 55.9219C104.347 55.9496 104.368 55.9737 104.393 55.9921C104.419 56.0104 104.448 56.0226 104.479 56.0276L105.008 56.1026C105.043 56.1082 105.076 56.1233 105.103 56.1462C105.131 56.1692 105.151 56.1992 105.162 56.2329C105.173 56.2666 105.174 56.3027 105.166 56.3371C105.157 56.3716 105.14 56.403 105.114 56.428L104.731 56.7979C104.709 56.8192 104.692 56.8454 104.682 56.8745C104.672 56.9036 104.67 56.9346 104.675 56.9648L104.764 57.4904C104.771 57.5258 104.768 57.5623 104.754 57.5957C104.741 57.6291 104.718 57.6581 104.689 57.6791C104.659 57.7001 104.624 57.7124 104.588 57.7144C104.552 57.7165 104.516 57.7082 104.484 57.6907L104.011 57.4432C103.984 57.428 103.954 57.4201 103.923 57.4201C103.892 57.4201 103.862 57.428 103.835 57.4432L103.362 57.6907C103.33 57.7071 103.294 57.7144 103.259 57.7118C103.223 57.7093 103.189 57.6969 103.16 57.6762C103.131 57.6554 103.108 57.6271 103.094 57.5943C103.08 57.5615 103.076 57.5255 103.082 57.4904L103.174 56.9648C103.179 56.9346 103.177 56.9036 103.167 56.8745C103.157 56.8454 103.14 56.8192 103.118 56.7979L102.734 56.428C102.709 56.403 102.691 56.3716 102.683 56.3371C102.675 56.3027 102.676 56.2666 102.687 56.2329C102.698 56.1992 102.718 56.1692 102.746 56.1462C102.773 56.1233 102.806 56.1082 102.841 56.1026L103.37 56.0276C103.401 56.0222 103.43 56.0099 103.455 55.9915C103.48 55.9732 103.501 55.9494 103.516 55.9219L103.751 55.4463C103.767 55.414 103.791 55.3868 103.822 55.3678C103.853 55.3487 103.888 55.3386 103.924 55.3386C103.961 55.3386 103.996 55.3487 104.027 55.3678C104.057 55.3868 104.082 55.414 104.098 55.4463Z" fill="white"/>
<path d="M0.999072 57.3306L1.23707 57.809C1.25075 57.8363 1.27088 57.8599 1.29575 57.8778C1.32062 57.8958 1.34948 57.9074 1.37987 57.9119L1.90907 57.987C1.9443 57.9925 1.9773 58.0076 2.00442 58.0306C2.03155 58.0535 2.05174 58.0835 2.06275 58.1172C2.07377 58.1509 2.07518 58.187 2.06684 58.2214C2.05849 58.2559 2.04071 58.2873 2.01547 58.3123L1.64027 58.6822C1.61829 58.7042 1.60198 58.731 1.59271 58.7606C1.58345 58.7901 1.58151 58.8214 1.58707 58.8519L1.67667 59.3747C1.68341 59.4101 1.67985 59.4466 1.66642 59.48C1.65299 59.5134 1.63024 59.5424 1.60085 59.5634C1.57145 59.5844 1.53662 59.5967 1.50046 59.5987C1.46429 59.6008 1.42829 59.5925 1.39667 59.575L0.917871 59.3414C0.890024 59.3276 0.859358 59.3205 0.828271 59.3205C0.797185 59.3205 0.766519 59.3276 0.738671 59.3414L0.265472 59.5889C0.233854 59.6064 0.19785 59.6147 0.161685 59.6126C0.12552 59.6106 0.0906944 59.5983 0.0612972 59.5773C0.0319 59.5563 0.00915119 59.5274 -0.00427976 59.4939C-0.0177107 59.4605 -0.0212661 59.424 -0.0145283 59.3886L0.0750716 58.8658C0.0806298 58.8354 0.0786953 58.804 0.069432 58.7745C0.0601687 58.7449 0.0438516 58.7181 0.021872 58.6961L-0.361729 58.3263C-0.386971 58.3012 -0.404748 58.2698 -0.413092 58.2353C-0.421437 58.2009 -0.420025 58.1648 -0.409009 58.1311C-0.397993 58.0974 -0.377806 58.0675 -0.350681 58.0445C-0.323557 58.0215 -0.290554 58.0064 -0.255329 58.0009L0.273871 57.9258C0.304266 57.9213 0.333129 57.9097 0.357995 57.8917C0.382861 57.8738 0.402993 57.8502 0.416672 57.8229L0.654672 57.3445C0.668699 57.3114 0.691925 57.283 0.721632 57.2625C0.751339 57.242 0.7863 57.2304 0.822426 57.2289C0.858552 57.2275 0.894349 57.2363 0.925631 57.2543C0.956913 57.2723 0.982386 57.2987 0.999072 57.3306Z" fill="white"/>
<path d="M1.89844 16.4084L2.13644 16.884C2.15012 16.9113 2.17025 16.935 2.19512 16.9529C2.21998 16.9708 2.24884 16.9825 2.27924 16.9869L2.80844 17.0648C2.84368 17.0697 2.87682 17.0844 2.9041 17.1071C2.93138 17.1298 2.95172 17.1596 2.9628 17.1932C2.97387 17.2268 2.97525 17.2628 2.96678 17.2971C2.9583 17.3314 2.94031 17.3627 2.91484 17.3874L2.53124 17.7573C2.50951 17.7795 2.49316 17.8063 2.48346 17.8357C2.47375 17.8651 2.47094 17.8963 2.47524 17.9269L2.56764 18.4498C2.57438 18.4851 2.57082 18.5217 2.55739 18.5551C2.54396 18.5885 2.52121 18.6174 2.49181 18.6384C2.46241 18.6595 2.42759 18.6717 2.39142 18.6738C2.35526 18.6758 2.31925 18.6676 2.28764 18.65L1.81444 18.4025C1.78659 18.3888 1.75592 18.3816 1.72484 18.3816C1.69375 18.3816 1.66309 18.3888 1.63524 18.4025L1.16204 18.65C1.13042 18.6676 1.09442 18.6758 1.05825 18.6738C1.02209 18.6717 0.98726 18.6595 0.957863 18.6384C0.928466 18.6174 0.905717 18.5885 0.892286 18.5551C0.878855 18.5217 0.8753 18.4851 0.882038 18.4498L0.971637 17.9269C0.976604 17.8963 0.974113 17.8649 0.964371 17.8354C0.954629 17.8059 0.937919 17.7791 0.915637 17.7573L0.534838 17.3874C0.509421 17.3629 0.49139 17.3318 0.482772 17.2977C0.474154 17.2636 0.475291 17.2277 0.486055 17.1942C0.496819 17.1607 0.516783 17.1308 0.543702 17.108C0.570622 17.0851 0.60343 17.0702 0.638438 17.0648L1.17044 16.9869C1.20083 16.9825 1.22969 16.9708 1.25456 16.9529C1.27943 16.935 1.29956 16.9113 1.31324 16.884L1.54844 16.4084C1.564 16.3754 1.58873 16.3474 1.61973 16.3278C1.65073 16.3083 1.6867 16.2979 1.72344 16.2979C1.76017 16.2979 1.79615 16.3083 1.82715 16.3278C1.85814 16.3474 1.88287 16.3754 1.89844 16.4084Z" fill="white"/>
<path d="M32.0881 -2.26553L32.3233 -1.78718C32.3375 -1.75965 32.3581 -1.73592 32.3834 -1.718C32.4088 -1.70009 32.4381 -1.68852 32.4689 -1.68428L32.9981 -1.6064C33.0334 -1.60147 33.0665 -1.58682 33.0938 -1.56413C33.1211 -1.54144 33.1414 -1.5116 33.1525 -1.47801C33.1636 -1.44442 33.165 -1.40842 33.1565 -1.37409C33.148 -1.33976 33.13 -1.30848 33.1045 -1.28379L32.7181 -0.913902C32.6959 -0.892112 32.6792 -0.865342 32.6694 -0.835829C32.6597 -0.806316 32.6572 -0.774917 32.6621 -0.744253L32.7545 -0.221399C32.7601 -0.186307 32.7558 -0.150363 32.742 -0.117569C32.7283 -0.0847745 32.7056 -0.056417 32.6766 -0.0356574C32.6476 -0.0148981 32.6133 -0.00255179 32.5776 8.34465e-06C32.542 0.00256872 32.5063 -0.00475764 32.4745 -0.0211568L32.0013 -0.268677C31.974 -0.28237 31.9438 -0.289503 31.9131 -0.289503C31.8825 -0.289503 31.8523 -0.28237 31.8249 -0.268677L31.3517 -0.0211568C31.3201 -0.00359726 31.2841 0.00463939 31.248 0.00258636C31.2118 0.000533342 31.177 -0.0117252 31.1476 -0.0327485C31.1182 -0.0537717 31.0954 -0.0826893 31.082 -0.116105C31.0686 -0.14952 31.065 -0.186047 31.0717 -0.221399L31.1613 -0.744253C31.1663 -0.774917 31.1638 -0.806316 31.1541 -0.835829C31.1443 -0.865342 31.1276 -0.892112 31.1053 -0.913902L30.7273 -1.28657C30.7019 -1.31126 30.6839 -1.34254 30.6754 -1.37687C30.6669 -1.4112 30.6683 -1.4472 30.6794 -1.48079C30.6905 -1.51438 30.7108 -1.54422 30.7381 -1.56691C30.7654 -1.58961 30.7985 -1.60425 30.8337 -1.60919L31.3629 -1.68706C31.3939 -1.69083 31.4234 -1.70221 31.4489 -1.72018C31.4743 -1.73815 31.4948 -1.76213 31.5085 -1.78996L31.7437 -2.26831C31.7602 -2.29975 31.785 -2.32605 31.8156 -2.34432C31.8461 -2.36259 31.8811 -2.37211 31.9168 -2.37182C31.9525 -2.37153 31.9873 -2.36145 32.0176 -2.34269C32.0478 -2.32393 32.0722 -2.29723 32.0881 -2.26553Z" fill="white"/>
<path d="M17.0384 32.2816L17.1812 32.5597C17.1893 32.5766 17.2014 32.5913 17.2165 32.6025C17.2317 32.6136 17.2494 32.6209 17.268 32.6237L17.5844 32.6682C17.6055 32.6715 17.6252 32.6806 17.6413 32.6945C17.6575 32.7083 17.6694 32.7264 17.6758 32.7466C17.6822 32.7668 17.6828 32.7884 17.6776 32.8089C17.6723 32.8295 17.6614 32.8481 17.646 32.8628L17.4192 33.0826C17.4059 33.0953 17.3959 33.1111 17.39 33.1285C17.3842 33.146 17.3827 33.1645 17.3856 33.1827L17.4388 33.4969C17.4421 33.5177 17.4396 33.5389 17.4315 33.5583C17.4234 33.5777 17.4101 33.5946 17.393 33.6069C17.3759 33.6193 17.3558 33.6267 17.3347 33.6284C17.3136 33.6301 17.2925 33.626 17.2736 33.6165L16.9936 33.4691C16.9771 33.4608 16.9589 33.4565 16.9404 33.4565C16.9219 33.4565 16.9037 33.4608 16.8872 33.4691L16.6072 33.6165C16.5883 33.626 16.5672 33.6301 16.5461 33.6284C16.5251 33.6267 16.5049 33.6193 16.4878 33.6069C16.4707 33.5946 16.4574 33.5777 16.4493 33.5583C16.4412 33.5389 16.4387 33.5177 16.442 33.4969L16.4952 33.1827C16.4981 33.1645 16.4966 33.146 16.4908 33.1285C16.4849 33.1111 16.4749 33.0953 16.4616 33.0826L16.232 32.8628C16.2166 32.848 16.2057 32.8291 16.2006 32.8083C16.1955 32.7876 16.1963 32.7658 16.203 32.7455C16.2097 32.7252 16.222 32.7072 16.2385 32.6936C16.2551 32.6799 16.2751 32.6711 16.2964 32.6682L16.6128 32.6237C16.6313 32.6205 16.6488 32.613 16.6638 32.6019C16.6789 32.5908 16.6912 32.5763 16.6996 32.5597L16.8396 32.2816C16.8497 32.2643 16.8642 32.2499 16.8816 32.2399C16.8991 32.2299 16.9189 32.2246 16.939 32.2246C16.9591 32.2246 16.9789 32.2299 16.9964 32.2399C17.0138 32.2499 17.0283 32.2643 17.0384 32.2816Z" fill="white"/>
<path d="M61.8981 2.25586L62.0381 2.53398C62.0467 2.55024 62.0591 2.56425 62.0742 2.57488C62.0892 2.58551 62.1066 2.59246 62.1249 2.59516L62.4413 2.63966C62.4624 2.643 62.4821 2.6521 62.4983 2.66595C62.5144 2.67981 62.5264 2.69785 62.5328 2.71807C62.5392 2.73829 62.5398 2.75988 62.5345 2.78041C62.5292 2.80095 62.5183 2.81963 62.5029 2.83434L62.2761 3.05683C62.2626 3.06945 62.2525 3.0852 62.2466 3.10268C62.2408 3.12015 62.2394 3.1388 62.2425 3.15695L62.2957 3.46844C62.3002 3.48943 62.2985 3.51126 62.2907 3.5313C62.283 3.55134 62.2696 3.56873 62.2521 3.58137C62.2347 3.59401 62.2139 3.60137 62.1923 3.60255C62.1708 3.60373 62.1493 3.59868 62.1305 3.58802L61.8505 3.44062C61.8341 3.43232 61.8158 3.42799 61.7973 3.42799C61.7789 3.42799 61.7606 3.43232 61.7441 3.44062L61.4641 3.58802C61.4454 3.59868 61.4239 3.60373 61.4023 3.60255C61.3808 3.60137 61.36 3.59401 61.3425 3.58137C61.3251 3.56873 61.3117 3.55134 61.3039 3.5313C61.2962 3.51126 61.2945 3.48943 61.2989 3.46844L61.3521 3.15695C61.3553 3.1388 61.3539 3.12015 61.3481 3.10268C61.3422 3.0852 61.332 3.06945 61.3185 3.05683L61.0889 2.83434C61.0735 2.81944 61.0626 2.80055 61.0575 2.77981C61.0524 2.75907 61.0532 2.73731 61.0599 2.71702C61.0666 2.69673 61.079 2.67872 61.0955 2.66505C61.112 2.65137 61.132 2.64257 61.1533 2.63966L61.4697 2.59516C61.488 2.59246 61.5054 2.58551 61.5205 2.57488C61.5356 2.56425 61.5479 2.55024 61.5565 2.53398L61.6965 2.25586C61.707 2.23858 61.7218 2.22429 61.7394 2.21436C61.7571 2.20444 61.777 2.19922 61.7973 2.19922C61.8176 2.19922 61.8376 2.20444 61.8552 2.21436C61.8729 2.22429 61.8877 2.23858 61.8981 2.25586Z" fill="white"/>
<path d="M99.2775 30.0396L99.4175 30.3178C99.4261 30.334 99.4385 30.348 99.4536 30.3587C99.4687 30.3693 99.486 30.3762 99.5043 30.3789L99.8207 30.4234C99.842 30.4264 99.8621 30.4352 99.8786 30.4488C99.8951 30.4625 99.9074 30.4805 99.9141 30.5008C99.9209 30.5211 99.9217 30.5429 99.9166 30.5636C99.9114 30.5843 99.9006 30.6032 99.8851 30.6181L99.6555 30.8406C99.642 30.8532 99.6319 30.869 99.626 30.8865C99.6202 30.9039 99.6188 30.9226 99.6219 30.9407L99.6779 31.2522C99.6816 31.2733 99.6792 31.2951 99.6711 31.3149C99.6629 31.3347 99.6492 31.3519 99.6317 31.3643C99.6142 31.3768 99.5934 31.3841 99.5719 31.3855C99.5504 31.3868 99.5289 31.3821 99.5099 31.3718L99.2299 31.2244C99.2135 31.2161 99.1952 31.2118 99.1767 31.2118C99.1583 31.2118 99.14 31.2161 99.1235 31.2244L98.8435 31.3718C98.8248 31.3825 98.8033 31.3875 98.7818 31.3863C98.7602 31.3852 98.7394 31.3778 98.7219 31.3652C98.7045 31.3525 98.6911 31.3351 98.6833 31.3151C98.6756 31.2951 98.6739 31.2732 98.6783 31.2522L98.7315 30.9407C98.7347 30.9226 98.7333 30.9039 98.7275 30.8865C98.7216 30.869 98.7115 30.8532 98.6979 30.8406L98.4711 30.6181C98.4558 30.6034 98.4449 30.5847 98.4396 30.5642C98.4343 30.5437 98.4349 30.5221 98.4413 30.5019C98.4477 30.4816 98.4597 30.4636 98.4758 30.4497C98.492 30.4359 98.5117 30.4268 98.5327 30.4234L98.8491 30.3789C98.8676 30.3767 98.8852 30.3699 98.9003 30.3592C98.9155 30.3486 98.9277 30.3343 98.9359 30.3178L99.0787 30.0396C99.0888 30.0223 99.1033 30.0079 99.1208 29.9979C99.1382 29.9879 99.158 29.9827 99.1781 29.9827C99.1983 29.9827 99.2181 29.9879 99.2355 29.9979C99.253 30.0079 99.2675 30.0223 99.2775 30.0396Z" fill="white"/>
<path d="M16.202 7.09525C16.4077 7.09525 16.5744 6.92964 16.5744 6.72536C16.5744 6.52107 16.4077 6.35547 16.202 6.35547C15.9963 6.35547 15.8296 6.52107 15.8296 6.72536C15.8296 6.92964 15.9963 7.09525 16.202 7.09525Z" fill="white"/>
<path d="M87.5692 71.2251C87.7749 71.2251 87.9416 71.0595 87.9416 70.8552C87.9416 70.651 87.7749 70.4854 87.5692 70.4854C87.3635 70.4854 87.1968 70.651 87.1968 70.8552C87.1968 71.0595 87.3635 71.2251 87.5692 71.2251Z" fill="white"/>
<path d="M93.762 14.3975C93.9677 14.3975 94.1344 14.2319 94.1344 14.0276C94.1344 13.8233 93.9677 13.6577 93.762 13.6577C93.5564 13.6577 93.3896 13.8233 93.3896 14.0276C93.3896 14.2319 93.5564 14.3975 93.762 14.3975Z" fill="white"/>
<path d="M19.1637 44.6712C19.1637 44.7443 19.1419 44.8158 19.101 44.8767C19.0601 44.9375 19.0019 44.9849 18.9339 45.0129C18.8658 45.0409 18.7909 45.0482 18.7187 45.0339C18.6465 45.0197 18.5801 44.9845 18.528 44.9327C18.4759 44.881 18.4405 44.8151 18.4261 44.7433C18.4117 44.6716 18.4191 44.5972 18.4473 44.5296C18.4755 44.462 18.5232 44.4043 18.5845 44.3636C18.6457 44.323 18.7177 44.3013 18.7913 44.3013C18.8404 44.3009 18.8889 44.3102 18.9343 44.3287C18.9796 44.3471 19.0208 44.3744 19.0555 44.4088C19.0902 44.4432 19.1176 44.4841 19.1362 44.5292C19.1547 44.5742 19.1641 44.6225 19.1637 44.6712Z" fill="white"/>
<path d="M83.3137 4.65598C87.6686 3.95384 90.6259 -0.121879 89.919 -4.4474C89.2121 -8.77293 85.1087 -11.7103 80.7538 -11.0081C76.399 -10.306 73.4417 -6.23028 74.1486 -1.90476C74.8555 2.42077 78.9589 5.35811 83.3137 4.65598Z" fill="white"/>
<path d="M82.1443 2.5321C82.4079 2.48666 82.6581 2.38379 82.8769 2.23088C83.0957 2.07796 83.2777 1.8788 83.4099 1.64771C82.989 1.86535 82.5364 2.01642 82.0687 2.09547C81.6009 2.17824 81.1231 2.1895 80.6519 2.12884C80.8551 2.30146 81.0944 2.42717 81.3525 2.4969C81.6105 2.56663 81.8809 2.57865 82.1443 2.5321Z" fill="white"/>
<path d="M77.6986 -0.524821C77.8326 -0.295148 78.016 -0.0977468 78.2358 0.0532312C78.4555 0.204209 78.7062 0.305025 78.9698 0.348455C78.2724 -0.29595 77.7849 -1.13275 77.5698 -2.05444C77.4768 -1.80575 77.4401 -1.53974 77.4624 -1.27535C77.4846 -1.01097 77.5653 -0.754712 77.6986 -0.524821Z" fill="white"/>
<path d="M85.2182 -0.110983C85.4288 -0.274703 85.6002 -0.48292 85.7198 -0.720544C85.8394 -0.958168 85.9043 -1.21925 85.9098 -1.48486C85.6434 -1.09253 85.3165 -0.744328 84.941 -0.453063C84.5687 -0.159904 84.1531 0.0746012 83.709 0.24222C83.9712 0.298546 84.2427 0.296067 84.5038 0.234965C84.7648 0.173863 85.0089 0.0556768 85.2182 -0.110983Z" fill="white"/>
<path d="M53.9975 88.1571C69.9455 88.1571 82.8739 87.4075 82.8739 86.4828C82.8739 85.5582 69.9455 84.8086 53.9975 84.8086C38.0495 84.8086 25.1211 85.5582 25.1211 86.4828C25.1211 87.4075 38.0495 88.1571 53.9975 88.1571Z" fill="white"/>
<path d="M31.5974 16.0747C31.4848 15.9137 31.3392 15.7782 31.1701 15.677C31.0011 15.5758 30.8124 15.5113 30.6165 15.4877C30.4206 15.464 30.2218 15.4818 30.0333 15.5398C29.8448 15.5979 29.6707 15.6948 29.5226 15.8244C29.3695 15.9553 29.2415 16.1127 29.1446 16.2888C28.843 16.1318 28.5005 16.0696 28.1625 16.1103C27.8244 16.151 27.5069 16.2928 27.2518 16.5169C26.9228 16.8032 26.6938 17.1858 26.5977 17.6096C26.5016 18.0334 26.5434 18.4765 26.717 18.8753C26.4186 19.1677 26.2336 19.5554 26.1947 19.97C26.1558 20.3847 26.2654 20.7996 26.5042 21.1419L26.577 21.2337C26.427 21.3682 26.3308 21.5519 26.3061 21.7511C26.2815 21.9503 26.3299 22.1517 26.4426 22.3183C26.4968 22.3967 26.5671 22.4627 26.6488 22.5122C26.7306 22.5616 26.8219 22.5933 26.9169 22.6051C27.0119 22.6169 27.1083 22.6086 27.1998 22.5808C27.2913 22.5529 27.3758 22.5061 27.4478 22.4435L32.5802 18.1188C32.8156 17.9148 32.9668 17.6314 33.0045 17.3234C33.0422 17.0153 32.9639 16.7043 32.7846 16.4501C32.6545 16.2681 32.4683 16.133 32.2542 16.0653C32.04 15.9976 31.8095 16.0009 31.5974 16.0747Z" fill="auto"/>
<path opacity="0.8" d="M31.5974 16.0747C31.4848 15.9137 31.3392 15.7782 31.1701 15.677C31.0011 15.5758 30.8124 15.5113 30.6165 15.4877C30.4206 15.464 30.2218 15.4818 30.0333 15.5398C29.8448 15.5979 29.6707 15.6948 29.5226 15.8244C29.3695 15.9553 29.2415 16.1127 29.1446 16.2888C28.843 16.1318 28.5005 16.0696 28.1625 16.1103C27.8244 16.151 27.5069 16.2928 27.2518 16.5169C26.9228 16.8032 26.6938 17.1858 26.5977 17.6096C26.5016 18.0334 26.5434 18.4765 26.717 18.8753C26.4186 19.1677 26.2336 19.5554 26.1947 19.97C26.1558 20.3847 26.2654 20.7996 26.5042 21.1419L26.577 21.2337C26.427 21.3682 26.3308 21.5519 26.3061 21.7511C26.2815 21.9503 26.3299 22.1517 26.4426 22.3183C26.4968 22.3967 26.5671 22.4627 26.6488 22.5122C26.7306 22.5616 26.8219 22.5933 26.9169 22.6051C27.0119 22.6169 27.1083 22.6086 27.1998 22.5808C27.2913 22.5529 27.3758 22.5061 27.4478 22.4435L32.5802 18.1188C32.8156 17.9148 32.9668 17.6314 33.0045 17.3234C33.0422 17.0153 32.9639 16.7043 32.7846 16.4501C32.6545 16.2681 32.4683 16.133 32.2542 16.0653C32.04 15.9976 31.8095 16.0009 31.5974 16.0747Z" fill="white"/>
<path d="M16.8551 60.4555C16.6153 60.5515 16.3987 60.6967 16.2193 60.8816C16.04 61.0664 15.9019 61.2868 15.8141 61.5283C15.7264 61.7698 15.691 62.027 15.7101 62.283C15.7293 62.5391 15.8027 62.7882 15.9255 63.0142C16.0477 63.2467 16.213 63.4543 16.4127 63.626C16.1234 63.9628 15.9434 64.3787 15.8965 64.8189C15.8495 65.2592 15.9377 65.7033 16.1495 66.0929C16.4218 66.5929 16.8462 66.9948 17.3621 67.241C17.878 67.4872 18.4591 67.5653 19.0223 67.464C19.3114 67.9264 19.7553 68.273 20.276 68.4429C20.7967 68.6127 21.361 68.595 21.8699 68.3929L22.0071 68.3289C22.1331 68.5607 22.3406 68.7384 22.5899 68.8282C22.8393 68.9179 23.1132 68.9134 23.3595 68.8156C23.4759 68.7697 23.5812 68.6998 23.6684 68.6105C23.7557 68.5213 23.823 68.4148 23.8658 68.2979C23.9087 68.181 23.9261 68.0564 23.917 67.9323C23.9079 67.8083 23.8725 67.6875 23.8131 67.578L19.7671 59.8103C19.5742 59.4557 19.2567 59.184 18.875 59.0471C18.4934 58.9101 18.0744 58.9175 17.6979 59.0677C17.4244 59.1764 17.1942 59.3707 17.042 59.6211C16.8899 59.8716 16.8243 60.1646 16.8551 60.4555Z" fill="auto"/>
<path opacity="0.8" d="M16.8551 60.4555C16.6153 60.5515 16.3987 60.6967 16.2193 60.8816C16.04 61.0664 15.9019 61.2868 15.8141 61.5283C15.7264 61.7698 15.691 62.027 15.7101 62.283C15.7293 62.5391 15.8027 62.7882 15.9255 63.0142C16.0477 63.2467 16.213 63.4543 16.4127 63.626C16.1234 63.9628 15.9434 64.3787 15.8965 64.8189C15.8495 65.2592 15.9377 65.7033 16.1495 66.0929C16.4218 66.5929 16.8462 66.9948 17.3621 67.241C17.878 67.4872 18.4591 67.5653 19.0223 67.464C19.3114 67.9264 19.7553 68.273 20.276 68.4429C20.7967 68.6127 21.361 68.595 21.8699 68.3929L22.0071 68.3289C22.1331 68.5607 22.3406 68.7384 22.5899 68.8282C22.8393 68.9179 23.1132 68.9134 23.3595 68.8156C23.4759 68.7697 23.5812 68.6998 23.6684 68.6105C23.7557 68.5213 23.823 68.4148 23.8658 68.2979C23.9087 68.181 23.9261 68.0564 23.917 67.9323C23.9079 67.8083 23.8725 67.6875 23.8131 67.578L19.7671 59.8103C19.5742 59.4557 19.2567 59.184 18.875 59.0471C18.4934 58.9101 18.0744 58.9175 17.6979 59.0677C17.4244 59.1764 17.1942 59.3707 17.042 59.6211C16.8899 59.8716 16.8243 60.1646 16.8551 60.4555Z" fill="white"/>
<path d="M92.1527 33.8864C92.1775 33.8797 92.2019 33.8713 92.2255 33.8613C92.3878 33.7927 92.5335 33.6907 92.6531 33.5619C92.7727 33.4332 92.8634 33.2807 92.9193 33.1146C92.9751 32.9484 92.9948 32.7724 92.9771 32.5981C92.9593 32.4239 92.9045 32.2553 92.8163 32.1037C92.7718 32.0266 92.7212 31.9531 92.6651 31.8839C93.1551 31.4258 93.4751 30.8169 93.5731 30.1556C93.6712 29.4944 93.5417 28.8196 93.2055 28.2407C92.8744 27.6501 92.3785 27.1672 91.7775 26.8501C92.0163 26.3896 92.1352 25.8771 92.1235 25.3593C92.1117 24.8414 91.9697 24.3348 91.7103 23.8854C91.4495 23.4288 91.0944 23.0321 90.6683 22.7215C90.2422 22.4109 89.7547 22.1934 89.2379 22.0832C89.3025 21.785 89.2558 21.4737 89.1063 21.2072C88.9198 20.8855 88.6206 20.6434 88.2658 20.5269C87.911 20.4105 87.5254 20.4279 87.1827 20.5759C86.9384 20.6825 86.7338 20.8624 86.5975 21.0904C86.1477 20.8151 85.6376 20.6519 85.1106 20.6146C84.5836 20.5773 84.0553 20.667 83.5707 20.8762C83.2212 21.0247 82.9073 21.245 82.6498 21.5227C82.3922 21.8004 82.1968 22.1292 82.0764 22.4873C81.9561 22.8455 81.9135 23.2249 81.9514 23.6006C81.9894 23.9762 82.1071 24.3397 82.2967 24.6669L88.1123 35.085C88.3973 35.5759 88.8543 35.9453 89.3961 36.1228C89.9378 36.3003 90.5265 36.2734 91.0495 36.0473C91.4594 35.8728 91.7944 35.5607 91.996 35.1657C92.1977 34.7707 92.2532 34.3179 92.1527 33.8864Z" fill="auto"/>
<path opacity="0.8" d="M92.1527 33.8864C92.1775 33.8797 92.2019 33.8713 92.2255 33.8613C92.3878 33.7927 92.5335 33.6907 92.6531 33.5619C92.7727 33.4332 92.8634 33.2807 92.9193 33.1146C92.9751 32.9484 92.9948 32.7724 92.9771 32.5981C92.9593 32.4239 92.9045 32.2553 92.8163 32.1037C92.7718 32.0266 92.7212 31.9531 92.6651 31.8839C93.1551 31.4258 93.4751 30.8169 93.5731 30.1556C93.6712 29.4944 93.5417 28.8196 93.2055 28.2407C92.8744 27.6501 92.3785 27.1672 91.7775 26.8501C92.0163 26.3896 92.1352 25.8771 92.1235 25.3593C92.1117 24.8414 91.9697 24.3348 91.7103 23.8854C91.4495 23.4288 91.0944 23.0321 90.6683 22.7215C90.2422 22.4109 89.7547 22.1934 89.2379 22.0832C89.3025 21.785 89.2558 21.4737 89.1063 21.2072C88.9198 20.8855 88.6206 20.6434 88.2658 20.5269C87.911 20.4105 87.5254 20.4279 87.1827 20.5759C86.9384 20.6825 86.7338 20.8624 86.5975 21.0904C86.1477 20.8151 85.6376 20.6519 85.1106 20.6146C84.5836 20.5773 84.0553 20.667 83.5707 20.8762C83.2212 21.0247 82.9073 21.245 82.6498 21.5227C82.3922 21.8004 82.1968 22.1292 82.0764 22.4873C81.9561 22.8455 81.9135 23.2249 81.9514 23.6006C81.9894 23.9762 82.1071 24.3397 82.2967 24.6669L88.1123 35.085C88.3973 35.5759 88.8543 35.9453 89.3961 36.1228C89.9378 36.3003 90.5265 36.2734 91.0495 36.0473C91.4594 35.8728 91.7944 35.5607 91.996 35.1657C92.1977 34.7707 92.2532 34.3179 92.1527 33.8864Z" fill="white"/>
<path d="M23.0604 53.2577C22.6581 51.2427 22.4555 49.1934 22.4556 47.1392H22.7188C22.7184 49.1813 22.92 51.2185 23.3208 53.2215L23.0604 53.2577Z" fill="auto"/>
<path d="M83.4183 37.2662C83.0358 36.1401 82.588 35.0369 82.0771 33.9622L82.3179 33.8481C82.8326 34.934 83.2842 36.0483 83.6703 37.1855L83.4183 37.2662Z" fill="auto"/>
<path d="M81.517 32.8411C80.6214 31.1395 79.5688 29.5241 78.3726 28.0158L78.5798 27.8545C79.7869 29.3746 80.8489 31.0031 81.7522 32.7187L81.517 32.8411Z" fill="auto"/>
<path d="M22.7639 45.4339L22.4839 45.4172C22.5259 44.6997 22.5903 43.9794 22.6771 43.2729L22.9403 43.3063C22.8675 44.0127 22.8031 44.7303 22.7639 45.4339Z" fill="auto"/>
<path d="M53.8827 77.4342C70.7276 77.4342 84.3831 63.8708 84.3831 47.1394C84.3831 30.408 70.7276 16.8445 53.8827 16.8445C37.0378 16.8445 23.3823 30.408 23.3823 47.1394C23.3823 63.8708 37.0378 77.4342 53.8827 77.4342Z" fill="auto"/>
<g opacity="0.3">
<path d="M29.3885 33.0386C29.1813 31.9373 28.9947 30.8739 28.8285 29.8486C27.5406 31.6832 26.4615 33.6541 25.6113 35.7252C27.4929 34.8074 29.3857 33.033 29.3885 33.0386Z" fill="white"/>
<path d="M35.0689 67.5275C35.7885 66.5541 36.3009 65.6169 35.9817 64.6435C35.6625 63.6701 31.9805 62.5966 32.0001 62.5938C31.1415 62.0598 30.2921 61.5184 29.4521 60.9696C29.4462 60.2163 29.1448 59.495 28.6121 58.9588C28.3318 58.7102 28.002 58.5229 27.6441 58.4088C27.2862 58.2948 26.9082 58.2567 26.5345 58.2969C25.8737 57.4125 25.2297 56.5216 24.6025 55.6243C26.3686 61.6297 29.9632 66.9449 34.8925 70.8398C35.0437 70.4644 35.6373 68.868 35.0689 67.5275Z" fill="white"/>
<path d="M33.9837 25.6116L35.0393 26.115C35.7505 24.8551 36.4729 23.6676 37.2037 22.5718C39.3457 21.604 41.4961 20.714 43.6045 19.9158C43.8677 19.3596 44.1337 18.8256 44.3969 18.3445C40.5553 19.5932 37.0028 21.59 33.9473 24.2182C33.9557 24.6716 33.9641 25.1332 33.9837 25.6116Z" fill="white"/>
<path d="M44.1596 24.1069C45.3132 24.2098 46.1 22.6802 46.0972 22.6969C45.9292 22.3631 45.764 22.0378 45.6016 21.7207C44.5264 22.0378 43.4474 22.3669 42.3648 22.708C42.3592 22.6941 43.0032 23.979 44.1596 24.1069Z" fill="white"/>
<path d="M50.8733 31.5308C50.3693 30.5648 49.8765 29.6266 49.3949 28.7163C49.1821 28.1601 48.9749 27.6261 48.7677 27.0977C48.4877 27.5343 48.1797 27.9793 47.8857 28.4298L48.9189 29.9761C48.7099 30.892 48.4989 31.8311 48.2861 32.7934C49.1523 32.3577 50.0147 31.9368 50.8733 31.5308Z" fill="white"/>
<path d="M46.4654 30.2008C46.3534 30.8377 46.2386 31.4885 46.1294 32.1476L47.5882 31.469C47.8122 31.0185 48.0334 30.5707 48.2574 30.1313L47.4034 29.55L46.4654 30.2008Z" fill="white"/>
<path d="M68.0541 20.309L66.8781 20.4648C66.0157 21.0405 65.1057 21.6718 64.1481 22.3504C64.1014 22.7212 64.051 23.105 63.9969 23.5018L62.9861 23.563C62.3066 22.8399 61.6365 22.1529 60.9757 21.5022L62.6361 21.7385L63.5041 21.7691C63.5461 21.5327 63.5881 21.3019 63.6301 21.0739C61.8633 20.2951 60.1245 19.5832 58.4417 18.9463C57.5821 19.3273 56.6917 19.7389 55.7789 20.1783C55.1545 21.2908 54.4825 22.5618 53.7825 23.9551C53.2897 24.2425 52.7941 24.5345 52.2957 24.8312C52.2957 25.6127 52.3181 26.4303 52.3321 27.2758C53.3998 27.7819 54.4788 28.3029 55.5689 28.8388C55.9665 28.4383 56.3604 28.0452 56.7505 27.6596C56.6721 26.7029 56.5937 25.786 56.5153 24.909C56.9549 23.9829 57.3777 23.1041 57.7809 22.2836L59.0325 22.2642C58.6797 22.8556 58.3157 23.4777 57.9405 24.1303C58.0301 24.7477 58.1234 25.3892 58.2205 26.0549L59.0969 26.5499C59.0969 26.6862 59.0773 26.828 59.0661 26.9643L58.6573 27.5038L59.1473 28.3382C59.0745 28.5329 58.9989 28.7275 58.9261 28.925C58.9597 29.2281 58.9933 29.5341 59.0297 29.8428C57.9732 29.9355 56.9138 30.0282 55.8517 30.1209C55.2553 29.5341 54.6645 28.9556 54.0793 28.3938L53.4969 28.5217C53.5417 29.1651 53.5893 29.8214 53.6397 30.4908L52.0801 31.1277C51.5425 31.6598 51.0021 32.1993 50.4589 32.7463C49.8168 33.0967 49.1756 33.4517 48.5353 33.8114L49.8009 35.3133C49.7785 35.8695 49.758 36.4359 49.7393 37.0125C48.7285 37.0598 47.7205 37.1126 46.7181 37.1655C46.6117 38.0147 46.5081 38.8712 46.4073 39.7353C46.4885 40.3443 46.5697 40.9589 46.6509 41.5736L48.2441 42.2466L50.3917 40.6141C50.8453 39.5313 51.297 38.4596 51.7469 37.3991L52.6233 36.9569L54.1437 37.0876C54.9949 37.7903 55.8489 38.5014 56.7057 39.2207C56.7701 39.6379 56.8373 40.0551 56.9045 40.4778L57.4365 40.2998C57.5233 39.8354 57.6101 39.3737 57.6941 38.9093C57.052 38.1806 56.4126 37.4566 55.7761 36.7372L56.3361 36.5425C57.0081 37.0042 57.6857 37.4686 58.3605 37.9331C58.6237 38.8601 58.8869 39.7992 59.1501 40.7504C59.5477 41.1703 59.9425 41.5847 60.3401 42.0158L61.1269 40.984C60.7685 40.5168 60.4092 40.0532 60.0489 39.5934L61.3257 38.8898C61.4228 39.4812 61.5161 40.0773 61.6057 40.6781C62.1657 41.34 62.7257 42.0028 63.2857 42.6666L65.5425 43.5009V44.5856L64.4225 44.8998H62.2721L59.6821 43.9876L58.9933 44.2129C58.9933 44.5633 58.9933 44.9137 58.9933 45.2614C57.5373 44.0015 56.0729 42.7361 54.6113 41.4846C52.5645 41.9212 50.5121 42.3606 48.4737 42.8056L47.5609 43.2117C47.0737 43.6956 46.5893 44.1823 46.1077 44.6662C46.0293 45.0917 45.9537 45.5144 45.8781 45.94C44.788 47.3509 43.7174 48.7498 42.6665 50.1367C42.6917 51.8054 42.7309 53.474 42.7841 55.0927C44.1393 56.6334 45.5057 58.1519 46.8581 59.6148C48.4728 59.3478 50.1033 59.0697 51.7497 58.7805C52.8044 59.2477 53.8516 59.7066 54.8913 60.1571C54.7401 60.8561 54.5889 61.5421 54.4377 62.2151C54.9277 62.8882 55.4065 63.5445 55.8825 64.1842C56.1532 65.2966 56.4154 66.3627 56.6693 67.3825C56.2418 68.037 55.82 68.6637 55.4037 69.2625C55.7229 70.0134 56.0309 70.7226 56.3249 71.3818C56.7897 72.7723 57.2097 73.9487 57.5709 74.8526C58.5042 74.7784 59.4376 74.6969 60.3709 74.6079C61.2109 74.0517 62.0509 73.4287 62.9273 72.7223C63.1653 72.472 63.4061 72.2133 63.6469 71.9463L64.3749 71.8128C64.3749 71.3261 64.3889 70.8116 64.3749 70.2693C65.2149 69.7409 66.0549 69.1847 66.9117 68.6006C67.0069 67.1044 67.0629 65.4496 67.0853 63.6725C68.4853 62.332 69.8853 60.9303 71.2853 59.5008C71.8117 58.3383 72.3297 57.1451 72.8337 55.9354C71.8518 56.1634 70.856 56.3905 69.8461 56.6167C68.3369 53.6771 66.6653 50.5539 64.9209 47.3834L65.7441 46.7938L66.4525 46.702C67.5585 48.7461 68.6309 50.7708 69.6417 52.7398C69.7481 53.5408 69.847 54.3334 69.9385 55.1177C71.2452 54.4725 72.5416 53.8235 73.8277 53.1709C74.6826 52.1289 75.5226 51.086 76.3477 50.0421C75.8717 49.4275 75.3845 48.8045 74.8861 48.1788H73.3573C72.493 47.3759 71.6092 46.5639 70.7057 45.7425L72.0273 45.1195C72.8897 45.8871 73.7474 46.6417 74.6005 47.3834L79.3185 48.0036C79.8449 48.8027 80.3545 49.5934 80.8473 50.3759L81.6341 50.145C81.7666 50.9886 81.8889 51.823 82.0009 52.648C82.3332 53.9663 82.6328 55.2512 82.8997 56.5027C85.1224 49.7 84.852 42.3358 82.1363 35.712C79.4207 29.0882 74.4346 23.6314 68.0597 20.3063L68.0541 20.309Z" fill="white"/>
<path d="M70.6483 68.5417C70.7407 68.0939 70.8303 67.6295 70.9283 67.1511C70.1247 67.7936 69.3183 68.4165 68.5175 69.0117C68.2179 69.846 67.9099 70.647 67.5991 71.3757L67.7811 71.8818L68.6715 71.8262C69.3267 70.8445 69.9931 69.7404 70.6483 68.5417Z" fill="white"/>
</g>
<path d="M25.2492 35.9794C25.237 35.9796 25.2249 35.9763 25.2145 35.9699C25.2041 35.9635 25.1957 35.9542 25.1904 35.9433C25.1825 35.9278 25.1809 35.9098 25.1862 35.8931C25.1914 35.8765 25.203 35.8626 25.2184 35.8543C26.5561 35.1413 27.7955 34.2599 28.906 33.2317L28.9396 33.2011C28.7408 32.1415 28.5588 31.0791 28.3992 30.0473C28.3983 30.0309 28.4036 30.0149 28.4138 30.0021C28.4241 29.9893 28.4388 29.9807 28.455 29.978C28.4713 29.9753 28.488 29.9785 28.5019 29.9872C28.5159 29.9959 28.5262 30.0093 28.5308 30.025C28.6904 31.0707 28.8752 32.1443 29.0768 33.215C29.0792 33.2269 29.078 33.2393 29.0736 33.2506C29.0691 33.262 29.0615 33.2718 29.0516 33.279L28.9928 33.3318C27.8739 34.3676 26.625 35.2557 25.2772 35.9739C25.2686 35.9784 25.2589 35.9803 25.2492 35.9794Z" fill="white"/>
<path d="M34.5063 71.094C34.4991 71.0968 34.4911 71.0968 34.4839 71.094C34.4757 71.0912 34.4682 71.0868 34.4618 71.0811C34.4553 71.0753 34.4501 71.0684 34.4465 71.0606C34.4428 71.0528 34.4408 71.0443 34.4405 71.0358C34.4402 71.0272 34.4416 71.0186 34.4447 71.0106C34.6743 70.4404 35.1531 68.9831 34.6267 67.7455C34.6213 67.7357 34.6185 67.7247 34.6185 67.7136C34.6185 67.7024 34.6213 67.6914 34.6267 67.6816C35.2847 66.7916 35.8503 65.8349 35.5311 64.8587C35.3463 64.3192 33.9407 63.5961 31.6755 62.8786C31.6421 62.8687 31.6093 62.8566 31.5775 62.8424C30.7207 62.3112 29.8639 61.7633 29.0295 61.2154C29.02 61.2082 29.0123 61.199 29.007 61.1884C29.0016 61.1778 28.9988 61.1661 28.9987 61.1542C28.9896 60.4237 28.6944 59.7253 28.1755 59.2075C27.9033 58.9654 27.5829 58.7829 27.2351 58.6717C26.8874 58.5606 26.5199 58.5233 26.1567 58.5622C26.1447 58.5643 26.1324 58.563 26.121 58.5586C26.1097 58.5542 26.0997 58.5468 26.0923 58.5372C25.4455 57.6723 24.7931 56.774 24.1575 55.8618C24.1477 55.8473 24.1439 55.8296 24.1471 55.8125C24.1502 55.7953 24.16 55.7801 24.1743 55.77C24.189 55.7609 24.2067 55.7576 24.2237 55.7606C24.2408 55.7637 24.2561 55.773 24.2667 55.7867C24.8939 56.6878 25.5379 57.5749 26.1763 58.4287C26.5537 58.3923 26.9345 58.4343 27.2946 58.5521C27.6547 58.6698 27.9862 58.8609 28.2679 59.1129C28.807 59.6512 29.116 60.3756 29.1303 61.1348C29.9535 61.6715 30.8103 62.2111 31.6503 62.7367L31.7231 62.7617C33.0783 63.19 35.3939 64.0299 35.6655 64.8253C36.0015 65.846 35.4359 66.8278 34.7639 67.7372C35.2875 69.0109 34.8059 70.4877 34.5707 71.0745C34.5628 71.0834 34.5526 71.0899 34.5413 71.0933C34.5299 71.0967 34.5178 71.097 34.5063 71.094Z" fill="white"/>
<path d="M34.6599 26.3649C34.6507 26.3674 34.641 26.3674 34.6319 26.3649L33.5791 25.8643C33.5685 25.859 33.5593 25.8511 33.5525 25.8414C33.5457 25.8317 33.5413 25.8205 33.5399 25.8087C33.5231 25.3888 33.5119 24.9438 33.5035 24.4182C33.5031 24.4095 33.5045 24.4009 33.5076 24.3928C33.5106 24.3847 33.5153 24.3773 33.5213 24.3711C33.5273 24.3649 33.5346 24.3599 33.5426 24.3565C33.5506 24.3531 33.5592 24.3514 33.5679 24.3514C33.585 24.3514 33.6013 24.3581 33.6134 24.3701C33.6255 24.3821 33.6323 24.3984 33.6323 24.4154C33.6323 24.9327 33.6519 25.3637 33.6687 25.7698L34.6319 26.2287C35.3431 24.9716 36.0627 23.7952 36.7683 22.7356C36.7748 22.7245 36.7845 22.7158 36.7963 22.7105C38.9187 21.7538 41.0635 20.8639 43.1775 20.0629C43.4351 19.5067 43.6983 18.9866 43.9587 18.5138C43.9617 18.5044 43.9668 18.4957 43.9736 18.4885C43.9804 18.4812 43.9888 18.4756 43.9981 18.4719C44.0073 18.4683 44.0173 18.4668 44.0273 18.4674C44.0372 18.4681 44.0469 18.471 44.0556 18.4758C44.0643 18.4807 44.0718 18.4874 44.0776 18.4955C44.0833 18.5036 44.0872 18.5128 44.0889 18.5226C44.0906 18.5323 44.0901 18.5424 44.0875 18.5519C44.0848 18.5615 44.08 18.5703 44.0735 18.5778C43.8131 19.0533 43.5471 19.5818 43.2867 20.1436C43.2782 20.1581 43.2655 20.1697 43.2503 20.1769C41.1363 20.9779 38.9915 21.8679 36.8691 22.8246C36.1579 23.8925 35.4327 25.0773 34.7159 26.3483C34.7084 26.355 34.6995 26.3601 34.6898 26.363C34.6801 26.3659 34.6699 26.3665 34.6599 26.3649Z" fill="white"/>
<path d="M47.9096 33.0303C47.902 33.0309 47.8943 33.03 47.8871 33.0276C47.8799 33.0252 47.8733 33.0214 47.8676 33.0164C47.8579 33.0091 47.8506 32.9991 47.8466 32.9878C47.8427 32.9764 47.8421 32.9641 47.8452 32.9524C48.0468 32.0291 48.2568 31.0891 48.4724 30.1713C48.1252 29.6568 47.7864 29.1478 47.4532 28.65C47.4458 28.6394 47.4419 28.6268 47.4419 28.6139C47.4419 28.601 47.4458 28.5883 47.4532 28.5777C47.75 28.1272 48.0468 27.6822 48.338 27.2455C48.3446 27.2349 48.3543 27.2266 48.3658 27.2216C48.3773 27.2167 48.3901 27.2153 48.4024 27.2177C48.4142 27.2194 48.4253 27.2241 48.4347 27.2314C48.444 27.2388 48.4512 27.2484 48.4556 27.2594L49.0828 28.8781C49.5616 29.7792 50.0544 30.7192 50.5584 31.6842C50.5618 31.6921 50.5635 31.7007 50.5635 31.7093C50.5635 31.7179 50.5618 31.7264 50.5584 31.7343C50.5519 31.7507 50.5401 31.7644 50.5248 31.7732C49.6708 32.1848 48.8 32.6076 47.9348 33.0359C47.926 33.0362 47.9173 33.0343 47.9096 33.0303ZM47.5876 28.6027L48.5984 30.1129C48.6039 30.1291 48.6039 30.1467 48.5984 30.1629C48.3912 31.0557 48.1896 31.9568 47.9936 32.8467C48.8 32.449 49.6064 32.0569 50.3988 31.6731C49.906 30.7303 49.4216 29.8097 48.9512 28.9198C48.7533 28.4062 48.5582 27.9047 48.366 27.4152C48.1121 27.8045 47.8526 28.2004 47.5876 28.6027Z" fill="white"/>
<path d="M45.7477 32.3986C45.735 32.4025 45.7213 32.4025 45.7085 32.3986C45.6986 32.3914 45.691 32.3816 45.6866 32.3702C45.6821 32.3589 45.681 32.3466 45.6833 32.3346C45.7953 31.6755 45.9073 31.0247 46.0221 30.3878C46.0243 30.3703 46.0333 30.3543 46.0473 30.3433L46.9853 29.6953C46.9967 29.6885 47.0098 29.6848 47.0231 29.6848C47.0365 29.6848 47.0495 29.6885 47.0609 29.6953L47.9009 30.2516L47.9261 30.2682C47.9397 30.2769 47.9495 30.2902 47.9536 30.3056C47.9578 30.3211 47.956 30.3375 47.9485 30.3517C47.7245 30.7911 47.5033 31.2389 47.2793 31.6894C47.2719 31.703 47.2601 31.7138 47.2457 31.72L45.7869 32.3986H45.7477ZM46.1565 30.4156C46.0501 31.0052 45.9465 31.606 45.8429 32.2123L47.1673 31.6004C47.3801 31.1721 47.5911 30.7494 47.8001 30.3322L47.0329 29.8094L46.1565 30.4156Z" fill="white"/>
<path d="M57.1885 75.0958C57.1753 75.0953 57.1626 75.0912 57.1517 75.0838C57.1408 75.0764 57.1322 75.0661 57.1269 75.0541C56.7741 74.1697 56.3541 73.0016 55.8809 71.5805C55.5869 70.9213 55.2761 70.2094 54.9625 69.464C54.9576 69.4546 54.9551 69.4441 54.9551 69.4334C54.9551 69.4228 54.9576 69.4123 54.9625 69.4028C55.3741 68.8049 55.8025 68.1819 56.2141 67.5478C55.9649 66.5522 55.7045 65.4953 55.4357 64.3912C54.9625 63.7516 54.4781 63.0924 53.9993 62.4305C53.9951 62.4223 53.993 62.4133 53.993 62.4041C53.993 62.3949 53.9951 62.3859 53.9993 62.3777C54.1449 61.7241 54.2793 61.0539 54.4417 60.3725C53.4309 59.9359 52.3977 59.4825 51.3617 59.0264C49.7069 59.3045 48.0661 59.5826 46.4897 59.8608C46.4791 59.8633 46.4679 59.8628 46.4575 59.8594C46.4471 59.8559 46.4379 59.8497 46.4309 59.8413C45.0813 58.3812 43.7121 56.8599 42.3541 55.3192C42.3461 55.3063 42.3405 55.2922 42.3373 55.2775C42.2841 53.6672 42.2449 51.9985 42.2197 50.3187C42.2201 50.3046 42.225 50.2909 42.2337 50.2798C43.2809 48.8892 44.3589 47.4986 45.4341 46.0942L45.6609 44.8371C45.6646 44.8245 45.6714 44.8131 45.6805 44.8037C46.1621 44.317 46.6465 43.8331 47.1337 43.3464C47.1402 43.3451 47.1469 43.3451 47.1533 43.3464L48.1109 42.9348C50.1689 42.487 52.2353 42.042 54.2709 41.611C54.2811 41.6083 54.2918 41.6082 54.3021 41.6106C54.3123 41.6131 54.3218 41.618 54.3297 41.6249C55.7297 42.8291 57.1689 44.0695 58.5997 45.3071C58.5997 45.0067 58.5997 44.7064 58.5997 44.406C58.5995 44.392 58.6037 44.3783 58.6117 44.3669C58.6198 44.3554 58.6313 44.3467 58.6445 44.342L59.3333 44.1168C59.3468 44.1114 59.3619 44.1114 59.3753 44.1168L61.9569 45.0262H64.0765L65.1405 44.7286C65.1405 44.3977 65.1405 44.0695 65.1405 43.7413L62.9257 42.9348L62.8977 42.9153C62.3377 42.2516 61.7777 41.5878 61.2177 40.924C61.2095 40.9155 61.2037 40.9049 61.2009 40.8934C61.1113 40.3372 61.0189 39.7587 60.9209 39.197L59.8009 39.8171L60.8313 41.1549C60.8395 41.1662 60.8439 41.1798 60.8439 41.1938C60.8439 41.2078 60.8395 41.2214 60.8313 41.2327L60.0445 42.2673C60.0385 42.2749 60.0308 42.281 60.0221 42.2853C60.0134 42.2897 60.0039 42.2921 59.9941 42.2924C59.9848 42.2934 59.9753 42.2921 59.9665 42.2887C59.9578 42.2853 59.9499 42.2799 59.9437 42.2729C59.5461 41.8464 59.1485 41.4237 58.7509 41.0047C58.7446 40.9963 58.7399 40.9869 58.7369 40.9769C58.4765 40.0396 58.2133 39.1052 57.9529 38.1957C57.2921 37.7359 56.6332 37.2817 55.9761 36.833L55.5337 36.9859C56.1497 37.6794 56.7676 38.3793 57.3873 39.0857C57.3931 39.0931 57.3974 39.1016 57.3998 39.1107C57.4022 39.1198 57.4027 39.1292 57.4013 39.1385C57.3173 39.6002 57.2305 40.0619 57.1437 40.5291C57.1419 40.5404 57.137 40.551 57.1296 40.5598C57.1222 40.5687 57.1126 40.5753 57.1017 40.5792L56.5669 40.7599C56.5581 40.7639 56.5486 40.766 56.5389 40.766C56.5293 40.766 56.5197 40.7639 56.5109 40.7599C56.5026 40.7555 56.4954 40.7492 56.49 40.7414C56.4847 40.7337 56.4813 40.7248 56.4801 40.7154L56.2869 39.4834C55.4413 38.7751 54.6013 38.0734 53.7669 37.3781L52.2885 37.2502L51.4485 37.6729C51.0033 38.7269 50.5525 39.7921 50.1045 40.8656C50.0996 40.8759 50.093 40.8853 50.0849 40.8934C49.3681 41.4367 48.6513 41.9809 47.9345 42.526C47.9242 42.5313 47.9126 42.5341 47.9009 42.5341C47.8892 42.5341 47.8777 42.5313 47.8673 42.526L46.2517 41.8196C46.2415 41.8151 46.2326 41.8082 46.2258 41.7994C46.2189 41.7907 46.2144 41.7804 46.2125 41.7695C46.1313 41.1521 46.0501 40.5402 45.9717 39.9284C46.0725 39.0496 46.1761 38.1902 46.2797 37.3419C46.2817 37.3269 46.289 37.3131 46.3003 37.3029C46.3115 37.2927 46.3261 37.2868 46.3413 37.2863L49.3037 37.1333C49.3233 36.5938 49.3401 36.0543 49.3625 35.5231L48.0941 34.0574C48.0875 34.0499 48.0825 34.041 48.0796 34.0314C48.0767 34.0218 48.0759 34.0117 48.0773 34.0018C48.079 33.9923 48.0829 33.9833 48.0887 33.9755C48.0946 33.9678 48.1022 33.9615 48.1109 33.9573C48.7531 33.5995 49.3915 33.2453 50.0261 32.8949C50.5693 32.3498 51.1079 31.813 51.6417 31.2846C51.6473 31.2776 51.6553 31.2726 51.6641 31.2707C52.1709 31.0621 52.6749 30.8535 53.1789 30.6505C53.1313 29.997 53.0837 29.3545 53.0389 28.7288C53.0372 28.713 53.0414 28.6972 53.0507 28.6844C53.06 28.6715 53.0738 28.6626 53.0893 28.6592L53.6745 28.5313C53.6854 28.5285 53.6968 28.5286 53.7076 28.5315C53.7184 28.5345 53.7282 28.5401 53.7361 28.548C54.3129 29.1042 54.9037 29.6799 55.4861 30.2556C56.5137 30.1583 57.5497 30.0637 58.5661 29.9775C58.5353 29.6994 58.5017 29.4213 58.4709 29.1265C58.4697 29.1163 58.4697 29.106 58.4709 29.0959L58.6809 28.5396C58.5241 28.2615 58.3673 27.9973 58.2077 27.7276C58.2011 27.7167 58.1975 27.7042 58.1975 27.6914C58.1975 27.6786 58.2011 27.6661 58.2077 27.6553L58.6053 27.1324L58.6305 26.7764L57.7905 26.3036C57.7816 26.2982 57.774 26.2909 57.7682 26.2822C57.7624 26.2736 57.7586 26.2638 57.7569 26.2536C57.6673 25.5916 57.574 24.9501 57.4769 24.329C57.4741 24.3153 57.4741 24.3011 57.4769 24.2873C57.8297 23.6782 58.1769 23.0831 58.5073 22.5213L57.4181 22.5407C57.0289 23.3334 56.6117 24.2094 56.1777 25.1105C56.2561 25.9921 56.3345 26.9127 56.4101 27.8444C56.4111 27.8541 56.4099 27.8639 56.4065 27.873C56.4031 27.8822 56.3976 27.8905 56.3905 27.8972C56.0023 28.2847 55.6084 28.6778 55.2089 29.0764C55.1979 29.0843 55.1847 29.0886 55.1711 29.0886C55.1576 29.0886 55.1443 29.0843 55.1333 29.0764C54.0609 28.5508 52.9717 28.0251 51.8965 27.5162C51.8855 27.5109 51.8762 27.5026 51.8698 27.4923C51.8633 27.4819 51.86 27.47 51.8601 27.4578C51.8452 26.6105 51.8331 25.7956 51.8237 25.0132C51.8233 25.0016 51.826 24.9902 51.8314 24.9799C51.8368 24.9697 51.8447 24.961 51.8545 24.9548C52.3511 24.66 52.8411 24.3717 53.3245 24.0898C54.0357 22.6798 54.7049 21.4144 55.3153 20.3242C55.3218 20.3131 55.3316 20.3044 55.3433 20.2992C56.2449 19.8653 57.1409 19.4648 58.0089 19.0671C58.0169 19.0637 58.0255 19.062 58.0341 19.062C58.0428 19.062 58.0514 19.0637 58.0593 19.0671C59.7393 19.704 61.4921 20.4187 63.2505 21.1975C63.2642 21.2034 63.2755 21.2138 63.2827 21.2269C63.2898 21.24 63.2922 21.2551 63.2897 21.2698C63.2487 21.496 63.2067 21.7268 63.1637 21.9623C63.16 21.978 63.1511 21.992 63.1384 22.0021C63.1257 22.0121 63.11 22.0177 63.0937 22.0179L62.2285 21.9873L60.7585 21.7759C61.3605 22.3739 61.9821 23.0108 62.6065 23.6782L63.5333 23.6226C63.5837 23.2472 63.6313 22.88 63.6761 22.5268C63.6791 22.5081 63.6891 22.4913 63.7041 22.4796C64.6617 21.801 65.5801 21.1641 66.4369 20.594C66.4461 20.5913 66.4558 20.5913 66.4649 20.594L67.6381 20.4382C67.647 20.437 67.6559 20.4376 67.6645 20.4399C67.6732 20.4423 67.6812 20.4463 67.6882 20.4517C67.6953 20.4571 67.7012 20.4639 67.7055 20.4716C67.7099 20.4793 67.7127 20.4878 67.7137 20.4966C67.7149 20.505 67.7144 20.5136 67.7122 20.5218C67.71 20.53 67.7062 20.5377 67.701 20.5444C67.6958 20.5512 67.6893 20.5568 67.6818 20.561C67.6744 20.5652 67.6662 20.5679 67.6577 20.5689L66.4985 20.7219C65.6585 21.2781 64.7485 21.9122 63.8049 22.5825C63.7573 22.944 63.7097 23.3195 63.6565 23.6949C63.6546 23.7102 63.6475 23.7244 63.6362 23.735C63.625 23.7457 63.6104 23.7521 63.5949 23.7533L62.5841 23.8145C62.5648 23.8135 62.5463 23.8067 62.5309 23.795C61.8505 23.0692 61.1757 22.3739 60.5233 21.7342C60.5154 21.7233 60.5111 21.7102 60.5111 21.6967C60.5111 21.6832 60.5154 21.67 60.5233 21.6591C60.5278 21.6458 60.5373 21.6346 60.5498 21.6279C60.5622 21.6212 60.5768 21.6194 60.5905 21.623C61.1505 21.6981 61.7105 21.7787 62.2509 21.8594L63.0545 21.8872C63.0909 21.6869 63.1273 21.4923 63.1609 21.3004C61.4305 20.5356 59.7113 19.8291 58.0509 19.2034C57.2109 19.5816 56.3149 19.9877 55.4329 20.4132C54.8225 21.5006 54.1561 22.7632 53.4477 24.1705C53.4406 24.1817 53.431 24.1912 53.4197 24.1983C52.9419 24.4764 52.4575 24.7619 51.9665 25.0549C51.9665 25.8114 51.9889 26.6012 52.0029 27.4189C53.0529 27.9167 54.1141 28.4284 55.1613 28.9429C55.5347 28.5628 55.908 28.192 56.2813 27.8305C56.2057 26.9016 56.1273 25.9866 56.0489 25.1105C56.0461 25.0996 56.0461 25.0881 56.0489 25.0771C56.4885 24.1427 56.9169 23.2583 57.3145 22.4518C57.3199 22.4408 57.3282 22.4316 57.3386 22.4252C57.349 22.4188 57.3611 22.4154 57.3733 22.4156L58.6221 22.3933C58.6444 22.3989 58.6648 22.4105 58.6809 22.4267C58.6866 22.437 58.6895 22.4484 58.6895 22.4601C58.6895 22.4718 58.6866 22.4832 58.6809 22.4935C58.3337 23.0775 57.9697 23.7005 57.6001 24.3374C57.6869 24.9409 57.7765 25.5666 57.8633 26.2091L58.7033 26.6902C58.7145 26.6958 58.7238 26.7046 58.7298 26.7156C58.7358 26.7265 58.7383 26.739 58.7369 26.7514L58.7089 27.1658C58.7073 27.1788 58.7025 27.1912 58.6949 27.2019L58.3113 27.7053C58.4681 27.9695 58.6221 28.2365 58.7789 28.5091C58.7861 28.5269 58.7861 28.5468 58.7789 28.5647L58.5633 29.1376C58.5969 29.4352 58.6305 29.7328 58.6641 30.0359C58.6655 30.0448 58.6649 30.0538 58.6625 30.0624C58.6601 30.071 58.6559 30.0791 58.6501 30.086C58.6448 30.0927 58.638 30.0982 58.6302 30.1021C58.6225 30.1059 58.614 30.108 58.6053 30.1082C57.5581 30.2 56.4913 30.3001 55.4273 30.4002C55.4176 30.4012 55.4077 30.4 55.3985 30.3966C55.3892 30.3932 55.3809 30.3878 55.3741 30.3808C54.7945 29.8078 54.2065 29.2349 53.6297 28.6787L53.1369 28.7872C53.1817 29.4101 53.2265 30.0498 53.2741 30.7006C53.2755 30.7144 53.272 30.7283 53.2644 30.7399C53.2568 30.7515 53.2454 30.7602 53.2321 30.7646L51.6865 31.3987C51.1545 31.9243 50.6169 32.461 50.0765 33.0034H50.0597L48.2061 34.0324L49.4409 35.4563C49.445 35.4709 49.445 35.4863 49.4409 35.5008C49.4213 36.0571 49.3989 36.63 49.3821 37.2001C49.3808 37.2163 49.3735 37.2315 49.3616 37.2428C49.3497 37.2541 49.3341 37.2607 49.3177 37.2613L46.3525 37.4142C46.2489 38.2486 46.1481 39.0829 46.0501 39.9173C46.1257 40.4985 46.2069 41.0992 46.2853 41.7027L47.8085 42.3452L49.9141 40.746C50.3621 39.6688 50.8111 38.6027 51.2609 37.5477C51.2672 37.5335 51.278 37.5218 51.2917 37.5144L52.1681 37.0722C52.1738 37.0694 52.18 37.068 52.1863 37.068C52.1926 37.068 52.1988 37.0694 52.2045 37.0722L53.7249 37.2029C53.7383 37.2033 53.7511 37.2082 53.7613 37.2168C54.6125 37.9195 55.4665 38.6305 56.3233 39.3499C56.335 39.3612 56.3428 39.3757 56.3457 39.3916L56.5305 40.5708L56.9533 40.429C57.0373 39.9877 57.1185 39.5483 57.1969 39.1107C56.5641 38.3876 55.9323 37.672 55.3013 36.9637C55.2966 36.9542 55.2942 36.9437 55.2942 36.9331C55.2942 36.9225 55.2966 36.912 55.3013 36.9025C55.3038 36.8921 55.309 36.8825 55.3163 36.8747C55.3237 36.8669 55.333 36.8611 55.3433 36.858L55.9033 36.6606C55.9126 36.6565 55.9226 36.6544 55.9327 36.6544C55.9429 36.6544 55.9529 36.6565 55.9621 36.6606C56.6379 37.1222 57.3127 37.5857 57.9865 38.0511C57.9932 38.0548 57.999 38.06 58.0033 38.0663C58.0077 38.0726 58.0106 38.0797 58.0117 38.0873C58.2749 39.0143 58.5372 39.9479 58.7985 40.8879L59.9185 42.0865L60.6269 41.1549C60.2797 40.7015 59.9297 40.251 59.5797 39.7977C59.5755 39.7895 59.5734 39.7804 59.5734 39.7713C59.5734 39.7621 59.5755 39.753 59.5797 39.7448C59.5848 39.7263 59.5968 39.7103 59.6133 39.7003L60.8873 38.9967C60.8968 38.9918 60.9074 38.9893 60.9181 38.9893C60.9288 38.9893 60.9394 38.9918 60.9489 38.9967C60.9584 39.0011 60.9667 39.0076 60.973 39.0159C60.9793 39.0241 60.9836 39.0338 60.9853 39.044C61.0833 39.6308 61.1785 40.2232 61.2653 40.8156C61.8253 41.4664 62.3788 42.1208 62.9257 42.7791C63.6724 43.0497 64.4191 43.3214 65.1657 43.5939C65.1783 43.5987 65.1893 43.6071 65.1972 43.6179C65.2052 43.6288 65.2098 43.6417 65.2105 43.6551C65.2105 44.0167 65.2105 44.3782 65.2105 44.7397C65.2115 44.754 65.2071 44.768 65.1984 44.7793C65.1896 44.7905 65.177 44.7982 65.1629 44.8009L64.0429 45.118H61.8533L59.2829 44.2113L58.6641 44.4171V45.435C58.665 45.4479 58.6619 45.4608 58.6552 45.4719C58.6486 45.4831 58.6387 45.4919 58.6269 45.4974C58.615 45.5028 58.6018 45.5045 58.589 45.5023C58.5761 45.5001 58.5643 45.4941 58.5549 45.4851C57.0989 44.2225 55.6317 42.9598 54.1981 41.7278C52.1849 42.1589 50.1325 42.6011 48.0941 43.0433L47.1617 43.4465C46.6839 43.923 46.2079 44.4004 45.7337 44.8788L45.5069 46.1303C45.5095 46.1403 45.5095 46.1509 45.5069 46.1609C44.4345 47.5515 43.3593 48.9559 42.3093 50.3326C42.3345 52.0013 42.3737 53.6477 42.4269 55.2413C43.7709 56.7654 45.1261 58.2727 46.4617 59.7161C48.0325 59.4575 49.6677 59.1822 51.3169 58.8818C51.3296 58.8776 51.3434 58.8776 51.3561 58.8818C52.4089 59.3463 53.4645 59.8107 54.4949 60.2557C54.5092 60.2618 54.5209 60.2726 54.528 60.2863C54.5352 60.3 54.5373 60.3157 54.5341 60.3308C54.3829 61.0205 54.2345 61.6991 54.0861 62.361C54.5649 63.0173 55.0437 63.6737 55.5141 64.3078C55.5153 64.3161 55.5153 64.3245 55.5141 64.3328C55.7941 65.4453 56.0517 66.5216 56.3037 67.5311C56.3104 67.5481 56.3104 67.567 56.3037 67.584C55.8865 68.2153 55.4637 68.8383 55.0577 69.4334C55.3657 70.1649 55.6709 70.8657 55.9621 71.5165C56.4297 72.9071 56.8413 74.0696 57.1913 74.9484C58.1013 74.8733 59.0169 74.7927 59.9129 74.7064C60.7249 74.1697 61.5929 73.5384 62.4525 72.8347C62.6877 72.59 62.9285 72.3286 63.1665 72.0672C63.1756 72.0557 63.1885 72.0478 63.2029 72.0449L63.3065 72.0254L63.8665 71.9198C63.8665 71.4525 63.8665 70.9519 63.8665 70.4319C63.8663 70.4207 63.8691 70.4097 63.8745 70.4C63.8799 70.3902 63.8878 70.382 63.8973 70.3762C64.7373 69.8534 65.5773 69.3027 66.4033 68.7354C66.4957 67.2808 66.5545 65.6372 66.5769 63.8433C66.5779 63.8258 66.5848 63.8092 66.5965 63.7961C67.9965 62.4722 69.3965 61.0678 70.7965 59.6244C71.2977 58.5119 71.7989 57.3577 72.2889 56.1897C71.3593 56.4038 70.3989 56.6235 69.4273 56.8405C69.4132 56.843 69.3987 56.8411 69.3856 56.8351C69.3726 56.8292 69.3618 56.8194 69.3545 56.8071C67.8397 53.8702 66.1793 50.7665 64.4181 47.5793C64.4097 47.5656 64.4071 47.5492 64.4108 47.5336C64.4144 47.518 64.4241 47.5044 64.4377 47.4958L65.2609 46.9062C65.2708 46.9024 65.2818 46.9024 65.2917 46.9062L65.9973 46.8145C66.0107 46.8114 66.0247 46.813 66.037 46.8191C66.0493 46.8252 66.059 46.8354 66.0645 46.8478C67.1677 48.8808 68.2429 50.9139 69.2565 52.8857V52.9079C69.3573 53.695 69.4525 54.4654 69.5365 55.194C70.8357 54.5544 72.1125 53.9175 73.3277 53.2973C74.1677 52.2766 75.0077 51.242 75.8001 50.2214C75.3409 49.629 74.8677 49.0255 74.4001 48.4247H72.9021C72.8857 48.4246 72.8698 48.4187 72.8573 48.4081C72.0173 47.6238 71.1213 46.8033 70.2057 45.9718C70.1978 45.9643 70.1917 45.9552 70.1878 45.9451C70.184 45.935 70.1824 45.9242 70.1833 45.9134C70.1852 45.9025 70.1897 45.8922 70.1966 45.8834C70.2034 45.8747 70.2123 45.8678 70.2225 45.8633L71.5441 45.2403C71.5551 45.2337 71.5677 45.2302 71.5805 45.2302C71.5934 45.2302 71.606 45.2337 71.6169 45.2403C72.4933 45.9968 73.3613 46.7533 74.1929 47.4847L78.8913 48.1021C78.9007 48.1033 78.9097 48.1067 78.9175 48.112C78.9253 48.1173 78.9317 48.1244 78.9361 48.1327C79.4457 48.9087 79.9525 49.6902 80.4397 50.4633L81.1789 50.2464C81.1872 50.2424 81.1963 50.2404 81.2055 50.2404C81.2147 50.2404 81.2238 50.2424 81.2321 50.2464C81.2405 50.2508 81.2477 50.2571 81.253 50.2649C81.2584 50.2726 81.2618 50.2816 81.2629 50.2909C81.3973 51.1419 81.5205 51.9846 81.6297 52.7939C81.9489 54.0454 82.2513 55.3442 82.5285 56.643C82.5319 56.6599 82.5285 56.6775 82.5191 56.692C82.5097 56.7065 82.495 56.7169 82.4781 56.7209C82.4697 56.7229 82.4609 56.7232 82.4523 56.7218C82.4437 56.7203 82.4355 56.7172 82.4281 56.7125C82.4208 56.7078 82.4145 56.7017 82.4096 56.6945C82.4047 56.6874 82.4014 56.6793 82.3997 56.6708C82.1197 55.372 81.8201 54.076 81.4981 52.8189C81.3917 52.0263 81.2741 51.2087 81.1425 50.3827L80.4285 50.5913C80.4146 50.5954 80.3997 50.5949 80.3861 50.5898C80.3724 50.5848 80.3608 50.5756 80.3529 50.5634C79.8629 49.7875 79.3561 48.9977 78.8437 48.2189L74.1565 47.6015C74.1432 47.6011 74.1303 47.5962 74.1201 47.5876C73.2941 46.859 72.4401 46.1081 71.5609 45.3627L70.3681 45.9189C71.2501 46.7255 72.1125 47.5153 72.9273 48.2746H74.4309C74.4412 48.274 74.4514 48.276 74.4607 48.2804C74.47 48.2847 74.4781 48.2913 74.4841 48.2996C74.9769 48.9226 75.4697 49.5483 75.9429 50.163C75.9522 50.1744 75.9573 50.1886 75.9573 50.2033C75.9573 50.218 75.9522 50.2322 75.9429 50.2436C75.1309 51.281 74.2853 52.3322 73.4229 53.3724L73.4005 53.3891C72.1545 54.0232 70.8441 54.6795 69.5113 55.3359C69.5018 55.3407 69.4912 55.3433 69.4805 55.3433C69.4698 55.3433 69.4593 55.3407 69.4497 55.3359C69.4406 55.3307 69.4328 55.3235 69.4269 55.3148C69.4211 55.3061 69.4174 55.2962 69.4161 55.2858C69.3265 54.5321 69.2285 53.7367 69.1221 52.9191C68.1169 50.9723 67.0529 48.9504 65.9581 46.9341L65.3141 47.0175L64.5497 47.5737C66.2941 50.7247 67.9377 53.7979 69.4385 56.707C70.4325 56.4845 71.4209 56.2592 72.3729 56.0367C72.3847 56.0337 72.3971 56.0342 72.4085 56.0382C72.42 56.0421 72.43 56.0494 72.4373 56.059C72.4442 56.0688 72.4479 56.0804 72.4479 56.0923C72.4479 56.1043 72.4442 56.1159 72.4373 56.1257C71.9305 57.3411 71.4125 58.5425 70.8917 59.6939L70.8777 59.7106C69.4777 61.154 68.0777 62.5557 66.6945 63.8823C66.6721 65.6789 66.6133 67.3281 66.5209 68.7826C66.5203 68.7925 66.5174 68.8021 66.5126 68.8108C66.5078 68.8195 66.501 68.8269 66.4929 68.8327C65.6529 69.3889 64.8129 69.9452 63.9869 70.4763C63.9869 71.0048 63.9869 71.5109 63.9869 71.9837C63.9872 71.9989 63.9819 72.0137 63.9722 72.0254C63.9624 72.0372 63.9488 72.045 63.9337 72.0477L63.3065 72.1645L63.2253 72.1784C62.9929 72.437 62.7577 72.6929 62.5197 72.9404C61.6321 73.658 60.7697 74.2921 59.9521 74.8344H59.9213C59.0029 74.9206 58.0649 75.004 57.1213 75.0791L57.1885 75.0958Z" fill="white"/>
<path d="M67.3899 72.1335C67.3759 72.1333 67.3623 72.129 67.3508 72.1211C67.3393 72.1132 67.3305 72.102 67.3255 72.089L67.2891 71.9861L67.1575 71.5773C67.1541 71.5694 67.1523 71.5609 67.1523 71.5523C67.1523 71.5437 67.1541 71.5352 67.1575 71.5272C67.4627 70.8153 67.7707 70.0199 68.0731 69.1688C68.0782 69.1563 68.0858 69.145 68.0955 69.1355C68.8963 68.5431 69.7055 67.9173 70.5063 67.2777C70.5174 67.2701 70.5306 67.2661 70.5441 67.2661C70.5576 67.2661 70.5707 67.2701 70.5819 67.2777C70.5936 67.284 70.6029 67.2939 70.6085 67.3059C70.614 67.318 70.6155 67.3315 70.6127 67.3444C70.5315 67.7977 70.4419 68.2678 70.3467 68.735V68.7545C69.6803 69.9726 69.0111 71.0795 68.3531 72.0418C68.3479 72.0506 68.3406 72.0581 68.3318 72.0634C68.323 72.0688 68.313 72.0718 68.3027 72.0723L67.4123 72.128L67.3899 72.1335ZM67.2779 71.5634C67.3255 71.6913 67.3703 71.8193 67.4151 71.9416L67.4347 72L68.2439 71.9472C68.8907 70.996 69.5487 69.9058 70.2039 68.7044C70.2879 68.2983 70.3663 67.8923 70.4391 67.4974C69.6859 68.0953 68.9271 68.6821 68.1767 69.2384C67.8827 70.0755 67.5803 70.8598 67.2779 71.5773V71.5634Z" fill="white"/>
<path d="M77.5517 10.5484L74.7517 7.76732C74.7145 7.73044 74.6642 7.70972 74.6117 7.70972C74.5592 7.70972 74.5088 7.73044 74.4717 7.76732C74.4345 7.8042 74.4137 7.85422 74.4137 7.90637C74.4137 7.95853 74.4345 8.00855 74.4717 8.04543L75.7373 9.29972L73.0717 11.9474C73.0533 11.9656 73.0387 11.9873 73.0287 12.0112C73.0188 12.035 73.0137 12.0606 73.0137 12.0864C73.0137 12.1122 73.0188 12.1378 73.0287 12.1617C73.0387 12.1855 73.0533 12.2072 73.0717 12.2255C73.0901 12.2437 73.1119 12.2582 73.1359 12.2681C73.1599 12.278 73.1857 12.2831 73.2117 12.2831C73.2377 12.2831 73.2634 12.278 73.2874 12.2681C73.3115 12.2582 73.3333 12.2437 73.3517 12.2255L76.0173 9.57784L77.2829 10.8349C77.3013 10.8532 77.3231 10.8677 77.3471 10.8775C77.3711 10.8874 77.3969 10.8925 77.4229 10.8925C77.4489 10.8925 77.4746 10.8874 77.4986 10.8775C77.5227 10.8677 77.5445 10.8532 77.5629 10.8349C77.5813 10.8166 77.5958 10.795 77.6058 10.7711C77.6157 10.7472 77.6209 10.7217 77.6209 10.6958C77.6209 10.67 77.6157 10.6445 77.6058 10.6206C77.5958 10.5967 77.5813 10.5751 77.5629 10.5568L77.5517 10.5484Z" fill="auto"/>
<path opacity="0.3" d="M77.5517 10.5484L74.7517 7.76732C74.7145 7.73044 74.6642 7.70972 74.6117 7.70972C74.5592 7.70972 74.5088 7.73044 74.4717 7.76732C74.4345 7.8042 74.4137 7.85422 74.4137 7.90637C74.4137 7.95853 74.4345 8.00855 74.4717 8.04543L75.7373 9.29972L73.0717 11.9474C73.0533 11.9656 73.0387 11.9873 73.0287 12.0112C73.0188 12.035 73.0137 12.0606 73.0137 12.0864C73.0137 12.1122 73.0188 12.1378 73.0287 12.1617C73.0387 12.1855 73.0533 12.2072 73.0717 12.2255C73.0901 12.2437 73.1119 12.2582 73.1359 12.2681C73.1599 12.278 73.1857 12.2831 73.2117 12.2831C73.2377 12.2831 73.2634 12.278 73.2874 12.2681C73.3115 12.2582 73.3333 12.2437 73.3517 12.2255L76.0173 9.57784L77.2829 10.8349C77.3013 10.8532 77.3231 10.8677 77.3471 10.8775C77.3711 10.8874 77.3969 10.8925 77.4229 10.8925C77.4489 10.8925 77.4746 10.8874 77.4986 10.8775C77.5227 10.8677 77.5445 10.8532 77.5629 10.8349C77.5813 10.8166 77.5958 10.795 77.6058 10.7711C77.6157 10.7472 77.6209 10.7217 77.6209 10.6958C77.6209 10.67 77.6157 10.6445 77.6058 10.6206C77.5958 10.5967 77.5813 10.5751 77.5629 10.5568L77.5517 10.5484Z" fill="black"/>
<path d="M74.4824 10.8177C74.3186 10.6546 74.2266 10.4335 74.2266 10.2031C74.2266 9.97268 74.3186 9.75165 74.4824 9.58848L76.3164 7.76684C76.4805 7.60499 76.7024 7.51416 76.9337 7.51416C77.1651 7.51416 77.387 7.60499 77.5512 7.76684C77.715 7.93001 77.8069 8.15104 77.8069 8.38147C77.8069 8.6119 77.715 8.83292 77.5512 8.9961L75.7171 10.8177C75.553 10.9796 75.3311 11.0704 75.0998 11.0704C74.8684 11.0704 74.6465 10.9796 74.4824 10.8177Z" fill="auto"/>
<path d="M74.332 10.9654C74.0437 10.6794 73.653 10.5188 73.2456 10.5188C72.8382 10.5188 72.4474 10.6794 72.1592 10.9654L74.332 13.1208C74.6184 12.8343 74.7791 12.4469 74.7791 12.0431C74.7791 11.6394 74.6184 11.252 74.332 10.9654Z" fill="auto"/>
<path d="M75.7806 6.84374L73.2859 4.36588C73.0749 4.15626 72.7327 4.15626 72.5217 4.36588L71.0566 5.82113C70.8455 6.03074 70.8455 6.3706 71.0566 6.58022L73.5512 9.05808C73.7623 9.2677 74.1044 9.2677 74.3155 9.05808L75.7806 7.60283C75.9916 7.39322 75.9916 7.05336 75.7806 6.84374Z" fill="auto"/>
<path opacity="0.3" d="M74.1995 8.9274L75.6468 7.48985C75.7944 7.34323 75.7944 7.10551 75.6468 6.95888L73.1699 4.49872C73.0223 4.35209 72.783 4.3521 72.6354 4.49872L71.188 5.93627C71.0404 6.0829 71.0404 6.32062 71.188 6.46724L73.6649 8.92741C73.8125 9.07403 74.0519 9.07403 74.1995 8.9274Z" fill="white"/>
<path d="M80.9774 12.0024L78.4827 9.52456C78.2717 9.31495 77.9295 9.31495 77.7185 9.52456L76.2533 10.9798C76.0423 11.1894 76.0423 11.5293 76.2533 11.7389L78.748 14.2168C78.9591 14.4264 79.3012 14.4264 79.5123 14.2168L80.9774 12.7615C81.1884 12.5519 81.1884 12.212 80.9774 12.0024Z" fill="auto"/>
<path opacity="0.3" d="M79.3962 14.0866L80.8436 12.649C80.9912 12.5024 80.9912 12.2647 80.8436 12.1181L78.3667 9.6579C78.2191 9.51127 77.9797 9.51128 77.8321 9.6579L76.3848 11.0955C76.2372 11.2421 76.2372 11.4798 76.3848 11.6264L78.8617 14.0866C79.0093 14.2332 79.2486 14.2332 79.3962 14.0866Z" fill="white"/>
<path opacity="0.7" d="M77.0582 8.91289L76.4028 8.26196C76.3635 8.22286 76.2996 8.22286 76.2603 8.26196L75.304 9.21181C75.2646 9.25091 75.2646 9.3143 75.304 9.3534L75.9593 10.0043C75.9987 10.0434 76.0625 10.0434 76.1019 10.0043L77.0582 9.05448C77.0975 9.01538 77.0975 8.95199 77.0582 8.91289Z" fill="white"/>
</svg>
