<svg xmlns="http://www.w3.org/2000/svg"  viewBox="0 0 16 18" fill="currentColor" >
  <path opacity="0.4" d="M10.7224 2.00256H5.27755C2.9125 2.00256 1.50256 3.4125 1.50256 5.77755V11.2159C1.50256 13.5874 2.9125 14.9974 5.27755 14.9974H10.7159C13.0809 14.9974 14.4909 13.5874 14.4909 11.2224V5.77755C14.4974 3.4125 13.0874 2.00256 10.7224 2.00256Z" />
  <path d="M5.93383 7.03805C5.38155 7.03805 4.82927 6.83013 4.40694 6.4078C4.21852 6.21938 4.21852 5.9075 4.40694 5.71908C4.59537 5.53065 4.90724 5.53065 5.09567 5.71908C5.55698 6.18039 6.31068 6.18039 6.772 5.71908C6.96042 5.53065 7.2723 5.53065 7.46072 5.71908C7.64914 5.9075 7.64914 6.21938 7.46072 6.4078C7.03839 6.82363 6.48611 7.03805 5.93383 7.03805Z" />
  <path d="M10.0662 7.03805C9.51388 7.03805 8.9616 6.83013 8.53927 6.4078C8.35084 6.21938 8.35084 5.9075 8.53927 5.71908C8.72769 5.53065 9.03957 5.53065 9.22799 5.71908C9.68931 6.18039 10.443 6.18039 10.9043 5.71908C11.0927 5.53065 11.4046 5.53065 11.593 5.71908C11.7815 5.9075 11.7815 6.21938 11.593 6.4078C11.1707 6.82363 10.6184 7.03805 10.0662 7.03805Z" />
  <path d="M10.3391 8.90283H5.66098C5.20617 8.90283 4.83582 9.27318 4.83582 9.7345C4.83582 11.4823 6.25875 12.9052 8.00654 12.9052C9.75434 12.9052 11.1773 11.4823 11.1773 9.7345C11.1708 9.27968 10.7939 8.90283 10.3391 8.90283Z" />
</svg>