<svg viewBox="0 0 15 18" fill="none" xmlns="http://www.w3.org/2000/svg">
<path d="M11.1414 7.33158V7.33158C11.1414 6.6652 10.6012 6.125 9.93478 6.125H2.39921C1.63454 6.125 1.02231 6.75914 1.0492 7.52334L1.3105 14.9492C1.32873 15.4672 1.64063 15.9325 2.12126 16.1265C5.54772 17.51 7.55694 17.396 10.372 16.1533C10.8459 15.9441 11.1414 15.4674 11.1414 14.9494V13.0562M11.1414 7.33158H12.6492C13.3952 7.33158 14 7.93637 14 8.68242V11.6026C14 12.3139 13.4483 12.9034 12.7384 12.9504L11.1414 13.0562M11.1414 7.33158V13.0562" stroke-width="1.12188"/>
<path d="M9.29883 0.875C9.29883 1.26893 9.3083 1.60781 9.15333 1.97246C8.97869 2.38338 8.78272 2.66006 8.49236 2.99093C8.21922 3.30219 7.84274 3.8367 8.06419 4.27961" stroke-linecap="round"/>
<path d="M6.6831 0.875C6.6831 1.26893 6.69258 1.60781 6.53761 1.97246C6.36297 2.38338 6.16699 2.66006 5.87664 2.99093C5.60349 3.30219 5.22702 3.8367 5.44847 4.27961" stroke-linecap="round"/>
<path d="M4.28607 0.875C4.28607 1.26893 4.29555 1.60781 4.14057 1.97246C3.96593 2.38338 3.76996 2.66006 3.47961 2.99093C3.20646 3.30219 2.82998 3.8367 3.05143 4.27961" stroke-linecap="round"/>
</svg>
