<svg stroke="currentColor" viewBox="0 0 28 28" fill="none" xmlns="http://www.w3.org/2000/svg">
<path d="M20.7498 8.42512C20.6823 8.41387 20.6036 8.41387 20.5361 8.42512C18.9836 8.36887 17.7461 7.09762 17.7461 5.52262C17.7461 3.91387 19.0398 2.62012 20.6486 2.62012C22.2573 2.62012 23.5511 3.92512 23.5511 5.52262C23.5398 7.09762 22.3023 8.36887 20.7498 8.42512Z" stroke="currentColor" stroke-width="2" stroke-linecap="round" stroke-linejoin="round"/>
<path d="M19.5923 16.6153C21.1336 16.874 22.8323 16.604 24.0248 15.8053C25.6111 14.7478 25.6111 13.0153 24.0248 11.9578C22.8211 11.1591 21.0998 10.889 19.5586 11.159" stroke="currentColor" stroke-width="2" stroke-linecap="round" stroke-linejoin="round"/>
<path d="M7.21629 8.42512C7.28379 8.41387 7.36254 8.41387 7.43004 8.42512C8.98254 8.36887 10.22 7.09762 10.22 5.52262C10.22 3.91387 8.92629 2.62012 7.31754 2.62012C5.70879 2.62012 4.41504 3.92512 4.41504 5.52262C4.42629 7.09762 5.66379 8.36887 7.21629 8.42512Z" stroke="currentColor" stroke-width="2" stroke-linecap="round" stroke-linejoin="round"/>
<path d="M8.37512 16.6153C6.83387 16.874 5.13512 16.604 3.94262 15.8053C2.35637 14.7478 2.35637 13.0153 3.94262 11.9578C5.14637 11.1591 6.86761 10.889 8.40886 11.159" stroke="currentColor" stroke-width="2" stroke-linecap="round" stroke-linejoin="round"/>
<path d="M13.9998 16.8284C13.9323 16.8172 13.8536 16.8172 13.7861 16.8284C12.2336 16.7722 10.9961 15.5009 10.9961 13.9259C10.9961 12.3172 12.2898 11.0234 13.8986 11.0234C15.5073 11.0234 16.8011 12.3284 16.8011 13.9259C16.7898 15.5009 15.5523 16.7834 13.9998 16.8284Z" stroke="currentColor" stroke-width="2" stroke-linecap="round" stroke-linejoin="round"/>
<path d="M10.7258 20.3719C9.13957 21.4294 9.13957 23.1619 10.7258 24.2194C12.5258 25.4232 15.4733 25.4232 17.2733 24.2194C18.8596 23.1619 18.8596 21.4294 17.2733 20.3719C15.4846 19.1794 12.5258 19.1794 10.7258 20.3719Z" stroke="currentColor" stroke-width="2" stroke-linecap="round" stroke-linejoin="round"/>
</svg>
