<svg max-width="419" max-height="223" viewBox="0 0 419 223" fill="none" xmlns="http://www.w3.org/2000/svg">
<path d="M419 223H0V0H419V223Z" fill="white"/>
<path d="M418.5 1.5H1.5V54.5H418.5V1.5Z" fill="#172F55"/>
<path d="M419 223H0V0H419V223ZM3 220H416V3H3V220Z" fill="#3F3D56"/>
<path d="M189.032 98.7089C187.051 98.7152 185.448 101.288 185.452 104.455C185.456 107.613 187.057 110.172 189.032 110.178H358.146C360.127 110.172 361.73 107.599 361.726 104.432C361.722 101.274 360.122 98.7152 358.146 98.7089H189.032Z" fill="#E4E4E4"/>
<path d="M189.032 131.94C187.051 131.946 185.448 134.519 185.452 137.686C185.456 140.845 187.057 143.403 189.032 143.41H358.146C360.127 143.403 361.73 140.831 361.726 137.663C361.722 134.505 360.122 131.946 358.146 131.94H189.032Z" fill="#E4E4E4"/>
<path d="M189.032 164.769C187.051 164.776 185.448 167.348 185.452 170.515C185.456 173.674 187.057 176.233 189.032 176.239H261.802C263.783 176.232 265.386 173.66 265.382 170.493C265.378 167.334 263.778 164.776 261.802 164.769H189.032Z" fill="#E4E4E4"/>
<path d="M103.165 182.929C128.51 182.929 149.056 162.383 149.056 137.039C149.056 111.694 128.51 91.1481 103.165 91.1481C77.8203 91.1481 57.2744 111.694 57.2744 137.039C57.2744 162.383 77.8203 182.929 103.165 182.929Z" fill="#E4E4E4"/>
<path d="M119.722 128.619C119.718 128.611 119.715 128.603 119.71 128.595C119.708 128.592 119.706 128.589 119.704 128.585C119.469 128.182 119.131 127.849 118.724 127.62L104.287 119.499C103.894 119.28 103.451 119.164 103 119.164C102.549 119.164 102.106 119.28 101.713 119.499L87.2754 127.62C86.8673 127.85 86.5281 128.185 86.2932 128.59C86.2907 128.595 86.2876 128.599 86.285 128.603C86.2812 128.61 86.2783 128.618 86.2743 128.625C86.0539 129.017 85.9379 129.459 85.9375 129.908V146.092C85.9378 146.558 86.0619 147.015 86.297 147.417C86.5321 147.819 86.8698 148.151 87.2756 148.38L101.713 156.501C102.077 156.704 102.484 156.818 102.9 156.833C102.93 156.835 102.96 156.838 102.99 156.838H103.002C103.043 156.838 103.084 156.836 103.125 156.832C103.532 156.814 103.931 156.7 104.287 156.501L118.724 148.38C119.13 148.151 119.468 147.819 119.703 147.417C119.938 147.015 120.062 146.557 120.062 146.092V129.908C120.062 129.457 119.945 129.013 119.722 128.619V128.619ZM103 121.787L116.083 129.146L111.059 132L97.8222 124.7L103 121.787ZM103.149 136.494L89.9372 129.135L95.1314 126.213L108.382 133.521L103.149 136.494ZM104.333 153.463L104.461 138.768L109.73 135.775V142.021C109.73 142.369 109.868 142.703 110.115 142.949C110.361 143.196 110.695 143.334 111.043 143.334C111.391 143.334 111.725 143.196 111.971 142.949C112.217 142.703 112.355 142.369 112.355 142.021V134.283L117.438 131.396V146.092L104.333 153.463Z" fill="#A1A1A1"/>
</svg>
