<svg max-width="419" max-height="223" viewBox="0 0 419 223" fill="none" xmlns="http://www.w3.org/2000/svg">
<path d="M419 223H0V0H419V223Z" fill="white"/>
<path d="M418.5 1.5H1.5V54.5H418.5V1.5Z" fill="#172F55"/>
<path d="M419 223H0V0H419V223ZM3 220H416V3H3V220Z" fill="#3F3D56"/>
<path d="M189.032 98.7089C187.051 98.7152 185.448 101.288 185.452 104.455C185.456 107.613 187.057 110.172 189.032 110.178H358.146C360.127 110.172 361.73 107.599 361.726 104.432C361.722 101.274 360.122 98.7152 358.146 98.7089H189.032Z" fill="#E4E4E4"/>
<path d="M189.032 131.94C187.051 131.946 185.448 134.519 185.452 137.686C185.456 140.845 187.057 143.403 189.032 143.41H358.146C360.127 143.403 361.73 140.831 361.726 137.663C361.722 134.505 360.122 131.946 358.146 131.94H189.032Z" fill="#E4E4E4"/>
<path d="M189.032 164.769C187.051 164.776 185.448 167.348 185.452 170.515C185.456 173.674 187.057 176.233 189.032 176.239H261.802C263.783 176.232 265.386 173.66 265.382 170.493C265.378 167.334 263.778 164.776 261.802 164.769H189.032Z" fill="#E4E4E4"/>
<path d="M103.165 182.929C128.51 182.929 149.056 162.383 149.056 137.039C149.056 111.694 128.51 91.1481 103.165 91.1481C77.8203 91.1481 57.2744 111.694 57.2744 137.039C57.2744 162.383 77.8203 182.929 103.165 182.929Z" fill="#E4E4E4"/>
<path d="M118.75 153.75L110.899 145.886L118.75 153.75ZM115.25 135.375C115.25 139.32 113.683 143.104 110.893 145.893C108.104 148.683 104.32 150.25 100.375 150.25C96.4299 150.25 92.6464 148.683 89.8568 145.893C87.0672 143.104 85.5 139.32 85.5 135.375C85.5 131.43 87.0672 127.646 89.8568 124.857C92.6464 122.067 96.4299 120.5 100.375 120.5C104.32 120.5 108.104 122.067 110.893 124.857C113.683 127.646 115.25 131.43 115.25 135.375V135.375Z" stroke="#A2A2A2" stroke-width="2" stroke-linecap="round"/>
</svg>
