<svg width="53" height="31" viewBox="0 0 53 31" fill="none" xmlns="http://www.w3.org/2000/svg">
<path d="M43.2143 4.35735H28.3571C27.3724 4.35833 26.4282 4.74997 25.7318 5.44632C25.0355 6.14267 24.6438 7.08685 24.6429 8.07164V19.2145H4.21429V0.643066H0.5V30.3573H4.21429V22.9288H48.7857V30.3573H52.5V13.6431C52.4971 11.1812 51.5178 8.8211 49.777 7.08033C48.0363 5.33956 45.6761 4.3603 43.2143 4.35735ZM48.7857 19.2145H28.3571V8.07164H43.2143C44.6915 8.07311 46.1077 8.66057 47.1523 9.7051C48.1968 10.7496 48.7842 12.1659 48.7857 13.6431V19.2145Z"/>
<path d="M14.5146 6.21184C15.0656 6.21184 15.6042 6.37522 16.0623 6.68132C16.5204 6.98742 16.8775 7.42249 17.0883 7.93151C17.2992 8.44054 17.3543 9.00065 17.2468 9.54102C17.1393 10.0814 16.874 10.5778 16.4844 10.9674C16.0949 11.3569 15.5985 11.6223 15.0581 11.7297C14.5177 11.8372 13.9576 11.7821 13.4486 11.5712C12.9396 11.3604 12.5045 11.0033 12.1984 10.5452C11.8923 10.0871 11.7289 9.54852 11.7289 8.99756C11.7299 8.25904 12.0237 7.55106 12.5459 7.02885C13.0681 6.50664 13.7761 6.21283 14.5146 6.21184ZM14.5146 2.49756C13.2291 2.49756 11.9724 2.87878 10.9034 3.59301C9.83453 4.30723 9.0014 5.3224 8.50943 6.51012C8.01746 7.69784 7.88874 9.00477 8.13955 10.2656C8.39035 11.5265 9.00942 12.6847 9.91846 13.5938C10.8275 14.5028 11.9857 15.1219 13.2466 15.3727C14.5074 15.6235 15.8144 15.4947 17.0021 15.0028C18.1898 14.5108 19.205 13.6777 19.9192 12.6088C20.6334 11.5398 21.0146 10.2831 21.0146 8.99756C21.0146 7.27365 20.3298 5.62035 19.1108 4.40136C17.8919 3.18238 16.2386 2.49756 14.5146 2.49756Z"/>
</svg>
