<svg width="20" height="20" viewBox="0 0 20 20" fill="none" xmlns="http://www.w3.org/2000/svg">
<path d="M0.833008 18.3333H19.1663" stroke="#292929" stroke-width="1.2" stroke-miterlimit="10" stroke-linecap="round" stroke-linejoin="round"/>
<path d="M16.4834 18.3417V14.625" stroke="#292929" stroke-width="1.2" stroke-miterlimit="10" stroke-linecap="round" stroke-linejoin="round"/>
<path d="M16.4998 9.07501C15.4832 9.07501 14.6665 9.89169 14.6665 10.9084V12.8C14.6665 13.8167 15.4832 14.6333 16.4998 14.6333C17.5165 14.6333 18.3332 13.8167 18.3332 12.8V10.9084C18.3332 9.89169 17.5165 9.07501 16.4998 9.07501Z" stroke="#292929" stroke-width="1.2" stroke-miterlimit="10" stroke-linecap="round" stroke-linejoin="round"/>
<path d="M1.75 18.3333V5.02502C1.75 3.35002 2.58338 2.50834 4.24171 2.50834H9.43336C11.0917 2.50834 11.9167 3.35002 11.9167 5.02502V18.3333" stroke="#292929" stroke-width="1.2" stroke-miterlimit="10" stroke-linecap="round" stroke-linejoin="round"/>
<path d="M4.83301 6.875H8.95802" stroke="#292929" stroke-width="1.2" stroke-miterlimit="10" stroke-linecap="round" stroke-linejoin="round"/>
<path d="M4.83301 10H8.95802" stroke="#292929" stroke-width="1.2" stroke-miterlimit="10" stroke-linecap="round" stroke-linejoin="round"/>
<path d="M6.875 18.3333V15.2083" stroke="#292929" stroke-width="1.2" stroke-miterlimit="10" stroke-linecap="round" stroke-linejoin="round"/>
</svg>
