<svg width="21" height="22" viewBox="0 0 21 22" fill="none" xmlns="http://www.w3.org/2000/svg">
<path d="M13.2949 4.25935L7.81401 18.3102" stroke="#292929" stroke-width="1.1" stroke-miterlimit="10" stroke-linecap="round" stroke-linejoin="round"/>
<path d="M12.9028 5.26292L18.5232 7.45529C19.8781 7.9838 19.8856 8.85398 18.5602 9.43551L17.7231 9.8028C17.1651 10.0477 16.9106 10.7 17.175 11.2079L17.5423 12.045C18.1238 13.3703 17.479 13.986 16.1742 13.4771L10.5539 11.2847" stroke="#292929" stroke-width="1.1" stroke-miterlimit="10" stroke-linecap="round" stroke-linejoin="round"/>
<path d="M6.91064 3.96106L12.069 18.1335" stroke="#292929" stroke-width="1.1" stroke-miterlimit="10" stroke-linecap="round" stroke-linejoin="round"/>
<path d="M7.27832 4.97348L1.60933 7.03682C0.242697 7.53424 0.215342 8.40401 1.52708 9.01569L2.35554 9.40201C2.90785 9.65955 3.14735 10.3176 2.87138 10.8193L2.48506 11.6477C1.87339 12.9595 2.50404 13.5897 3.82005 13.1107L9.48905 11.0474" stroke="#292929" stroke-width="1.1" stroke-miterlimit="10" stroke-linecap="round" stroke-linejoin="round"/>
</svg>
