<svg width="22" height="20" viewBox="0 0 22 20" fill="none" xmlns="http://www.w3.org/2000/svg">
<path d="M18.3 5.91998V11.07C18.3 14.15 16.54 15.47 13.9 15.47H5.10995C4.65995 15.47 4.22996 15.43 3.82996 15.34C3.57996 15.3 3.33996 15.23 3.11996 15.15C1.61996 14.59 0.709961 13.29 0.709961 11.07V5.91998C0.709961 2.83998 2.46995 1.52002 5.10995 1.52002H13.9C16.14 1.52002 17.75 2.47001 18.18 4.64001C18.25 5.04001 18.3 5.44998 18.3 5.91998Z" stroke="#292929" stroke-width="1.2" stroke-miterlimit="10" stroke-linecap="round" stroke-linejoin="round"/>
<path d="M21.3011 8.9201V14.0701C21.3011 17.1501 19.5411 18.4701 16.9011 18.4701H8.11105C7.37105 18.4701 6.70106 18.3701 6.12106 18.1501C4.93106 17.7101 4.12105 16.8001 3.83105 15.3401C4.23105 15.4301 4.66105 15.4701 5.11105 15.4701H13.9011C16.5411 15.4701 18.3011 14.1501 18.3011 11.0701V5.9201C18.3011 5.4501 18.2611 5.03014 18.1811 4.64014C20.0811 5.04014 21.3011 6.38011 21.3011 8.9201Z" stroke="#292929" stroke-width="1.2" stroke-miterlimit="10" stroke-linecap="round" stroke-linejoin="round"/>
<path d="M9.49841 11.1399C10.9564 11.1399 12.1384 9.95791 12.1384 8.49988C12.1384 7.04185 10.9564 5.85986 9.49841 5.85986C8.04038 5.85986 6.8584 7.04185 6.8584 8.49988C6.8584 9.95791 8.04038 11.1399 9.49841 11.1399Z" stroke="#292929" stroke-width="1.2" stroke-miterlimit="10" stroke-linecap="round" stroke-linejoin="round"/>
<path d="M3.77979 6.29999V10.7" stroke="#292929" stroke-width="1.2" stroke-miterlimit="10" stroke-linecap="round" stroke-linejoin="round"/>
<path d="M15.2217 6.30029V10.7003" stroke="#292929" stroke-width="1.2" stroke-miterlimit="10" stroke-linecap="round" stroke-linejoin="round"/>
</svg>
