<svg width="22" height="22" viewBox="0 0 22 22" fill="none" xmlns="http://www.w3.org/2000/svg">
<path d="M13 5.19995V9C10.21 9.05 9.05 10.21 9 13H5.2C2.2 13 1 11.8 1 8.80005V5.19995C1 2.19995 2.2 1 5.2 1H8.8C11.8 1 13 2.19995 13 5.19995Z" stroke="#292929" stroke-width="1.2" stroke-linecap="round" stroke-linejoin="round"/>
<path d="M5.96019 4.86996C5.43019 4.50996 4.7302 4.50998 4.2002 4.88998" stroke="#292929" stroke-width="1.2" stroke-miterlimit="10" stroke-linecap="round" stroke-linejoin="round"/>
<path d="M9.96019 4.86996C9.43019 4.50996 8.7302 4.50998 8.2002 4.88998" stroke="#292929" stroke-width="1.2" stroke-miterlimit="10" stroke-linecap="round" stroke-linejoin="round"/>
<path d="M7.15981 10.42H4.83981C4.53981 10.42 4.2998 10.18 4.2998 9.88C4.2998 8.39 5.50981 7.18005 6.99981 7.18005C7.63981 7.18005 8.2298 7.40002 8.6898 7.77002" stroke="#292929" stroke-width="1.2" stroke-miterlimit="10" stroke-linecap="round" stroke-linejoin="round"/>
<path d="M21 13.2V16.8C21 19.8 19.8 21 16.8 21H13.2C10.2 21 9 19.8 9 16.8V13C9.05 10.21 10.21 9.05 13 9H16.8C19.8 9 21 10.2 21 13.2Z" stroke="#292929" stroke-width="1.2" stroke-linecap="round" stroke-linejoin="round"/>
<path d="M13.9602 12.62C13.4302 12.98 12.7302 12.98 12.2002 12.6" stroke="#292929" stroke-width="1.2" stroke-miterlimit="10" stroke-linecap="round" stroke-linejoin="round"/>
<path d="M17.9602 12.62C17.4302 12.98 16.7302 12.98 16.2002 12.6" stroke="#292929" stroke-width="1.2" stroke-miterlimit="10" stroke-linecap="round" stroke-linejoin="round"/>
<path d="M12.8398 15.1801H17.1598C17.4598 15.1801 17.6998 15.42 17.6998 15.72C17.6998 17.21 16.4898 18.42 14.9998 18.42C13.5098 18.42 12.2998 17.21 12.2998 15.72C12.2998 15.42 12.5398 15.1801 12.8398 15.1801Z" stroke="#292929" stroke-width="1.2" stroke-miterlimit="10" stroke-linecap="round" stroke-linejoin="round"/>
</svg>
