<svg width="22" height="16" viewBox="0 0 22 16" fill="none" xmlns="http://www.w3.org/2000/svg">
<mask id="path-1-outside-1_4586_240" maskUnits="userSpaceOnUse" x="0" y="0.125" width="22" height="15" fill="black">
<rect fill="white" y="0.125" width="22" height="15"/>
<path d="M3.08333 1.125C1.9377 1.125 1 2.0627 1 3.20833V12.7917C1 13.9373 1.9377 14.875 3.08333 14.875H18.9167C20.0623 14.875 21 13.9373 21 12.7917V3.20833C21 2.0627 20.0623 1.125 18.9167 1.125H3.08333ZM3.08333 1.95833H7.25V3.49398C7.39458 3.56356 7.53458 3.64276 7.66667 3.73568C7.79875 3.64234 7.93875 3.56314 8.08333 3.49398V1.95833H18.9167C19.6119 1.95833 20.1667 2.51313 20.1667 3.20833V7.375H11.9668C11.8172 7.68917 11.6088 7.96792 11.3621 8.20833H20.1667V12.7917C20.1667 13.4869 19.6119 14.0417 18.9167 14.0417H8.08333V9.993L7.66667 9.58203L7.25 9.993V14.0417H3.08333C2.38813 14.0417 1.83333 13.4869 1.83333 12.7917V8.20833H3.97119C3.72452 7.96792 3.51654 7.68917 3.36654 7.375H1.83333V3.20833C1.83333 2.51313 2.38813 1.95833 3.08333 1.95833ZM6 4.04167C5.9284 4.04167 5.8574 4.0451 5.7876 4.05225C5.71792 4.05934 5.64839 4.07016 5.58089 4.08398C4.76793 4.25078 4.12578 4.89293 3.95898 5.70589C3.93111 5.84117 3.91667 5.9818 3.91667 6.125C3.91667 6.2682 3.93111 6.40801 3.95898 6.54329C4.12578 7.35626 4.76793 7.99922 5.58089 8.16602C5.71617 8.19389 5.8568 8.20833 6 8.20833H6.68522L4.8737 9.99463L5.45882 10.5887L7.66667 8.41178L9.87451 10.5887L10.1667 10.2917L10.4596 9.99463L8.64811 8.20833H9.33333C9.47654 8.20833 9.61716 8.19389 9.75244 8.16602C10.5654 7.99922 11.2076 7.35626 11.3743 6.54329C11.4022 6.40801 11.4167 6.2682 11.4167 6.125C11.4167 5.9818 11.4022 5.84117 11.3743 5.70589C11.2076 4.89293 10.5646 4.25078 9.75163 4.08398C9.61635 4.05611 9.47654 4.04167 9.33333 4.04167C9.25267 4.04167 9.17323 4.04727 9.09489 4.05631C9.07592 4.05852 9.05754 4.06254 9.03874 4.06527C8.98725 4.07266 8.93679 4.08181 8.88656 4.09294C8.7757 4.11768 8.66846 4.15116 8.5651 4.19303C8.53175 4.20641 8.49993 4.22195 8.46745 4.23698C8.38542 4.2753 8.30647 4.31804 8.23063 4.36637C8.18269 4.39661 8.13751 4.4293 8.09229 4.46322C8.04104 4.50201 7.99163 4.54286 7.94417 4.5861C7.90136 4.6248 7.85916 4.66285 7.81966 4.70492C7.76547 4.76295 7.71417 4.82422 7.66667 4.88802C7.61917 4.82422 7.56786 4.76295 7.51367 4.70492C7.47418 4.66285 7.43197 4.6248 7.38916 4.5861C7.3417 4.54286 7.29229 4.50201 7.24105 4.46322C7.19582 4.4293 7.15064 4.39661 7.1027 4.36637C7.02687 4.31804 6.94791 4.2753 6.86589 4.23698C6.8334 4.22195 6.80158 4.20641 6.76823 4.19303C6.66487 4.15116 6.55763 4.11768 6.44678 4.09294C6.39654 4.08181 6.34609 4.07266 6.2946 4.06527C6.27579 4.06254 6.25741 4.05852 6.23844 4.05631C6.1601 4.04727 6.08066 4.04167 6 4.04167ZM6 4.875C6.08615 4.875 6.17017 4.88355 6.25146 4.90023H6.25309C6.82136 5.01759 7.25 5.52252 7.25 6.125V7.375H6C5.91365 7.375 5.82976 7.3661 5.74854 7.34977C5.26131 7.24979 4.87581 6.86511 4.77523 6.37809V6.37646C4.75855 6.29517 4.75 6.21115 4.75 6.125C4.75 6.03865 4.7589 5.95476 4.77523 5.87354C4.87521 5.38631 5.25989 5.00081 5.74691 4.90023C5.82861 4.8837 5.9131 4.875 6 4.875ZM9.33333 4.875C9.41948 4.875 9.50351 4.88355 9.5848 4.90023H9.58643C10.0729 5.0007 10.4576 5.38541 10.5581 5.87191V5.87354C10.5748 5.95483 10.5833 6.03885 10.5833 6.125C10.5833 6.21115 10.5748 6.29517 10.5581 6.37646V6.37809C10.4407 6.94636 9.93581 7.375 9.33333 7.375H8.08333V6.125C8.08333 6.0381 8.09203 5.95361 8.10856 5.87191C8.20904 5.38541 8.59374 5.0007 9.08024 4.90023C9.16194 4.8837 9.24643 4.875 9.33333 4.875ZM13.9167 11.5417C13.8062 11.5417 13.7002 11.5856 13.622 11.6637C13.5439 11.7418 13.5 11.8478 13.5 11.9583C13.5 12.0688 13.5439 12.1748 13.622 12.253C13.7002 12.3311 13.8062 12.375 13.9167 12.375C14.0272 12.375 14.1332 12.3311 14.2113 12.253C14.2894 12.1748 14.3333 12.0688 14.3333 11.9583C14.3333 11.8478 14.2894 11.7418 14.2113 11.6637C14.1332 11.5856 14.0272 11.5417 13.9167 11.5417ZM15.1667 11.5417C15.0562 11.5417 14.9502 11.5856 14.872 11.6637C14.7939 11.7418 14.75 11.8478 14.75 11.9583C14.75 12.0688 14.7939 12.1748 14.872 12.253C14.9502 12.3311 15.0562 12.375 15.1667 12.375C15.2772 12.375 15.3832 12.3311 15.4613 12.253C15.5394 12.1748 15.5833 12.0688 15.5833 11.9583C15.5833 11.8478 15.5394 11.7418 15.4613 11.6637C15.3832 11.5856 15.2772 11.5417 15.1667 11.5417ZM16.4167 11.5417C16.3062 11.5417 16.2002 11.5856 16.122 11.6637C16.0439 11.7418 16 11.8478 16 11.9583C16 12.0688 16.0439 12.1748 16.122 12.253C16.2002 12.3311 16.3062 12.375 16.4167 12.375C16.5272 12.375 16.6332 12.3311 16.7113 12.253C16.7894 12.1748 16.8333 12.0688 16.8333 11.9583C16.8333 11.8478 16.7894 11.7418 16.7113 11.6637C16.6332 11.5856 16.5272 11.5417 16.4167 11.5417ZM17.6667 11.5417C17.5562 11.5417 17.4502 11.5856 17.372 11.6637C17.2939 11.7418 17.25 11.8478 17.25 11.9583C17.25 12.0688 17.2939 12.1748 17.372 12.253C17.4502 12.3311 17.5562 12.375 17.6667 12.375C17.7772 12.375 17.8832 12.3311 17.9613 12.253C18.0394 12.1748 18.0833 12.0688 18.0833 11.9583C18.0833 11.8478 18.0394 11.7418 17.9613 11.6637C17.8832 11.5856 17.7772 11.5417 17.6667 11.5417Z"/>
</mask>
<path d="M3.08333 1.125C1.9377 1.125 1 2.0627 1 3.20833V12.7917C1 13.9373 1.9377 14.875 3.08333 14.875H18.9167C20.0623 14.875 21 13.9373 21 12.7917V3.20833C21 2.0627 20.0623 1.125 18.9167 1.125H3.08333ZM3.08333 1.95833H7.25V3.49398C7.39458 3.56356 7.53458 3.64276 7.66667 3.73568C7.79875 3.64234 7.93875 3.56314 8.08333 3.49398V1.95833H18.9167C19.6119 1.95833 20.1667 2.51313 20.1667 3.20833V7.375H11.9668C11.8172 7.68917 11.6088 7.96792 11.3621 8.20833H20.1667V12.7917C20.1667 13.4869 19.6119 14.0417 18.9167 14.0417H8.08333V9.993L7.66667 9.58203L7.25 9.993V14.0417H3.08333C2.38813 14.0417 1.83333 13.4869 1.83333 12.7917V8.20833H3.97119C3.72452 7.96792 3.51654 7.68917 3.36654 7.375H1.83333V3.20833C1.83333 2.51313 2.38813 1.95833 3.08333 1.95833ZM6 4.04167C5.9284 4.04167 5.8574 4.0451 5.7876 4.05225C5.71792 4.05934 5.64839 4.07016 5.58089 4.08398C4.76793 4.25078 4.12578 4.89293 3.95898 5.70589C3.93111 5.84117 3.91667 5.9818 3.91667 6.125C3.91667 6.2682 3.93111 6.40801 3.95898 6.54329C4.12578 7.35626 4.76793 7.99922 5.58089 8.16602C5.71617 8.19389 5.8568 8.20833 6 8.20833H6.68522L4.8737 9.99463L5.45882 10.5887L7.66667 8.41178L9.87451 10.5887L10.1667 10.2917L10.4596 9.99463L8.64811 8.20833H9.33333C9.47654 8.20833 9.61716 8.19389 9.75244 8.16602C10.5654 7.99922 11.2076 7.35626 11.3743 6.54329C11.4022 6.40801 11.4167 6.2682 11.4167 6.125C11.4167 5.9818 11.4022 5.84117 11.3743 5.70589C11.2076 4.89293 10.5646 4.25078 9.75163 4.08398C9.61635 4.05611 9.47654 4.04167 9.33333 4.04167C9.25267 4.04167 9.17323 4.04727 9.09489 4.05631C9.07592 4.05852 9.05754 4.06254 9.03874 4.06527C8.98725 4.07266 8.93679 4.08181 8.88656 4.09294C8.7757 4.11768 8.66846 4.15116 8.5651 4.19303C8.53175 4.20641 8.49993 4.22195 8.46745 4.23698C8.38542 4.2753 8.30647 4.31804 8.23063 4.36637C8.18269 4.39661 8.13751 4.4293 8.09229 4.46322C8.04104 4.50201 7.99163 4.54286 7.94417 4.5861C7.90136 4.6248 7.85916 4.66285 7.81966 4.70492C7.76547 4.76295 7.71417 4.82422 7.66667 4.88802C7.61917 4.82422 7.56786 4.76295 7.51367 4.70492C7.47418 4.66285 7.43197 4.6248 7.38916 4.5861C7.3417 4.54286 7.29229 4.50201 7.24105 4.46322C7.19582 4.4293 7.15064 4.39661 7.1027 4.36637C7.02687 4.31804 6.94791 4.2753 6.86589 4.23698C6.8334 4.22195 6.80158 4.20641 6.76823 4.19303C6.66487 4.15116 6.55763 4.11768 6.44678 4.09294C6.39654 4.08181 6.34609 4.07266 6.2946 4.06527C6.27579 4.06254 6.25741 4.05852 6.23844 4.05631C6.1601 4.04727 6.08066 4.04167 6 4.04167ZM6 4.875C6.08615 4.875 6.17017 4.88355 6.25146 4.90023H6.25309C6.82136 5.01759 7.25 5.52252 7.25 6.125V7.375H6C5.91365 7.375 5.82976 7.3661 5.74854 7.34977C5.26131 7.24979 4.87581 6.86511 4.77523 6.37809V6.37646C4.75855 6.29517 4.75 6.21115 4.75 6.125C4.75 6.03865 4.7589 5.95476 4.77523 5.87354C4.87521 5.38631 5.25989 5.00081 5.74691 4.90023C5.82861 4.8837 5.9131 4.875 6 4.875ZM9.33333 4.875C9.41948 4.875 9.50351 4.88355 9.5848 4.90023H9.58643C10.0729 5.0007 10.4576 5.38541 10.5581 5.87191V5.87354C10.5748 5.95483 10.5833 6.03885 10.5833 6.125C10.5833 6.21115 10.5748 6.29517 10.5581 6.37646V6.37809C10.4407 6.94636 9.93581 7.375 9.33333 7.375H8.08333V6.125C8.08333 6.0381 8.09203 5.95361 8.10856 5.87191C8.20904 5.38541 8.59374 5.0007 9.08024 4.90023C9.16194 4.8837 9.24643 4.875 9.33333 4.875ZM13.9167 11.5417C13.8062 11.5417 13.7002 11.5856 13.622 11.6637C13.5439 11.7418 13.5 11.8478 13.5 11.9583C13.5 12.0688 13.5439 12.1748 13.622 12.253C13.7002 12.3311 13.8062 12.375 13.9167 12.375C14.0272 12.375 14.1332 12.3311 14.2113 12.253C14.2894 12.1748 14.3333 12.0688 14.3333 11.9583C14.3333 11.8478 14.2894 11.7418 14.2113 11.6637C14.1332 11.5856 14.0272 11.5417 13.9167 11.5417ZM15.1667 11.5417C15.0562 11.5417 14.9502 11.5856 14.872 11.6637C14.7939 11.7418 14.75 11.8478 14.75 11.9583C14.75 12.0688 14.7939 12.1748 14.872 12.253C14.9502 12.3311 15.0562 12.375 15.1667 12.375C15.2772 12.375 15.3832 12.3311 15.4613 12.253C15.5394 12.1748 15.5833 12.0688 15.5833 11.9583C15.5833 11.8478 15.5394 11.7418 15.4613 11.6637C15.3832 11.5856 15.2772 11.5417 15.1667 11.5417ZM16.4167 11.5417C16.3062 11.5417 16.2002 11.5856 16.122 11.6637C16.0439 11.7418 16 11.8478 16 11.9583C16 12.0688 16.0439 12.1748 16.122 12.253C16.2002 12.3311 16.3062 12.375 16.4167 12.375C16.5272 12.375 16.6332 12.3311 16.7113 12.253C16.7894 12.1748 16.8333 12.0688 16.8333 11.9583C16.8333 11.8478 16.7894 11.7418 16.7113 11.6637C16.6332 11.5856 16.5272 11.5417 16.4167 11.5417ZM17.6667 11.5417C17.5562 11.5417 17.4502 11.5856 17.372 11.6637C17.2939 11.7418 17.25 11.8478 17.25 11.9583C17.25 12.0688 17.2939 12.1748 17.372 12.253C17.4502 12.3311 17.5562 12.375 17.6667 12.375C17.7772 12.375 17.8832 12.3311 17.9613 12.253C18.0394 12.1748 18.0833 12.0688 18.0833 11.9583C18.0833 11.8478 18.0394 11.7418 17.9613 11.6637C17.8832 11.5856 17.7772 11.5417 17.6667 11.5417Z" fill="#292929"/>
<path d="M3.08333 1.125C1.9377 1.125 1 2.0627 1 3.20833V12.7917C1 13.9373 1.9377 14.875 3.08333 14.875H18.9167C20.0623 14.875 21 13.9373 21 12.7917V3.20833C21 2.0627 20.0623 1.125 18.9167 1.125H3.08333ZM3.08333 1.95833H7.25V3.49398C7.39458 3.56356 7.53458 3.64276 7.66667 3.73568C7.79875 3.64234 7.93875 3.56314 8.08333 3.49398V1.95833H18.9167C19.6119 1.95833 20.1667 2.51313 20.1667 3.20833V7.375H11.9668C11.8172 7.68917 11.6088 7.96792 11.3621 8.20833H20.1667V12.7917C20.1667 13.4869 19.6119 14.0417 18.9167 14.0417H8.08333V9.993L7.66667 9.58203L7.25 9.993V14.0417H3.08333C2.38813 14.0417 1.83333 13.4869 1.83333 12.7917V8.20833H3.97119C3.72452 7.96792 3.51654 7.68917 3.36654 7.375H1.83333V3.20833C1.83333 2.51313 2.38813 1.95833 3.08333 1.95833ZM6 4.04167C5.9284 4.04167 5.8574 4.0451 5.7876 4.05225C5.71792 4.05934 5.64839 4.07016 5.58089 4.08398C4.76793 4.25078 4.12578 4.89293 3.95898 5.70589C3.93111 5.84117 3.91667 5.9818 3.91667 6.125C3.91667 6.2682 3.93111 6.40801 3.95898 6.54329C4.12578 7.35626 4.76793 7.99922 5.58089 8.16602C5.71617 8.19389 5.8568 8.20833 6 8.20833H6.68522L4.8737 9.99463L5.45882 10.5887L7.66667 8.41178L9.87451 10.5887L10.1667 10.2917L10.4596 9.99463L8.64811 8.20833H9.33333C9.47654 8.20833 9.61716 8.19389 9.75244 8.16602C10.5654 7.99922 11.2076 7.35626 11.3743 6.54329C11.4022 6.40801 11.4167 6.2682 11.4167 6.125C11.4167 5.9818 11.4022 5.84117 11.3743 5.70589C11.2076 4.89293 10.5646 4.25078 9.75163 4.08398C9.61635 4.05611 9.47654 4.04167 9.33333 4.04167C9.25267 4.04167 9.17323 4.04727 9.09489 4.05631C9.07592 4.05852 9.05754 4.06254 9.03874 4.06527C8.98725 4.07266 8.93679 4.08181 8.88656 4.09294C8.7757 4.11768 8.66846 4.15116 8.5651 4.19303C8.53175 4.20641 8.49993 4.22195 8.46745 4.23698C8.38542 4.2753 8.30647 4.31804 8.23063 4.36637C8.18269 4.39661 8.13751 4.4293 8.09229 4.46322C8.04104 4.50201 7.99163 4.54286 7.94417 4.5861C7.90136 4.6248 7.85916 4.66285 7.81966 4.70492C7.76547 4.76295 7.71417 4.82422 7.66667 4.88802C7.61917 4.82422 7.56786 4.76295 7.51367 4.70492C7.47418 4.66285 7.43197 4.6248 7.38916 4.5861C7.3417 4.54286 7.29229 4.50201 7.24105 4.46322C7.19582 4.4293 7.15064 4.39661 7.1027 4.36637C7.02687 4.31804 6.94791 4.2753 6.86589 4.23698C6.8334 4.22195 6.80158 4.20641 6.76823 4.19303C6.66487 4.15116 6.55763 4.11768 6.44678 4.09294C6.39654 4.08181 6.34609 4.07266 6.2946 4.06527C6.27579 4.06254 6.25741 4.05852 6.23844 4.05631C6.1601 4.04727 6.08066 4.04167 6 4.04167ZM6 4.875C6.08615 4.875 6.17017 4.88355 6.25146 4.90023H6.25309C6.82136 5.01759 7.25 5.52252 7.25 6.125V7.375H6C5.91365 7.375 5.82976 7.3661 5.74854 7.34977C5.26131 7.24979 4.87581 6.86511 4.77523 6.37809V6.37646C4.75855 6.29517 4.75 6.21115 4.75 6.125C4.75 6.03865 4.7589 5.95476 4.77523 5.87354C4.87521 5.38631 5.25989 5.00081 5.74691 4.90023C5.82861 4.8837 5.9131 4.875 6 4.875ZM9.33333 4.875C9.41948 4.875 9.50351 4.88355 9.5848 4.90023H9.58643C10.0729 5.0007 10.4576 5.38541 10.5581 5.87191V5.87354C10.5748 5.95483 10.5833 6.03885 10.5833 6.125C10.5833 6.21115 10.5748 6.29517 10.5581 6.37646V6.37809C10.4407 6.94636 9.93581 7.375 9.33333 7.375H8.08333V6.125C8.08333 6.0381 8.09203 5.95361 8.10856 5.87191C8.20904 5.38541 8.59374 5.0007 9.08024 4.90023C9.16194 4.8837 9.24643 4.875 9.33333 4.875ZM13.9167 11.5417C13.8062 11.5417 13.7002 11.5856 13.622 11.6637C13.5439 11.7418 13.5 11.8478 13.5 11.9583C13.5 12.0688 13.5439 12.1748 13.622 12.253C13.7002 12.3311 13.8062 12.375 13.9167 12.375C14.0272 12.375 14.1332 12.3311 14.2113 12.253C14.2894 12.1748 14.3333 12.0688 14.3333 11.9583C14.3333 11.8478 14.2894 11.7418 14.2113 11.6637C14.1332 11.5856 14.0272 11.5417 13.9167 11.5417ZM15.1667 11.5417C15.0562 11.5417 14.9502 11.5856 14.872 11.6637C14.7939 11.7418 14.75 11.8478 14.75 11.9583C14.75 12.0688 14.7939 12.1748 14.872 12.253C14.9502 12.3311 15.0562 12.375 15.1667 12.375C15.2772 12.375 15.3832 12.3311 15.4613 12.253C15.5394 12.1748 15.5833 12.0688 15.5833 11.9583C15.5833 11.8478 15.5394 11.7418 15.4613 11.6637C15.3832 11.5856 15.2772 11.5417 15.1667 11.5417ZM16.4167 11.5417C16.3062 11.5417 16.2002 11.5856 16.122 11.6637C16.0439 11.7418 16 11.8478 16 11.9583C16 12.0688 16.0439 12.1748 16.122 12.253C16.2002 12.3311 16.3062 12.375 16.4167 12.375C16.5272 12.375 16.6332 12.3311 16.7113 12.253C16.7894 12.1748 16.8333 12.0688 16.8333 11.9583C16.8333 11.8478 16.7894 11.7418 16.7113 11.6637C16.6332 11.5856 16.5272 11.5417 16.4167 11.5417ZM17.6667 11.5417C17.5562 11.5417 17.4502 11.5856 17.372 11.6637C17.2939 11.7418 17.25 11.8478 17.25 11.9583C17.25 12.0688 17.2939 12.1748 17.372 12.253C17.4502 12.3311 17.5562 12.375 17.6667 12.375C17.7772 12.375 17.8832 12.3311 17.9613 12.253C18.0394 12.1748 18.0833 12.0688 18.0833 11.9583C18.0833 11.8478 18.0394 11.7418 17.9613 11.6637C17.8832 11.5856 17.7772 11.5417 17.6667 11.5417Z" stroke="#292929" stroke-width="0.4" mask="url(#path-1-outside-1_4586_240)"/>
</svg>
