<svg width="22" height="22" viewBox="0 0 22 22" fill="none" xmlns="http://www.w3.org/2000/svg">
<path d="M11 21.5C16.5 21.5 21 17 21 11.5C21 6 16.5 1.5 11 1.5C5.5 1.5 1 6 1 11.5C1 17 5.5 21.5 11 21.5Z" stroke="#292929" stroke-width="1.2" stroke-linecap="round" stroke-linejoin="round"/>
<path d="M11.1 6.53294C12.0318 6.53294 12.7847 6.79647 13.3588 7.32353C13.9329 7.85059 14.22 8.55647 14.22 9.44118C14.22 10.4294 13.9141 11.1635 13.3024 11.6435C12.6906 12.1141 11.8624 12.3494 10.8176 12.3494L10.7753 13.6906H9.66L9.60353 11.46H10.0129C10.9447 11.46 11.6741 11.3188 12.2012 11.0365C12.7282 10.7541 12.9918 10.2224 12.9918 9.44118C12.9918 8.87647 12.8224 8.42941 12.4835 8.1C12.1447 7.77059 11.6882 7.60588 11.1141 7.60588C10.5306 7.60588 10.0694 7.76588 9.73059 8.08588C9.40118 8.39647 9.23647 8.82471 9.23647 9.37059H8.02235C8.02235 8.80588 8.14941 8.31176 8.40353 7.88823C8.65765 7.45529 9.01529 7.12118 9.47647 6.88588C9.94706 6.65059 10.4882 6.53294 11.1 6.53294ZM10.2106 16.5847C9.96588 16.5847 9.75882 16.5 9.58941 16.3306C9.42 16.1612 9.33529 15.9541 9.33529 15.7094C9.33529 15.4647 9.42 15.2576 9.58941 15.0882C9.75882 14.9188 9.96588 14.8341 10.2106 14.8341C10.4459 14.8341 10.6435 14.9188 10.8035 15.0882C10.9729 15.2576 11.0576 15.4647 11.0576 15.7094C11.0576 15.9541 10.9729 16.1612 10.8035 16.3306C10.6435 16.5 10.4459 16.5847 10.2106 16.5847Z" fill="#292929"/>
</svg>
