<svg  viewBox="0 0 22 22" fill="none" xmlns="http://www.w3.org/2000/svg">
<path d="M6.89777 21.2556H15.1022C19.225 21.2556 19.9634 19.6044 20.1787 17.5943L20.9479 9.3899C21.2248 6.88754 20.5069 4.84668 16.1278 4.84668H5.87222C1.49309 4.84668 0.775201 6.88754 1.0521 9.3899L1.82127 17.5943C2.03664 19.6044 2.77504 21.2556 6.89777 21.2556Z" stroke="#292929" stroke-width="1.2" stroke-miterlimit="10" stroke-linecap="round" stroke-linejoin="round"/>
<path d="M6.89746 4.84667V4.02623C6.89746 2.21099 6.89746 0.744446 10.1792 0.744446H11.8201C15.1019 0.744446 15.1019 2.21099 15.1019 4.02623V4.84667" stroke="#292929" stroke-width="1.2" stroke-miterlimit="10" stroke-linecap="round" stroke-linejoin="round"/>
<path d="M13.051 12.0256V13.0511C13.051 13.0614 13.051 13.0614 13.051 13.0716C13.051 14.1895 13.0407 15.1022 10.9998 15.1022C8.96924 15.1022 8.94873 14.1997 8.94873 13.0819V12.0256C8.94873 11 8.94873 11 9.97429 11H12.0254C13.051 11 13.051 11 13.051 12.0256Z" stroke="#292929" stroke-width="1.2" stroke-miterlimit="10" stroke-linecap="round" stroke-linejoin="round"/>
<path d="M20.8968 9.97443C18.5277 11.6974 15.8203 12.7229 13.0513 13.0716" stroke="#292929" stroke-width="1.2" stroke-miterlimit="10" stroke-linecap="round" stroke-linejoin="round"/>
<path d="M1.38037 10.2514C3.68787 11.8308 6.29279 12.7845 8.94898 13.0819" stroke="#292929" stroke-width="1.2" stroke-miterlimit="10" stroke-linecap="round" stroke-linejoin="round"/>
</svg>
