<svg viewBox="0 0 22 22" fill="none" xmlns="http://www.w3.org/2000/svg">
<path d="M17.0142 7.74121C17.0142 6.64533 17.9037 5.75592 18.9995 5.75592V4.9618C18.9995 1.78533 18.2054 0.991211 15.029 0.991211H7.08778C3.91131 0.991211 3.11719 1.78533 3.11719 4.9618V5.35886C4.21307 5.35886 5.10248 6.24827 5.10248 7.34415C5.10248 8.44003 4.21307 9.32945 3.11719 9.32945V9.7265C3.11719 12.903 3.91131 13.6971 7.08778 13.6971H15.029C18.2054 13.6971 18.9995 12.903 18.9995 9.7265C17.9037 9.7265 17.0142 8.83709 17.0142 7.74121Z" stroke-width="1.5" stroke-linecap="round" stroke-linejoin="round"/>
<path d="M9.46875 0.991211L9.46875 13.6971" stroke-width="1.5" stroke-linecap="round" stroke-linejoin="round" stroke-dasharray="5 5"/>
<path d="M1 13.5874V12.8838C1 12.468 1.33983 12.1241 1.75962 12.1241C2.48326 12.1241 2.77911 11.6124 2.41529 10.9847C2.2074 10.6249 2.33133 10.1571 2.69515 9.94923L3.38681 9.55343C3.70265 9.36552 4.11044 9.47747 4.29835 9.79331L4.34233 9.86927C4.70215 10.497 5.29385 10.497 5.65767 9.86927L5.70165 9.79331C5.88956 9.47747 6.29735 9.36552 6.61319 9.55343L7.30485 9.94923C7.66867 10.1571 7.7926 10.6249 7.58471 10.9847C7.22089 11.6124 7.51674 12.1241 8.24038 12.1241C8.65617 12.1241 9 12.464 9 12.8838V13.5874C9 14.0032 8.66017 14.347 8.24038 14.347C7.51674 14.347 7.22089 14.8588 7.58471 15.4865C7.7926 15.8503 7.66867 16.314 7.30485 16.5219L6.61319 16.9177C6.29735 17.1056 5.88956 16.9937 5.70165 16.6779L5.65767 16.6019C5.29785 15.9742 4.70615 15.9742 4.34233 16.6019L4.29835 16.6779C4.11044 16.9937 3.70265 17.1056 3.38681 16.9177L2.69515 16.5219C2.33133 16.314 2.2074 15.8463 2.41529 15.4865C2.77911 14.8588 2.48326 14.347 1.75962 14.347C1.33983 14.347 1 14.0032 1 13.5874Z" fill="white" stroke-width="0.7" stroke-miterlimit="10" stroke-linecap="round" stroke-linejoin="round"/>
<path d="M4.99823 14.4349C5.66064 14.4349 6.19763 13.8979 6.19763 13.2355C6.19763 12.5731 5.66064 12.0361 4.99823 12.0361C4.33582 12.0361 3.79883 12.5731 3.79883 13.2355C3.79883 13.8979 4.33582 14.4349 4.99823 14.4349Z" fill="white" stroke-width="0.7" stroke-miterlimit="10" stroke-linecap="round" stroke-linejoin="round"/>
</svg>
