<svg width="22" height="22" viewBox="0 0 22 22" fill="none" xmlns="http://www.w3.org/2000/svg">
<path d="M8 10V9C8 7.34 8.5 6 11 6C13.5 6 14 7.34 14 9V10" stroke="#292929" stroke-width="1.2" stroke-linecap="round" stroke-linejoin="round"/>
<path d="M10.9999 13.6C11.3312 13.6 11.5999 13.3314 11.5999 13C11.5999 12.6686 11.3312 12.4 10.9999 12.4C10.6685 12.4 10.3999 12.6686 10.3999 13C10.3999 13.3314 10.6685 13.6 10.9999 13.6Z" stroke="#292929" stroke-width="1.2" stroke-linecap="round" stroke-linejoin="round"/>
<path d="M13.5 16H8.5C6.5 16 6 15.5 6 13.5V12.5C6 10.5 6.5 10 8.5 10H13.5C15.5 10 16 10.5 16 12.5V13.5C16 15.5 15.5 16 13.5 16Z" stroke="#292929" stroke-width="1.2" stroke-linecap="round" stroke-linejoin="round"/>
<path d="M11 21C16.5228 21 21 16.5228 21 11C21 5.47715 16.5228 1 11 1C5.47715 1 1 5.47715 1 11C1 16.5228 5.47715 21 11 21Z" stroke="#292929" stroke-width="1.2" stroke-linecap="round" stroke-linejoin="round"/>
</svg>
