<svg width="22" height="22" viewBox="0 0 22 22" fill="none" xmlns="http://www.w3.org/2000/svg">
<path d="M13 1.5H8C3 1.5 1 3.5 1 8.5V14.5C1 19.5 3 21.5 8 21.5" stroke="#292929" stroke-width="1.2" stroke-linecap="round" stroke-linejoin="round"/>
<path d="M21 9.5V12.5" stroke="#292929" stroke-width="1.2" stroke-linecap="round" stroke-linejoin="round"/>
<path d="M21 9.5H17C14 9.5 13 8.5 13 5.5V1.5L21 9.5Z" stroke="#292929" stroke-width="1.2" stroke-linecap="round" stroke-linejoin="round"/>
<path d="M15.5 13.5C13.025 13.5 11 15.525 11 18C11 20.475 13.025 22.5 15.5 22.5C17.975 22.5 20 20.475 20 18C20 15.525 17.975 13.5 15.5 13.5Z" stroke="#292929" stroke-width="1.2" stroke-linecap="round" stroke-linejoin="round"/>
<path d="M15.5 19.8V17.55" stroke="#292929" stroke-width="1.2" stroke-linecap="round" stroke-linejoin="round"/>
<path d="M15.5024 16.2H15.4984" stroke="#292929" stroke-width="1.2" stroke-linecap="round" stroke-linejoin="round"/>
</svg>
