<svg xmlns="http://www.w3.org/2000/svg" width="30" height="30" viewBox="0 0 30 30" fill="none">
    <path opacity="0.4"
        d="M15.0007 30.0005C23.2851 30.0005 30.001 23.2847 30.001 15.0002C30.001 6.71584 23.2851 0 15.0007 0C6.71633 0 0.000488281 6.71584 0.000488281 15.0002C0.000488281 23.2847 6.71633 30.0005 15.0007 30.0005Z"
        fill="white" />
    <path
        d="M15.0006 7.39502C11.8955 7.39502 9.37549 9.91506 9.37549 13.0201C9.37549 16.0652 11.7605 18.5402 14.9256 18.6302C14.9706 18.6302 15.0306 18.6302 15.0606 18.6302C15.0906 18.6302 15.1356 18.6302 15.1656 18.6302C15.1806 18.6302 15.1956 18.6302 15.1956 18.6302C18.2256 18.5252 20.6107 16.0652 20.6257 13.0201C20.6257 9.91506 18.1056 7.39502 15.0006 7.39502Z"
        fill="white" />
    <path
        d="M25.1714 26.0253C22.5013 28.4853 18.9313 30.0004 15.0012 30.0004C11.0712 30.0004 7.5011 28.4853 4.83105 26.0253C5.19106 24.6603 6.16608 23.4153 7.5911 22.4552C11.6862 19.7252 18.3463 19.7252 22.4113 22.4552C23.8514 23.4153 24.8114 24.6603 25.1714 26.0253Z"
        fill="white" />
</svg>