<svg width="32" height="32" viewBox="0 0 19 19" fill="none" xmlns="http://www.w3.org/2000/svg">
<path opacity="0.4" d="M4.55375 3.40657L13.5737 0.396566C17.6237 -0.953434 19.8238 1.25657 18.4838 5.30657L15.4738 14.3266C13.4538 20.3966 10.1338 20.3966 8.11375 14.3266L7.22375 11.6466L4.54375 10.7566C-1.51625 8.74657 -1.51625 5.43657 4.55375 3.40657Z" fill="#D94407"/>
<path d="M9.5625 9.07684L13.3725 5.25684Z" fill="#D94407"/>
<path d="M9.56391 9.82678C9.37391 9.82678 9.18391 9.75678 9.03391 9.60678C8.74391 9.31678 8.74391 8.83678 9.03391 8.54678L12.8339 4.72678C13.1239 4.43678 13.6039 4.43678 13.8939 4.72678C14.1839 5.01678 14.1839 5.49678 13.8939 5.78678L10.0939 9.60678C9.94391 9.74678 9.75391 9.82678 9.56391 9.82678Z" fill="#D94407"/>
</svg>
