<svg width="44" height="36" viewBox="0 0 44 36" fill="none" xmlns="http://www.w3.org/2000/svg">
<path d="M10.0033 35.8229V17.3734L4.73253 12.1388L0.00610352 9.23401V32.567C0.00610352 34.3685 1.35065 35.8229 3.00533 35.8229H10.0033V35.8229Z" fill="#4285F4"/>
<path d="M33.9966 35.8228H40.9946C42.6542 35.8228 43.9938 34.3631 43.9938 32.567V9.23413L38.6404 12.5612L33.9966 17.3733V35.8228V35.8228Z" fill="#34A853"/>
<path d="M10.0036 17.3734L9.28638 10.1646L10.0036 3.26514L22.0002 13.0325L33.9967 3.26514L34.7992 9.79214L33.9967 17.3734L22.0002 27.1408L10.0036 17.3734Z" fill="#EA4335"/>
<path d="M33.9966 3.26494V17.3732L43.9938 9.23385V4.89277C43.9938 0.866554 39.76 -1.42868 36.796 0.985932L33.9966 3.26494Z" fill="#FBBC04"/>
<path d="M0.00561523 9.23394L4.60352 12.9776L10.0028 17.3733V3.26502L7.20342 0.986017C4.23426 -1.42878 0.00561523 0.866639 0.00561523 4.89267V9.23375V9.23394Z" fill="#C5221F"/>
<defs>
<clipPath id="clip0_1371_5665">
<rect width="44" height="36" fill="white"/>
</clipPath>
</defs>
</svg>
