<svg viewBox="0 0 27 26" fill="none" xmlns="http://www.w3.org/2000/svg">
<path d="M15.5461 2.69666L17.6307 6.86578C17.9149 7.44614 18.673 8.00281 19.3125 8.10941L23.0908 8.73714C25.507 9.13984 26.0755 10.8928 24.3344 12.622L21.3971 15.5593C20.8997 16.0568 20.6272 17.0161 20.7812 17.7031L21.6221 21.3392C22.2854 24.2173 20.7575 25.3307 18.211 23.8265L14.6697 21.7301C14.0301 21.3511 12.976 21.3511 12.3245 21.7301L8.78317 23.8265C6.24853 25.3307 4.7088 24.2055 5.37207 21.3392L6.213 17.7031C6.36697 17.0161 6.09456 16.0568 5.59711 15.5593L2.65978 12.622C0.930544 10.8928 1.48722 9.13984 3.90341 8.73714L7.68167 8.10941C8.3094 8.00281 9.06742 7.44614 9.35168 6.86578L11.4362 2.69666C12.5733 0.434446 14.4209 0.434446 15.5461 2.69666Z" stroke-width="1.77661" stroke-linecap="round" stroke-linejoin="round"/>
</svg>