<svg width="16" height="16" viewBox="0 0 19 16" fill="none" xmlns="http://www.w3.org/2000/svg">
<path d="M17.1003 13.5216H15.1997V5.20777L9.50043 8.77011L3.80035 5.20777V13.5207H1.90061V2.12058H3.04028L9.49958 6.15892L15.9589 2.12144H17.0994L17.1003 13.5216ZM17.1003 0.221692H1.90061C1.65084 0.220791 1.40335 0.269307 1.17241 0.364449C0.941469 0.45959 0.731629 0.599476 0.554973 0.776052C0.378318 0.952628 0.238338 1.16241 0.143093 1.39331C0.0478482 1.6242 -0.000779742 1.87166 9.45408e-06 2.12144V13.5216C9.42892e-06 13.7712 0.0491759 14.0183 0.1447 14.2488C0.240225 14.4793 0.380235 14.6888 0.556733 14.8652C0.733231 15.0416 0.942758 15.1816 1.17334 15.277C1.40393 15.3724 1.65106 15.4215 1.90061 15.4213H17.1003C17.6041 15.4213 18.0873 15.2212 18.4436 14.8649C18.7999 14.5087 19 14.0254 19 13.5216V2.12058C19 1.61674 18.7999 1.13353 18.4436 0.777261C18.0873 0.42099 17.6041 0.221692 17.1003 0.221692Z"/>
</svg>
