<svg width="16" height="16" viewBox="0 0 18 19" fill="none" xmlns="http://www.w3.org/2000/svg">
<path fill-rule="evenodd" clip-rule="evenodd" d="M9.00002 0.22168C6.55575 0.22168 6.24926 0.23204 5.28931 0.27584C4.33137 0.319532 3.67712 0.471687 3.10466 0.694186C2.51283 0.924151 2.01092 1.23189 1.51055 1.73223C1.01021 2.2326 0.702472 2.73451 0.472506 3.32634C0.250008 3.8988 0.0978521 4.55305 0.0541601 5.51099C0.0103605 6.47094 0 6.77743 0 9.2217C0 11.6659 0.0103605 11.9724 0.0541601 12.9324C0.0978521 13.8903 0.250008 14.5446 0.472506 15.117C0.702472 15.7089 1.01021 16.2108 1.51055 16.7111C2.01092 17.2115 2.51283 17.5192 3.10466 17.7492C3.67712 17.9717 4.33137 18.1238 5.28931 18.1675C6.24926 18.2113 6.55575 18.2217 9.00002 18.2217C11.4443 18.2217 11.7507 18.2113 12.7107 18.1675C13.6686 18.1238 14.3229 17.9717 14.8953 17.7492C15.4872 17.5192 15.9891 17.2115 16.4895 16.7111C16.9898 16.2108 17.2975 15.7089 17.5275 15.117C17.75 14.5446 17.9021 13.8903 17.9458 12.9324C17.9896 11.9724 18 11.6659 18 9.2217C18 6.77743 17.9896 6.47094 17.9458 5.51099C17.9021 4.55305 17.75 3.8988 17.5275 3.32634C17.2975 2.73451 16.9898 2.2326 16.4895 1.73223C15.9891 1.23189 15.4872 0.924151 14.8953 0.694186C14.3229 0.471687 13.6686 0.319532 12.7107 0.27584C11.7507 0.23204 11.4443 0.22168 9.00002 0.22168ZM9.00002 1.8433C11.4031 1.8433 11.6878 1.85248 12.6368 1.89578C13.5143 1.93579 13.9908 2.08241 14.3079 2.20566C14.728 2.36893 15.0278 2.56395 15.3428 2.87891C15.6577 3.19383 15.8528 3.49364 16.016 3.91374C16.1393 4.23087 16.2859 4.70742 16.3259 5.58491C16.3692 6.53392 16.3784 6.81858 16.3784 9.2217C16.3784 11.6248 16.3692 11.9094 16.3259 12.8585C16.2859 13.7359 16.1393 14.2125 16.016 14.5296C15.8528 14.9497 15.6577 15.2495 15.3428 15.5644C15.0278 15.8794 14.728 16.0744 14.3079 16.2377C13.9908 16.361 13.5143 16.5076 12.6368 16.5476C11.6879 16.5909 11.4033 16.6001 9.00002 16.6001C6.59672 16.6001 6.31213 16.5909 5.36323 16.5476C4.48574 16.5076 4.00919 16.361 3.69206 16.2377C3.27196 16.0744 2.97215 15.8794 2.65723 15.5644C2.34231 15.2495 2.14725 14.9497 1.98398 14.5296C1.86073 14.2125 1.71411 13.7359 1.6741 12.8585C1.6308 11.9094 1.62162 11.6248 1.62162 9.2217C1.62162 6.81858 1.6308 6.53392 1.6741 5.58491C1.71411 4.70742 1.86073 4.23087 1.98398 3.91374C2.14725 3.49364 2.34227 3.19383 2.65723 2.87891C2.97215 2.56395 3.27196 2.36893 3.69206 2.20566C4.00919 2.08241 4.48574 1.93579 5.36323 1.89578C6.31224 1.85248 6.5969 1.8433 9.00002 1.8433ZM4.37838 9.2217C4.37838 6.66921 6.44753 4.60006 9.00002 4.60006C11.5525 4.60006 13.6216 6.66921 13.6216 9.2217C13.6216 11.7741 11.5525 13.8433 9.00002 13.8433C6.44753 13.8433 4.37838 11.7741 4.37838 9.2217ZM9.00002 12.2217C7.34314 12.2217 6 10.8785 6 9.2217C6 7.56482 7.34314 6.22168 9.00002 6.22168C10.6569 6.22168 12 7.56482 12 9.2217C12 10.8785 10.6569 12.2217 9.00002 12.2217ZM13.8042 5.49745C14.4007 5.49745 14.8842 5.01394 14.8842 4.41747C14.8842 3.82099 14.4007 3.33745 13.8042 3.33745C13.2078 3.33745 12.7242 3.82099 12.7242 4.41747C12.7242 5.01394 13.2078 5.49745 13.8042 5.49745Z"/>
</svg>
