<svg width="16" height="16" viewBox="0 0 14 15" fill="none" xmlns="http://www.w3.org/2000/svg">
<path fill-rule="evenodd" clip-rule="evenodd" d="M3 14.2217H0V5.22168H3V14.2217Z"/>
<path fill-rule="evenodd" clip-rule="evenodd" d="M1.49108 3.22168H1.47404C0.578773 3.22168 0 2.55471 0 1.72116C0 0.869986 0.5964 0.22168 1.50865 0.22168C2.42091 0.22168 2.98269 0.869986 3 1.72116C3 2.55471 2.42091 3.22168 1.49108 3.22168Z" />
<path fill-rule="evenodd" clip-rule="evenodd" d="M13.9999 14.2214H11.0519V9.51703C11.0519 8.33539 10.6253 7.52906 9.55814 7.52906C8.74368 7.52906 8.25855 8.07264 8.04549 8.59766C7.96754 8.78582 7.94841 9.04798 7.94841 9.31078V14.2217H5C5 14.2217 5.03886 6.25351 5 5.4284H7.94841V6.67389C8.33968 6.07516 9.04046 5.22168 10.6057 5.22168C12.5456 5.22168 14 6.47873 14 9.17965L13.9999 14.2214Z"/>
</svg>
