<svg width="16" height="16" viewBox="0 0 19 22" fill="none" xmlns="http://www.w3.org/2000/svg">
<path d="M15.6868 4.68215C14.5476 3.93945 13.7255 2.75112 13.469 1.36585C13.4136 1.06655 13.3832 0.758521 13.3832 0.443359H9.74764L9.74181 15.0134C9.68069 16.645 8.33782 17.9545 6.6916 17.9545C6.17994 17.9545 5.69817 17.8266 5.27398 17.6034C4.30125 17.0915 3.63555 16.0719 3.63555 14.8985C3.63555 13.2133 5.00656 11.8423 6.6916 11.8423C7.00615 11.8423 7.3079 11.8942 7.59332 11.9836V8.27212C7.29794 8.2319 6.99782 8.20676 6.6916 8.20676C3.00177 8.20676 0 11.2087 0 14.8985C0 17.1624 1.13109 19.1658 2.85669 20.3773C3.94361 21.1403 5.26572 21.5901 6.6916 21.5901C10.3814 21.5901 13.3832 18.5883 13.3832 14.8985V7.51024C14.8091 8.53368 16.5561 9.13677 18.4412 9.13677V5.50122C17.4257 5.50122 16.4799 5.19934 15.6868 4.68215Z"/>
</svg>
