<svg width="39" height="40" viewBox="0 0 39 40" fill="none" xmlns="http://www.w3.org/2000/svg">
<path fill-rule="evenodd" clip-rule="evenodd" d="M19.3122 17.1479L19.3404 17.6236L18.8708 17.5654C17.1612 17.342 15.6677 16.5847 14.3996 15.3127L13.7796 14.6816L13.62 15.1476C13.2818 16.1866 13.4978 17.2838 14.2023 18.0217C14.5781 18.4295 14.4935 18.4878 13.8454 18.2451C13.62 18.1674 13.4227 18.1091 13.4039 18.1383C13.3382 18.2062 13.5636 19.0898 13.7421 19.4394C13.9863 19.9249 14.4841 20.4006 15.0289 20.6822L15.4892 20.9056L14.9444 20.9153C14.4184 20.9153 14.3996 20.925 14.4559 21.1289C14.6438 21.76 15.3859 22.43 16.2125 22.7213L16.7949 22.9252L16.2876 23.2359C15.5362 23.6826 14.6532 23.935 13.7702 23.9544C13.3475 23.9641 13 24.003 13 24.0321C13 24.1292 14.146 24.673 14.8129 24.8866C16.8136 25.5177 19.1901 25.2458 20.9748 24.168C22.2429 23.401 23.511 21.8765 24.1028 20.4006C24.4222 19.6141 24.7415 18.1771 24.7415 17.4877C24.7415 17.041 24.7697 16.9828 25.2957 16.4487C25.6057 16.138 25.8969 15.7982 25.9532 15.7011C26.0472 15.5166 26.0378 15.5166 25.5587 15.6817C24.7603 15.973 24.6476 15.9341 25.0421 15.4972C25.3333 15.1865 25.6808 14.6233 25.6808 14.4582C25.6808 14.4291 25.5399 14.4777 25.3803 14.565C25.2112 14.6621 24.8355 14.8078 24.5537 14.8952L24.0464 15.0602L23.5862 14.7398C23.3325 14.565 22.9756 14.3708 22.7877 14.3126C22.3087 14.1766 21.576 14.1961 21.1439 14.3514C19.9698 14.7884 19.2277 15.9147 19.3122 17.1479Z"/>
</svg>