<svg xmlns="http://www.w3.org/2000/svg" viewBox="0 0 236 236" fill="none">
<path d="M151.117 77.5859C153.645 78.1418 155.513 77.6377 158 77C160.919 76.5704 162.976 76.664 166 77C169.575 81.1255 171.095 84.897 171.205 90.2935C171.235 91.5922 171.235 91.5922 171.266 92.9173C171.282 93.8546 171.299 94.792 171.316 95.7578C171.337 96.7343 171.358 97.7107 171.379 98.7168C171.423 100.793 171.464 102.869 171.503 104.946C171.561 108.064 171.627 111.182 171.693 114.301C172.051 131.551 172.202 148.73 171.365 165.969C171.288 167.627 171.218 169.285 171.156 170.944C170.528 187.697 170.528 187.697 166.831 195.27C165.856 196.981 165.856 196.981 166 199C166.804 199.392 167.609 199.784 168.437 200.188C171 202 171 202 172.125 205.438C172 209 172 209 169.875 211.438C166.739 213.142 165.488 213.495 162 213C159.797 211.137 159.797 211.137 157.75 208.688C157.064 207.887 156.378 207.086 155.672 206.262C154 204 154 204 153 201C152.022 201.217 152.022 201.217 151.023 201.438C146.274 202.446 141.886 203.257 137 203C137.825 203.846 138.65 204.691 139.5 205.563C141.668 208.175 142.012 209.077 142.562 212.625C142 216 142 216 140.312 218.438C138 220 138 220 135.562 220.563C131.304 219.628 129.256 216.806 126.832 213.32C124.544 209.604 123.422 206.328 123 202C116.308 201.3 109.731 200.783 103 201C102.67 201.33 102.34 201.66 102 202C99.1875 202.312 99.1875 202.312 96 202C95.4431 201.381 94.8862 200.762 94.3125 200.125C89.8227 195.999 82.8881 196 77 196C77.66 196.99 78.32 197.98 79 199C79.5132 202.336 79.3222 203.558 77.3125 206.313C74.519 208.351 73.3882 208.427 70 208C62.5827 202.343 59.7855 191.778 58 183C57.2333 176.88 57.3875 170.725 57.4765 164.57C57.4834 162.843 57.4881 161.115 57.4908 159.387C57.5041 154.88 57.5481 150.373 57.5984 145.866C57.6337 142.224 57.6469 138.583 57.6588 134.941C57.6737 130.526 57.6988 126.111 57.7265 121.695C57.7315 120.882 57.7364 120.068 57.7414 119.23C57.8224 107.793 58.2723 96.4136 59 85C66.7053 83.8733 66.7053 83.8733 70.0312 83.8672C70.7477 83.8651 71.4642 83.863 72.2024 83.8608C72.9606 83.8655 73.7188 83.8702 74.5 83.875C75.3117 83.8784 76.1234 83.8818 76.9597 83.8853C116.412 84.2059 116.412 84.2059 124 88C124 87.34 124 86.68 124 86C124.784 85.8763 125.567 85.7525 126.375 85.625C129.141 85.2088 129.141 85.2088 131 83C130.01 82.505 130.01 82.505 129 82C129.99 81.67 130.98 81.34 132 81C132 79.68 132 78.36 132 77C138.77 76.1523 144.505 75.8084 151.117 77.5859Z" fill="#F66802"/>
<path d="M166 77C169.575 81.1255 171.095 84.897 171.205 90.2935C171.235 91.5922 171.235 91.5922 171.266 92.9173C171.282 93.8546 171.299 94.792 171.316 95.7578C171.337 96.7343 171.358 97.7107 171.379 98.7168C171.423 100.793 171.464 102.869 171.503 104.946C171.561 108.064 171.627 111.182 171.693 114.301C172.051 131.551 172.202 148.73 171.365 165.969C171.288 167.627 171.218 169.285 171.156 170.944C170.528 187.697 170.528 187.697 166.831 195.27C165.856 196.981 165.856 196.981 166 199C166.804 199.392 167.609 199.784 168.437 200.188C171 202 171 202 172.125 205.438C172 209 172 209 169.875 211.438C166.739 213.142 165.488 213.495 162 213C159.797 211.137 159.797 211.137 157.75 208.688C157.064 207.887 156.378 207.086 155.672 206.262C154 204 154 204 153 201C152.022 201.217 152.022 201.217 151.023 201.438C146.274 202.446 141.886 203.257 137 203C137.825 203.846 138.65 204.691 139.5 205.562C141.668 208.175 142.012 209.077 142.562 212.625C142 216 142 216 140.312 218.438C138 220 138 220 135.562 220.562C131.304 219.628 129.256 216.806 126.832 213.32C124.544 209.604 123.422 206.328 123 202C116.308 201.3 109.731 200.783 103 201C102.67 201.33 102.34 201.66 102 202C99.1875 202.312 99.1875 202.312 96 202C95.4431 201.381 94.8862 200.762 94.3125 200.125C89.8227 195.999 82.8881 196 77 196C77.66 196.99 78.32 197.98 79 199C79.5132 202.336 79.3222 203.558 77.3125 206.312C74.519 208.351 73.3882 208.427 70 208C62.6451 202.39 59.3797 191.835 58 183C57.4814 176.005 57.6681 169.001 58 162C58.33 162 58.66 162 59 162C59.0374 162.892 59.0748 163.784 59.1133 164.703C59.179 165.874 59.2448 167.044 59.3125 168.25C59.3705 169.41 59.4285 170.57 59.4883 171.766C60.0242 175.153 60.82 176.452 63 179C63 179.66 63 180.32 63 181C64.3058 181.128 65.6116 181.255 66.957 181.387C71.6159 181.905 76.1131 182.811 80.6875 183.812C89.7561 185.718 98.8806 187.042 108.062 188.25C108.733 188.339 109.403 188.427 110.093 188.519C117.522 189.586 117.522 189.586 125 190C125.103 190.639 125.206 191.279 125.312 191.938C125.539 192.618 125.766 193.299 126 194C129.56 195.187 132.438 195.097 136.187 195.062C137.46 195.053 138.732 195.044 140.043 195.035C141.019 195.024 141.995 195.012 143 195C143.66 196.32 144.32 197.64 145 199C145.66 199 146.32 199 147 199C148.316 195.38 149 192.904 149 189C148.67 189.33 148.34 189.66 148 190C146.147 190.072 144.292 190.084 142.437 190.062C141.426 190.053 140.414 190.044 139.371 190.035C138.589 190.024 137.806 190.012 137 190C137.021 188.886 137.041 187.772 137.062 186.625C137.264 183.168 137.264 183.168 136 181C135.903 178.881 135.872 176.758 135.871 174.636C135.868 173.655 135.868 173.655 135.865 172.654C135.861 170.475 135.864 168.296 135.867 166.117C135.867 164.586 135.866 163.054 135.864 161.523C135.863 158.293 135.865 155.063 135.87 151.833C135.875 147.768 135.872 143.702 135.866 139.637C135.844 121.733 136.03 103.884 137 86C137.99 85.67 138.98 85.34 140 85C140 84.34 140 83.68 140 83C142.64 83 145.28 83 148 83C147.505 80.525 147.505 80.525 147 78C148.072 78.0206 149.145 78.0413 150.25 78.0625C153.728 78.1506 153.728 78.1506 155.937 77.5C159.325 76.6787 162.565 76.2383 166 77Z" fill="#BD442A"/>

<path d="M140 83C142.97 83 145.94 83 149 83C149.906 85.7181 150.127 87.2933 150.134 90.0855C150.138 90.9154 150.142 91.7453 150.147 92.6004C150.146 93.5075 150.146 94.4146 150.145 95.3491C150.15 96.7861 150.15 96.7861 150.155 98.2522C150.165 101.426 150.167 104.6 150.168 107.773C150.171 109.977 150.175 112.18 150.178 114.383C150.184 119.005 150.186 123.627 150.185 128.249C150.185 134.173 150.199 140.097 150.216 146.021C150.227 150.573 150.229 155.125 150.229 159.676C150.23 161.86 150.234 164.045 150.242 166.229C150.252 169.283 150.249 172.338 150.243 175.392C150.249 176.295 150.254 177.198 150.26 178.129C150.256 178.964 150.252 179.8 150.247 180.66C150.248 181.382 150.248 182.104 150.249 182.847C150 185 150 185 148 190C144.37 190 140.74 190 137 190C137.021 188.886 137.041 187.772 137.062 186.625C137.264 183.168 137.264 183.168 136 181C135.903 178.881 135.872 176.758 135.871 174.636C135.869 173.982 135.867 173.328 135.865 172.654C135.861 170.475 135.864 168.296 135.867 166.117C135.866 164.586 135.866 163.054 135.864 161.523C135.863 158.293 135.865 155.063 135.87 151.833C135.875 147.768 135.872 143.702 135.866 139.637C135.844 121.733 136.03 103.884 137 86C137.99 85.67 138.98 85.34 140 85C140 84.34 140 83.68 140 83Z" fill="#EE7646"/>
<path d="M137 85C137.059 104.414 136.956 123.827 136.764 143.239C136.719 147.84 136.68 152.441 136.654 157.043C136.628 161.565 136.587 166.087 136.537 170.609C136.52 172.318 136.509 174.028 136.502 175.737C136.493 178.1 136.465 180.463 136.432 182.826C136.434 183.528 136.435 184.229 136.437 184.952C136.399 186.891 136.399 186.891 136 190C133 192 133 192 131 192C127.952 190.476 127.294 188.04 126 185C125.67 185 125.34 185 125 185C124.977 174.056 124.959 163.111 124.948 152.167C124.943 147.084 124.936 142.002 124.925 136.919C124.914 132.011 124.908 127.103 124.905 122.194C124.903 120.325 124.9 118.456 124.894 116.587C124.887 113.962 124.886 111.336 124.887 108.711C124.883 107.945 124.879 107.179 124.876 106.39C124.9 93.3673 124.9 93.3673 128.313 89.125C133.529 85 133.529 85 137 85Z" fill="#B33601"/>

<path d="M58 162C58.33 162 58.66 162 59 162C59.0374 162.892 59.0748 163.784 59.1133 164.703C59.179 165.874 59.2448 167.044 59.3125 168.25C59.3705 169.41 59.4285 170.57 59.4883 171.766C60.0242 175.153 60.82 176.452 63 179C63 179.66 63 180.32 63 181C64.9587 181.191 64.9587 181.191 66.957 181.387C71.6159 181.905 76.1131 182.811 80.6875 183.812C89.7561 185.718 98.8806 187.042 108.062 188.25C109.068 188.383 109.068 188.383 110.093 188.519C117.522 189.586 117.522 189.586 125 190C125.103 190.639 125.206 191.279 125.312 191.938C125.539 192.618 125.766 193.299 126 194C127.485 194.495 127.485 194.495 129 195C129 195.33 129 195.66 129 196C126.69 196 124.38 196 122 196C123.98 196.495 123.98 196.495 126 197C126.967 200.122 126.99 202.521 126.562 205.75C126.461 206.549 126.359 207.348 126.254 208.172C126.128 209.077 126.128 209.077 126 210C123.435 207.435 123.46 205.523 123 202C116.308 201.3 109.731 200.783 103 201C102.67 201.33 102.34 201.66 102 202C99.1875 202.312 99.1875 202.312 96 202C95.4431 201.381 94.8862 200.763 94.3125 200.125C89.8227 195.999 82.8881 196 77 196C77.66 196.99 78.32 197.98 79 199C79.5132 202.336 79.3222 203.558 77.3125 206.312C74.519 208.351 73.3882 208.427 70 208C62.6451 202.39 59.3797 191.835 58 183C57.4814 176.005 57.6681 169.001 58 162Z" fill="#FA8A58"/>
<path d="M147 79C147.66 79 148.32 79 149 79C151.36 84.6019 151.306 89.8069 151.319 95.7788C151.329 96.8526 151.339 97.9263 151.349 99.0327C151.38 102.571 151.397 106.11 151.414 109.648C151.433 112.106 151.452 114.564 151.473 117.021C151.524 123.482 151.564 129.943 151.601 136.404C151.641 143 151.692 149.596 151.742 156.191C151.839 169.128 151.924 182.064 152 195C152.33 194.34 152.66 193.68 153 193C153.66 193 154.32 193 155 193C155.33 169.9 155.66 146.8 156 123C156.33 123 156.66 123 157 123C157.33 116.07 157.66 109.14 158 102C158.33 102 158.66 102 159 102C159 132.36 159 162.72 159 194C160.32 192.68 161.64 191.36 163 190C163.99 190.495 163.99 190.495 165 191C164.34 191.66 163.68 192.32 163 193C163.33 193.33 163.66 193.66 164 194C164.041 195.666 164.043 197.334 164 199C164.763 199.268 165.526 199.536 166.312 199.812C168.949 200.977 170.353 201.66 172 204C172.5 206.438 172.5 206.438 172 209C169.628 211.508 168.033 212.839 164.59 213.375C161.037 212.861 160.023 211.407 157.75 208.688C157.064 207.887 156.378 207.086 155.672 206.262C154 204 154 204 153 201C152.022 201.217 152.022 201.217 151.023 201.438C146.274 202.446 141.886 203.257 137 203C137.825 203.846 138.65 204.691 139.5 205.562C141.668 208.175 142.012 209.077 142.562 212.625C142 216 142 216 140.312 218.438C138 220 138 220 135.562 220.562C131.366 219.641 129.172 216.773 126.863 213.281C125.642 210.054 125.811 207.186 125.875 203.75C125.893 202.487 125.911 201.223 125.93 199.922C125.953 198.958 125.976 197.993 126 197C123.69 196.67 121.38 196.34 119 196C119 195.67 119 195.34 119 195C126.92 195 134.84 195 143 195C143.66 196.32 144.32 197.64 145 199C145.66 199 146.32 199 147 199C149.307 193.488 149.283 188.475 149.259 182.608C149.262 181.574 149.266 180.541 149.269 179.477C149.278 176.069 149.272 172.662 149.266 169.254C149.267 166.88 149.269 164.507 149.271 162.133C149.274 157.161 149.27 152.189 149.261 147.217C149.249 140.85 149.256 134.484 149.268 128.117C149.275 123.216 149.273 118.315 149.268 113.414C149.266 111.067 149.268 108.72 149.273 106.373C149.278 103.089 149.27 99.8055 149.259 96.5217C149.263 95.5558 149.267 94.5899 149.271 93.5947C149.238 88.3379 148.722 83.9759 147 79Z" fill="#AE4224"/>
<path d="M158 101C159.65 101 161.3 101 163 101C163.056 102.23 163.056 102.23 163.113 103.484C163.212 105.101 163.212 105.101 163.312 106.75C163.371 107.817 163.429 108.885 163.488 109.984C164.048 113.283 165.013 114.405 167 117C168.049 121.671 168.132 126.26 168.098 131.023C168.096 131.77 168.095 132.516 168.093 133.285C168.088 135.648 168.075 138.012 168.062 140.375C168.057 141.986 168.053 143.596 168.049 145.207C168.038 149.138 168.021 153.069 168 157C168.66 157.33 169.32 157.66 170 158C169.67 160.31 169.34 162.62 169 165C168.34 165 167.68 165 167 165C167.33 165.99 167.66 166.98 168 168C168.66 168.33 169.32 168.66 170 169C170.791 189.167 170.791 189.167 166 197C165.01 197.99 165.01 197.99 164 199C164 197.35 164 195.7 164 194C163.34 193.67 162.68 193.34 162 193C162 192.67 162 192.34 162 192C160.68 192.99 159.36 193.98 158 195C158 163.98 158 132.96 158 101Z" fill="#F67A44"/>
<path d="M130.188 68.875C131.972 69.3971 131.972 69.3971 133.793 69.9297C136.364 70.7876 138.635 71.6972 141 73C138.687 75.313 137.521 75.4958 134.375 76.125C133.149 76.3764 133.149 76.3764 131.898 76.6328C131.272 76.754 130.645 76.8752 130 77C130.165 77.6394 130.33 78.2788 130.5 78.9375C131 81 131 81 131 82C131.99 82.495 131.99 82.495 133 83C130.75 85.0625 130.75 85.0625 128 87C125.688 86.75 125.688 86.75 124 86C124 86.66 124 87.32 124 88C122.668 87.8008 122.668 87.8008 121.309 87.5977C105.695 85.4391 90.0009 84.9391 74.25 84.875C73.0622 84.868 73.0622 84.868 71.8503 84.8608C68.6362 84.8701 66.0711 84.9763 63 86C60.8125 85.5625 60.8125 85.5625 59 85C59.5423 81.2041 61.2013 79.5279 64 77C64 78.32 64 79.64 64 81C71.6236 81.0232 79.2471 81.0409 86.8707 81.0518C90.4107 81.057 93.9507 81.0641 97.4907 81.0754C101.562 81.0884 105.632 81.0932 109.703 81.0977C110.973 81.1028 112.243 81.108 113.551 81.1133C114.732 81.1134 115.913 81.1135 117.13 81.1135C118.169 81.1157 119.208 81.118 120.279 81.1203C122.714 81.0127 124.714 80.8331 127 80C127.33 79.34 127.66 78.68 128 78C122.152 77.2894 116.406 76.8299 110.52 76.7188C109.744 76.7003 108.969 76.6819 108.17 76.663C105.718 76.6049 103.265 76.5519 100.812 76.5C89.8431 76.2654 78.9382 75.9164 68 75C68 74.34 68 73.68 68 73C71.3 73 74.6 73 78 73C78 72.34 78 71.68 78 71C78.8669 70.9499 79.7338 70.8998 80.627 70.8481C83.8777 70.6566 87.1279 70.4582 90.3779 70.2554C91.7782 70.1694 93.1786 70.086 94.5791 70.0054C103.644 69.5944 103.644 69.5944 112.531 67.9297C118.889 66.2258 123.957 67.0134 130.188 68.875Z" fill="#FCD4B8"/>
<path d="M137 85C137.059 104.414 136.956 123.827 136.764 143.239C136.719 147.84 136.68 152.441 136.654 157.043C136.628 161.565 136.587 166.087 136.537 170.609C136.52 172.318 136.509 174.028 136.502 175.737C136.493 178.1 136.465 180.463 136.432 182.826C136.434 183.528 136.435 184.229 136.437 184.952C136.399 186.891 136.399 186.891 136 190C133 192 133 192 131 192C127.952 190.476 127.294 188.04 126 185C125.67 185 125.34 185 125 185C124.977 174.056 124.959 163.111 124.948 152.167C124.943 147.084 124.936 142.002 124.925 136.919C124.914 132.011 124.908 127.103 124.905 122.194C124.903 120.325 124.9 118.456 124.894 116.587C124.887 113.962 124.886 111.336 124.887 108.711C124.883 107.945 124.879 107.179 124.876 106.39C124.9 93.3673 124.9 93.3673 128.313 89.125C133.529 85 133.529 85 137 85ZM133 87C126.462 94.2919 128.875 108.538 128.925 117.776C128.938 120.206 128.944 122.635 128.949 125.065C128.96 130.21 128.98 135.355 129 140.5C129.024 146.494 129.044 152.488 129.056 158.482C129.062 160.875 129.075 163.267 129.088 165.66C129.091 167.12 129.095 168.581 129.098 170.041C129.103 171.316 129.108 172.591 129.114 173.904C129 177 129 177 128 180C128.311 182.303 128.311 182.303 128.938 184.688C129.132 185.496 129.327 186.304 129.527 187.137C129.683 187.752 129.839 188.366 130 189C130.99 189 131.98 189 133 189C135.484 181.272 135.351 173.53 135.414 165.496C135.433 163.971 135.452 162.445 135.473 160.92C135.524 156.906 135.564 152.892 135.601 148.878C135.64 144.875 135.692 140.872 135.742 136.869C135.944 120.246 136.058 103.625 136 87C135.01 87 134.02 87 133 87Z" fill="#D94C01"/>
<path d="M165 77C168.687 80.318 170.708 83.0655 171.209 88.1068C171.328 90.7233 171.381 93.3341 171.414 95.9531C171.433 96.9268 171.453 97.9004 171.473 98.9035C171.532 102.019 171.579 105.134 171.625 108.25C171.663 110.299 171.702 112.349 171.742 114.398C172.342 146.557 172.342 146.557 171.562 158.375C171.523 159.084 171.484 159.793 171.443 160.523C171.257 163.556 170.966 166.102 170 169C168.68 168.67 167.36 168.34 166 168C166.33 167.01 166.66 166.02 167 165C167.66 165 168.32 165 169 165C169.042 162.667 169.041 160.333 169 158C168.67 157.67 168.34 157.34 168 157C167.84 154.481 167.741 151.987 167.684 149.465C167.663 148.712 167.642 147.958 167.621 147.182C167.555 144.767 167.496 142.353 167.438 139.938C167.394 138.304 167.351 136.671 167.307 135.037C167.199 131.025 167.098 127.012 167 123C166.34 123.99 165.68 124.98 165 126C165.023 125.229 165.046 124.458 165.07 123.664C165.088 122.661 165.106 121.658 165.125 120.625C165.148 119.627 165.171 118.63 165.195 117.602C165.272 114.837 165.272 114.837 163 113C162.805 110.18 162.805 110.18 162.875 106.875C162.893 105.779 162.911 104.684 162.93 103.555C162.953 102.712 162.976 101.869 163 101C161.35 101 159.7 101 158 101C157.67 102.32 157.34 103.64 157 105C156.34 101.7 155.68 98.4 155 95C155.99 95.33 156.98 95.66 158 96C158 96.99 158 97.98 158 99C161.343 99.0743 163.804 99.0655 167 98C167 97.01 167 96.02 167 95C166.01 95 165.02 95 164 95C164 93.35 164 91.7 164 90C162.68 90 161.36 90 160 90C160 87.36 160 84.72 160 82C161.98 81.67 163.96 81.34 166 81C165.67 79.68 165.34 78.36 165 77Z" fill="#F28B60"/>
<path d="M158 102C158.33 102 158.66 102 159 102C159 132.36 159 162.72 159 194C160.32 192.68 161.64 191.36 163 190C163.66 190.33 164.32 190.66 165 191C164.01 191.99 164.01 191.99 163 193C163.33 193.33 163.66 193.66 164 194C164.041 195.666 164.043 197.334 164 199C164.763 199.268 165.526 199.536 166.312 199.812C168.949 200.977 170.353 201.66 172 204C172.5 206.438 172.5 206.438 172 209C169.628 211.508 168.033 212.839 164.59 213.375C161.037 212.861 160.023 211.407 157.75 208.688C157.064 207.887 156.378 207.086 155.672 206.262C154 204 154 204 153 201C152.01 200.34 151.02 199.68 150 199C150.471 198.593 150.942 198.186 151.427 197.767C157.02 191.485 155.347 179.081 155.414 171.242C155.433 169.844 155.452 168.446 155.473 167.048C155.524 163.401 155.564 159.755 155.601 156.109C155.641 152.375 155.692 148.64 155.742 144.906C155.838 137.604 155.923 130.302 156 123C156.33 123 156.66 123 157 123C157.33 116.07 157.66 109.14 158 102Z" fill="#A72715"/>
<path d="M145 19C146.65 19 148.3 19 150 19C150.251 26.5283 150.251 26.5283 149.002 28.8759C147.914 31.1815 147.757 32.5976 147.773 35.126C147.773 36.3268 147.773 36.3268 147.773 37.5518C147.784 38.4061 147.794 39.2604 147.805 40.1406C147.809 41.4639 147.809 41.4639 147.813 42.8139C147.824 45.6261 147.85 48.4379 147.875 51.25C147.885 53.1588 147.894 55.0677 147.902 56.9766C147.924 61.6512 147.959 66.3255 148 71C152.164 72.7372 155.536 73.3254 160.012 73.5586C162 74 162 74 164 77C152.28 79.5394 152.28 79.5394 146.156 77.5156C141.557 76.4158 136.699 76.859 132 77C131.67 78.32 131.34 79.64 131 81C130.34 79.35 129.68 77.7 129 76C131.64 75.34 134.28 74.68 137 74C137 73.34 137 72.68 137 72C134.816 71.3215 132.628 70.6577 130.438 70C129.219 69.6287 128.001 69.2575 126.746 68.875C120.763 67.4774 116.308 67.9118 110.465 69.5547C105.059 70.5314 99.4728 70.1384 94 70C95 68 95 68 96.8359 67.3672C103.154 66.1424 109.332 65.791 115.75 65.75C116.554 65.7408 117.357 65.7316 118.185 65.7222C123.144 65.7478 127.233 66.5041 132 68C133.806 68.2604 135.619 68.4756 137.438 68.625C138.302 68.6998 139.167 68.7745 140.059 68.8516C140.699 68.9005 141.34 68.9495 142 69C142 69.99 142 70.98 142 72C142.66 72 143.32 72 144 72C144.33 54.51 144.66 37.02 145 19Z" fill="#C8A499"/>
<path d="M156 81C156.66 81.33 157.32 81.66 158 82C159.187 85.5605 159.097 88.4381 159.062 92.1875C159.053 93.4598 159.044 94.7321 159.035 96.043C159.024 97.0188 159.012 97.9946 159 99C157.68 97.68 156.36 96.36 155 95C155.213 95.5024 155.426 96.0049 155.646 96.5226C158.906 105.477 158.378 114.527 158.293 123.914C158.287 125.738 158.283 127.562 158.28 129.387C158.269 134.157 158.239 138.928 158.206 143.699C158.175 148.579 158.162 153.459 158.146 158.34C158.114 167.893 158.063 177.447 158 187C157.34 186.67 156.68 186.34 156 186C155.67 188.31 155.34 190.62 155 193C154.67 193 154.34 193 154 193C153.868 182.019 153.738 171.039 153.609 160.058C153.549 154.957 153.489 149.856 153.427 144.755C153.368 139.814 153.31 134.873 153.252 129.932C153.23 128.066 153.208 126.199 153.185 124.332C153.132 119.968 153.085 115.603 153.051 111.239C153.021 107.544 152.958 103.851 152.881 100.158C152.853 98.2492 152.826 96.3408 152.799 94.4324C152.774 93.5456 152.75 92.6588 152.725 91.7452C152.662 85.5794 152.662 85.5794 154.513 82.4105C155.003 81.945 155.494 81.4796 156 81Z" fill="#C64227"/>
<path d="M66 74C69.0295 74.0081 69.0295 74.0081 72.9414 74.3477C79.0777 74.8276 85.1857 75.1318 91.3398 75.2461C92.1261 75.2626 92.9123 75.2791 93.7223 75.2961C96.9454 75.3628 100.168 75.4252 103.392 75.4768C120.161 75.7563 120.161 75.7563 128 78C127.67 78.99 127.34 79.98 127 81C123.236 82.6507 118.824 82.1432 114.781 82.1328C113.974 82.1341 113.167 82.1355 112.336 82.1368C109.724 82.1387 107.112 82.1324 104.5 82.125C103.619 82.1241 102.738 82.1232 101.83 82.1223C89.1968 82.1073 76.6047 81.9179 64 81C63.875 78.625 63.875 78.625 64 76C64.66 75.34 65.32 74.68 66 74Z" fill="#FCF5F0"/>
<path d="M161 101C161.66 101 162.32 101 163 101C163.037 101.82 163.075 102.64 163.113 103.484C163.179 104.562 163.245 105.64 163.312 106.75C163.371 107.817 163.429 108.885 163.488 109.984C164.046 113.27 165.007 114.425 167 117C167.512 119.578 167.512 119.578 167.688 122.25C167.753 123.142 167.819 124.034 167.887 124.953C167.924 125.629 167.961 126.304 168 127C167.34 127 166.68 127 166 127C166.162 127.558 166.323 128.117 166.49 128.692C167.447 133.02 167.19 137.46 167.188 141.875C167.188 142.901 167.189 143.927 167.189 144.985C167.135 152.818 166.495 160.297 165 168C163.68 168 162.36 168 161 168C161 145.89 161 123.78 161 101Z" fill="#812009"/>
<path d="M63 77C63.33 78.32 63.66 79.64 64 81C65.2813 80.9884 66.5627 80.9768 67.8828 80.9648C69.6302 80.9554 71.3776 80.9464 73.125 80.9375C73.9616 80.9291 74.7982 80.9207 75.6602 80.9121C80.6482 80.8934 85.559 81.0945 90.5312 81.5C99.1496 82.1626 107.738 82.1098 116.375 82.0625C117.997 82.0575 119.62 82.0529 121.242 82.0488C125.161 82.038 129.081 82.0208 133 82C131.388 83.7193 129.717 85.3848 128 87C125.688 86.8125 125.688 86.8125 124 86C124 86.66 124 87.32 124 88C123.112 87.8672 122.224 87.7345 121.309 87.5977C105.695 85.4391 90.0009 84.9391 74.25 84.875C73.0622 84.868 73.0622 84.868 71.8503 84.8608C68.6362 84.8701 66.0711 84.9763 63 86C60.8125 85.5625 60.8125 85.5625 59 85C59.5993 81.644 60.8462 79.622 63 77Z" fill="#F4A26E"/>
<path d="M62 185C64.1875 185.062 64.1875 185.062 67 186C68.3831 187.663 69.5037 189.416 70.668 191.238C72.0701 193.314 72.0701 193.314 75.25 195C78 197 78 197 79.125 200.5C79 204 79 204 77.375 206.438C75 208 75 208 72.625 208.688C68.3939 207.579 66.2948 204.603 64 201C62.9639 197.522 62.9871 194.343 63 190.75C63.2795 187.186 63.2795 187.186 62 185Z" fill="#E38057"/>
<path d="M158 101C158.99 101 159.98 101 161 101C161 129.38 161 157.76 161 187C161.495 186.505 161.495 186.505 162 186C164 185.959 166 185.957 168 186C167.913 187.605 167.804 189.209 167.688 190.812C167.6 192.152 167.6 192.152 167.512 193.52C166.937 196.306 166.179 197.241 164 199C164 197.35 164 195.7 164 194C163.34 193.67 162.68 193.34 162 193C162 192.67 162 192.34 162 192C160.68 192.99 159.36 193.98 158 195C158 163.98 158 132.96 158 101Z" fill="#E05D3C"/>
<path d="M130.188 68.875C131.972 69.3971 131.972 69.3971 133.793 69.9297C136.364 70.7876 138.635 71.6972 141 73C139 75 139 75 136.482 75.1266C135.42 75.0689 134.359 75.0111 133.265 74.9517C132.064 74.8914 130.863 74.8312 129.625 74.7692C128.323 74.6933 127.021 74.6173 125.68 74.5391C124.337 74.468 122.995 74.3979 121.653 74.3287C118.118 74.1439 114.583 73.9466 111.049 73.7466C107.443 73.5449 103.837 73.355 100.23 73.1641C93.153 72.7877 86.0763 72.398 79 72C79 71.67 79 71.34 79 71C80.2549 70.9248 80.2549 70.9248 81.5352 70.8481C84.6741 70.6565 87.8125 70.4582 90.9507 70.2554C92.9629 70.1274 94.9756 70.007 96.9883 69.8867C104.823 69.4341 104.823 69.4341 112.5 67.9297C118.875 66.2364 123.942 67.0087 130.188 68.875Z" fill="#F2B69F"/>
<path d="M140 83C142.97 83 145.94 83 149 83C149 83.33 149 83.66 149 84C147.886 84.1237 146.773 84.2475 145.625 84.375C141.969 84.6466 141.969 84.6466 140 87C139.05 92.5129 138.867 97.8822 138.918 103.464C138.921 104.268 138.924 105.072 138.928 105.901C138.935 107.632 138.944 109.364 138.955 111.095C138.973 113.835 138.983 116.576 138.991 119.316C139.016 127.103 139.052 134.89 139.096 142.676C139.123 147.451 139.14 152.226 139.151 157.001C139.157 158.817 139.167 160.634 139.181 162.45C139.2 164.985 139.207 167.519 139.211 170.054C139.22 170.803 139.229 171.552 139.238 172.324C139.231 176.046 139.074 178.841 137 182C135.163 180.163 135.872 177.211 135.871 174.75C135.869 174.096 135.867 173.442 135.865 172.768C135.861 170.583 135.864 168.399 135.867 166.215C135.867 164.682 135.866 163.149 135.864 161.616C135.863 158.38 135.865 155.144 135.87 151.908C135.875 147.835 135.872 143.762 135.866 139.689C135.844 121.767 136.029 103.901 137 86C137.99 85.67 138.98 85.34 140 85C140 84.34 140 83.68 140 83Z" fill="#D96333"/>
<path d="M152 86C152.33 86 152.66 86 153 86C153.792 99.6347 154.175 113.222 154.203 126.879C154.206 127.817 154.209 128.754 154.212 129.721C154.226 134.652 154.236 139.583 154.24 144.514C154.246 149.596 154.27 154.678 154.298 159.76C154.317 163.691 154.322 167.623 154.324 171.554C154.327 173.43 154.335 175.306 154.348 177.182C154.365 179.785 154.363 182.387 154.356 184.99C154.366 185.762 154.375 186.533 154.384 187.328C154.349 191.776 154.301 192.699 151 196C151.33 159.7 151.66 123.4 152 86Z" fill="#D96B4C"/>
<path d="M126 175C126.33 175 126.66 175 127 175C127.049 175.82 127.098 176.64 127.148 177.484C127.223 178.562 127.298 179.64 127.375 180.75C127.445 181.817 127.514 182.885 127.586 183.984C127.973 186.802 128.557 188.583 130 191C131.65 190.67 133.3 190.34 135 190C135.33 187.03 135.66 184.06 136 181C138.09 185.179 138.166 185.804 137 190C137.99 189.67 138.98 189.34 140 189C141.394 188.933 142.792 188.915 144.188 188.938C146.075 188.968 146.075 188.968 148 189C148.66 187.68 149.32 186.36 150 185C150.288 190.576 150.178 194.174 147 199C146.01 199.33 145.02 199.66 144 200C143.67 198.68 143.34 197.36 143 196C142.024 196.023 141.048 196.046 140.043 196.07C138.771 196.088 137.498 196.106 136.188 196.125C134.291 196.16 134.291 196.16 132.355 196.195C129 196 129 196 126 194C125.67 193.01 125.34 192.02 125 191C123.68 191.33 122.36 191.66 121 192C121 191.67 121 191.34 121 191C118.03 190.67 115.06 190.34 112 190C112 189.67 112 189.34 112 189C117.445 188.505 117.445 188.505 123 188C123.33 187.01 123.66 186.02 124 185C124.66 185 125.32 185 126 185C126 181.7 126 178.4 126 175Z" fill="#E9632B"/>
<path d="M165 116C167.475 116.495 167.475 116.495 170 117C172.268 130.91 172.328 144.332 171.562 158.375C171.523 159.095 171.484 159.815 171.444 160.556C171.254 163.577 170.962 166.113 170 169C168.68 168.67 167.36 168.34 166 168C166.33 167.01 166.66 166.02 167 165C167.66 165 168.32 165 169 165C169.042 162.667 169.041 160.333 169 158C168.67 157.67 168.34 157.34 168 157C167.84 154.481 167.741 151.987 167.684 149.465C167.663 148.712 167.642 147.958 167.621 147.182C167.555 144.767 167.496 142.353 167.438 139.938C167.394 138.304 167.351 136.671 167.307 135.037C167.199 131.025 167.098 127.012 167 123C166.34 123.99 165.68 124.98 165 126C165 122.7 165 119.4 165 116Z" fill="#E37950"/>
<path d="M147 78C147.688 80.625 147.688 80.625 148 83C145.36 83 142.72 83 140 83C140 83.66 140 84.32 140 85C139.374 85.205 138.747 85.4099 138.102 85.6211C137.284 85.8905 136.467 86.1599 135.625 86.4375C134.813 86.7043 134.001 86.9712 133.164 87.2461C130.99 87.9518 130.99 87.9518 129 89C128.67 96.92 128.34 104.84 128 113C127.67 113 127.34 113 127 113C126.67 108.38 126.34 103.76 126 99C125.67 99 125.34 99 125 99C124.67 94.71 124.34 90.42 124 86C125.65 85.67 127.3 85.34 129 85C129.66 84.34 130.32 83.68 131 83C130.34 82.67 129.68 82.34 129 82C129.99 81.67 130.98 81.34 132 81C132 79.68 132 78.36 132 77C133.936 76.7779 135.874 76.5728 137.812 76.375C138.891 76.259 139.97 76.143 141.082 76.0234C144 76 144 76 147 78Z" fill="#E25502"/>
<path d="M116 31C116.66 31.33 117.32 31.66 118 32C117.67 42.23 117.34 52.46 117 63C119.97 63 122.94 63 126 63C129.504 64.0938 129.504 64.0938 132.562 65.5C133.595 65.9641 134.628 66.4281 135.691 66.9062C136.834 67.4477 136.834 67.4477 138 68C138 68.33 138 68.66 138 69C136.583 68.8577 135.166 68.711 133.75 68.5625C132.961 68.4813 132.172 68.4001 131.359 68.3164C129 68 129 68 127.156 67.5C124.04 66.7774 120.939 66.6442 117.75 66.4375C116.487 66.3537 115.223 66.2699 113.922 66.1836C112.476 66.0927 112.476 66.0927 111 66C111.33 65.34 111.66 64.68 112 64C112.66 64 113.32 64 114 64C114 53.44 114 42.88 114 32C114.66 31.67 115.32 31.34 116 31Z" fill="#D7C7C0"/>
<path d="M69 182C69.6077 182.115 70.2154 182.229 70.8416 182.347C78.5251 183.773 86.2321 185.026 93.9524 186.232C96.0631 186.563 98.1732 186.897 100.283 187.232C112.581 189.26 112.581 189.26 125 190C125 190.99 125 191.98 125 193C123.252 193.223 121.501 193.428 119.75 193.625C118.288 193.799 118.288 193.799 116.797 193.977C113.779 194.002 112.593 193.409 110 192C107.759 191.653 107.759 191.653 105.312 191.562C93.0432 190.629 80.9295 187.925 69 185C69 184.01 69 183.02 69 182Z" fill="#F58442"/>
<path d="M137 85C137 93.25 137 101.5 137 110C136.67 110 136.34 110 136 110C136 102.41 136 94.82 136 87C134.02 87.99 134.02 87.99 132 89C128.977 98.0676 129.885 108.345 129.955 117.806C129.973 120.24 129.983 122.674 129.991 125.107C130.016 132.017 130.052 138.927 130.096 145.837C130.123 150.084 130.14 154.33 130.151 158.577C130.157 160.192 130.167 161.806 130.181 163.42C130.2 165.665 130.207 167.91 130.211 170.155C130.219 171.432 130.226 172.709 130.234 174.024C130 177 130 177 128 179C128 149.3 128 119.6 128 89C135 85 135 85 137 85Z" fill="#C64203"/>
<path d="M59 85C61.31 85 63.62 85 66 85C65.5295 85.5027 65.059 86.0055 64.5742 86.5234C62.5042 89.78 62.1768 92.8672 61.8125 96.625C61.7321 97.3854 61.6517 98.1458 61.5689 98.9292C60.5227 110.245 60.8286 121.65 61 133C60.67 133 60.34 133 60 133C59.505 135.475 59.505 135.475 59 138C58.67 138 58.34 138 58 138C57.7936 99.9291 57.7936 99.9291 59 85Z" fill="#F9851E"/>
<path d="M135 110C135.33 110 135.66 110 136 110C136.069 120.396 136.123 130.792 136.155 141.188C136.171 146.016 136.192 150.842 136.226 155.669C136.259 160.325 136.277 164.98 136.285 169.636C136.29 171.415 136.301 173.194 136.317 174.973C136.339 177.458 136.342 179.943 136.341 182.429C136.357 183.541 136.357 183.541 136.373 184.674C136.361 186.722 136.361 186.722 136 190C133 192 133 192 130.938 191.875C129 191 129 191 127.75 189.312C126.824 186.458 126.864 183.982 127 181C127.33 181 127.66 181 128 181C128.289 181.949 128.578 182.897 128.875 183.875C129.768 187.052 129.768 187.052 132 189C134.6 181.045 134.352 172.967 134.414 164.688C134.433 163.107 134.452 161.527 134.473 159.946C134.524 155.81 134.564 151.674 134.601 147.538C134.641 143.308 134.692 139.078 134.742 134.848C134.839 126.565 134.923 118.283 135 110Z" fill="#CE4E16"/>
<path d="M164 90C165.65 90 167.3 90 169 90C169 97.26 169 104.52 169 112C168.34 110.68 167.68 109.36 167 108C166.34 107.01 165.68 106.02 165 105C165.66 106.65 166.32 108.3 167 110C166.01 110.33 165.02 110.66 164 111C164 108.03 164 105.06 164 102C161.03 101.505 161.03 101.505 158 101C157.67 102.32 157.34 103.64 157 105C156.34 101.7 155.68 98.4 155 95C155.99 95.33 156.98 95.66 158 96C158 96.99 158 97.98 158 99C161.343 99.0743 163.804 99.0655 167 98C167 97.01 167 96.02 167 95C166.01 95 165.02 95 164 95C164 93.35 164 91.7 164 90Z" fill="#DE937E"/>
<path d="M137 73C140.63 73.33 144.26 73.66 148 74C148 73.67 148 73.34 148 73C150.292 73.0868 152.584 73.195 154.875 73.3125C156.789 73.3995 156.789 73.3995 158.742 73.4883C160.355 73.7416 160.355 73.7416 162 74C162.66 74.99 163.32 75.98 164 77C152.28 79.5394 152.28 79.5394 146.156 77.5156C141.557 76.4158 136.699 76.859 132 77C131.67 78.32 131.34 79.64 131 81C130.34 79.35 129.68 77.7 129 76C131.64 75.34 134.28 74.68 137 74C137 73.67 137 73.34 137 73Z" fill="#F07F53"/>
<path d="M75 195C77.6925 197.038 78.8332 198.166 79.5 201.5C78.8325 204.838 77.7325 206.006 75 208C72.375 208.438 72.375 208.438 70 208C69.34 207.01 68.68 206.02 68 205C69.32 204.67 70.64 204.34 72 204C70.9955 201.759 70.1225 200.122 68.375 198.375C67.9212 197.921 67.4675 197.468 67 197C67 196.34 67 195.68 67 195C70.3821 193.873 71.6477 193.937 75 195Z" fill="#542A1F"/>
<path d="M156 81C156.66 81.33 157.32 81.66 158 82C159.187 85.5605 159.097 88.4381 159.062 92.1875C159.053 93.4598 159.044 94.7321 159.035 96.043C159.024 97.0188 159.012 97.9946 159 99C157.68 97.68 156.36 96.36 155 95C155.66 98.3 156.32 101.6 157 105C155.68 105.33 154.36 105.66 153 106C152.913 102.583 152.86 99.1673 152.812 95.75C152.787 94.7819 152.762 93.8138 152.736 92.8164C152.727 91.8818 152.717 90.9473 152.707 89.9844C152.691 89.1255 152.676 88.2667 152.659 87.3818C153.069 84.5172 154.114 83.1494 156 81Z" fill="#AD3A23"/>
<path d="M115.75 65.75C116.554 65.7408 117.357 65.7316 118.185 65.7222C123.144 65.7478 127.233 66.5041 132 68C133.806 68.2604 135.619 68.4756 137.438 68.625C138.302 68.6998 139.167 68.7745 140.059 68.8516C141.02 68.925 141.02 68.925 142 69C142 69.66 142 70.32 142 71C135.769 71.3512 130.932 70.8397 125.086 68.6758C119.893 66.9935 115.55 68.1247 110.465 69.5547C105.059 70.5314 99.4728 70.1384 94 70C95 68 95 68 96.8359 67.3672C103.154 66.1424 109.332 65.791 115.75 65.75Z" fill="#B55C45"/>
<path d="M140 22C139.67 22.99 139.34 23.98 139 25C132.4 25.66 125.8 26.32 119 27C118.67 28.32 118.34 29.64 118 31C116.68 31.33 115.36 31.66 114 32C114 29.03 114 26.06 114 23C117.396 22.8319 120.792 22.6654 124.188 22.5C125.627 22.4285 125.627 22.4285 127.096 22.3555C128.493 22.2878 128.493 22.2878 129.918 22.2188C130.772 22.1769 131.625 22.135 132.505 22.0918C135.006 21.9998 137.498 21.9843 140 22Z" fill="#F17445"/>
<path d="M134 205C139.75 206.75 139.75 206.75 142 209C142.437 212.93 142.598 215.137 140.312 218.438C138 220 138 220 135.438 220.5C133 220 133 220 131.188 218C130.796 217.34 130.404 216.68 130 216C131.65 216 133.3 216 135 216C135.772 214.163 135.772 214.163 136 212C135.505 211.505 135.01 211.01 134.5 210.5C134.005 210.005 133.51 209.51 133 209C133.312 206.812 133.312 206.812 134 205Z" fill="#282222"/>
<path d="M161 101C161.66 101 162.32 101 163 101C163.073 102.247 163.073 102.247 163.148 103.52C163.223 104.606 163.298 105.693 163.375 106.812C163.445 107.891 163.514 108.97 163.586 110.082C163.812 113.186 163.812 113.186 166 116C164.68 116 163.36 116 162 116C162 133.16 162 150.32 162 168C161.67 168 161.34 168 161 168C161 145.89 161 123.78 161 101Z" fill="#B7320A"/>
<path d="M162 200C165.578 199.675 167.395 199.57 170.375 201.688C172 204 172 204 172.562 206.5C172 209 172 209 169.812 211.313C166.827 213.104 165.403 213.389 162 213C161.34 211.68 160.68 210.36 160 209C162.475 209.495 162.475 209.495 165 210C165.33 208.68 165.66 207.36 166 206C165.34 205.567 164.68 205.134 164 204.688C163.34 204.131 162.68 203.574 162 203C162 202.01 162 201.02 162 200Z" fill="#1A1311"/>
<path d="M163 190C163.66 190.33 164.32 190.66 165 191C164.34 191.66 163.68 192.32 163 193C163.33 193.33 163.66 193.66 164 194C164.041 195.666 164.043 197.334 164 199C164.66 199.33 165.32 199.66 166 200C164.68 200 163.36 200 162 200C162 200.99 162 201.98 162 203C162.639 203.248 163.279 203.495 163.938 203.75C166 205 166 205 166.75 207.125C166.874 208.053 166.874 208.053 167 209C166.34 209.33 165.68 209.66 165 210C165 209.01 165 208.02 165 207C164.01 206.67 163.02 206.34 162 206C159.75 203.625 159.75 203.625 158 201C158.33 200.01 158.66 199.02 159 198C158.01 198 157.02 198 156 198C157.491 194.205 159.757 192.39 163 190Z" fill="#A13B16"/>
<path d="M153 193C153.33 193.99 153.66 194.98 154 196C152.536 198.3 150.928 200.072 149 202C146.398 202.195 146.398 202.195 143.375 202.125C141.871 202.098 141.871 202.098 140.336 202.07C139.565 202.047 138.794 202.024 138 202C138.33 200.35 138.66 198.7 139 197C137.02 197 135.04 197 133 197C133 196.67 133 196.34 133 196C136.3 195.67 139.6 195.34 143 195C143.66 196.32 144.32 197.64 145 199C148.399 197.867 149.053 196.875 151 194C151.33 194.33 151.66 194.66 152 195C152.33 194.34 152.66 193.68 153 193Z" fill="#BB481C"/>
<path d="M166 127C166.66 127 167.32 127 168 127C168 136.9 168 146.8 168 157C168.66 157.33 169.32 157.66 170 158C169.67 160.31 169.34 162.62 169 165C168.34 165 167.68 165 167 165C167.33 165.99 167.66 166.98 168 168C167.01 168 166.02 168 165 168C164.973 166.417 164.954 164.833 164.938 163.25C164.926 162.368 164.914 161.487 164.902 160.578C165 158 165 158 165.5 156.232C166.146 153.348 166.112 150.658 166.098 147.703C166.094 146.498 166.091 145.293 166.088 144.051C166.075 142.169 166.075 142.169 166.062 140.25C166.058 138.98 166.053 137.711 166.049 136.402C166.037 133.268 166.021 130.134 166 127Z" fill="#C8572F"/>
<path d="M63 77C63.33 78.32 63.66 79.64 64 81C70.6 81 77.2 81 84 81C84 81.33 84 81.66 84 82C74.595 82.495 74.595 82.495 65 83C73.58 83 82.16 83 91 83C91 83.33 91 83.66 91 84C90.2584 84.0251 89.5168 84.0501 88.7527 84.0759C85.3974 84.1919 82.0425 84.3146 78.6875 84.4375C77.5203 84.4768 76.353 84.5161 75.1504 84.5566C74.0321 84.5985 72.9139 84.6404 71.7617 84.6836C70.2142 84.7386 70.2142 84.7386 68.6355 84.7947C65.8925 84.9016 65.8925 84.9016 63 86C60.8125 85.5625 60.8125 85.5625 59 85C59.5993 81.644 60.8462 79.622 63 77Z" fill="#F8CBA6"/>
<path d="M100 188C106.655 188.537 113.302 189.108 119.941 189.816C122.154 190.044 122.154 190.044 125 190C125 190.99 125 191.98 125 193C123.252 193.223 121.501 193.428 119.75 193.625C118.775 193.741 117.801 193.857 116.797 193.977C113.76 194.002 112.622 193.393 110 192C107.185 191.547 107.185 191.547 104.25 191.375C102.773 191.263 102.773 191.263 101.266 191.148C100.518 191.099 99.7703 191.05 99 191C99.33 190.01 99.66 189.02 100 188Z" fill="#F3793D"/>
<path d="M122.125 195.937C123.212 196.229 123.212 196.229 124.32 196.527C124.875 196.683 125.429 196.839 126 197C126.967 200.122 126.99 202.521 126.563 205.75C126.461 206.549 126.359 207.348 126.254 208.172C126.17 208.775 126.086 209.378 126 210C123.435 207.435 123.46 205.523 123 202C121.546 202.031 121.546 202.031 120.063 202.062C117 202 117 202 116 201C115.959 199.334 115.957 197.666 116 196C118.547 194.726 119.428 195.198 122.125 195.937Z" fill="#DF7045"/>
<path d="M171 132C171.33 132 171.66 132 172 132C172.099 140.806 172.066 149.58 171.562 158.375C171.523 159.094 171.484 159.812 171.444 160.552C171.255 163.575 170.963 166.112 170 169C168.68 168.67 167.36 168.34 166 168C166.33 167.01 166.66 166.02 167 165C167.66 165 168.32 165 169 165C169.025 164.036 169.05 163.072 169.076 162.078C169.17 158.513 169.27 154.948 169.372 151.383C169.416 149.838 169.457 148.293 169.497 146.747C169.555 144.531 169.619 142.314 169.684 140.098C169.7 139.403 169.717 138.708 169.734 137.992C169.886 133.114 169.886 133.114 171 132Z" fill="#EE9370"/>
<path d="M156 198C156.99 198 157.98 198 159 198C159 199.65 159 201.3 159 203C159.99 203.33 160.98 203.66 162 204C163.688 205.312 163.688 205.312 165 207C165 208.32 165 209.64 165 211C161.021 210.158 158.517 209.478 155.5 206.688C154 204 154 204 154.188 201.25C155 199 155 199 156 198Z" fill="#83290D"/>
<path d="M128.225 16.9783C129.183 17.0254 130.142 17.0725 131.129 17.1211C132.163 17.1694 133.198 17.2178 134.264 17.2676C135.352 17.3237 136.441 17.3797 137.562 17.4375C138.655 17.4897 139.747 17.5419 140.873 17.5957C143.582 17.7258 146.291 17.8608 149 18C145.256 20.4138 141.482 20.3452 137.172 20.4141C136.423 20.4334 135.674 20.4528 134.902 20.4727C132.518 20.5324 130.134 20.5789 127.75 20.625C126.13 20.6632 124.51 20.7022 122.891 20.7422C118.927 20.838 114.964 20.9221 111 21C114.29 18.8067 115.767 18.6767 119.625 18.4375C122.862 18.2293 125.316 17.0067 128.225 16.9783Z" fill="#FBE1D2"/>
<path d="M66 74C68.7559 74.0175 71.3879 74.1386 74.125 74.375C74.8791 74.4317 75.6332 74.4884 76.4102 74.5469C78.2742 74.6884 80.1372 74.843 82 75C82 75.33 82 75.66 82 76C76.72 76 71.44 76 66 76C66.33 76.66 66.66 77.32 67 78C69.706 78.476 72.336 78.8409 75.0625 79.125C75.8211 79.2114 76.5797 79.2977 77.3613 79.3867C79.24 79.5994 81.1199 79.8008 83 80C83 80.33 83 80.66 83 81C76.73 81 70.46 81 64 81C64 76 64 76 66 74Z" fill="#FBE9DC"/>
<path d="M149 190C150 193 150 193 148.75 196.125C147 199 147 199 144 200C143.67 198.68 143.34 197.36 143 196C140.36 196 137.72 196 135 196C135.66 195.67 136.32 195.34 137 195C137.33 194.01 137.66 193.02 138 192C141.63 192 145.26 192 149 192C149 191.34 149 190.68 149 190Z" fill="#EB5601"/>
<path d="M165.062 185.938C166.517 185.968 166.517 185.968 168 186C167.913 187.605 167.804 189.209 167.688 190.812C167.629 191.706 167.571 192.599 167.512 193.52C166.937 196.306 166.179 197.241 164 199C164 197.35 164 195.7 164 194C163.34 193.67 162.68 193.34 162 193C162 192.67 162 192.34 162 192C161.01 192.495 161.01 192.495 160 193C161.04 186.02 161.04 186.02 165.062 185.938Z" fill="#F66415"/>
<path d="M147 78C150.3 78 153.6 78 157 78C156.34 81.96 155.68 85.92 155 90C154.34 88.68 153.68 87.36 153 86C152.01 87.485 152.01 87.485 151 89C150.879 88.2897 150.758 87.5795 150.633 86.8477C150.465 85.9286 150.298 85.0095 150.125 84.0625C149.963 83.146 149.8 82.2295 149.633 81.2852C149.424 80.5311 149.215 79.777 149 79C148.34 78.67 147.68 78.34 147 78Z" fill="#C24126"/>
<path d="M144 76C144.33 76.99 144.66 77.98 145 79C143.275 79.6768 141.545 80.341 139.812 81C138.85 81.3713 137.887 81.7425 136.895 82.125C134.078 82.9764 131.918 83.1707 129 83C129.33 82.34 129.66 81.68 130 81C130.66 81 131.32 81 132 81C132 79.68 132 78.36 132 77C137.94 76.505 137.94 76.505 144 76Z" fill="#F5680C"/>
<path d="M152 151C152.33 151 152.66 151 153 151C153.217 156.926 153.414 162.852 153.592 168.78C153.656 170.796 153.724 172.813 153.799 174.829C153.905 177.726 153.992 180.622 154.074 183.52C154.112 184.423 154.149 185.326 154.187 186.257C154.208 187.097 154.228 187.938 154.249 188.804C154.273 189.543 154.298 190.283 154.323 191.045C154 193 154 193 151 196C151.33 181.15 151.66 166.3 152 151Z" fill="#DB6142"/>
<path d="M125 77C126.65 77 128.3 77 130 77C130.625 78.875 130.625 78.875 131 81C129 83 129 83 125.927 83.2271C124.639 83.2166 123.351 83.2061 122.023 83.1953C121.338 83.1925 120.653 83.1897 119.947 83.1867C117.756 83.1755 115.566 83.1504 113.375 83.125C111.891 83.115 110.406 83.1058 108.922 83.0977C105.281 83.0756 101.641 83.0411 98 83C98 82.67 98 82.34 98 82C98.7364 81.9749 99.4728 81.9499 100.231 81.9241C103.571 81.808 106.911 81.6853 110.25 81.5625C111.409 81.5232 112.568 81.4839 113.762 81.4434C114.877 81.4015 115.992 81.3596 117.141 81.3164C118.68 81.2614 118.68 81.2614 120.251 81.2053C122.659 81.0255 124.728 80.8105 127 80C127.33 79.34 127.66 78.68 128 78C127.01 77.67 126.02 77.34 125 77Z" fill="#F5D6C2"/>
<path d="M145 19C146.65 19 148.3 19 150 19C150.125 26.625 150.125 26.625 149 30C147.68 30.33 146.36 30.66 145 31C145 27.04 145 23.08 145 19Z" fill="#CF6A4B"/>
<path d="M144 20C144.33 20 144.66 20 145 20C145 23.63 145 27.26 145 31C143.68 30.67 142.36 30.34 141 30C140.67 29.01 140.34 28.02 140 27C136.7 26.67 133.4 26.34 130 26C130 25.67 130 25.34 130 25C130.957 24.9265 130.957 24.9265 131.934 24.8516C132.76 24.7768 133.586 24.702 134.438 24.625C135.261 24.5554 136.085 24.4858 136.934 24.4141C137.616 24.2774 138.297 24.1408 139 24C139.33 23.34 139.66 22.68 140 22C141.32 22 142.64 22 144 22C144 21.34 144 20.68 144 20Z" fill="#F8A381"/>
<path d="M65 190C67.4936 191.204 69.6814 192.454 72 194C70.35 194.33 68.7 194.66 67 195C67.6671 195.706 67.6671 195.706 68.3477 196.426C68.9136 197.048 69.4795 197.671 70.0625 198.312C70.631 198.927 71.1995 199.542 71.7852 200.176C72.1861 200.778 72.587 201.38 73 202C72.67 202.99 72.34 203.98 72 205C70.0625 204.25 70.0625 204.25 68 203C67.375 200.938 67.375 200.938 67 199C66.34 198.67 65.68 198.34 65 198C65 195.36 65 192.72 65 190Z" fill="#CC6038"/>
<path d="M133.875 66C134.656 66.3713 135.437 66.7425 136.242 67.125C136.822 67.4138 137.402 67.7025 138 68C138 68.33 138 68.66 138 69C136.583 68.8577 135.166 68.711 133.75 68.5625C132.567 68.4407 132.567 68.4407 131.359 68.3164C129 68 129 68 127.156 67.5C124.04 66.7774 120.939 66.6442 117.75 66.4375C116.487 66.3537 115.223 66.2699 113.922 66.1836C112.958 66.123 111.993 66.0624 111 66C111 65.67 111 65.34 111 65C112.875 64.8301 114.75 64.6643 116.625 64.5C117.669 64.4072 118.713 64.3144 119.789 64.2188C125.097 63.8572 129.015 63.6438 133.875 66Z" fill="#FBAE8A"/>
<path d="M161 89C162.98 89 164.96 89 167 89C166.01 89.33 165.02 89.66 164 90C164 91.65 164 93.3 164 95C164.99 95 165.98 95 167 95C167 96.65 167 98.3 167 100C165.02 100 163.04 100 161 100C161 96.37 161 92.74 161 89Z" fill="#893527"/>
<path d="M162 116C164.475 116.495 164.475 116.495 167 117C167.33 120.3 167.66 123.6 168 127C166.35 127 164.7 127 163 127C162 126 162 126 161.902 123.715C161.914 122.798 161.926 121.882 161.938 120.938C161.947 120.018 161.956 119.099 161.965 118.152C161.976 117.442 161.988 116.732 162 116Z" fill="#401B15"/>
<path d="M126 175C126.33 175 126.66 175 127 175C127.33 179.95 127.66 184.9 128 190C125.69 190.66 123.38 191.32 121 192C121 191.67 121 191.34 121 191C118.03 190.67 115.06 190.34 112 190C112 189.67 112 189.34 112 189C117.445 188.505 117.445 188.505 123 188C123.33 187.01 123.66 186.02 124 185C124.66 185 125.32 185 126 185C126 181.7 126 178.4 126 175Z" fill="#EF6516"/>
<path d="M116 68C116 68.99 116 69.98 116 71C109.955 74.0225 100.496 71.8519 94 71C94 70.67 94 70.34 94 70C94.9758 69.9394 95.9516 69.8788 96.957 69.8164C98.2293 69.7326 99.5016 69.6488 100.812 69.5625C102.077 69.4813 103.342 69.4001 104.645 69.3164C108.627 68.9408 111.954 67.8907 116 68Z" fill="#F2CDBA"/>
<path d="M134 205C135.875 205.312 135.875 205.312 138 206C140.567 209.85 139.833 211.586 139 216C137.68 216.33 136.36 216.66 135 217C135.227 216.237 135.454 215.474 135.688 214.688C135.791 213.801 135.894 212.914 136 212C135.021 210.98 134.021 209.979 133 209C133.312 206.812 133.312 206.812 134 205Z" fill="#100705"/>
<path d="M156 81C156.66 81.33 157.32 81.66 158 82C159.187 85.5605 159.097 88.4381 159.062 92.1875C159.053 93.4598 159.044 94.7321 159.035 96.043C159.024 97.0188 159.012 97.9946 159 99C158.34 98.01 157.68 97.02 157 96C156.01 95.34 155.02 94.68 154 94C154.66 94 155.32 94 156 94C156 89.71 156 85.42 156 81Z" fill="#9F2D1B"/>
<path d="M165 116C167.475 116.495 167.475 116.495 170 117C170 119.97 170 122.94 170 126C169.34 126 168.68 126 168 126C167.67 125.01 167.34 124.02 167 123C166.34 123.99 165.68 124.98 165 126C165 122.7 165 119.4 165 116Z" fill="#9F8481"/>
<path d="M59 85C61.31 85 63.62 85 66 85C65.2884 85.8353 65.2884 85.8353 64.5625 86.6875C62.876 89.1835 62.4105 91.0446 62 94C61.67 94 61.34 94 61 94C60.67 95.65 60.34 97.3 60 99C59.67 99 59.34 99 59 99C59 94.38 59 89.76 59 85Z" fill="#FA8D2E"/>
<path d="M137 73C139.97 73.495 139.97 73.495 143 74C143.33 74.99 143.66 75.98 144 77C140.04 77 136.08 77 132 77C131.67 78.32 131.34 79.64 131 81C130.34 79.35 129.68 77.7 129 76C131.64 75.34 134.28 74.68 137 74C137 73.67 137 73.34 137 73Z" fill="#FA863B"/>
<path d="M164 90C165.65 90 167.3 90 169 90C169.195 96.0547 169.195 96.0547 169 98C168.34 98.66 167.68 99.32 167 100C166.01 99.34 165.02 98.68 164 98C164.99 98 165.98 98 167 98C167 97.01 167 96.02 167 95C166.01 95 165.02 95 164 95C164 93.35 164 91.7 164 90Z" fill="#D88574"/>
<path d="M70 194C72.375 194.188 72.375 194.188 75 195C76.3125 197.562 76.3125 197.562 77 200C76.01 200.66 75.02 201.32 74 202C72.35 200.02 70.7 198.04 69 196C69.33 195.34 69.66 194.68 70 194Z" fill="#160907"/>
<path d="M165 158C166.32 158 167.64 158 169 158C169 160.31 169 162.62 169 165C168.34 165 167.68 165 167 165C167.33 165.99 167.66 166.98 168 168C167.01 168 166.02 168 165 168C165 164.7 165 161.4 165 158Z" fill="#746461"/>
<path d="M155 95C155.99 95.33 156.98 95.66 158 96C158 96.99 158 97.98 158 99C160.97 99.33 163.94 99.66 167 100C166.67 100.99 166.34 101.98 166 103C165.67 102.67 165.34 102.34 165 102C162.672 101.632 160.338 101.298 158 101C157.67 102.32 157.34 103.64 157 105C156.34 101.7 155.68 98.4 155 95Z" fill="#9C7B76"/>
<path d="M58 162C58.33 162 58.66 162 59 162C59.0606 163.074 59.1212 164.148 59.1836 165.254C59.2681 166.69 59.3527 168.126 59.4375 169.562C59.4768 170.267 59.5162 170.971 59.5567 171.697C59.8252 176.18 60.3062 180.563 61 185C60.34 185.33 59.68 185.66 59 186C58.0196 183.059 57.8838 181.175 57.9024 178.113C57.9056 177.175 57.9088 176.238 57.9121 175.271C57.9247 173.807 57.9247 173.807 57.9375 172.312C57.942 171.324 57.9465 170.336 57.9512 169.318C57.963 166.879 57.9794 164.439 58 162Z" fill="#FDA26C"/>
<path d="M131 82C131.66 82.33 132.32 82.66 133 83C130.75 85.0625 130.75 85.0625 128 87C125.688 86.75 125.688 86.75 124 86C124 86.66 124 87.32 124 88C122 87 122 87 121 86C119.653 85.7692 118.296 85.5885 116.938 85.4375C115.638 85.2931 114.339 85.1488 113 85C113 84.67 113 84.34 113 84C114.321 84.0348 114.321 84.0348 115.668 84.0703C117.41 84.0974 117.41 84.0974 119.188 84.125C120.336 84.1482 121.485 84.1714 122.668 84.1953C125.933 84.0039 128.027 83.2566 131 82Z" fill="#EC854C"/>
<path d="M162 200C164 199.957 166 199.959 168 200C169 201 169 201 169.062 203.562C169.042 204.367 169.021 205.171 169 206C165.472 206 164.532 205.357 162 203C162 202.01 162 201.02 162 200Z" fill="#120C0A"/>
<path d="M158 77C160.31 77 162.62 77 165 77C165.33 78.32 165.66 79.64 166 81C163.69 81.33 161.38 81.66 159 82C158.67 80.35 158.34 78.7 158 77Z" fill="#F1630C"/>
<path d="M163 101C163.99 101.495 163.99 101.495 165 102C164.67 104.97 164.34 107.94 164 111C164.66 110.34 165.32 109.68 166 109C165.681 106.892 165.681 106.892 165 105C165.66 105.33 166.32 105.66 167 106C167.731 108.314 168.401 110.648 169 113C167.02 113 165.04 113 163 113C163 109.04 163 105.08 163 101Z" fill="#D77459"/>
<path d="M118 68C122.921 67.8332 126.503 67.7517 131 70C131 70.33 131 70.66 131 71C126.71 71 122.42 71 118 71C118 70.01 118 69.02 118 68Z" fill="#F9F1ED"/>
<path d="M94 198C100.625 197.75 100.625 197.75 104 200C102 202 102 202 98.875 202.125C97.9262 202.084 96.9775 202.043 96 202C95.34 200.68 94.68 199.36 94 198Z" fill="#592D22"/>
<path d="M149 185C149.33 185 149.66 185 150 185C149.67 187.31 149.34 189.62 149 192C143.06 192.495 143.06 192.495 137 193C137.66 191.68 138.32 190.36 139 189C141.97 189 144.94 189 148 189C148.33 187.68 148.66 186.36 149 185Z" fill="#F4661A"/>
<path d="M76 196C78.2753 197.801 78.9468 198.637 79.375 201.562C79.1894 202.769 79.1894 202.769 79 204C78.01 204.66 77.02 205.32 76 206C75.34 205.67 74.68 205.34 74 205C74.4858 201.877 74.9986 199.004 76 196Z" fill="#312928"/>
<path d="M115 24C116.98 24 118.96 24 121 24C121.33 24.66 121.66 25.32 122 26C121.01 26.33 120.02 26.66 119 27C118.267 29.0151 118.267 29.0151 118 31C117.01 31 116.02 31 115 31C115 28.69 115 26.38 115 24Z" fill="#D6562F"/>
<path d="M153 193C153.33 193.99 153.66 194.98 154 196C152.536 198.3 150.928 200.072 149 202C146.875 201.625 146.875 201.625 145 201C146.926 198.561 148.801 196.199 151 194C151.33 194.33 151.66 194.66 152 195C152.33 194.34 152.66 193.68 153 193Z" fill="#C64A2C"/>
<path d="M165 189C165.99 189 166.98 189 168 189C167.385 195.523 167.385 195.523 165.438 197.938C164.963 198.288 164.489 198.639 164 199C164 197.35 164 195.7 164 194C163.34 193.67 162.68 193.34 162 193C163.312 191 163.312 191 165 189Z" fill="#D5754F"/>
<path d="M170 157C170.33 157 170.66 157 171 157C171.027 158.437 171.046 159.875 171.062 161.312C171.074 162.113 171.086 162.914 171.098 163.738C171 166 171 166 170 169C168.68 168.67 167.36 168.34 166 168C166.33 167.01 166.66 166.02 167 165C167.66 165 168.32 165 169 165C168.979 163.866 168.959 162.731 168.938 161.562C169 158 169 158 170 157Z" fill="#D5A28F"/>
<path d="M122 199C122.99 199 123.98 199 125 199C125.33 202.63 125.66 206.26 126 210C123.435 207.435 123.46 205.523 123 202C121.02 202 119.04 202 117 202C117 201.67 117 201.34 117 201C118.65 201 120.3 201 122 201C122 200.34 122 199.68 122 199Z" fill="#EA8E67"/>
<path d="M111 23C111.99 23 112.98 23 114 23C114 25.97 114 28.94 114 32C113.01 32 112.02 32 111 32C111 29.03 111 26.06 111 23Z" fill="#F49D72"/>
<path d="M60 186C61.32 186.33 62.64 186.66 64 187C64 190.96 64 194.92 64 199C61.4752 196.475 61.4426 194.862 60.875 191.375C60.7074 190.372 60.5398 189.369 60.3672 188.336C60.246 187.565 60.1248 186.794 60 186Z" fill="#F8A37D"/>
<path d="M147 78C148.98 78 150.96 78 153 78C153.25 85.625 153.25 85.625 151 89C150.879 88.2897 150.758 87.5795 150.633 86.8477C150.465 85.9286 150.298 85.0095 150.125 84.0625C149.963 83.146 149.8 82.2295 149.633 81.2852C149.424 80.5311 149.215 79.777 149 79C148.34 78.67 147.68 78.34 147 78Z" fill="#CC5639"/>
<path d="M126 206C126.99 206.495 126.99 206.495 128 207C128.309 207.949 128.619 208.898 128.937 209.875C129.948 212.847 130.63 214.061 133 216C131.68 216.33 130.36 216.66 129 217C126.847 213.142 125.607 210.449 126 206Z" fill="#C66D4B"/>
<path d="M126 65C134.571 65.8571 134.571 65.8571 138 68C138 68.33 138 68.66 138 69C135.03 68.67 132.06 68.34 129 68C129 67.34 129 66.68 129 66C128.01 65.67 127.02 65.34 126 65Z" fill="#E7B7A4"/>
<path d="M161 194C161.99 194 162.98 194 164 194C164 195.65 164 197.3 164 199C164.66 199.33 165.32 199.66 166 200C164.68 200 163.36 200 162 200C162 200.66 162 201.32 162 202C161.34 202 160.68 202 160 202C160 201.01 160 200.02 160 199C160.66 199 161.32 199 162 199C162 198.01 162 197.02 162 196C161.34 195.67 160.68 195.34 160 195C160.33 194.67 160.66 194.34 161 194Z" fill="#AC4F2B"/>
<path d="M61 80C61.66 80 62.32 80 63 80C63.33 80.99 63.66 81.98 64 83C64.66 83.66 65.32 84.32 66 85C62.8665 86.0445 62.0103 85.9342 59 85C59.875 81.125 59.875 81.125 61 80Z" fill="#F9AE6C"/>
<path d="M125 77C126.65 77 128.3 77 130 77C130.562 78.9375 130.562 78.9375 131 81C130 82 130 82 126.438 82.0625C125.303 82.0419 124.169 82.0212 123 82C123.639 81.7112 124.279 81.4225 124.938 81.125C127.152 80.1718 127.152 80.1718 128 78C127.01 77.67 126.02 77.34 125 77Z" fill="#F9DDCF"/>
<path d="M130 216C132.64 216 135.28 216 138 216C138 217.32 138 218.64 138 220C135.688 220.25 135.688 220.25 133 220C131.188 218 131.188 218 130 216Z" fill="#312C2C"/>
<path d="M138 208C138.66 208.33 139.32 208.66 140 209C139.67 211.31 139.34 213.62 139 216C137.68 216.33 136.36 216.66 135 217C136.875 210.25 136.875 210.25 138 208Z" fill="#180D0B"/>
<path d="M152 184C154.313 187.469 154.425 188.922 154 193C153.01 193.99 152.02 194.98 151 196C151.33 192.04 151.66 188.08 152 184Z" fill="#DD5932"/>
<path d="M169 202C169.66 202 170.32 202 171 202C171.33 204.31 171.66 206.62 172 209C171.01 209.495 171.01 209.495 170 210C168.571 207.646 167.913 206.52 168.375 203.75C168.581 203.173 168.788 202.595 169 202Z" fill="#474445"/>
<path d="M60 175C63 178.75 63 178.75 63 181C64.32 181.33 65.64 181.66 67 182C65.35 182.33 63.7 182.66 62 183C60.9322 181.035 59.9345 179.031 59 177C59.33 176.34 59.66 175.68 60 175Z" fill="#F78233"/>
<path d="M130 84C130.66 84.33 131.32 84.66 132 85C130.35 86.65 128.7 88.3 127 90C126.01 89.67 125.02 89.34 124 89C124 88.01 124 87.02 124 86C125.207 85.7834 125.207 85.7834 126.438 85.5625C128.921 85.2586 128.921 85.2586 130 84Z" fill="#E8610E"/>
<path d="M144 20C144.33 20 144.66 20 145 20C145 23.63 145 27.26 145 31C143 30 143 30 142.25 28.3125C141.911 25.1733 142.875 22.911 144 20Z" fill="#E57E56"/>
<path d="M128 205C130.312 205.125 130.312 205.125 133 206C134.812 209.062 134.812 209.062 136 212C132.597 210.988 131.243 210.352 129.188 207.375C128.796 206.591 128.404 205.808 128 205Z" fill="#A44626"/>
<path d="M127 181C127.33 181 127.66 181 128 181C129.921 186.635 129.921 186.635 130.5 189.312C130.665 189.869 130.83 190.426 131 191C131.66 191.33 132.32 191.66 133 192C131.125 191.75 131.125 191.75 129 191C126.645 187.82 126.825 184.849 127 181Z" fill="#DD5411"/>
<path d="M154 95C156.296 98.4445 156.54 100.938 157 105C156.01 105 155.02 105 154 105C154 101.7 154 98.4 154 95Z" fill="#663A2F"/>
<path d="M160 82C162.64 82 165.28 82 168 82C167.67 82.99 167.34 83.98 167 85C164.69 84.67 162.38 84.34 160 84C160 83.34 160 82.68 160 82Z" fill="#EE6E35"/>
</svg>