<svg stroke="currentColor" width="19" height="20" viewBox="0 0 19 20" fill="none" xmlns="http://www.w3.org/2000/svg">
<path d="M1 18.493H17.9859" stroke="currentColor" stroke-width="1.27394" stroke-linecap="round" stroke-linejoin="round"/>
<path d="M1.94385 18.4932V10.8495C1.94385 9.43966 3.2093 8.30161 4.772 8.30161H14.2077C15.7704 8.30161 17.0358 9.43966 17.0358 10.8495V18.4932" stroke="currentColor" stroke-width="1.27394" stroke-linecap="round" stroke-linejoin="round"/>
<path d="M4.02246 8.30159V5.89809C4.02246 4.87893 4.9397 4.05511 6.07776 4.05511H12.9146C14.0442 4.05511 14.9614 4.87893 14.9614 5.89809V8.30159" stroke="currentColor" stroke-width="1.27394" stroke-linecap="round" stroke-linejoin="round"/>
<path d="M2.30127 11.6818L2.61551 11.6903C3.24399 11.6988 3.74507 12.2084 3.74507 12.8369V13.1171C3.74507 13.7456 4.25465 14.2637 4.89162 14.2637C5.5201 14.2637 6.03817 13.7541 6.03817 13.1171V12.8539C6.03817 12.2254 6.54775 11.7073 7.18472 11.7073C7.8132 11.7073 8.33127 12.2169 8.33127 12.8539V13.1171C8.33127 13.7456 8.84085 14.2637 9.47782 14.2637C10.1063 14.2637 10.6244 13.7541 10.6244 13.1171V12.8539C10.6244 12.2254 11.1339 11.7073 11.7709 11.7073C12.3994 11.7073 12.9175 12.2169 12.9175 12.8539V13.1171C12.9175 13.7456 13.427 14.2637 14.064 14.2637C14.6925 14.2637 15.2106 13.7541 15.2106 13.1171V12.8539C15.2106 12.2254 15.7201 11.7073 16.3571 11.7073H16.7393" stroke="currentColor" stroke-width="1.27394" stroke-linecap="round" stroke-linejoin="round"/>
<path d="M6.09424 4.05484V2.35625" stroke="currentColor" stroke-width="1.27394" stroke-linecap="round" stroke-linejoin="round"/>
<path d="M12.8916 4.05484V2.35625" stroke="currentColor" stroke-width="1.27394" stroke-linecap="round" stroke-linejoin="round"/>
<path d="M9.49316 4.05494V1.50705" stroke="currentColor" stroke-width="1.27394" stroke-linecap="round" stroke-linejoin="round"/>
</svg>
