<svg xmlns="http://www.w3.org/2000/svg" viewBox="0 0 312 312" fill="none">
<path d="M189 75C189.619 75.1856 190.238 75.3712 190.875 75.5625C193.042 76.2369 193.042 76.2369 195 75C206.172 74.2285 214.969 74.8452 223.59 82.3047C227.271 86.7304 227.404 91.8375 227.615 97.3672C227.671 98.6622 227.671 98.6622 227.728 99.9834C228.215 112.633 228.165 125.297 228.167 137.955C228.168 140.148 228.17 142.341 228.173 144.534C228.182 152.203 228.186 159.871 228.185 167.54C228.185 174.668 228.195 181.796 228.211 188.924C228.224 195.078 228.229 201.232 228.229 207.387C228.229 211.049 228.231 214.71 228.242 218.372C228.253 222.436 228.249 226.499 228.243 230.562C228.249 231.77 228.254 232.977 228.26 234.221C228.256 235.325 228.252 236.429 228.247 237.566C228.248 238.525 228.248 239.483 228.249 240.471C227.987 243.131 227.297 244.693 226 247C225.573 248.738 225.199 250.49 224.875 252.25C224.624 253.588 224.624 253.588 224.367 254.953C224.246 255.629 224.125 256.304 224 257C224.784 257.289 225.568 257.577 226.375 257.875C229 259 229 259 231 261C231.739 266.006 231.739 266.006 231 269C228.58 272.082 225.691 273.679 221.859 274.406C219.008 274.533 216.72 274.51 214.34 272.824C212.548 270.385 212.268 268.29 211.812 265.312C211.654 264.319 211.495 263.325 211.332 262.301C211.222 261.542 211.113 260.782 211 260C209.866 260.598 208.731 261.196 207.562 261.812C199.882 265.612 193.61 267.41 185 267C185 267.66 185 268.32 185 269C186.145 269.371 186.145 269.371 187.313 269.75C190.348 271.162 191.445 272.054 193 275C193.5 277.938 193.5 277.938 193 281C189.392 285.563 185.161 288.473 179.375 289.438C176.042 288.824 175.014 287.709 173 285C171.126 279.898 170.347 274.611 169.465 269.258C169.224 267.041 169.224 267.041 168 266C165.064 265.591 162.13 265.226 159.188 264.875C148.45 263.511 137.864 261.531 127.25 259.438C126.471 259.284 125.691 259.13 124.888 258.972C112.172 256.459 112.172 256.459 106.877 255.34C106.005 255.157 105.133 254.974 104.234 254.785C103.163 254.553 103.163 254.553 102.069 254.317C99.5252 253.874 99.5252 253.874 95 254C95 257.3 95 260.6 95 264C93.02 264.99 93.02 264.99 91 266C90.67 266.99 90.34 267.98 90 269C82.5922 269.494 82.5922 269.494 79.9546 267.294C77.7786 264.74 77.236 263.162 76.5859 259.902C76.3823 258.936 76.1786 257.97 75.9688 256.975C75.7728 255.972 75.5769 254.97 75.375 253.938C74.9717 251.945 74.5631 249.955 74.1484 247.965C73.9749 247.084 73.8014 246.204 73.6226 245.297C73.0628 242.75 73.0628 242.75 71 240C70.6877 237.248 70.4913 234.589 70.3855 231.828C70.348 230.99 70.3104 230.153 70.2718 229.291C69.8315 218.451 69.8357 207.605 69.832 196.758C69.8288 194.455 69.8254 192.153 69.8219 189.851C69.816 185.049 69.8141 180.246 69.8147 175.444C69.8148 170.583 69.8079 165.721 69.7942 160.859C69.6669 114.558 69.6669 114.558 70.6367 96.4297C70.6809 95.2958 70.7252 94.1619 70.7707 92.9937C71.2599 85.9374 71.2599 85.9374 73.424 83.1963C75.0852 81.7856 75.0852 81.7856 78 80C78.33 80.99 78.66 81.98 79 83C82.6824 84.2275 86.1231 84.194 89.9609 84.2461C91.6303 84.2779 93.2996 84.3099 94.969 84.342C96.2916 84.3651 96.2916 84.3651 97.6409 84.3887C113.133 84.6652 128.593 85.1836 144.063 86.0625C145.281 86.1317 145.281 86.1317 146.525 86.2024C151.017 86.4596 155.509 86.7257 160 87C160 87.66 160 88.32 160 89C161.98 89 163.96 89 166 89C166 89.66 166 90.32 166 91C167.966 90.8534 167.966 90.8534 170 90C171.138 87.9197 171.138 87.9197 171.75 85.4375C172.114 84.1981 172.114 84.1981 172.484 82.9336C172.655 82.2955 172.825 81.6574 173 81C171.02 80.67 169.04 80.34 167 80C167.33 79.34 167.66 78.68 168 78C174.949 76.6637 181.949 76.9033 189 77C189 76.34 189 75.68 189 75Z" fill="#E96704"/>
<path d="M189 75C189.619 75.1856 190.238 75.3712 190.875 75.5625C193.042 76.2369 193.042 76.2369 195 75C206.172 74.2285 214.969 74.8452 223.59 82.3047C227.271 86.7304 227.404 91.8375 227.615 97.3672C227.671 98.6622 227.671 98.6622 227.728 99.9834C228.215 112.633 228.165 125.297 228.167 137.955C228.168 140.148 228.17 142.341 228.173 144.534C228.182 152.203 228.186 159.871 228.185 167.54C228.185 174.668 228.195 181.796 228.211 188.924C228.224 195.078 228.229 201.232 228.229 207.387C228.229 211.049 228.231 214.71 228.242 218.372C228.253 222.436 228.249 226.499 228.243 230.562C228.249 231.77 228.254 232.977 228.26 234.221C228.256 235.325 228.252 236.429 228.247 237.566C228.248 238.525 228.248 239.483 228.249 240.471C227.987 243.131 227.297 244.693 226 247C225.573 248.738 225.199 250.49 224.875 252.25C224.624 253.588 224.624 253.588 224.367 254.953C224.246 255.629 224.125 256.304 224 257C224.784 257.289 225.568 257.577 226.375 257.875C229 259 229 259 231 261C231.739 266.006 231.739 266.006 231 269C228.58 272.082 225.691 273.679 221.859 274.406C219.008 274.533 216.72 274.51 214.34 272.824C212.548 270.385 212.268 268.29 211.812 265.312C211.654 264.319 211.495 263.325 211.332 262.301C211.222 261.542 211.113 260.782 211 260C209.866 260.598 208.731 261.196 207.562 261.812C199.882 265.612 193.61 267.41 185 267C185 267.66 185 268.32 185 269C186.145 269.371 186.145 269.371 187.312 269.75C190.348 271.162 191.445 272.054 193 275C193.5 277.938 193.5 277.938 193 281C189.392 285.563 185.161 288.473 179.375 289.438C176.042 288.824 175.014 287.709 173 285C171.126 279.898 170.347 274.611 169.465 269.258C169.224 267.041 169.224 267.041 168 266C165.064 265.591 162.13 265.226 159.188 264.875C148.45 263.511 137.864 261.531 127.25 259.438C126.471 259.284 125.691 259.13 124.888 258.972C112.172 256.459 112.172 256.459 106.877 255.34C106.005 255.157 105.133 254.974 104.234 254.785C103.163 254.553 103.163 254.553 102.069 254.317C99.5252 253.874 99.5252 253.874 95 254C95 257.3 95 260.6 95 264C93.02 264.99 93.02 264.99 91 266C90.67 266.99 90.34 267.98 90 269C82.5922 269.494 82.5922 269.494 79.9546 267.294C77.7786 264.74 77.236 263.162 76.5859 259.902C76.3823 258.936 76.1786 257.97 75.9688 256.975C75.7728 255.972 75.5769 254.97 75.375 253.938C74.9717 251.945 74.5631 249.955 74.1484 247.965C73.9749 247.084 73.8014 246.204 73.6226 245.297C73.0628 242.75 73.0628 242.75 71 240C70.8047 236.863 70.8047 236.863 70.875 233.312C70.893 232.133 70.9111 230.954 70.9297 229.738C70.9529 228.835 70.9761 227.931 71 227C71.33 227 71.66 227 72 227C72.049 227.687 72.098 228.374 72.1484 229.082C72.2232 229.983 72.298 230.884 72.375 231.812C72.4446 232.706 72.5142 233.599 72.5859 234.52C72.8665 237.244 72.8665 237.244 75 240C77.8583 240.852 77.8583 240.852 81.2578 241.316C82.5237 241.523 83.7895 241.73 85.0938 241.943C86.4374 242.15 87.7812 242.357 89.125 242.562C91.7326 242.975 94.3389 243.396 96.9453 243.816C98.7944 244.113 98.7944 244.113 100.681 244.417C103.333 244.883 105.89 245.426 108.488 246.121C112.08 247.02 115.37 247.333 119.062 247.5C124.042 247.795 128.207 248.631 133 250C136.532 250.3 140.057 250.5 143.598 250.656C147.012 251.001 149.792 251.815 153 253C154.656 253.382 156.325 253.714 158 254C159.732 254.34 159.732 254.34 161.5 254.688C165.098 255.009 166.836 254.63 170 253C170 253.66 170 254.32 170 255C173.3 255.33 176.6 255.66 180 256C184.14 247.72 183.206 237.673 183.389 228.574C183.433 226.611 183.433 226.611 183.478 224.608C183.558 221.044 183.633 217.479 183.707 213.915C183.786 210.158 183.869 206.402 183.951 202.645C184.089 196.331 184.224 190.016 184.357 183.702C184.51 176.448 184.667 169.194 184.826 161.941C184.996 154.164 185.164 146.387 185.331 138.611C185.378 136.397 185.427 134.183 185.475 131.969C185.801 116.979 186.116 101.995 186 87C182.442 86.0761 182.442 86.0761 178.938 86.75C176.931 88.0083 176.931 88.0083 174.875 89.625C173 91 173 91 171 91C171 91.99 171 92.98 171 94C170.34 94 169.68 94 169 94C168.505 92.515 168.505 92.515 168 91C168.66 90.67 169.32 90.34 170 90C170.907 87.8867 170.907 87.8867 171.625 85.4375C171.885 84.6112 172.146 83.7849 172.414 82.9336C172.607 82.2955 172.801 81.6574 173 81C171.02 80.67 169.04 80.34 167 80C167.33 79.34 167.66 78.68 168 78C174.949 76.6637 181.949 76.9033 189 77C189 76.34 189 75.68 189 75Z" fill="#DF722C"/>
<path d="M186 86C187 87 187 87 187.118 89.9358C187.118 91.3266 187.111 92.7174 187.099 94.1082C187.094 95.2895 187.094 95.2895 187.088 96.4947C187 109.754 186.69 123.013 186.414 136.27C186.383 137.763 186.352 139.257 186.321 140.751C186.193 146.965 186.063 153.179 185.93 159.393C185.742 168.222 185.559 177.051 185.385 185.88C185.261 192.138 185.131 198.395 184.995 204.651C184.915 208.369 184.837 212.086 184.767 215.804C184.688 219.947 184.596 224.09 184.502 228.234C184.482 229.44 184.461 230.646 184.439 231.888C183.921 253.079 183.921 253.079 180 257C176.048 257.344 173.395 257.089 170 255C170 254.34 170 253.68 170 253C168.732 253.804 168.732 253.804 167.438 254.625C163.137 256.345 161.231 255.659 157 254C155.037 252.037 155.589 248.345 155.446 245.656C155.404 244.896 155.362 244.135 155.318 243.352C154.863 234.404 154.855 225.461 154.867 216.504C154.867 214.659 154.866 212.814 154.864 210.969C154.863 207.118 154.865 203.266 154.87 199.415C154.875 194.589 154.872 189.764 154.866 184.938C154.848 166.641 154.909 148.353 155.449 130.063C155.469 129.382 155.489 128.702 155.509 128.001C155.774 119.129 156.25 110.287 156.938 101.438C157.011 100.483 157.085 99.5284 157.162 98.5449C157.364 96.3547 157.67 94.1745 158 92C158.66 91.67 159.32 91.34 160 91C160.33 92.98 160.66 94.96 161 97C161.33 94.69 161.66 92.38 162 90C164.97 90.495 164.97 90.495 168 91C168.33 91.99 168.66 92.98 169 94C169.66 94 170.32 94 171 94C171 93.01 171 92.02 171 91C172.68 89.6484 172.68 89.6484 174.875 88.375C175.594 87.9496 176.314 87.5242 177.055 87.0859C180.621 85.0954 181.992 84.9723 186 86Z" fill="#E46002"/>
<path d="M202 87C205.375 91.5 205.375 91.5 205.512 95.7656C205.547 96.6551 205.583 97.5445 205.619 98.4609C205.653 99.8415 205.653 99.8415 205.688 101.25C205.722 102.186 205.756 103.122 205.791 104.086C205.873 106.391 205.943 108.695 206 111C207.98 111.66 209.96 112.32 212 113C211.34 114.32 210.68 115.64 210 117C211.98 117.66 213.96 118.32 216 119C215.892 117.896 215.892 117.896 215.781 116.77C215.688 115.794 215.596 114.818 215.5 113.812C215.407 112.85 215.314 111.887 215.219 110.895C215.019 108.248 214.961 105.652 215 103C217.31 103 219.62 103 222 103C222 106.3 222 109.6 222 113C221.34 113 220.68 113 220 113C220.66 113.33 221.32 113.66 222 114C222.286 122.571 222.286 122.571 220 126C220.66 126 221.32 126 222 126C222 126.99 222 127.98 222 129C218.535 129.495 218.535 129.495 215 130C215 132.31 215 134.62 215 137C216.65 137.33 218.3 137.66 220 138C221.084 141.624 221.275 145.172 221.5 148.938C221.766 153.695 221.766 153.695 222.507 158.39C223.369 162.956 223.185 167.554 223.188 172.188C223.2 173.178 223.212 174.169 223.225 175.189C223.236 180.925 222.729 186.162 221.474 191.756C220.834 194.786 220.615 197.787 220.438 200.875C220.23 204.382 219.987 207.622 219 211C217.68 211 216.36 211 215 211C214.67 224.2 214.34 237.4 214 251C216.97 250.67 219.94 250.34 223 250C223 252.31 223 254.62 223 257C224.145 257.155 224.145 257.155 225.312 257.312C229.377 258.352 229.377 258.352 231 261C231.806 265.998 231.806 265.998 231 269C228.57 272.078 225.696 273.678 221.859 274.406C219.008 274.533 216.72 274.51 214.34 272.824C212.548 270.385 212.268 268.29 211.812 265.312C211.654 264.319 211.495 263.325 211.332 262.301C211.222 261.542 211.113 260.782 211 260C209.866 260.598 208.731 261.196 207.562 261.812C199.882 265.612 193.61 267.41 185 267C185 267.66 185 268.32 185 269C186.145 269.371 186.145 269.371 187.312 269.75C190.348 271.162 191.445 272.054 193 275C193.5 277.938 193.5 277.938 193 281C189.392 285.563 185.161 288.473 179.375 289.438C176.22 288.856 175.03 287.406 173 285C173.33 284.01 173.66 283.02 174 282C174.99 283.32 175.98 284.64 177 286C178.65 285.67 180.3 285.34 182 285C182.167 281.583 182.167 281.583 182 278C181.34 277.34 180.68 276.68 180 276C178.845 276 177.69 276 176.5 276C175.345 276 174.19 276 173 276C171 274 171 274 170.805 270.523C170.818 269.14 170.842 267.758 170.875 266.375C170.884 265.669 170.893 264.962 170.902 264.234C170.926 262.489 170.962 260.745 171 259C175.29 259 179.58 259 184 259C184 258.34 184 257.68 184 257C188.95 256.01 193.9 255.02 199 254C199.034 252.061 199.034 252.061 199.069 250.083C199.286 237.845 199.506 225.606 199.73 213.367C199.846 207.076 199.959 200.786 200.07 194.495C200.177 188.413 200.288 182.331 200.401 176.249C200.443 173.94 200.484 171.631 200.524 169.322C200.739 156.855 201.055 144.436 202 132C200.68 132 199.36 132 198 132C196.729 129.457 196.871 127.652 196.867 124.809C196.866 123.782 196.865 122.755 196.863 121.697C196.867 120.622 196.871 119.546 196.875 118.438C196.871 117.358 196.867 116.278 196.863 115.166C196.865 114.141 196.866 113.115 196.867 112.059C196.868 111.113 196.869 110.167 196.871 109.193C197 107 197 107 198 106C199.65 106 201.3 106 203 106C202.505 96.595 202.505 96.595 202 87Z" fill="#D66226"/>
<path d="M185 88C185.66 88.33 186.32 88.66 187 89C187.134 104.695 186.74 120.384 186.414 136.074C186.383 137.57 186.352 139.065 186.321 140.561C186.192 146.783 186.063 153.006 185.93 159.228C185.742 168.077 185.559 176.925 185.385 185.774C185.261 192.039 185.131 198.305 184.995 204.57C184.915 208.294 184.837 212.018 184.767 215.743C184.688 219.896 184.596 224.049 184.502 228.202C184.482 229.411 184.461 230.62 184.439 231.866C183.922 253.078 183.922 253.078 180 257C175.947 257.345 174.452 257.302 171 255C169.765 251.294 169.767 247.798 169.684 243.934C169.663 243.12 169.642 242.306 169.62 241.467C169.554 238.791 169.495 236.114 169.438 233.438C169.417 232.524 169.396 231.61 169.374 230.668C169.086 217.925 168.897 205.184 168.875 192.438C168.872 191.765 168.87 191.093 168.867 190.4C168.843 182.508 169.099 174.688 169.644 166.819C170.063 160.581 170.115 154.374 170.063 148.125C170.058 147.069 170.053 146.014 170.049 144.926C170.037 142.284 170.019 139.642 170 137C170 136.34 170 135.68 170 135C169.959 133.824 169.918 132.649 169.875 131.438C169.858 126.78 170.836 122.489 172 118C171.34 117.67 170.68 117.34 170 117C170.165 116.196 170.33 115.391 170.5 114.562C171.12 111.254 171.12 111.254 170.75 108.949C170.291 104.907 170.473 102.769 172.824 99.3398C176.582 95.1228 180.539 91.4629 185 88Z" fill="#C23E00"/>
<path d="M192.164 82.8047C193.382 82.8395 193.382 82.8395 194.625 82.875C195.851 82.9021 195.851 82.9021 197.102 82.9297C198.041 82.9645 198.041 82.9645 199 83C203.842 90.4148 203.399 97.4832 203 106C201.35 106.33 199.7 106.66 198 107C198 115.25 198 123.5 198 132C199.32 132 200.64 132 202 132C201.856 142.021 201.71 152.042 201.562 162.062C201.551 162.811 201.54 163.56 201.529 164.331C201.088 194.222 200.569 224.111 200 254C198.587 254.503 197.171 254.997 195.754 255.488C194.966 255.765 194.178 256.041 193.365 256.325C190.104 257.255 187.37 257.215 184 257C184.072 256.452 184.144 255.904 184.219 255.34C184.838 250.055 185.044 244.885 185 239.562C184.965 235.222 185.022 231.001 185.5 226.688C186.029 221.774 186.04 216.934 186 212C185.96 207.087 185.968 202.267 186.5 197.375C187.097 191.865 187.013 186.42 186.967 180.883C186.968 176.607 187.148 172.353 187.359 168.084C187.908 156.78 188.075 145.505 188.027 134.191C188.025 133.473 188.022 132.754 188.019 132.014C187.993 125.335 187.953 118.655 187.904 111.976C187.877 108.271 187.86 104.566 187.849 100.86C187.843 99.4636 187.833 98.0669 187.819 96.6703C187.8 94.7432 187.794 92.816 187.789 90.8889C187.781 89.7963 187.774 88.7036 187.766 87.5779C188.064 84.2892 188.783 83.1099 192.164 82.8047Z" fill="#DE8252"/>
<path d="M225 84C227.36 88.217 227.434 92.6392 227.615 97.3672C227.652 98.2305 227.69 99.0939 227.728 99.9834C228.215 112.633 228.165 125.297 228.167 137.955C228.168 140.148 228.17 142.341 228.173 144.534C228.182 152.203 228.186 159.871 228.185 167.54C228.185 174.668 228.195 181.796 228.211 188.924C228.224 195.078 228.229 201.232 228.229 207.387C228.229 211.049 228.231 214.71 228.242 218.372C228.253 222.436 228.249 226.499 228.243 230.563C228.249 231.77 228.254 232.977 228.26 234.221C228.256 235.325 228.252 236.429 228.247 237.566C228.248 238.525 228.248 239.483 228.249 240.471C227.987 243.131 227.297 244.693 226 247C225.573 248.738 225.199 250.49 224.875 252.25C224.707 253.142 224.54 254.034 224.367 254.953C224.246 255.629 224.125 256.304 224 257C223.67 257 223.34 257 223 257C223 254.69 223 252.38 223 250C220.03 250.33 217.06 250.66 214 251C214 237.47 214 223.94 214 210C215.65 210.33 217.3 210.66 219 211C219.049 209.889 219.098 208.778 219.148 207.633C219.224 206.13 219.299 204.628 219.375 203.125C219.406 202.398 219.437 201.671 219.469 200.922C219.681 196.893 220.144 193.107 221.027 189.168C222.235 183.489 222.259 177.974 222.188 172.188C222.187 171.178 222.186 170.168 222.186 169.127C222.159 164.583 221.945 160.452 221 156C220.705 152.428 220.495 148.855 220.281 145.277C220.06 142.701 219.737 140.464 219 138C217.68 137.67 216.36 137.34 215 137C215 134.69 215 132.38 215 130C218.465 129.505 218.465 129.505 222 129C222 128.01 222 127.02 222 126C221.34 126 220.68 126 220 126C220.667 123.333 221.333 120.667 222 118C221.01 117.67 220.02 117.34 219 117C219.99 117 220.98 117 222 117C222 116.01 222 115.02 222 114C221.01 113.67 220.02 113.34 219 113C219.66 112.67 220.32 112.34 221 112C221.467 109.874 221.467 109.874 221.625 107.438C221.7 106.611 221.775 105.785 221.852 104.934C221.901 104.296 221.95 103.657 222 103C219.69 103 217.38 103 215 103C215.108 104.104 215.108 104.104 215.219 105.23C215.312 106.206 215.404 107.182 215.5 108.188C215.593 109.15 215.686 110.113 215.781 111.105C215.98 113.731 216 116.367 216 119C212.7 118.67 209.4 118.34 206 118C207.32 117.34 208.64 116.68 210 116C210.66 115.01 211.32 114.02 212 113C210.02 112.67 208.04 112.34 206 112C206.639 111.711 207.279 111.423 207.938 111.125C210.152 110.172 210.152 110.172 211 108C211.66 108 212.32 108 213 108C212.34 99.42 211.68 90.84 211 82C221 81 221 81 225 84Z" fill="#E5A381"/>
<path d="M171 68C175.99 69.2966 180.884 70.3606 186 71C186 71.66 186 72.32 186 73C191.61 73.33 197.22 73.66 203 74C203 74.33 203 74.66 203 75C201.044 75.3887 199.085 75.7606 197.125 76.125C195.489 76.4382 195.489 76.4382 193.82 76.7578C192.89 76.8377 191.959 76.9177 191 77C190.01 76.01 190.01 76.01 189 75C189 75.66 189 76.32 189 77C178.605 77.99 178.605 77.99 168 79C169.65 79.66 171.3 80.32 173 81C173.362 85.2225 172.664 87.6695 170 91C168.68 91 167.36 91 166 91C166 90.34 166 89.68 166 89C164.02 89 162.04 89 160 89C160 88.34 160 87.68 160 87C158.921 87.0116 157.842 87.0232 156.73 87.0352C155.216 87.0446 153.702 87.0537 152.188 87.0625C151.488 87.0709 150.789 87.0793 150.068 87.0879C144.43 87.1121 138.829 86.8446 133.203 86.5234C126.241 86.1292 119.289 85.8792 112.316 85.7539C110.989 85.7289 110.989 85.7289 109.635 85.7034C106.015 85.6371 102.395 85.5742 98.7751 85.5232C96.0803 85.4836 93.386 85.4322 90.6914 85.3789C89.4665 85.3663 89.4665 85.3663 88.2169 85.3534C81.0292 85.1959 81.0292 85.1959 78 83C77.67 82.34 77.34 81.68 77 81C75.68 81.99 74.36 82.98 73 84C74.7345 79.3168 78.5924 76.2038 83 74C86.2261 73.7363 89.4455 73.5557 92.6777 73.3945C96.1325 73.4981 96.1325 73.4981 99 72C101.219 71.9122 103.44 71.8931 105.66 71.9023C106.657 71.9045 106.657 71.9045 107.674 71.9066C109.803 71.9122 111.933 71.9248 114.062 71.9375C115.503 71.9425 116.944 71.9471 118.385 71.9512C121.923 71.9622 125.462 71.9795 129 72C129 71.34 129 70.68 129 70C129.918 69.8788 130.836 69.7577 131.781 69.6328C139.561 68.639 139.561 68.639 147.188 66.875C155.343 65.0031 163.005 65.8355 171 68Z" fill="#FBDCBC"/>
<path d="M215 103C217.31 103 219.62 103 222 103C222 106.3 222 109.6 222 113C221.34 113 220.68 113 220 113C220.66 113.33 221.32 113.66 222 114C222.286 122.571 222.286 122.571 220 126C220.66 126 221.32 126 222 126C222 126.99 222 127.98 222 129C219.69 129.33 217.38 129.66 215 130C215 132.31 215 134.62 215 137C216.65 137.33 218.3 137.66 220 138C221.084 141.624 221.275 145.172 221.5 148.938C221.766 153.695 221.766 153.695 222.507 158.39C223.369 162.956 223.185 167.554 223.188 172.188C223.2 173.178 223.212 174.169 223.225 175.189C223.236 180.925 222.729 186.162 221.474 191.756C220.834 194.786 220.615 197.787 220.438 200.875C220.23 204.382 219.987 207.622 219 211C217.68 211 216.36 211 215 211C214.67 224.2 214.34 237.4 214 251C216.97 250.67 219.94 250.34 223 250C223 252.31 223 254.62 223 257C224.145 257.155 224.145 257.155 225.312 257.312C229.377 258.352 229.377 258.352 231 261C231.806 265.998 231.806 265.998 231 269C228.57 272.078 225.696 273.678 221.859 274.406C219.008 274.533 216.72 274.51 214.34 272.824C212.548 270.385 212.268 268.29 211.812 265.312C211.654 264.319 211.495 263.325 211.332 262.301C211.222 261.542 211.113 260.782 211 260C210.01 260 209.02 260 208 260C208.154 258.932 208.308 257.863 208.467 256.762C209.165 251.123 209.346 245.481 209.527 239.805C209.569 238.532 209.61 237.26 209.653 235.949C210.292 214.86 210.354 193.754 210.532 172.657C210.583 166.702 210.639 160.748 210.693 154.793C210.8 143.195 210.901 131.598 211 120C212.65 119.67 214.3 119.34 216 119C215.928 118.264 215.856 117.528 215.781 116.77C215.688 115.794 215.596 114.818 215.5 113.812C215.407 112.85 215.314 111.887 215.219 110.895C215.019 108.248 214.961 105.652 215 103Z" fill="#E36D25"/>
<path d="M71 227C71.33 227 71.66 227 72 227C72.049 227.687 72.098 228.374 72.1484 229.082C72.2232 229.983 72.298 230.884 72.375 231.812C72.4446 232.706 72.5142 233.599 72.5859 234.52C72.8665 237.244 72.8665 237.244 75 240C77.595 240.802 77.595 240.802 80.6953 241.211C81.8759 241.401 83.0564 241.592 84.2727 241.788C86.1796 242.079 86.1796 242.079 88.125 242.375C90.7572 242.8 93.3887 243.228 96.0195 243.66C96.6851 243.769 97.3506 243.877 98.0364 243.989C104.666 245.082 111.24 246.415 117.812 247.812C118.843 248.031 119.874 248.25 120.936 248.476C123.292 248.98 125.646 249.487 128 250C128 250.66 128 251.32 128 252C129.094 252.056 129.094 252.056 130.211 252.113C139.941 252.726 149.411 254.289 159 256C159 257.98 159 259.96 159 262C159.66 261.01 160.32 260.02 161 259C168.149 258.433 168.149 258.433 172 261C172.293 264.039 172.293 264.039 172.188 267.625C172.147 269.408 172.147 269.408 172.105 271.227C172.071 272.142 172.036 273.057 172 274C174.869 275.158 174.869 275.158 177.5 274.875C180 275 180 275 181.812 276.062C183.647 279.056 183.311 281.578 183 285C182.01 285.99 182.01 285.99 181 287C178.021 286.847 176.505 286.505 174.375 284.375C171.017 278.574 169.679 273.561 169 267C166.853 264.853 162.171 265.231 159.188 264.875C148.45 263.511 137.864 261.531 127.25 259.438C126.471 259.284 125.691 259.13 124.888 258.972C112.172 256.459 112.172 256.459 106.877 255.34C106.005 255.157 105.133 254.974 104.234 254.785C103.52 254.631 102.805 254.476 102.069 254.317C99.5252 253.874 99.5252 253.874 95 254C95 257.3 95 260.6 95 264C93.68 264.66 92.36 265.32 91 266C90.67 266.99 90.34 267.98 90 269C82.5922 269.494 82.5922 269.494 79.9546 267.294C77.7786 264.74 77.236 263.162 76.5859 259.902C76.3823 258.936 76.1786 257.97 75.9688 256.975C75.7728 255.972 75.5769 254.97 75.375 253.938C74.9717 251.945 74.5631 249.955 74.1484 247.965C73.9749 247.084 73.8014 246.204 73.6226 245.297C73.0628 242.75 73.0628 242.75 71 240C70.8047 236.863 70.8047 236.863 70.875 233.312C70.9021 231.543 70.9021 231.543 70.9297 229.738C70.9529 228.835 70.9761 227.931 71 227Z" fill="#E27741"/>
<path d="M205 118C210.75 117.875 210.75 117.875 213 119C213 145.07 213 171.14 213 198C212.67 198 212.34 198 212 198C211.979 198.657 211.959 199.313 211.938 199.989C211.72 206.852 211.491 213.715 211.255 220.577C211.169 223.134 211.086 225.692 211.005 228.25C210.889 231.936 210.762 235.622 210.633 239.309C210.599 240.443 210.566 241.578 210.532 242.747C210.298 249.075 209.753 254.9 208 261C204.676 263.955 201.355 264.494 197 265C197.352 264.413 197.705 263.827 198.068 263.223C201.841 256.436 202.742 251.025 202.735 243.334C202.754 242.212 202.773 241.091 202.792 239.935C202.847 236.249 202.869 232.565 202.891 228.879C202.924 226.293 202.959 223.707 202.997 221.122C203.08 215.014 203.143 208.907 203.194 202.799C203.271 193.895 203.384 184.992 203.496 176.089C203.577 169.688 203.652 163.288 203.71 156.887C203.837 143.899 204.164 130.963 205 118Z" fill="#AA3C18"/>
<path d="M223 145C223.33 145 223.66 145 224 145C226.889 156.657 227.445 167.673 227.398 179.637C227.4 181.492 227.403 183.348 227.407 185.203C227.412 189.065 227.405 192.927 227.391 196.788C227.374 201.707 227.384 206.625 227.402 211.544C227.413 215.366 227.409 219.188 227.401 223.01C227.399 224.823 227.402 226.635 227.409 228.448C227.439 238.384 227.148 247.449 224 257C223.67 257 223.34 257 223 257C223 254.69 223 252.38 223 250C218.545 250.495 218.545 250.495 214 251C214 237.47 214 223.94 214 210C215.65 210.33 217.3 210.66 219 211C219.049 209.889 219.098 208.778 219.148 207.633C219.224 206.13 219.299 204.628 219.375 203.125C219.406 202.398 219.437 201.671 219.469 200.922C219.681 196.89 220.145 193.099 221.027 189.156C222.221 183.54 222.259 178.098 222.188 172.375C222.187 171.39 222.186 170.405 222.186 169.391C222.152 163.84 221.815 158.49 221 153C221.66 153 222.32 153 223 153C223 150.36 223 147.72 223 145Z" fill="#E57C43"/>
<path d="M171 68C175.99 69.2966 180.884 70.3606 186 71C186 71.66 186 72.32 186 73C191.61 73.33 197.22 73.66 203 74C203 74.33 203 74.66 203 75C201.044 75.3887 199.085 75.7606 197.125 76.125C195.489 76.4382 195.489 76.4382 193.82 76.7578C192.89 76.8377 191.959 76.9177 191 77C190.01 76.01 190.01 76.01 189 75C189 75.66 189 76.32 189 77C186.396 77.0539 183.792 77.0936 181.188 77.125C180.081 77.1501 180.081 77.1501 178.951 77.1758C175.088 77.2107 173.291 77.194 170 75C170 74.01 170 73.02 170 72C165.612 70.3206 162.003 69.7526 157.312 69.8125C156.195 69.8189 155.077 69.8254 153.926 69.832C150.937 69.8758 150.937 69.8758 148 71C150.812 73.812 153.84 73.699 157.625 74.125C158.331 74.2114 159.038 74.2977 159.766 74.3867C161.509 74.5988 163.255 74.8004 165 75C165 75.66 165 76.32 165 77C162.69 77.33 160.38 77.66 158 78C159.32 78.66 160.64 79.32 162 80C159.667 80.0279 157.334 80.0473 155 80.0625C153.051 80.0799 153.051 80.0799 151.062 80.0977C147.047 80.068 143.068 79.8129 139.062 79.5312C127.391 78.7341 115.694 78.6414 104 78.4375C101.664 78.3942 99.3281 78.3506 96.9922 78.3066C91.3282 78.2008 85.6641 78.0988 80 78C80.33 77.01 80.66 76.02 81 75C84.5303 73.2348 88.7716 73.5893 92.6777 73.3945C96.1325 73.4981 96.1325 73.4981 99 72C101.219 71.9122 103.44 71.8931 105.66 71.9023C106.657 71.9045 106.657 71.9045 107.674 71.9066C109.803 71.9122 111.933 71.9248 114.062 71.9375C115.503 71.9425 116.944 71.9471 118.385 71.9512C121.923 71.9622 125.462 71.9795 129 72C129 71.34 129 70.68 129 70C129.918 69.8788 130.836 69.7577 131.781 69.6328C139.561 68.639 139.561 68.639 147.188 66.875C155.343 65.0031 163.005 65.8355 171 68Z" fill="#F5B176"/>
<path d="M202 87C205.375 91.5 205.375 91.5 205.512 95.7656C205.565 97.0998 205.565 97.0998 205.619 98.4609C205.642 99.3813 205.664 100.302 205.688 101.25C205.739 102.654 205.739 102.654 205.791 104.086C205.873 106.391 205.943 108.695 206 111C207.98 111.66 209.96 112.32 212 113C211.25 114.938 211.25 114.938 210 117C207.922 117.629 207.922 117.629 206 118C205.089 132.205 204.794 146.386 204.646 160.617C204.583 166.478 204.502 172.337 204.424 178.197C204.304 187.14 204.191 196.082 204.101 205.025C204.033 211.758 203.945 218.491 203.845 225.223C203.81 227.776 203.783 230.329 203.763 232.882C203.734 236.442 203.68 240.001 203.622 243.561C203.619 244.606 203.616 245.651 203.613 246.727C203.462 253.791 202.241 259.278 197.521 264.699C195.316 266.585 193.658 266.298 190.812 266.188C189.911 266.16 189.01 266.133 188.082 266.105C187.395 266.071 186.708 266.036 186 266C186 265.34 186 264.68 186 264C186.949 263.773 187.898 263.546 188.875 263.312C192.193 262.309 192.193 262.309 193.375 259.375C193.581 258.591 193.787 257.807 194 257C195.98 257 197.96 257 200 257C200.859 230.426 201.269 203.857 201.532 177.271C201.584 172.14 201.639 167.01 201.693 161.879C201.799 151.919 201.901 141.96 202 132C200.68 132 199.36 132 198 132C196.729 129.457 196.871 127.652 196.867 124.809C196.866 123.782 196.865 122.755 196.863 121.697C196.867 120.622 196.871 119.546 196.875 118.438C196.869 116.818 196.869 116.818 196.863 115.166C196.865 114.141 196.866 113.115 196.867 112.059C196.868 111.113 196.869 110.167 196.871 109.193C197 107 197 107 198 106C199.65 106 201.3 106 203 106C202.505 96.595 202.505 96.595 202 87Z" fill="#A73408"/>
<path d="M211 120C211.33 120 211.66 120 212 120C212 164.22 212 208.44 212 254C212.66 254 213.32 254 214 254C214 253.34 214 252.68 214 252C216.31 252 218.62 252 221 252C221 253.98 221 255.96 221 258C221.722 257.753 222.444 257.505 223.188 257.25C226 257 226 257 228.812 258.438C231.403 261.472 231.873 263.111 231.609 267.027C230.636 270.178 228.844 271.492 226.078 273.156C222.457 274.627 219.883 274.518 216 274C213.588 272.292 213.049 271.179 212.27 268.301C212.119 267.315 211.968 266.329 211.812 265.312C211.654 264.319 211.495 263.325 211.332 262.301C211.222 261.542 211.113 260.782 211 260C210.01 260 209.02 260 208 260C208.154 258.932 208.308 257.863 208.467 256.762C209.165 251.123 209.346 245.481 209.527 239.805C209.569 238.532 209.61 237.26 209.653 235.949C210.292 214.86 210.354 193.754 210.532 172.657C210.583 166.702 210.639 160.748 210.693 154.793C210.8 143.195 210.901 131.598 211 120Z" fill="#B9360B"/>
<path d="M159 91C159.33 91 159.66 91 160 91C160.023 103.482 160.041 115.965 160.052 128.447C160.057 134.242 160.064 140.038 160.075 145.833C160.086 151.423 160.092 157.012 160.095 162.601C160.097 164.737 160.1 166.873 160.106 169.01C160.113 171.993 160.114 174.977 160.114 177.96C160.117 178.851 160.121 179.741 160.124 180.659C160.114 186.772 160.114 186.772 159 189C158.91 190.45 158.882 191.905 158.886 193.358C158.887 194.259 158.887 195.159 158.887 196.088C158.892 197.062 158.897 198.036 158.902 199.039C158.904 200.035 158.905 201.031 158.907 202.057C158.912 205.247 158.925 208.436 158.937 211.625C158.943 213.784 158.947 215.943 158.951 218.102C158.962 223.401 158.979 228.701 159 234C158.34 234 157.68 234 157 234C157 234.66 157 235.32 157 236C156.34 236 155.68 236 155 236C154.976 225.244 154.959 214.488 154.948 203.731C154.943 198.733 154.936 193.734 154.925 188.735C154.881 169.151 154.862 149.574 155.441 129.996C155.461 129.318 155.48 128.64 155.501 127.941C156.526 93.4739 156.526 93.4739 159 91Z" fill="#D95100"/>
<path d="M187 90C187.33 90 187.66 90 188 90C187.981 91.0071 187.981 91.0071 187.962 92.0346C187.798 100.898 187.646 109.761 187.5 118.625C187.482 119.713 187.482 119.713 187.464 120.822C187.162 139.111 186.956 157.396 186.969 175.688C186.969 176.487 186.97 177.286 186.97 178.11C186.977 185.911 186.995 193.711 187.028 201.512C187.04 204.403 187.048 207.295 187.055 210.187C187.062 212.16 187.075 214.134 187.088 216.107C187.104 222.187 186.872 227.986 186 234C185.95 235.575 185.933 237.152 185.973 238.727C185.985 239.531 185.997 240.335 186.01 241.164C186.045 242.813 186.084 244.461 186.127 246.109C186.192 250.838 185.837 254.549 184 259C181.667 259.17 179.334 259.337 177 259.5C176.315 259.549 175.629 259.598 174.923 259.649C171.325 259.894 167.791 260.022 164.188 259.875C163.136 259.916 162.084 259.958 161 260C160.34 260.99 159.68 261.98 159 263C158 262 158 262 157.938 259.438C157.958 258.633 157.979 257.829 158 257C148.017 255.207 138.035 253.483 128 252C128 251.34 128 250.68 128 250C125.36 249.67 122.72 249.34 120 249C120 248.67 120 248.34 120 248C128.589 248.737 137.163 249.805 145.613 251.535C147.876 251.976 150.081 252.235 152.375 252.438C155.423 252.741 157.721 253.232 160.688 254.188C164.548 255.134 166.413 254.575 170 253C170 253.66 170 254.32 170 255C173.3 255.33 176.6 255.66 180 256C184.148 247.703 183.202 237.642 183.373 228.527C183.416 226.51 183.458 224.494 183.501 222.477C183.546 220.328 183.589 218.179 183.631 216.029C183.719 211.525 183.814 207.022 183.909 202.518C184.094 193.761 184.273 185.003 184.451 176.246C184.677 165.118 184.904 153.99 185.139 142.862C185.233 138.401 185.324 133.939 185.412 129.477C185.468 126.682 185.527 123.886 185.586 121.091C185.625 119.21 185.661 117.33 185.696 115.449C185.881 106.941 186.373 98.4854 187 90Z" fill="#D05E24"/>
<path d="M191 23C192 24 192 24 192.133 26.6875C192.13 27.7806 192.128 28.8737 192.125 30C192.129 31.6397 192.129 31.6397 192.133 33.3125C192 36 192 36 191 37C188.5 37.125 188.5 37.125 186 37C185.505 36.505 185.505 36.505 185 36C185 34.35 185 32.7 185 31C172.625 31.495 172.625 31.495 160 32C160 33.65 160 35.3 160 37C157.69 37 155.38 37 153 37C152.67 33.37 152.34 29.74 152 26C162.824 19.4485 178.952 21.1622 191 23Z" fill="#E17231"/>
<path d="M205 118C205.99 118 206.98 118 208 118C207.93 119.274 207.86 120.548 207.787 121.861C207.068 135.716 206.853 149.538 206.831 163.41C206.821 168.453 206.796 173.495 206.771 178.538C206.726 187.874 206.687 197.211 206.674 206.547C206.665 213.095 206.635 219.643 206.593 226.192C206.58 228.673 206.575 231.154 206.578 233.635C206.58 237.089 206.558 240.543 206.53 243.998C206.537 245.013 206.543 246.029 206.55 247.075C206.468 253.326 205.391 256.77 202 262C202.33 262.66 202.66 263.32 203 264C201.02 264.33 199.04 264.66 197 265C197.352 264.413 197.705 263.827 198.068 263.223C201.841 256.436 202.742 251.025 202.735 243.334C202.754 242.212 202.773 241.091 202.792 239.935C202.847 236.249 202.869 232.565 202.891 228.879C202.924 226.293 202.959 223.707 202.997 221.122C203.08 215.014 203.143 208.907 203.194 202.799C203.271 193.895 203.384 184.992 203.496 176.089C203.577 169.688 203.652 163.288 203.71 156.887C203.837 143.899 204.164 130.963 205 118Z" fill="#E47734"/>
<path d="M215 138C216.65 138 218.3 138 220 138C221.084 141.624 221.275 145.172 221.5 148.938C221.766 153.695 221.766 153.695 222.507 158.39C223.369 162.956 223.185 167.554 223.188 172.188C223.2 173.178 223.212 174.169 223.225 175.189C223.236 180.925 222.729 186.162 221.474 191.756C220.834 194.786 220.615 197.787 220.438 200.875C220.23 204.382 219.987 207.622 219 211C217.68 211 216.36 211 215 211C214.946 208.062 214.906 205.125 214.875 202.188C214.858 201.354 214.841 200.521 214.824 199.662C214.818 198.86 214.811 198.057 214.805 197.23C214.794 196.492 214.784 195.754 214.773 194.993C215.135 191.813 217.249 189.626 219 187C219.931 182.146 220.135 177.435 220.125 172.5C220.129 170.628 220.129 170.628 220.133 168.719C220.002 165.047 219.588 161.62 219 158C218.67 158 218.34 158 218 158C217.67 160.31 217.34 162.62 217 165C216.67 165 216.34 165 216 165C214.981 159.151 214.882 153.491 214.938 147.562C214.942 146.64 214.947 145.718 214.951 144.768C214.963 142.512 214.979 140.256 215 138Z" fill="#A63710"/>
<path d="M223 145C223.33 145 223.66 145 224 145C226.823 156.162 227.472 166.784 227.391 178.264C227.375 181.024 227.391 183.783 227.41 186.543C227.408 188.32 227.404 190.098 227.398 191.875C227.405 192.689 227.411 193.502 227.417 194.341C227.352 199.603 226.512 203.343 224 208C221.812 208.938 221.812 208.938 220 209C219.945 206.709 219.907 204.417 219.875 202.125C219.852 200.849 219.829 199.573 219.805 198.258C219.852 195.12 220.311 192.28 220.996 189.219C222.213 183.576 222.26 178.128 222.188 172.375C222.187 170.898 222.187 170.898 222.186 169.391C222.152 163.84 221.815 158.49 221 153C221.66 153 222.32 153 223 153C223 150.36 223 147.72 223 145Z" fill="#E48E62"/>
<path d="M168.312 70.5C169.643 71.2425 169.643 71.2425 171 72C171 72.99 171 73.98 171 75C172.65 75.66 174.3 76.32 176 77C176 77.33 176 77.66 176 78C173.36 78.33 170.72 78.66 168 79C169.65 79.66 171.3 80.32 173 81C173.362 85.2225 172.664 87.6695 170 91C168.68 91 167.36 91 166 91C166 90.34 166 89.68 166 89C164.02 89 162.04 89 160 89C159.312 87.375 159.312 87.375 159 85C160.438 81.75 160.438 81.75 162 79C160.35 79 158.7 79 157 79C157.33 78.34 157.66 77.68 158 77C160.31 77 162.62 77 165 77C165 76.34 165 75.68 165 75C158.73 74.67 152.46 74.34 146 74C146 73.01 146 72.02 146 71C152.743 67.8541 161.414 67.5234 168.312 70.5Z" fill="#F89133"/>
<path d="M202 87C205.375 91.5 205.375 91.5 205.512 95.7656C205.547 96.6551 205.583 97.5445 205.619 98.4609C205.642 99.3813 205.664 100.302 205.688 101.25C205.739 102.654 205.739 102.654 205.791 104.086C205.873 106.391 205.943 108.695 206 111C207.98 111.66 209.96 112.32 212 113C210.902 115.993 210.323 116.846 207.375 118.25C206.591 118.497 205.807 118.745 205 119C204.963 119.603 204.925 120.207 204.887 120.828C204.201 129.169 204.201 129.169 201 132C200.01 132 199.02 132 198 132C196.729 129.457 196.871 127.652 196.867 124.809C196.866 123.782 196.865 122.755 196.863 121.697C196.867 120.622 196.871 119.546 196.875 118.438C196.871 117.358 196.867 116.278 196.863 115.166C196.865 114.141 196.866 113.115 196.867 112.059C196.868 111.113 196.869 110.167 196.871 109.193C197 107 197 107 198 106C199.65 106 201.3 106 203 106C202.67 99.73 202.34 93.46 202 87Z" fill="#7B655F"/>
<path d="M81 75C109.019 74.8734 136.994 75.103 165 76C165 76.33 165 76.66 165 77C162.69 77.33 160.38 77.66 158 78C159.32 78.66 160.64 79.32 162 80C159.667 80.0279 157.334 80.0473 155 80.0625C153.051 80.0799 153.051 80.0799 151.062 80.0977C147.047 80.068 143.068 79.8129 139.062 79.5313C127.391 78.7341 115.694 78.6414 104 78.4375C101.664 78.3942 99.3281 78.3506 96.9922 78.3066C91.3282 78.2008 85.6641 78.0988 80 78C80.33 77.01 80.66 76.02 81 75Z" fill="#FE9C2B"/>
<path d="M161 259C168.149 258.433 168.149 258.433 172 261C172.293 264.039 172.293 264.039 172.188 267.625C172.16 268.814 172.133 270.002 172.105 271.227C172.071 272.142 172.036 273.057 172 274C174.869 275.158 174.869 275.158 177.5 274.875C180 275 180 275 181.812 276.063C183.647 279.056 183.311 281.578 183 285C182.34 285.66 181.68 286.32 181 287C178.021 286.847 176.505 286.505 174.375 284.375C171.017 278.574 169.679 273.561 169 267C167.115 265.115 163.973 265.307 161.438 264.938C159.641 264.673 159.641 264.673 157.809 264.402C156.882 264.27 155.955 264.137 155 264C155.619 263.732 156.237 263.464 156.875 263.188C159.3 262.044 159.3 262.044 161 259Z" fill="#E1743E"/>
<path d="M184 270C189.425 270.482 189.425 270.482 191.875 272.688C193.382 275.785 193.557 277.591 193 281C189.392 285.563 185.161 288.473 179.375 289.438C176.22 288.856 175.03 287.406 173 285C173.33 284.01 173.66 283.02 174 282C174.99 283.32 175.98 284.64 177 286C178.65 285.67 180.3 285.34 182 285C182.167 281.583 182.167 281.583 182 278C179.778 275.778 177.915 275.074 175 274C175 273.34 175 272.68 175 272C181.75 271.875 181.75 271.875 184 273C184 272.01 184 271.02 184 270Z" fill="#211C19"/>
<path d="M116 80C131.18 80 146.36 80 162 80C161.34 81.65 160.68 83.3 160 85C145.261 85.1785 130.457 85.2162 116 82C116 81.34 116 80.68 116 80Z" fill="#FCEBDB"/>
<path d="M185 36C187.97 36.495 187.97 36.495 191 37C191 48.88 191 60.76 191 73C189.35 73 187.7 73 186 73C185.67 60.79 185.34 48.58 185 36Z" fill="#D4D2D2"/>
<path d="M219 137C220.32 137.33 221.64 137.66 223 138C224.25 141.062 224.25 141.062 225 144C225.66 143.01 226.32 142.02 227 141C227.853 146.893 228.139 152.588 228.114 158.537C228.114 159.455 228.114 160.373 228.114 161.319C228.113 164.327 228.106 167.335 228.098 170.344C228.096 172.44 228.094 174.536 228.093 176.632C228.09 182.129 228.08 187.627 228.069 193.124C228.058 198.742 228.054 204.359 228.049 209.977C228.038 220.984 228.021 231.992 228 243C227.67 243 227.34 243 227 243C226.821 237.604 226.657 232.209 226.5 226.812C226.463 225.567 226.463 225.567 226.426 224.296C226.127 213.798 225.963 203.311 226.004 192.809C226.007 191.801 226.011 190.793 226.015 189.755C226.035 184.822 226.071 179.889 226.125 174.956C226.137 173.132 226.149 171.308 226.16 169.484C226.174 168.672 226.187 167.86 226.201 167.023C226.226 161.149 225.331 155.715 224 150C223.67 150.99 223.34 151.98 223 153C222.34 153 221.68 153 221 153C220.34 147.72 219.68 142.44 219 137Z" fill="#E39E7B"/>
<path d="M218 157C218.66 157.33 219.32 157.66 220 158C221.891 167.577 222.91 180.777 219 190C217.68 190.99 216.36 191.98 215 193C215 181.45 215 169.9 215 158C215.99 157.67 216.98 157.34 218 157Z" fill="#B23606"/>
<path d="M191 23C191.495 23.99 191.495 23.99 192 25C188.212 27.5256 185.215 27.2539 180.832 27.1953C179.64 27.1911 179.64 27.1911 178.424 27.1867C175.886 27.1755 173.35 27.1504 170.812 27.125C169.092 27.115 167.371 27.1058 165.65 27.0977C161.433 27.0756 157.217 27.0411 153 27C153 28.65 153 30.3 153 32C152.67 32 152.34 32 152 32C152 30.02 152 28.04 152 26C162.705 19.5204 179.085 20.9805 191 23Z" fill="#FBAC70"/>
<path d="M215 103C217.31 103 219.62 103 222 103C222 106.3 222 109.6 222 113C221.34 113 220.68 113 220 113C220.66 113.33 221.32 113.66 222 114C222.286 122.571 222.286 122.571 220 126C220.66 126 221.32 126 222 126C222 126.99 222 127.98 222 129C219.69 129.33 217.38 129.66 215 130C215 121.09 215 112.18 215 103Z" fill="#65615F"/>
<path d="M206 140C206.33 140 206.66 140 207 140C207.006 140.843 207.006 140.843 207.013 141.704C207.116 155.392 207.225 169.08 207.339 182.768C207.395 189.387 207.448 196.006 207.497 202.626C207.545 209.012 207.597 215.399 207.653 221.786C207.673 224.224 207.692 226.662 207.709 229.1C207.733 232.511 207.763 235.923 207.795 239.335C207.8 240.345 207.806 241.356 207.812 242.397C207.822 243.33 207.832 244.262 207.842 245.223C207.848 246.029 207.855 246.836 207.861 247.667C207.941 250.056 207.941 250.056 208.568 252.56C209.185 256.044 208.102 258.694 207 262C204.03 262.495 204.03 262.495 201 263C201.649 261.916 202.297 260.833 202.966 259.717C205.62 254.371 205.574 249.412 205.546 243.535C205.556 242.412 205.567 241.289 205.577 240.133C205.607 236.442 205.608 232.753 205.609 229.062C205.624 226.496 205.641 223.929 205.659 221.362C205.699 215.309 205.72 209.257 205.733 203.205C205.749 196.31 205.788 189.415 205.828 182.52C205.91 168.347 205.964 154.174 206 140Z" fill="#B33C17"/>
<path d="M224 258C228.75 258.75 228.75 258.75 231 261C231.739 266.006 231.739 266.006 231 269C228.58 272.082 225.691 273.679 221.859 274.406C218.967 274.535 216.622 274.341 214.062 272.938C212.488 270.067 212.304 267.225 212 264C213.546 266.319 214.796 268.506 216 271C217.98 271 219.96 271 222 271C222.502 268.169 222.502 268.169 222 265C219.077 262.718 219.077 262.718 216 261C216 260.34 216 259.68 216 259C221.75 258.875 221.75 258.875 224 260C224 259.34 224 258.68 224 258Z" fill="#483E39"/>
<path d="M93 249C93.66 249.66 94.32 250.32 95 251C96.9356 251.129 96.9356 251.129 99.1875 250.938C105.607 250.818 111.55 252.148 117.793 253.529C120.24 254.051 122.694 254.52 125.152 254.984C126.893 255.323 128.634 255.661 130.375 256C131.214 256.154 132.053 256.307 132.918 256.466C134.968 256.876 136.989 257.427 139 258C139.495 259.485 139.495 259.485 140 261C130.916 260.203 122.053 258.312 113.127 256.509C111.07 256.094 109.012 255.686 106.953 255.277C105.738 255.032 104.523 254.787 103.271 254.535C100.416 254.068 97.8794 253.898 95 254C91.4828 254 90.6288 253.176 88 251C89.65 250.34 91.3 249.68 93 249Z" fill="#E6895B"/>
<path d="M204 80C209.75 81.625 209.75 81.625 212 85C213.457 92.5781 213.09 100.315 213 108C212.34 108 211.68 108 211 108C211 108.66 211 109.32 211 110C210.01 110 209.02 110 208 110C207.985 109.447 207.971 108.893 207.956 108.323C207.734 93.8597 207.734 93.8597 204 80Z" fill="#B6401A"/>
<path d="M79 76C79.66 76.33 80.32 76.66 81 77C82.5721 77.1184 84.1488 77.177 85.7251 77.2053C86.706 77.2253 87.6868 77.2452 88.6974 77.2658C89.7589 77.2825 90.8204 77.2992 91.9141 77.3164C93.5412 77.3476 93.5412 77.3476 95.2013 77.3794C98.6758 77.4449 102.15 77.5038 105.625 77.5625C107.977 77.6057 110.328 77.6493 112.68 77.6934C118.453 77.8006 124.226 77.9024 130 78C130 78.33 130 78.66 130 79C113.5 79 97 79 80 79C80 79.66 80 80.32 80 81C81.1434 81.0606 82.2868 81.1212 83.4648 81.1836C84.9557 81.268 86.4466 81.3526 87.9375 81.4375C89.0696 81.4965 89.0696 81.4965 90.2246 81.5566C95.8867 81.8867 95.8867 81.8867 97 83C99.8588 83.237 102.699 83.4222 105.562 83.5625C106.772 83.6273 106.772 83.6273 108.006 83.6934C110.004 83.7998 112.002 83.9004 114 84C114 84.33 114 84.66 114 85C109.516 85.0495 105.032 85.0858 100.548 85.1099C99.0231 85.1199 97.4983 85.1335 95.9736 85.1509C93.7792 85.1752 91.5851 85.1865 89.3906 85.1953C87.4111 85.211 87.4111 85.211 85.3916 85.2271C82.2542 85.017 80.5509 84.7735 78 83C77.67 82.34 77.34 81.68 77 81C75.68 81.99 74.36 82.98 73 84C74.4425 80.6341 76.3326 78.4895 79 76Z" fill="#FDBB77"/>
<path d="M96 85C117.079 84.6492 137.973 85.6578 159 87C158.67 87.99 158.34 88.98 158 90C156.542 90.027 155.083 90.0464 153.625 90.0625C152.813 90.0741 152.001 90.0857 151.164 90.0977C149 90 149 90 147 89C144.98 88.9525 142.958 88.9629 140.938 89C134.661 89.0515 128.467 88.7726 122.206 88.3555C116.966 88.02 111.768 87.9425 106.516 88.0625C102.238 87.9562 99.5898 87.3932 96 85Z" fill="#FC8F1D"/>
<path d="M201 221C201.33 221 201.66 221 202 221C203.48 227.378 203.264 233.797 203.312 240.312C203.342 241.606 203.371 242.9 203.4 244.232C203.455 252.408 203.101 258.33 197.52 264.686C195.318 266.59 193.666 266.299 190.812 266.188C189.911 266.16 189.01 266.133 188.082 266.105C187.395 266.071 186.708 266.036 186 266C186 265.34 186 264.68 186 264C187.423 263.66 187.423 263.66 188.875 263.312C192.193 262.309 192.193 262.309 193.375 259.375C193.684 258.199 193.684 258.199 194 257C195.98 257 197.96 257 200 257C200.33 245.12 200.66 233.24 201 221Z" fill="#B83C08"/>
<path d="M212 256C214.625 255.812 214.625 255.812 217 256C217 256.66 217 257.32 217 258C221.455 257.505 221.455 257.505 226 257C225.01 257.495 225.01 257.495 224 258C224 258.66 224 259.32 224 260C221.36 259.67 218.72 259.34 216 259C216 259.66 216 260.32 216 261C216.784 261.289 217.568 261.577 218.375 261.875C221 263 221 263 223 265C223.188 268.062 223.188 268.062 223 271C222 272 222 272 219.125 272.375C216 272 216 272 214.312 270C213.879 269.01 213.446 268.02 213 267C212.698 266.337 212.397 265.675 212.086 264.992C210.372 260.953 210.372 260.953 210 259C210.66 258.01 211.32 257.02 212 256Z" fill="#842104"/>
<path d="M189 75C189.619 75.1856 190.238 75.3713 190.875 75.5625C193.042 76.2369 193.042 76.2369 195 75C204.516 74.3429 212.926 74.6172 221 80C221 80.66 221 81.32 221 82C217.7 82 214.4 82 211 82C210.67 82.66 210.34 83.32 210 84C209.776 83.3761 209.551 82.7522 209.32 82.1094C207.547 79.2767 206.063 79.0674 202.875 78.25C201.965 78.0077 201.055 77.7653 200.117 77.5156C199.069 77.2604 199.069 77.2604 198 77C198 77.99 198 78.98 198 80C197.429 79.8415 196.859 79.6831 196.271 79.5198C194.028 79.0064 191.967 78.7983 189.672 78.6836C188.473 78.6208 188.473 78.6208 187.25 78.5566C186.012 78.4977 186.012 78.4977 184.75 78.4375C183.91 78.3943 183.069 78.3511 182.203 78.3066C180.136 78.2009 178.068 78.1 176 78C176 77.67 176 77.34 176 77C180.29 77 184.58 77 189 77C189 76.34 189 75.68 189 75Z" fill="#F08B3A"/>
<path d="M86.375 252.75C87.3521 252.724 88.3292 252.698 89.3359 252.672C92 253 92 253 93.8164 254.27C95.5011 256.733 95.5894 259.126 95.4922 262.055C95 264 95 264 92.1875 266.562C89 268 89 268 86 267C86.0413 265.762 86.0825 264.525 86.125 263.25C86.1136 260.018 86.0937 257.617 84 255C81.95 254.195 81.95 254.195 80 254C81.7322 252.268 84.0203 252.787 86.375 252.75Z" fill="#181310"/>
<path d="M168.312 70.5C169.643 71.2425 169.643 71.2425 171 72C171 72.99 171 73.98 171 75C171.66 75.66 172.32 76.32 173 77C165.521 76.1127 165.521 76.1127 162.688 75.5C159.357 74.8804 156.067 74.6586 152.688 74.4375C151.433 74.3537 150.179 74.2699 148.887 74.1836C147.458 74.0927 147.458 74.0927 146 74C146 73.01 146 72.02 146 71C152.743 67.8541 161.414 67.5234 168.312 70.5Z" fill="#EBC09D"/>
<path d="M205 118C205.99 118 206.98 118 208 118C207.902 119.775 207.902 119.775 207.801 121.586C206.917 138.574 206.688 155.564 206.468 172.569C206.417 176.465 206.361 180.362 206.307 184.258C206.201 191.838 206.099 199.419 206 207C205.67 207 205.34 207 205 207C205 177.63 205 148.26 205 118Z" fill="#E78448"/>
<path d="M154 37C155.32 37 156.64 37 158 37C158 46.57 158 56.14 158 66C156.68 66 155.36 66 154 66C154 56.43 154 46.86 154 37Z" fill="#D4D5D8"/>
<path d="M153 27C164.88 27 176.76 27 189 27C189 27.66 189 28.32 189 29C187.676 29.083 187.676 29.083 186.325 29.1677C183.036 29.3756 179.747 29.5866 176.457 29.7996C175.036 29.8909 173.616 29.9811 172.195 30.0701C170.146 30.1985 168.099 30.3313 166.051 30.4648C164.205 30.5827 164.205 30.5827 162.322 30.7029C159.472 30.9578 156.786 31.3687 154 32C154 32.99 154 33.98 154 35C154.99 35 155.98 35 157 35C157 35.66 157 36.32 157 37C155.68 37 154.36 37 153 37C153 33.7 153 30.4 153 27Z" fill="#F98D3C"/>
<path d="M202 87C205.375 91.5 205.375 91.5 205.293 95.7656C205.283 96.6551 205.274 97.5445 205.264 98.4609C205.239 99.3813 205.213 100.302 205.187 101.25C205.174 102.186 205.16 103.122 205.146 104.086C205.111 106.391 205.062 108.695 205 111C203.68 110.01 202.36 109.02 201 108C201.485 112.646 201.485 112.646 203 117C202.67 117.99 202.34 118.98 202 120C201.01 120 200.02 120 199 120C198.34 121.32 197.68 122.64 197 124C196.973 121.187 196.953 118.375 196.937 115.562C196.929 114.76 196.921 113.958 196.912 113.131C196.903 111.087 196.948 109.043 197 107C197.33 106.67 197.66 106.34 198 106C199.65 106 201.3 106 203 106C202.67 99.73 202.34 93.46 202 87Z" fill="#74311B"/>
<path d="M76 255C76.6059 255.156 77.2117 255.312 77.8359 255.473C80.0647 256.044 80.0647 256.044 82.625 256.438C85 257 85 257 87 259C87.2699 261.688 87.0874 264.291 87 267C88.32 267.33 89.64 267.66 91 268C90 269 90 269 86.1875 269.312C83.3319 269.246 82.1502 269.087 79.625 267.625C77.1909 263.693 76.6572 259.532 76 255Z" fill="#B88767"/>
<path d="M223 155C229.838 165.257 225.923 182.515 223.656 193.879C223.44 194.909 223.223 195.939 223 197C221.515 197.495 221.515 197.495 220 198C220.143 196.604 220.29 195.208 220.438 193.812C220.519 193.035 220.6 192.258 220.684 191.457C221 189 221 189 221.516 186.71C222.035 183.801 222.097 181.137 222.062 178.184C222.055 177.09 222.047 175.996 222.039 174.869C222.026 173.737 222.013 172.604 222 171.438C221.974 169.186 221.953 166.935 221.938 164.684C221.926 163.689 221.914 162.694 221.902 161.67C221.99 159.271 222.31 157.288 223 155Z" fill="#D5723F"/>
<path d="M129 70C131.64 70 134.28 70 137 70C136.67 70.99 136.34 71.98 136 73C134.02 73.33 132.04 73.66 130 74C130 74.33 130 74.66 130 75C114.49 75 98.98 75 83 75C83 74.67 83 74.34 83 74C84.0712 73.9394 85.1424 73.8788 86.2461 73.8164C87.6432 73.732 89.0404 73.6474 90.4375 73.5625C91.4981 73.5035 91.4981 73.5035 92.5801 73.4434C96.0869 73.5238 96.0869 73.5238 99 72C101.219 71.9122 103.44 71.8931 105.66 71.9023C106.657 71.9045 106.657 71.9045 107.674 71.9066C109.803 71.9122 111.933 71.9248 114.062 71.9375C115.503 71.9425 116.944 71.9471 118.385 71.9512C121.923 71.9622 125.462 71.9795 129 72C129 71.34 129 70.68 129 70Z" fill="#F8BE84"/>
<path d="M77 80C77.66 80.99 78.32 81.98 79 83C82.0078 84.0026 84.5382 84.3031 87.6875 84.5625C88.6813 84.6463 89.6752 84.7301 90.6992 84.8164C91.8381 84.9073 91.8381 84.9073 93 85C92.67 85.66 92.34 86.32 92 87C88.1801 87.7781 85.7316 88.2439 82 87C78.5737 88.0279 76.1564 89.1248 74 92C73.4528 95.1858 73.4528 95.1858 73.375 98.75C73.1304 103.571 72.793 108.242 72 113C71.67 113 71.34 113 71 113C70.7034 87.0308 70.7034 87.0308 73.1797 83.1523C74.5625 81.75 74.5625 81.75 77 80Z" fill="#F78A20"/>
<path d="M203 199C203.33 199 203.66 199 204 199C204.33 214.51 204.66 230.02 205 246C205.33 246 205.66 246 206 246C206.551 252.749 205.603 256.305 202 262C202.33 262.66 202.66 263.32 203 264C200.03 264.495 200.03 264.495 197 265C197.529 264.147 197.529 264.147 198.069 263.277C202.167 256.036 202.735 249.993 202.707 241.773C202.722 240.545 202.737 239.316 202.753 238.05C202.796 234.158 202.805 230.267 202.812 226.375C202.836 223.723 202.861 221.07 202.889 218.418C202.951 211.945 202.986 205.473 203 199Z" fill="#D9621B"/>
<path d="M97 83C110.929 82.8542 124.777 83.2978 138.688 84C140.673 84.0968 142.658 84.1931 144.643 84.2891C149.429 84.5212 154.214 84.759 159 85C159 85.66 159 86.32 159 87C145.418 87.2478 131.982 86.468 118.438 85.5C116.347 85.3549 114.257 85.2104 112.166 85.0664C107.11 84.717 102.055 84.3605 97 84C97 83.67 97 83.34 97 83Z" fill="#FDC99D"/>
<path d="M212 198C212.33 198 212.66 198 213 198C213.33 215.49 213.66 232.98 214 251C218.455 250.505 218.455 250.505 223 250C223 252.64 223 255.28 223 258C222.34 258 221.68 258 221 258C221 256.02 221 254.04 221 252C218.69 252 216.38 252 214 252C214 252.66 214 253.32 214 254C213.34 254 212.68 254 212 254C212 235.52 212 217.04 212 198Z" fill="#E2661F"/>
<path d="M182 262C182.125 268.75 182.125 268.75 181 271C181.99 271 182.98 271 184 271C184 271.66 184 272.32 184 273C181.03 272.67 178.06 272.34 175 272C175.33 272.99 175.66 273.98 176 275C174.68 275 173.36 275 172 275C172.165 274.402 172.33 273.804 172.5 273.188C173.111 270.887 173.111 270.887 173 268C173 266.333 173 264.667 173 263C180.875 262 180.875 262 182 262Z" fill="#BD4C15"/>
<path d="M202 80C205.561 83.0863 206.86 85.4398 208 90C208.23 93.4634 208.189 96.906 208.125 100.375C208.116 101.302 208.107 102.229 208.098 103.184C208.074 105.456 208.041 107.728 208 110C208.66 110.33 209.32 110.66 210 111C208.35 111 206.7 111 205 111C204.927 109.026 204.927 109.026 204.852 107.012C204.293 93.4063 204.293 93.4063 202 80Z" fill="#D57845"/>
<path d="M183.832 85.2187C184.547 85.4766 185.263 85.7344 186 86C186 86.99 186 87.98 186 89C184.632 89.8893 183.259 90.7713 181.863 91.6172C178.644 94.0063 176.216 97.1255 173.637 100.172C173.097 100.775 172.556 101.378 172 102C171.67 102 171.34 102 171 102C170.607 97.7627 170.549 95.651 173.012 92.0937C173.895 91.2378 174.778 90.3819 175.687 89.5C176.558 88.6234 177.428 87.7469 178.324 86.8437C181 85 181 85 183.832 85.2187Z" fill="#DD5801"/>
<path d="M80 79C84.62 79 89.24 79 94 79C94 79.66 94 80.32 94 81C94.751 81.0251 95.5019 81.0501 96.2756 81.0759C99.7047 81.1925 103.134 81.315 106.562 81.4375C108.335 81.4965 108.335 81.4965 110.143 81.5566C115.83 81.7638 121.39 82.0197 127 83C127 83.33 127 83.66 127 84C122.841 83.8796 118.683 83.7553 114.524 83.6277C113.117 83.585 111.709 83.5433 110.301 83.5027C83.452 82.726 83.452 82.726 80 81C80 80.34 80 79.68 80 79Z" fill="#FDD5AF"/>
<path d="M184 270C186.438 270.375 186.438 270.375 189 271C190.26 273.521 189.919 274.854 189.562 277.625C189.461 278.442 189.359 279.26 189.254 280.102C189.17 280.728 189.086 281.355 189 282C188.711 281.381 188.422 280.762 188.125 280.125C187.063 277.867 187.063 277.867 185 276C184.34 277.32 183.68 278.64 183 280C182.608 279.381 182.216 278.762 181.812 278.125C179.723 275.675 178.025 274.981 175 274C175 273.34 175 272.68 175 272C181.75 271.875 181.75 271.875 184 273C184 272.01 184 271.02 184 270Z" fill="#4C3227"/>
<path d="M218 157C218.99 157.495 218.99 157.495 220 158C222.077 168.519 221.729 179.645 219 190C218.67 190 218.34 190 218 190C218 179.11 218 168.22 218 157Z" fill="#C26D51"/>
<path d="M149.188 73.375C150.159 73.4188 151.13 73.4627 152.131 73.5078C156.53 73.7249 160.688 74.0572 165 75C165 75.33 165 75.66 165 76C152.13 76 139.26 76 126 76C133.475 72.2624 141.038 72.9371 149.188 73.375Z" fill="#F8B46E"/>
<path d="M215 104C215.99 104 216.98 104 218 104C218.196 107.958 218.381 111.916 218.562 115.875C218.619 117.003 218.675 118.131 218.732 119.293C218.781 120.369 218.829 121.446 218.879 122.555C218.926 123.55 218.973 124.545 219.022 125.57C219 128 219 128 218 130C217.01 130 216.02 130 215 130C215 121.42 215 112.84 215 104Z" fill="#3D2E25"/>
<path d="M120 248C128.58 248.736 137.152 249.792 145.59 251.535C148.749 252.144 151.905 252.372 155.109 252.621C155.733 252.746 156.357 252.871 157 253C157.495 253.99 157.495 253.99 158 255C147.802 255.619 138.002 253.741 128 252C128 251.34 128 250.68 128 250C125.36 249.67 122.72 249.34 120 249C120 248.67 120 248.34 120 248Z" fill="#E36B23"/>
<path d="M79 76C79.66 76.33 80.32 76.66 81 77C82.5721 77.1184 84.1488 77.177 85.7251 77.2053C86.706 77.2253 87.6868 77.2452 88.6974 77.2658C89.7589 77.2825 90.8204 77.2992 91.9141 77.3164C93.5412 77.3476 93.5412 77.3476 95.2013 77.3794C98.6758 77.4449 102.15 77.5038 105.625 77.5625C107.977 77.6057 110.328 77.6493 112.68 77.6934C118.453 77.8006 124.226 77.9024 130 78C130 78.33 130 78.66 130 79C113.17 79 96.34 79 79 79C78.67 80.32 78.34 81.64 78 83C77.67 82.34 77.34 81.68 77 81C75.68 81.99 74.36 82.98 73 84C74.4425 80.6341 76.3326 78.4895 79 76Z" fill="#FAB96A"/>
<path d="M213 119C213.66 119 214.32 119 215 119C215 124.94 215 130.88 215 137C216.32 137.33 217.64 137.66 219 138C217.68 138 216.36 138 215 138C215.023 138.843 215.046 139.686 215.07 140.555C215.088 141.65 215.106 142.746 215.125 143.875C215.148 144.966 215.171 146.056 215.195 147.18C215 150 215 150 213 152C213 141.11 213 130.22 213 119Z" fill="#E97A36"/>
<path d="M199 120C200.667 120 202.333 120 204 120C204.365 127.304 204.365 127.304 202.687 130.5C201 132 201 132 198 132C196.61 129.22 196.815 127.081 197 124C198 121.625 198 121.625 199 120Z" fill="#5D4A41"/>
<path d="M197 76C199.845 76.6601 202.523 77.5172 205.25 78.5625C205.956 78.8319 206.663 79.1013 207.391 79.3789C207.922 79.5839 208.453 79.7888 209 80C206 81 206 81 203 81C203.33 83.64 203.66 86.28 204 89C203.01 88.67 202.02 88.34 201 88C200.704 87.3348 200.407 86.6697 200.102 85.9844C199.738 85.3295 199.375 84.6747 199 84C196.815 83.3006 196.815 83.3006 194.375 83.25C193.149 83.1649 193.149 83.1649 191.898 83.0781C191.272 83.0523 190.645 83.0266 190 83C190 82.67 190 82.34 190 82C193.465 81.505 193.465 81.505 197 81C196.34 80.34 195.68 79.68 195 79C195.99 78.67 196.98 78.34 198 78C197.67 77.34 197.34 76.68 197 76Z" fill="#E26619"/>
<path d="M168 78C172.62 78 177.24 78 182 78C181.072 79.0725 180.144 80.145 179.188 81.25C177.444 83.2729 175.809 85.2659 174.25 87.4375C173.838 87.9531 173.425 88.4688 173 89C172.34 89 171.68 89 171 89C171.66 86.36 172.32 83.72 173 81C170.03 80.505 170.03 80.505 167 80C167.33 79.34 167.66 78.68 168 78Z" fill="#FB8818"/>
<path d="M71 227C71.33 227 71.66 227 72 227C72.0489 227.687 72.0979 228.374 72.1484 229.082C72.2232 229.983 72.2979 230.884 72.375 231.812C72.4446 232.706 72.5142 233.599 72.5859 234.52C72.8664 237.244 72.8664 237.244 75 240C77.5518 241.205 77.5518 241.205 80 242C78.68 242.33 77.36 242.66 76 243C76.9693 243.268 77.9387 243.536 78.9375 243.812C79.9481 244.204 80.9587 244.596 82 245C82.33 245.99 82.66 246.98 83 248C78.25 247.125 78.25 247.125 76 246C76.33 247.32 76.66 248.64 77 250C76.34 250.33 75.68 250.66 75 251C74.795 250.374 74.59 249.747 74.3789 249.102C73.9747 247.876 73.9747 247.876 73.5625 246.625C73.2956 245.813 73.0288 245.001 72.7539 244.164C72.0482 241.99 72.0482 241.99 71 240C70.929 237.793 70.9158 235.583 70.9375 233.375C70.9465 232.186 70.9555 230.998 70.9648 229.773C70.9764 228.858 70.988 227.943 71 227Z" fill="#E7834F"/>
<path d="M151 69C150.01 69.66 149.02 70.32 148 71C148.66 71.66 149.32 72.32 150 73C138.693 74.3359 127.366 74.0986 116 74C116 73.67 116 73.34 116 73C120.62 72.67 125.24 72.34 130 72C130 71.67 130 71.34 130 71C130.987 70.9394 131.975 70.8788 132.992 70.8164C134.274 70.7326 135.555 70.6488 136.875 70.5625C138.151 70.4813 139.427 70.4001 140.742 70.3164C144.458 69.9555 147.179 68.8995 151 69Z" fill="#F7A258"/>
<path d="M216 190C217.485 190.99 217.485 190.99 219 192C220.025 198.149 219.428 203.716 216 209C215.67 209 215.34 209 215 209C214.973 206.396 214.953 203.792 214.937 201.188C214.929 200.45 214.921 199.712 214.912 198.951C214.897 195.701 214.965 193.106 216 190Z" fill="#8D2003"/>
<path d="M171 68C171 68.33 171 68.66 171 69C170.431 68.9895 169.862 68.9791 169.275 68.9683C166.663 68.9263 164.05 68.9006 161.438 68.875C160.542 68.8582 159.647 68.8415 158.725 68.8242C153.362 68.7849 149.096 69.3715 144 71C141.062 70.625 141.062 70.625 139 70C148.899 64.2255 160.36 65.2091 171 68Z" fill="#FBB87E"/>
<path d="M211 248C211.33 248 211.66 248 212 248C212 249.98 212 251.96 212 254C212.66 254 213.32 254 214 254C214 253.34 214 252.68 214 252C216.31 252 218.62 252 221 252C221 253.98 221 255.96 221 258C219.68 258 218.36 258 217 258C217 257.34 217 256.68 217 256C215.35 256 213.7 256 212 256C211.34 257.32 210.68 258.64 210 260C208.901 256.703 209.129 255.595 209.937 252.312C210.132 251.504 210.327 250.696 210.527 249.863C210.683 249.248 210.839 248.634 211 248Z" fill="#DA560D"/>
<path d="M158 70C159.416 69.9455 160.833 69.907 162.25 69.875C163.039 69.8518 163.828 69.8286 164.641 69.8047C167.207 70.0172 168.792 70.7135 171 72C171 72.99 171 73.98 171 75C171.66 75.66 172.32 76.32 173 77C160.519 75.5192 160.519 75.5192 158 73C158 72.01 158 71.02 158 70Z" fill="#F6CDA7"/>
<path d="M76 250C79.96 250 83.92 250 88 250C88 250.66 88 251.32 88 252C88.99 252.33 89.98 252.66 91 253C87.7 253.33 84.4 253.66 81 254C81.99 254.66 82.98 255.32 84 256C81.125 256.625 81.125 256.625 78 257C77.34 256.34 76.68 255.68 76 255C76 253.35 76 251.7 76 250Z" fill="#B24E1C"/>
<path d="M189 27C189 27.66 189 28.32 189 29C187.676 29.083 187.676 29.083 186.325 29.1677C183.036 29.3756 179.747 29.5866 176.457 29.7996C175.036 29.8909 173.616 29.9811 172.195 30.0701C170.146 30.1985 168.099 30.3313 166.051 30.4648C164.205 30.5827 164.205 30.5827 162.322 30.7029C159.472 30.9578 156.786 31.3687 154 32C155 30 155 30 158 29C160.793 28.604 163.573 28.2488 166.375 27.9375C167.173 27.8481 167.972 27.7586 168.794 27.6665C175.557 26.956 182.199 26.7837 189 27Z" fill="#F6812C"/>
<path d="M211 109C212.32 109 213.64 109 215 109C215.33 112.3 215.66 115.6 216 119C212.7 118.67 209.4 118.34 206 118C207.32 117.34 208.64 116.68 210 116C210.66 115.01 211.32 114.02 212 113C209.03 112.505 209.03 112.505 206 112C206.639 111.691 207.279 111.381 207.938 111.062C209.936 110.165 209.936 110.165 211 109Z" fill="#D7CFCB"/>
<path d="M171 81C171 82.65 171 84.3 171 86C170.34 86 169.68 86 169 86C169 86.66 169 87.32 169 88C166.69 88 164.38 88 162 88C161.812 85.625 161.812 85.625 162 83C165.435 80.7099 166.985 80.8216 171 81Z" fill="#FBDCC5"/>
<path d="M130 86C139.706 85.8317 149.322 86.3578 159 87C158.67 87.99 158.34 88.98 158 90C156.542 90.027 155.083 90.0464 153.625 90.0625C152.813 90.0741 152.001 90.0857 151.164 90.0977C149 90 149 90 147 89C145.437 88.98 143.874 89.0075 142.312 89.0625C137.779 89.1217 134.267 88.4841 130 87C130 86.67 130 86.34 130 86Z" fill="#F9912E"/>
<path d="M225 167C225.33 167 225.66 167 226 167C226.487 177.38 225.04 186.862 223 197C222.01 197.33 221.02 197.66 220 198C220.964 188.59 220.964 188.59 222 184C222.33 184 222.66 184 223 184C223.66 178.39 224.32 172.78 225 167Z" fill="#CE5E2C"/>
<path d="M219 264C220.32 264.33 221.64 264.66 223 265C223.043 267 223.041 269 223 271C222 272 222 272 219.062 272.25C218.052 272.167 217.041 272.085 216 272C215.34 271.01 214.68 270.02 214 269C214.66 269 215.32 269 216 269C216 268.01 216 267.02 216 266C216.99 266 217.98 266 219 266C219 265.34 219 264.68 219 264Z" fill="#8E2C06"/>
<path d="M93 249C93.66 249.66 94.32 250.32 95 251C97.2731 251.167 97.2731 251.167 99.8125 251C103.698 250.91 106.497 251.132 110 253C109.34 253.66 108.68 254.32 108 255C105.066 254.977 105.066 254.977 101.562 254.625C96.7887 254.158 96.7887 254.158 92 254C89.8125 252.5 89.8125 252.5 88 251C89.65 250.34 91.3 249.68 93 249Z" fill="#E69066"/>
<path d="M194 257C195.98 257 197.96 257 200 257C198.478 259.629 197.156 261.844 195 264C195.33 264.66 195.66 265.32 196 266C192.7 266 189.4 266 186 266C186 265.34 186 264.68 186 264C186.949 263.773 187.898 263.546 188.875 263.312C192.193 262.309 192.193 262.309 193.375 259.375C193.581 258.591 193.787 257.808 194 257Z" fill="#D7540D"/>
<path d="M85 257C86 258 86 258 86.0977 259.848C86.0488 262.924 86.0488 262.924 86 266C84.68 266.33 83.36 266.66 82 267C82 266.01 82 265.02 82 264C82.66 264 83.32 264 84 264C84 262.68 84 261.36 84 260C82.02 260.33 80.04 260.66 78 261C78 259.68 78 258.36 78 257C80.6837 255.658 82.1528 256.27 85 257Z" fill="#E77C32"/>
<path d="M205 118C205.99 118 206.98 118 208 118C207.67 125.26 207.34 132.52 207 140C204.898 136.847 204.757 136.139 204.805 132.551C204.811 131.703 204.818 130.856 204.824 129.982C204.841 129.101 204.858 128.22 204.875 127.312C204.884 126.42 204.893 125.527 204.902 124.607C204.926 122.405 204.959 120.202 205 118Z" fill="#D6713B"/>
<path d="M177 275C179.935 275.367 180.864 275.864 183 278C183.125 281.625 183.125 281.625 183 285C181.02 285.99 181.02 285.99 179 287C178.67 286.01 178.34 285.02 178 284C178.66 284 179.32 284 180 284C179.67 282.02 179.34 280.04 179 278C177.68 277.67 176.36 277.34 175 277C175.66 276.34 176.32 275.68 177 275Z" fill="#E06D26"/>
<path d="M141 259C146.915 259.452 152.352 260.158 158 262C154.717 264.189 154.292 264.207 150.625 263.688C149.835 263.579 149.045 263.471 148.23 263.359C145.805 262.969 143.397 262.541 141 262C141 261.01 141 260.02 141 259Z" fill="#E5814D"/>
<path d="M216 139C216.33 139 216.66 139 217 139C217.33 141.31 217.66 143.62 218 146C218.66 146 219.32 146 220 146C220.33 148.64 220.66 151.28 221 154C219.35 154.33 217.7 154.66 216 155C216 149.72 216 144.44 216 139Z" fill="#881E03"/>
<path d="M208 90C211.369 94.4924 211.37 96.9505 211.188 102.25C211.167 103.368 211.167 103.368 211.146 104.508C211.111 106.339 211.057 108.17 211 110C210.01 110 209.02 110 208 110C208 103.4 208 96.8 208 90Z" fill="#90371E"/>
<path d="M216 259C217.98 259 219.96 259 222 259C224.417 263.229 225.348 266.123 225 271C223.02 271.99 223.02 271.99 221 273C221.33 272.34 221.66 271.68 222 271C222.584 268.085 222.584 268.085 222 265C219.077 262.718 219.077 262.718 216 261C216 260.34 216 259.68 216 259Z" fill="#221611"/>
<path d="M204 80C207 81 207 81 208.676 83.5391C210.268 87.6995 210.342 90.9802 210.188 95.375C210.174 96.1111 210.16 96.8471 210.146 97.6055C210.111 99.404 210.058 101.202 210 103C209.67 103 209.34 103 209 103C209 98.71 209 94.42 209 90C208.34 90 207.68 90 207 90C206.01 86.7 205.02 83.4 204 80Z" fill="#A24C2D"/>
<path d="M151 68C171.214 67.4757 171.214 67.4757 178 72C174.481 73.1729 173.569 72.7389 170.125 71.625C163.79 69.7678 157.571 69.303 151 69C151 68.67 151 68.34 151 68Z" fill="#F29853"/>
<path d="M212 256C214.625 255.812 214.625 255.812 217 256C217 256.66 217 257.32 217 258C221.455 257.505 221.455 257.505 226 257C225.01 257.495 225.01 257.495 224 258C224 258.66 224 259.32 224 260C221.36 259.67 218.72 259.34 216 259C215.67 259.99 215.34 260.98 215 262C214.01 261.34 213.02 260.68 212 260C211.67 260.99 211.34 261.98 211 263C210.375 261.188 210.375 261.188 210 259C210.66 258.01 211.32 257.02 212 256Z" fill="#973814"/>
<path d="M222 103C222.33 103 222.66 103 223 103C223 111.25 223 119.5 223 128C222.67 127.34 222.34 126.68 222 126C221.34 126 220.68 126 220 126C220.667 123.333 221.333 120.667 222 118C221.01 117.67 220.02 117.34 219 117C219.99 117 220.98 117 222 117C222 116.01 222 115.02 222 114C221.01 113.67 220.02 113.34 219 113C219.66 112.67 220.32 112.34 221 112C221.467 109.874 221.467 109.874 221.625 107.438C221.7 106.611 221.775 105.785 221.852 104.934C221.901 104.296 221.95 103.657 222 103Z" fill="#AC8077"/>
<path d="M215 145C215.33 145 215.66 145 216 145C216 148.3 216 151.6 216 155C217.65 154.67 219.3 154.34 221 154C221 156.31 221 158.62 221 161C220.01 160.01 219.02 159.02 218 158C217.67 160.31 217.34 162.62 217 165C216.67 165 216.34 165 216 165C214.762 158.344 214.909 151.753 215 145Z" fill="#9F2D05"/>
<path d="M77 80C77.66 80.99 78.32 81.98 79 83C79.99 83.66 80.98 84.32 82 85C79.69 85.66 77.38 86.32 75 87C75 87.66 75 88.32 75 89C74.01 89 73.02 89 72 89C72.4793 84.6861 73.7458 82.8343 77 80Z" fill="#FD9E2F"/>
<path d="M184.188 22.4375C186.096 22.5903 186.096 22.5903 188.043 22.7461C189.019 22.8299 189.995 22.9137 191 23C189 25 189 25 185.305 25.1953C183.828 25.182 182.351 25.1581 180.875 25.125C180.121 25.116 179.367 25.107 178.59 25.0977C176.726 25.0741 174.863 25.0382 173 25C175.184 20.6315 180.028 22.094 184.188 22.4375Z" fill="#FAC091"/>
<path d="M180 280C179.67 282.31 179.34 284.62 179 287C176.007 285.902 175.154 285.323 173.75 282.375C173.502 281.591 173.255 280.807 173 280C176.133 278.955 176.99 279.066 180 280Z" fill="#CF8255"/>
<path d="M171 81C171.66 81 172.32 81 173 81C173.362 85.2225 172.664 87.6695 170 91C168.68 91 167.36 91 166 91C166 90.34 166 89.68 166 89C164.35 89 162.7 89 161 89C161.33 87.68 161.66 86.36 162 85C162 85.99 162 86.98 162 88C164.31 88 166.62 88 169 88C169 87.34 169 86.68 169 86C169.66 86 170.32 86 171 86C171 84.35 171 82.7 171 81Z" fill="#F8AF7B"/>
<path d="M81 253C83.25 253.438 83.25 253.438 86 255C88.2115 258.783 89.6186 262.856 91 267C89.35 267.33 87.7 267.66 86 268C86.0232 267.397 86.0464 266.793 86.0703 266.172C86.0884 265.373 86.1064 264.573 86.125 263.75C86.1482 262.961 86.1714 262.172 86.1953 261.359C85.9795 258.753 85.4094 257.192 84 255C81.95 254.195 81.95 254.195 80 254C80.33 253.67 80.66 253.34 81 253Z" fill="#342923"/>
<path d="M183 280C184.746 282.619 185.387 284.038 186 287C182.882 288.848 180.619 289.543 177 289C174.688 287 174.688 287 173 285C173.33 284.01 173.66 283.02 174 282C174.99 283.32 175.98 284.64 177 286C178.65 285.67 180.3 285.34 182 285C182.33 283.35 182.66 281.7 183 280Z" fill="#67564B"/>
<path d="M186 271C186.99 271 187.98 271 189 271C190.26 273.521 189.919 274.854 189.562 277.625C189.461 278.442 189.359 279.26 189.254 280.102C189.17 280.728 189.086 281.355 189 282C188.711 281.381 188.423 280.762 188.125 280.125C187.063 277.867 187.063 277.867 185 276C185.375 273.375 185.375 273.375 186 271Z" fill="#180F0B"/>
<path d="M171 262C174.3 262 177.6 262 181 262C181 262.33 181 262.66 181 263C178.36 263 175.72 263 173 263C173.66 265.64 174.32 268.28 175 271C173.68 271.99 172.36 272.98 171 274C171 270.04 171 266.08 171 262Z" fill="#D65F20"/>
<path d="M165 76C165 76.33 165 76.66 165 77C162.69 77.33 160.38 77.66 158 78C159.32 78.66 160.64 79.32 162 80C156.72 80 151.44 80 146 80C146 79.67 146 79.34 146 79C148.332 78.3274 150.665 77.6615 153 77C153.639 76.7938 154.279 76.5875 154.938 76.375C158.286 75.7661 161.601 75.9434 165 76Z" fill="#FAA546"/>
<path d="M209 78C210.625 78.141 212.25 78.2879 213.875 78.4375C214.78 78.5187 215.685 78.5999 216.617 78.6836C219 79 219 79 221 80C221 80.66 221 81.32 221 82C219.564 82.1084 218.126 82.1858 216.688 82.25C215.487 82.3196 215.487 82.3196 214.262 82.3906C212 82 212 82 210.207 79.9844C209.809 79.3295 209.41 78.6747 209 78Z" fill="#ED7420"/>
<path d="M170 269C170.33 269 170.66 269 171 269C171.247 269.969 171.495 270.939 171.75 271.938C172.162 272.948 172.575 273.959 173 275C175.032 275.969 175.032 275.969 177 276C176.67 276.33 176.34 276.66 176 277C176.99 277.66 177.98 278.32 179 279C177.02 279.33 175.04 279.66 173 280C170.294 276.167 169.674 273.675 170 269Z" fill="#E9813A"/>
<path d="M221 197C221.66 197 222.32 197 223 197C223.082 201.161 222.982 204.947 222 209C221.34 209 220.68 209 220 209C219.973 207.188 219.954 205.375 219.938 203.562C219.926 202.553 219.914 201.544 219.902 200.504C220 198 220 198 221 197Z" fill="#CE947F"/>
<path d="M205 112C207.31 112.33 209.62 112.66 212 113C211.34 114.32 210.68 115.64 210 117C208.35 117 206.7 117 205 117C205 115.35 205 113.7 205 112Z" fill="#985033"/>
<path d="M184 275C187 277 187 277 187.512 279.164C187.57 279.976 187.628 280.788 187.688 281.625C187.753 282.442 187.819 283.26 187.887 284.102C187.924 284.728 187.961 285.355 188 286C186.68 285.67 185.36 285.34 184 285C184 281.7 184 278.4 184 275Z" fill="#3A3939"/>
<path d="M197 76C199.846 76.6601 202.523 77.5172 205.25 78.5625C205.956 78.8319 206.663 79.1013 207.391 79.3789C207.922 79.5839 208.453 79.7888 209 80C205.674 81.1087 202.469 81.5418 199 82C198.34 80.02 197.68 78.04 197 76Z" fill="#E56E23"/>
<path d="M185 262C185.66 262.66 186.32 263.32 187 264C186.67 264.66 186.34 265.32 186 266C188.64 266 191.28 266 194 266C194 266.33 194 266.66 194 267C191.03 267 188.06 267 185 267C185 267.66 185 268.32 185 269C185.66 269.33 186.32 269.66 187 270C185.68 270 184.36 270 183 270C183.875 263.125 183.875 263.125 185 262Z" fill="#DF9165"/>
<path d="M149.625 66.9375C150.851 66.951 150.851 66.951 152.102 66.9648C153.041 66.9822 153.041 66.9822 154 67C149.893 69.7381 146.036 71.26 141.062 70.625C140.382 70.4187 139.701 70.2125 139 70C142.859 68.0705 145.261 66.8752 149.625 66.9375Z" fill="#F8AB6C"/>
<path d="M185 31C187.475 31.495 187.475 31.495 190 32C190.33 33.65 190.66 35.3 191 37C189.334 37.0427 187.666 37.0406 186 37C185 36 185 36 184.938 33.4375C184.958 32.6331 184.979 31.8288 185 31Z" fill="#DD7F42"/>
<path d="M223 145C223.33 145 223.66 145 224 145C225.102 149.409 225.077 153.484 225 158C224.01 158.33 223.02 158.66 222 159C221.67 157.02 221.34 155.04 221 153C221.66 153 222.32 153 223 153C223 150.36 223 147.72 223 145Z" fill="#DF8455"/>
<path d="M157 80C158.65 80 160.3 80 162 80C161.34 81.65 160.68 83.3 160 85C154.72 85 149.44 85 144 85C144 84.67 144 84.34 144 84C148.95 84 153.9 84 159 84C159 83.01 159 82.02 159 81C158.34 80.67 157.68 80.34 157 80Z" fill="#FCE0C8"/>
<path d="M221 252C221 253.98 221 255.96 221 258C219.68 258 218.36 258 217 258C217 257.34 217 256.68 217 256C216.01 255.67 215.02 255.34 214 255C218.75 252 218.75 252 221 252Z" fill="#C44106"/>
<path d="M216 266C217.32 266 218.64 266 220 266C220.33 266.99 220.66 267.98 221 269C220.01 269.99 219.02 270.98 218 272C216.68 271.34 215.36 270.68 214 270C214.66 269.67 215.32 269.34 216 269C216 268.01 216 267.02 216 266Z" fill="#853C21"/>
<path d="M223 250C223 252.64 223 255.28 223 258C222.34 258 221.68 258 221 258C221 256.02 221 254.04 221 252C218.69 252 216.38 252 214 252C217.135 250.142 219.375 249.799 223 250Z" fill="#DE611B"/>
<path d="M230 262C230 264.64 230 267.28 230 270C229.01 270 228.02 270 227 270C226.67 267.69 226.34 265.38 226 263C228 262 228 262 230 262Z" fill="#1A1A18"/>
<path d="M202 255C202.66 256.32 203.32 257.64 204 259C203.01 260.485 203.01 260.485 202 262C202.33 262.66 202.66 263.32 203 264C201.02 264.33 199.04 264.66 197 265C198.65 261.7 200.3 258.4 202 255Z" fill="#D86121"/>
<path d="M160 257C162.602 257.023 162.602 257.023 165.625 257.375C166.628 257.486 167.631 257.597 168.664 257.711C169.82 257.854 169.82 257.854 171 258C171 258.66 171 259.32 171 260C170.301 259.965 169.603 259.93 168.883 259.895C167.973 259.867 167.063 259.84 166.125 259.812C165.22 259.778 164.315 259.743 163.383 259.707C162.596 259.804 161.81 259.9 161 260C160.34 260.99 159.68 261.98 159 263C158.375 261.125 158.375 261.125 158 259C158.66 258.34 159.32 257.68 160 257Z" fill="#CC6130"/>
<path d="M199 114C200.32 114.66 201.64 115.32 203 116C202.67 117.32 202.34 118.64 202 120C201.01 120 200.02 120 199 120C198.67 120.66 198.34 121.32 198 122C197.875 116.25 197.875 116.25 199 114Z" fill="#423A36"/>
<path d="M207 81C210 82 210 82 212 85C211.977 87.2617 211.977 87.2617 211.625 89.6875C211.514 90.4957 211.403 91.304 211.289 92.1367C211.194 92.7516 211.098 93.3665 211 94C210.67 94 210.34 94 210 94C209.867 93.3129 209.734 92.6259 209.598 91.918C209.421 91.0169 209.244 90.1159 209.062 89.1875C208.888 88.2942 208.714 87.4009 208.535 86.4805C208.023 83.886 208.023 83.886 207 81Z" fill="#C84E1D"/>
<path d="M216 121C216.99 121 217.98 121 219 121C219 123.31 219 125.62 219 128C218.01 128.33 217.02 128.66 216 129C216 126.36 216 123.72 216 121Z" fill="#1F1713"/>
<path d="M211 109C212.32 109 213.64 109 215 109C215 110.32 215 111.64 215 113C212.03 112.67 209.06 112.34 206 112C207.32 111.34 208.64 110.68 210 110C210.33 109.67 210.66 109.34 211 109Z" fill="#EDE8E8"/>
<path d="M79 85C83.62 85 88.24 85 93 85C92.67 85.66 92.34 86.32 92 87C87.0015 88.1761 83.7328 87.9624 79 86C79 85.67 79 85.34 79 85Z" fill="#FD9118"/>
<path d="M205 75C206.418 75.0879 207.834 75.196 209.25 75.3125C210.433 75.3995 210.433 75.3995 211.641 75.4883C214.392 76.085 215.88 77.1866 218 79C216.395 78.9127 214.791 78.8045 213.188 78.6875C211.848 78.6005 211.848 78.6005 210.48 78.5117C207.694 77.9369 206.759 77.1793 205 75Z" fill="#EBA97D"/>
<path d="M151 69C150.01 69.66 149.02 70.32 148 71C148.66 71.66 149.32 72.32 150 73C146.37 72.67 142.74 72.34 139 72C139.33 71.34 139.66 70.68 140 70C143.701 69.1588 147.213 68.8886 151 69Z" fill="#D97442"/>
<path d="M189 271C193 275 193 275 193.375 278.125C193 281 193 281 191 283C190.34 279.04 189.68 275.08 189 271Z" fill="#6A6868"/>
<path d="M222 188C223.619 190.572 224.044 191.677 223.625 194.75C223.419 195.492 223.213 196.235 223 197C222.01 197.33 221.02 197.66 220 198C220.14 196.52 220.288 195.041 220.438 193.562C220.519 192.739 220.6 191.915 220.684 191.066C221 189 221 189 222 188Z" fill="#D26E3D"/>
<path d="M158 77C160.97 77 163.94 77 167 77C165.68 78.32 164.36 79.64 163 81C161.02 80.34 159.04 79.68 157 79C157.33 78.34 157.66 77.68 158 77Z" fill="#FE8D1A"/>
<path d="M200 255C200.33 255 200.66 255 201 255C201.412 258.603 201.154 259.784 199 262.812C198.34 263.534 197.68 264.256 197 265C195.68 264.67 194.36 264.34 193 264C193.784 263.443 194.567 262.886 195.375 262.312C198.087 259.923 198.961 258.399 200 255Z" fill="#C03605"/>
<path d="M178 91C178.99 91.33 179.98 91.66 181 92C178.69 94.31 176.38 96.62 174 99C173.67 98.01 173.34 97.02 173 96C174.65 94.35 176.3 92.7 178 91Z" fill="#D34C00"/>
<path d="M158 262C154.647 264.236 154.093 264.173 150.312 263.625C149.504 263.514 148.696 263.403 147.863 263.289C147.248 263.194 146.634 263.098 146 263C150.38 260.415 153.111 261.185 158 262Z" fill="#E68F5F"/>
<path d="M168 259C169.98 259.99 169.98 259.99 172 261C171.67 263.64 171.34 266.28 171 269C167.994 265.994 168.404 263.176 168 259Z" fill="#E16E32"/>
<path d="M71 227C71.33 227 71.66 227 72 227C72.0606 227.675 72.1212 228.351 72.1836 229.047C72.2674 229.939 72.3512 230.831 72.4375 231.75C72.5187 232.632 72.6 233.513 72.6836 234.422C72.9624 236.694 73.3879 238.799 74 241C73.01 241.495 73.01 241.495 72 242C70.558 239.116 70.9061 236.583 70.9375 233.375C70.9466 232.186 70.9556 230.998 70.9649 229.773C70.9765 228.858 70.9881 227.943 71 227Z" fill="#E48B5A"/>
<path d="M107 79C108.525 79.0894 110.047 79.2454 111.562 79.4375C112.802 79.5903 112.802 79.5903 114.066 79.7461C114.704 79.8299 115.343 79.9137 116 80C116 80.66 116 81.32 116 82C109.375 82.25 109.375 82.25 106 80C106.33 79.67 106.66 79.34 107 79Z" fill="#FCE4CE"/>
<path d="M79 76C79.66 76.33 80.32 76.66 81 77C80.34 78.98 79.68 80.96 79 83C78.34 82.34 77.68 81.68 77 81C75.68 81.99 74.36 82.98 73 84C74.4425 80.6341 76.3326 78.4895 79 76Z" fill="#FCB259"/>
<path d="M190 27C190.66 27 191.32 27 192 27C192 29.97 192 32.94 192 36C191.34 36 190.68 36 190 36C188.875 30.375 188.875 30.375 190 27Z" fill="#CE5F2A"/>
<path d="M196 265C196 265.33 196 265.66 196 266C192.7 266 189.4 266 186 266C186 265.34 186 264.68 186 264C189.937 262.688 192.125 263.757 196 265Z" fill="#C14C19"/>
<path d="M84 260C84.66 260 85.32 260 86 260C86 261.98 86 263.96 86 266C84.68 266.33 83.36 266.66 82 267C82 266.01 82 265.02 82 264C82.66 264 83.32 264 84 264C84 262.68 84 261.36 84 260Z" fill="#EC813C"/>
<path d="M93 249C93.99 249.99 94.98 250.98 96 252C95.01 252.99 94.02 253.98 93 255C91.35 253.68 89.7 252.36 88 251C89.65 250.34 91.3 249.68 93 249Z" fill="#D9AF9A"/>
<path d="M201 123C201.66 123 202.32 123 203 123C203 125.31 203 127.62 203 130C202.01 130 201.02 130 200 130C199.957 128 199.959 126 200 124C200.33 123.67 200.66 123.34 201 123Z" fill="#78716F"/>
<path d="M170 253C169.34 254.32 168.68 255.64 168 257C165.36 256.67 162.72 256.34 160 256C160.866 255.814 160.866 255.814 161.75 255.625C164.033 255.068 164.033 255.068 166.125 253.938C168 253 168 253 170 253Z" fill="#DF6720"/>
<path d="M76 246C78.9719 247.125 81.3344 248.223 84 250C81.69 250 79.38 250 77 250C76.67 248.68 76.34 247.36 76 246Z" fill="#E16C2F"/>
<path d="M218 203C218.33 203 218.66 203 219 203C219 205.64 219 208.28 219 211C217.68 211 216.36 211 215 211C215.309 210.237 215.619 209.474 215.938 208.688C216.679 206.812 217.362 204.913 218 203Z" fill="#AB2C05"/>
<path d="M219 121C219.99 121.33 220.98 121.66 222 122C221.34 123.32 220.68 124.64 220 126C220.66 126 221.32 126 222 126C222 126.99 222 127.98 222 129C220.68 128.67 219.36 128.34 218 128C218.33 125.69 218.66 123.38 219 121Z" fill="#554542"/>
<path d="M212 257C212.66 257 213.32 257 214 257C214 257.66 214 258.32 214 259C214.66 259 215.32 259 216 259C215.67 259.99 215.34 260.98 215 262C214.01 261.34 213.02 260.68 212 260C211.67 260.99 211.34 261.98 211 263C210.375 261.125 210.375 261.125 210 259C210.66 258.34 211.32 257.68 212 257Z" fill="#95280A"/>
<path d="M132 257C132 257.66 132 258.32 132 259C129.69 259 127.38 259 125 259C124.67 258.34 124.34 257.68 124 257C127.29 255.903 128.713 256.2 132 257Z" fill="#E48553"/>
<path d="M84 247C88.455 247.99 88.455 247.99 93 249C92.67 249.66 92.34 250.32 92 251C87.9193 250.449 87.0867 250.087 84 247Z" fill="#E37F4E"/>
</svg>