<svg xmlns="http://www.w3.org/2000/svg" viewBox="0 0 212 212" fill="none">
<path d="M126 10C130.694 12.6669 132.552 16.3658 135 21C135.495 21.495 135.495 21.495 136 22C136.072 23.6861 136.084 25.375 136.062 27.0625C136.053 27.9816 136.044 28.9007 136.035 29.8477C136.023 30.5579 136.012 31.2682 136 32C137.087 32.1663 137.087 32.1663 138.195 32.3359C146.866 34.389 154.448 40.8708 159.434 48.0703C165.156 58.0893 166.033 69.8819 166.15 81.1836C166.331 95.2349 169.909 106.979 175 120C175.449 121.192 175.897 122.385 176.359 123.613C178.909 130.066 182.046 136.24 185.234 142.396C187.186 146.198 188.715 149.909 190 154C190.371 154.66 190.742 155.32 191.125 156C192.312 158.714 192.133 161.074 192 164C191.01 164.33 190.02 164.66 189 165C189.041 166.052 189.082 167.104 189.125 168.188C189.008 171.759 188.653 173.878 187 177C183.976 178.512 181.338 178.173 178 178C175.773 176.988 175.773 176.988 174 176C173.853 177.122 173.853 177.122 173.703 178.266C172.505 186.159 172.505 186.159 170.5 189.5C167.343 191.394 164.192 192.293 160.633 193.191C157.876 193.945 157.876 193.945 155.078 195.57C144.904 200.296 128.828 196.488 117.918 195.535C117.018 195.457 116.119 195.378 115.192 195.297C113 195 113 195 111 194C109.5 193.812 107.993 193.676 106.485 193.567C105.545 193.497 104.605 193.426 103.637 193.354C102.614 193.281 101.59 193.208 100.535 193.133C98.3495 192.968 96.164 192.802 93.9785 192.637C90.5478 192.382 87.1169 192.129 83.6857 191.88C72.4198 191.059 61.1756 190.208 49.996 188.555C49.207 188.445 48.4179 188.335 47.6049 188.222C45.4352 187.875 45.4352 187.875 41.9999 187C41.3399 186.01 40.6799 185.02 39.9999 184C36.4322 183.264 36.4322 183.264 32.9999 183C31.8365 179.3 32.4536 176.917 33.4794 173.19C34.3439 169.553 34.4708 165.912 34.6249 162.188C34.6829 161.015 34.6829 161.015 34.7421 159.819C34.9881 154.499 35.0671 149.196 34.9374 143.871C34.9999 142 34.9999 142 35.9999 141C35.7386 138.194 35.4214 135.418 35.0624 132.625C34.2253 125.716 33.7236 118.969 33.9999 112C35.9799 111.505 35.9799 111.505 37.9999 111C37.8391 110.277 37.6783 109.554 37.5126 108.81C33.8831 88.9183 37.3672 64.5131 48.6874 47.5C54.9297 39.96 65.4024 34.5619 74.9999 33C79.6435 32.7783 84.2891 32.8149 88.9374 32.8125C90.2001 32.8003 91.4627 32.788 92.7636 32.7754C93.985 32.7735 95.2064 32.7715 96.4648 32.7695C97.5746 32.7654 98.6844 32.7613 99.8278 32.7571C103.178 33.0136 105.85 33.8708 109 35C111.751 35.1686 111.751 35.1686 114 35C111.69 34.01 109.38 33.02 107 32C107.988 29.9844 107.988 29.9844 110 28C112.895 27.8688 115.341 27.9368 118.187 28.25C119.312 28.3486 119.312 28.3486 120.459 28.4492C122.308 28.6141 124.154 28.8046 126 29C126.143 27.9056 126.286 26.8112 126.434 25.6836C126.931 22.4489 127.656 19.9573 129 17C123.29 17.368 119.075 18.1531 114 21C113.34 21 112.68 21 112 21C112.33 18.03 112.66 15.06 113 12C117.299 9.85031 121.276 9.24153 126 10Z" fill="#DB4A04"/>
<path d="M109.051 37.6699C114.798 37.7522 119.124 39.0398 124 42C123.455 46.0992 122.229 48.5067 119.687 51.75C119.093 52.5286 118.499 53.3072 117.887 54.1094C115.824 56.176 114.75 56.3666 112 57C111.505 58.485 111.505 58.485 111 60C108.383 61.7188 108.383 61.7188 105.125 63.5C100.059 66.1209 100.059 66.1209 96 70C96 70.99 96 71.98 96 73C101.786 72.299 107.553 71.522 113.312 70.625C114.11 70.5116 114.907 70.3981 115.728 70.2813C116.878 70.0995 116.878 70.0995 118.051 69.9141C118.738 69.8105 119.426 69.7068 120.134 69.6001C122.473 68.8477 123.504 67.938 125 66C125.186 64.3294 125.186 64.3294 125.375 62.625C126.147 58.1476 127.444 56.7476 131 54C133.812 53.1875 133.812 53.1875 136 53C136.99 55.97 137.98 58.94 139 62C139.66 62 140.32 62 141 62C140.451 70.8587 140.451 70.8587 137 75C136.274 77.3154 135.616 79.6527 135 82C134.515 83.6087 134.014 85.2129 133.5 86.8125C133.263 87.5615 133.026 88.3104 132.781 89.082C132 91 132 91 130 93C128.029 93.1353 128.029 93.1353 125.648 92.9766C124.798 92.925 123.947 92.8734 123.07 92.8203C122.181 92.7559 121.291 92.6914 120.375 92.625C119.029 92.5399 119.029 92.5399 117.656 92.4531C115.437 92.3115 113.218 92.16 111 92C116.564 94.8223 119.708 95.089 126 94C125.875 95.8125 125.875 95.8125 125 98C121.321 100.289 119.384 101 115 101C115 101.66 115 102.32 115 103C113.515 102.505 113.515 102.505 112 102C111.67 102.66 111.34 103.32 111 104C112.108 103.71 112.108 103.71 113.238 103.414C120.121 101.647 126.992 100.173 134 99C134.187 101.812 134.187 101.812 134 105C132.625 106.562 132.625 106.562 131 108C130.293 109.65 129.621 111.316 129 113C128.67 113.33 128.34 113.66 128 114C127.901 115.643 127.87 117.291 127.875 118.938C127.872 119.833 127.87 120.729 127.867 121.652C127.846 124.022 127.846 124.022 129 126C129.07 127.874 129.084 129.75 129.062 131.625C129.053 132.628 129.044 133.631 129.035 134.664C129.024 135.435 129.012 136.206 129 137C128.34 137 127.68 137 127 137C126.505 133.04 126.505 133.04 126 129C124.68 129 123.36 129 122 129C120.522 126.043 120.94 123.258 121 120C116.11 121.52 116.11 121.52 112.875 125.062C112.586 125.702 112.297 126.341 112 127C110.342 127.688 108.675 128.356 107 129C106.505 130.485 106.505 130.485 106 132C104.187 132.914 104.187 132.914 102 133.625C99.2573 134.411 99.2573 134.411 97 136C99.64 136.66 102.28 137.32 105 138C105 138.33 105 138.66 105 139C96.5264 139.151 88.2295 138.714 79.7968 137.906C77.9911 137.74 77.9911 137.74 76.149 137.57C72.3488 137.218 68.5494 136.859 64.75 136.5C62.155 136.259 59.5599 136.018 56.9648 135.777C50.6426 135.191 44.3211 134.598 38 134C37.67 136.31 37.34 138.62 37 141C36.67 141 36.34 141 36 141C33.617 121.66 33.617 121.66 34 112C35.98 111.505 35.98 111.505 38 111C37.8392 110.277 37.6783 109.554 37.5127 108.81C35.0278 95.1914 36.7493 80.3316 40 67C40.33 67 40.66 67 41 67C41.0667 70.8066 41.1147 74.2975 40.5 78.0625C39.8468 83.2061 39.8937 88.2593 39.9375 93.4375C39.942 94.4552 39.9465 95.4729 39.9511 96.5215C39.9628 99.0144 39.9792 101.507 40 104C40.1095 103.143 40.2191 102.286 40.332 101.402C40.5698 99.6872 40.5698 99.6872 40.8125 97.9375C40.9633 96.8122 41.1141 95.6868 41.2695 94.5273C42 91 42 91 43.5195 87.7031C45.3912 83.0214 45.5898 78.8034 45.875 73.8125C46.6163 64.1468 47.9684 56.0704 54.1679 48.2734C57.6625 45.4682 60.6739 44.9842 65 44.625C66.048 44.5032 66.048 44.5032 67.1172 44.3789C70.9681 43.9793 74.2524 44.0493 78 45C78.66 45 79.32 45 80 45C80 44.34 80 43.68 80 43C85.75 43.875 85.75 43.875 88 45C88 45.66 88 46.32 88 47C88.4125 46.505 88.825 46.01 89.25 45.5C91 44 91 44 95 44C95 44.99 95 45.98 95 47C95.99 46.67 96.98 46.34 98 46C98.1443 44.8656 98.2887 43.7313 98.4375 42.5625C99.4603 36.0847 103.187 37.7202 109.051 37.6699Z" fill="#EE6921"/>
<path d="M39 136C42.0957 136.307 42.0957 136.307 45.2539 136.621C47.3095 136.824 49.3651 137.025 51.4207 137.227C52.8218 137.365 54.2229 137.503 55.6238 137.643C64.3792 138.514 73.1205 139.246 81.906 139.739C85 140 85 140 86.9298 140.509C89.1038 141.025 90.9863 141.12 93.2178 141.114C94.4486 141.113 94.4486 141.113 95.7043 141.113C96.5805 141.108 97.4567 141.103 98.3594 141.098C99.2638 141.096 100.168 141.095 101.1 141.093C103.983 141.088 106.867 141.075 109.75 141.062C111.707 141.057 113.664 141.053 115.621 141.049C120.414 141.038 125.207 141.021 130 141C130.413 175.696 130.413 175.696 128 190C117.992 194.448 105.501 191.713 95 190.562C93.7045 190.428 92.409 190.293 91.0743 190.154C81.3966 189.124 81.3966 189.124 77 188C74.3306 187.8 71.6726 187.631 69 187.5C61.4763 187.132 61.4763 187.132 58.9844 186.441C55.7491 185.722 52.5243 186.168 49.25 186.438C48.204 186.516 48.204 186.516 47.1368 186.596C45.4241 186.725 43.712 186.862 42 187C41.34 186.01 40.68 185.02 40 184C36.4323 183.264 36.4323 183.264 33 183C31.8493 179.322 32.4254 176.945 33.4483 173.238C34.4002 169.377 34.7325 165.451 35.125 161.5C35.2114 160.678 35.2978 159.855 35.3868 159.008C35.5963 157.006 35.7989 155.003 36 153C36.99 153 37.98 153 39 153C39 147.39 39 141.78 39 136Z" fill="#F26520"/>
<path d="M142 63C142.99 63.99 142.99 63.99 144 65C144.99 65 145.98 65 147 65C147.988 67.6847 148.965 70.3723 149.938 73.0625C150.215 73.8147 150.493 74.5668 150.779 75.3418C153.997 84.2958 154.156 92.7447 154.125 102.188C154.129 103.362 154.133 104.537 154.137 105.748C154.135 106.877 154.134 108.005 154.133 109.168C154.132 110.192 154.131 111.215 154.129 112.27C154.015 114.68 153.692 116.699 153 119C152.01 119 151.02 119 150 119C150.141 121.938 150.287 124.875 150.438 127.812C150.477 128.646 150.516 129.479 150.557 130.338C150.599 131.14 150.64 131.943 150.684 132.77C150.72 133.508 150.757 134.246 150.795 135.007C150.948 137.207 150.948 137.207 152 140C152.084 142.284 152.107 144.57 152.098 146.855C152.096 147.517 152.095 148.179 152.093 148.86C152.088 150.969 152.075 153.078 152.062 155.188C152.057 156.619 152.053 158.051 152.049 159.482C152.038 162.988 152.021 166.494 152 170C151.67 170 151.34 170 151 170C150.591 164.151 150.182 158.302 149.773 152.452C149.635 150.469 149.496 148.486 149.357 146.503C148.553 135.003 147.756 123.503 147 112C146.01 112 145.02 112 144 112C144.495 113.98 144.495 113.98 145 116C139.555 115.505 139.555 115.505 134 115C134.289 115.743 134.577 116.485 134.875 117.25C136.426 122.422 137.189 127.669 138 133C138.66 133 139.32 133 140 133C143.79 140.58 141.7 150.612 140.473 158.578C140.096 161.308 139.91 163.76 140 166.5C140 170 140 170 139 173.312C137.661 178.25 137.835 182.917 138 188C137.01 188 136.02 188 135 188C135 188.99 135 189.98 135 191C135.743 191.083 136.485 191.165 137.25 191.25C140.528 192.144 141.716 193.559 144 196C115.67 196.335 115.67 196.335 111 194C109.489 193.812 107.972 193.676 106.453 193.567C105.507 193.497 104.561 193.426 103.586 193.354C102.556 193.281 101.526 193.208 100.465 193.133C98.2702 192.968 96.0755 192.802 93.8809 192.637C90.4324 192.381 86.9839 192.128 83.5349 191.88C70.1953 190.914 57.1078 189.716 44 187C44 186.67 44 186.34 44 186C46.0826 185.804 48.1661 185.619 50.25 185.438C51.9902 185.281 51.9902 185.281 53.7656 185.121C56.6377 185.014 58.2991 185.268 61 186C63.5025 186.178 65.9949 186.321 68.5 186.438C73.294 186.696 77.9584 187.064 82.6875 187.938C96.9374 190.53 113.717 193.174 128 190C127.988 189.443 127.977 188.886 127.965 188.312C127.956 187.549 127.947 186.786 127.938 186C127.926 185.257 127.914 184.515 127.902 183.75C128 181 128 181 128.486 177.314C129.002 173.281 129.202 169.285 129.316 165.219C129.337 164.52 129.358 163.821 129.379 163.101C129.444 160.901 129.503 158.7 129.562 156.5C129.606 154.995 129.649 153.49 129.693 151.984C129.8 148.323 129.901 144.662 130 141C128.514 141.243 128.514 141.243 126.999 141.492C123.006 142.06 119.047 142.145 115.02 142.133C113.917 142.134 113.917 142.134 112.791 142.136C111.249 142.136 109.707 142.135 108.165 142.13C105.809 142.125 103.452 142.13 101.096 142.137C99.5911 142.136 98.0866 142.135 96.582 142.133C95.5304 142.136 95.5304 142.136 94.4575 142.139C91.1148 142.123 88.2204 141.819 85 141C82.1911 140.737 79.3917 140.511 76.5781 140.316C74.8958 140.192 73.2135 140.068 71.5312 139.943C68.8941 139.752 66.2568 139.563 63.6191 139.378C61.0633 139.197 58.5082 139.007 55.9531 138.816C55.1758 138.764 54.3984 138.712 53.5975 138.658C52.8502 138.602 52.1029 138.545 51.333 138.487C50.3652 138.418 50.3652 138.418 49.3777 138.348C45.8684 137.835 42.4408 136.86 39 136C39 141.61 39 147.22 39 153C37.68 153 36.36 153 35 153C35 149.37 35 145.74 35 142C35.66 142 36.32 142 37 142C37 139.03 37 136.06 37 133C38.0257 133.094 38.0257 133.094 39.0721 133.19C46.2098 133.843 53.3479 134.491 60.4863 135.136C63.1479 135.377 65.8094 135.62 68.4707 135.864C72.3031 136.215 76.1359 136.561 79.9688 136.906C81.1524 137.016 82.336 137.125 83.5555 137.238C89.398 137.76 95.1343 138.126 101 138C99.35 137.67 97.7 137.34 96 137C97.0625 135.062 97.0625 135.062 99 133C102.688 132.25 102.688 132.25 106 132C106.495 130.02 106.495 130.02 107 128C108.65 127.67 110.3 127.34 112 127C112.082 126.402 112.165 125.804 112.25 125.188C113.231 122.326 114.398 121.487 117 120C118.32 120 119.64 120 121 120C121.495 124.455 121.495 124.455 122 129C123.32 129 124.64 129 126 129C127.354 131.709 127.065 134.009 127 137C127.66 137 128.32 137 129 137C128.859 135.208 128.712 133.416 128.562 131.625C128.481 130.627 128.4 129.63 128.316 128.602C128.15 126.021 128.15 126.021 127 124C126.879 122.337 126.825 120.668 126.812 119C126.798 118.113 126.784 117.226 126.77 116.312C127 114 127 114 129 112C130.038 109.684 131.042 107.351 132 105C132.66 105 133.32 105 134 105C134 103.02 134 101.04 134 99C133.46 99.3081 132.92 99.6162 132.363 99.9336C129.625 101.169 127.155 101.609 124.188 102.062C122.608 102.308 122.608 102.308 120.996 102.559C120.007 102.704 119.019 102.85 118 103C117.228 103.115 116.456 103.229 115.66 103.348C114.108 103.573 112.554 103.788 111 104C111.33 103.01 111.66 102.02 112 101C113.485 101.99 113.485 101.99 115 103C115 102.34 115 101.68 115 101C115.626 100.83 116.253 100.66 116.898 100.484C117.716 100.242 118.533 99.9997 119.375 99.75C120.187 99.518 120.999 99.2859 121.836 99.0469C124.458 97.7785 124.994 96.6758 126 94C125.385 94.156 124.77 94.312 124.137 94.4727C123.328 94.6673 122.52 94.862 121.688 95.0625C120.487 95.3583 120.487 95.3583 119.262 95.6602C116.152 96.1275 113.954 94.9848 111 94C111 93.34 111 92.68 111 92C111.565 92.0157 112.13 92.0314 112.712 92.0476C115.267 92.1099 117.82 92.149 120.375 92.1875C121.264 92.2126 122.154 92.2378 123.07 92.2637C124.346 92.2782 124.346 92.2782 125.648 92.293C126.434 92.3087 127.219 92.3244 128.029 92.3406C128.679 92.2282 129.33 92.1158 130 92C132.224 88.6639 132.925 85.8558 134 82C136.273 74.706 136.273 74.706 139.125 71.9375C141.77 69.2048 141.716 66.6966 142 63Z" fill="#9F2802"/>
<path d="M45 108C48.3127 108.141 51.6251 108.289 54.9375 108.438C55.8637 108.477 56.7898 108.516 57.7441 108.557C59.1218 108.619 59.1218 108.619 60.5273 108.684C61.7763 108.739 61.7763 108.739 63.0505 108.795C65.4699 108.963 67.8444 109.213 70.2507 109.502C74.9911 110.043 79.6932 110.202 84.4609 110.281C85.3321 110.3 86.2033 110.318 87.1009 110.337C89.8589 110.395 92.6169 110.448 95.375 110.5C118.033 110.927 118.033 110.927 127 112C126 114 126 114 123 115.438C119.711 116.709 119.711 116.709 119 120C117 121.333 115 122.667 113 124C112.505 125.485 112.505 125.485 112 127C110.333 127.667 108.667 128.333 107 129C106.505 130.485 106.505 130.485 106 132C104.187 132.914 104.187 132.914 102 133.625C99.2573 134.411 99.2573 134.411 97 136C99.64 136.66 102.28 137.32 105 138C105 138.33 105 138.66 105 139C96.5264 139.151 88.2295 138.714 79.7968 137.906C78.593 137.795 77.3892 137.684 76.149 137.57C72.3488 137.218 68.5494 136.859 64.75 136.5C62.155 136.259 59.5599 136.018 56.9648 135.777C50.6426 135.191 44.3211 134.598 38 134C37.67 136.31 37.34 138.62 37 141C36.67 141 36.34 141 36 141C33.617 121.66 33.617 121.66 34 112C34.99 111.67 35.98 111.34 37 111C37.2539 111.566 37.5079 112.132 37.7695 112.715C38.1137 113.448 38.4579 114.182 38.8125 114.938C39.1489 115.668 39.4854 116.399 39.832 117.152C40.936 119.33 40.936 119.33 44 120C43.9884 119.385 43.9768 118.77 43.9648 118.137C43.9558 117.328 43.9468 116.52 43.9375 115.688C43.9259 114.887 43.9143 114.086 43.9023 113.262C44 111 44 111 45 108Z" fill="#F9B187"/>
<path d="M167 114C167.66 114.33 168.32 114.66 169 115C171.652 123.494 171.377 133.009 171.658 141.813C171.828 146.957 172.234 151.904 173 157C173.063 158.978 173.087 160.958 173.063 162.938C173.053 163.895 173.044 164.853 173.035 165.84C173.024 166.553 173.012 167.266 173 168C174.65 167.01 176.3 166.02 178 165C177.718 166.46 177.424 167.918 177.125 169.375C176.963 170.187 176.8 170.999 176.633 171.836C176 174 176 174 174 176C173.392 178.592 173.392 178.592 173 181.5C172.222 186.778 172.222 186.778 170 189C168.68 188.01 167.36 187.02 166 186C166.495 185.01 166.495 185.01 167 184C161.333 185.318 159.336 187.487 156 192C155.34 191.67 154.68 191.34 154 191C151.314 179.335 153.173 166.333 153.82 154.49C153.872 153.35 153.923 152.21 153.977 151.035C154.029 150.018 154.081 149.001 154.135 147.953C153.984 144.655 153.134 142.086 152 139C151.385 133.574 152.069 129.111 154 124C154.369 122.006 154.713 120.007 155 118C155.699 117.795 156.397 117.59 157.117 117.379C158.027 117.109 158.937 116.84 159.875 116.562C160.78 116.296 161.685 116.029 162.617 115.754C164.983 115.074 164.983 115.074 167 114Z" fill="#E26831"/>
<path d="M154 96C154.33 96 154.66 96 155 96C155.33 102.6 155.66 109.2 156 116C161.445 115.01 161.445 115.01 167 114C162.33 117.503 160.586 117.535 155 118C154.909 119.174 154.909 119.174 154.816 120.371C154.733 121.383 154.649 122.395 154.562 123.438C154.481 124.447 154.4 125.456 154.316 126.496C154 129 154 129 153 130C152.8 131.932 152.8 131.932 152.812 134.188C152.791 135.323 152.791 135.323 152.77 136.48C152.9 139.095 152.9 139.095 154.016 141.78C155.043 145.139 155.156 147.546 154.977 151.035C154.925 152.175 154.873 153.316 154.82 154.49C154.756 155.669 154.691 156.848 154.625 158.062C153.525 174.588 153.525 174.588 155 191C155.722 190.237 156.444 189.474 157.188 188.688C159.725 186.263 161.839 184.497 165 183C165.99 183.33 166.98 183.66 168 184C167.67 184.66 167.34 185.32 167 186C167.99 186.66 168.98 187.32 170 188C170 188.66 170 189.32 170 190C168.554 190.507 168.554 190.507 167.078 191.023C165.802 191.474 164.526 191.924 163.25 192.375C162.616 192.597 161.982 192.818 161.328 193.047C157.575 194.368 157.575 194.368 154.031 196.156C150.854 197.476 147.629 197.208 144.25 197.125C143.553 197.116 142.855 197.107 142.137 197.098C140.424 197.074 138.712 197.038 137 197C137 196.67 137 196.34 137 196C139.475 195.505 139.475 195.505 142 195C139.826 192.5 138.27 191.564 135 191C135 190.01 135 189.02 135 188C135.99 188 136.98 188 138 188C137.905 187.215 137.809 186.43 137.711 185.621C137.059 179.446 137.05 174.964 139 169C139 167.062 138.997 165.123 138.97 163.185C139.018 159.644 139.567 156.189 140.062 152.688C140.947 145.964 141.077 139.736 140 133C138.515 133.495 138.515 133.495 137 134C136.867 132.964 136.734 131.927 136.598 130.859C136.419 129.49 136.241 128.12 136.062 126.75C135.975 126.068 135.888 125.386 135.799 124.684C135.368 121.4 134.912 118.188 134 115C141.429 114.857 141.429 114.857 145 116C144.67 114.68 144.34 113.36 144 112C144.99 112 145.98 112 147 112C148.153 114.306 148.227 115.88 148.389 118.45C148.449 119.371 148.509 120.291 148.571 121.24C148.631 122.236 148.692 123.232 148.754 124.258C148.819 125.276 148.884 126.294 148.951 127.343C149.159 130.604 149.361 133.864 149.562 137.125C149.702 139.332 149.842 141.539 149.982 143.746C150.326 149.164 150.665 154.582 151 160C151.029 156.729 151.047 153.458 151.062 150.188C151.071 149.259 151.079 148.33 151.088 147.373C151.091 146.48 151.094 145.588 151.098 144.668C151.103 143.846 151.108 143.024 151.114 142.177C151.087 139.818 151.087 139.818 150 137C149.92 135.592 149.892 134.18 149.902 132.77C149.906 131.967 149.909 131.165 149.912 130.338C149.92 129.505 149.929 128.671 149.938 127.812C149.942 126.968 149.947 126.123 149.951 125.252C149.963 123.168 149.981 121.084 150 119C150.99 119 151.98 119 153 119C153.33 111.41 153.66 103.82 154 96Z" fill="#CC4208"/>
<path d="M100 41C114.781 40.631 114.781 40.631 121 43C120.551 47.9443 118.533 51.6127 115 55C108.996 58.9593 102.753 62.4803 96 65C96 65.66 96 66.32 96 67C94.02 67.66 92.04 68.32 90 69C90 69.66 90 70.32 90 71C88.35 71.66 86.7 72.32 85 73C85 72.34 85 71.68 85 71C84.34 70.67 83.68 70.34 83 70C80.875 68.5625 80.875 68.5625 79 67C79 66.34 79 65.68 79 65C78.2369 64.8762 77.4737 64.7525 76.6875 64.625C74 64 74 64 71 62C69.012 61.2984 67.013 60.6263 65 60C65 59.34 65 58.68 65 58C64.4431 57.7731 63.8863 57.5462 63.3125 57.3125C60.2584 55.5791 58.2175 53.7243 56 51C56.3633 48.332 56.3633 48.332 57 46C59.5614 45.6358 62.1236 45.2834 64.6875 44.9375C65.4087 44.8337 66.13 44.73 66.873 44.623C70.8626 44.0947 74.0526 43.9527 78 45C78.66 45 79.32 45 80 45C80 44.34 80 43.68 80 43C85.75 43.875 85.75 43.875 88 45C88 45.66 88 46.32 88 47C88.6188 46.2575 88.6188 46.2575 89.25 45.5C91 44 91 44 95 44C95 44.99 95 45.98 95 47C96.65 46.67 98.3 46.34 100 46C100 44.35 100 42.7 100 41Z" fill="#F9B58B"/>
<path d="M142 63C142.66 63.66 143.32 64.32 144 65C144.99 65 145.98 65 147 65C147.988 67.6847 148.965 70.3723 149.938 73.0625C150.354 74.1908 150.354 74.1908 150.779 75.3418C153.997 84.2958 154.156 92.7447 154.125 102.188C154.131 103.95 154.131 103.95 154.137 105.748C154.135 106.877 154.134 108.005 154.133 109.168C154.132 110.192 154.131 111.215 154.129 112.27C154.015 114.68 153.692 116.699 153 119C152.01 119 151.02 119 150 119C150.141 121.938 150.287 124.875 150.438 127.812C150.477 128.646 150.516 129.479 150.557 130.338C150.599 131.14 150.64 131.943 150.684 132.77C150.739 133.877 150.739 133.877 150.795 135.007C150.948 137.207 150.948 137.207 152 140C152.084 142.284 152.107 144.57 152.098 146.855C152.096 147.517 152.095 148.179 152.093 148.86C152.088 150.969 152.075 153.078 152.062 155.188C152.057 156.619 152.053 158.051 152.049 159.482C152.038 162.988 152.021 166.494 152 170C151.67 170 151.34 170 151 170C150.591 164.151 150.182 158.302 149.773 152.452C149.635 150.469 149.496 148.486 149.357 146.503C148.553 135.003 147.756 123.503 147 112C146.01 112 145.02 112 144 112C144.495 113.98 144.495 113.98 145 116C141.37 115.67 137.74 115.34 134 115C133.67 115.99 133.34 116.98 133 118C132.732 117.361 132.464 116.721 132.188 116.062C131.113 113.669 131.113 113.669 128 113C129.32 110.36 130.64 107.72 132 105C132.66 105 133.32 105 134 105C134 103.02 134 101.04 134 99C133.46 99.3081 132.92 99.6162 132.363 99.9336C129.625 101.169 127.155 101.609 124.188 102.062C122.608 102.308 122.608 102.308 120.996 102.559C120.007 102.704 119.019 102.85 118 103C117.228 103.115 116.456 103.229 115.66 103.348C114.108 103.573 112.554 103.788 111 104C111.33 103.01 111.66 102.02 112 101C112.99 101.66 113.98 102.32 115 103C115 102.34 115 101.68 115 101C115.626 100.83 116.253 100.66 116.898 100.484C117.716 100.242 118.533 99.9997 119.375 99.75C120.593 99.402 120.593 99.402 121.836 99.0469C124.458 97.7785 124.994 96.6758 126 94C125.385 94.156 124.77 94.312 124.137 94.4727C123.328 94.6673 122.52 94.862 121.688 95.0625C120.487 95.3583 120.487 95.3583 119.262 95.6602C116.152 96.1275 113.954 94.9848 111 94C111 93.34 111 92.68 111 92C111.565 92.0157 112.13 92.0314 112.712 92.0476C115.267 92.1099 117.82 92.149 120.375 92.1875C121.264 92.2126 122.154 92.2378 123.07 92.2637C123.921 92.2733 124.772 92.283 125.648 92.293C126.434 92.3087 127.219 92.3244 128.029 92.3406C128.679 92.2282 129.33 92.1158 130 92C132.224 88.6639 132.925 85.8558 134 82C136.273 74.706 136.273 74.706 139.125 71.9375C141.77 69.2048 141.716 66.6966 142 63Z" fill="#BC3905"/>
<path d="M120 38C121.934 39.668 121.934 39.668 123 41C121.989 40.67 120.979 40.34 119.938 40C113.45 38.3341 106.646 38.8442 100 39C99.67 41.31 99.34 43.62 99 46C97.68 46.33 96.36 46.66 95 47C95 46.01 95 45.02 95 44C93.68 44 92.36 44 91 44C90.67 44.99 90.34 45.98 90 47C89.34 47 88.68 47 88 47C88 46.34 88 45.68 88 45C85.36 44.34 82.72 43.68 80 43C80 43.66 80 44.32 80 45C74.4671 46.1317 74.4671 46.1317 72.1992 45.4922C67.1934 44.3719 61.8688 45.6682 57 47C54.2565 49.2396 53.4631 50.0425 52 53C51.6365 53.62 51.273 54.2401 50.8984 54.8789C47.5183 61.6757 47.2252 68.9663 46.7708 76.4241C46.3889 82.0184 45.3301 85.9233 43 91C42.5693 93.2785 42.2114 95.5724 41.9375 97.875C41.5273 101.305 41.5273 101.305 41 104C40.01 104.495 40.01 104.495 39 105C38.2278 60.5832 38.2278 60.5832 50.1367 45.8125C67.5519 28.872 98.7818 28.2807 120 38Z" fill="#941A01"/>
<path d="M168 105C171.697 107.465 171.738 108.678 172.875 112.875C175.903 123.267 180.266 132.807 185.233 142.394C187.185 146.196 188.715 149.909 190 154C190.371 154.66 190.742 155.32 191.125 156C192.312 158.714 192.133 161.074 192 164C190.515 164.495 190.515 164.495 189 165C189.041 166.052 189.082 167.104 189.125 168.188C189.008 171.759 188.653 173.878 187 177C183.899 178.55 181.421 178.29 178 178C175.062 176 175.062 176 173 174C173.99 174 174.98 174 176 174C176.33 171.36 176.66 168.72 177 166C175.68 166.66 174.36 167.32 173 168C171.719 158.041 170.847 148.163 170.5 138.125C170.196 129.553 169.745 121.208 167.41 112.902C166.813 110.133 167.439 107.744 168 105Z" fill="#992402"/>
<path d="M160 51C167.912 58.9118 166.32 77.1873 166.483 87.6521C166.658 94.1973 167.809 99.8305 170 106C169.67 106 169.34 106 169 106C168.773 107.279 168.546 108.557 168.312 109.875C167.318 113.791 167.318 113.791 164.812 115.438C161.556 116.089 158.288 116.54 155 117C155.016 116.321 155.031 115.642 155.048 114.943C155.309 101.904 155.441 89.6637 152 77C151.571 75.3429 151.571 75.3429 151.133 73.6523C150.453 71.0911 149.745 68.5428 149 66C149.583 65.9343 150.165 65.8685 150.766 65.8008C153.898 64.6781 154.887 62.9064 156.75 60.1875C157.364 59.3148 157.977 58.4421 158.609 57.543C160.32 54.8981 160.32 54.8981 160 51Z" fill="#E06A37"/>
<path d="M121 120C121.495 124.455 121.495 124.455 122 129C123.32 129 124.64 129 126 129C127.354 131.709 127.065 134.009 127 137C127.66 137 128.32 137 129 137C129 135.02 129 133.04 129 131C129.33 131 129.66 131 130 131C130 133.64 130 136.28 130 139C126.761 140.08 124.208 140.204 120.801 140.316C118.988 140.379 118.988 140.379 117.139 140.443C115.876 140.483 114.613 140.522 113.312 140.562C111.401 140.627 111.401 140.627 109.451 140.693C106.301 140.8 103.151 140.902 100 141C100 141.33 100 141.66 100 142C98.2501 142.027 96.5 142.046 94.75 142.062C93.2882 142.08 93.2882 142.08 91.7969 142.098C89.2988 142.01 87.4001 141.6 85 141C82.1911 140.737 79.3917 140.511 76.5781 140.316C74.8958 140.192 73.2135 140.068 71.5312 139.943C68.8941 139.752 66.2568 139.563 63.6191 139.378C61.0633 139.197 58.5082 139.007 55.9531 138.816C55.1758 138.764 54.3984 138.712 53.5975 138.658C52.8502 138.602 52.1029 138.545 51.333 138.487C50.6878 138.441 50.0425 138.395 49.3777 138.348C45.8684 137.835 42.4408 136.86 39 136C39 141.61 39 147.22 39 153C37.68 153 36.36 153 35 153C35 149.37 35 145.74 35 142C35.66 142 36.32 142 37 142C37 139.03 37 136.06 37 133C38.0257 133.094 38.0257 133.094 39.0721 133.19C46.2098 133.843 53.3479 134.491 60.4863 135.136C63.1479 135.377 65.8094 135.62 68.4707 135.864C72.3031 136.215 76.1359 136.561 79.9688 136.906C81.7442 137.07 81.7442 137.07 83.5555 137.238C89.398 137.76 95.1343 138.126 101 138C99.35 137.67 97.7 137.34 96 137C97.0625 135.062 97.0625 135.062 99 133C102.688 132.25 102.688 132.25 106 132C106.33 130.68 106.66 129.36 107 128C109.475 127.505 109.475 127.505 112 127C112.082 126.402 112.165 125.804 112.25 125.188C113.805 120.652 116.456 120 121 120Z" fill="#D54909"/>
<path d="M126 10C130.694 12.6669 132.552 16.3658 135 21C135.33 21.33 135.66 21.66 136 22C136.072 23.6861 136.084 25.375 136.062 27.0625C136.053 27.9816 136.044 28.9007 136.035 29.8477C136.024 30.5579 136.012 31.2682 136 32C136.719 32.1057 137.439 32.2114 138.18 32.3203C141.272 33.0655 143.422 34.2133 146.125 35.875C146.973 36.3881 147.821 36.9011 148.695 37.4297C150.756 38.8339 152.422 40.0749 154 42C154.188 44.6875 154.188 44.6875 154 47C153.01 47.495 153.01 47.495 152 48C149.5 46.1875 149.5 46.1875 147 44C147 43.01 147 42.02 147 41C146.319 40.9588 145.639 40.9175 144.938 40.875C140.745 39.6261 138.141 36.9597 135 34C135 35.32 135 36.64 135 38C132.949 38.2279 130.898 38.4557 128.848 38.6836C126.989 38.8189 126.989 38.8189 126 40C124 41 124 41 121.617 40.2227C120.712 39.8398 119.807 39.457 118.875 39.0625C117.965 38.6822 117.055 38.302 116.117 37.9102C115.419 37.6098 114.72 37.3095 114 37C114 36.34 114 35.68 114 35C111.69 34.01 109.38 33.02 107 32C107.988 29.9844 107.988 29.9844 110 28C112.895 27.8688 115.342 27.9368 118.188 28.25C119.312 28.3486 119.312 28.3486 120.459 28.4492C122.308 28.6141 124.154 28.8046 126 29C126.143 27.9056 126.286 26.8112 126.434 25.6836C126.931 22.4489 127.656 19.9573 129 17C123.29 17.368 119.075 18.1531 114 21C113.34 21 112.68 21 112 21C112.33 18.03 112.66 15.06 113 12C117.299 9.85031 121.276 9.24153 126 10Z" fill="#FC791D"/>
<path d="M45 108C48.3127 108.141 51.6251 108.289 54.9375 108.438C55.8637 108.477 56.7899 108.516 57.7441 108.557C59.1218 108.619 59.1218 108.619 60.5273 108.684C61.7763 108.739 61.7763 108.739 63.0505 108.795C65.4699 108.963 67.8445 109.213 70.2507 109.502C74.9912 110.043 79.6932 110.202 84.4609 110.281C85.3322 110.3 86.2034 110.318 87.101 110.337C89.8589 110.395 92.6169 110.448 95.375 110.5C118.033 110.927 118.033 110.927 127 112C126 114 126 114 123.062 115.438C119.783 116.796 119.783 116.796 118 120C116.68 120 115.36 120 114 120C113.34 120.99 112.68 121.98 112 123C108.88 122.497 106.274 121.715 103.312 120.555C96.4057 118.231 89.1532 117.986 81.9375 117.438C73.3428 116.751 64.7557 116.041 56.1914 115.035C54.9056 114.886 53.6199 114.736 52.2952 114.582C49 114 49 114 45 112C45 115.3 45 118.6 45 122C43.68 121.67 42.36 121.34 41 121C41.99 120.67 42.98 120.34 44 120C43.9884 119.385 43.9768 118.77 43.9648 118.137C43.9558 117.328 43.9468 116.52 43.9375 115.688C43.9259 114.887 43.9143 114.086 43.9023 113.262C44 111 44 111 45 108Z" fill="#FAA870"/>
<path d="M125 42C129.609 43.491 132.533 45.6945 136 49C136 49.99 136 50.98 136 52C135.34 52 134.68 52 134 52C134 52.66 134 53.32 134 54C132.357 55.0379 130.688 56.0357 129 57C126.652 58.9317 126.652 58.9317 126.625 62.375C125.896 66.6013 125.38 67.4678 122 70C119.125 70.8857 116.227 71.291 113.25 71.6875C112.477 71.8042 111.703 71.9208 110.906 72.041C105.948 72.7772 100.975 73.3923 96 74C95.67 72.68 95.34 71.36 95 70C99.4208 65.9554 103.642 62.8935 108.984 60.1758C111.033 58.9806 112.409 57.7461 114 56C116 53.8125 116 53.8125 118 52C118.99 52 119.98 52 121 52C121.268 51.3606 121.536 50.7212 121.812 50.0625C123 48 123 48 126 47C125.67 45.35 125.34 43.7 125 42Z" fill="#BB3402"/>
<path d="M137 54C137.73 55.8477 137.73 55.8477 138.188 58.0625C138.346 58.796 138.505 59.5295 138.668 60.2852C138.778 60.8511 138.887 61.417 139 62C139.66 62 140.32 62 141 62C141.09 67.5828 140.38 71.1066 136.562 75.3125C135.945 75.9274 135.328 76.5423 134.691 77.1758C132.917 78.9147 132.917 78.9147 131.965 81.1055C131 83 131 83 128 85C126.68 85 125.36 85 124 85C124 81.37 124 77.74 124 74C123.113 74.6187 122.226 75.2375 121.312 75.875C116.73 78.8145 113.48 80.3131 108 80C107.34 78.68 106.68 77.36 106 76C108.113 73.6512 109.832 72.4662 112.812 71.4375C113.512 71.19 114.212 70.9425 114.934 70.6875C116.741 70.086 118.558 69.5096 120.375 68.9375C123.115 68.1699 123.115 68.1699 125 66C125.103 64.9069 125.206 63.8138 125.312 62.6875C126.144 58.2302 127.525 56.813 131 54C134 53 134 53 137 54Z" fill="#EF752C"/>
<path d="M154 96C154.33 96 154.66 96 155 96C155.33 102.6 155.66 109.2 156 116C161.445 115.01 161.445 115.01 167 114C162.33 117.503 160.586 117.535 155 118C154.909 119.174 154.909 119.174 154.816 120.371C154.733 121.383 154.649 122.395 154.562 123.438C154.481 124.447 154.4 125.456 154.316 126.496C154 129 154 129 153 130C152.8 131.932 152.8 131.932 152.812 134.188C152.791 135.323 152.791 135.323 152.77 136.48C152.9 139.095 152.9 139.095 154.016 141.78C155.043 145.139 155.156 147.546 154.977 151.035C154.925 152.175 154.873 153.316 154.82 154.49C154.756 155.669 154.691 156.848 154.625 158.062C153.525 174.588 153.525 174.588 155 191C155.722 190.237 156.444 189.474 157.188 188.688C159.725 186.263 161.839 184.497 165 183C166.485 183.495 166.485 183.495 168 184C167.67 184.66 167.34 185.32 167 186C168.485 186.99 168.485 186.99 170 188C170 188.66 170 189.32 170 190C168.554 190.507 168.554 190.507 167.078 191.023C165.802 191.474 164.526 191.924 163.25 192.375C162.616 192.597 161.982 192.818 161.328 193.047C157.575 194.368 157.575 194.368 154.031 196.156C150.854 197.476 147.629 197.208 144.25 197.125C143.553 197.116 142.855 197.107 142.137 197.098C140.424 197.074 138.712 197.038 137 197C137 196.67 137 196.34 137 196C141.62 195.67 146.24 195.34 151 195C151.33 194.01 151.66 193.02 152 192C151.34 192 150.68 192 150 192C148.828 183.168 148.672 174.323 148.448 165.429C148.273 156.399 148.273 156.399 147.473 147.41C146.692 141.279 146.895 135.106 146.938 128.938C146.942 127.69 146.947 126.443 146.951 125.158C146.963 122.105 146.979 119.053 147 116C147.33 116 147.66 116 148 116C148.99 130.52 149.98 145.04 151 160C151.713 148.303 151.713 148.303 150 137C149.92 135.592 149.892 134.18 149.902 132.77C149.906 131.967 149.909 131.165 149.912 130.338C149.92 129.505 149.929 128.671 149.938 127.812C149.942 126.968 149.947 126.123 149.951 125.252C149.963 123.168 149.981 121.084 150 119C150.99 119 151.98 119 153 119C153.33 111.41 153.66 103.82 154 96Z" fill="#D15523"/>
<path d="M40 67C40.33 67 40.66 67 41 67C41.0668 70.8066 41.1147 74.2975 40.5 78.0625C39.8468 83.2061 39.8937 88.2593 39.9375 93.4375C39.942 94.4552 39.9465 95.4729 39.9512 96.5215C39.9629 99.0144 39.9793 101.507 40 104C40.098 103.178 40.1959 102.355 40.2969 101.508C42.3532 86.1562 42.3532 86.1562 46 81C48.6367 80.2344 48.6367 80.2344 51 80C51.0748 80.5917 51.1495 81.1834 51.2266 81.793C51.9616 86.2101 52.5605 89.1538 56.125 92.0625C57.0737 92.7019 58.0225 93.3412 59 94C55.6644 98.5129 53.6671 100.682 48 102C48.33 102.99 48.66 103.98 49 105C53.96 105.943 58.8451 106.302 63.875 106.562C64.6588 106.606 65.4425 106.649 66.25 106.693C68.1665 106.799 70.0832 106.9 72 107C72 107.33 72 107.66 72 108C68.6255 108.198 65.2504 108.382 61.875 108.562C60.448 108.647 60.448 108.647 58.9922 108.732C54.1621 108.984 49.7581 109.081 45 108C44.67 111.96 44.34 115.92 44 120C40 119 40 119 38.2749 116.349C36.9185 112.786 36.613 110.213 36.6016 106.414C36.5958 105.16 36.59 103.906 36.584 102.614C36.5975 101.297 36.6111 99.9812 36.625 98.625C36.6277 97.9555 36.6303 97.2859 36.6331 96.5961C36.6805 86.4583 37.3648 76.8192 40 67Z" fill="#FB9145"/>
<path d="M34 113C34.66 113 35.32 113 36 113C36.2307 113.603 36.4614 114.207 36.6992 114.828C39.4274 121.572 39.4274 121.572 45 126C47.8562 126.567 50.6789 126.999 53.5742 127.312C54.3747 127.539 55.1752 127.766 56 128C56.677 129.328 57.3438 130.661 58 132C63.9498 133.917 70.7987 133.653 77 134C78.1511 134.09 79.3022 134.18 80.4882 134.273C87.497 134.619 91.0999 133.876 96.5898 129.535C101.202 126.597 106.68 125.937 112 125C112 125.66 112 126.32 112 127C111.196 127.268 110.391 127.536 109.562 127.812C108.717 128.204 107.871 128.596 107 129C106.505 130.485 106.505 130.485 106 132C104.187 132.914 104.187 132.914 102 133.625C99.2573 134.411 99.2573 134.411 97 136C99.64 136.66 102.28 137.32 105 138C105 138.33 105 138.66 105 139C96.5264 139.151 88.2294 138.714 79.7968 137.906C78.593 137.795 77.3892 137.684 76.1489 137.57C72.3488 137.218 68.5494 136.859 64.75 136.5C62.1549 136.259 59.5599 136.018 56.9648 135.777C50.6426 135.191 44.3211 134.598 38 134C37.67 136.31 37.34 138.62 37 141C36.67 141 36.34 141 36 141C33.7038 122.18 33.7038 122.18 34 113Z" fill="#ED894B"/>
<path d="M146 66C148.632 68.6317 149.316 71.1848 150.563 74.6875C150.997 75.8876 151.431 77.0877 151.879 78.3242C154.291 86.2329 154.152 93.9917 154.125 102.188C154.129 103.362 154.133 104.537 154.137 105.748C154.135 106.877 154.134 108.005 154.133 109.168C154.132 110.192 154.131 111.215 154.129 112.27C154.015 114.68 153.692 116.699 153 119C152.01 119 151.02 119 150 119C150.141 121.938 150.287 124.875 150.438 127.812C150.477 128.646 150.516 129.479 150.557 130.338C150.599 131.14 150.64 131.943 150.684 132.77C150.72 133.508 150.757 134.246 150.795 135.007C150.948 137.207 150.948 137.207 152 140C152.084 142.284 152.107 144.57 152.098 146.855C152.096 147.517 152.095 148.179 152.093 148.86C152.088 150.969 152.075 153.078 152.063 155.188C152.058 156.619 152.053 158.051 152.049 159.482C152.038 162.988 152.021 166.494 152 170C151.67 170 151.34 170 151 170C150.513 163.396 150.035 156.792 149.563 150.188C149.492 149.205 149.422 148.223 149.349 147.211C148.519 135.557 147.802 123.931 147.5 112.25C147.254 102.895 146.405 93.7582 145.016 84.5029C144.232 79.2606 143.858 74.3026 144 69C144.33 69 144.66 69 145 69C145.33 70.32 145.66 71.64 146 73C146 70.69 146 68.38 146 66Z" fill="#9B2906"/>


<path d="M124 38C127.63 38 131.26 38 135 38C135.503 40.5161 136.006 43.0331 136.438 45.5625C136.993 47.9695 137.805 49.8487 139 52C139.66 52 140.32 52 141 52C145 58.75 145 58.75 145 61C146.65 61.33 148.3 61.66 150 62C150 62.66 150 63.32 150 64C150.66 63.67 151.32 63.34 152 63C152 61.35 152 59.7 152 58C152.66 58 153.32 58 154 58C154 57.34 154 56.68 154 56C155.311 54.645 156.647 53.3133 158 52C158.66 51.01 159.32 50.02 160 49C160.674 53.5517 160.762 55.8203 158.219 59.7578C156.21 62.24 154.159 64.6482 152 67C151.34 66.67 150.68 66.34 150 66C150.182 66.62 150.364 67.2401 150.551 67.8789C154.832 82.9622 156.428 96.394 156 112C155.67 112 155.34 112 155 112C154.95 111.35 154.9 110.701 154.848 110.031C154.614 107.041 154.369 104.052 154.125 101.062C154.046 100.041 153.968 99.0193 153.887 97.9668C153.13 88.8571 151.362 80.5606 148.375 71.9375C148.146 71.2627 147.916 70.5879 147.68 69.8926C147.124 68.2603 146.563 66.6299 146 65C145.34 65.66 144.68 66.32 144 67C143.67 66.34 143.34 65.68 143 65C142.711 66.1344 142.423 67.2687 142.125 68.4375C141.754 69.6131 141.382 70.7887 141 72C140.01 72.495 140.01 72.495 139 73C139.66 69.37 140.32 65.74 141 62C140.34 62 139.68 62 139 62C138.807 61.4457 138.613 60.8914 138.414 60.3203C138.023 59.2336 138.023 59.2336 137.625 58.125C137.242 57.0461 137.242 57.0461 136.852 55.9453C136.061 53.8184 136.061 53.8184 134 52C134.66 52 135.32 52 136 52C134.541 48.3135 132.698 46.8386 129.375 44.75C128.149 43.9688 128.149 43.9688 126.898 43.1719C126.272 42.7852 125.645 42.3984 125 42C125.66 43.65 126.32 45.3 127 47C126.196 47.4537 125.391 47.9075 124.562 48.375C121.911 49.7473 121.911 49.7473 121 52C120.34 51.67 119.68 51.34 119 51C119.66 50.2987 120.32 49.5975 121 48.875C123.318 45.5431 123.27 43.9561 123 40C123.33 39.67 123.66 39.34 124 39C124 38.67 124 38.34 124 38Z" fill="#DD5112"/>
<path d="M168 105C171.697 107.465 171.738 108.678 172.875 112.875C174.994 120.218 177.575 127.39 181.141 134.168C182.245 136.523 182.143 138.432 182 141C181.381 141.062 180.763 141.124 180.125 141.188C177.722 141.829 177.722 141.829 176.75 144.562C176.503 145.367 176.255 146.171 176 147C172.125 145.125 172.125 145.125 171 144C170.811 141.392 170.672 138.799 170.563 136.188C170.172 128.326 169.528 120.494 167.41 112.879C166.808 110.121 167.441 107.733 168 105Z" fill="#802107"/>
<path d="M46 113C60.0655 113.73 60.0655 113.73 66.625 114.938C75.6614 116.593 84.8561 117.201 94 118C90.3984 121.961 90.3984 121.961 86.8125 122.312C84 122 84 122 83 121C81.1673 120.954 79.3329 120.962 77.5 121C75.6671 121.038 73.8327 121.046 72 121C71.67 120.67 71.34 120.34 71 120C69.6525 119.769 68.2962 119.588 66.9375 119.438C65.6381 119.293 64.3388 119.149 63 119C62.67 119.66 62.34 120.32 62 121C58.4516 124.062 54.8332 126.866 50 127C49.01 126.34 48.02 125.68 47 125C47.2062 124.422 47.4125 123.845 47.625 123.25C48.0942 120.435 47.3127 119.471 46 117C46 115.68 46 114.36 46 113Z" fill="#FABF9B"/>
<path d="M187 152C188.938 152.938 188.938 152.938 191 155C191.662 157.986 191.872 160.949 192 164C191.01 164.33 190.02 164.66 189 165C189.041 166.052 189.083 167.104 189.125 168.188C189.008 171.759 188.653 173.878 187 177C183.9 178.55 181.421 178.29 178 178C175.062 176 175.062 176 173 174C173.99 174 174.98 174 176 174C176.186 172.701 176.371 171.401 176.562 170.062C177.649 165.033 180.03 161.897 183.344 158.043C184.92 156.099 185.978 154.274 187 152Z" fill="#A6451E"/>
<path d="M138 73C139.345 75.6903 138.674 77.6725 138.254 80.5625C137.864 84.3031 137.98 88.0216 138.062 91.7773C138 94 138 94 137 95C136.5 97.9663 136.099 100.941 135.695 103.922C134.963 107.165 133.968 109.33 132 112C131.34 112 130.68 112 130 112C130.33 110.02 130.66 108.04 131 106C132.485 105.505 132.485 105.505 134 105C134 103.02 134 101.04 134 99C133.46 99.3081 132.92 99.6162 132.363 99.9336C129.625 101.169 127.155 101.609 124.188 102.062C122.608 102.308 122.608 102.308 120.996 102.559C120.007 102.704 119.019 102.85 118 103C116.842 103.172 116.842 103.172 115.66 103.348C114.108 103.573 112.554 103.788 111 104C111.495 102.515 111.495 102.515 112 101C113.485 101.99 113.485 101.99 115 103C115 102.34 115 101.68 115 101C115.626 100.83 116.253 100.66 116.898 100.484C117.716 100.242 118.533 99.9997 119.375 99.75C120.187 99.518 120.999 99.2859 121.836 99.0469C124.458 97.7785 124.994 96.6758 126 94C125.385 94.156 124.77 94.312 124.137 94.4727C123.328 94.6673 122.52 94.862 121.688 95.0625C120.487 95.3583 120.487 95.3583 119.262 95.6602C116.152 96.1275 113.954 94.9848 111 94C111 93.34 111 92.68 111 92C111.565 92.0157 112.13 92.0314 112.712 92.0476C115.267 92.1099 117.82 92.149 120.375 92.1875C121.264 92.2126 122.154 92.2378 123.07 92.2637C123.921 92.2733 124.772 92.283 125.648 92.293C126.434 92.3087 127.219 92.3244 128.029 92.3406C128.679 92.2282 129.33 92.1158 130 92C132.224 88.6639 132.925 85.8558 134 82C136.629 74.3713 136.629 74.3713 138 73Z" fill="#DF4F09"/>
<path d="M58.7422 185.48C61.9662 186.222 65.2071 186.285 68.5 186.438C73.294 186.696 77.9584 187.064 82.6875 187.938C96.7111 190.47 111.044 191.261 125.273 191.483C130.923 191.639 134.962 192.398 140 195C140 195.33 140 195.66 140 196C115.811 196.405 115.811 196.405 111 194C109.489 193.812 107.972 193.676 106.453 193.567C105.507 193.497 104.561 193.426 103.586 193.354C102.041 193.244 102.041 193.244 100.465 193.133C98.2702 192.968 96.0755 192.802 93.8809 192.637C90.4324 192.381 86.9839 192.128 83.5349 191.88C70.1953 190.914 57.1078 189.716 44 187C44 186.67 44 186.34 44 186C48.8082 185.062 53.9317 184.154 58.7422 185.48Z" fill="#541C14"/>
<path d="M108 42C108.767 42.1637 109.534 42.3274 110.324 42.4961C112.953 42.9912 115.333 43.0762 118 43C118.33 43.66 118.66 44.32 119 45C118.134 45.8353 118.134 45.8353 117.25 46.6875C114.932 48.9688 114.932 48.9688 113 51.6875C110.934 54.0768 110.073 54.6708 107 55C107 55.66 107 56.32 107 57C105.133 58.015 103.256 59.0114 101.375 60C100.331 60.5569 99.2867 61.1138 98.2109 61.6875C94.8585 63.0578 92.5805 63.2581 89 63C89.6394 62.2575 90.2787 61.515 90.9375 60.75C93.1228 58.2883 93.1228 58.2883 93.3125 55.9375C94.3246 53.0851 96.4435 52.5999 99.0117 51.2812C102.698 48.9058 105.286 45.3987 108 42Z" fill="#FAC09C"/>
<path d="M37 133C44.2327 133.631 51.4652 134.265 58.6972 134.904C62.0555 135.2 65.4139 135.496 68.7725 135.788C72.635 136.125 76.4972 136.467 80.3594 136.809C81.5637 136.913 82.7679 137.017 84.0087 137.124C85.69 137.274 85.69 137.274 87.4053 137.427C88.3912 137.514 89.3772 137.601 90.393 137.69C92.6782 137.962 94.7883 138.378 97 139C97 139.66 97 140.32 97 141C87.3799 141.239 77.879 140.597 68.2988 139.828C65.7415 139.624 63.1834 139.433 60.625 139.242C58.9739 139.113 57.3229 138.983 55.6719 138.852C54.5435 138.769 54.5435 138.769 53.3923 138.684C52.6708 138.624 51.9494 138.564 51.2061 138.502C50.5849 138.454 49.9638 138.405 49.3239 138.354C45.8346 137.822 42.4243 136.856 39 136C39 141.61 39 147.22 39 153C37.68 153 36.36 153 35 153C35 149.37 35 145.74 35 142C35.66 142 36.32 142 37 142C37 139.03 37 136.06 37 133Z" fill="#9C2E10"/>
<path d="M128 116C128.66 116.33 129.32 116.66 130 117C130.638 119.305 131.02 121.615 131.438 123.969C131.623 124.639 131.809 125.309 132 126C132.66 126.33 133.32 126.66 134 127C139.265 138.955 136.62 151.534 135 164C134.34 164 133.68 164 133 164C133 156.41 133 148.82 133 141C128.05 141.495 128.05 141.495 123 142C118.999 142.181 115.005 142.185 111 142.188C109.965 142.2 108.93 142.212 107.863 142.225C106.877 142.227 105.891 142.228 104.875 142.23C103.986 142.235 103.096 142.239 102.18 142.243C100 142 100 142 98 140C108.56 139.67 119.12 139.34 130 139C129.34 134.71 128.68 130.42 128 126C127.927 122.625 127.864 119.356 128 116Z" fill="#801C03"/>
<path d="M88.8125 33.9375C89.5054 33.942 90.1982 33.9465 90.9121 33.9512C92.6081 33.9629 94.3041 33.9808 96 34C96.66 35.32 97.32 36.64 98 38C97 39 97 39 94.4375 39.0625C93.2309 39.0316 93.2309 39.0316 92 39C91.34 40.98 90.68 42.96 90 45C89.67 45 89.34 45 89 45C88.505 42.03 88.505 42.03 88 39C87.34 39 86.68 39 86 39C85.67 39.66 85.34 40.32 85 41C82.5859 41.3086 82.5859 41.3086 79.375 41.4375C72.7145 41.8284 66.5082 43.0198 60.0195 44.4766C57 45 57 45 55 44C57.1798 41.5487 58.9448 40.4389 62.0547 39.4297C63.2245 39.0449 63.2245 39.0449 64.418 38.6523C65.6342 38.2676 65.6342 38.2676 66.875 37.875C68.0796 37.4786 68.0796 37.4786 69.3086 37.0742C75.9697 34.9124 81.7728 33.8499 88.8125 33.9375Z" fill="#5F1A0E"/>
<path d="M52.75 57.8125C55.9674 57.9981 58.1076 58.6389 61 60C61 61.65 61 63.3 61 65C62.32 65.33 63.64 65.66 65 66C65 66.66 65 67.32 65 68C63.02 67.34 61.04 66.68 59 66C59 66.99 59 67.98 59 69C60.32 69.33 61.64 69.66 63 70C61.7962 72.4936 60.5457 74.6814 59 77C57.68 77 56.36 77 55 77C55.33 79.64 55.66 82.28 56 85C53.4234 83.0833 52.9996 81.9979 52.3398 78.7852C52.2071 77.5567 52.0743 76.3282 51.9375 75.0625C51.4755 70.8779 51.0334 67.6835 49 64C48.8125 61.3125 48.8125 61.3125 49 59C50 58 50 58 52.75 57.8125Z" fill="#FA9955"/>
<path d="M118 52C118.33 52.99 118.66 53.98 119 55C118.35 55.5878 118.35 55.5878 117.688 56.1875C115.871 57.979 115.871 57.979 114.688 60.5C112.531 63.6944 110.548 64.5807 107 66C106.113 66.1444 105.226 66.2887 104.312 66.4375C101.305 67.169 100.713 68.5172 99 71C99.6059 70.8066 100.212 70.6133 100.836 70.4141C106.156 68.7606 111.362 67.4739 116.871 66.625C120.713 65.4972 122.475 62.4819 124.688 59.3125C125.124 58.6899 125.561 58.0673 126.012 57.4258C126.338 56.9553 126.664 56.4848 127 56C127.66 56.33 128.32 56.66 129 57C128.34 57.66 127.68 58.32 127 59C126.876 60.1138 126.753 61.2275 126.625 62.375C125.896 66.6013 125.38 67.4679 122 70C119.125 70.8857 116.227 71.291 113.25 71.6875C112.477 71.8042 111.703 71.9208 110.906 72.041C105.948 72.7772 100.975 73.3923 96 74C95.67 72.68 95.34 71.36 95 70C99.4208 65.9554 103.642 62.8935 108.984 60.1758C111.033 58.981 112.403 57.7384 114 56C115.333 54.6667 116.667 53.3333 118 52Z" fill="#D94F0C"/>
<path d="M130 141C130.413 175.696 130.413 175.696 128 190C127.01 190 126.02 190 125 190C125.138 189.332 125.276 188.663 125.418 187.975C127.117 178.943 127.401 170.093 127.562 160.937C127.607 158.695 127.653 156.453 127.705 154.21C127.751 152.2 127.789 150.19 127.826 148.179C128 145 128 145 129 142C128.34 142.33 127.68 142.66 127 143C126.531 145.816 126.531 145.816 126.375 149.062C126.3 150.167 126.225 151.272 126.148 152.41C126.099 153.265 126.05 154.119 126 155C125.01 155 124.02 155 123 155C123.33 151.37 123.66 147.74 124 144C122.886 144.165 121.772 144.33 120.625 144.5C112.353 145.519 104.25 144.983 96 144C96 143.67 96 143.34 96 143C101.664 142.084 107.271 141.698 113 141.437C113.864 141.394 114.727 141.351 115.617 141.307C120.418 141.077 125.193 140.983 130 141Z" fill="#D54C12"/>
<path d="M146 66C148.632 68.6317 149.316 71.1848 150.563 74.6875C150.997 75.8876 151.431 77.0877 151.879 78.3242C154.297 86.2522 154.152 94.0341 154.125 102.25C154.129 103.433 154.133 104.617 154.137 105.836C154.135 106.968 154.134 108.1 154.133 109.266C154.132 110.295 154.131 111.324 154.129 112.384C154 115 154 115 153 118C152.34 118 151.68 118 151 118C150.884 116.814 150.768 115.629 150.649 114.407C150.217 110 149.782 105.592 149.346 101.185C149.158 99.279 148.971 97.3731 148.784 95.467C148.516 92.7239 148.245 89.9811 147.973 87.2383C147.89 86.3891 147.808 85.54 147.723 84.6651C147.328 80.7144 146.798 76.8922 146 73C145.962 70.667 145.954 68.3329 146 66Z" fill="#670D03"/>
<path d="M80 43C85.75 43.875 85.75 43.875 88 45C88 45.66 88 46.32 88 47C89.32 46.01 90.64 45.02 92 44C91.34 48.29 90.68 52.58 90 57C88.35 57.33 86.7 57.66 85 58C82.875 56.25 82.875 56.25 81 54C78.2404 50.7148 74.9282 49.6004 71 48C70.67 47.67 70.34 47.34 70 47C67.6718 46.6324 65.3382 46.2976 63 46C63 45.67 63 45.34 63 45C73.3537 43.6932 73.3537 43.6932 78 45C78.66 45 79.32 45 80 45C80 44.34 80 43.68 80 43Z" fill="#F9A36E"/>
<path d="M120 38C121.934 39.668 121.934 39.668 123 41C121.989 40.67 120.979 40.34 119.938 40C113.45 38.3341 106.646 38.8442 100 39C99.67 41.31 99.34 43.62 99 46C98.01 46 97.02 46 96 46C94.8416 41.9457 95.1631 39.7819 97 36C94.7993 33.7993 90.5306 34.6363 87.5708 34.6018C79.6403 34.7343 72.3679 37.0923 64.8584 39.4487C62.5967 40.1196 60.3241 40.6004 58 41C60.2336 38.5103 62.3145 37.2016 65.375 35.875C66.1252 35.5424 66.8755 35.2098 67.6484 34.8672C82.944 29.2266 105.286 31.2602 120 38Z" fill="#891F08"/>
<path d="M76 115C91.18 115 106.36 115 122 115C120.68 116.65 119.36 118.3 118 120C116.68 120 115.36 120 114 120C113.34 120.99 112.68 121.98 112 123C108.856 122.493 106.008 121.655 103.031 120.562C97.5855 118.727 92.1253 118.001 86.4375 117.312C85.4288 117.183 84.4201 117.053 83.3809 116.92C80.9215 116.605 78.4614 116.299 76 116C76 115.67 76 115.34 76 115Z" fill="#FC9E58"/>

<path d="M139 151C139.66 151.33 140.32 151.66 141 152C140.885 154.667 140.758 157.333 140.625 160C140.579 161.116 140.579 161.116 140.531 162.254C140.334 166.033 139.951 169.527 138.969 173.188C138.085 176.666 137.786 179.438 137.875 183C137.902 184.423 137.902 184.423 137.93 185.875C137.953 186.576 137.976 187.278 138 188C137.01 188 136.02 188 135 188C135 188.99 135 189.98 135 191C135.743 191.083 136.485 191.165 137.25 191.25C140.512 192.14 141.81 193.485 144 196C141.045 195.588 138.41 195.175 135.656 194C132.756 192.908 130.272 192.598 127.188 192.375C126.212 192.3 125.236 192.225 124.23 192.148C123.494 192.099 122.758 192.05 122 192C124.575 189.425 126.476 189.587 130 189C130.66 188.34 131.32 187.68 132 187C132.33 187.33 132.66 187.66 133 188C133.061 187.036 133.121 186.072 133.184 185.078C133.267 183.815 133.351 182.552 133.438 181.25C133.519 179.997 133.6 178.744 133.684 177.453C133.925 174.817 134.243 172.52 135 170C135.66 170 136.32 170 137 170C137.061 168.964 137.121 167.927 137.184 166.859C137.268 165.49 137.353 164.12 137.438 162.75C137.496 161.727 137.496 161.727 137.557 160.684C137.767 157.356 138.019 154.197 139 151Z" fill="#B13003"/>
<path d="M137 54C137.73 55.8477 137.73 55.8477 138.188 58.0625C138.346 58.796 138.505 59.5295 138.668 60.2852C138.778 60.8511 138.887 61.417 139 62C139.66 62 140.32 62 141 62C141 62.66 141 63.32 141 64C138.69 64.33 136.38 64.66 134 65C134 65.66 134 66.32 134 67C133.29 67.205 132.579 67.4099 131.848 67.6211C130.929 67.8905 130.009 68.1599 129.062 68.4375C127.688 68.8378 127.688 68.8378 126.285 69.2461C124.06 69.7903 124.06 69.7903 123 71C121 71.0408 119 71.0425 117 71C117 70.67 117 70.34 117 70C117.949 69.7113 118.898 69.4225 119.875 69.125C123.052 68.2317 123.052 68.2317 125 66C125.103 64.9069 125.206 63.8138 125.312 62.6875C126.144 58.2302 127.525 56.813 131 54C134 53 134 53 137 54Z" fill="#EC6A21"/>
<path d="M154 96C154.33 96 154.66 96 155 96C155.33 102.6 155.66 109.2 156 116C161.445 115.01 161.445 115.01 167 114C162.33 117.503 160.586 117.535 155 118C154.939 118.782 154.879 119.565 154.816 120.371C154.733 121.383 154.649 122.395 154.563 123.438C154.481 124.447 154.4 125.456 154.316 126.496C154 129 154 129 153 130C152.901 131.456 152.87 132.916 152.875 134.375C152.872 135.166 152.87 135.958 152.867 136.773C152.914 139.173 152.914 139.173 154 142C154.525 151.317 153.66 160.707 153 170C152.67 170 152.34 170 152 170C151.975 169.107 151.95 168.214 151.924 167.294C151.829 163.978 151.73 160.663 151.628 157.347C151.584 155.913 151.543 154.478 151.503 153.044C151.445 150.981 151.381 148.918 151.316 146.855C151.261 144.994 151.261 144.994 151.205 143.094C151.129 139.964 151.129 139.964 150 137C149.92 135.592 149.892 134.18 149.902 132.77C149.907 131.566 149.907 131.566 149.912 130.338C149.921 129.505 149.929 128.671 149.938 127.812C149.942 126.968 149.947 126.123 149.951 125.252C149.963 123.168 149.981 121.084 150 119C150.99 119 151.98 119 153 119C153.33 111.41 153.66 103.82 154 96Z" fill="#C2420E"/>
<path d="M35 122C35.66 122 36.32 122 37 122C37.6806 122.763 38.3613 123.526 39.0625 124.312C42.3188 127.292 44.7496 128.166 48.9141 129.324C51 130 51 130 54 132C54 132.66 54 133.32 54 134C54.66 134.33 55.32 134.66 56 135C50.06 134.67 44.12 134.34 38 134C37.67 136.31 37.34 138.62 37 141C36.67 141 36.34 141 36 141C35.1765 134.618 34.8791 128.433 35 122Z" fill="#EF7027"/>
<path d="M46 58C47.2236 61.6709 46.6424 63.1886 45.75 66.9375C43.6952 76.0871 42.9329 85.3887 42.0908 94.7146C41.9771 95.8993 41.8633 97.0841 41.7461 98.3047C41.65 99.377 41.5539 100.449 41.4549 101.554C41.2297 102.765 41.2297 102.765 41 104C40.01 104.495 40.01 104.495 39 105C38.4003 69.8997 38.4003 69.8997 43 63C43.66 63 44.32 63 45 63C45.33 61.35 45.66 59.7 46 58Z" fill="#4E0A03"/>
<path d="M86 38C86.99 38.33 87.98 38.66 89 39C89.33 39.99 89.66 40.98 90 42C90.66 41.01 91.32 40.02 92 39C93.32 39 94.64 39 96 39C96 41.31 96 43.62 96 46C96.66 46.33 97.32 46.66 98 47C97.01 47 96.02 47 95 47C95 46.01 95 45.02 95 44C93.68 44 92.36 44 91 44C90.67 44.99 90.34 45.98 90 47C89.34 47 88.68 47 88 47C88 46.34 88 45.68 88 45C85.36 44.34 82.72 43.68 80 43C80 43.66 80 44.32 80 45C74.4777 46.1296 74.4777 46.1296 72.1562 45.5C69.3909 44.8588 67.0659 45.1358 64.25 45.4375C63.2652 45.5393 62.2803 45.6412 61.2656 45.7461C60.1441 45.8718 60.1441 45.8718 59 46C67.0061 40.6626 75.6474 40.6042 85 41C85.33 40.01 85.66 39.02 86 38Z" fill="#EE6320"/>
<path d="M34 113C34.66 113 35.32 113 36 113C36.2307 113.603 36.4615 114.207 36.6992 114.828C39.4275 121.572 39.4275 121.572 45 126C47.8562 126.567 50.6789 126.999 53.5742 127.312C54.3747 127.539 55.1752 127.766 56 128C56.677 129.328 57.3438 130.661 58 132C61.9417 133.3 66.1887 133.293 70.3125 133.562C71.5668 133.646 72.821 133.73 74.1133 133.816C75.5422 133.907 75.5422 133.907 77 134C76.67 134.66 76.34 135.32 76 136C60.6607 136.388 60.6607 136.388 54 134C53.5385 133.522 53.077 133.044 52.6016 132.551C50.5873 130.6 48.6907 129.949 46.0625 129C42.5868 127.742 39.78 126.477 37 124C37 123.34 37 122.68 37 122C36.01 122.33 35.02 122.66 34 123C34 119.7 34 116.4 34 113Z" fill="#F09154"/>
<path d="M46 82C47.32 82 48.64 82 50 82C50.0735 82.9223 50.0735 82.9223 50.1484 83.8633C50.2232 84.6715 50.298 85.4798 50.375 86.3125C50.4446 87.113 50.5142 87.9135 50.5859 88.7383C50.8957 91.2722 50.8957 91.2722 53 94C52.4828 97.5172 52.4828 97.5172 51 99C48.3294 99.1412 45.6757 99.0425 43 99C42.6459 92.4821 42.961 87.8248 46 82Z" fill="#FBAC75"/>
<path d="M126 113C126.66 113.33 127.32 113.66 128 114C127.988 114.699 127.977 115.397 127.965 116.117C127.956 117.027 127.947 117.937 127.938 118.875C127.926 119.78 127.914 120.685 127.902 121.617C127.838 124.017 127.838 124.017 129 126C129.07 127.874 129.084 129.75 129.062 131.625C129.053 132.628 129.044 133.631 129.035 134.664C129.024 135.435 129.012 136.206 129 137C128.34 137 127.68 137 127 137C126.67 134.36 126.34 131.72 126 129C124.68 129 123.36 129 122 129C120.522 126.043 120.94 123.258 121 120C120.34 120 119.68 120 119 120C119.125 118.188 119.125 118.188 120 116C122.938 114.188 122.938 114.188 126 113Z" fill="#D85A24"/>
<path d="M132 101C132.688 102.75 132.688 102.75 133 105C131.293 107.901 129.844 109.104 127 111C123.814 111.135 123.814 111.135 119.926 110.977C119.242 110.952 118.558 110.927 117.854 110.901C115.673 110.819 113.493 110.722 111.312 110.625C109.833 110.567 108.353 110.509 106.873 110.453C103.248 110.313 99.624 110.16 96 110C96 109.67 96 109.34 96 109C97.5063 108.979 97.5063 108.979 99.043 108.957C108.654 108.675 116.105 106.851 125 103C127.323 102.238 129.631 101.606 132 101Z" fill="#F48845"/>
<path d="M82.6875 107.875C83.5286 107.871 84.3697 107.867 85.2363 107.863C86.4555 107.865 86.4555 107.865 87.6992 107.867C88.795 107.869 88.795 107.869 89.9128 107.871C92 108 92 108 93.9026 108.489C96.5733 109.14 99.1126 109.218 101.859 109.316C102.974 109.358 104.089 109.4 105.238 109.443C106.397 109.483 107.556 109.522 108.75 109.562C109.924 109.606 111.099 109.649 112.309 109.693C115.206 109.799 118.103 109.901 121 110C121 109.67 121 109.34 121 109C123.97 109 126.94 109 130 109C129.67 110.32 129.34 111.64 129 113C128.302 112.934 127.605 112.867 126.886 112.799C115.432 111.807 103.971 111.665 92.4819 111.448C89.7848 111.396 87.0877 111.339 84.3906 111.281C83.581 111.268 82.7714 111.254 81.9373 111.24C76.5706 111.125 71.3283 110.657 66 110C66 109.67 66 109.34 66 109C71.6007 108.048 77.0123 107.849 82.6875 107.875Z" fill="#ED7736"/>
<path d="M131 32C138.085 31.3559 142.149 33.0667 148 37C148.628 37.4189 149.256 37.8379 149.902 38.2695C151.562 39.5 151.562 39.5 154 42C154.375 44.8125 154.375 44.8125 154 47C153.01 47.495 153.01 47.495 152 48C149.5 46.1875 149.5 46.1875 147 44C147 43.01 147 42.02 147 41C146.319 40.9587 145.639 40.9175 144.938 40.875C140.745 39.6261 138.141 36.9597 135 34C135 34.66 135 35.32 135 36C133.68 35.67 132.36 35.34 131 35C131 34.01 131 33.02 131 32Z" fill="#F86F15"/>
<path d="M47.9999 60C48.6666 61.3333 49.3333 62.6667 49.9999 64C50.348 64.5994 50.696 65.1988 51.0546 65.8164C52.3509 68.8107 52.6908 71.7087 53.1249 74.9375C53.2925 76.1428 53.4601 77.348 53.6328 78.5898C53.9392 81.4355 54.0758 84.1435 53.9999 87C53.3399 87.33 52.6799 87.66 51.9999 88C50.6455 85.2912 50.9349 82.9907 50.9999 80C49.3499 80.33 47.6999 80.66 45.9999 81C45.7505 73.7097 46.2766 67.0933 47.9999 60Z" fill="#FA7D26"/>
<path d="M124 38C127.63 38 131.26 38 135 38C135.503 40.5161 136.006 43.0331 136.438 45.5625C136.995 47.9787 137.858 49.8138 139 52C138.492 51.6133 137.984 51.2266 137.461 50.8281C133.387 47.7457 129.284 44.7843 125 42C125.66 43.65 126.32 45.3 127 47C126.196 47.4537 125.391 47.9075 124.562 48.375C121.911 49.7473 121.911 49.7473 121 52C120.34 51.67 119.68 51.34 119 51C119.66 50.2987 120.32 49.5975 121 48.875C123.318 45.5431 123.27 43.9561 123 40C123.33 39.67 123.66 39.34 124 39C124 38.67 124 38.34 124 38Z" fill="#EF5B0A"/>
<path d="M127 157C127.33 157 127.66 157 128 157C128.683 181.922 128.683 181.922 125 190C121.473 192.351 119.971 192.214 115.812 192.125C114.726 192.107 113.639 192.089 112.52 192.07C111.688 192.047 110.857 192.024 110 192C110 191.67 110 191.34 110 191C112.64 191 115.28 191 118 191C118 190.01 118 189.02 118 188C119.312 186.562 119.312 186.562 121 185C123.863 181.807 124.518 179.24 125 175C125.33 175 125.66 175 126 175C126.33 169.06 126.66 163.12 127 157Z" fill="#E85715"/>
<path d="M187 152C187.33 152 187.66 152 188 152C188.955 154.94 189.471 157.051 188.059 159.898C187.169 161.241 186.265 162.575 185.348 163.898C183.301 167.09 182.215 170.419 181 174C179.68 173.67 178.36 173.34 177 173C176.009 166.558 179.404 162.932 183 158C183.777 156.816 184.549 155.63 185.312 154.438C185.869 153.633 186.426 152.829 187 152Z" fill="#6E1405"/>
<path d="M127 142C127.66 142 128.32 142 129 142C128.34 153.55 127.68 165.1 127 177C124.348 174.348 124.372 172.432 123.813 168.75C123.633 167.631 123.454 166.512 123.27 165.359C123 161.994 123.238 159.279 124 156C124.33 155.67 124.66 155.34 125 155C125.209 153.004 125.368 151.003 125.5 149C125.889 143.111 125.889 143.111 127 142Z" fill="#E75E21"/>
<path d="M146 66C149.687 69.6864 150.831 75.343 151.156 80.4609C151.135 82.1058 151.095 83.7505 151.039 85.3945C150.998 88.1602 151.222 90.8111 151.5 93.5625C152.224 101.368 152.084 109.17 152 117C151.67 117 151.34 117 151 117C150.826 115.267 150.826 115.267 150.649 113.499C150.217 109.203 149.782 104.908 149.346 100.612C149.158 98.7547 148.971 96.8973 148.784 95.0398C148.516 92.3661 148.245 89.6928 147.973 87.0195C147.89 86.1923 147.808 85.365 147.723 84.5126C147.324 80.6151 146.783 76.8415 146 73C145.962 70.667 145.954 68.3329 146 66Z" fill="#641509"/>
<path d="M138 68C137.417 71.9619 136.201 74.7739 134.125 78.1875C133.612 79.0473 133.099 79.9071 132.57 80.793C131 83 131 83 128 85C126.68 85 125.36 85 124 85C124.25 82.625 124.25 82.625 125 80C125.639 79.7113 126.279 79.4225 126.938 79.125C127.618 78.7537 128.299 78.3825 129 78C129.309 76.8656 129.619 75.7312 129.938 74.5625C131 71 131 71 133.5 69.0625C136 68 136 68 138 68Z" fill="#F9B58A"/>
<path d="M127 12C127.33 13.32 127.66 14.64 128 16C126.804 16.2681 125.608 16.5362 124.375 16.8125C120.615 17.7391 117.435 19.2005 114 21C113.34 21 112.68 21 112 21C111.875 15.25 111.875 15.25 113 13C118.075 10.6483 121.66 11.0793 127 12Z" fill="#9E1F02"/>
<path d="M115 52C115 52.99 115 53.98 115 55C112.773 56.2957 110.544 57.5867 108.312 58.875C107.687 59.2398 107.061 59.6046 106.416 59.9805C103.018 61.9374 99.6993 63.6561 96 65C96 65.66 96 66.32 96 67C94.02 67.66 92.04 68.32 90 69C90 69.66 90 70.32 90 71C88.35 71.66 86.7 72.32 85 73C85 72.34 85 71.68 85 71C84.34 70.67 83.68 70.34 83 70C85.3417 68.569 87.6403 67.1693 90.125 66C92.0447 65.1044 92.0447 65.1044 93.3413 63.5767C95.2463 61.7659 97.0283 60.8677 99.4141 59.7734C100.257 59.3816 101.1 58.9897 101.969 58.5859C102.845 58.1863 103.722 57.7867 104.625 57.375C106.368 56.5721 108.11 55.7675 109.852 54.9609C110.623 54.6082 111.395 54.2555 112.19 53.8921C113.974 53.1336 113.974 53.1336 115 52Z" fill="#F79F69"/>
<path d="M50 60C52.6482 60.3579 54.5554 60.6824 56.75 62.25C58.3176 64.4446 58.6421 66.3518 59 69C60.32 69.33 61.64 69.66 63 70C62.34 71.32 61.68 72.64 61 74C58.625 74.1875 58.625 74.1875 56 74C54 71 54 71 54 67C53.01 66.67 52.02 66.34 51 66C50.67 64.02 50.34 62.04 50 60Z" fill="#FAB080"/>
<path d="M63 98C62.67 98.99 62.34 99.98 62 101C60.8862 101.103 59.7725 101.206 58.625 101.312C57.4288 101.539 56.2325 101.766 55 102C54.01 103.485 54.01 103.485 53 105C53.785 104.905 54.5701 104.809 55.3789 104.711C61.497 104.065 66.2306 103.771 72 106C72 106.33 72 106.66 72 107C69.3122 107.054 66.6256 107.094 63.9375 107.125C63.1853 107.142 62.4332 107.159 61.6582 107.176C56.7067 107.219 52.6959 106.584 48 105C48 104.01 48 103.02 48 102C59.0941 96.0471 59.0941 96.0471 63 98Z" fill="#F1590B"/>
<path d="M117 118C117 121 117 121 114.91 123.16C111.453 125.346 109.494 125.508 105.438 125.438C104.322 125.436 103.207 125.435 102.059 125.434C98.7605 124.966 97.2979 124.388 95 122C95 121.01 95 120.02 95 119C99.6126 118.819 102.801 119.122 107 121C108.659 121.369 110.325 121.713 112 122C112.66 121.01 113.32 120.02 114 119C114.99 118.67 115.98 118.34 117 118Z" fill="#FBC5A3"/>
<path d="M40 67C40.33 67 40.66 67 41 67C41.1273 74.2597 41.1273 74.2597 40.5 77.9062C39.5976 83.8639 39.8965 89.9295 39.9375 95.9375C39.942 97.1937 39.9465 98.4499 39.9511 99.7441C39.9629 102.829 39.9793 105.915 40 109C39.34 109 38.68 109 38 109C33.8074 96.4222 36.9264 79.6052 40 67Z" fill="#DA5A2C"/>
<path d="M141 64C140.508 70.4 140.508 70.4 137.938 73.4375C137.298 73.9531 136.659 74.4688 136 75C136.66 72.69 137.32 70.38 138 68C137.216 68.495 136.432 68.99 135.625 69.5C133 71 133 71 131 71C130.918 71.7425 130.835 72.485 130.75 73.25C129.86 76.5122 128.515 77.8095 126 80C126 76.9851 126.52 75.1314 127.5 72.3125C127.778 71.5043 128.057 70.696 128.344 69.8633C128.56 69.2484 128.777 68.6335 129 68C130.65 67.67 132.3 67.34 134 67C134 66.34 134 65.68 134 65C136.491 64.3129 138.379 64 141 64Z" fill="#F49860"/>
<path d="M178 152C178.619 152.495 179.238 152.99 179.875 153.5C181.839 155.192 181.839 155.192 184 155C184.66 154.34 185.32 153.68 186 153C185.386 156.309 184.218 158.394 182.188 161.062C181.435 162.07 181.435 162.07 180.668 163.098C178.925 165.086 177.214 166.558 175 168C174.34 168 173.68 168 173 168C173 165.69 173 163.38 173 161C173.66 161 174.32 161 175 161C177.217 158.697 177.968 157.475 178.188 154.25C178.126 153.507 178.064 152.765 178 152Z" fill="#BB3C0C"/>
<path d="M109.051 37.6699C114.798 37.7522 119.124 39.0398 124 42C123.67 42.66 123.34 43.32 123 44C121.206 43.5359 121.206 43.5359 119.375 43.0625C112.992 41.6225 106.518 41.3523 100 41C100 42.65 100 44.3 100 46C99.67 46 99.34 46 99 46C98.9576 43.6671 98.9591 41.333 99 39C101.269 36.7305 105.99 37.6962 109.051 37.6699Z" fill="#EC601D"/>
<path d="M139 151C139.66 151.33 140.32 151.66 141 152C140.885 154.667 140.758 157.333 140.625 160C140.594 160.744 140.563 161.488 140.531 162.254C140.334 166.033 139.951 169.527 138.969 173.188C138.085 176.666 137.786 179.438 137.875 183C137.893 183.949 137.911 184.897 137.93 185.875C137.953 186.576 137.976 187.278 138 188C137.34 188 136.68 188 136 188C135.973 185.062 135.953 182.125 135.938 179.188C135.929 178.354 135.921 177.521 135.912 176.662C135.909 175.86 135.906 175.057 135.902 174.23C135.897 173.492 135.892 172.754 135.886 171.993C136 170 136 170 137 167C137.385 164.271 137.74 161.549 138.062 158.812C138.153 158.063 138.244 157.313 138.338 156.541C138.561 154.694 138.781 152.847 139 151Z" fill="#BD3805"/>
<path d="M83 36C83 36.33 83 36.66 83 37C81.8656 37.2475 80.7313 37.495 79.5625 37.75C76.3679 38.5374 73.5363 39.5969 70.5625 41C66.2109 43.0171 61.7894 44.4836 57 45C56.34 44.67 55.68 44.34 55 44C57.656 40.6579 61.1405 39.5965 65.0625 38.3125C65.7277 38.0912 66.393 37.8699 67.0784 37.6418C72.445 35.96 77.3766 35.4046 83 36Z" fill="#5E0B02"/>
<path d="M40.0001 104C40.3301 105.32 40.6601 106.64 41.0001 108C42.3201 108.33 43.6401 108.66 45.0001 109C44.6701 112.63 44.3401 116.26 44.0001 120C40.0001 119 40.0001 119 38.1876 116.188C37.0194 113.052 36.7305 112.001 38.0001 109C38.6601 109 39.3201 109 40.0001 109C40.0001 107.35 40.0001 105.7 40.0001 104Z" fill="#F67E33"/>
<path d="M144 69C144.33 69 144.66 69 145 69C145.99 74.61 146.98 80.22 148 86C148.33 86 148.66 86 149 86C150.147 96.149 149.79 105.847 149 116C148.67 116 148.34 116 148 116C147.925 115.027 147.925 115.027 147.848 114.035C146.959 102.649 146.003 91.3334 144.375 80.0273C143.913 76.3008 143.847 72.7474 144 69Z" fill="#8B1D04"/>
<path d="M129 150C129.33 150 129.66 150 130 150C130.233 163.503 130.01 176.632 128 190C127.01 190 126.02 190 125 190C125.133 189.401 125.266 188.801 125.402 188.184C127.034 179.811 127.392 171.524 127.658 163.011C127.705 161.569 127.705 161.569 127.754 160.098C127.778 159.237 127.802 158.376 127.826 157.489C128.005 154.922 128.443 152.509 129 150Z" fill="#D04205"/>
<path d="M112 125C112 125.66 112 126.32 112 127C110.793 127.402 110.793 127.402 109.562 127.812C108.717 128.204 107.871 128.596 107 129C106.67 129.99 106.34 130.98 106 132C104.188 132.914 104.188 132.914 102 133.625C99.2573 134.411 99.2573 134.411 97 136C99.64 136.66 102.28 137.32 105 138C105 138.33 105 138.66 105 139C101.04 139 97.08 139 93 139C93 138.34 93 137.68 93 137C91.35 137 89.7 137 88 137C88 136.67 88 136.34 88 136C89.0931 135.897 90.1862 135.794 91.3125 135.688C95.0489 134.991 95.6668 134.683 98 132C98.99 132 99.98 132 101 132C101.186 131.216 101.371 130.432 101.562 129.625C103 127 103 127 106.5 125.688C110 125 110 125 112 125Z" fill="#F37328"/>
<path d="M135 75C135.33 76.32 135.66 77.64 136 79C135.01 79.33 134.02 79.66 133 80C132.845 81.1447 132.845 81.1447 132.688 82.3125C131.921 85.3085 131.451 86.1828 129 88C126.301 88.293 126.301 88.293 123.312 88.1875C122.319 88.1604 121.325 88.1334 120.301 88.1055C119.542 88.0707 118.782 88.0359 118 88C119.682 84.2598 121.69 82.4387 125 80C124.67 81.65 124.34 83.3 124 85C128.53 83.519 131.06 82.5518 133.438 78.3125C133.953 77.2194 134.469 76.1263 135 75Z" fill="#F48A48"/>
<path d="M37 133C39.31 133.33 41.62 133.66 44 134C41 136 41 136 39 136C39 141.61 39 147.22 39 153C37.68 153 36.36 153 35 153C35 149.37 35 145.74 35 142C35.66 142 36.32 142 37 142C37 139.03 37 136.06 37 133Z" fill="#AE4419"/>
<path d="M133 114C133.476 116.706 133.841 119.336 134.125 122.062C134.211 122.821 134.298 123.58 134.387 124.361C134.599 126.24 134.801 128.12 135 130C134.67 130 134.34 130 134 130C133.67 132.64 133.34 135.28 133 138C132.67 138 132.34 138 132 138C131.867 136.735 131.734 135.471 131.598 134.168C131.419 132.508 131.241 130.848 131.062 129.188C130.975 128.354 130.888 127.521 130.799 126.662C130.668 125.458 130.668 125.458 130.535 124.23C130.457 123.492 130.378 122.754 130.297 121.993C130.028 119.797 130.028 119.797 129 117C128.67 119.31 128.34 121.62 128 124C127.67 124 127.34 124 127 124C127 120.7 127 117.4 127 114C131 113 131 113 133 114Z" fill="#972604"/>
<path d="M47 59C47.66 59.33 48.32 59.66 49 60C48.8672 60.5595 48.7345 61.1189 48.5977 61.6953C47.4549 66.8838 46.8351 71.8776 46.5625 77.1875C46.2495 82.5034 45.5516 86.3405 43 91C41.7141 87.1423 42.3048 83.8839 42.8125 79.9375C42.9535 78.7966 42.9535 78.7966 43.0974 77.6326C44.9538 63.0925 44.9538 63.0925 47 59Z" fill="#D6420F"/>
<path d="M121 43C121.99 43.33 122.98 43.66 124 44C122.613 46.94 121.032 49.5547 119.125 52.1875C118.633 52.8823 118.14 53.5771 117.633 54.293C115.747 56.2646 114.581 56.3791 112 57C111.67 57.99 111.34 58.98 111 60C108.656 61.3533 106.38 62.544 103.938 63.6875C103.274 64.0078 102.611 64.3282 101.928 64.6582C100.289 65.4479 98.6453 66.2251 97 67C96.67 66.34 96.34 65.68 96 65C97.8539 63.9163 99.7082 62.833 101.562 61.75C102.658 61.1055 103.754 60.4609 104.883 59.7969C107.212 58.454 109.542 57.2137 111.938 56C116.193 53.2208 119.221 49.7314 120.633 44.7812C120.754 44.1934 120.875 43.6056 121 43Z" fill="#F2762D"/>
<path d="M135 79C135 81.9461 134.545 83.7966 133.625 86.5625C133.242 87.7401 133.242 87.7401 132.852 88.9414C132 91 132 91 130 93C127.662 93.2271 127.662 93.2271 124.773 93.1953C123.227 93.1856 123.227 93.1856 121.648 93.1758C120.568 93.159 119.488 93.1423 118.375 93.125C117.287 93.116 116.199 93.107 115.078 93.0977C112.385 93.074 109.693 93.0411 107 93C107 92.34 107 91.68 107 91C110.356 89.9669 113.316 89.9593 116.812 90.0625C123.656 90.1577 123.656 90.1577 130 88C131.107 85.9525 131.789 84.0231 132.395 81.7773C133 80 133 80 135 79Z" fill="#EC681C"/>
<path d="M124.25 191.625C124.989 191.613 125.727 191.602 126.488 191.59C131.701 191.617 135.339 192.67 140 195C140 195.33 140 195.66 140 196C130.944 196.152 122.024 195.69 113 195C115.73 190.904 119.82 191.557 124.25 191.625Z" fill="#792719"/>
<path d="M55 48C59 52.5 59 52.5 59 57C58.34 57 57.68 57 57 57C56.67 57.66 56.34 58.32 56 59C53.69 59 51.38 59 49 59C50.2581 54.492 51.9041 51.5087 55 48Z" fill="#F98437"/>
<path d="M130 141C130.33 141 130.66 141 131 141C131 155.19 131 169.38 131 184C129.515 184.495 129.515 184.495 128 185C128.066 184.328 128.131 183.656 128.199 182.964C129.01 174.066 129.317 165.176 129.562 156.25C129.606 154.763 129.649 153.276 129.693 151.789C129.799 148.193 129.901 144.596 130 141Z" fill="#B43202"/>
<path d="M187 162C187.33 162 187.66 162 188 162C188.027 164.125 188.046 166.25 188.062 168.375C188.074 169.558 188.086 170.742 188.098 171.961C188 175 188 175 187 177C184.525 176.01 184.525 176.01 182 175C182.515 169.719 184.255 166.428 187 162Z" fill="#721204"/>
<path d="M132 101C132.33 102.32 132.66 103.64 133 105C128.146 109.017 122.95 108.281 117 108C119.579 104.842 122.355 104.007 126.188 102.812C127.274 102.468 128.361 102.124 129.48 101.77C130.312 101.516 131.143 101.262 132 101Z" fill="#F69C64"/>
<path d="M42 91C42.33 91 42.66 91 43 91C43 93.97 43 96.94 43 100C44.98 100 46.96 100 49 100C47.68 100.33 46.36 100.66 45 101C45.99 102.98 46.98 104.96 48 107C46.1875 108.062 46.1875 108.062 44 109C43.01 108.67 42.02 108.34 41 108C40.9728 106.104 40.9535 104.208 40.9375 102.312C40.9259 101.257 40.9143 100.201 40.9023 99.1133C40.9913 96.2759 41.3506 93.7561 42 91Z" fill="#F88E47"/>
<path d="M51 101C50.01 101.33 49.02 101.66 48 102C48.33 102.99 48.66 103.98 49 105C53.96 105.943 58.8451 106.302 63.875 106.562C64.6588 106.606 65.4425 106.649 66.25 106.693C68.1665 106.799 70.0832 106.9 72 107C72 107.33 72 107.66 72 108C68.5843 108.226 65.1675 108.428 61.75 108.625C60.2979 108.722 60.2979 108.722 58.8164 108.82C57.4146 108.898 57.4146 108.898 55.9844 108.977C55.1255 109.029 54.2667 109.081 53.3818 109.135C50.701 108.983 49.2377 108.467 47 107C45 104 45 104 45 101C48.75 99.875 48.75 99.875 51 101Z" fill="#F57E37"/>
<path d="M136 53C136 55.31 136 57.62 136 60C132.629 61.4982 130.796 62 127 62C127.495 58.3354 128.021 56.2917 131 54C134 53 134 53 136 53Z" fill="#F28441"/>
<path d="M120 73C117.057 77.4149 112.907 78.3644 108 80C107.34 78.68 106.68 77.36 106 76C107.973 73.3312 109.109 72.9763 112.438 72.25C115.4 72.0421 117.258 72.0129 120 73Z" fill="#F48642"/>
<path d="M40 75C40.33 75 40.66 75 41 75C41 78.96 41 82.92 41 87C41.66 86.34 42.32 85.68 43 85C42.7235 88.1474 42.4263 91.2924 42.125 94.4375C42.0464 95.3353 41.9677 96.2332 41.8867 97.1582C41.8029 98.0122 41.7191 98.8662 41.6328 99.7461C41.5595 100.537 41.4862 101.328 41.4107 102.142C41.2751 102.755 41.1396 103.368 41 104C40.34 104.33 39.68 104.66 39 105C38.9708 101.313 38.9531 97.6251 38.9375 93.9375C38.9291 92.8992 38.9208 91.8608 38.9121 90.791C38.895 85.4128 39.0459 80.2967 40 75Z" fill="#861C09"/>
<path d="M125 130C125.66 130.33 126.32 130.66 127 131C127 132.98 127 134.96 127 137C127.66 137 128.32 137 129 137C129 135.02 129 133.04 129 131C129.33 131 129.66 131 130 131C130 133.64 130 136.28 130 139C126.527 140.158 123.639 140.069 120 140C121.667 136.667 123.333 133.333 125 130Z" fill="#CD4A13"/>
<path d="M56 41C56.66 41.33 57.32 41.66 58 42C57.67 42.66 57.34 43.32 57 44C58.65 44 60.3 44 62 44C61.01 44.66 60.02 45.32 59 46C56.9686 47.631 54.9907 49.319 53 51C52.34 50.67 51.68 50.34 51 50C49.35 51.32 47.7 52.64 46 54C47.9536 48.3021 51.0191 44.3799 56 41Z" fill="#BC3D14"/>
<path d="M34 113C34.66 113 35.32 113 36 113C36.2307 113.603 36.4615 114.207 36.6992 114.828C38.7564 119.869 40.4172 122.817 45 126C45 126.66 45 127.32 45 128C41.6575 127.403 39.5356 126.264 37 124C37 123.34 37 122.68 37 122C36.01 122.33 35.02 122.66 34 123C34 119.7 34 116.4 34 113Z" fill="#F88137"/>
<path d="M136 98C135.38 107.808 135.38 107.808 132 112C131.34 112 130.68 112 130 112C130.33 110.02 130.66 108.04 131 106C131.99 105.67 132.98 105.34 134 105C134 103.02 134 101.04 134 99C133.443 99.33 132.886 99.66 132.312 100C129.697 101.131 127.819 101.157 125 101C131.491 96.6727 131.491 96.6727 136 98Z" fill="#E75D14"/>
<path d="M142 63C142.33 63 142.66 63 143 63C143.081 65.4382 143.14 67.8736 143.188 70.3125C143.225 71.3479 143.225 71.3479 143.264 72.4043C143.338 77.5666 143.338 77.5666 141.551 79.8555C141.039 80.2332 140.527 80.6109 140 81C139.67 81.66 139.34 82.32 139 83C138.34 83 137.68 83 137 83C137.283 81.3943 137.577 79.7905 137.875 78.1875C138.037 77.2942 138.2 76.4009 138.367 75.4805C139 73 139 73 141 70C141.394 67.6761 141.735 65.3421 142 63Z" fill="#C73A03"/>
<path d="M159 49C159.33 49 159.66 49 160 49C160.551 53.3253 160.764 55.758 158.441 59.5352C156.691 61.7574 154.901 63.9054 153 66C151.646 63.2912 151.935 60.9907 152 58C152.66 58 153.32 58 154 58C154 57.34 154 56.68 154 56C155.333 54.6667 156.667 53.3333 158 52C158.33 51.01 158.66 50.02 159 49Z" fill="#D45826"/>
<path d="M79 33C79 33.66 79 34.32 79 35C76.4385 35.8157 73.8759 36.6277 71.3125 37.4375C70.2307 37.7826 70.2307 37.7826 69.127 38.1348C65.4382 39.297 61.8204 40.3444 58 41C63.2583 35.1388 71.3657 33 79 33Z" fill="#CC471B"/>
<path d="M136 50C138.667 52.4895 140.557 54.6341 142 58C141.34 58 140.68 58 140 58C140.99 59.485 140.99 59.485 142 61C142.301 63.1562 142.301 63.1562 142.312 65.5C142.329 66.2734 142.346 67.0469 142.363 67.8438C142 70 142 70 139 73C139.66 69.37 140.32 65.74 141 62C140.34 62 139.68 62 139 62C138.71 61.1686 138.71 61.1686 138.414 60.3203C138.154 59.5959 137.893 58.8714 137.625 58.125C137.242 57.0461 137.242 57.0461 136.852 55.9453C136.061 53.8184 136.061 53.8184 134 52C134.66 52 135.32 52 136 52C136 51.34 136 50.68 136 50Z" fill="#DF4B0D"/>
<path d="M77 138C79.5834 137.973 82.1665 137.953 84.75 137.937C85.4796 137.929 86.2092 137.921 86.9609 137.912C90.4867 137.896 93.6103 138.047 97 139C97 139.66 97 140.32 97 141C83.4042 141.201 83.4042 141.201 78 140C77.67 139.34 77.34 138.68 77 138Z" fill="#8A260E"/>
<path d="M118 120C118.99 120 119.98 120 121 120C121.33 123.3 121.66 126.6 122 130C120.02 130 118.04 130 116 130C115.821 126.053 115.906 123.402 118 120Z" fill="#BD3A07"/>
<path d="M118 52C118.33 52.99 118.66 53.98 119 55C118.35 55.5878 118.35 55.5878 117.688 56.1875C115.871 57.979 115.871 57.979 114.688 60.5C112.544 63.6762 110.555 64.6667 107 66C106.01 65.67 105.02 65.34 104 65C108.75 62 108.75 62 111 62C111.082 61.2163 111.165 60.4325 111.25 59.625C112 57 112 57 113.938 55.875C114.618 55.5863 115.299 55.2975 116 55C116.66 54.01 117.32 53.02 118 52Z" fill="#D64606"/>
<path d="M57 46C57.66 46.33 58.32 46.66 59 47C59 48.32 59 49.64 59 51C61.4348 53.1813 61.4348 53.1813 64.5 55.125C66.3638 56.3723 68.2059 57.6544 70 59C70 59.66 70 60.32 70 61C68.35 60.67 66.7 60.34 65 60C65 59.34 65 58.68 65 58C64.4431 57.7731 63.8863 57.5463 63.3125 57.3125C60.2584 55.5791 58.2175 53.7243 56 51C56.1875 48.1875 56.1875 48.1875 57 46Z" fill="#F99758"/>
<path d="M40 137C45.94 137.33 51.88 137.66 58 138C58.33 138.66 58.66 139.32 59 140C52.73 140 46.46 140 40 140C40 139.01 40 138.02 40 137Z" fill="#EF7D35"/>
<path d="M188 153C191 155 191 155 191.512 157.164C191.57 157.976 191.628 158.788 191.688 159.625C191.753 160.442 191.819 161.26 191.887 162.102C191.924 162.728 191.961 163.355 192 164C191.01 164.33 190.02 164.66 189 165C189 167.31 189 169.62 189 172C188.67 172 188.34 172 188 172C188 165.73 188 159.46 188 153Z" fill="#7D5546"/>
<path d="M176 150C178 151 178 151 178.938 153.75C179 157 179 157 176.562 159.875C175.717 160.576 174.871 161.278 174 162C173.34 159.69 172.68 157.38 172 155C172.99 155 173.98 155 175 155C175.33 153.35 175.66 151.7 176 150Z" fill="#B23204"/>
<path d="M108 115C112.62 115 117.24 115 122 115C120.68 116.65 119.36 118.3 118 120C118 119.01 118 118.02 118 117C117.072 117.474 116.144 117.949 115.188 118.438C112 120 112 120 109 121C108.67 119.02 108.34 117.04 108 115Z" fill="#FB9B53"/>
<path d="M117 120C117.33 120.66 117.66 121.32 118 122C115.03 126.455 115.03 126.455 112 131C111.34 130.34 110.68 129.68 110 129C109.01 129.99 108.02 130.98 107 132C107 130.68 107 129.36 107 128C108.65 127.67 110.3 127.34 112 127C112.082 126.402 112.165 125.804 112.25 125.188C113.205 122.403 114.571 121.567 117 120Z" fill="#E3540E"/>
<path d="M92 44C92.66 44 93.32 44 94 44C94.1031 44.7837 94.2063 45.5675 94.3125 46.375C94.776 49.3305 94.776 49.3305 98 51C97 52 97 52 94.4375 52.0625C93.6331 52.0419 92.8288 52.0212 92 52C91.34 54.31 90.68 56.62 90 59C88.68 58.67 87.36 58.34 86 58C86.99 57.67 87.98 57.34 89 57C90.0355 53.9772 90.0355 53.9772 90.6875 50.4375C90.9389 49.24 91.1902 48.0424 91.4492 46.8086C91.631 45.8818 91.8127 44.9549 92 44Z" fill="#F8AB7E"/>
<path d="M134 99C134 100.98 134 102.96 134 105C133.34 104.01 132.68 103.02 132 102C131.157 102.289 130.314 102.577 129.445 102.875C128.35 103.246 127.254 103.617 126.125 104C125.034 104.371 123.944 104.742 122.82 105.125C120 106 120 106 118 106C118.625 104.109 118.625 104.109 120 102C122.75 100.953 122.75 100.953 126 100.25C127.609 99.8865 127.609 99.8865 129.25 99.5156C132 99 132 99 134 99Z" fill="#F17B34"/>
<path d="M92 39C93.32 39 94.64 39 96 39C96 41.31 96 43.62 96 46C96.66 46.33 97.32 46.66 98 47C97.01 47 96.02 47 95 47C95 46.01 95 45.02 95 44C93.68 44 92.36 44 91 44C90.67 44.99 90.34 45.98 90 47C89.34 47 88.68 47 88 47C88 46.34 88 45.68 88 45C87.34 44.67 86.68 44.34 86 44C87.375 42.5 87.375 42.5 89 41C89.66 41 90.32 41 91 41C91.33 40.34 91.66 39.68 92 39Z" fill="#DA6528"/>
<path d="M79 33C82.9374 32.942 86.8748 32.9064 90.8125 32.875C91.9321 32.8582 93.0516 32.8415 94.2051 32.8242C95.2782 32.8178 96.3514 32.8113 97.457 32.8047C98.9417 32.789 98.9417 32.789 100.456 32.7729C103 33 103 33 106 35C104.522 35.1941 103.042 35.3801 101.562 35.5625C100.739 35.6669 99.9151 35.7713 99.0664 35.8789C98.0435 35.9388 98.0435 35.9388 97 36C96.67 35.67 96.34 35.34 96 35C93.1373 34.9267 90.2993 34.9076 87.4375 34.9375C86.6312 34.942 85.8249 34.9465 84.9941 34.9512C82.9961 34.963 80.998 34.9809 79 35C79 34.34 79 33.68 79 33Z" fill="#981902"/>
<path d="M130 15C133.875 18.75 133.875 18.75 135 21C134.913 22.5461 134.76 24.0891 134.562 25.625C134.461 26.4423 134.359 27.2595 134.254 28.1016C134.17 28.728 134.086 29.3545 134 30C133.34 30 132.68 30 132 30C131.662 28.2509 131.33 26.5006 131 24.75C130.814 23.7755 130.629 22.8009 130.438 21.7969C130 19 130 19 130 15Z" fill="#D94304"/>
<path d="M110 16C111.099 19.297 110.871 20.4049 110.062 23.6875C109.868 24.4957 109.673 25.304 109.473 26.1367C109.317 26.7516 109.161 27.3665 109 28C107.02 28.33 105.04 28.66 103 29C104.912 24.2199 107.028 20.2023 110 16Z" fill="#FCBC8F"/>
<path d="M150 65C154.047 68.3111 154.812 71.1836 155.75 76.25C155.992 77.5133 156.235 78.7766 156.484 80.0781C156.74 81.5245 156.74 81.5245 157 83C156.34 83 155.68 83 155 83C154.34 80.03 153.68 77.06 153 74C152.34 74 151.68 74 151 74C150.639 72.6894 150.286 71.3765 149.938 70.0625C149.642 68.9662 149.642 68.9662 149.34 67.8477C149.228 67.2379 149.116 66.6282 149 66C149.33 65.67 149.66 65.34 150 65Z" fill="#DD5E29"/>
<path d="M85 38C85 38.99 85 39.98 85 41C84.1312 41.0606 83.2623 41.1212 82.3672 41.1836C81.2148 41.2674 80.0623 41.3512 78.875 41.4375C77.738 41.5187 76.6011 41.5999 75.4297 41.6836C72.246 41.9773 69.1449 42.4312 66 43C67 41 67 41 69.5117 40.1484C70.5597 39.8932 71.6077 39.638 72.6875 39.375C73.7226 39.1146 74.7577 38.8542 75.8242 38.5859C78.9621 38.007 81.8176 37.895 85 38Z" fill="#B92C04"/>
<path d="M100 41C100.99 41 101.98 41 103 41C102.443 44.3437 101.648 47.0331 100 50C98.3339 50.0427 96.6662 50.0406 95 50C94 49 94 49 93.9375 46.4375C93.9581 45.6331 93.9787 44.8288 94 44C94.33 44.99 94.66 45.98 95 47C96.65 46.67 98.3 46.34 100 46C100 44.35 100 42.7 100 41Z" fill="#F28A54"/>
<path d="M72.125 42.9375C72.8791 42.942 73.6332 42.9465 74.4102 42.9512C76.2735 42.963 78.1367 42.9809 80 43C80 43.66 80 44.32 80 45C74.4777 46.1296 74.4777 46.1296 72.1562 45.5C69.3909 44.8588 67.0659 45.1358 64.25 45.4375C63.2652 45.5393 62.2803 45.6412 61.2656 45.7461C60.1441 45.8718 60.1441 45.8718 59 46C63.6037 42.9309 66.712 42.8767 72.125 42.9375Z" fill="#F67A33"/>
<path d="M46 82C47.32 82 48.64 82 50 82C50.0735 82.9223 50.0735 82.9223 50.1484 83.8633C50.2232 84.6715 50.298 85.4798 50.375 86.3125C50.4446 87.113 50.5142 87.9135 50.5859 88.7383C50.8956 91.2722 50.8956 91.2722 53 94C52.67 94.99 52.34 95.98 52 97C52 96.34 52 95.68 52 95C51.34 95 50.68 95 50 95C49.34 91.7 48.68 88.4 48 85C46.68 86.32 45.36 87.64 44 89C44.66 86.69 45.32 84.38 46 82Z" fill="#FBA05E"/>
<path d="M46 58C47.2913 61.874 46.4111 64.8199 45.5625 68.6875C45.4149 69.3894 45.2673 70.0913 45.1152 70.8145C44.7504 72.5444 44.3761 74.2724 44 76C43.67 76 43.34 76 43 76C43 74.02 43 72.04 43 70C42.34 70 41.68 70 41 70C41.875 65.25 41.875 65.25 43 63C43.66 63 44.32 63 45 63C45.33 61.35 45.66 59.7 46 58Z" fill="#801705"/>
<path d="M182 139C184.243 141.884 186.363 144.726 188 148C187.578 150.156 187.578 150.156 187 152C185.852 150.711 184.706 149.418 183.562 148.125C182.924 147.406 182.286 146.686 181.629 145.945C180 144 180 144 179 142C179.99 141.01 180.98 140.02 182 139Z" fill="#AA401B"/>
<path d="M126 9.99999C129 12.5 129 12.5 131 15C129 17 129 17 125.375 17.125C124.261 17.0837 123.148 17.0425 122 17C122 16.67 122 16.34 122 16C123.98 16 125.96 16 128 16C127.67 15.01 127.34 14.02 127 13C121.979 12.2208 118.023 11.8698 113 13C116.542 9.45833 121.203 9.12268 126 9.99999Z" fill="#EFA26E"/>
<path d="M171 144C172.485 144.99 172.485 144.99 174 146C174 146.66 174 147.32 174 148C174.66 148 175.32 148 176 148C175.67 150.31 175.34 152.62 175 155C174.01 155 173.02 155 172 155C171.67 151.37 171.34 147.74 171 144Z" fill="#A32C09"/>
<path d="M45 128C48.4031 129.059 51.0135 130.009 54 132C54 132.66 54 133.32 54 134C54.66 134.33 55.32 134.66 56 135C51.4838 135.077 47.4091 135.102 43 134C43 133.67 43 133.34 43 133C44.98 132.67 46.96 132.34 49 132C48.01 131.67 47.02 131.34 46 131C45.67 130.01 45.34 129.02 45 128Z" fill="#ED7834"/>
<path d="M119 11C121.64 11.33 124.28 11.66 127 12C127.33 13.32 127.66 14.64 128 16C125.69 16.33 123.38 16.66 121 17C120.34 15.02 119.68 13.04 119 11Z" fill="#B6370E"/>
<path d="M61 187C57.7168 189.189 57.2923 189.207 53.625 188.687C52.8348 188.579 52.0446 188.471 51.2305 188.359C48.8048 187.969 46.397 187.541 44 187C44 186.67 44 186.34 44 186C55.8306 183.692 55.8306 183.692 61 187Z" fill="#8B2E17"/>
<path d="M168 105C168.66 105.33 169.32 105.66 170 106C171.299 110.288 171.075 114.565 171 119C170.34 119 169.68 119 169 119C166.381 114.224 167.169 110.156 168 105Z" fill="#7A1B04"/>
<path d="M147 90C150.119 96.2387 150.057 101.026 149.562 107.812C149.51 108.601 149.458 109.389 149.404 110.201C149.275 112.135 149.139 114.067 149 116C148.67 116 148.34 116 148 116C147.67 107.42 147.34 98.84 147 90Z" fill="#7D1704"/>
<path d="M118 83C118.99 83.33 119.98 83.66 121 84C120.01 85.32 119.02 86.64 118 88C121.3 88 124.6 88 128 88C128 88.33 128 88.66 128 89C123.05 89 118.1 89 113 89C113.33 88.01 113.66 87.02 114 86C114.66 86 115.32 86 116 86C116 85.34 116 84.68 116 84C116.66 83.67 117.32 83.34 118 83Z" fill="#F07D36"/>
<path d="M96 65C96 65.66 96 66.32 96 67C94.02 67.66 92.04 68.32 90 69C90 69.66 90 70.32 90 71C88.35 71.66 86.7 72.32 85 73C85 72.34 85 71.68 85 71C84.34 70.67 83.68 70.34 83 70C86.968 67.4324 91.154 65 96 65Z" fill="#F58B4C"/>
<path d="M38.9999 136C39.9899 136.33 40.9799 136.66 41.9999 137C41.3399 137 40.6799 137 39.9999 137C40.0407 137.565 40.0815 138.13 40.1235 138.712C40.3016 141.266 40.4634 143.82 40.6249 146.375C40.6894 147.264 40.7538 148.154 40.8203 149.07C40.8718 149.921 40.9234 150.772 40.9765 151.648C41.0289 152.434 41.0812 153.219 41.1352 154.029C40.9999 156 40.9999 156 38.9999 158C37.732 153.313 38.0889 148.967 38.4374 144.188C38.4896 143.399 38.5419 142.611 38.5956 141.799C38.7245 139.865 38.8614 137.933 38.9999 136Z" fill="#DD4E0C"/>
<path d="M45 127C48.63 127.33 52.26 127.66 56 128C56.66 129.65 57.32 131.3 58 133C53.1404 132.393 49.2594 130.272 45 128C45 127.67 45 127.34 45 127Z" fill="#F7945B"/>
<path d="M117 118C117 121 117 121 114.875 123.312C112 125 112 125 109.062 124.438C106.013 123.006 102.984 121.563 100 120C100.66 119.67 101.32 119.34 102 119C103.679 119.635 105.344 120.307 107 121C108.659 121.369 110.325 121.713 112 122C112.66 121.01 113.32 120.02 114 119C114.99 118.67 115.98 118.34 117 118Z" fill="#FCB787"/>
<path d="M124 186C124.33 187.32 124.66 188.64 125 190C121.473 192.351 119.971 192.214 115.812 192.125C114.726 192.107 113.639 192.089 112.52 192.07C111.272 192.036 111.272 192.036 110 192C110 191.67 110 191.34 110 191C112.64 191 115.28 191 118 191C118 190.34 118 189.68 118 189C119.98 188.01 121.96 187.02 124 186Z" fill="#DC551E"/>
<path d="M58 112C63.4389 111.782 67.8708 111.896 73 114C73 114.33 73 114.66 73 115C71.0626 115.027 69.125 115.046 67.1875 115.062C66.1086 115.074 65.0296 115.086 63.918 115.098C61 115 61 115 58 114C58 113.34 58 112.68 58 112Z" fill="#FE9E54"/>
<path d="M45 108C50.2083 108.521 55.4167 109.042 60.625 109.562C61.4629 109.646 62.3008 109.73 63.1641 109.816C63.7699 109.877 64.3758 109.938 65 110C65 110.33 65 110.66 65 111C62.2286 111.081 59.4595 111.14 56.6875 111.188C55.9018 111.213 55.1161 111.238 54.3066 111.264C53.5493 111.273 52.792 111.283 52.0117 111.293C51.3152 111.309 50.6187 111.324 49.9011 111.341C47.4551 110.902 46.573 109.866 45 108Z" fill="#FBB688"/>
<path d="M91 44C92.1276 47.3827 91.8175 48.7678 91.0625 52.1875C90.8679 53.0886 90.6732 53.9896 90.4727 54.918C90.3167 55.605 90.1607 56.2921 90 57C89.01 57 88.02 57 87 57C87.2784 55.9791 87.2784 55.9791 87.5625 54.9375C88.0852 51.4277 87.6138 48.4781 87 45C87.33 45.66 87.66 46.32 88 47C88.99 46.01 89.98 45.02 91 44Z" fill="#F5945E"/>
<path d="M150 40C151.32 40.66 152.64 41.32 154 42C154 43.65 154 45.3 154 47C153.01 47.495 153.01 47.495 152 48C150.35 46.35 148.7 44.7 147 43C147.99 43 148.98 43 150 43C150 42.01 150 41.02 150 40Z" fill="#F25F09"/>
<path d="M103 30C102.67 30.66 102.34 31.32 102 32C95.73 32 89.46 32 83 32C83 31.67 83 31.34 83 31C85.5823 30.6367 88.1654 30.2841 90.75 29.9375C91.4796 29.8337 92.2092 29.73 92.9609 29.6231C96.6107 29.1419 99.4767 28.9547 103 30Z" fill="#FAA86A"/>
<path d="M122 191C129.406 190.667 135.26 190.755 142 194C142.66 194.66 143.32 195.32 144 196C141.045 195.588 138.41 195.175 135.656 194C132.756 192.908 130.272 192.598 127.188 192.375C126.212 192.3 125.236 192.225 124.23 192.148C123.126 192.075 123.126 192.075 122 192C122 191.67 122 191.34 122 191Z" fill="#9F2501"/>
<path d="M139 52C139.66 52 140.32 52 141 52C144.223 57.1758 144.223 57.1758 145 59C144.67 59.99 144.34 60.98 144 62C144.394 64.638 144.394 64.638 145 67C142.333 63.7271 140 60.3513 140 56C139.685 54.6622 139.354 53.328 139 52Z" fill="#EA5A14"/>
<path d="M117 45C117.66 45.33 118.32 45.66 119 46C116.13 52.2177 113.349 54.519 107 57C107 56.34 107 55.68 107 55C107.908 54.4225 108.815 53.845 109.75 53.25C113.398 50.7242 114.781 48.7544 117 45Z" fill="#F8B083"/>
<path d="M55 48C55.33 48 55.66 48 56 48C56 50.64 56 53.28 56 56C54.02 56 52.04 56 50 56C52.75 50.25 52.75 50.25 55 48Z" fill="#F46B1C"/>
<path d="M112 13C113.472 15.9439 112.849 18.3739 112.562 21.625C112.41 23.4078 112.41 23.4078 112.254 25.2266C112.128 26.5994 112.128 26.5994 112 28C111.01 28 110.02 28 109 28C109.445 22.7268 110.084 17.9823 112 13Z" fill="#EC8752"/>
<path d="M115 142C115 142.33 115 142.66 115 143C108.368 144.938 102.814 145.053 96 144C96 143.67 96 143.34 96 143C102.342 141.847 108.567 141.905 115 142Z" fill="#D95117"/>
<path d="M118 90.3125C119.249 90.3657 119.249 90.3657 120.523 90.4199C121.32 90.4631 122.117 90.5063 122.938 90.5508C123.668 90.5886 124.399 90.6264 125.152 90.6653C127 91 127 91 129 93C121.74 93 114.48 93 107 93C107 92.34 107 91.68 107 91C110.431 89.2843 114.24 90.1 118 90.3125Z" fill="#E95F14"/>
<path d="M80 43C81.32 43.33 82.64 43.66 84 44C81.5595 47.1239 80.441 47.9381 76.4375 48.5C73 48 73 48 70 44C73.3 44.33 76.6 44.66 80 45C80 44.34 80 43.68 80 43Z" fill="#F89356"/>
<path d="M138 133C138.66 133 139.32 133 140 133C141.315 135.631 141.412 137.948 141.688 140.875C141.794 141.924 141.901 142.974 142.012 144.055C142 147.051 141.576 148.5 140 151C139.939 150.12 139.879 149.239 139.816 148.332C139.733 147.171 139.649 146.009 139.562 144.812C139.481 143.664 139.4 142.515 139.316 141.332C139.046 138.484 138.625 135.788 138 133Z" fill="#B13100"/>
<path d="M40 110C40.99 110 41.98 110 43 110C43 112.64 43 115.28 43 118C42.01 118 41.02 118 40 118C39.6194 115.674 39.2873 113.339 39 111C39.33 110.67 39.66 110.34 40 110Z" fill="#F46412"/>
<path d="M127 78C127.33 79.32 127.66 80.64 128 82C129.32 81.34 130.64 80.68 132 80C131 83 131 83 128 85C126.68 85 125.36 85 124 85C124.75 80.25 124.75 80.25 127 78Z" fill="#F6A673"/>
<path d="M120 73C119.01 74.485 119.01 74.485 118 76C117.01 76 116.02 76 115 76C115 75.34 115 74.68 115 74C112.03 74.66 109.06 75.32 106 76C110.029 71.9715 114.54 71.0346 120 73Z" fill="#F28039"/>
<path d="M128 20C128.66 20 129.32 20 130 20C130 22.97 130 25.94 130 29C128.68 29 127.36 29 126 29C126.875 22.25 126.875 22.25 128 20Z" fill="#F18244"/>
<path d="M167.812 187.187C168.534 187.456 169.256 187.724 170 188C170 188.66 170 189.32 170 190C166.7 190.66 163.4 191.32 160 192C164.308 186.954 164.308 186.954 167.812 187.187Z" fill="#BF481D"/>
<path d="M35 160C35.33 160 35.66 160 36 160C36.33 164.29 36.66 168.58 37 173C36.34 173 35.68 173 35 173C34.67 174.65 34.34 176.3 34 178C33.0658 174.99 32.9555 174.133 34 171C34.2218 169.108 34.4062 167.211 34.5625 165.312C34.6463 164.319 34.7301 163.325 34.8165 162.301C34.877 161.542 34.9376 160.782 35 160Z" fill="#F78754"/>
<path d="M123 40C126 42 126 42 126.688 44.625C126.791 45.4088 126.894 46.1925 127 47C126.196 47.4538 125.391 47.9075 124.562 48.375C121.911 49.7473 121.911 49.7473 121 52C120.34 51.67 119.68 51.34 119 51C119.66 50.2987 120.32 49.5975 121 48.875C123.302 45.5654 123.366 43.9377 123 40Z" fill="#E4530D"/>
<path d="M125 42C126.32 42.66 127.64 43.32 129 44C127.512 48.712 127.512 48.712 125 50.125C124.34 50.4137 123.68 50.7025 123 51C122.01 52.485 122.01 52.485 121 54C120.34 54 119.68 54 119 54C119 53.34 119 52.68 119 52C119.66 52 120.32 52 121 52C121.268 51.3606 121.536 50.7212 121.812 50.0625C123 48 123 48 126 47C125.67 45.35 125.34 43.7 125 42Z" fill="#C83804"/>
<path d="M167 184C164.03 186.64 161.06 189.28 158 192C157.34 191.67 156.68 191.34 156 191C163.031 182.016 163.031 182.016 167 184Z" fill="#DB5821"/>
<path d="M52 67C52.66 67 53.32 67 54 67C54.2475 67.9694 54.495 68.9388 54.75 69.9375C55.1625 70.9481 55.575 71.9587 56 73C58.0324 73.9688 58.0324 73.9688 60 74C59.67 74.99 59.34 75.98 59 77C57.35 76.67 55.7 76.34 54 76C53.34 73.03 52.68 70.06 52 67Z" fill="#F9A46C"/>
<path d="M124 38C126.97 38.33 129.94 38.66 133 39C131.68 39.33 130.36 39.66 129 40C129.495 40.4538 129.99 40.9075 130.5 41.375C132 43 132 43 132 45C128.597 43.9882 127.243 43.3516 125.188 40.375C124.796 39.5912 124.404 38.8075 124 38Z" fill="#F66811"/>
<path d="M112 15C112.66 15 113.32 15 114 15C114 15.66 114 16.32 114 17C115.65 16.67 117.3 16.34 119 16C119.33 16.66 119.66 17.32 120 18C114.25 21 114.25 21 112 21C112 19.02 112 17.04 112 15Z" fill="#AB3716"/>
<path d="M33 180C36.3 180.33 39.6 180.66 43 181C41.515 182.485 41.515 182.485 40 184C36.3125 183.688 36.3125 183.688 33 183C33 182.01 33 181.02 33 180Z" fill="#DE6338"/>
<path d="M187 159C187.66 159 188.32 159 189 159C188.724 159.541 188.448 160.083 188.164 160.641C186.843 163.319 185.606 166.029 184.375 168.75C183.929 169.735 183.483 170.72 183.023 171.734C182.517 172.856 182.517 172.856 182 174C181.316 172.359 181.316 172.359 181 170C182.215 167.203 182.215 167.203 183.938 164.25C184.503 163.265 185.069 162.28 185.652 161.266C186.097 160.518 186.542 159.77 187 159Z" fill="#A03009"/>
<path d="M173 161C173.99 161 174.98 161 176 161C177.688 163 177.688 163 179 165C175.25 168 175.25 168 173 168C173 165.69 173 163.38 173 161Z" fill="#BB4218"/>
<path d="M101.375 128.25C101.911 128.498 102.448 128.745 103 129C99.5538 132.446 94.7425 134.052 90 135C92.9737 131.696 96.7175 127.76 101.375 128.25Z" fill="#F9995D"/>
<path d="M34 113C34.66 113 35.32 113 36 113C36.66 115.64 37.32 118.28 38 121C37.01 120.67 36.02 120.34 35 120C34.67 120.99 34.34 121.98 34 123C34 119.7 34 116.4 34 113Z" fill="#F98E4C"/>
<path d="M41 104C43.97 104.495 43.97 104.495 47 105C47 105.99 47 106.98 47 108C44 109 44 109 41 108C41 106.68 41 105.36 41 104Z" fill="#F99F60"/>
<path d="M45.0001 54C45.3301 54 45.6601 54 46.0001 54C45.6701 56.97 45.3401 59.94 45.0001 63C44.3401 63 43.6801 63 43.0001 63C42.6701 63.99 42.3401 64.98 42.0001 66C41.0001 64 41.0001 64 41.7774 61.6172C42.1603 60.7123 42.5431 59.8073 42.9376 58.875C43.3178 57.9649 43.6981 57.0548 44.0899 56.1172C44.3903 55.4185 44.6906 54.7198 45.0001 54Z" fill="#D55623"/>
<path d="M133 54C133.66 54 134.32 54 135 54C134.67 55.65 134.34 57.3 134 59C132.35 59.33 130.7 59.66 129 60C130.152 57.532 131.048 55.9522 133 54Z" fill="#F7A471"/>
<path d="M124 80C124.33 80.66 124.66 81.32 125 82C124.67 82.99 124.34 83.98 124 85C126.31 84.34 128.62 83.68 131 83C129.312 85.0625 129.312 85.0625 127 87C124.25 86.75 124.25 86.75 122 86C122.66 84.02 123.32 82.04 124 80Z" fill="#F5965A"/>
<path d="M140 72C141.642 75.283 140.519 78.4255 140 82C139.01 82.33 138.02 82.66 137 83C137.308 81.3533 137.621 79.7076 137.938 78.0625C138.112 77.146 138.286 76.2295 138.465 75.2852C139 73 139 73 140 72Z" fill="#D34404"/>
<path d="M142 53C142.99 53.33 143.98 53.66 145 54C145 54.99 145 55.98 145 57C145.66 57 146.32 57 147 57C147.33 58.65 147.66 60.3 148 62C147.01 61.67 146.02 61.34 145 61C142 54.7778 142 54.7778 142 53Z" fill="#D2460A"/>
<path d="M129 16C131.19 19.2849 131.353 20.831 131.625 24.6875C131.7 25.6814 131.775 26.6752 131.852 27.6992C131.925 28.8381 131.925 28.8381 132 30C131.34 30 130.68 30 130 30C129.831 28.4169 129.665 26.8335 129.5 25.25C129.407 24.3683 129.314 23.4866 129.219 22.5781C129 20 129 20 129 16Z" fill="#F16416"/>
<path d="M139 151C139.66 151.33 140.32 151.66 141 152C140.886 153.48 140.759 154.959 140.625 156.438C140.521 157.673 140.521 157.673 140.414 158.934C140.277 159.616 140.141 160.297 140 161C139.01 161.495 139.01 161.495 138 162C137.857 154.571 137.857 154.571 139 151Z" fill="#B33401"/>
<path d="M127 142C127.66 142 128.32 142 129 142C128.34 146.29 127.68 150.58 127 155C126.67 155 126.34 155 126 155C125.973 153.021 125.954 151.042 125.938 149.062C125.926 147.96 125.914 146.858 125.902 145.723C126 143 126 143 127 142Z" fill="#E8682D"/>
<path d="M49 111C51.97 111.33 54.94 111.66 58 112C58 112.66 58 113.32 58 114C55.03 114 52.06 114 49 114C49 113.01 49 112.02 49 111Z" fill="#FEA866"/>
<path d="M120 103C117.772 105.228 116.342 105.692 113.375 106.625C112.558 106.885 111.74 107.146 110.898 107.414C110.272 107.607 109.645 107.801 109 108C109.781 106.082 109.781 106.082 111 104C117.286 101.643 117.286 101.643 120 103Z" fill="#EA5F16"/>
<path d="M96 39C96.99 39.33 97.98 39.66 99 40C99 41.98 99 43.96 99 46C98.01 46 97.02 46 96 46C94.875 41.25 94.875 41.25 96 39Z" fill="#AC2D09"/>
<path d="M127 68C127.66 68 128.32 68 129 68C128.34 70.97 127.68 73.94 127 77C126.67 75.68 126.34 74.36 126 73C125.34 72.67 124.68 72.34 124 72C125.375 70 125.375 70 127 68Z" fill="#EF7F3A"/>
<path d="M135 22C135.33 22 135.66 22 136 22C136 25.3 136 28.6 136 32C134.35 32 132.7 32 131 32C131.33 31.34 131.66 30.68 132 30C132.66 30 133.32 30 134 30C134.33 27.36 134.66 24.72 135 22Z" fill="#EC874E"/>
<path d="M99.3125 131.312C99.8694 131.539 100.426 131.766 101 132C100.196 132.474 99.3912 132.949 98.5625 133.437C96.1525 134.769 96.1525 134.769 95 136C93.0004 136.041 90.9995 136.043 89 136C89.99 135.34 90.98 134.68 92 134C92.8044 133.443 93.6087 132.886 94.4375 132.312C97 131 97 131 99.3125 131.312Z" fill="#F8833B"/>
<path d="M170 107C172.458 110.687 173.012 113.697 174 118C173.01 118 172.02 118 171 118C170.67 114.37 170.34 110.74 170 107Z" fill="#AE4C2C"/>
<path d="M46 70C47.5625 71.6875 47.5625 71.6875 49 74C48.6875 76.75 48.6875 76.75 48 79C47.34 79 46.68 79 46 79C46 76.03 46 73.06 46 70Z" fill="#F46917"/>
<path d="M141 64C140.67 66.31 140.34 68.62 140 71C139.67 71 139.34 71 139 71C139 69.35 139 67.7 139 66C137.35 66.33 135.7 66.66 134 67C134 66.34 134 65.68 134 65C136.491 64.3129 138.379 64 141 64Z" fill="#F58846"/>
<path d="M130 15C132.799 17.5279 134.458 19.2041 135 23C134.01 23.33 133.02 23.66 132 24C132 22.35 132 20.7 132 19C131.34 19 130.68 19 130 19C130 17.68 130 16.36 130 15Z" fill="#C5491A"/>
<path d="M37 133C39.31 133.33 41.62 133.66 44 134C41 136 41 136 39 137C37.8665 139.017 37.8665 139.017 37 141C37 138.36 37 135.72 37 133Z" fill="#64281A"/>
<path d="M114 116C113.188 117.938 113.188 117.938 112 120C111.01 120.33 110.02 120.66 109 121C108.67 119.68 108.34 118.36 108 117C110.076 116.447 111.844 116 114 116Z" fill="#FB9347"/>
<path d="M55 92C56.32 92.99 57.64 93.98 59 95C57.35 96.65 55.7 98.3 54 100C53.34 99.67 52.68 99.34 52 99C52.66 98.34 53.32 97.68 54 97C54.6477 94.4294 54.6477 94.4294 55 92Z" fill="#F98133"/>
<path d="M65.1875 78.375C65.7856 78.5812 66.3837 78.7875 67 79C65.515 80.485 65.515 80.485 64 82C62.68 81.34 61.36 80.68 60 80C63 78 63 78 65.1875 78.375Z" fill="#F98F4C"/>
<path d="M54 58C56.31 58.66 58.62 59.32 61 60C60.67 61.32 60.34 62.64 60 64C57.3781 62.9513 56.2063 62.3507 54.75 59.875C54.5025 59.2563 54.255 58.6375 54 58Z" fill="#FA954F"/>
<path d="M128 44C130.494 45.2038 132.681 46.4543 135 48C134.67 48.99 134.34 49.98 134 51C131.959 49.3841 129.959 47.7144 128 46C128 45.34 128 44.68 128 44Z" fill="#A31F04"/>
<path d="M140 181C142.178 185.355 142.03 186.466 141 191C140.01 190.67 139.02 190.34 138 190C138.66 187.03 139.32 184.06 140 181Z" fill="#D44810"/>
<path d="M77 140C85.5714 139.714 85.5714 139.714 89 142C84.3103 143.117 81.4624 142.806 77 141C77 140.67 77 140.34 77 140Z" fill="#EA6F28"/>
<path d="M131 113C131.66 113.66 132.32 114.32 133 115C132.977 117.602 132.977 117.602 132.625 120.625C132.514 121.628 132.403 122.631 132.289 123.664C132.194 124.435 132.098 125.206 132 126C131.67 126 131.34 126 131 126C130.939 125.301 130.879 124.603 130.816 123.883C130.733 122.973 130.649 122.063 130.562 121.125C130.481 120.22 130.4 119.315 130.316 118.383C130.13 115.989 130.13 115.989 129 114C129.66 113.67 130.32 113.34 131 113Z" fill="#A82E07"/>
<path d="M156 55C156.33 55.66 156.66 56.32 157 57C155.562 59.625 155.562 59.625 154 62C153.34 61.67 152.68 61.34 152 61C152 60.01 152 59.02 152 58C152.66 58 153.32 58 154 58C154 57.34 154 56.68 154 56C154.66 55.67 155.32 55.34 156 55Z" fill="#D25017"/>
<path d="M86 38C86.99 38.33 87.98 38.66 89 39C88.34 40.65 87.68 42.3 87 44C86.34 43.67 85.68 43.34 85 43C85.33 41.35 85.66 39.7 86 38Z" fill="#F0620B"/>
<path d="M124 12C125.98 12.495 125.98 12.495 128 13C128 13.99 128 14.98 128 16C126.35 15.67 124.7 15.34 123 15C123.33 14.01 123.66 13.02 124 12Z" fill="#C63E13"/>
</svg>