<svg width="15" height="16" viewBox="0 0 15 16" fill="none" xmlns="http://www.w3.org/2000/svg">
<path d="M5.62118 7.29812C5.55337 7.29134 5.472 7.29134 5.39741 7.29812C3.78355 7.24387 2.50195 5.9216 2.50195 4.29418C2.50195 2.63285 3.84457 1.28345 5.51268 1.28345C7.17401 1.28345 8.52341 2.63285 8.52341 4.29418C8.51663 5.9216 7.23503 7.24387 5.62118 7.29812Z" stroke="black" stroke-width="1.3" stroke-linecap="round" stroke-linejoin="round"/>
<path d="M10.5374 2.63965C11.8529 2.63965 12.9107 3.70425 12.9107 5.01297C12.9107 6.29456 11.8936 7.33882 10.6255 7.38629C10.5713 7.37951 10.5102 7.37951 10.4492 7.38629" stroke="black" stroke-width="1.3" stroke-linecap="round" stroke-linejoin="round"/>
<path d="M2.23074 9.80031C0.589754 10.8988 0.589754 12.689 2.23074 13.7807C4.09549 15.0284 7.15368 15.0284 9.01844 13.7807C10.6594 12.6822 10.6594 10.892 9.01844 9.80031C7.16046 8.5594 4.10227 8.5594 2.23074 9.80031Z" stroke="black" stroke-width="1.3" stroke-linecap="round" stroke-linejoin="round"/>
<path d="M11.8461 13.4892C12.3343 13.3875 12.7954 13.1908 13.1751 12.8993C14.233 12.1059 14.233 10.7972 13.1751 10.0038C12.8022 9.71901 12.3479 9.52915 11.8664 9.42065" stroke="black" stroke-width="1.3" stroke-linecap="round" stroke-linejoin="round"/>
</svg>
