<svg width="14" height="14" viewBox="0 0 14 14" fill="none" xmlns="http://www.w3.org/2000/svg">
<path d="M13.5002 3.4248H9.60156" stroke-miterlimit="10" stroke-linecap="round" stroke-linejoin="round"/>
<path d="M3.09909 3.4248H0.5" stroke-miterlimit="10" stroke-linecap="round" stroke-linejoin="round"/>
<path d="M5.69217 5.70173C6.94818 5.70173 7.96638 4.68353 7.96638 3.42752C7.96638 2.17152 6.94818 1.15332 5.69217 1.15332C4.43616 1.15332 3.41797 2.17152 3.41797 3.42752C3.41797 4.68353 4.43616 5.70173 5.69217 5.70173Z" stroke-miterlimit="10" stroke-linecap="round" stroke-linejoin="round"/>
<path d="M13.4936 10.5752H10.8945" stroke-miterlimit="10" stroke-linecap="round" stroke-linejoin="round"/>
<path d="M4.39863 10.5752H0.5" stroke-miterlimit="10" stroke-linecap="round" stroke-linejoin="round"/>
<path d="M8.29373 12.8463C9.54974 12.8463 10.5679 11.8281 10.5679 10.5721C10.5679 9.31605 9.54974 8.29785 8.29373 8.29785C7.03773 8.29785 6.01953 9.31605 6.01953 10.5721C6.01953 11.8281 7.03773 12.8463 8.29373 12.8463Z" stroke-miterlimit="10" stroke-linecap="round" stroke-linejoin="round"/>
</svg>
