 <svg width="13" height="12" viewBox="0 0 13 12" fill="none" xmlns="http://www.w3.org/2000/svg">
   <path d="M6.54476 11.6365C6.47847 11.6364 6.41302 11.6216 6.35311 11.5932C6.2932 11.5648 6.2403 11.5235 6.1982 11.4723L0.118239 4.17638C0.0421879 4.09341 0 3.98494 0 3.87238C0 3.75983 0.0421879 3.65136 0.118239 3.56839L2.48942 1.08776C2.53633 1.03922 2.59329 1.00155 2.65632 0.977392C2.71934 0.953233 2.78689 0.943174 2.85422 0.947923H10.1502C10.2711 0.948029 10.387 0.996141 10.4724 1.08168L12.8679 3.47719C12.947 3.55699 12.9938 3.66317 12.9994 3.77537C13.005 3.88757 12.969 3.99789 12.8983 4.08518L6.90348 11.4663C6.86103 11.519 6.80736 11.5617 6.74636 11.5912C6.68536 11.6206 6.61857 11.6361 6.55084 11.6365H6.54476ZM1.07279 3.90278L6.54476 10.4631L11.9255 3.86022L9.95562 1.85992H3.01838L1.07279 3.90278Z" fill="#7F39FB" />
   <path d="M12.5396 4.34046H0.464786C0.343848 4.34046 0.227864 4.29242 0.142347 4.2069C0.0568314 4.12139 0.00878906 4.0054 0.00878906 3.88446C0.00878906 3.76353 0.0568314 3.64754 0.142347 3.56203C0.227864 3.47651 0.343848 3.42847 0.464786 3.42847H12.5396C12.6605 3.42847 12.7765 3.47651 12.862 3.56203C12.9475 3.64754 12.9956 3.76353 12.9956 3.88446C12.9956 4.0054 12.9475 4.12139 12.862 4.2069C12.7765 4.29242 12.6605 4.34046 12.5396 4.34046Z" fill="#7F39FB" />
   <path d="M6.54486 11.6364C6.42393 11.6364 6.30794 11.5884 6.22243 11.5029C6.13691 11.4173 6.08887 11.3014 6.08887 11.1804V1.42817C6.08887 1.30723 6.13691 1.19124 6.22243 1.10573C6.30794 1.02021 6.42393 0.972168 6.54486 0.972168C6.6658 0.972168 6.78179 1.02021 6.8673 1.10573C6.95282 1.19124 7.00086 1.30723 7.00086 1.42817V11.1561C7.00508 11.2182 6.99636 11.2805 6.97525 11.3391C6.95415 11.3976 6.92113 11.4512 6.87827 11.4963C6.83541 11.5415 6.78365 11.5772 6.72626 11.6013C6.66887 11.6255 6.60711 11.6374 6.54486 11.6364Z" fill="#7F39FB" />
 </svg>