<svg  viewBox="0 0 265 364" fill="none" xmlns="http://www.w3.org/2000/svg">
<mask id="mask0_954_7300" style="mask-type:alpha" maskUnits="userSpaceOnUse" x="39" y="0" width="226" height="328">
<path fill-rule="evenodd" clip-rule="evenodd" d="M154.298 0.00440296C152.624 0.0836998 151.016 0.964781 149.532 1.61678C145.139 3.53312 140.743 5.44505 136.355 7.37461C135.1 7.92969 133.848 8.48036 132.597 9.03543C131.624 9.46276 130.681 10.0487 129.602 10.0046C126.315 9.86365 123.02 9.86806 119.729 9.87247C118.447 9.87687 117.165 9.87686 115.888 9.86805C111.993 9.84161 108.099 9.82841 104.2 9.8196C102.755 9.81519 101.235 9.63898 99.8036 9.68744C97.4468 9.77114 95.9005 13.4144 94.993 15.203C92.0854 20.9168 88.6492 26.3706 84.7549 31.4676C85.5258 33.2386 86.6844 35.4942 88.3232 36.6087C89.7329 37.5603 91.0986 38.5735 92.4819 39.5603C94.0238 40.6617 95.6538 41.6088 97.2353 42.6529C97.7067 42.9701 98.0415 43.4106 98.5349 43.7058C99.8477 44.4855 101.249 45.1508 102.645 45.7631C105.451 46.9966 108.377 47.9482 111.368 48.6046C114.927 49.3843 118.588 49.7412 122.231 49.6531C125.39 49.5738 128.562 49.1729 131.699 49.5385C134.17 49.8293 136.699 50.6619 138.593 52.3359C138.972 52.6663 139.36 53.0276 139.514 53.5254C139.637 53.9219 139.619 54.3448 139.747 54.7413C140.157 56.0276 141.06 57.0629 141.285 58.433C141.54 60.0542 141.897 61.6533 142.095 63.2877C142.501 66.5609 142.02 96.5263 135.906 113.06C131.58 124.778 74.922 259.499 63.3491 276.614C56.8556 286.218 49.992 295.571 42.7848 304.646C41.4676 306.302 40.0799 308.078 39.8464 310.179C39.4367 313.761 42.4279 316.796 45.428 318.783C58.3886 327.382 74.9881 327.536 90.5391 327.391C96.178 327.342 101.817 327.289 107.465 327.237C134.981 326.99 162.497 326.739 190.013 326.488C203.771 326.36 217.529 326.237 231.287 326.113C234.723 326.082 238.181 325.941 241.617 326.016C243.935 326.069 246.212 326.615 248.543 326.726C252.939 326.933 258.005 326.215 260.582 322.197C261.785 320.316 262.186 318.038 262.521 315.831C264.975 299.558 265.402 283.037 264.688 266.609C264.512 262.574 264.274 258.543 263.97 254.512C263.71 250.983 258.794 195.277 257.345 185.731C256.878 182.7 256.393 179.66 255.662 176.678C254.93 173.665 250.327 154.149 249.604 150.809C249.261 149.206 248.908 147.602 248.543 146.003C245.78 133.906 242.384 121.941 238 110.328C235.815 104.535 233.384 98.8303 230.674 93.2619C229.573 90.9888 229 89.1693 228.551 86.7376C227.833 82.8212 225.754 79.0458 224.242 75.3981C221.264 68.1953 218.079 61.0674 214.449 54.1598C211.718 48.9746 208.74 43.9129 205.401 39.089C203.744 36.6836 201.991 34.3355 200.141 32.0624C199.22 30.9258 198.268 29.8024 197.299 28.7099C195.986 27.2208 195.066 25.6217 193.678 24.1503C190.308 20.5731 186.537 17.4541 182.55 14.5994C177.545 11.0179 172.215 7.85919 166.942 4.7578C165.409 3.8547 163.858 2.96041 162.228 2.24674C160.642 1.55509 159.008 1.28196 157.369 0.770939C156.391 0.466967 155.501 0 154.466 0C154.408 0 154.355 -2.42016e-06 154.298 0.00440296Z" fill="white"/>
</mask>
<g mask="url(#mask0_954_7300)">
<path fill-rule="evenodd" clip-rule="evenodd" d="M-172.695 -2.42719L5.10152 99.8834L107.073 -78.5169L-70.7283 -180.832L-172.695 -2.42719Z" fill="#FFA900"/>
</g>
<mask id="mask1_954_7300" style="mask-type:alpha" maskUnits="userSpaceOnUse" x="39" y="0" width="226" height="328">
<path fill-rule="evenodd" clip-rule="evenodd" d="M154.298 0.00440296C152.624 0.0836998 151.016 0.964781 149.532 1.61678C145.139 3.53312 140.743 5.44505 136.355 7.37461C135.1 7.92969 133.848 8.48036 132.597 9.03543C131.624 9.46276 130.681 10.0487 129.602 10.0046C126.315 9.86365 123.02 9.86806 119.729 9.87247C118.447 9.87687 117.165 9.87686 115.888 9.86805C111.993 9.84161 108.099 9.82841 104.2 9.8196C102.755 9.81519 101.235 9.63898 99.8036 9.68744C97.4468 9.77114 95.9005 13.4144 94.993 15.203C92.0854 20.9168 88.6492 26.3706 84.7549 31.4676C85.5258 33.2386 86.6844 35.4942 88.3232 36.6087C89.7329 37.5603 91.0986 38.5735 92.4819 39.5603C94.0238 40.6617 95.6538 41.6088 97.2353 42.6529C97.7067 42.9701 98.0415 43.4106 98.5349 43.7058C99.8477 44.4855 101.249 45.1508 102.645 45.7631C105.451 46.9966 108.377 47.9482 111.368 48.6046C114.927 49.3843 118.588 49.7412 122.231 49.6531C125.39 49.5738 128.562 49.1729 131.699 49.5385C134.17 49.8293 136.699 50.6619 138.593 52.3359C138.972 52.6663 139.36 53.0276 139.514 53.5254C139.637 53.9219 139.619 54.3448 139.747 54.7413C140.157 56.0276 141.06 57.0629 141.285 58.433C141.54 60.0542 141.897 61.6533 142.095 63.2877C142.501 66.5609 142.02 96.5263 135.906 113.06C131.58 124.778 74.922 259.499 63.3491 276.614C56.8556 286.218 49.992 295.571 42.7848 304.646C41.4676 306.302 40.0799 308.078 39.8464 310.179C39.4367 313.761 42.4279 316.796 45.428 318.783C58.3886 327.382 74.9881 327.536 90.5391 327.391C96.178 327.342 101.817 327.289 107.465 327.237C134.981 326.99 162.497 326.739 190.013 326.488C203.771 326.36 217.529 326.237 231.287 326.113C234.723 326.082 238.181 325.941 241.617 326.016C243.935 326.069 246.212 326.615 248.543 326.726C252.939 326.933 258.005 326.215 260.582 322.197C261.785 320.316 262.186 318.038 262.521 315.831C264.975 299.558 265.402 283.037 264.688 266.609C264.512 262.574 264.274 258.543 263.97 254.512C263.71 250.983 258.794 195.277 257.345 185.731C256.878 182.7 256.393 179.66 255.662 176.678C254.93 173.665 250.327 154.149 249.604 150.809C249.261 149.206 248.908 147.602 248.543 146.003C245.78 133.906 242.384 121.941 238 110.328C235.815 104.535 233.384 98.8303 230.674 93.2619C229.573 90.9888 229 89.1693 228.551 86.7376C227.833 82.8212 225.754 79.0458 224.242 75.3981C221.264 68.1953 218.079 61.0674 214.449 54.1598C211.718 48.9746 208.74 43.9129 205.401 39.089C203.744 36.6836 201.991 34.3355 200.141 32.0624C199.22 30.9258 198.268 29.8024 197.299 28.7099C195.986 27.2208 195.066 25.6217 193.678 24.1503C190.308 20.5731 186.537 17.4541 182.55 14.5994C177.545 11.0179 172.215 7.85919 166.942 4.7578C165.409 3.8547 163.858 2.96041 162.228 2.24674C160.642 1.55509 159.008 1.28196 157.369 0.770939C156.391 0.466967 155.501 0 154.466 0C154.408 0 154.355 -2.42016e-06 154.298 0.00440296Z" fill="white"/>
</mask>
<g mask="url(#mask1_954_7300)">
<path fill-rule="evenodd" clip-rule="evenodd" d="M107.074 -78.5232L284.871 23.7874L386.842 -154.613L209.041 -256.924L107.074 -78.5232Z" fill="#FFA900"/>
</g>
<mask id="mask2_954_7300" style="mask-type:alpha" maskUnits="userSpaceOnUse" x="39" y="0" width="226" height="328">
<path fill-rule="evenodd" clip-rule="evenodd" d="M154.298 0.00440296C152.624 0.0836998 151.016 0.964781 149.532 1.61678C145.139 3.53312 140.743 5.44505 136.355 7.37461C135.1 7.92969 133.848 8.48036 132.597 9.03543C131.624 9.46276 130.681 10.0487 129.602 10.0046C126.315 9.86365 123.02 9.86806 119.729 9.87247C118.447 9.87687 117.165 9.87686 115.888 9.86805C111.993 9.84161 108.099 9.82841 104.2 9.8196C102.755 9.81519 101.235 9.63898 99.8036 9.68744C97.4468 9.77114 95.9005 13.4144 94.993 15.203C92.0854 20.9168 88.6492 26.3706 84.7549 31.4676C85.5258 33.2386 86.6844 35.4942 88.3232 36.6087C89.7329 37.5603 91.0986 38.5735 92.4819 39.5603C94.0238 40.6617 95.6538 41.6088 97.2353 42.6529C97.7067 42.9701 98.0415 43.4106 98.5349 43.7058C99.8477 44.4855 101.249 45.1508 102.645 45.7631C105.451 46.9966 108.377 47.9482 111.368 48.6046C114.927 49.3843 118.588 49.7412 122.231 49.6531C125.39 49.5738 128.562 49.1729 131.699 49.5385C134.17 49.8293 136.699 50.6619 138.593 52.3359C138.972 52.6663 139.36 53.0276 139.514 53.5254C139.637 53.9219 139.619 54.3448 139.747 54.7413C140.157 56.0276 141.06 57.0629 141.285 58.433C141.54 60.0542 141.897 61.6533 142.095 63.2877C142.501 66.5609 142.02 96.5263 135.906 113.06C131.58 124.778 74.922 259.499 63.3491 276.614C56.8556 286.218 49.992 295.571 42.7848 304.646C41.4676 306.302 40.0799 308.078 39.8464 310.179C39.4367 313.761 42.4279 316.796 45.428 318.783C58.3886 327.382 74.9881 327.536 90.5391 327.391C96.178 327.342 101.817 327.289 107.465 327.237C134.981 326.99 162.497 326.739 190.013 326.488C203.771 326.36 217.529 326.237 231.287 326.113C234.723 326.082 238.181 325.941 241.617 326.016C243.935 326.069 246.212 326.615 248.543 326.726C252.939 326.933 258.005 326.215 260.582 322.197C261.785 320.316 262.186 318.038 262.521 315.831C264.975 299.558 265.402 283.037 264.688 266.609C264.512 262.574 264.274 258.543 263.97 254.512C263.71 250.983 258.794 195.277 257.345 185.731C256.878 182.7 256.393 179.66 255.662 176.678C254.93 173.665 250.327 154.149 249.604 150.809C249.261 149.206 248.908 147.602 248.543 146.003C245.78 133.906 242.384 121.941 238 110.328C235.815 104.535 233.384 98.8303 230.674 93.2619C229.573 90.9888 229 89.1693 228.551 86.7376C227.833 82.8212 225.754 79.0458 224.242 75.3981C221.264 68.1953 218.079 61.0674 214.449 54.1598C211.718 48.9746 208.74 43.9129 205.401 39.089C203.744 36.6836 201.991 34.3355 200.141 32.0624C199.22 30.9258 198.268 29.8024 197.299 28.7099C195.986 27.2208 195.066 25.6217 193.678 24.1503C190.308 20.5731 186.537 17.4541 182.55 14.5994C177.545 11.0179 172.215 7.85919 166.942 4.7578C165.409 3.8547 163.858 2.96041 162.228 2.24674C160.642 1.55509 159.008 1.28196 157.369 0.770939C156.391 0.466967 155.501 0 154.466 0C154.408 0 154.355 -2.42016e-06 154.298 0.00440296Z" fill="white"/>
</mask>
<g mask="url(#mask2_954_7300)">
<path fill-rule="evenodd" clip-rule="evenodd" d="M5.10156 99.8762L182.903 202.187L284.872 23.7864L107.069 -78.5286L5.10156 99.8762Z" fill="#FFA900"/>
</g>
<mask id="mask3_954_7300" style="mask-type:alpha" maskUnits="userSpaceOnUse" x="39" y="0" width="226" height="328">
<path fill-rule="evenodd" clip-rule="evenodd" d="M154.298 0.00440296C152.624 0.0836998 151.016 0.964781 149.532 1.61678C145.139 3.53312 140.743 5.44505 136.355 7.37461C135.1 7.92969 133.848 8.48036 132.597 9.03543C131.624 9.46276 130.681 10.0487 129.602 10.0046C126.315 9.86365 123.02 9.86806 119.729 9.87247C118.447 9.87687 117.165 9.87686 115.888 9.86805C111.993 9.84161 108.099 9.82841 104.2 9.8196C102.755 9.81519 101.235 9.63898 99.8036 9.68744C97.4468 9.77114 95.9005 13.4144 94.993 15.203C92.0854 20.9168 88.6492 26.3706 84.7549 31.4676C85.5258 33.2386 86.6844 35.4942 88.3232 36.6087C89.7329 37.5603 91.0986 38.5735 92.4819 39.5603C94.0238 40.6617 95.6538 41.6088 97.2353 42.6529C97.7067 42.9701 98.0415 43.4106 98.5349 43.7058C99.8477 44.4855 101.249 45.1508 102.645 45.7631C105.451 46.9966 108.377 47.9482 111.368 48.6046C114.927 49.3843 118.588 49.7412 122.231 49.6531C125.39 49.5738 128.562 49.1729 131.699 49.5385C134.17 49.8293 136.699 50.6619 138.593 52.3359C138.972 52.6663 139.36 53.0276 139.514 53.5254C139.637 53.9219 139.619 54.3448 139.747 54.7413C140.157 56.0276 141.06 57.0629 141.285 58.433C141.54 60.0542 141.897 61.6533 142.095 63.2877C142.501 66.5609 142.02 96.5263 135.906 113.06C131.58 124.778 74.922 259.499 63.3491 276.614C56.8556 286.218 49.992 295.571 42.7848 304.646C41.4676 306.302 40.0799 308.078 39.8464 310.179C39.4367 313.761 42.4279 316.796 45.428 318.783C58.3886 327.382 74.9881 327.536 90.5391 327.391C96.178 327.342 101.817 327.289 107.465 327.237C134.981 326.99 162.497 326.739 190.013 326.488C203.771 326.36 217.529 326.237 231.287 326.113C234.723 326.082 238.181 325.941 241.617 326.016C243.935 326.069 246.212 326.615 248.543 326.726C252.939 326.933 258.005 326.215 260.582 322.197C261.785 320.316 262.186 318.038 262.521 315.831C264.975 299.558 265.402 283.037 264.688 266.609C264.512 262.574 264.274 258.543 263.97 254.512C263.71 250.983 258.794 195.277 257.345 185.731C256.878 182.7 256.393 179.66 255.662 176.678C254.93 173.665 250.327 154.149 249.604 150.809C249.261 149.206 248.908 147.602 248.543 146.003C245.78 133.906 242.384 121.941 238 110.328C235.815 104.535 233.384 98.8303 230.674 93.2619C229.573 90.9888 229 89.1693 228.551 86.7376C227.833 82.8212 225.754 79.0458 224.242 75.3981C221.264 68.1953 218.079 61.0674 214.449 54.1598C211.718 48.9746 208.74 43.9129 205.401 39.089C203.744 36.6836 201.991 34.3355 200.141 32.0624C199.22 30.9258 198.268 29.8024 197.299 28.7099C195.986 27.2208 195.066 25.6217 193.678 24.1503C190.308 20.5731 186.537 17.4541 182.55 14.5994C177.545 11.0179 172.215 7.85919 166.942 4.7578C165.409 3.8547 163.858 2.96041 162.228 2.24674C160.642 1.55509 159.008 1.28196 157.369 0.770939C156.391 0.466967 155.501 0 154.466 0C154.408 0 154.355 -2.42016e-06 154.298 0.00440296Z" fill="white"/>
</mask>
<g mask="url(#mask3_954_7300)">
<path fill-rule="evenodd" clip-rule="evenodd" d="M-96.8633 278.276L82.3208 380.587L185.081 202.185L5.89667 99.8748L-96.8633 278.276Z" fill="#FFA900"/>
</g>
<mask id="mask4_954_7300" style="mask-type:alpha" maskUnits="userSpaceOnUse" x="39" y="0" width="226" height="328">
<path fill-rule="evenodd" clip-rule="evenodd" d="M154.298 0.00440296C152.624 0.0836998 151.016 0.964781 149.532 1.61678C145.139 3.53312 140.743 5.44505 136.355 7.37461C135.1 7.92969 133.848 8.48036 132.597 9.03543C131.624 9.46276 130.681 10.0487 129.602 10.0046C126.315 9.86365 123.02 9.86806 119.729 9.87247C118.447 9.87687 117.165 9.87686 115.888 9.86805C111.993 9.84161 108.099 9.82841 104.2 9.8196C102.755 9.81519 101.235 9.63898 99.8036 9.68744C97.4468 9.77114 95.9005 13.4144 94.993 15.203C92.0854 20.9168 88.6492 26.3706 84.7549 31.4676C85.5258 33.2386 86.6844 35.4942 88.3232 36.6087C89.7329 37.5603 91.0986 38.5735 92.4819 39.5603C94.0238 40.6617 95.6538 41.6088 97.2353 42.6529C97.7067 42.9701 98.0415 43.4106 98.5349 43.7058C99.8477 44.4855 101.249 45.1508 102.645 45.7631C105.451 46.9966 108.377 47.9482 111.368 48.6046C114.927 49.3843 118.588 49.7412 122.231 49.6531C125.39 49.5738 128.562 49.1729 131.699 49.5385C134.17 49.8293 136.699 50.6619 138.593 52.3359C138.972 52.6663 139.36 53.0276 139.514 53.5254C139.637 53.9219 139.619 54.3448 139.747 54.7413C140.157 56.0276 141.06 57.0629 141.285 58.433C141.54 60.0542 141.897 61.6533 142.095 63.2877C142.501 66.5609 142.02 96.5263 135.906 113.06C131.58 124.778 74.922 259.499 63.3491 276.614C56.8556 286.218 49.992 295.571 42.7848 304.646C41.4676 306.302 40.0799 308.078 39.8464 310.179C39.4367 313.761 42.4279 316.796 45.428 318.783C58.3886 327.382 74.9881 327.536 90.5391 327.391C96.178 327.342 101.817 327.289 107.465 327.237C134.981 326.99 162.497 326.739 190.013 326.488C203.771 326.36 217.529 326.237 231.287 326.113C234.723 326.082 238.181 325.941 241.617 326.016C243.935 326.069 246.212 326.615 248.543 326.726C252.939 326.933 258.005 326.215 260.582 322.197C261.785 320.316 262.186 318.038 262.521 315.831C264.975 299.558 265.402 283.037 264.688 266.609C264.512 262.574 264.274 258.543 263.97 254.512C263.71 250.983 258.794 195.277 257.345 185.731C256.878 182.7 256.393 179.66 255.662 176.678C254.93 173.665 250.327 154.149 249.604 150.809C249.261 149.206 248.908 147.602 248.543 146.003C245.78 133.906 242.384 121.941 238 110.328C235.815 104.535 233.384 98.8303 230.674 93.2619C229.573 90.9888 229 89.1693 228.551 86.7376C227.833 82.8212 225.754 79.0458 224.242 75.3981C221.264 68.1953 218.079 61.0674 214.449 54.1598C211.718 48.9746 208.74 43.9129 205.401 39.089C203.744 36.6836 201.991 34.3355 200.141 32.0624C199.22 30.9258 198.268 29.8024 197.299 28.7099C195.986 27.2208 195.066 25.6217 193.678 24.1503C190.308 20.5731 186.537 17.4541 182.55 14.5994C177.545 11.0179 172.215 7.85919 166.942 4.7578C165.409 3.8547 163.858 2.96041 162.228 2.24674C160.642 1.55509 159.008 1.28196 157.369 0.770939C156.391 0.466967 155.501 0 154.466 0C154.408 0 154.355 -2.42016e-06 154.298 0.00440296Z" fill="white"/>
</mask>
<g mask="url(#mask4_954_7300)">
<path fill-rule="evenodd" clip-rule="evenodd" d="M180.73 202.968L359.912 305.727L462.676 126.544L283.492 23.7832L180.73 202.968Z" fill="#FFA900"/>
</g>
<mask id="mask5_954_7300" style="mask-type:alpha" maskUnits="userSpaceOnUse" x="39" y="0" width="226" height="328">
<path fill-rule="evenodd" clip-rule="evenodd" d="M154.298 0.00440296C152.624 0.0836998 151.016 0.964781 149.532 1.61678C145.139 3.53312 140.743 5.44505 136.355 7.37461C135.1 7.92969 133.848 8.48036 132.597 9.03543C131.624 9.46276 130.681 10.0487 129.602 10.0046C126.315 9.86365 123.02 9.86806 119.729 9.87247C118.447 9.87687 117.165 9.87686 115.888 9.86805C111.993 9.84161 108.099 9.82841 104.2 9.8196C102.755 9.81519 101.235 9.63898 99.8036 9.68744C97.4468 9.77114 95.9005 13.4144 94.993 15.203C92.0854 20.9168 88.6492 26.3706 84.7549 31.4676C85.5258 33.2386 86.6844 35.4942 88.3232 36.6087C89.7329 37.5603 91.0986 38.5735 92.4819 39.5603C94.0238 40.6617 95.6538 41.6088 97.2353 42.6529C97.7067 42.9701 98.0415 43.4106 98.5349 43.7058C99.8477 44.4855 101.249 45.1508 102.645 45.7631C105.451 46.9966 108.377 47.9482 111.368 48.6046C114.927 49.3843 118.588 49.7412 122.231 49.6531C125.39 49.5738 128.562 49.1729 131.699 49.5385C134.17 49.8293 136.699 50.6619 138.593 52.3359C138.972 52.6663 139.36 53.0276 139.514 53.5254C139.637 53.9219 139.619 54.3448 139.747 54.7413C140.157 56.0276 141.06 57.0629 141.285 58.433C141.54 60.0542 141.897 61.6533 142.095 63.2877C142.501 66.5609 142.02 96.5263 135.906 113.06C131.58 124.778 74.922 259.499 63.3491 276.614C56.8556 286.218 49.992 295.571 42.7848 304.646C41.4676 306.302 40.0799 308.078 39.8464 310.179C39.4367 313.761 42.4279 316.796 45.428 318.783C58.3886 327.382 74.9881 327.536 90.5391 327.391C96.178 327.342 101.817 327.289 107.465 327.237C134.981 326.99 162.497 326.739 190.013 326.488C203.771 326.36 217.529 326.237 231.287 326.113C234.723 326.082 238.181 325.941 241.617 326.016C243.935 326.069 246.212 326.615 248.543 326.726C252.939 326.933 258.005 326.215 260.582 322.197C261.785 320.316 262.186 318.038 262.521 315.831C264.975 299.558 265.402 283.037 264.688 266.609C264.512 262.574 264.274 258.543 263.97 254.512C263.71 250.983 258.794 195.277 257.345 185.731C256.878 182.7 256.393 179.66 255.662 176.678C254.93 173.665 250.327 154.149 249.604 150.809C249.261 149.206 248.908 147.602 248.543 146.003C245.78 133.906 242.384 121.941 238 110.328C235.815 104.535 233.384 98.8303 230.674 93.2619C229.573 90.9888 229 89.1693 228.551 86.7376C227.833 82.8212 225.754 79.0458 224.242 75.3981C221.264 68.1953 218.079 61.0674 214.449 54.1598C211.718 48.9746 208.74 43.9129 205.401 39.089C203.744 36.6836 201.991 34.3355 200.141 32.0624C199.22 30.9258 198.268 29.8024 197.299 28.7099C195.986 27.2208 195.066 25.6217 193.678 24.1503C190.308 20.5731 186.537 17.4541 182.55 14.5994C177.545 11.0179 172.215 7.85919 166.942 4.7578C165.409 3.8547 163.858 2.96041 162.228 2.24674C160.642 1.55509 159.008 1.28196 157.369 0.770939C156.391 0.466967 155.501 0 154.466 0C154.408 0 154.355 -2.42016e-06 154.298 0.00440296Z" fill="white"/>
</mask>
<g mask="url(#mask5_954_7300)">
<path fill-rule="evenodd" clip-rule="evenodd" d="M78.7578 380.15L257.941 482.91L360.701 303.726L181.52 200.965L78.7578 380.15Z" fill="#FFA900"/>
</g>
<path fill-rule="evenodd" clip-rule="evenodd" d="M99.067 9.41865C100.503 9.7006 101.644 10.4187 101.768 12.2601C101.891 14.1412 101.019 15.9298 100.151 17.5994C98.1243 21.4894 95.9216 25.3926 92.8246 28.5468C91.3972 30.0006 89.8289 31.3398 88.3619 32.754C85.4412 35.5778 81.701 29.9213 80.5644 27.7054C79.1371 24.9256 78.9609 21.5378 79.6569 18.5246C80.3441 15.5465 81.842 12.6302 84.3575 10.8856C87.3575 8.8019 90.9523 8.91204 94.4369 9.19839C95.7718 9.30852 97.578 9.1323 99.067 9.41865Z" fill="#0D1216"/>
<path fill-rule="evenodd" clip-rule="evenodd" d="M217.579 76.3961C218.482 85.48 220.011 94.6961 217.954 103.89C216.738 109.331 215.412 114.639 212.641 119.542C211.465 121.622 209.432 123.128 207.679 124.75C205.657 126.609 203.472 128.327 200.978 129.507C198.159 130.851 195.057 131.455 191.965 131.723C187.951 132.067 183.929 132.292 180.105 130.913C177.766 130.071 175.511 128.935 173.594 127.336C170.823 125.027 168.872 121.855 167.515 118.516C166.109 115.058 165.387 111.362 165.114 107.639C163.933 91.5639 168.233 82.3522 169.083 79.5636C169.903 76.8851 171.907 74.2815 173.185 71.7661C175.978 66.2681 178.4 60.5896 180.445 54.7701C182.489 48.955 184.154 43.0033 185.418 36.9724C186.053 33.9547 186.581 30.9194 187.017 27.8664C187.229 26.3422 187.418 24.8135 187.581 23.2804C187.634 22.8223 188.264 19.0072 187.987 18.8574C189.965 19.9235 213.967 39.9989 217.579 76.3961Z" fill="#992F03"/>
<path fill-rule="evenodd" clip-rule="evenodd" d="M128.692 39.4554C136.516 40.1426 144.309 42.288 150.948 46.4819C152.644 44.8475 151.102 41.9885 149.322 40.4422C144.542 36.2923 138.194 34.279 131.89 33.7151C125.581 33.1557 119.238 33.9442 112.964 34.8121C111.163 35.0632 109.282 35.4509 107.687 36.3716C106.726 36.9355 104.409 38.7901 105.911 39.8959C107.414 40.9972 110.656 39.9135 112.312 39.7417C114.863 39.4774 117.427 39.2924 119.995 39.2175C122.899 39.1382 125.802 39.1998 128.692 39.4554Z" fill="#080A0C"/>
<path fill-rule="evenodd" clip-rule="evenodd" d="M138.681 9.76943C138.781 9.75111 138.89 9.73553 138.997 9.73374C140.216 9.68879 141.236 10.6344 141.281 11.8535C141.428 15.7683 144.087 19.4855 147.741 20.8964C151.395 22.303 155.865 21.3289 158.602 18.5279C159.45 17.6554 160.845 17.6452 161.713 18.4934C162.586 19.3408 162.605 20.7349 161.752 21.6038C157.817 25.633 151.408 27.0262 146.158 25.0037C140.904 22.982 137.091 17.6405 136.882 12.0174C136.839 10.9098 137.62 9.96458 138.681 9.76943Z" fill="#080A0C"/>
<path fill-rule="evenodd" clip-rule="evenodd" d="M234.62 147.773C231.541 152.831 230.836 159.276 232.752 164.879C234.4 169.694 237.858 173.924 238.404 178.977C239.184 186.122 233.995 192.439 228.787 197.391C226.329 199.726 223.805 202.012 221.589 204.585C220.505 205.845 219.492 207.171 218.642 208.598C217.941 209.77 217.461 210.999 216.906 212.233C216.712 212.673 216.082 214.797 216.082 215.418C216.073 218.145 216.342 220.872 216.862 223.55C217.91 228.907 219.985 234.066 222.928 238.665C225.122 242.088 227.801 245.203 230.889 247.841C237.166 253.207 244.964 256.652 253.065 258.247C256.792 258.983 260.594 259.335 264.396 259.494C264.431 259.498 264.079 250.212 264.079 249.366C264.4 194.73 247.039 139.945 247.039 139.945C242.114 140.967 237.184 143.557 234.62 147.773Z" fill="#992F03"/>
<path fill-rule="evenodd" clip-rule="evenodd" d="M134.606 328.429C133.984 328.429 133.394 328.165 132.976 327.707C132.548 327.235 132.346 326.605 132.416 325.98C133.006 320.768 136.531 317.116 139.945 313.588C141.412 312.072 142.795 310.636 143.941 309.107C147.275 304.517 173.999 212.78 175.888 195.894C176.021 194.682 177.113 193.814 178.325 193.947C179.532 194.083 180.404 195.171 180.267 196.383C178.514 212.079 151.844 305.874 147.469 311.737C146.161 313.499 144.61 315.099 143.117 316.649C140.786 319.055 138.562 321.359 137.456 323.98L168.457 323.5C170.606 320.861 177.637 312.068 181.17 305.825C181.77 304.759 183.126 304.394 184.171 304.993C185.228 305.592 185.602 306.94 184.999 307.997C180.624 315.724 171.593 326.636 171.21 327.094C170.796 327.592 170.188 327.879 169.549 327.892L134.641 328.429H134.606Z" fill="#992F03"/>
<path fill-rule="evenodd" clip-rule="evenodd" d="M134.607 328.434H134.599L103.052 328.293C102.034 328.289 101.157 327.593 100.92 326.606C100.734 325.839 96.3732 307.68 95.2366 296.151C95.122 294.94 96.0031 293.861 97.219 293.742C98.4173 293.662 99.5054 294.508 99.6287 295.72C100.536 304.953 103.691 319.077 104.805 323.897L132.361 324.02C132.026 317.738 129.973 312.989 127.982 308.381C126.964 306.024 125.907 303.588 125.109 301.002C122.581 292.843 118.541 205.912 119.515 196.383C119.642 195.171 120.744 194.308 121.929 194.418C123.14 194.541 124.021 195.625 123.894 196.832C122.982 205.749 126.977 292.147 129.317 299.702C130.048 302.059 131.008 304.279 132.026 306.632C134.422 312.187 136.903 317.927 136.81 326.258C136.797 327.465 135.81 328.434 134.607 328.434Z" fill="#992F03"/>
<path fill-rule="evenodd" clip-rule="evenodd" d="M248.178 326.77H248.16L185.832 326.272C185.022 326.268 184.281 325.818 183.903 325.104C183.524 324.391 183.563 323.527 184.013 322.853C189.978 313.831 197.991 306.051 207.181 300.355L207.661 300.064C209.071 299.192 210.405 298.373 211.304 297.285C212.494 295.831 213.053 293.699 213.547 291.813C217.798 275.491 222.723 260.229 235.961 252.784C240.442 250.264 245.512 248.999 249.909 248.008C251.12 247.744 252.279 248.484 252.539 249.673C252.812 250.858 252.063 252.039 250.878 252.303C246.596 253.268 242.08 254.396 238.12 256.625C226.389 263.224 221.816 277.557 217.802 292.923C217.234 295.13 216.516 297.879 214.705 300.082C213.34 301.738 211.551 302.844 209.965 303.818L209.507 304.1C202.022 308.738 195.37 314.84 190.075 321.902L248.195 322.364C249.411 322.373 250.389 323.369 250.38 324.585C250.371 325.796 249.385 326.77 248.178 326.77Z" fill="#992F03"/>
<mask id="mask6_954_7300" style="mask-type:alpha" maskUnits="userSpaceOnUse" x="0" y="244" width="131" height="120">
<path fill-rule="evenodd" clip-rule="evenodd" d="M71.8371 244.734C65.8898 245.955 59.9822 247.391 54.1847 249.201C47.5634 251.267 41.0919 253.831 34.9641 257.083C20.999 264.488 8.67274 275.903 2.73429 290.551C0.205601 296.789 -1.1028 303.895 1.17919 310.221C3.3158 316.15 8.28948 320.587 13.4702 324.159C22.9462 330.675 33.7878 335.195 45.0832 337.323C55.5372 339.292 66.5374 339.362 76.5421 343.283C78.5157 344.058 80.6038 344.975 82.4541 346.014C83.4277 346.561 84.062 347.468 85.1413 347.86C86.2823 348.274 87.7537 348.045 88.4013 347.023C89.2031 345.741 88.3881 344.116 87.67 342.785C87.5114 342.486 87.3485 342.146 87.4454 341.82C87.6128 341.208 88.463 341.164 89.0974 341.252C90.1723 341.393 91.3177 341.45 92.353 341.75C93.2561 342.01 94.4191 342.71 95.375 342.71C100.556 344.327 105.591 346.424 110.393 348.97C112.908 350.305 115.45 351.715 117.776 353.376C118.243 353.706 118.706 354.059 119.05 354.539C119.944 355.803 120.001 357.631 120.014 359.107C120.032 360.53 120.094 362.609 121.71 363.169C123.173 363.676 124.578 362.336 125.473 361.076C127.226 358.587 128.644 355.852 129.64 352.975C130.583 350.266 129.759 348.133 129.477 345.495C129.164 342.578 129.27 339.97 128.257 337.138C126.385 331.9 122.636 327.362 118.098 324.195C110.737 319.049 101.697 316.996 92.864 315.322C84.04 313.644 74.9826 312.168 67.0573 307.93C60.7752 304.573 54.9424 298.291 55.9733 291.242C56.6341 286.788 59.7972 283.352 62.392 279.876C69.2511 270.669 74.5068 260.016 79.8725 249.897C80.432 248.836 81.0135 247.69 80.9034 246.492C80.7051 244.435 78.9958 244.43 77.4539 244.272C76.9694 244.219 76.5068 244.197 76.0575 244.197C74.6389 244.197 73.3438 244.426 71.8371 244.734Z" fill="white"/>
</mask>
<g mask="url(#mask6_954_7300)">
<path fill-rule="evenodd" clip-rule="evenodd" d="M-96.8633 278.277L80.9379 380.588L182.905 202.186L5.10369 99.8755L-96.8633 278.277Z" fill="#FFA900"/>
</g>
<mask id="mask7_954_7300" style="mask-type:alpha" maskUnits="userSpaceOnUse" x="0" y="244" width="131" height="120">
<path fill-rule="evenodd" clip-rule="evenodd" d="M71.8371 244.734C65.8898 245.955 59.9822 247.391 54.1847 249.201C47.5634 251.267 41.0919 253.831 34.9641 257.083C20.999 264.488 8.67274 275.903 2.73429 290.551C0.205601 296.789 -1.1028 303.895 1.17919 310.221C3.3158 316.15 8.28948 320.587 13.4702 324.159C22.9462 330.675 33.7878 335.195 45.0832 337.323C55.5372 339.292 66.5374 339.362 76.5421 343.283C78.5157 344.058 80.6038 344.975 82.4541 346.014C83.4277 346.561 84.062 347.468 85.1413 347.86C86.2823 348.274 87.7537 348.045 88.4013 347.023C89.2031 345.741 88.3881 344.116 87.67 342.785C87.5114 342.486 87.3485 342.146 87.4454 341.82C87.6128 341.208 88.463 341.164 89.0974 341.252C90.1723 341.393 91.3177 341.45 92.353 341.75C93.2561 342.01 94.4191 342.71 95.375 342.71C100.556 344.327 105.591 346.424 110.393 348.97C112.908 350.305 115.45 351.715 117.776 353.376C118.243 353.706 118.706 354.059 119.05 354.539C119.944 355.803 120.001 357.631 120.014 359.107C120.032 360.53 120.094 362.609 121.71 363.169C123.173 363.676 124.578 362.336 125.473 361.076C127.226 358.587 128.644 355.852 129.64 352.975C130.583 350.266 129.759 348.133 129.477 345.495C129.164 342.578 129.27 339.97 128.257 337.138C126.385 331.9 122.636 327.362 118.098 324.195C110.737 319.049 101.697 316.996 92.864 315.322C84.04 313.644 74.9826 312.168 67.0573 307.93C60.7752 304.573 54.9424 298.291 55.9733 291.242C56.6341 286.788 59.7972 283.352 62.392 279.876C69.2511 270.669 74.5068 260.016 79.8725 249.897C80.432 248.836 81.0135 247.69 80.9034 246.492C80.7051 244.435 78.9958 244.43 77.4539 244.272C76.9694 244.219 76.5068 244.197 76.0575 244.197C74.6389 244.197 73.3438 244.426 71.8371 244.734Z" fill="white"/>
</mask>
<g mask="url(#mask7_954_7300)">
<path fill-rule="evenodd" clip-rule="evenodd" d="M-198.828 456.671L-21.0312 558.981L80.9402 380.581L-96.8611 278.27L-198.828 456.671Z" fill="#FFA900"/>
</g>
<mask id="mask8_954_7300" style="mask-type:alpha" maskUnits="userSpaceOnUse" x="0" y="244" width="131" height="120">
<path fill-rule="evenodd" clip-rule="evenodd" d="M71.8371 244.734C65.8898 245.955 59.9822 247.391 54.1847 249.201C47.5634 251.267 41.0919 253.831 34.9641 257.083C20.999 264.488 8.67274 275.903 2.73429 290.551C0.205601 296.789 -1.1028 303.895 1.17919 310.221C3.3158 316.15 8.28948 320.587 13.4702 324.159C22.9462 330.675 33.7878 335.195 45.0832 337.323C55.5372 339.292 66.5374 339.362 76.5421 343.283C78.5157 344.058 80.6038 344.975 82.4541 346.014C83.4277 346.561 84.062 347.468 85.1413 347.86C86.2823 348.274 87.7537 348.045 88.4013 347.023C89.2031 345.741 88.3881 344.116 87.67 342.785C87.5114 342.486 87.3485 342.146 87.4454 341.82C87.6128 341.208 88.463 341.164 89.0974 341.252C90.1723 341.393 91.3177 341.45 92.353 341.75C93.2561 342.01 94.4191 342.71 95.375 342.71C100.556 344.327 105.591 346.424 110.393 348.97C112.908 350.305 115.45 351.715 117.776 353.376C118.243 353.706 118.706 354.059 119.05 354.539C119.944 355.803 120.001 357.631 120.014 359.107C120.032 360.53 120.094 362.609 121.71 363.169C123.173 363.676 124.578 362.336 125.473 361.076C127.226 358.587 128.644 355.852 129.64 352.975C130.583 350.266 129.759 348.133 129.477 345.495C129.164 342.578 129.27 339.97 128.257 337.138C126.385 331.9 122.636 327.362 118.098 324.195C110.737 319.049 101.697 316.996 92.864 315.322C84.04 313.644 74.9826 312.168 67.0573 307.93C60.7752 304.573 54.9424 298.291 55.9733 291.242C56.6341 286.788 59.7972 283.352 62.392 279.876C69.2511 270.669 74.5068 260.016 79.8725 249.897C80.432 248.836 81.0135 247.69 80.9034 246.492C80.7051 244.435 78.9958 244.43 77.4539 244.272C76.9694 244.219 76.5068 244.197 76.0575 244.197C74.6389 244.197 73.3438 244.426 71.8371 244.734Z" fill="white"/>
</mask>
<g mask="url(#mask8_954_7300)">
<path fill-rule="evenodd" clip-rule="evenodd" d="M80.9414 380.585L258.739 482.895L360.706 304.495L182.908 202.179L80.9414 380.585Z" fill="#FFA900"/>
</g>
<path fill-rule="evenodd" clip-rule="evenodd" d="M119.843 325.672C119.592 325.672 119.345 325.589 119.143 325.417C112.711 320.091 104.618 318.122 96.0498 316.029C91.0893 314.818 85.9615 313.566 81.1993 311.602C77.2212 309.967 74.1727 308.055 71.8687 305.769C68.1241 302.064 66.0844 296.623 66.2738 290.852C66.4589 285.081 68.851 279.782 72.829 276.323C73.2916 275.927 73.9876 275.971 74.3841 276.434C74.7806 276.892 74.7366 277.588 74.274 277.984C70.7541 281.046 68.6439 285.76 68.4721 290.923C68.3047 296.086 70.1065 300.927 73.4194 304.205C75.5119 306.289 78.3358 308.042 82.0407 309.566C86.6443 311.465 91.6885 312.699 96.574 313.888C105.006 315.945 113.724 318.073 120.544 323.725C121.015 324.113 121.077 324.805 120.689 325.276C120.478 325.536 120.156 325.672 119.843 325.672Z" fill="#992F03"/>
</svg>
