<svg width="20" height="20" viewBox="0 0 20 30" fill="none" xmlns="http://www.w3.org/2000/svg">
<path d="M10.7794 7.31738C11.564 7.31738 12.3309 7.55002 12.9832 7.98588C13.6355 8.42175 14.1439 9.04125 14.4441 9.76606C14.7444 10.4909 14.8229 11.2884 14.6699 12.0579C14.5168 12.8273 14.139 13.5341 13.5843 14.0889C13.0295 14.6436 12.3228 15.0214 11.5533 15.1745C10.7838 15.3275 9.98628 15.249 9.26147 14.9487C8.53666 14.6485 7.91715 14.1401 7.48129 13.4878C7.04543 12.8355 6.81279 12.0686 6.81279 11.284C6.81399 10.2324 7.23228 9.22414 7.97592 8.48051C8.71955 7.73688 9.72779 7.31858 10.7794 7.31738ZM10.7794 13.2674C11.1717 13.2674 11.5552 13.151 11.8813 12.9331C12.2075 12.7152 12.4617 12.4054 12.6118 12.043C12.7619 11.6806 12.8012 11.2818 12.7247 10.8971C12.6481 10.5124 12.4592 10.159 12.1819 9.88161C11.9045 9.60424 11.5511 9.41534 11.1664 9.33882C10.7816 9.26229 10.3829 9.30157 10.0205 9.45168C9.65805 9.60179 9.3483 9.856 9.13036 10.1822C8.91243 10.5083 8.79611 10.8918 8.79611 11.284C8.79672 11.8099 9.00587 12.314 9.37769 12.6858C9.7495 13.0576 10.2536 13.2668 10.7794 13.2674Z"/>
<path d="M3.15778 3.65629C5.04239 1.77215 7.55812 0.652901 10.2194 0.514547C12.8807 0.376194 15.499 1.22855 17.5688 2.9071C19.6386 4.58565 21.0133 6.97142 21.4275 9.60393C21.8418 12.2364 21.2662 14.9291 19.8119 17.1622L12.3182 28.6663C12.1514 28.9223 11.9234 29.1326 11.6548 29.2782C11.3862 29.4237 11.0856 29.5 10.78 29.5C10.4745 29.5 10.1738 29.4237 9.90524 29.2782C9.63665 29.1326 9.40864 28.9223 9.24187 28.6663L1.74794 17.1622C0.398508 15.0907 -0.197847 12.6182 0.0588303 10.1593C0.315508 7.70041 1.40962 5.40445 3.15778 3.65629ZM3.40972 16.0796L10.78 27.3938L18.1504 16.0796C20.4064 12.6163 19.9225 7.98148 16.9998 5.05868C16.183 4.24187 15.2134 3.59393 14.1462 3.15188C13.079 2.70982 11.9351 2.48229 10.78 2.48229C9.62487 2.48229 8.48105 2.70982 7.41385 3.15188C6.34664 3.59393 5.37697 4.24187 4.56017 5.05868C1.6375 7.98148 1.15369 12.6163 3.40972 16.0796Z"/>
</svg>
