<svg id="Layer_1" data-name="Layer 1" xmlns="http://www.w3.org/2000/svg" viewBox="0 0 892 436"><defs><style>.cls-1{fill:#fff;}</style></defs><path fill="none" d="M280-73.91q220.71,0,441.41-.09c3.75,0,4.59.84,4.59,4.59q-.16,213.4,0,426.82c0,3.75-.84,4.59-4.59,4.59q-441.4-.15-882.82,0c-3.75,0-4.59-.84-4.59-4.59q.17-213.41,0-426.82c0-3.75.84-4.59,4.59-4.59Q59.3-73.84,280-73.91Z" transform="translate(166 74)"/><path class="cls-1" d="M111.05,151.59q0-48.21,0-96.43c0-7.07.06-7.09,7.3-7.1,16.66,0,33.32.11,50-.1,4.4-.05,5.78,1.49,5.74,5.79-.15,18-.05,36,0,54,0,6,.21,6,5.15,3.12,22.17-13.13,45.29-15.19,68.67-4.23,19.22,9,28.45,25.5,31.19,46.16a146,146,0,0,1,.92,18.91c0,26-.1,52,.07,77.94,0,4.71-1.37,6.44-6.22,6.38-17.16-.21-34.32-.16-51.48,0-4.19.05-5.44-1.51-5.42-5.56.13-22.82,0-45.64.08-68.46a79.84,79.84,0,0,0-1.21-13.39c-2.41-14.69-19.54-20.7-31.43-11.37-8.05,6.33-10.19,15-10.29,24.31-.25,22.49-.08,45-.11,67.46,0,6.91-.07,6.95-7,6.95-16.49,0-33-.18-49.48.07-5,.08-6.64-1.38-6.61-6.49C111.14,216.88,111,184.24,111.05,151.59Z" transform="translate(166 74)"/><path class="cls-1" d="M2.55,260c-12.22,1.31-26.56-2.09-40.36-6.9a98.41,98.41,0,0,1-42.94-29.81c-17.79-20.9-24.58-45.51-23-72.28,1.8-29.94,13.79-55.08,38.45-73.4,17.55-13,37.09-20.08,58.91-21.85C12.31,54.28,30.51,56,48.16,62c17,5.8,31.16,16.13,43.05,29.62,2.35,2.67.83,4.15-1,5.76Q79.45,107,68.61,116.62c-4.23,3.73-8.81,7.13-12.7,11.2-3.29,3.45-5.41,2.61-8-.5-7.42-8.78-16.66-15-28-17.24-19.25-3.79-36.58.6-48.08,16.42-13,17.8-13,51.33,5.14,68.8,5.86,5.65,13.17,8.95,21.17,10.54C15.2,209.22,30,204.36,43,193.28a33.58,33.58,0,0,0,6-6.65c1.62-2.35,3.47-2.63,5.79-.5,11.24,10.37,22.63,20.58,33.86,31,4.55,4.22,4.34,4.95.08,9.67C71.69,245.69,50,255.35,25.17,259,18.53,260,11.91,259.85,2.55,260Z" transform="translate(166 74)"/><path class="cls-1" d="M398.94,179c0-23.3.09-46.61-.07-69.91,0-4.41,1.14-6.19,5.88-6.12q24,.39,47.95,0c4.71-.06,6.7,1.34,6.36,6.23-.17,2.49-1.4,6,1.19,7.35,2.14,1.09,3.67-2.27,5.41-3.63,11.23-8.77,24.23-12,38.1-12.89,3.93-.25,5.25,1.31,5.21,5.19q-.21,22.22,0,44.44c.05,4.24-1.73,5.29-5.65,5.42-6.29.21-12.61-.76-18.88.81-13.16,3.31-21.4,13.34-21.47,27-.11,22,0,43.94,0,65.91,0,7.17-.07,7.16-7.22,7.16l-49.44,0c-7.26,0-7.29,0-7.3-7.1q0-35,0-69.91Z" transform="translate(166 74)"/><path class="cls-1" d="M371,179.83c0,23.32-.07,46.64.08,70,0,4.31-1,6.3-5.81,6.23-17.16-.25-34.32-.21-51.48,0-4.29,0-5.82-1.27-5.81-5.7q.18-70.95,0-141.91c0-4.25,1.55-5.43,5.55-5.4,17.33.13,34.65.17,52,0,4.6-.06,5.59,1.82,5.57,5.94C370.89,132.53,371,156.18,371,179.83Z" transform="translate(166 74)"/><path class="cls-1" d="M522.36,252c-.14-1.65-.39-3.3-.4-5q0-67.58-.07-135.15c0-3.78.67-6.23,5.06-5.86.8-1,.91-2.58,2.46-3,4.75-1,9.54-.44,14.31-.35,5.37.11,10.73.12,16.1.06,2.37,0,5-.5,6.9,1.8,2,3,5,2.88,8.06,2.71,6.73-.36,6.93-.21,6.84,6.15-.51,39.47.25,78.93-.28,118.39-.08,5.8-.16,11.62,0,17.42.1,2.9-.6,4-3.68,4-17.35.23-34.69.59-52.05-.13A6.89,6.89,0,0,1,522.36,252Z" transform="translate(166 74)"/><path class="cls-1" d="M515.83,14.19l2.6-2.25C525.05,7.86,532,7.63,539.23,10c7.35,3.6,12,10.39,18.32,15.28Q579.2,42.1,600.41,59.45c2.78,2.26,6.76,3.73,7.08,8.33.08,1.2,1.73,1.4,2.74,1.93,15.52,8,31.93,14,47.67,21.44,1.2.57,2.4,1.15,3.65,1.6,2.79,1,2.6,2.34.84,4.37-4.5,5.22-5.93,5.76-11.9,2.69-8.85-4.55-18.15-8.23-26.53-13.7-12.08-7.33-24.61-11.77-39-7.35-3.58,1.1-7.71.32-10.91,3l-1.56.22c-1.93,1.86-3.67,4.32-6.29.58-.82-1.16-2.44-.83-4-.46-2.33.53-4.57,2.52-7.19,1l-1-1.23c-1-.83-1.62-2.25-3.15-2.46-4.16-.57-7.44-2.85-10.35-5.64-1.89-1.8-4.42-2.32-6.46-3.75-11.4-7.61-13.35-19.43-14.06-31.75-.22-3.78.49-7.68-2-11-1.22-4.29-3.41-7.18-8.48-7.24-1,0-5.13,1.05-3.69-3.06l.16,0C509.24,16.11,512.81,16.13,515.83,14.19Z" transform="translate(166 74)"/><path class="cls-1" d="M377,57.67c1.27,14.44-12,27.67-24,30.65-10.48,2.6-20.78,2.56-30.8-1.47-12-4.83-20.14-13.57-20.8-26.73-.62-12.28,4.07-23,15.69-29,14-7.21,28.52-7.62,42.71-1.06C371.24,35.39,377.74,44.54,377,57.67Z" transform="translate(166 74)"/><path class="cls-1" d="M555,83.07c4.31-.94,8.41-4.29,13.14-.78.89.66,2.88-.18,4.35-.33-1.66,4.15-3.3,8.31-5,12.44-1.31,3.19-.58,5.18,3.1,5.58a7.46,7.46,0,0,1,2,.35c1.68.69,3.89,1.43,3.51,3.55-.34,1.85-2.56.74-3.9,1.11-.43.11-.84.29-2.21.79,1.53.18,2.09.29,2.66.31,10.32.39,10.33.39,10.33,11q0,65.41,0,130.81c0,7.08,0,7.1-7.24,7.11-16.14,0-32.29,0-48.44-.08-2,0-5.15,1.17-4.89-2.92,16.46,0,32.92,0,49.38,0,7.69,0,8.2-.54,8.2-8.26q0-63.87,0-127.74c0-7.23-.2-7.44-7.53-7.46a11.32,11.32,0,0,1-6.46-2.3c-2.1-1.41-4.47-.66-6.67-.63-10.06.15-20.13-.62-30.17.38L527,106c-2.64-2.5-2.32-4.72,1.06-5.73,2.36-.7,4.9-.77,7.33-1.29,4.65-1,9.61-1.34,12.45-6.16.72-1.22,2-2.49,3.72-1.24,1.34,1,1.09,2.31.38,3.56-.85,1.49-1.75,2.92.07,4.37,1.54,1.24,3.06.75,4.67.13,3.18-1.23,10-11.19,9.92-14.59a1.72,1.72,0,0,0-1.79-1.9c-2.39-.22-4.66-.07-6.27,2.11-.77,1.06-1.59,2.42-3.18,1.33C553.94,85.64,554.24,84.33,555,83.07Z" transform="translate(166 74)"/><path class="cls-1" d="M574,81.75c.64-1.58,1.49-3,3.29-3.43,14.37-3.15,28.5-3.55,42,3.43A9.58,9.58,0,0,1,624,86.1c-3.58-1.28-7.4-2.11-10.69-3.92-8.72-4.8-17.74-4.69-27.06-2.72C582.17,80.31,578.1,81,574,81.75Z" transform="translate(166 74)"/><path class="cls-1" d="M534,70a9.74,9.74,0,0,1,8.06,3.15,17,17,0,0,0,8,4.74c2.14.54,3.62,1.62,3.85,4C545.84,80.39,539.54,75.84,534,70Z" transform="translate(166 74)"/><path class="cls-1" d="M505.75,16.93a9.06,9.06,0,0,0,5.66,2.85c4.18.77,6.52,3.06,6.51,7.45-2.57-5.11-7.06-6.74-12.41-6.91-1.59-.05-3.84-.11-3.51-2.33C502.27,16.17,504.31,16.74,505.75,16.93Z" transform="translate(166 74)"/><path class="cls-1" d="M539.23,10a37.5,37.5,0,0,0-20.8,1.91C523.69,7.2,532.76,6.37,539.23,10Z" transform="translate(166 74)"/><path class="cls-1" d="M515.83,14.19C513.05,17,509.5,17,505.91,17,509,15.17,512.49,15,515.83,14.19Z" transform="translate(166 74)"/><path class="cls-1" d="M529.1,106c.68-.94,1.7-.9,2.69-.91q16.89,0,33.78,0c.31,0,.77,0,.92.25.45.61-.26.66-.55.92Z" transform="translate(166 74)"/></svg>