<svg viewBox="0 0 17 16" fill="none" xmlns="http://www.w3.org/2000/svg">
<path d="M2.02539 5.186V11.6727C2.02539 12.9393 2.92539 13.4593 4.01872 12.8327L5.58539 11.9393C5.92539 11.746 6.49206 11.726 6.84539 11.906L10.3454 13.6593C10.6987 13.8327 11.2654 13.8193 11.6054 13.626L14.4921 11.9727C14.8587 11.7593 15.1654 11.2393 15.1654 10.8127V4.326C15.1654 3.05933 14.2654 2.53933 13.1721 3.166L11.6054 4.05933C11.2654 4.25267 10.6987 4.27267 10.3454 4.09267L6.84539 2.346C6.49206 2.17267 5.92539 2.186 5.58539 2.37933L2.69872 4.03267C2.32539 4.246 2.02539 4.766 2.02539 5.186Z" stroke-linecap="round" stroke-linejoin="round"/>
<path d="M6.20703 2.66602V11.3327" stroke-linecap="round" stroke-linejoin="round"/>
<path d="M10.9844 4.41406V13.3341" stroke-linecap="round" stroke-linejoin="round"/>
</svg>
