<svg viewBox="0 0 244 225" fill="none" xmlns="http://www.w3.org/2000/svg">
<path fill-rule="evenodd" clip-rule="evenodd" d="M11.004 112.237C10.3493 107.314 10.3773 100.686 13.3803 96.7303C16.0105 93.266 20.3228 91.6328 24.267 89.8017C31.4169 86.4772 38.632 81.0769 39.8085 73.277C40.3723 69.5308 39.4707 65.519 40.9501 62.0291C44.1628 54.4715 56.1538 54.0918 59.4434 46.5668C60.9228 43.1863 60.1656 39.3167 59.879 35.6404C58.9774 24.1712 63.9001 11.6 74.1719 6.41872C74.8452 6.07859 75.5977 5.76407 76.3338 5.92715C76.9396 6.06228 77.4335 6.50259 77.8249 6.98485C79.4091 8.94414 79.67 11.6909 79.2693 14.179C78.8709 16.6672 77.8948 19.0202 77.2518 21.4571C76.9699 22.5171 76.6204 23.5981 76.9349 24.686C77.2238 25.6832 77.8784 26.5591 78.5098 27.3606C79.5302 28.6652 80.9397 29.5249 81.2402 31.2256C81.4522 32.4184 82.6753 33.8325 82.2537 35.0207C81.9857 35.7732 81.5711 36.5164 81.2961 37.2875C80.7626 38.7762 80.087 40.0948 78.9827 41.2667C77.7293 42.5993 76.0962 44.1858 75.2738 45.8352C74.9593 46.4619 75.169 47.3169 75.1434 48.0089C75.1061 49.0899 75.0711 50.1732 75.0385 51.2542C74.9127 55.5828 74.8265 59.9137 74.7823 64.2423C74.717 70.8727 74.7287 77.6405 72.6203 83.9285C70.4466 90.4144 66.16 95.9521 61.7801 101.206C58.5441 105.087 55.1148 108.968 50.6836 111.396C48.1396 112.789 51.93 110.336 49.0202 110.306C45.9473 110.273 36.7566 111.992 33.7652 111.829C26.168 111.417 18.6082 112.502 11.004 112.237Z" fill="#2A0752"/>
<path fill-rule="evenodd" clip-rule="evenodd" d="M79.6779 36.7231C81.9494 34.2652 84.8755 32.5086 87.6362 30.5749C92.1745 27.3902 95.8229 23.5951 97.4933 18.4464C97.6983 17.8197 97.8637 17.1651 98.756 16.5523C99.2173 17.9921 99.2079 19.2641 98.9819 20.4104C98.0967 24.8741 96.1001 28.8836 92.4541 32.0427C90.9374 33.3589 89.2577 34.5494 87.3543 35.3765L79.6779 36.7231ZM33.1837 110.932C33.1022 111.88 33.2187 111.884 34.1086 111.924C35.8769 112.006 47.8237 112.294 47.8237 112.294C48.7952 112.08 48.0799 111.724 48.4737 110.789C49.7457 107.779 51.6397 104.972 53.175 102.076C53.8623 100.774 54.6824 99.5463 55.4721 98.3045C56.0709 97.3633 56.432 96.2963 57.0144 95.3761C57.6597 94.3533 58.9527 93.5962 59.8357 92.7784C60.8794 91.8116 61.8765 90.7935 62.8154 89.7265C63.8102 88.5989 64.7328 87.4084 65.5668 86.1573C66.2937 85.0647 66.9297 83.9115 67.5867 82.7769C69.928 78.7255 72.0294 74.5204 74.8041 70.7416C76.1297 68.9361 77.6208 67.24 79.3261 65.784C80.1602 65.0687 81.0455 64.4141 81.9843 63.841C82.7508 63.3704 83.6547 62.8811 84.3304 62.2964C85.7072 61.1036 86.0963 59.1233 86.073 57.3015C86.0357 54.5617 85.2343 51.8359 83.7875 49.5085C83.1538 48.4881 82.399 47.5469 81.7863 46.5125C81.4904 46.0186 81.1922 45.4875 81.0291 44.9306C80.7286 43.9056 79.9388 42.9947 80.0693 41.8694C80.279 40.0685 83.6943 38.7732 85.1481 38.1512C88.7638 36.5996 92.0371 34.5867 94.7535 31.8726C95.2032 31.4253 95.6178 30.9523 96.0022 30.4328C98.085 27.6371 99.7368 24.6644 100.431 21.3422C100.75 19.8233 100.878 18.1319 100.461 16.6712C100.144 15.5669 100.21 14.5232 100.065 13.4585C99.3966 10.0594 97.8334 7.05642 95.6551 4.58691C90.8932 6.30858 87.981 9.88703 84.3117 12.5848C81.9983 14.2855 79.9016 16.3007 78.2195 18.5885C76.824 20.4803 75.3027 22.3394 74.2473 24.3895C72.7796 27.2504 71.5612 30.1905 70.9811 33.3985C70.4988 36.0777 70.4522 38.5123 71.5705 41.0354C72.6934 43.5678 73.2129 46.2819 73.623 48.9657C74.1239 52.2436 72.7982 55.3235 71.5239 58.2916C70.1261 61.5415 67.1114 63.7175 64.3088 65.8795C62.3518 67.3868 60.2504 68.8895 58.9434 71.0375C57.6854 73.1016 57.4571 75.9509 57.1006 78.2922C56.87 79.8019 56.9166 81.3022 56.5694 82.8165C56.2246 84.3285 55.7424 85.8032 55.2275 87.264C54.1046 90.451 51.9869 92.9135 49.2774 94.8565C46.3746 96.937 43.4019 98.9452 40.4664 100.988C38.6259 102.272 37.1256 103.935 35.7161 105.664C35.362 106.097 34.9217 106.629 34.5186 107.209C33.7452 108.325 33.3049 109.569 33.1837 110.932Z" fill="#342A83"/>
<path fill-rule="evenodd" clip-rule="evenodd" d="M32.4003 110.862C32.3491 111.938 32.3165 112.188 31.1679 112.25C30.0031 112.316 28.8149 112.248 27.6477 112.246C23.9458 112.241 20.2439 112.232 16.542 112.229C15.1791 112.229 13.9979 112.707 13.8977 111.062C13.8442 110.193 14.1097 109.348 14.1493 108.486C14.2379 106.473 14.7481 104.485 15.6567 102.685C16.5676 100.877 17.6136 99.1528 18.9742 97.6268C20.8636 95.5091 23.2399 93.9226 25.8795 92.6086C28.2884 91.4088 30.5249 89.9247 32.9082 88.6807C33.67 88.2846 34.2944 87.807 34.8908 87.2619C37.0272 85.3073 39.1868 83.3689 41.2882 81.384C43.8416 78.9751 45.3 76.1305 45.1998 72.7035C45.1719 71.8322 45.2697 70.9562 45.1788 70.0919C44.9366 67.8087 45.5889 65.6794 46.2971 63.529C46.7374 62.1918 47.5249 61.0805 48.7317 60.3839C50.7515 59.2191 52.5175 57.5976 54.987 57.1596C55.7721 57.0221 56.3475 56.4444 56.8507 56.053C59.1735 54.2451 61.5894 52.393 62.4817 49.574C63.127 47.5379 63.8469 45.49 63.8376 43.3187C63.8213 39.0484 63.8515 34.7757 63.8236 30.5053C63.7886 25.1726 66.6845 20.6459 69.6479 16.4827C71.486 13.899 73.9695 11.8978 76.7116 10.1925C77.6808 9.58674 78.6523 8.92976 79.4979 8.25647C82.7386 5.68446 86.6688 4.44272 90.5501 3.13342C91.6614 2.76066 93.0499 3.07517 94.2381 3.07517C94.4617 3.78341 94.0167 3.7904 93.6743 4.0257C90.3568 6.2995 86.8901 8.42188 84.1131 11.2851C83.3024 12.1215 82.1841 12.5362 81.3384 13.3073C79.7705 14.7354 78.7105 16.5176 77.3336 18.0786C77.1566 18.2789 74.8641 24.1079 74.6195 24.3339C70.6497 28.0055 71.3998 27.2623 69.9997 32.0732C69.3637 34.2538 69.5663 36.4111 69.5594 38.5801C69.5547 40.0967 70.624 41.4619 70.5635 43.0252C72.4762 46.0049 72.1267 49.3014 72.0987 52.5398C72.0801 54.5573 71.1925 56.4164 70.2 58.1357C68.3828 61.2692 65.5732 63.6455 62.4421 65.684C59.6371 67.5105 57.4425 70.6417 56.5222 73.6587C56.1705 74.8212 56.0656 75.9301 56.0726 77.0833C56.0959 81.0485 55.1128 84.797 53.3166 88.3871C52.3008 90.4186 50.9472 92.0867 48.9297 93.5172C45.9407 95.6372 42.6721 97.4288 39.9067 99.7958C37.8123 101.587 35.8297 103.379 34.1336 105.559C32.9571 107.069 32.4935 108.966 32.4003 110.862Z" fill="#342A83"/>
<path fill-rule="evenodd" clip-rule="evenodd" d="M7.30771 98.9663C7.86917 97.8154 8.61235 96.7274 9.2437 95.5998C10.4156 93.5124 12.5309 92.2893 14.4483 90.9124C18.1293 88.2705 22.1784 86.1482 26.3625 84.2611C28.6457 83.229 30.2648 81.54 31.9818 79.9371C32.9743 79.0099 33.0046 77.6447 33.1979 76.5171C33.6849 73.6819 33.1024 71.0912 33.0978 68.2862C33.0978 67.3613 33.0978 66.3316 33.3144 65.4626C35.1153 58.2172 40.8138 55.114 47.4372 52.8728C49.718 52.1017 52.1106 51.8524 53.9418 50.0911C55.3209 48.7632 56.6233 46.8505 56.8376 44.9378C57.1381 42.2306 56.5953 39.7705 56.2342 37.1146C55.9989 35.3673 55.936 33.5967 55.9546 31.8354C55.9966 28.0124 56.4392 23.6022 57.5901 19.9469C58.0304 18.549 58.8528 17.2654 59.766 16.0749C61.1685 14.2461 62.2961 12.154 64.0248 10.5954C65.8932 8.90634 68.0738 7.35941 70.2032 6.0105C73.6372 3.83222 77.5302 2.57417 81.5512 1.58171C84.9247 0.74767 88.2958 1.34641 91.6343 1.10645C91.6948 1.47221 91.7181 1.61898 91.7717 1.95213C88.4542 1.81701 85.9288 3.78795 83.005 4.75711C81.4045 5.29062 80.0066 6.38559 78.5925 7.32213C76.4189 8.7619 74.3082 10.2855 72.1765 11.7766C71.9714 11.921 71.7734 12.0841 71.6243 12.2751C68.1996 16.6131 64.7283 20.3313 63.3026 25.7898C63.0416 26.7869 62.4918 27.7561 62.359 28.7346C61.7929 32.9584 63.0975 37.3103 62.7551 41.5574C62.4685 45.1288 62.0305 48.7096 59.7171 51.8105C58.6524 53.2362 57.448 54.5059 55.7706 55.3353C54.233 56.0971 52.7326 56.9475 51.1228 57.5532C49.8974 58.0098 49.0284 58.7973 48.0289 59.5009C46.0347 60.8987 45.1634 62.9046 44.3619 64.9128C43.8844 66.1079 43.7609 67.4499 43.6747 68.7382C43.5629 70.3923 43.6584 72.0604 43.6444 73.7215C43.6258 76.3797 42.412 78.6488 40.5762 80.5708C38.7077 82.5325 36.569 84.2774 34.5748 86.1389C33.0209 87.5903 30.9451 88.3032 29.1512 89.4214C27.2432 90.6119 25.2047 91.6323 23.2081 92.704C18.0081 95.495 13.9381 101.166 12.7895 106.971C12.4377 108.749 11.846 110.603 12.5799 112.362C12.1885 112.176 11.5874 112.246 11.1704 112.239C10.3457 112.227 9.51861 112.248 8.69389 112.264C7.89713 112.281 7.02581 112.402 6.2407 112.341C5.01294 112.246 5.01527 110.983 5.10846 110.077C5.21329 109.045 5.34609 108.013 5.49286 106.985C5.78873 104.9 6.10557 102.792 6.6484 100.751C6.74392 100.39 6.84642 100.026 6.98854 99.6792C7.08639 99.4369 7.19355 99.2016 7.30771 98.9663Z" fill="#342A83"/>
<path fill-rule="evenodd" clip-rule="evenodd" d="M0.929838 112.284C-0.454015 109.705 -1.14128 98.0429 5.18856 90.0077C7.56954 86.986 10.9453 85.1339 14.2116 83.3424C17.6386 81.4623 20.8769 79.6847 22.8035 76.719C24.4343 74.2075 25.0983 71.3397 25.8042 68.304C26.6429 64.6976 27.5096 60.9654 30.0792 57.606C32.6862 54.1952 36.2786 52.6413 39.7546 51.1387C42.6015 49.9062 45.29 48.7437 47.3984 46.6306C50.6367 43.3854 51.4497 39.1639 52.3094 34.6955C52.6868 32.7385 53.0759 30.714 53.6839 28.7664C55.5407 22.8372 58.2735 18.7625 62.3668 13.7257C62.8025 13.1875 63.5946 13.106 64.1304 13.5417C64.6686 13.9796 64.7501 14.7694 64.3121 15.3052C60.4122 20.1068 57.8122 23.9695 56.0789 29.5142C55.5128 31.3267 55.1354 33.279 54.7719 35.1684C53.8773 39.8116 52.9524 44.6108 49.1736 48.4012C46.7274 50.8544 43.6871 52.1684 40.7493 53.4381C37.4225 54.8779 34.2797 56.2361 32.0688 59.1273C29.8299 62.058 29.0611 65.3686 28.2457 68.8725C27.5235 71.985 26.7757 75.2047 24.9049 78.0842C22.6381 81.5788 18.9665 83.594 15.4184 85.5416C12.2313 87.2889 9.22364 88.9383 7.15718 91.5593C1.4051 98.8629 2.25778 109.459 3.14074 111.096C3.4669 111.707 3.23859 112.466 2.6282 112.795C2.4395 112.895 2.23681 112.944 2.03645 112.944C1.58915 112.944 1.15815 112.704 0.929838 112.284Z" fill="#342A83"/>
<path fill-rule="evenodd" clip-rule="evenodd" d="M159.819 95.5066C157.188 92.0424 152.876 90.4092 148.932 88.5781C141.782 85.2536 134.567 79.8533 133.39 72.0534C132.827 68.3072 133.728 64.2954 132.246 60.8055C129.036 53.2479 117.045 52.8681 113.753 45.3431C112.276 41.9627 113.033 38.093 113.32 34.4167C114.221 22.9475 109.296 10.3764 99.027 5.19509C98.3537 4.85495 97.6012 4.54044 96.865 4.70352C96.257 4.83864 95.7654 5.27896 95.374 5.76121C93.7875 7.72051 93.5289 10.4672 93.9296 12.9554C94.328 15.4435 95.3041 17.7965 95.9471 20.2334C96.229 21.2935 96.5785 22.3744 96.264 23.4624C95.9751 24.4595 95.3204 25.3355 94.6891 26.1369C93.6663 27.4416 92.2592 28.3012 91.9563 30.0019C91.7466 31.1947 90.5235 32.6089 90.9452 33.797C91.2131 34.5495 91.6278 35.2927 91.9027 36.0639C92.4362 37.5526 93.1118 38.8712 94.2161 40.043C95.4695 41.3756 97.1027 42.9622 97.925 44.6116C98.2396 45.2383 98.0299 46.0933 98.0555 46.7852C98.0928 47.8662 98.1277 48.9495 98.1604 50.0305C98.2862 54.3591 98.3724 58.6901 98.4166 63.0187C98.4819 69.6491 98.4702 76.4169 100.579 82.7048C102.752 89.1908 107.039 94.7285 111.419 99.982C114.655 103.863 118.084 107.745 122.515 110.172C125.057 111.565 121.269 109.112 124.179 109.082C127.252 109.049 136.442 110.769 139.434 110.606C147.031 110.193 154.591 111.279 162.195 111.013C162.847 106.091 162.822 99.4625 159.819 95.5066Z" fill="#2A0752"/>
<path fill-rule="evenodd" clip-rule="evenodd" d="M141.812 110.862C141.864 111.938 141.896 112.188 143.045 112.25C144.21 112.316 145.398 112.248 146.563 112.246C150.265 112.241 153.969 112.232 157.671 112.229C159.034 112.229 160.212 112.707 160.315 111.062C160.369 110.193 160.103 109.348 160.063 108.486C159.975 106.473 159.465 104.485 158.556 102.685C157.645 100.877 156.597 99.1528 155.239 97.6268C153.349 95.5091 150.973 93.9226 148.331 92.6086C145.924 91.4088 143.688 89.9247 141.302 88.6807C140.543 88.2846 139.918 87.807 139.322 87.2619C137.183 85.3073 135.026 83.3689 132.922 81.384C130.369 78.9751 128.913 76.1305 129.013 72.7035C129.041 71.8322 128.943 70.9562 129.034 70.0919C129.276 67.8087 128.624 65.6794 127.916 63.529C127.475 62.1918 126.685 61.0805 125.479 60.3839C123.461 59.2191 121.695 57.5976 119.226 57.1596C118.441 57.0221 117.865 56.4444 117.36 56.053C115.039 54.2451 112.623 52.393 111.729 49.574C111.086 47.5379 110.366 45.49 110.375 43.3187C110.391 39.0484 110.361 34.7757 110.389 30.5053C110.424 25.1726 107.528 20.6459 104.565 16.4827C102.724 13.899 100.243 11.8978 97.5011 10.1925C96.5319 9.58674 95.5604 8.92976 94.7148 8.25647C91.4741 5.68446 87.5439 4.44272 83.6602 3.13342C82.5513 2.76066 81.1605 3.07517 79.9746 3.07517C79.751 3.78341 80.1936 3.7904 80.5384 4.0257C83.8559 6.2995 87.3226 8.42188 90.0996 11.2851C90.9103 12.1215 92.0286 12.5362 92.8743 13.3073C94.4422 14.7354 95.5022 16.5176 96.8791 18.0786C97.0561 18.2789 99.3486 24.1079 99.5932 24.3339C103.563 28.0055 102.813 27.2623 104.213 32.0732C104.849 34.2538 104.646 36.4111 104.653 38.5801C104.658 40.0967 103.589 41.4619 103.649 43.0252C101.734 46.0049 102.086 49.3014 102.114 52.5398C102.13 54.5573 103.02 56.4164 104.013 58.1357C105.828 61.2692 108.639 63.6455 111.771 65.684C114.576 67.5105 116.77 70.6417 117.688 73.6587C118.042 74.8212 118.145 75.9301 118.138 77.0833C118.114 81.0485 119.1 84.797 120.896 88.3871C121.912 90.4186 123.265 92.0867 125.283 93.5172C128.27 95.6372 131.538 97.4288 134.306 99.7958C136.4 101.587 138.383 103.379 140.079 105.559C141.256 107.069 141.719 108.966 141.812 110.862Z" fill="#342A83"/>
<path fill-rule="evenodd" clip-rule="evenodd" d="M83.7925 49.5039L66.9486 72.5868L41.168 106.424L47.8286 112.29H126.394L141.922 112.359C141.922 112.359 140.958 107.262 134.377 102.905C116.334 90.9596 116.334 84.3176 113.294 74.2136C110.253 64.1098 99.2295 58.2935 99.1379 60.1845C98.9122 64.843 90.4299 49.5039 90.4299 49.5039H83.7925Z" fill="#342A83"/>
<path fill-rule="evenodd" clip-rule="evenodd" d="M166.909 98.9663C166.348 97.8154 165.605 96.7274 164.971 95.5998C163.801 93.5124 161.684 92.2893 159.769 90.9124C156.088 88.2705 152.039 86.1482 147.854 84.2611C145.571 83.229 143.952 81.54 142.235 79.9371C141.24 79.0099 141.212 77.6447 141.019 76.5171C140.532 73.6819 141.115 71.0912 141.119 68.2862C141.119 67.3613 141.119 66.3316 140.903 65.4626C139.099 58.2172 133.403 55.114 126.78 52.8728C124.497 52.1017 122.106 51.8524 120.275 50.0911C118.894 48.7632 117.591 46.8505 117.379 44.9378C117.079 42.2306 117.622 39.7705 117.983 37.1146C118.218 35.3673 118.281 33.5967 118.26 31.8354C118.22 28.0124 117.775 23.6022 116.627 19.9469C116.187 18.549 115.364 17.2654 114.451 16.0749C113.048 14.2461 111.921 12.154 110.192 10.5954C108.324 8.90634 106.143 7.35941 104.012 6.0105C100.578 3.83222 96.6869 2.57417 92.6658 1.58171C89.2924 0.74767 85.9189 1.34641 82.5828 1.10645C82.5222 1.47221 82.4989 1.61898 82.4453 1.95213C85.7628 1.81701 88.2882 3.78795 91.212 4.75711C92.8126 5.29062 94.2104 6.38559 95.6245 7.32213C97.7982 8.7619 99.9089 10.2855 102.041 11.7766C102.243 11.921 102.444 12.0841 102.593 12.2751C106.017 16.6131 109.489 20.3313 110.914 25.7898C111.175 26.7869 111.725 27.7561 111.858 28.7346C112.424 32.9584 111.119 37.3103 111.462 41.5574C111.749 45.1288 112.186 48.7096 114.498 51.8105C115.565 53.2362 116.769 54.5059 118.446 55.3353C119.984 56.0971 121.484 56.9475 123.094 57.5532C124.32 58.0098 125.189 58.7973 126.188 59.5009C128.18 60.8987 129.054 62.9046 129.855 64.9128C130.333 66.1079 130.456 67.4499 130.542 68.7382C130.654 70.3923 130.559 72.0604 130.57 73.7215C130.591 76.3797 131.805 78.6488 133.641 80.5708C135.509 82.5325 137.648 84.2774 139.642 86.1389C141.196 87.5903 143.272 88.3032 145.066 89.4214C146.974 90.6119 149.012 91.6323 151.007 92.704C156.209 95.495 160.277 101.166 161.427 106.971C161.779 108.749 162.371 110.603 161.637 112.362C162.029 112.176 162.63 112.246 163.047 112.239C163.871 112.227 164.698 112.248 165.521 112.264C166.32 112.281 167.191 112.402 167.976 112.341C169.204 112.246 169.202 110.983 169.108 110.077C169.004 109.045 168.871 108.013 168.724 106.985C168.428 104.9 168.111 102.792 167.569 100.751C167.473 100.39 167.368 100.026 167.228 99.6792C167.131 99.4369 167.023 99.2016 166.909 98.9663Z" fill="#342A83"/>
<path fill-rule="evenodd" clip-rule="evenodd" d="M172.183 112.943C171.983 112.943 171.78 112.894 171.591 112.794C170.981 112.465 170.753 111.706 171.079 111.098C171.96 109.455 172.815 98.8599 167.06 91.5585C164.996 88.9376 161.988 87.2881 158.801 85.5385C155.253 83.5909 151.581 81.578 149.315 78.0834C147.444 75.2039 146.696 71.9842 145.974 68.8717C145.158 65.3678 144.39 62.0596 142.148 59.1265C139.938 56.2353 136.797 54.8771 133.468 53.4373C130.53 52.1676 127.492 50.8537 125.046 48.4005C121.267 44.6124 120.342 39.8108 119.448 35.17C119.084 33.2806 118.707 31.326 118.141 29.5135C116.407 23.9687 113.807 20.1037 109.905 15.3045C109.469 14.7687 109.551 13.9789 110.087 13.5409C110.627 13.1053 111.415 13.1891 111.85 13.725C115.946 18.7595 118.679 22.8365 120.533 28.7656C121.144 30.7133 121.533 32.7378 121.91 34.6971C122.77 39.1655 123.583 43.3846 126.819 46.6299C128.927 48.743 131.616 49.9055 134.465 51.1379C137.939 52.6406 141.533 54.1945 144.14 57.6052C146.71 60.9647 147.577 64.6969 148.415 68.3033C149.121 71.3412 149.785 74.2091 151.416 76.7182C153.343 79.684 156.579 81.4615 160.008 83.3416C163.272 85.1332 166.65 86.9853 169.029 90.0069C175.359 98.0398 174.674 109.702 173.29 112.281C173.061 112.703 172.63 112.943 172.183 112.943Z" fill="#342A83"/>
<path fill-rule="evenodd" clip-rule="evenodd" d="M121.338 53.988C121.536 54.5751 121.625 55.1645 121.464 55.7073C121.079 57.019 120.122 56.9468 118.962 56.9561C117.431 56.97 115.896 56.9724 114.363 56.9887C113.033 57.0003 110.509 57.4733 109.794 55.9263C109.375 55.0201 109.976 53.8715 110.151 52.9676C110.283 52.292 111.576 44.5806 111.835 44.6575C112.285 44.7926 112.925 44.3802 113.165 45.1211C113.051 47.148 111.639 53.6106 111.94 54.8407H119.246C119.484 54.391 116.949 49.5499 116.012 47.353C115.502 46.1578 114.784 45.0349 114.193 43.8794C113.897 43.3016 112.233 39.9445 114.43 40.676C114.992 40.8624 117.207 45.4426 117.939 46.9476C118.67 48.4573 119.381 49.9786 120.122 51.4859C120.471 52.2034 121.037 53.0934 121.338 53.988Z" fill="#752A86"/>
<path fill-rule="evenodd" clip-rule="evenodd" d="M83.9316 53.1201V53.1244C83.9338 53.1244 83.9338 53.1288 83.9403 53.1288L83.9316 53.1201Z" fill="#523E8C"/>
<path d="M101.045 50.6286C101.939 45.5601 98.5544 40.7268 93.4859 39.833C88.4174 38.9393 83.5841 42.3237 82.6904 47.3921L79.0494 68.0411C78.1557 73.1095 81.54 77.9429 86.6085 78.8366C91.677 79.7303 96.5103 76.346 97.404 71.2775L101.045 50.6286Z" fill="#6E78F0"/>
<path fill-rule="evenodd" clip-rule="evenodd" d="M98.044 67.9297C86.209 66.8999 80.8828 49.998 80.8828 49.998L100.137 55.7916L98.044 67.9297Z" fill="#6A67F2"/>
<path fill-rule="evenodd" clip-rule="evenodd" d="M66.1991 36.7508C65.2369 40.907 67.8206 45.0493 71.9722 46.0138C76.1237 46.9736 80.266 44.3853 81.2281 40.2384C82.1903 36.0869 79.602 31.9446 75.4528 30.9824C71.3035 30.0203 67.159 32.6016 66.1991 36.7508Z" fill="#6E78F0"/>
<path fill-rule="evenodd" clip-rule="evenodd" d="M75.8243 41.3383C75.8243 41.3383 77.0846 35.8914 71.6797 35.542L75.8243 41.3383Z" fill="#6A67F2"/>
<path fill-rule="evenodd" clip-rule="evenodd" d="M93.4551 58.0054C103.238 59.5966 112.549 53.1759 114.12 45.2315L117.71 26.461C119.669 16.5061 114.637 6.9822 104.75 4.68742C94.6269 2.34373 81.485 8.03756 79.139 18.1579L76.4202 33.287C74.3141 44.9869 81.8741 55.3215 93.4551 58.0054Z" fill="#6E78F0"/>
<path fill-rule="evenodd" clip-rule="evenodd" d="M105.673 24.5339C108.499 23.2013 111.054 21.3515 113.021 18.9379C113.018 18.9426 116.014 22.733 116.373 23.2036C117.685 24.9276 117.806 27.6394 117.23 29.65C117.442 28.9138 118.395 28.0308 118.777 27.3226C119.234 26.4699 119.611 25.573 119.907 24.6504C120.501 22.7983 120.767 20.8436 120.72 18.9006C120.629 15.1545 119.353 10.933 116.681 8.19326C116.11 7.60617 115.353 7.35922 114.7 6.88163C113.687 6.13612 112.706 5.38362 111.611 4.74994C110.898 4.33525 110.341 3.95551 109.54 3.90192C109.142 3.87396 108.746 3.81572 108.356 3.73651C107.541 3.56877 106.749 3.29852 105.976 2.98867C104.743 2.4971 103.571 1.85177 102.33 1.38116C102.078 1.28332 101.843 1.19246 101.57 1.17149C101.102 1.13421 100.659 1.18547 100.186 1.10859C98.765 0.882607 97.3509 0.633326 95.9251 0.446949C94.1522 0.211647 92.3676 0.0462372 90.5784 0.0182805C88.9826 -0.00501665 87.1118 -0.0818979 85.5788 0.423651C85.1129 0.577413 84.7005 0.84999 84.2393 1.02239C83.5636 1.27167 82.8391 1.3765 82.1542 1.60715C79.4167 2.52506 77.0031 4.31195 75.1929 6.54382C72.7514 9.5445 71.3512 13.2884 70.6826 17.0998C70.1235 20.2938 70.0582 23.5717 70.4823 26.7867C70.5918 27.6138 70.7292 28.4409 70.9063 29.2586C71.0088 29.7245 71.102 30.251 71.4957 30.5655C71.7962 30.8102 72.1993 30.8568 72.5697 30.9127C73.688 31.0851 74.8016 31.2738 75.6938 32.0519C76.1714 32.4689 76.7865 32.8953 76.9356 33.522C77.0591 34.0415 76.9053 34.5703 77.108 35.1132C78.5175 32.9372 79.9269 30.7636 81.3364 28.5899C81.637 28.124 81.9561 27.6418 82.4384 27.3692C83.0394 27.029 83.7756 27.0756 84.4629 27.1269C89.6046 27.5136 94.8278 27.6208 99.86 26.5025C101.852 26.0575 103.821 25.4076 105.673 24.5339Z" fill="#342A83"/>
<path fill-rule="evenodd" clip-rule="evenodd" d="M86.7504 34.4551V34.4594C86.7483 34.4594 86.7483 34.4637 86.7461 34.4637L86.7504 34.4551Z" fill="#5F4596"/>
<path fill-rule="evenodd" clip-rule="evenodd" d="M116.328 35.1895V35.1917H116.33L116.328 35.1895Z" fill="#5F4596"/>
<path fill-rule="evenodd" clip-rule="evenodd" d="M75.0728 24.0619C74.0384 24.0619 73.004 23.964 71.9836 23.759C71.6691 23.6938 71.4641 23.3863 71.527 23.0717C71.5899 22.7572 71.9021 22.5499 72.2119 22.6151C79.2966 24.0432 87.1128 19.9639 89.9993 13.3382C90.1298 13.0446 90.4746 12.9118 90.7658 13.0377C91.0617 13.1658 91.1945 13.5083 91.0663 13.8041C88.3848 19.9592 81.7405 24.0619 75.0728 24.0619Z" fill="#2A0752"/>
<path fill-rule="evenodd" clip-rule="evenodd" d="M67.9239 53.988C67.7258 54.5751 67.6373 55.1645 67.7981 55.7073C68.1825 57.019 69.14 56.9468 70.3002 56.9561C71.8331 56.97 73.3661 56.9724 74.899 56.9887C76.2293 57.0003 78.7524 57.4733 79.4676 55.9263C79.887 55.0201 79.2882 53.8715 79.1112 52.9676C78.9784 52.292 77.6854 44.5806 77.4268 44.6575C76.9771 44.7926 76.3365 44.3802 76.0988 45.1211C76.2107 47.148 77.6225 53.6106 77.322 54.8407H70.0159C69.7783 54.391 72.3131 49.5499 73.2496 47.353C73.7598 46.1578 74.4774 45.0349 75.0691 43.8794C75.365 43.3016 77.0284 39.9445 74.8338 40.676C74.27 40.8624 72.0545 45.4426 71.3229 46.9476C70.5914 48.4573 69.8808 49.9786 69.14 51.4859C68.7905 52.2034 68.2244 53.0934 67.9239 53.988Z" fill="#752A86"/>
<path fill-rule="evenodd" clip-rule="evenodd" d="M85.4858 27.4814C85.5673 27.4511 84.1881 24.9257 84.0483 24.7067C83.7664 24.264 83.4636 23.8354 83.1421 23.4183C82.9394 23.1597 82.7111 22.78 82.3849 22.6542C81.2806 22.2279 81.1362 24.9699 81.1292 25.5221C81.1245 25.9903 81.1781 26.4516 81.241 26.9152C81.3272 27.5629 81.3459 28.2758 81.5136 28.9025C82.1776 28.7674 82.8578 28.4272 83.4962 28.1966C84.1602 27.959 84.8218 27.719 85.4858 27.4814Z" fill="#752A86"/>
<path fill-rule="evenodd" clip-rule="evenodd" d="M88.4125 12.8555V12.8598C88.4104 12.8598 88.4104 12.8641 88.4082 12.8641L88.4125 12.8555Z" fill="#5F4596"/>
<path fill-rule="evenodd" clip-rule="evenodd" d="M117.988 13.5889V13.5911H117.991L117.988 13.5889Z" fill="#5F4596"/>
<path fill-rule="evenodd" clip-rule="evenodd" d="M105.742 11.8604L101.84 11.3432L101.996 10.1504L105.898 10.6653L105.742 11.8604Z" fill="black"/>
<path fill-rule="evenodd" clip-rule="evenodd" d="M86.3648 14.4558C88.1401 18.7797 92.9393 20.9091 97.0908 19.2084C101.24 17.5077 103.162 12.6223 101.392 8.29135C99.6139 3.96739 87.7859 3.55037 83.6367 5.25107C83.6367 5.25107 84.5872 10.1248 86.3648 14.4558Z" fill="#1A1547"/>
<path fill-rule="evenodd" clip-rule="evenodd" d="M87.1518 14.1301C88.743 18.0067 93.053 19.9311 96.7549 18.4121C100.457 16.8954 102.176 12.5016 100.587 8.62027C99.1289 5.07211 88.9853 4.51298 84.6264 5.81296C84.9595 7.31563 85.8262 10.9011 87.1518 14.1301ZM94.1223 20.6509C90.5229 20.6509 87.0539 18.4261 85.5583 14.7824C83.7714 10.4235 82.8232 5.61959 82.7836 5.41691L82.6484 4.72265L83.3008 4.45473C87.4779 2.74006 100.105 2.91479 102.178 7.96562C104.128 12.7276 101.987 18.1279 97.4072 20.0056C96.3355 20.4436 95.2219 20.6509 94.1223 20.6509Z" fill="black"/>
<path fill-rule="evenodd" clip-rule="evenodd" d="M86.9175 14.2272C88.5623 18.2366 93.019 20.2215 96.8584 18.6513C100.691 17.0811 102.473 12.5358 100.831 8.52168C99.3069 4.80578 88.6391 4.23034 84.3292 5.63749C84.6204 6.98407 85.5103 10.8001 86.9175 14.2272ZM94.128 20.3916C90.6287 20.3916 87.2576 18.2273 85.8015 14.6838C84.024 10.3458 83.0804 5.5676 83.0408 5.36491L82.9453 4.88033L83.4043 4.69396C87.5185 3.00957 99.922 3.1377 101.944 8.06273C103.838 12.6919 101.762 17.9431 97.315 19.7649C96.2736 20.1912 95.195 20.3916 94.128 20.3916Z" fill="black"/>
<path fill-rule="evenodd" clip-rule="evenodd" d="M105.975 10.5921C104.552 14.7483 106.635 19.226 110.621 20.5912C114.607 21.9541 118.994 19.6873 120.417 15.5287C121.841 11.3725 122.206 7.46093 122.206 7.46093C117.517 5.5692 107.399 6.43353 105.975 10.5921Z" fill="#1A1547"/>
<path fill-rule="evenodd" clip-rule="evenodd" d="M116.29 7.1044C113.711 7.1044 111.043 7.55171 109.142 8.41836C107.763 9.04972 106.866 9.86977 106.552 10.7877V10.79C105.913 12.6515 106.009 14.6387 106.822 16.386C107.63 18.124 109.051 19.417 110.822 20.0227C114.491 21.2761 118.54 19.1723 119.854 15.3353C120.956 12.1086 121.42 9.00079 121.562 7.86156C120.09 7.35368 118.214 7.1044 116.29 7.1044ZM112.998 21.5883C112.145 21.5906 111.281 21.4531 110.433 21.1619C108.348 20.449 106.677 18.9324 105.729 16.8939C104.786 14.8624 104.674 12.5559 105.412 10.3986C105.843 9.1429 106.929 8.10851 108.641 7.32339C112.413 5.5994 118.731 5.40836 122.438 6.90404L122.855 7.07178L122.813 7.51909C122.797 7.68217 122.422 11.5495 120.993 15.7244C119.766 19.3098 116.471 21.5883 112.998 21.5883Z" fill="black"/>
<path fill-rule="evenodd" clip-rule="evenodd" d="M83.6048 6.85352L68.1797 13.3674L74.23 14.3855L84.6252 10.9655C84.7929 10.3458 83.7818 7.75046 83.6048 6.85352Z" fill="black"/>
<path fill-rule="evenodd" clip-rule="evenodd" d="M51.2656 81.8091C52.9733 85.6357 57.0829 87.8897 60.9619 89.7951C66.2783 92.4016 71.667 94.8662 77.1255 97.1822C82.7261 99.5602 88.5854 101.821 94.7172 101.816C100.849 101.814 107.361 99.0367 109.902 93.7237C110.601 92.2642 111.044 90.7112 111.701 89.236C112.316 87.854 113.206 86.6319 113.954 85.3186C115.498 82.5965 123.737 74.1362 117.684 72.6631C114.21 71.8202 101.514 69.2002 84.7879 69.2002C72.5662 69.4509 60.885 74.6261 51.2656 81.8091Z" fill="#006261"/>
<path fill-rule="evenodd" clip-rule="evenodd" d="M175.088 111.011C175.384 109.474 176.16 107.978 177.015 106.638C177.97 105.138 179.046 103.715 180.223 102.382C180.812 101.716 181.43 101.07 182.068 100.453C183.41 99.1507 184.922 98.2001 186.464 97.1145C189.157 95.2134 191.851 93.1889 194.574 91.0782C198.579 87.989 204.324 88.7321 207.413 92.7299C210.358 96.5437 209.966 100.09 206.439 103.263C203.783 105.648 192.188 116.905 188.959 119.091C187.93 119.787 186.853 120.668 185.733 121.206C184.873 121.623 183.529 121.243 182.665 120.98C180.395 120.291 178.436 118.76 176.938 116.95C176.102 115.941 175.368 114.802 175.091 113.52C174.909 112.684 174.928 111.841 175.088 111.011Z" fill="#6E78F0"/>
<path fill-rule="evenodd" clip-rule="evenodd" d="M128.099 123.82C128.152 123.554 128.208 123.291 128.259 123.025C128.688 120.875 129.278 114.359 129.287 113.273C129.287 113.091 128.802 97.1559 129.145 95.5694C129.31 94.8099 129.59 94.1017 129.844 93.3655C130.31 92.0119 129.198 88.8691 129.21 89.1161C129.198 89.0159 129.177 88.9157 129.168 88.8155C129.161 88.7713 129.154 88.727 129.149 88.6804C129.138 88.5406 129.128 88.4148 129.117 88.282C129.077 87.7928 129.038 87.3198 129.005 86.8656C128.756 83.6692 128.639 81.1624 127.98 79.1099C127.789 78.5228 127.556 77.9684 127.265 77.4512C126.384 75.8949 124.956 74.6159 122.566 73.4767C121.105 72.7801 119.285 72.1324 117.007 71.4987C112.168 70.1568 107.201 70.2477 102.052 70.236C99.2568 70.2314 97.2952 69.9402 94.5205 70.2919C90.2361 70.8348 87.6035 69.169 83.8853 67.9203C80.5794 66.8067 76.9754 67.4707 73.6229 68.1719C71.3747 68.6402 69.0893 68.8778 66.8155 69.1807C65.7438 69.3251 64.5719 69.395 63.5352 69.6979C63.4211 69.7305 63.3279 69.7118 63.2114 69.7654C62.3843 70.1428 61.5689 71.0538 60.8537 71.6199C59.2625 72.8709 57.6736 74.122 56.0848 75.3731C53.9321 77.0691 51.7562 78.7861 50.0718 80.9457C48.7904 82.5882 47.8026 84.5195 47.4788 86.5906C47.4019 87.0636 47.2924 87.6344 47.3903 88.1096C47.4648 88.4544 47.6815 88.741 47.8073 89.0671C48.2266 90.1691 48.5015 91.3293 48.9116 92.4359C49.8621 94.9939 50.7404 97.6428 51.5302 100.294C51.6397 100.65 51.7492 101.005 51.8493 101.363C52.0054 101.911 52.1615 102.456 52.3199 103.006C54.673 111.456 56.1523 119.694 56.3923 125.224C56.56 128.94 58.3493 151.08 57.7948 155.737C57.6736 156.75 57.5408 157.785 57.3778 158.845C57.3778 158.845 57.1192 162.43 63.0506 163.012L123.306 161.768C123.726 158.362 124.145 154.956 124.562 151.55C125.326 145.339 126.088 139.126 126.852 132.915C127.132 130.632 127.411 128.346 127.693 126.063C127.719 125.849 127.675 125.651 127.726 125.439C127.789 125.171 127.856 124.903 127.917 124.635C127.98 124.365 128.04 124.092 128.099 123.82Z" fill="#6E78F0"/>
<mask id="mask0_5527_2963" style="mask-type:alpha" maskUnits="userSpaceOnUse" x="53" y="68" width="79" height="74">
<path fill-rule="evenodd" clip-rule="evenodd" d="M104.283 68.9954C102.916 73.1912 99.8962 76.9537 95.8099 78.6148C91.7236 80.2899 86.6075 79.5537 83.5533 76.3736C82.3534 75.1365 81.5171 73.6129 80.7203 72.0916C79.7255 72.3455 78.8053 72.8744 77.9876 73.8086C75.0078 77.2053 75.1569 82.8479 73.7451 86.9296C72.0934 91.6962 69.0018 93.0031 65.7495 96.5606C63.2171 99.3353 61.0435 103.168 59.0982 106.371C56.6823 110.341 55.2984 114.56 54.1615 118.865C53.2157 122.448 55.2355 125.633 55.352 129.165C55.4638 132.52 53.4183 137.473 56.1604 140.285C58.2409 142.407 66.2248 141.713 69.4724 141.405C80.6621 140.341 92.3852 140.443 103.808 139.716C110.804 139.271 120.146 138.731 126.103 134.682C126.071 133.845 126.052 133.086 126.043 132.417C126.038 132.154 126.036 131.907 126.04 131.669V131.576C126.04 131.576 129.055 124.909 131.271 119.422C133.337 114.299 130.553 109.339 128.442 98.7203C128.095 96.98 127.776 95.214 127.517 93.4202C127.375 92.4696 127.392 93.0637 127.396 93.3713C127.389 93.2454 127.364 93.1266 127.352 93.0031C127.352 92.9472 127.347 92.889 127.343 92.8377C127.331 92.6653 127.317 92.4999 127.308 92.3438C127.266 91.7451 127.226 91.1697 127.196 90.6105C126.947 86.6849 126.83 83.6051 126.166 81.0843C125.975 80.3621 125.744 79.6841 125.453 79.0481C124.57 77.1378 123.149 75.5722 120.757 74.1697C119.296 73.3124 117.474 72.5226 115.198 71.7421C114.347 71.4556 106.496 68.8789 104.661 68.8789C104.442 68.8789 104.309 68.9139 104.283 68.9954Z" fill="white"/>
</mask>
<g mask="url(#mask0_5527_2963)">
<path fill-rule="evenodd" clip-rule="evenodd" d="M49.0363 146.036C58.5206 144.193 68.345 144.948 77.3494 148.51C86.0485 151.947 93.6294 157.599 101.623 162.342C114.855 170.195 132.766 176.263 145.985 164.94C147.341 163.777 145.377 161.829 144.028 162.983C129.367 175.543 109.791 164.318 96.3645 155.83C89.1237 151.248 81.7525 146.64 73.4401 144.261C65.2488 141.927 56.6405 141.75 48.3024 143.366C46.5551 143.704 47.296 146.372 49.0363 146.036Z" fill="#00C8DC"/>
</g>
<mask id="mask1_5527_2963" style="mask-type:alpha" maskUnits="userSpaceOnUse" x="53" y="68" width="79" height="74">
<path fill-rule="evenodd" clip-rule="evenodd" d="M104.283 68.9954C102.916 73.1912 99.8962 76.9537 95.8099 78.6148C91.7236 80.2899 86.6075 79.5537 83.5533 76.3736C82.3534 75.1365 81.5171 73.6129 80.7203 72.0916C79.7255 72.3455 78.8053 72.8744 77.9876 73.8086C75.0078 77.2053 75.1569 82.8479 73.7451 86.9296C72.0934 91.6962 69.0018 93.0031 65.7495 96.5606C63.2171 99.3353 61.0435 103.168 59.0982 106.371C56.6823 110.341 55.2984 114.56 54.1615 118.865C53.2157 122.448 55.2355 125.633 55.352 129.165C55.4638 132.52 53.4183 137.473 56.1604 140.285C58.2409 142.407 66.2248 141.713 69.4724 141.405C80.6621 140.341 92.3852 140.443 103.808 139.716C110.804 139.271 120.146 138.731 126.103 134.682C126.071 133.845 126.052 133.086 126.043 132.417C126.038 132.154 126.036 131.907 126.04 131.669V131.576C126.04 131.576 129.055 124.909 131.271 119.422C133.337 114.299 130.553 109.339 128.442 98.7203C128.095 96.98 127.776 95.214 127.517 93.4202C127.375 92.4696 127.392 93.0637 127.396 93.3713C127.389 93.2454 127.364 93.1266 127.352 93.0031C127.352 92.9472 127.347 92.889 127.343 92.8377C127.331 92.6653 127.317 92.4999 127.308 92.3438C127.266 91.7451 127.226 91.1697 127.196 90.6105C126.947 86.6849 126.83 83.6051 126.166 81.0843C125.975 80.3621 125.744 79.6841 125.453 79.0481C124.57 77.1378 123.149 75.5722 120.757 74.1697C119.296 73.3124 117.474 72.5226 115.198 71.7421C114.347 71.4556 106.496 68.8789 104.661 68.8789C104.442 68.8789 104.309 68.9139 104.283 68.9954Z" fill="white"/>
</mask>
<g mask="url(#mask1_5527_2963)">
<path fill-rule="evenodd" clip-rule="evenodd" d="M102.143 148.293C114.426 153.819 127.344 148.251 138.417 142.506C144.633 139.275 150.879 135.878 157.775 134.338C165.705 132.568 173.801 134.047 181.654 135.522C183.397 135.848 184.145 133.18 182.393 132.852C175.448 131.552 168.333 130.201 161.241 130.981C154.783 131.685 148.77 134.17 142.997 137.041C131.167 142.921 117.088 151.997 103.543 145.91C101.927 145.181 100.522 147.564 102.143 148.293Z" fill="#00C8DC"/>
</g>
<mask id="mask2_5527_2963" style="mask-type:alpha" maskUnits="userSpaceOnUse" x="53" y="68" width="79" height="74">
<path fill-rule="evenodd" clip-rule="evenodd" d="M104.283 68.9954C102.916 73.1912 99.8962 76.9537 95.8099 78.6148C91.7236 80.2899 86.6075 79.5537 83.5533 76.3736C82.3534 75.1365 81.5171 73.6129 80.7203 72.0916C79.7255 72.3455 78.8053 72.8744 77.9876 73.8086C75.0078 77.2053 75.1569 82.8479 73.7451 86.9296C72.0934 91.6962 69.0018 93.0031 65.7495 96.5606C63.2171 99.3353 61.0435 103.168 59.0982 106.371C56.6823 110.341 55.2984 114.56 54.1615 118.865C53.2157 122.448 55.2355 125.633 55.352 129.165C55.4638 132.52 53.4183 137.473 56.1604 140.285C58.2409 142.407 66.2248 141.713 69.4724 141.405C80.6621 140.341 92.3852 140.443 103.808 139.716C110.804 139.271 120.146 138.731 126.103 134.682C126.071 133.845 126.052 133.086 126.043 132.417C126.038 132.154 126.036 131.907 126.04 131.669V131.576C126.04 131.576 129.055 124.909 131.271 119.422C133.337 114.299 130.553 109.339 128.442 98.7203C128.095 96.98 127.776 95.214 127.517 93.4202C127.375 92.4696 127.392 93.0637 127.396 93.3713C127.389 93.2454 127.364 93.1266 127.352 93.0031C127.352 92.9472 127.347 92.889 127.343 92.8377C127.331 92.6653 127.317 92.4999 127.308 92.3438C127.266 91.7451 127.226 91.1697 127.196 90.6105C126.947 86.6849 126.83 83.6051 126.166 81.0843C125.975 80.3621 125.744 79.6841 125.453 79.0481C124.57 77.1378 123.149 75.5722 120.757 74.1697C119.296 73.3124 117.474 72.5226 115.198 71.7421C114.347 71.4556 106.496 68.8789 104.661 68.8789C104.442 68.8789 104.309 68.9139 104.283 68.9954Z" fill="white"/>
</mask>
<g mask="url(#mask2_5527_2963)">
<path fill-rule="evenodd" clip-rule="evenodd" d="M97.1486 143.306C95.9022 142.617 94.6581 141.92 93.4094 141.231C92.778 140.879 91.8694 141.056 91.5153 141.725C91.1752 142.377 91.3406 143.248 92.0139 143.623C93.2626 144.313 94.5067 145.005 95.7507 145.697C96.3891 146.048 97.2907 145.869 97.6448 145.198C97.9896 144.55 97.8242 143.681 97.1486 143.306Z" fill="#00C8DC"/>
</g>
<mask id="mask3_5527_2963" style="mask-type:alpha" maskUnits="userSpaceOnUse" x="188" y="80" width="35" height="30">
<path fill-rule="evenodd" clip-rule="evenodd" d="M188.676 80.6982H222.811V109.823H188.676V80.6982Z" fill="white"/>
</mask>
<g mask="url(#mask3_5527_2963)">
<path fill-rule="evenodd" clip-rule="evenodd" d="M188.676 97.5591C190.423 94.7425 198.123 84.4032 200.73 82.2109C201.349 81.6867 201.995 81.1509 202.766 80.8923C203.586 80.6197 204.476 80.6826 205.333 80.7898C208.082 81.1323 210.759 81.8824 213.424 82.6326C217.033 83.6484 223.365 84.0887 222.774 89.3515C222.601 90.8775 221.192 92.2776 219.668 92.0936C220.609 92.9696 221.057 94.3418 220.819 95.6021C220.481 97.375 217.576 96.9557 216.337 96.9114C217.508 97.7595 218.82 98.9569 218.508 100.366C218.296 101.319 217.352 101.969 216.39 102.139C215.43 102.309 214.449 102.1 213.494 101.89C213.89 102.398 214.298 102.936 214.401 103.57C214.592 104.751 213.608 105.876 212.465 106.223C211.321 106.57 208.97 105.646 208.227 105.385C206.226 106.827 203.479 108.527 201.333 109.135C200.096 109.483 198.838 109.837 197.557 109.823C195.043 109.797 192.606 108.246 191.525 105.979" fill="#6E78F0"/>
</g>
<path fill-rule="evenodd" clip-rule="evenodd" d="M207.487 82.4854C208.992 83.3916 210.515 84.2792 211.988 85.2367C213.255 86.0615 214.651 86.5367 215.832 87.5269C216.664 88.2211 217.467 89.0179 217.845 90.036C218.224 91.0517 218.073 92.3354 217.234 93.0203C216.608 93.5305 215.722 93.6214 214.928 93.463C214.136 93.3046 213.409 92.9248 212.68 92.573C210.774 91.6458 208.794 90.877 206.76 90.2689C205.6 89.9241 205.18 90.5835 204.54 91.4361C201.97 94.8795 197.651 96.9436 193.359 96.7852" fill="#6E78F0"/>
<path fill-rule="evenodd" clip-rule="evenodd" d="M214.702 86.5977C216.023 86.9914 217.177 88.14 216.76 89.6194C216.475 90.6258 215.555 91.1244 214.579 91.2711C212.184 91.6299 209.698 90.6281 207.462 89.8989C207.588 89.6823 207.713 89.4656 207.839 89.2513C208.319 89.624 207.685 90.6677 207.508 91.0498C207.101 91.9281 206.665 92.7948 206.073 93.5636C205.029 94.9218 203.776 96.1263 202.376 97.1164C201.102 98.0157 199.336 99.078 197.707 98.9382C197.358 98.9079 197.272 98.4303 197.623 98.3139C199.021 97.8619 200.314 97.5008 201.568 96.69C202.837 95.8723 203.979 94.8472 204.969 93.708C205.554 93.0347 205.982 92.3684 206.385 91.588C206.569 91.2269 206.753 90.8634 206.917 90.4907C206.991 90.3229 207.047 90.1412 207.129 89.9781C207.254 89.7219 207.105 89.6543 207.289 89.7987C206.982 89.5588 207.317 89.0369 207.667 89.1511C209.391 89.7079 211.124 90.3439 212.932 90.5489C213.766 90.6444 214.814 90.712 215.541 90.2111C217 89.207 215.774 87.455 214.602 86.84C214.467 86.7701 214.558 86.5534 214.702 86.5977Z" fill="#C66ACB"/>
<path fill-rule="evenodd" clip-rule="evenodd" d="M215.492 96.9561C213.817 96.6276 212.154 96.0522 210.591 95.3695C209.906 95.069 209.232 94.7242 208.627 94.2792C208.1 93.8948 207.492 93.4009 207.266 92.7719C207.208 92.6135 207.415 92.5413 207.52 92.6251C207.786 92.8348 207.991 93.1004 208.24 93.3334C208.501 93.578 208.785 93.8016 209.081 94.0067C209.663 94.4097 210.299 94.7335 210.947 95.0154C212.45 95.6701 214.027 96.122 215.581 96.6369C215.783 96.7045 215.702 96.998 215.492 96.9561Z" fill="#C66ACB"/>
<path fill-rule="evenodd" clip-rule="evenodd" d="M212.702 101.684C211.043 101.365 209.449 100.731 208.024 99.82C207.334 99.3797 206.684 98.8741 206.088 98.315C205.486 97.7512 204.885 97.0942 204.802 96.2438C204.792 96.139 204.869 96.0225 204.96 95.9713C205.235 95.8175 205.382 96.0854 205.486 96.2998C205.687 96.7051 205.897 97.0709 206.199 97.411C206.777 98.0564 207.42 98.6505 208.119 99.1653C209.517 100.197 211.108 100.931 212.797 101.341C213.023 101.395 212.925 101.728 212.702 101.684Z" fill="#C66ACB"/>
<path fill-rule="evenodd" clip-rule="evenodd" d="M208.673 105.709C206.681 104.989 204.843 103.803 203.545 102.107C202.933 101.306 202.483 100.339 202.569 99.307C202.637 98.5173 203.019 97.3967 203.92 97.2406C204.135 97.2033 204.354 97.4176 204.221 97.6296C204.028 97.9372 203.771 98.2028 203.608 98.5289C203.436 98.876 203.368 99.2698 203.38 99.6542C203.406 100.558 203.911 101.401 204.468 102.082C205.626 103.496 207.131 104.684 208.759 105.504C208.873 105.56 208.794 105.753 208.673 105.709Z" fill="#C66ACB"/>
<path fill-rule="evenodd" clip-rule="evenodd" d="M191.669 106.423C192.135 107.784 192.528 109.168 193.015 110.521C193.334 111.407 193.691 112.283 194.136 113.114C194.355 113.534 194.59 113.972 194.881 114.349C194.982 114.482 195.11 114.573 195.215 114.694C195.403 114.915 196.214 116.367 196.044 116.551C195.746 116.872 195.424 117.173 195.084 117.45C193.381 118.836 191.207 119.638 189.011 119.673C188.421 119.684 188.309 119.915 187.82 120.201C187.394 120.448 186.911 120.593 186.422 120.646C185.437 120.756 184.412 120.511 183.566 119.996C182.084 119.09 181.122 117.529 180.416 115.938C178.571 111.777 178.126 107.153 177.702 102.619C177.667 102.26 177.639 101.881 177.781 101.55C178.124 100.762 179.167 100.671 179.992 100.436C182.005 99.863 183.282 97.9153 185.069 96.8274C185.39 96.6317 185.772 96.4593 186.129 96.5781C186.434 96.6806 186.632 96.9695 186.807 97.2421C188.435 99.7675 190.075 102.312 191.184 105.107C191.357 105.543 191.517 105.981 191.669 106.423Z" fill="#006261"/>
<path fill-rule="evenodd" clip-rule="evenodd" d="M167.323 102.479C166.625 102.675 165.916 102.85 165.259 103.199C164.821 103.432 164.458 103.733 163.99 103.926C160.439 105.394 156.744 106.461 153.219 108.031C151.029 109.005 148.856 110.042 146.747 111.183C145.969 111.605 145.354 112.67 144.632 112.989C142.26 114.035 138.06 101.363 137.522 99.4298C136.399 95.3924 135.802 91.2059 134.367 87.2686C132.594 82.4158 129.181 77.8426 125.624 74.157C125.044 73.5559 124.431 72.9618 123.681 72.5984C122.8 72.1744 121.784 72.0975 120.811 72.1837C118.784 72.3608 116.822 73.2204 115.317 74.5903C113.465 76.277 112.354 78.6557 111.797 81.0995C111.482 82.4717 111.331 83.8742 111.256 85.2791C111.191 86.4416 111.219 87.5133 110.807 88.6129C110.38 89.7521 110.397 90.9426 110.399 92.1471C110.401 93.6567 110.488 95.1617 110.599 96.6667C110.679 97.6732 110.772 98.6819 110.867 99.686C111.902 110.615 112.936 121.543 113.973 132.472C114.187 134.753 114.45 136.719 115.114 138.953C115.818 141.32 116.678 143.657 117.926 145.798C119.928 149.237 123.108 152.196 127.003 153.006C128.802 153.379 130.663 153.284 132.494 153.134C134.95 152.978 137.426 152.61 139.83 152.081C142.158 151.567 144.534 150.898 146.67 149.819C147.973 149.162 148.958 148.219 150.032 147.254C153.688 143.972 158.186 141.395 162.324 138.767C164.439 137.425 166.573 136.114 168.726 134.83C169.721 134.236 170.734 133.649 171.741 133.078C171.934 132.968 172.123 132.882 172.33 132.815C172.749 132.684 173.131 132.579 173.527 132.377C174.529 131.864 175.519 131.326 176.498 130.774C178.455 129.667 180.372 128.479 182.182 127.144C184.095 125.732 185.896 124.155 187.466 122.368C188.121 121.623 189.169 120.656 189.328 119.633C189.465 118.741 188.741 118.075 188.13 117.546C186.436 116.085 184.876 114.701 183.706 112.76C182.59 110.908 181.852 108.821 181.591 106.673C181.57 106.5 181.551 106.328 181.539 106.156C181.416 104.728 181.297 103.353 181.048 101.941C180.997 101.657 180.987 101.517 180.759 101.303C180.263 100.837 179.506 100.706 178.851 100.634C176.5 100.378 174.108 100.522 171.803 101.047C170.65 101.31 169.518 101.666 168.425 102.116C168.064 102.265 167.696 102.375 167.323 102.479Z" fill="#009598"/>
<path fill-rule="evenodd" clip-rule="evenodd" d="M121.518 67.1315C121.557 67.1711 121.592 67.2131 121.627 67.2573C122.102 67.8887 122.182 68.8159 122.38 69.5009C122.853 71.134 123.26 72.7741 123.642 74.4189C124.225 76.9117 124.742 79.4115 125.22 81.9159C125.851 85.2358 126.41 88.5649 126.909 91.8964C127.528 96.0154 128.062 100.141 128.521 104.27C128.882 107.513 129.196 110.758 129.471 114.005C129.788 117.759 131.261 121.491 131.354 125.232C131.37 126.006 131.307 126.684 131.647 127.436C132.824 130.05 136.015 140.711 136.957 143.742C137.898 146.775 137.765 150.07 135.68 152.814C132.255 157.324 130.541 158.303 124.187 159.81C123.612 159.948 122.999 160.167 122.405 160.164C121.928 160.164 121.518 160.127 121.035 160.199C119.7 160.406 118.361 160.591 117.017 160.74C114.368 161.031 111.703 161.203 109.04 161.289C101.941 161.52 94.8424 161.138 87.7554 160.754C82.7325 160.481 77.7073 160.211 72.6844 159.938C69.5742 159.77 66.4128 159.591 63.489 158.524C60.5629 157.459 57.8557 155.358 56.826 152.42C55.8801 149.706 56.4602 146.682 55.7753 143.891C55.3117 142.006 54.2959 140.317 53.406 138.593C50.5661 133.088 48.9422 126.961 48.6813 120.773C48.6813 120.738 48.679 120.706 48.6766 120.671C48.5462 117.323 48.9213 113.724 47.9568 110.469C47.6586 109.458 46.9783 108.747 46.531 107.825C46.27 107.284 46.1605 106.695 46.114 106.101C45.7761 102.038 46.6614 97.9374 47.1693 93.9256C47.7634 89.2289 48.4716 84.3668 50.6429 79.8704C51.011 79.1063 51.3698 78.3375 51.7495 77.5733C52.6605 75.7445 53.6995 73.911 55.335 72.3245C56.7258 70.9779 59.0858 69.2003 61.5647 68.9044C62.5315 68.788 63.5542 68.9324 64.5281 68.9347C66.1169 68.9347 67.6429 68.9301 69.2154 69.1374C72.3443 69.5498 75.3053 70.4677 78.0288 71.5906C82.7697 73.5406 86.9935 76.08 91.9209 77.7993C92.8202 78.1115 93.7684 78.4004 94.7748 78.4493C96.578 78.5332 98.2531 77.8319 99.7021 77.0841C102.822 75.4743 105.559 73.515 107.782 71.3064C108.946 70.1485 109.976 68.9231 111.262 67.8235C111.905 67.2713 112.609 66.7448 113.413 66.3021C115.062 65.3912 116.476 66.2579 118.524 66.3627C119.528 66.4116 120.893 66.5048 121.518 67.1315Z" fill="#FEC00A"/>
<path fill-rule="evenodd" clip-rule="evenodd" d="M137.642 160.556C137.5 160.929 137.3 161.28 137.002 161.597C136.445 162.187 135.42 162.625 134.36 162.56C133.763 162.525 133.365 162.371 132.771 162.396C132.018 162.424 80.3382 164.54 68.4077 163.459C66.9307 163.324 65.4537 163.223 63.9743 163.112C62.8793 163.03 61.7843 162.949 60.6917 162.865C60.2188 162.827 59.7691 162.809 59.2985 162.837C58.8442 162.862 58.4948 162.597 58.1477 162.341C56.44 161.08 55.2868 159.179 54.73 157.185C54.059 154.781 54.1802 152.234 54.5995 149.783C54.7742 148.779 55.0095 147.752 55.6036 146.915C55.8203 146.613 56.1138 146.321 56.4912 146.279C56.7312 146.254 56.9688 146.331 57.1971 146.41C58.0824 146.722 69.0041 148.835 69.8009 148.963C71.462 149.234 73.1254 149.483 74.7888 149.716C81.5241 150.657 88.3035 151.312 95.076 151.673C101.846 152.036 108.612 152.106 115.321 151.882C118.632 151.771 121.931 151.591 125.209 151.337C128.13 151.111 130.963 150.473 133.929 150.417C134.409 150.41 134.868 150.403 135.341 150.522C136.456 150.804 137.638 151.531 138.08 152.327C138.565 153.192 138.479 154.124 138.385 155.018C138.26 156.239 138.134 157.462 138.006 158.685C137.943 159.314 137.868 159.962 137.642 160.556Z" fill="#006261"/>
<path fill-rule="evenodd" clip-rule="evenodd" d="M99.6965 135.421C99.6849 135.418 92.2717 130.864 92.2717 130.864C94.627 131.297 97.2224 131.388 99.9831 131.15C102.748 130.917 105.672 130.365 108.664 129.585C111.657 128.814 114.716 127.816 117.812 126.698C120.911 125.573 124.044 124.329 127.227 123.013C131.905 121.088 137.252 123.318 139.176 127.989C141.012 132.443 138.041 134.125 133.804 136.259C130.614 137.858 118.12 147.3 114.43 148.556C110.739 149.809 106.844 150.888 102.679 151.566C98.5223 152.241 94.0726 152.509 89.4947 152.043C86.5662 151.747 84.0594 150.212 82.4473 148.003L82.0699 147.486C82.0699 147.486 46.4531 98.4038 46.4205 98.3572C43.2101 93.9331 43.3965 88.0039 46.5696 83.6334C50.5627 78.1399 56.1354 81.1289 61.6219 82.9834C70.6775 86.0516 75.3346 97.6396 80.234 105.241C85.6157 113.584 90.995 121.929 96.3743 130.27C97.1711 131.507 98.4035 134.633 99.6965 135.421Z" fill="#C0C7FF"/>
<path fill-rule="evenodd" clip-rule="evenodd" d="M157.459 61.2598L181.532 129.737L156.83 134.581L150.894 135.743L125.318 78.9563L157.459 61.2598Z" fill="#E680F1"/>
<path fill-rule="evenodd" clip-rule="evenodd" d="M165.38 78.1035C166.012 79.6412 166.643 81.1764 167.274 82.7141C170.081 89.5378 182.378 123.37 183.801 126.068C184.022 126.485 184.241 126.986 184.034 127.41C183.866 127.752 183.48 127.915 183.123 128.05C171.801 132.381 160.485 136.605 149.07 140.691L125.318 78.9562L158.561 71.3078L162.237 70.4551L165.38 78.1035Z" fill="#866FC8"/>
<path fill-rule="evenodd" clip-rule="evenodd" d="M162.716 117.573C160.561 120.615 150.967 125.321 148.509 127.278C146.059 129.219 136.327 132.492 136.327 132.492L130.412 124.671C130.412 124.671 129.662 122.558 133.618 116.482C137.562 110.404 144.337 100.212 146.306 100.74C148.207 101.26 145.525 109.423 144.898 111.14L144.833 111.301C144.796 111.401 144.849 111.408 144.999 111.352C146.653 110.646 159.732 100.021 161.309 101.404C161.782 101.831 162.28 103.066 162.686 104.678C162.714 104.785 162.744 104.897 162.765 105.018C163.054 106.211 163.294 107.588 163.459 108.988C163.483 109.111 163.494 109.23 163.499 109.358C163.648 110.756 163.72 112.177 163.674 113.454C163.664 113.589 163.657 113.717 163.65 113.843C163.564 115.443 163.278 116.797 162.716 117.573Z" fill="#6E78F0"/>
<path fill-rule="evenodd" clip-rule="evenodd" d="M130.242 117.948C130.71 117.629 131.213 117.3 131.779 117.284C132.441 117.265 133.03 117.673 133.55 118.083C137.608 121.296 140.634 125.794 142.079 130.766C142.237 131.311 142.377 131.896 142.2 132.434C141.925 133.268 141.012 133.68 140.192 134C137.592 135.013 134.99 136.024 132.387 137.037C130.791 133.336 129.161 129.575 126.556 126.5C125.216 124.921 124.01 123.304 125.459 121.321C126.512 119.881 128.781 118.936 130.242 117.948Z" fill="#006261"/>
<path fill-rule="evenodd" clip-rule="evenodd" d="M122.831 136.197C118.295 141.514 112.226 145.281 106.057 148.568C103.198 150.092 100.235 151.55 97.0313 152.035C93.5973 152.554 90.0817 151.913 86.7642 150.895C75.2531 147.363 65.445 139.251 58.6818 129.292C51.9163 119.332 48.0443 107.614 46.1805 95.7206C45.7658 93.0694 45.4467 90.3436 45.9941 87.7157C47.2732 81.5512 54.3508 78.7998 60.0563 79.3986C65.1817 79.9391 69.8365 82.6136 74.0043 85.6445C81.6621 91.2172 88.2762 98.218 93.4062 106.179C95.0673 108.758 96.6306 111.497 99.0418 113.389C102.741 116.292 107.923 116.788 111.552 119.775C113.288 121.201 114.595 123.139 116.501 124.325C118.467 125.55 120.443 125.299 122.299 124.122C123.96 123.074 125.212 124.553 125.817 126.175C127.094 129.581 125.011 133.644 122.831 136.197Z" fill="#EDAB04"/>
<path fill-rule="evenodd" clip-rule="evenodd" d="M48.705 77.9914C40.9214 83.5571 37.979 92.3751 50.203 116.234C54.1006 123.843 58.0518 131.433 62.2616 138.876C63.4521 140.98 64.6007 141.851 66.2315 143.466C68.3888 145.528 70.2502 147.764 72.0907 150.064C72.1839 150.18 72.2817 150.294 72.3819 150.408C73.4419 151.613 74.7675 152.568 76.0978 153.453C76.7175 153.866 77.3862 154.236 77.9103 154.774C78.2528 155.126 78.5091 155.55 78.8445 155.909C79.8277 156.962 81.3071 157.672 82.5698 158.343C83.928 159.068 85.3375 159.699 86.7796 160.242C92.52 162.392 98.8196 163.075 104.877 162.094C109.595 161.33 114.135 159.56 118.163 156.995C120.577 155.457 122.809 153.635 124.784 151.569C125.779 150.532 126.664 149.421 127.554 148.295C127.911 147.841 128.339 147.615 128.766 147.247C129.952 146.234 131.098 145.106 132.202 144.002C133.332 142.874 134.467 141.618 135.023 140.092C136.729 135.428 132.796 128.688 130.713 125.159C129.469 123.048 128.023 120.77 125.681 120.045C120.078 118.312 116.006 126.475 110.165 127.02C109.417 127.09 108.63 127.018 107.985 126.631C106.14 125.52 106.51 122.755 105.58 120.812C104.28 118.102 100.791 117.485 97.8364 116.935C95.9959 116.593 93.9644 115.966 92.5666 114.654C91.2503 113.415 91.1804 111.663 90.1879 110.211C88.1052 107.169 85.9618 104.168 83.7393 101.228C79.2336 95.2686 74.4274 89.4303 68.878 84.4051C63.9949 79.9833 55.4355 73.1782 48.705 77.9914Z" fill="#009598"/>
<path fill-rule="evenodd" clip-rule="evenodd" d="M86.1392 131.285C86.4001 131.271 86.6401 131.166 86.675 131.05C92.7253 111.186 85.7571 82.4143 85.6872 82.1254C85.6569 82.0136 85.4123 81.953 85.1374 81.9926C84.8625 82.0322 84.6621 82.1534 84.6901 82.2652C84.7623 82.5541 91.7212 111.28 85.6849 131.094C85.6499 131.213 85.841 131.299 86.1136 131.285C86.1206 131.285 86.1299 131.285 86.1392 131.285Z" fill="#006261"/>
<path fill-rule="evenodd" clip-rule="evenodd" d="M117.113 127.996C117.12 127.996 117.125 127.996 117.13 127.996C117.405 127.975 117.64 127.863 117.656 127.744C120.727 104.026 106.714 80.9194 106.574 80.6888C106.506 80.5839 106.238 80.542 105.97 80.5956C105.703 80.6515 105.535 80.7796 105.6 80.8868C105.742 81.1151 119.72 104.168 116.657 127.821C116.643 127.938 116.848 128.012 117.113 127.996Z" fill="#006261"/>
<path fill-rule="evenodd" clip-rule="evenodd" d="M94.4819 68.3264C94.4819 68.3264 79.3653 67.5417 79.2139 67.5837C78.891 67.672 67.8705 68.6691 66.6672 69.2645C66.4897 69.3524 68.0333 70.134 67.8011 70.2127C59.6866 72.9613 66.2716 67.8595 62.9904 69.2645C60.8671 70.1736 81.833 83.5981 85.9519 83.9173C88.0067 84.0757 86.8859 85.6716 88.9314 85.42C89.4323 85.3594 89.9215 85.2755 90.4224 85.2522C90.914 85.2266 91.352 85.0519 91.8226 84.9028L98.0494 86.8197C103.329 85.3589 108.83 80.071 114.109 78.6102L116.76 77.9812C117.946 77.7016 117.96 76.0219 116.783 75.719L99.506 71.2763C98.9422 71.1318 97.7063 70.3495 98.0494 68.4953L94.4819 68.3264Z" fill="#6E78F0"/>
<path fill-rule="evenodd" clip-rule="evenodd" d="M70.8151 82.2012C69.4359 81.9881 67.7935 81.9077 66.5401 81.4825C65.713 81.2013 65.1469 80.7235 64.3991 80.3787C61.7991 79.1752 58.3767 78.7873 55.3854 78.0532C52.9718 77.4605 50.6025 76.5824 49.3864 75.2072C47.1638 72.6878 51.0381 70.1505 54.3137 68.7543C57.8642 67.2407 62.4677 66.5691 66.7707 67.0953C67.5302 67.1881 68.3503 67.346 68.7603 67.7379C69.0469 68.0149 69.0702 68.3555 69.1307 68.6784C69.6363 71.4177 73.0773 73.6186 76.6115 75.401C78.6989 76.4536 80.8865 77.4451 82.8085 78.6072C84.5791 79.6765 85.3945 81.1834 87.1721 82.1929C89.0522 83.2622 90.8158 84.3285 93.1315 85.0794C93.7722 85.2869 94.4734 85.4782 95.2026 85.4505C96.5212 85.3992 97.4438 84.6817 98.1567 84.0212C99.6734 82.6155 101.074 81.1652 102.35 79.6779C103.005 78.9147 103.599 78.1377 104.209 77.3636C105.474 75.7638 96.4041 73.9356 96.6836 72.149C96.8723 70.9385 98.4482 69.4933 97.458 68.427C100.505 68.1707 112.708 69.3638 114.931 70.6284C116.603 71.5798 118.316 72.9287 118.882 74.2888C119.334 75.3705 118.546 76.4357 118.174 77.4826C117.747 78.6724 117.407 80.2056 116.1 81.1708C115.613 81.5296 114.98 81.8453 114.402 82.1528C113.179 82.8009 111.858 83.384 110.486 83.9201C107.716 85.0032 104.747 85.8908 101.786 86.7731C99.9552 87.3187 98.0379 87.8769 95.9877 87.8853C93.5811 87.8948 91.3772 87.147 89.2502 86.4753C84.0805 84.8382 78.6197 83.5238 72.9911 82.5572C72.2665 82.4326 71.5443 82.3149 70.8151 82.2012Z" fill="#009598"/>
<mask id="mask4_5527_2963" style="mask-type:alpha" maskUnits="userSpaceOnUse" x="197" y="217" width="47" height="8">
<path fill-rule="evenodd" clip-rule="evenodd" d="M197.699 217.394H244V224.478H197.699V217.394Z" fill="white"/>
</mask>
<g mask="url(#mask4_5527_2963)">
<path fill-rule="evenodd" clip-rule="evenodd" d="M197.699 223.367V220.213H238.788C240.78 220.213 242.628 219.166 243.651 217.456L244.002 217.394V222.463C244.002 222.652 243.93 222.833 243.802 222.971L243.679 223.101C242.854 223.98 241.705 224.478 240.501 224.478H198.811C198.195 224.478 197.699 223.98 197.699 223.367Z" fill="#145DB6"/>
</g>
<path fill-rule="evenodd" clip-rule="evenodd" d="M185.102 165.653L199.136 204.851L200.536 219.108H240.057C241.371 219.108 242.436 218.044 242.436 216.73C242.436 215.744 241.83 214.864 240.912 214.51L217.767 203.718L210.288 161.42" fill="#0BC8BB"/>
<mask id="mask5_5527_2963" style="mask-type:alpha" maskUnits="userSpaceOnUse" x="197" y="203" width="47" height="18">
<path fill-rule="evenodd" clip-rule="evenodd" d="M197.699 203.715H244.001V220.209H197.699V203.715Z" fill="white"/>
</mask>
<g mask="url(#mask5_5527_2963)">
<path fill-rule="evenodd" clip-rule="evenodd" d="M217.772 203.715L242.318 214.441C243.334 214.884 244.002 215.99 244.002 217.225C244.002 218.872 242.306 220.209 240.853 220.209H197.699L199.141 204.847C199.141 204.847 206.699 209.945 217.772 203.715Z" fill="#0BC8BB"/>
</g>
<path d="M222.434 204.371C222.675 204.06 223.123 204.003 223.434 204.244C223.745 204.485 223.802 204.933 223.561 205.244C222.205 206.995 221.058 208.897 220.148 210.907C219.985 211.266 219.563 211.425 219.204 211.263C218.846 211.1 218.686 210.678 218.849 210.319C219.805 208.207 221.009 206.209 222.434 204.371Z" fill="#0074E6"/>
<path d="M225.513 206.255C225.745 205.937 226.191 205.868 226.509 206.1C226.827 206.332 226.896 206.778 226.664 207.096C225.414 208.808 224.872 209.761 223.856 211.917C223.688 212.273 223.263 212.425 222.907 212.257C222.551 212.089 222.398 211.665 222.566 211.309C223.618 209.077 224.203 208.049 225.513 206.255Z" fill="#0074E6"/>
<path d="M228.134 207.614C228.371 207.3 228.817 207.237 229.132 207.473C229.447 207.71 229.51 208.157 229.273 208.472C228.877 208.999 228.479 209.635 228.021 210.457L226.722 212.909C226.537 213.256 226.105 213.389 225.758 213.204C225.41 213.019 225.278 212.588 225.462 212.24L226.484 210.298C227.095 209.161 227.606 208.317 228.134 207.614Z" fill="#0074E6"/>
<path fill-rule="evenodd" clip-rule="evenodd" d="M118.957 161.92C118.957 161.92 150.054 112.15 186.997 112.15C212.461 112.15 230.334 199.596 230.334 199.596H187.451L180.234 172.157C180.234 172.157 146.697 222.588 116.97 224.475C105.433 225.209 88.2657 224.417 83.6691 219.108C73.3741 207.217 76.5286 187.405 83.6691 172.157" fill="#FF9332"/>
<path d="M228.897 191.877V192.946H185.566V191.877H228.897Z" fill="#FFB97B"/>
<path fill-rule="evenodd" clip-rule="evenodd" d="M163.852 223.367V220.213H204.941C206.933 220.213 208.78 219.166 209.803 217.456L210.155 217.394V222.463C210.155 222.652 210.083 222.833 209.952 222.971L209.831 223.101C209.006 223.98 207.855 224.478 206.651 224.478H164.963C164.348 224.478 163.852 223.98 163.852 223.367Z" fill="#0074E6"/>
<path fill-rule="evenodd" clip-rule="evenodd" d="M154.742 165.653L165.347 205.379L166.694 219.108H206.215C207.529 219.108 208.594 218.044 208.594 216.73C208.594 215.744 207.988 214.864 207.07 214.51L184.858 205.959L179.929 161.42" fill="#18FBEB"/>
<path fill-rule="evenodd" clip-rule="evenodd" d="M184.609 203.717L208.47 214.443C209.484 214.885 210.155 215.992 210.155 217.227C210.155 218.874 208.456 220.211 207.005 220.211H163.852L165.294 204.849C165.294 204.849 173.536 209.946 184.609 203.717Z" fill="#18FBEB"/>
<path d="M188.594 204.371C188.835 204.06 189.283 204.003 189.594 204.244C189.905 204.485 189.962 204.933 189.721 205.244C188.365 206.995 187.218 208.897 186.308 210.907C186.145 211.266 185.723 211.425 185.364 211.263C185.006 211.1 184.847 210.678 185.009 210.319C185.965 208.207 187.169 206.209 188.594 204.371Z" fill="#0074E6"/>
<path d="M191.667 206.255C191.899 205.937 192.345 205.868 192.663 206.1C192.981 206.332 193.051 206.778 192.818 207.096C191.568 208.808 191.026 209.761 190.01 211.917C189.842 212.273 189.418 212.425 189.061 212.257C188.705 212.089 188.553 211.665 188.72 211.309C189.772 209.077 190.357 208.049 191.667 206.255Z" fill="#0074E6"/>
<path d="M194.286 207.614C194.523 207.3 194.97 207.237 195.284 207.473C195.599 207.71 195.662 208.157 195.426 208.472C195.029 208.999 194.631 209.635 194.174 210.457L192.874 212.909C192.689 213.256 192.258 213.389 191.91 213.204C191.562 213.019 191.43 212.588 191.615 212.24L192.636 210.298C193.248 209.161 193.758 208.317 194.286 207.614Z" fill="#0074E6"/>
<path fill-rule="evenodd" clip-rule="evenodd" d="M92.17 157.351C104.541 144.626 127.304 108.027 160.47 112.153C182.971 114.951 199.873 202.403 199.873 202.403H156.992L148.356 172.157C148.356 172.157 130.676 206.499 107.593 220.212C101.459 223.858 91.0004 224.475 85.0923 224.475C43.8865 224.475 49.8226 188.963 54.6987 157.351H92.17Z" fill="#EC7C17"/>
<path d="M111.352 151.859L114.489 148.55C129.964 132.342 138.277 125.418 142.002 127.209C144.225 128.278 148.56 139.176 154.785 157.988L156.454 163.087L157.024 164.849C159.329 172.009 161.693 179.616 164.015 187.278L165.779 193.139L168.474 202.254L167.447 202.552L165.838 197.081C165.262 195.141 164.642 193.063 163.983 190.872L161.995 184.312C160.331 178.859 158.652 173.464 156.996 168.269L154.875 161.688L153.77 158.324C147.807 140.305 143.323 129.031 141.538 128.173C138.362 126.645 129.145 134.597 112.933 151.742L94.2377 171.632C85.885 180.414 84.7564 181.172 82.3822 182.263L82.2718 182.313C79.1581 183.734 76.1404 183.761 73.7744 181.345C70.6588 178.164 69.3071 171.108 70.158 159.305L70.2365 158.281L71.3023 158.368C70.3199 170.506 71.6091 177.606 74.5385 180.597C76.4137 182.512 78.8098 182.592 81.3951 181.528L82.1385 181.196C84.5447 180.062 86.0285 178.802 97.4439 166.684L111.352 151.859Z" fill="#FFB97B"/>
<path d="M198.581 195.666V196.735H155.223V195.666H198.581Z" fill="#FFB97B"/>
<path d="M81.4646 166.718L82.4501 167.133C81.5413 169.288 79.711 171.105 77.2399 172.619C75.9912 173.384 74.6569 174.023 73.3232 174.543L72.5833 174.82C72.3582 174.9 72.1558 174.968 71.9794 175.025L71.5307 175.161L71.2441 174.131L71.6598 174.005C71.9906 173.898 72.4241 173.746 72.9348 173.547C74.2134 173.048 75.4914 172.436 76.6812 171.707C78.7873 170.417 80.3727 168.91 81.2447 167.192L81.4646 166.718Z" fill="#FFB97B"/>
<path d="M52.7969 189.753L61.5668 187.143L61.879 188.729L62.1474 189.998C62.2436 190.442 62.3464 190.907 62.4556 191.388C63.0798 194.14 63.784 196.89 64.5528 199.456C65.5066 202.638 66.4909 205.299 67.4871 207.269L67.759 207.789L67.8047 208.184C67.7329 208.447 67.65 208.714 67.5559 208.984C67.0186 210.531 66.1394 212.165 65.0134 213.832C64.3404 214.828 63.62 215.776 62.8994 216.645L62.4281 217.202L61.9317 217.758L61.151 217.027L61.6223 216.499C61.7565 216.344 61.9088 216.164 62.0764 215.962C62.7757 215.119 63.4754 214.199 64.1272 213.233C65.2056 211.637 66.0429 210.08 66.5459 208.633L66.7144 208.101L66.5366 207.759C65.5989 205.907 64.6828 203.492 63.7943 200.633L63.5285 199.762C62.752 197.172 62.0419 194.398 61.4129 191.625L60.9618 189.568L60.741 188.504L53.1019 190.778L52.7969 189.753Z" fill="#FFB97B"/>
<path fill-rule="evenodd" clip-rule="evenodd" d="M58.3843 191.124L58.248 190.354L59.3025 190.176L59.5529 191.565L59.8225 192.967L58.7734 193.174C58.724 192.925 58.6767 192.682 58.6315 192.446L58.3843 191.124ZM59.8716 198.261C59.6538 197.338 59.4444 196.403 59.244 195.465L60.2896 195.241C60.4885 196.172 60.6963 197.1 60.9123 198.015L59.8716 198.261ZM60.4324 200.533C60.6819 201.5 60.9361 202.425 61.1949 203.302L62.2205 203C61.9656 202.134 61.7144 201.221 61.4677 200.266L60.4324 200.533ZM62.9317 208.258C62.5857 207.459 62.2428 206.553 61.9027 205.549L62.9156 205.206C63.2467 206.184 63.5796 207.063 63.913 207.833L62.9317 208.258ZM62.8367 210.069C62.5259 210.934 62.1312 211.77 61.6706 212.571L62.5976 213.104C63.0885 212.251 63.5097 211.358 63.8429 210.432L62.8367 210.069ZM59.5632 215.471C59.73 215.301 60.0249 214.966 60.3946 214.484L61.2427 215.136C61.0041 215.446 60.7926 215.703 60.619 215.901L60.3266 216.22L59.5632 215.471Z" fill="#FFB97B"/>
<mask id="mask6_5527_2963" style="mask-type:alpha" maskUnits="userSpaceOnUse" x="81" y="41" width="4" height="4">
<path fill-rule="evenodd" clip-rule="evenodd" d="M81.5547 41.7432H84.1131V44.8405H81.5547V41.7432Z" fill="white"/>
</mask>
<g mask="url(#mask6_5527_2963)">
<path fill-rule="evenodd" clip-rule="evenodd" d="M82.1075 44.8405C82.2775 44.8405 82.4476 44.7613 82.5548 44.6145L84.0062 42.6226C84.1879 42.3757 84.132 42.0285 83.8874 41.8491C83.6404 41.6698 83.2956 41.7233 83.1139 41.9703L81.6625 43.9622C81.4808 44.2091 81.5344 44.5539 81.7813 44.7357C81.8792 44.8056 81.9933 44.8405 82.1075 44.8405Z" fill="#6454AB"/>
</g>
<path fill-rule="evenodd" clip-rule="evenodd" d="M86.3149 46.4987C86.6061 46.4987 86.8484 46.2704 86.8671 45.9769L87.0045 43.5143C87.0208 43.2092 86.7855 42.9482 86.4803 42.9319C86.2008 42.9226 85.9165 43.1486 85.8979 43.4538L85.7628 45.9163C85.7441 46.2192 85.9771 46.4824 86.2823 46.4987H86.3149Z" fill="#6454AB"/>
<path fill-rule="evenodd" clip-rule="evenodd" d="M83.8263 45.8781C84.0267 45.8781 84.2224 45.7686 84.3202 45.5775L85.6039 43.0754C85.7414 42.8052 85.6342 42.472 85.3616 42.3322C85.0914 42.1948 84.7559 42.2973 84.6184 42.5722L83.3348 45.072C83.195 45.3446 83.3022 45.6777 83.5747 45.8175C83.6563 45.8571 83.7425 45.8781 83.8263 45.8781Z" fill="#6454AB"/>
<path fill-rule="evenodd" clip-rule="evenodd" d="M114.195 49.0773C114.244 49.0773 114.288 49.0703 114.337 49.0587C114.63 48.9795 114.81 48.679 114.728 48.3831L114.104 45.9998C114.027 45.7062 113.724 45.5315 113.428 45.6061C113.132 45.6829 112.955 45.9858 113.035 46.2817L113.661 48.665C113.726 48.9119 113.95 49.0773 114.195 49.0773Z" fill="#6454AB"/>
<path fill-rule="evenodd" clip-rule="evenodd" d="M109.667 49.0855C109.9 49.0855 110.117 48.9387 110.194 48.7034L110.965 46.3644C111.061 46.0731 110.9 45.761 110.611 45.6654C110.322 45.5676 110.008 45.7283 109.912 46.0172L109.141 48.3586C109.045 48.6498 109.206 48.962 109.495 49.0575C109.551 49.0761 109.611 49.0855 109.667 49.0855Z" fill="#6454AB"/>
<path fill-rule="evenodd" clip-rule="evenodd" d="M112.209 49.4093C112.228 49.4093 112.247 49.4093 112.265 49.4069C112.568 49.3766 112.792 49.1041 112.759 48.8012L112.477 46.0055C112.449 45.698 112.179 45.4651 111.872 45.5093C111.569 45.5396 111.347 45.8122 111.378 46.115L111.66 48.913C111.688 49.1973 111.93 49.4093 112.209 49.4093Z" fill="#6454AB"/>
<path fill-rule="evenodd" clip-rule="evenodd" d="M102.963 42.6879C103.175 42.9908 103.397 43.2866 103.606 43.5895C103.865 43.9622 104.075 44.3513 104.284 44.752C104.305 44.7916 104.298 44.7753 104.266 44.6961C104.275 44.7217 104.284 44.752 104.294 44.7753C104.308 44.8149 104.324 44.8545 104.336 44.8918C104.35 44.9407 104.361 44.9873 104.373 45.0386C104.408 45.169 104.34 45.0316 104.371 45.0013C104.371 45.0013 104.371 45.1271 104.373 45.1294C104.354 45.1061 104.417 44.9454 104.375 45.0665C104.347 45.1597 104.473 44.9128 104.382 45.0386C104.368 45.0642 104.35 45.0852 104.331 45.1178C104.371 45.0642 104.368 45.0689 104.317 45.1294C104.275 45.176 104.235 45.2203 104.191 45.2599C104.175 45.2762 103.993 45.4253 104.086 45.3577C103.97 45.4393 103.849 45.5138 103.718 45.5837C103.662 45.614 103.606 45.642 103.553 45.6723C103.53 45.6816 103.311 45.7748 103.415 45.7305C103.283 45.7864 103.143 45.84 103.005 45.8843C102.688 46.0008 102.442 46.3292 102.556 46.6787C102.654 46.9909 103.008 47.2495 103.345 47.1283C104.007 46.893 104.699 46.6088 105.186 46.08C105.435 45.8144 105.629 45.5255 105.657 45.1551C105.673 44.9361 105.629 44.7008 105.556 44.4888C105.247 43.5778 104.622 42.8184 104.075 42.0379C103.872 41.7537 103.509 41.6232 103.194 41.8096C102.914 41.968 102.763 42.4037 102.963 42.6879Z" fill="#6454AB"/>
<mask id="mask7_5527_2963" style="mask-type:alpha" maskUnits="userSpaceOnUse" x="89" y="25" width="9" height="5">
<path fill-rule="evenodd" clip-rule="evenodd" d="M89.5098 25.6328H97.8515V29.9377H89.5098V25.6328Z" fill="white"/>
</mask>
<g mask="url(#mask7_5527_2963)">
<path fill-rule="evenodd" clip-rule="evenodd" d="M96.322 29.664C98.5679 29.1631 98.2511 25.8083 95.9563 25.6615C93.9527 25.538 91.4413 25.7617 90.0831 27.3552C87.5996 30.2674 93.8432 30.1532 96.2522 29.6826C96.2731 29.6733 96.2964 29.671 96.322 29.664Z" fill="#2D2163"/>
</g>
<path fill-rule="evenodd" clip-rule="evenodd" d="M111.433 32.6089C109.856 31.4999 111.179 29.0095 112.998 29.6315C114.587 30.179 116.46 31.1528 117.001 32.8232C117.986 35.8728 113.194 33.783 111.482 32.6438C111.468 32.6322 111.449 32.6182 111.433 32.6089Z" fill="#2D2163"/>
<mask id="mask8_5527_2963" style="mask-type:alpha" maskUnits="userSpaceOnUse" x="90" y="46" width="13" height="8">
<path fill-rule="evenodd" clip-rule="evenodd" d="M90.627 46.7285H102.023V53.5637H90.627V46.7285Z" fill="white"/>
</mask>
<g mask="url(#mask8_5527_2963)">
<path fill-rule="evenodd" clip-rule="evenodd" d="M91.2377 46.7462C91.4497 46.7159 91.6687 46.7252 91.876 46.7695C92.2045 46.8417 92.5074 46.9978 92.759 47.2168C92.8522 47.2983 92.9524 47.3868 93.0223 47.4917C93.0642 47.5569 93.0828 47.6338 93.1294 47.6967C93.3135 47.9297 93.6117 48.1184 93.8377 48.3047C94.0869 48.5051 94.3362 48.6985 94.5902 48.8872C95.0934 49.2646 95.6152 49.6164 96.1464 49.9495C97.295 50.6624 98.56 51.2844 99.9112 51.3054C100.305 51.3101 100.701 51.2658 101.092 51.3287C101.237 51.352 101.386 51.38 101.5 51.4755C101.658 51.6036 101.843 51.7364 101.952 51.9111C101.968 51.9414 101.971 51.974 101.982 52.0067C102.013 52.0975 102.031 52.1814 102.02 52.2792C102.006 52.419 101.964 52.4982 101.88 52.5984C101.81 52.68 101.749 52.7638 101.67 52.8384C101.514 52.9851 101.337 53.1016 101.146 53.1948C101.022 53.2554 100.894 53.3066 100.762 53.3486C100.307 53.493 99.8227 53.5443 99.3451 53.5629C99.2123 53.5676 99.0772 53.5606 98.9467 53.5443C98.8908 53.5396 98.8326 53.5373 98.7767 53.5163C98.7464 53.5047 98.7184 53.486 98.6835 53.479C98.5763 53.4511 98.4552 53.4627 98.3433 53.4511C98.1104 53.4278 97.882 53.3859 97.6561 53.3299C97.1971 53.2158 96.7545 53.048 96.3235 52.8593C96.0066 52.7196 95.6944 52.5705 95.3823 52.4214C94.709 52.0929 94.0287 51.762 93.4719 51.2635C93.3391 51.147 93.2179 51.0212 93.0945 50.8977L92.554 50.3479C92.4655 50.257 92.3746 50.1639 92.2861 50.073C92.2022 49.9891 92.095 49.9053 92.0298 49.8074C91.9716 49.7212 91.883 49.6536 91.8108 49.5768C91.7316 49.4976 91.6547 49.4137 91.5778 49.3252C91.4334 49.1597 91.2983 48.9827 91.1771 48.7963C90.9605 48.4725 90.7787 48.116 90.6762 47.7386C90.5295 47.1865 90.7088 46.8184 91.2377 46.7462Z" fill="#2D2163"/>
</g>
<path fill-rule="evenodd" clip-rule="evenodd" d="M97.4299 38.604C97.4299 38.604 98.0263 41.2365 96.0764 40.5935C94.1287 39.9482 87.3516 37.8934 87.3516 37.8934C87.3516 37.8934 90.7995 32.3533 97.4299 38.604Z" fill="white"/>
<path fill-rule="evenodd" clip-rule="evenodd" d="M98.1468 37.8663C98.1165 37.7964 98.0979 37.7218 98.0652 37.6496C96.2574 33.724 90.8827 33.5772 87.5885 35.5156C87.3555 35.653 87.1086 35.7649 86.8686 35.886C86.8174 35.914 86.7568 35.9419 86.6985 35.9373C86.6543 35.9326 86.6147 35.9116 86.5774 35.8907C86.3724 35.7742 86.1907 35.6158 85.974 35.5249C85.7597 35.434 85.4824 35.4224 85.31 35.5808C85.126 35.7485 85.126 36.0537 85.2425 36.2727C85.3426 36.4638 85.5011 36.5803 85.6572 36.7224C85.7131 36.776 85.748 36.8365 85.7993 36.8948C86.1161 37.2559 86.6007 37.5564 87.0061 37.8103C87.1109 37.8733 87.2181 37.9362 87.3369 37.9525C87.5396 37.9851 87.7329 37.8779 87.8983 37.7568C88.7976 37.0905 89.3241 36.303 90.4494 35.9093C91.0388 35.7043 91.8705 35.5645 92.4506 35.8697C92.2479 36.8994 91.2927 38.0596 90.7779 38.9915L96.6767 40.825C96.6767 40.825 98.9645 39.7161 98.1468 37.8663Z" fill="#2A0752"/>
<path fill-rule="evenodd" clip-rule="evenodd" d="M115.416 42.6305L105.941 41.6987C105.941 41.6987 109.59 36.8365 113.259 38.2926C116.928 39.751 115.416 42.6305 115.416 42.6305Z" fill="white"/>
<path fill-rule="evenodd" clip-rule="evenodd" d="M114.542 37.888C113.252 37.224 111.686 36.9864 110.246 37.0959C108.213 37.252 106.048 38.1862 105.158 40.1362C104.984 40.5183 104.944 40.9842 105.156 41.3407C105.366 41.7018 105.874 41.8928 106.23 41.6738C106.384 41.5783 106.491 41.4199 106.593 41.2708C107.63 39.7378 109.895 37.8764 111.889 38.7384C111.588 39.8753 110.619 41.0494 110.069 42.1048C110.069 42.1048 115.409 42.6337 115.425 42.6337C115.465 42.6383 115.586 42.5125 115.616 42.4869C115.787 42.3448 115.943 42.1817 116.071 42.0023C116.234 41.7786 116.301 41.5503 116.404 41.3011C116.42 41.2591 116.434 41.2312 116.462 41.1962C116.639 40.9935 116.877 40.8351 117.056 40.6278C117.212 40.453 117.357 40.2597 117.413 40.0314C117.471 39.803 117.42 39.5375 117.24 39.3884C116.956 39.1507 116.53 39.3068 116.197 39.4722C116.241 39.4513 115.894 39.0832 115.873 39.0622C115.735 38.9271 115.605 38.785 115.472 38.6428C115.197 38.3493 114.904 38.0744 114.542 37.888Z" fill="#2A0752"/>
</svg>
