<svg  viewBox="0 0 442 350" fill="none" xmlns="http://www.w3.org/2000/svg">
<path fill-rule="evenodd" clip-rule="evenodd" d="M-54 -73C-54 63.9667 57.0333 175 194 175C57.0333 175 -54 286.035 -54 423H-24.24C-24.24 302.47 73.4693 204.76 194 204.76C314.53 204.76 412.24 302.47 412.24 423H442C442 286.035 330.965 175 194 175C330.965 175 442 63.9667 442 -73H412.24C412.24 47.5307 314.53 145.24 194 145.24C73.4693 145.24 -24.24 47.5307 -24.24 -73H-54ZM5.52 -73C5.52 31.0945 89.9055 115.48 194 115.48C298.096 115.48 382.48 31.0945 382.48 -73H352.72C352.72 14.6586 281.658 85.72 194 85.72C106.341 85.72 35.28 14.6586 35.28 -73H5.52ZM65.04 -73C65.04 -1.77737 122.777 55.96 194 55.96C265.223 55.96 322.96 -1.77737 322.96 -73H293.2C293.2 -18.2133 248.786 26.2 194 26.2C139.213 26.2 94.8 -18.2133 94.8 -73H65.04ZM194 234.52C298.096 234.52 382.48 318.904 382.48 423H352.72C352.72 335.342 281.658 264.28 194 264.28C106.341 264.28 35.28 335.342 35.28 423H5.52C5.52 318.904 89.9055 234.52 194 234.52ZM194 294.04C265.223 294.04 322.96 351.777 322.96 423H293.2C293.2 368.214 248.786 323.8 194 323.8C139.213 323.8 94.8 368.214 94.8 423H65.04C65.04 351.777 122.777 294.04 194 294.04Z" fill="white" fill-opacity="0.19"/>
</svg>
