<svg viewBox="0 0 156 277" fill="none" xmlns="http://www.w3.org/2000/svg">
<path fill-rule="evenodd" clip-rule="evenodd" d="M0.923096 0.653809C0.923096 77.3201 62.9144 139.47 139.385 139.47C62.9144 139.47 0.923096 201.621 0.923096 278.287H17.5385C17.5385 210.821 72.0908 156.128 139.385 156.128C206.678 156.128 261.231 210.821 261.231 278.287H277.846C277.846 201.621 215.854 139.47 139.385 139.47C215.854 139.47 277.846 77.3201 277.846 0.653809H261.231C261.231 68.1202 206.678 122.812 139.385 122.812C72.0908 122.812 17.5385 68.1202 17.5385 0.653809H0.923096ZM34.1539 0.653809C34.1539 58.9201 81.2673 106.154 139.385 106.154C197.502 106.154 244.615 58.9201 244.615 0.653809H228C228 49.7202 188.325 89.4964 139.385 89.4964C90.4437 89.4964 50.7692 49.7202 50.7692 0.653809H34.1539ZM67.3846 0.653809C67.3846 40.5203 99.6201 72.8384 139.385 72.8384C179.149 72.8384 211.385 40.5203 211.385 0.653809H194.769C194.769 31.3203 169.972 56.1804 139.385 56.1804C108.797 56.1804 84 31.3203 84 0.653809H67.3846ZM139.385 172.786C197.502 172.786 244.615 220.02 244.615 278.287H228C228 229.221 188.325 189.444 139.385 189.444C90.4437 189.444 50.7692 229.221 50.7692 278.287H34.1539C34.1539 220.02 81.2673 172.786 139.385 172.786ZM139.385 206.102C179.149 206.102 211.385 238.42 211.385 278.287H194.769C194.769 247.621 169.972 222.76 139.385 222.76C108.797 222.76 84 247.621 84 278.287H67.3846C67.3846 238.42 99.6201 206.102 139.385 206.102Z" fill="white" fill-opacity="0.19"/>
</svg>
