<svg width="29" height="16" viewBox="0 0 29 16" fill="none" xmlns="http://www.w3.org/2000/svg">
<path d="M23.5 2H15.5C14.9697 2.00053 14.4613 2.21141 14.0864 2.58637C13.7114 2.96133 13.5005 3.46973 13.5 4V10H2.1V0H0.5V16L2.1 16V11.6H26.9V16L28.5 16V7C28.4984 5.6744 27.8373 4.55734 26.9 3.62C25.9627 2.68266 24.9 2.4 23.5 2ZM26.9 10H14.9V3.62H23.9796C24.775 3.6208 25.5376 4.31712 26.1 4.87956C26.6624 5.44199 26.8992 6.20459 26.9 7V10Z" />
<circle cx="7.70195" cy="4.39971" r="2.45" stroke-width="1.5"/>
</svg>
