<svg viewBox="0 0 20 20" fill="none" xmlns="http://www.w3.org/2000/svg">
<path d="M15.0004 5.96504C14.9504 5.95671 14.8921 5.95671 14.8421 5.96504C13.6921 5.92338 12.7754 4.98171 12.7754 3.81504C12.7754 2.62337 13.7337 1.66504 14.9254 1.66504C16.1171 1.66504 17.0754 2.63171 17.0754 3.81504C17.0671 4.98171 16.1504 5.92338 15.0004 5.96504Z"  stroke-width="1.5" stroke-linecap="round" stroke-linejoin="round"/>
<path d="M14.1461 12.0318C15.2878 12.2235 16.5461 12.0235 17.4294 11.4318C18.6044 10.6485 18.6044 9.36517 17.4294 8.58184C16.5378 7.99017 15.2628 7.79017 14.1211 7.99017" stroke-width="1.5" stroke-linecap="round" stroke-linejoin="round"/>
<path d="M4.97539 5.96504C5.02539 5.95671 5.08372 5.95671 5.13372 5.96504C6.28372 5.92338 7.20039 4.98171 7.20039 3.81504C7.20039 2.62337 6.24206 1.66504 5.05039 1.66504C3.85873 1.66504 2.90039 2.63171 2.90039 3.81504C2.90872 4.98171 3.82539 5.92338 4.97539 5.96504Z"  stroke-width="1.5" stroke-linecap="round" stroke-linejoin="round"/>
<path d="M5.8345 12.0318C4.69284 12.2235 3.43451 12.0235 2.55117 11.4318C1.37617 10.6485 1.37617 9.36517 2.55117 8.58184C3.44284 7.99017 4.71784 7.79017 5.8595 7.99017" stroke-width="1.5" stroke-linecap="round" stroke-linejoin="round"/>
<path d="M9.99258 12.1926C9.94258 12.1842 9.88424 12.1842 9.83424 12.1926C8.68424 12.1509 7.76758 11.2092 7.76758 10.0426C7.76758 8.85091 8.72591 7.89258 9.91758 7.89258C11.1092 7.89258 12.0676 8.85925 12.0676 10.0426C12.0592 11.2092 11.1426 12.1592 9.99258 12.1926Z"  stroke-width="1.5" stroke-linecap="round" stroke-linejoin="round"/>
<path d="M7.5707 14.8158C6.3957 15.5992 6.3957 16.8825 7.5707 17.6658C8.90404 18.5575 11.0874 18.5575 12.4207 17.6658C13.5957 16.8825 13.5957 15.5992 12.4207 14.8158C11.0957 13.9325 8.90404 13.9325 7.5707 14.8158Z" stroke-width="1.5" stroke-linecap="round" stroke-linejoin="round"/>
</svg>
