<svg width="112" height="68" viewBox="0 0 112 68" fill="none" xmlns="http://www.w3.org/2000/svg">
<g clip-path="url(#clip0_0_3)">
<mask id="mask0_0_3" style="mask-type:luminance" maskUnits="userSpaceOnUse" x="0" y="0" width="112" height="68">
<path d="M0 0H112V68H0V0Z" fill="white"/>
</mask>
<g mask="url(#mask0_0_3)">
<path d="M89.597 -21.986L89.452 38.335L119.49 53.947V87.629L-8.089 88.085L0.233003 51.2L25.5 38.335L25.657 -24.434H89.553L89.597 -21.986Z" fill="#CCCCCC" fill-opacity="0.57"/>
<path d="M27.964 -24.277V93.448H87.134V-25.346H27.864L27.964 -24.277Z" fill="#F4F4F4"/>
<path d="M84.222 23.626V26.486C84.222 26.776 83.987 27.009 83.695 27.009H78.835C78.766 27.0094 78.6976 26.9962 78.6338 26.9701C78.5699 26.944 78.5119 26.9055 78.4629 26.8569C78.4139 26.8084 78.375 26.7506 78.3485 26.6869C78.3219 26.6233 78.3081 26.555 78.308 26.486V23.626C78.308 23.336 78.543 23.103 78.835 23.103H79.092V22.113C79.092 21.823 79.327 21.59 79.619 21.59H82.799C83.091 21.59 83.326 21.823 83.326 22.113V23.103H83.696C83.986 23.103 84.222 23.337 84.222 23.626Z" fill="#CCCCCC" fill-opacity="0.57"/>
<path d="M84.222 32.049V34.909C84.222 35.198 83.987 35.432 83.695 35.432H78.835C78.766 35.4324 78.6976 35.4192 78.6338 35.3931C78.5699 35.367 78.5119 35.3285 78.4629 35.2799C78.4139 35.2314 78.375 35.1736 78.3485 35.1099C78.3219 35.0463 78.3081 34.978 78.308 34.909V32.049C78.308 31.759 78.543 31.526 78.835 31.526H79.092V30.536C79.092 30.246 79.327 30.013 79.619 30.013H82.799C83.091 30.013 83.326 30.246 83.326 30.536V31.526H83.696C83.986 31.526 84.222 31.76 84.222 32.049Z" fill="#D94407"/>
<path d="M84.222 40.26V43.12C84.222 43.41 83.987 43.644 83.695 43.644H78.835C78.766 43.6444 78.6976 43.6312 78.6338 43.6051C78.5699 43.579 78.5119 43.5405 78.4629 43.4919C78.4139 43.4433 78.375 43.3856 78.3485 43.3219C78.3219 43.2583 78.3081 43.19 78.308 43.121V40.261C78.308 39.971 78.543 39.738 78.835 39.738H79.092V38.748C79.092 38.458 79.327 38.225 79.619 38.225H82.799C83.091 38.225 83.326 38.458 83.326 38.748V39.738H83.696C83.986 39.738 84.222 39.972 84.222 40.261V40.26ZM84.222 48.529V51.389C84.222 51.677 83.987 51.911 83.695 51.911H78.835C78.766 51.9114 78.6976 51.8982 78.6338 51.8721C78.5699 51.846 78.5119 51.8075 78.4629 51.7589C78.4139 51.7104 78.375 51.6526 78.3485 51.5889C78.3219 51.5253 78.3081 51.457 78.308 51.388V48.528C78.308 48.239 78.543 48.005 78.835 48.005H79.092V47.015C79.092 46.725 79.327 46.492 79.619 46.492H82.799C83.091 46.492 83.326 46.726 83.326 47.015V48.005H83.696C83.986 48.005 84.222 48.24 84.222 48.529ZM84.222 60.936V63.796C84.222 64.085 83.987 64.318 83.695 64.318H78.835C78.766 64.3184 78.6976 64.3052 78.6338 64.2791C78.5699 64.253 78.5119 64.2145 78.4629 64.1659C78.4139 64.1173 78.375 64.0596 78.3485 63.9959C78.3219 63.9323 78.3081 63.864 78.308 63.795V60.935C78.308 60.646 78.543 60.413 78.835 60.413H79.092V59.423C79.092 59.133 79.327 58.899 79.619 58.899H82.799C83.091 58.899 83.326 59.133 83.326 59.422V60.412H83.696C83.986 60.412 84.222 60.646 84.222 60.936ZM84.222 69.27V72.13C84.222 72.419 83.987 72.652 83.695 72.652H78.835C78.766 72.6524 78.6976 72.6392 78.6338 72.6131C78.5699 72.587 78.5119 72.5485 78.4629 72.4999C78.4139 72.4513 78.375 72.3936 78.3485 72.3299C78.3219 72.2663 78.3081 72.198 78.308 72.129V69.269C78.308 68.98 78.543 68.747 78.835 68.747H79.092V67.757C79.092 67.467 79.327 67.233 79.619 67.233H82.799C83.091 67.233 83.326 67.467 83.326 67.756V68.746H83.696C83.986 68.746 84.222 68.98 84.222 69.27ZM84.222 15.77V18.63C84.222 18.919 83.987 19.152 83.695 19.152H78.835C78.766 19.1524 78.6976 19.1392 78.6338 19.1131C78.5699 19.087 78.5119 19.0485 78.4629 18.9999C78.4139 18.9514 78.375 18.8936 78.3485 18.8299C78.3219 18.7663 78.3081 18.698 78.308 18.629V15.769C78.308 15.48 78.543 15.247 78.835 15.247H79.092V14.257C79.092 13.967 79.327 13.733 79.619 13.733H82.799C83.091 13.733 83.326 13.967 83.326 14.256V15.246H83.696C83.986 15.246 84.222 15.48 84.222 15.77ZM84.222 7.502V10.362C84.222 10.652 83.987 10.885 83.695 10.885H78.835C78.766 10.8854 78.6976 10.8722 78.6338 10.8461C78.5699 10.82 78.5119 10.7815 78.4629 10.7329C78.4139 10.6844 78.375 10.6266 78.3485 10.5629C78.3219 10.4993 78.3081 10.431 78.308 10.362V7.502C78.308 7.212 78.543 6.979 78.835 6.979H79.092V5.989C79.092 5.699 79.327 5.466 79.619 5.466H82.799C83.091 5.466 83.326 5.699 83.326 5.989V6.979H83.696C83.986 6.979 84.222 7.213 84.222 7.502ZM84.222 -1.021V1.839C84.222 2.128 83.987 2.361 83.695 2.361H78.835C78.766 2.3614 78.6976 2.34817 78.6338 2.32207C78.5699 2.29598 78.5119 2.25753 78.4629 2.20894C78.4139 2.16035 78.375 2.10257 78.3485 2.03892C78.3219 1.97526 78.3081 1.90698 78.308 1.838V-1.022C78.308 -1.311 78.543 -1.544 78.835 -1.544H79.092V-2.534C79.092 -2.824 79.327 -3.058 79.619 -3.058H82.799C83.091 -3.058 83.326 -2.824 83.326 -2.535V-1.545H83.696C83.986 -1.545 84.222 -1.311 84.222 -1.021ZM76.001 23.626V26.486C76.001 26.776 75.766 27.009 75.475 27.009H70.614C70.5451 27.0093 70.4768 26.9959 70.4131 26.9698C70.3494 26.9436 70.2914 26.9052 70.2425 26.8566C70.1937 26.808 70.1549 26.7503 70.1284 26.6867C70.1018 26.6231 70.0881 26.5549 70.088 26.486V23.626C70.088 23.336 70.323 23.103 70.614 23.103H70.871V22.113C70.871 21.823 71.107 21.59 71.398 21.59H74.578C74.87 21.59 75.105 21.823 75.105 22.113V23.103H75.475C75.765 23.103 76.001 23.337 76.001 23.626Z" fill="#CCCCCC" fill-opacity="0.57"/>
<path d="M76.001 32.049V34.909C76.001 35.198 75.766 35.432 75.475 35.432H70.614C70.5451 35.4323 70.4768 35.4189 70.4131 35.3928C70.3494 35.3666 70.2914 35.3282 70.2425 35.2796C70.1937 35.231 70.1549 35.1733 70.1284 35.1097C70.1018 35.0461 70.0881 34.9779 70.088 34.909V32.049C70.088 31.759 70.323 31.526 70.614 31.526H70.871V30.536C70.871 30.246 71.107 30.013 71.398 30.013H74.578C74.87 30.013 75.105 30.246 75.105 30.536V31.526H75.475C75.765 31.526 76.001 31.76 76.001 32.049Z" fill="#DDDDDD"/>
<path d="M76.001 40.26V43.12C76.001 43.41 75.766 43.644 75.475 43.644H70.614C70.5451 43.6443 70.4768 43.6309 70.4131 43.6048C70.3494 43.5786 70.2914 43.5402 70.2425 43.4916C70.1937 43.443 70.1549 43.3853 70.1284 43.3217C70.1018 43.2581 70.0881 43.1899 70.088 43.121V40.261C70.088 39.971 70.323 39.738 70.614 39.738H70.871V38.748C70.871 38.458 71.107 38.225 71.398 38.225H74.578C74.87 38.225 75.105 38.458 75.105 38.748V39.738H75.475C75.765 39.738 76.001 39.972 76.001 40.261V40.26ZM76.001 48.529V51.389C76.001 51.677 75.766 51.911 75.475 51.911H70.614C70.5451 51.9113 70.4768 51.8979 70.4131 51.8718C70.3494 51.8456 70.2914 51.8072 70.2425 51.7586C70.1937 51.71 70.1549 51.6523 70.1284 51.5887C70.1018 51.5251 70.0881 51.4569 70.088 51.388V48.528C70.088 48.239 70.323 48.005 70.614 48.005H70.871V47.015C70.871 46.725 71.107 46.492 71.398 46.492H74.578C74.87 46.492 75.105 46.726 75.105 47.015V48.005H75.475C75.765 48.005 76.001 48.24 76.001 48.529ZM76.001 60.936V63.796C76.001 64.085 75.766 64.318 75.475 64.318H70.614C70.5451 64.3183 70.4768 64.3049 70.4131 64.2788C70.3494 64.2526 70.2914 64.2142 70.2425 64.1656C70.1937 64.117 70.1549 64.0593 70.1284 63.9957C70.1018 63.9321 70.0881 63.8639 70.088 63.795V60.935C70.088 60.646 70.323 60.413 70.614 60.413H70.871V59.423C70.871 59.133 71.107 58.899 71.398 58.899H74.578C74.87 58.899 75.105 59.133 75.105 59.422V60.412H75.475C75.765 60.412 76.001 60.646 76.001 60.936ZM76.001 69.27V72.13C76.001 72.419 75.766 72.652 75.475 72.652H70.614C70.5451 72.6523 70.4768 72.6389 70.4131 72.6128C70.3494 72.5866 70.2914 72.5482 70.2425 72.4996C70.1937 72.451 70.1549 72.3933 70.1284 72.3297C70.1018 72.2661 70.0881 72.1979 70.088 72.129V69.269C70.088 68.98 70.323 68.747 70.614 68.747H70.871V67.757C70.871 67.467 71.107 67.233 71.398 67.233H74.578C74.87 67.233 75.105 67.467 75.105 67.756V68.746H75.475C75.765 68.746 76.001 68.98 76.001 69.27ZM76.001 15.77V18.63C76.001 18.919 75.766 19.152 75.475 19.152H70.614C70.5451 19.1523 70.4768 19.1389 70.4131 19.1128C70.3494 19.0866 70.2914 19.0482 70.2425 18.9996C70.1937 18.951 70.1549 18.8933 70.1284 18.8297C70.1018 18.7661 70.0881 18.6979 70.088 18.629V15.769C70.088 15.48 70.323 15.247 70.614 15.247H70.871V14.257C70.871 13.967 71.107 13.733 71.398 13.733H74.578C74.87 13.733 75.105 13.967 75.105 14.256V15.246H75.475C75.765 15.246 76.001 15.48 76.001 15.77ZM76.001 7.502V10.362C76.001 10.652 75.766 10.885 75.475 10.885H70.614C70.5451 10.8853 70.4768 10.8719 70.4131 10.8458C70.3494 10.8196 70.2914 10.7812 70.2425 10.7326C70.1937 10.684 70.1549 10.6263 70.1284 10.5627C70.1018 10.4991 70.0881 10.4309 70.088 10.362V7.502C70.088 7.212 70.323 6.979 70.614 6.979H70.871V5.989C70.871 5.699 71.107 5.466 71.398 5.466H74.578C74.87 5.466 75.105 5.699 75.105 5.989V6.979H75.475C75.765 6.979 76.001 7.213 76.001 7.502ZM76.001 -1.021V1.839C76.001 2.128 75.766 2.361 75.475 2.361H70.614C70.5451 2.36126 70.4768 2.34794 70.4131 2.32178C70.3494 2.29563 70.2914 2.25717 70.2425 2.20859C70.1937 2.16001 70.1549 2.10227 70.1284 2.03868C70.1018 1.97509 70.0881 1.9069 70.088 1.838V-1.022C70.088 -1.311 70.323 -1.544 70.614 -1.544H70.871V-2.534C70.871 -2.824 71.107 -3.058 71.398 -3.058H74.578C74.87 -3.058 75.105 -2.824 75.105 -2.535V-1.545H75.475C75.765 -1.545 76.001 -1.311 76.001 -1.021ZM67.579 23.626V26.486C67.579 26.776 67.343 27.009 67.052 27.009H62.192C62.123 27.0094 62.0546 26.9962 61.9908 26.9701C61.9269 26.944 61.8689 26.9055 61.8199 26.8569C61.7709 26.8084 61.732 26.7506 61.7055 26.6869C61.6789 26.6233 61.6651 26.555 61.665 26.486V23.626C61.665 23.336 61.9 23.103 62.191 23.103H62.449V22.113C62.449 21.823 62.684 21.59 62.975 21.59H66.156C66.447 21.59 66.683 21.823 66.683 22.113V23.103H67.053C67.343 23.103 67.579 23.337 67.579 23.626Z" fill="#CCCCCC" fill-opacity="0.57"/>
<path d="M67.579 32.049V34.909C67.579 35.198 67.343 35.432 67.052 35.432H62.192C62.123 35.4324 62.0546 35.4192 61.9908 35.3931C61.9269 35.367 61.8689 35.3285 61.8199 35.2799C61.7709 35.2314 61.732 35.1736 61.7055 35.1099C61.6789 35.0463 61.6651 34.978 61.665 34.909V32.049C61.665 31.759 61.9 31.526 62.191 31.526H62.449V30.536C62.449 30.246 62.684 30.013 62.975 30.013H66.156C66.447 30.013 66.683 30.246 66.683 30.536V31.526H67.053C67.343 31.526 67.579 31.76 67.579 32.049Z" fill="#DDDDDD"/>
<path d="M67.579 40.26V43.12C67.579 43.41 67.343 43.644 67.052 43.644H62.192C62.123 43.6444 62.0546 43.6312 61.9908 43.6051C61.9269 43.579 61.8689 43.5405 61.8199 43.4919C61.7709 43.4433 61.732 43.3856 61.7055 43.3219C61.6789 43.2583 61.6651 43.19 61.665 43.121V40.261C61.665 39.971 61.9 39.738 62.191 39.738H62.449V38.748C62.449 38.458 62.684 38.225 62.975 38.225H66.156C66.447 38.225 66.683 38.458 66.683 38.748V39.738H67.053C67.343 39.738 67.579 39.972 67.579 40.261V40.26ZM67.579 48.529V51.389C67.579 51.677 67.343 51.911 67.052 51.911H62.192C62.123 51.9114 62.0546 51.8982 61.9908 51.8721C61.9269 51.846 61.8689 51.8075 61.8199 51.7589C61.7709 51.7104 61.732 51.6526 61.7055 51.5889C61.6789 51.5253 61.6651 51.457 61.665 51.388V48.528C61.665 48.239 61.9 48.005 62.191 48.005H62.449V47.015C62.449 46.725 62.684 46.492 62.975 46.492H66.156C66.447 46.492 66.683 46.726 66.683 47.015V48.005H67.053C67.343 48.005 67.579 48.24 67.579 48.529ZM67.579 60.936V63.796C67.579 64.085 67.343 64.318 67.052 64.318H62.192C62.123 64.3184 62.0546 64.3052 61.9908 64.2791C61.9269 64.253 61.8689 64.2145 61.8199 64.1659C61.7709 64.1173 61.732 64.0596 61.7055 63.9959C61.6789 63.9323 61.6651 63.864 61.665 63.795V60.935C61.665 60.646 61.9 60.413 62.191 60.413H62.449V59.423C62.449 59.133 62.684 58.899 62.975 58.899H66.156C66.447 58.899 66.683 59.133 66.683 59.422V60.412H67.053C67.343 60.412 67.579 60.646 67.579 60.936ZM67.579 69.27V72.13C67.579 72.419 67.343 72.652 67.052 72.652H62.192C62.123 72.6524 62.0546 72.6392 61.9908 72.6131C61.9269 72.587 61.8689 72.5485 61.8199 72.4999C61.7709 72.4513 61.732 72.3936 61.7055 72.3299C61.6789 72.2663 61.6651 72.198 61.665 72.129V69.269C61.665 68.98 61.9 68.747 62.191 68.747H62.449V67.757C62.449 67.467 62.684 67.233 62.975 67.233H66.156C66.447 67.233 66.683 67.467 66.683 67.756V68.746H67.053C67.343 68.746 67.579 68.98 67.579 69.27ZM67.579 15.77V18.63C67.579 18.919 67.343 19.152 67.052 19.152H62.192C62.123 19.1524 62.0546 19.1392 61.9908 19.1131C61.9269 19.087 61.8689 19.0485 61.8199 18.9999C61.7709 18.9514 61.732 18.8936 61.7055 18.8299C61.6789 18.7663 61.6651 18.698 61.665 18.629V15.769C61.665 15.48 61.9 15.247 62.191 15.247H62.449V14.257C62.449 13.967 62.684 13.733 62.975 13.733H66.156C66.447 13.733 66.683 13.967 66.683 14.256V15.246H67.053C67.343 15.246 67.579 15.48 67.579 15.77ZM67.579 7.502V10.362C67.579 10.652 67.343 10.885 67.052 10.885H62.192C62.123 10.8854 62.0546 10.8722 61.9908 10.8461C61.9269 10.82 61.8689 10.7815 61.8199 10.7329C61.7709 10.6844 61.732 10.6266 61.7055 10.5629C61.6789 10.4993 61.6651 10.431 61.665 10.362V7.502C61.665 7.212 61.9 6.979 62.191 6.979H62.449V5.989C62.449 5.699 62.684 5.466 62.975 5.466H66.156C66.447 5.466 66.683 5.699 66.683 5.989V6.979H67.053C67.343 6.979 67.579 7.213 67.579 7.502ZM67.579 -1.021V1.839C67.579 2.128 67.343 2.361 67.052 2.361H62.192C62.123 2.3614 62.0546 2.34817 61.9908 2.32207C61.9269 2.29598 61.8689 2.25753 61.8199 2.20894C61.7709 2.16035 61.732 2.10257 61.7055 2.03892C61.6789 1.97526 61.6651 1.90698 61.665 1.838V-1.022C61.665 -1.311 61.9 -1.544 62.191 -1.544H62.449V-2.534C62.449 -2.824 62.684 -3.058 62.975 -3.058H66.156C66.447 -3.058 66.683 -2.824 66.683 -2.535V-1.545H67.053C67.343 -1.545 67.579 -1.311 67.579 -1.021ZM53.713 23.626V26.486C53.713 26.776 53.478 27.009 53.187 27.009H48.326C48.257 27.0094 48.1886 26.9962 48.1248 26.9701C48.0609 26.944 48.0029 26.9055 47.9539 26.8569C47.9049 26.8084 47.866 26.7506 47.8395 26.6869C47.8129 26.6233 47.7991 26.555 47.799 26.486V23.626C47.799 23.336 48.035 23.103 48.326 23.103H48.583V22.113C48.583 21.823 48.819 21.59 49.11 21.59H52.29C52.582 21.59 52.817 21.823 52.817 22.113V23.103H53.187C53.477 23.103 53.713 23.337 53.713 23.626Z" fill="#CCCCCC" fill-opacity="0.57"/>
<path d="M53.713 32.049V34.909C53.713 35.198 53.478 35.432 53.187 35.432H48.326C48.257 35.4324 48.1886 35.4192 48.1248 35.3931C48.0609 35.367 48.0029 35.3285 47.9539 35.2799C47.9049 35.2314 47.866 35.1736 47.8395 35.1099C47.8129 35.0463 47.7991 34.978 47.799 34.909V32.049C47.799 31.759 48.035 31.526 48.326 31.526H48.583V30.536C48.583 30.246 48.819 30.013 49.11 30.013H52.29C52.582 30.013 52.817 30.246 52.817 30.536V31.526H53.187C53.477 31.526 53.713 31.76 53.713 32.049Z" fill="#DDDDDD"/>
<path d="M53.713 40.26V43.12C53.713 43.41 53.478 43.644 53.187 43.644H48.326C48.257 43.6444 48.1886 43.6312 48.1248 43.6051C48.0609 43.579 48.0029 43.5405 47.9539 43.4919C47.9049 43.4433 47.866 43.3856 47.8395 43.3219C47.8129 43.2583 47.7991 43.19 47.799 43.121V40.261C47.799 39.971 48.035 39.738 48.326 39.738H48.583V38.748C48.583 38.458 48.819 38.225 49.11 38.225H52.29C52.582 38.225 52.817 38.458 52.817 38.748V39.738H53.187C53.477 39.738 53.713 39.972 53.713 40.261V40.26ZM53.713 48.529V51.389C53.713 51.677 53.478 51.911 53.187 51.911H48.326C48.257 51.9114 48.1886 51.8982 48.1248 51.8721C48.0609 51.846 48.0029 51.8075 47.9539 51.7589C47.9049 51.7104 47.866 51.6526 47.8395 51.5889C47.8129 51.5253 47.7991 51.457 47.799 51.388V48.528C47.799 48.239 48.035 48.005 48.326 48.005H48.583V47.015C48.583 46.725 48.819 46.492 49.11 46.492H52.29C52.582 46.492 52.817 46.726 52.817 47.015V48.005H53.187C53.477 48.005 53.713 48.24 53.713 48.529ZM53.713 60.936V63.796C53.713 64.085 53.478 64.318 53.186 64.318H48.326C48.257 64.3184 48.1886 64.3052 48.1248 64.2791C48.0609 64.253 48.0029 64.2145 47.9539 64.1659C47.9049 64.1173 47.866 64.0596 47.8395 63.9959C47.8129 63.9323 47.7991 63.864 47.799 63.795V60.935C47.799 60.646 48.034 60.413 48.326 60.413H48.583V59.423C48.583 59.133 48.818 58.899 49.11 58.899H52.29C52.582 58.899 52.817 59.133 52.817 59.422V60.412H53.187C53.477 60.412 53.713 60.646 53.713 60.936ZM53.713 69.27V72.13C53.713 72.419 53.478 72.652 53.186 72.652H48.326C48.257 72.6524 48.1886 72.6392 48.1248 72.6131C48.0609 72.587 48.0029 72.5485 47.9539 72.4999C47.9049 72.4513 47.866 72.3936 47.8395 72.3299C47.8129 72.2663 47.7991 72.198 47.799 72.129V69.269C47.799 68.98 48.034 68.747 48.326 68.747H48.583V67.757C48.583 67.467 48.818 67.233 49.11 67.233H52.29C52.582 67.233 52.817 67.467 52.817 67.756V68.746H53.187C53.477 68.746 53.713 68.98 53.713 69.27ZM53.713 15.77V18.63C53.713 18.919 53.478 19.152 53.187 19.152H48.326C48.257 19.1524 48.1886 19.1392 48.1248 19.1131C48.0609 19.087 48.0029 19.0485 47.9539 18.9999C47.9049 18.9514 47.866 18.8936 47.8395 18.8299C47.8129 18.7663 47.7991 18.698 47.799 18.629V15.769C47.799 15.48 48.035 15.247 48.326 15.247H48.583V14.257C48.583 13.967 48.819 13.733 49.11 13.733H52.29C52.582 13.733 52.817 13.967 52.817 14.256V15.246H53.187C53.477 15.246 53.713 15.48 53.713 15.77ZM53.713 7.502V10.362C53.713 10.652 53.478 10.885 53.187 10.885H48.326C48.257 10.8854 48.1886 10.8722 48.1248 10.8461C48.0609 10.82 48.0029 10.7815 47.9539 10.7329C47.9049 10.6844 47.866 10.6266 47.8395 10.5629C47.8129 10.4993 47.7991 10.431 47.799 10.362V7.502C47.799 7.212 48.035 6.979 48.326 6.979H48.583V5.989C48.583 5.699 48.819 5.466 49.11 5.466H52.29C52.582 5.466 52.817 5.699 52.817 5.989V6.979H53.187C53.477 6.979 53.713 7.213 53.713 7.502ZM53.713 -1.021V1.839C53.713 2.128 53.478 2.361 53.186 2.361H48.326C48.257 2.3614 48.1886 2.34817 48.1248 2.32207C48.0609 2.29598 48.0029 2.25753 47.9539 2.20894C47.9049 2.16035 47.866 2.10257 47.8395 2.03892C47.8129 1.97526 47.7991 1.90698 47.799 1.838V-1.022C47.799 -1.311 48.034 -1.544 48.326 -1.544H48.583V-2.534C48.583 -2.824 48.818 -3.058 49.11 -3.058H52.29C52.582 -3.058 52.817 -2.824 52.817 -2.535V-1.545H53.187C53.477 -1.545 53.713 -1.311 53.713 -1.021ZM45.234 23.626V26.486C45.234 26.776 44.999 27.009 44.708 27.009H39.848C39.779 27.0094 39.7106 26.9962 39.6468 26.9701C39.5829 26.944 39.5249 26.9055 39.4759 26.8569C39.4269 26.8084 39.388 26.7506 39.3615 26.6869C39.3349 26.6233 39.3211 26.555 39.321 26.486V23.626C39.321 23.336 39.556 23.103 39.847 23.103H40.105V22.113C40.105 21.823 40.34 21.59 40.631 21.59H43.812C44.103 21.59 44.339 21.823 44.339 22.113V23.103H44.709C44.999 23.103 45.234 23.337 45.234 23.626Z" fill="#CCCCCC" fill-opacity="0.57"/>
<path d="M45.234 32.049V34.909C45.234 35.198 44.999 35.432 44.708 35.432H39.848C39.779 35.4324 39.7106 35.4192 39.6468 35.3931C39.5829 35.367 39.5249 35.3285 39.4759 35.2799C39.4269 35.2314 39.388 35.1736 39.3615 35.1099C39.3349 35.0463 39.3211 34.978 39.321 34.909V32.049C39.321 31.759 39.556 31.526 39.847 31.526H40.105V30.536C40.105 30.246 40.34 30.013 40.631 30.013H43.812C44.103 30.013 44.339 30.246 44.339 30.536V31.526H44.709C44.999 31.526 45.234 31.76 45.234 32.049Z" fill="#DDDDDD"/>
<path d="M45.234 40.26V43.12C45.234 43.41 44.999 43.644 44.708 43.644H39.848C39.779 43.6444 39.7106 43.6312 39.6468 43.6051C39.5829 43.579 39.5249 43.5405 39.4759 43.4919C39.4269 43.4433 39.388 43.3856 39.3615 43.3219C39.3349 43.2583 39.3211 43.19 39.321 43.121V40.261C39.321 39.971 39.556 39.738 39.847 39.738H40.105V38.748C40.105 38.458 40.34 38.225 40.631 38.225H43.812C44.103 38.225 44.339 38.458 44.339 38.748V39.738H44.709C44.999 39.738 45.234 39.972 45.234 40.261V40.26ZM45.234 48.529V51.389C45.234 51.677 44.999 51.911 44.708 51.911H39.848C39.779 51.9114 39.7106 51.8982 39.6468 51.8721C39.5829 51.846 39.5249 51.8075 39.4759 51.7589C39.4269 51.7104 39.388 51.6526 39.3615 51.5889C39.3349 51.5253 39.3211 51.457 39.321 51.388V48.528C39.321 48.239 39.556 48.005 39.847 48.005H40.105V47.015C40.105 46.725 40.34 46.492 40.631 46.492H43.812C44.103 46.492 44.339 46.726 44.339 47.015V48.005H44.709C44.999 48.005 45.234 48.24 45.234 48.529ZM45.234 60.936V63.796C45.234 64.085 44.999 64.318 44.708 64.318H39.848C39.779 64.3184 39.7106 64.3052 39.6468 64.2791C39.5829 64.253 39.5249 64.2145 39.4759 64.1659C39.4269 64.1173 39.388 64.0596 39.3615 63.9959C39.3349 63.9323 39.3211 63.864 39.321 63.795V60.935C39.321 60.646 39.556 60.413 39.847 60.413H40.105V59.423C40.105 59.133 40.34 58.899 40.631 58.899H43.812C44.103 58.899 44.338 59.133 44.338 59.422V60.412H44.708C44.999 60.412 45.234 60.646 45.234 60.936ZM45.234 69.27V72.13C45.234 72.419 44.999 72.652 44.708 72.652H39.848C39.779 72.6524 39.7106 72.6392 39.6468 72.6131C39.5829 72.587 39.5249 72.5485 39.4759 72.4999C39.4269 72.4513 39.388 72.3936 39.3615 72.3299C39.3349 72.2663 39.3211 72.198 39.321 72.129V69.269C39.321 68.98 39.556 68.747 39.847 68.747H40.105V67.757C40.105 67.467 40.34 67.233 40.631 67.233H43.812C44.103 67.233 44.338 67.467 44.338 67.756V68.746H44.708C44.999 68.746 45.234 68.98 45.234 69.27ZM45.234 15.77V18.63C45.234 18.919 44.999 19.152 44.708 19.152H39.848C39.779 19.1524 39.7106 19.1392 39.6468 19.1131C39.5829 19.087 39.5249 19.0485 39.4759 18.9999C39.4269 18.9514 39.388 18.8936 39.3615 18.8299C39.3349 18.7663 39.3211 18.698 39.321 18.629V15.769C39.321 15.48 39.556 15.247 39.847 15.247H40.105V14.257C40.105 13.967 40.34 13.733 40.631 13.733H43.812C44.103 13.733 44.339 13.967 44.339 14.256V15.246H44.709C44.999 15.246 45.234 15.48 45.234 15.77ZM45.234 7.502V10.362C45.234 10.652 44.999 10.885 44.708 10.885H39.848C39.779 10.8854 39.7106 10.8722 39.6468 10.8461C39.5829 10.82 39.5249 10.7815 39.4759 10.7329C39.4269 10.6844 39.388 10.6266 39.3615 10.5629C39.3349 10.4993 39.3211 10.431 39.321 10.362V7.502C39.321 7.212 39.556 6.979 39.847 6.979H40.105V5.989C40.105 5.699 40.34 5.466 40.631 5.466H43.812C44.103 5.466 44.339 5.699 44.339 5.989V6.979H44.709C44.999 6.979 45.234 7.213 45.234 7.502ZM45.234 -1.021V1.839C45.234 2.128 44.999 2.361 44.708 2.361H39.848C39.779 2.3614 39.7106 2.34817 39.6468 2.32207C39.5829 2.29598 39.5249 2.25753 39.4759 2.20894C39.4269 2.16035 39.388 2.10257 39.3615 2.03892C39.3349 1.97526 39.3211 1.90698 39.321 1.838V-1.022C39.321 -1.311 39.556 -1.544 39.847 -1.544H40.105V-2.534C40.105 -2.824 40.34 -3.058 40.631 -3.058H43.812C44.103 -3.058 44.338 -2.824 44.338 -2.535V-1.545H44.708C44.999 -1.545 45.234 -1.311 45.234 -1.021ZM36.812 23.626V26.486C36.812 26.776 36.577 27.009 36.286 27.009H31.425C31.356 27.0094 31.2876 26.9962 31.2238 26.9701C31.1599 26.944 31.1019 26.9055 31.0529 26.8569C31.0039 26.8084 30.965 26.7506 30.9385 26.6869C30.9119 26.6233 30.8981 26.555 30.898 26.486V23.626C30.898 23.336 31.134 23.103 31.425 23.103H31.682V22.113C31.682 21.823 31.918 21.59 32.209 21.59H35.389C35.681 21.59 35.916 21.823 35.916 22.113V23.103H36.286C36.576 23.103 36.812 23.337 36.812 23.626Z" fill="#CCCCCC" fill-opacity="0.57"/>
<path d="M36.812 32.049V34.909C36.812 35.198 36.577 35.432 36.286 35.432H31.425C31.356 35.4324 31.2876 35.4192 31.2238 35.3931C31.1599 35.367 31.1019 35.3285 31.0529 35.2799C31.0039 35.2314 30.965 35.1736 30.9385 35.1099C30.9119 35.0463 30.8981 34.978 30.898 34.909V32.049C30.898 31.759 31.134 31.526 31.425 31.526H31.682V30.536C31.682 30.246 31.918 30.013 32.209 30.013H35.389C35.681 30.013 35.916 30.246 35.916 30.536V31.526H36.286C36.576 31.526 36.812 31.76 36.812 32.049Z" fill="#DDDDDD"/>
<path d="M36.812 40.26V43.12C36.812 43.41 36.577 43.644 36.286 43.644H31.425C31.356 43.6444 31.2876 43.6312 31.2238 43.6051C31.1599 43.579 31.1019 43.5405 31.0529 43.4919C31.0039 43.4433 30.965 43.3856 30.9385 43.3219C30.9119 43.2583 30.8981 43.19 30.898 43.121V40.261C30.898 39.971 31.134 39.738 31.425 39.738H31.682V38.748C31.682 38.458 31.918 38.225 32.209 38.225H35.389C35.681 38.225 35.916 38.458 35.916 38.748V39.738H36.286C36.576 39.738 36.812 39.972 36.812 40.261V40.26ZM36.812 48.529V51.389C36.812 51.677 36.577 51.911 36.286 51.911H31.425C31.356 51.9114 31.2876 51.8982 31.2238 51.8721C31.1599 51.846 31.1019 51.8075 31.0529 51.7589C31.0039 51.7104 30.965 51.6526 30.9385 51.5889C30.9119 51.5253 30.8981 51.457 30.898 51.388V48.528C30.898 48.239 31.134 48.005 31.425 48.005H31.682V47.015C31.682 46.725 31.918 46.492 32.209 46.492H35.389C35.681 46.492 35.916 46.726 35.916 47.015V48.005H36.286C36.576 48.005 36.812 48.24 36.812 48.529ZM36.812 60.936V63.796C36.812 64.085 36.577 64.318 36.286 64.318H31.425C31.356 64.3184 31.2876 64.3052 31.2238 64.2791C31.1599 64.253 31.1019 64.2145 31.0529 64.1659C31.0039 64.1173 30.965 64.0596 30.9385 63.9959C30.9119 63.9323 30.8981 63.864 30.898 63.795V60.935C30.898 60.646 31.134 60.413 31.425 60.413H31.682V59.423C31.682 59.133 31.918 58.899 32.209 58.899H35.389C35.681 58.899 35.916 59.133 35.916 59.422V60.412H36.286C36.576 60.412 36.812 60.646 36.812 60.936ZM36.812 69.27V72.13C36.812 72.419 36.577 72.652 36.286 72.652H31.425C31.356 72.6524 31.2876 72.6392 31.2238 72.6131C31.1599 72.587 31.1019 72.5485 31.0529 72.4999C31.0039 72.4513 30.965 72.3936 30.9385 72.3299C30.9119 72.2663 30.8981 72.198 30.898 72.129V69.269C30.898 68.98 31.134 68.747 31.425 68.747H31.682V67.757C31.682 67.467 31.918 67.233 32.209 67.233H35.389C35.681 67.233 35.916 67.467 35.916 67.756V68.746H36.286C36.576 68.746 36.812 68.98 36.812 69.27ZM36.812 15.77V18.63C36.812 18.919 36.577 19.152 36.286 19.152H31.425C31.356 19.1524 31.2876 19.1392 31.2238 19.1131C31.1599 19.087 31.1019 19.0485 31.0529 18.9999C31.0039 18.9514 30.965 18.8936 30.9385 18.8299C30.9119 18.7663 30.8981 18.698 30.898 18.629V15.769C30.898 15.48 31.134 15.247 31.425 15.247H31.682V14.257C31.682 13.967 31.918 13.733 32.209 13.733H35.389C35.681 13.733 35.916 13.967 35.916 14.256V15.246H36.286C36.576 15.246 36.812 15.48 36.812 15.77ZM36.812 7.502V10.362C36.812 10.652 36.577 10.885 36.286 10.885H31.425C31.356 10.8854 31.2876 10.8722 31.2238 10.8461C31.1599 10.82 31.1019 10.7815 31.0529 10.7329C31.0039 10.6844 30.965 10.6266 30.9385 10.5629C30.9119 10.4993 30.8981 10.431 30.898 10.362V7.502C30.898 7.212 31.134 6.979 31.425 6.979H31.682V5.989C31.682 5.699 31.918 5.466 32.209 5.466H35.389C35.681 5.466 35.916 5.699 35.916 5.989V6.979H36.286C36.576 6.979 36.812 7.213 36.812 7.502ZM36.812 -1.021V1.839C36.812 2.128 36.577 2.361 36.286 2.361H31.425C31.356 2.3614 31.2876 2.34817 31.2238 2.32207C31.1599 2.29598 31.1019 2.25753 31.0529 2.20894C31.0039 2.16035 30.965 2.10257 30.9385 2.03892C30.9119 1.97526 30.8981 1.90698 30.898 1.838V-1.022C30.898 -1.311 31.134 -1.544 31.425 -1.544H31.682V-2.534C31.682 -2.824 31.918 -3.058 32.209 -3.058H35.389C35.681 -3.058 35.916 -2.824 35.916 -2.535V-1.545H36.286C36.576 -1.545 36.812 -1.311 36.812 -1.021Z" fill="#CCCCCC" fill-opacity="0.57"/>
</g>
</g>
<defs>
<clipPath id="clip0_0_3">
<rect width="112" height="68" fill="white"/>
</clipPath>
</defs>
</svg>
