<svg width="112" height="68" viewBox="0 0 112 68" fill="none" xmlns="http://www.w3.org/2000/svg">
<g clip-path="url(#clip0_4297_76126)">
<path d="M89.5975 -21.9856L89.4519 38.3354L119.49 53.9469V87.6292L-8.08887 88.0854L0.232733 51.1985L25.4999 38.3354L25.6567 -24.4336H89.5527L89.5975 -21.9856Z" fill="#CCCCCC" fill-opacity="0.57"/>
<path d="M27.9641 -24.2775V93.4491H87.1337V-25.3457H27.8633L27.9641 -24.2775Z" fill="#F4F4F4"/>
<path d="M84.2218 23.6261V26.4858C84.2218 26.7752 83.9866 27.0088 83.6954 27.0088H78.8346C78.5434 27.0088 78.3082 26.7752 78.3082 26.4858V23.6261C78.3082 23.3368 78.5434 23.1032 78.8346 23.1032H79.0922V22.1128C79.0922 21.8235 79.3274 21.5898 79.6186 21.5898H82.7994C83.0906 21.5898 83.3258 21.8235 83.3258 22.1128V23.1032H83.6954C83.9866 23.1032 84.2218 23.3368 84.2218 23.6261Z" fill="#CCCCCC" fill-opacity="0.57"/>
<path d="M84.2218 32.049V34.9087C84.2218 35.198 83.9866 35.4317 83.6954 35.4317H78.8346C78.5434 35.4317 78.3082 35.198 78.3082 34.9087V32.049C78.3082 31.7597 78.5434 31.526 78.8346 31.526H79.0922V30.5357C79.0922 30.2464 79.3274 30.0127 79.6186 30.0127H82.7994C83.0906 30.0127 83.3258 30.2464 83.3258 30.5357V31.526H83.6954C83.9866 31.526 84.2218 31.7597 84.2218 32.049Z" fill="#D94407"/>
<path d="M84.2218 40.2609V43.1206C84.2218 43.4099 83.9866 43.6436 83.6954 43.6436H78.8346C78.5434 43.6436 78.3082 43.4099 78.3082 43.1206V40.2609C78.3082 39.9716 78.5434 39.7379 78.8346 39.7379H79.0922V38.7476C79.0922 38.4583 79.3274 38.2246 79.6186 38.2246H82.7994C83.0906 38.2246 83.3258 38.4583 83.3258 38.7476V39.7379H83.6954C83.9866 39.7379 84.2218 39.9716 84.2218 40.2609Z" fill="#CCCCCC" fill-opacity="0.57"/>
<path d="M84.2218 48.5285V51.3882C84.2218 51.6775 83.9866 51.9112 83.6954 51.9112H78.8346C78.5434 51.9112 78.3082 51.6775 78.3082 51.3882V48.5285C78.3082 48.2392 78.5434 48.0055 78.8346 48.0055H79.0922V47.0152C79.0922 46.7259 79.3274 46.4922 79.6186 46.4922H82.7994C83.0906 46.4922 83.3258 46.7259 83.3258 47.0152V48.0055H83.6954C83.9866 48.0055 84.2218 48.2392 84.2218 48.5285Z" fill="#CCCCCC" fill-opacity="0.57"/>
<path d="M84.2218 60.9357V63.7954C84.2218 64.0847 83.9866 64.3184 83.6954 64.3184H78.8346C78.5434 64.3184 78.3082 64.0847 78.3082 63.7954V60.9357C78.3082 60.6464 78.5434 60.4127 78.8346 60.4127H79.0922V59.4224C79.0922 59.1331 79.3274 58.8994 79.6186 58.8994H82.7994C83.0906 58.8994 83.3258 59.1331 83.3258 59.4224V60.4127H83.6954C83.9866 60.4127 84.2218 60.6464 84.2218 60.9357Z" fill="#CCCCCC" fill-opacity="0.57"/>
<path d="M84.2218 69.2697V72.1294C84.2218 72.4187 83.9866 72.6524 83.6954 72.6524H78.8346C78.5434 72.6524 78.3082 72.4187 78.3082 72.1294V69.2697C78.3082 68.9804 78.5434 68.7467 78.8346 68.7467H79.0922V67.7564C79.0922 67.4671 79.3274 67.2334 79.6186 67.2334H82.7994C83.0906 67.2334 83.3258 67.4671 83.3258 67.7564V68.7467H83.6954C83.9866 68.7467 84.2218 68.9804 84.2218 69.2697Z" fill="#CCCCCC" fill-opacity="0.57"/>
<path d="M84.2218 15.7697V18.6294C84.2218 18.9187 83.9866 19.1524 83.6954 19.1524H78.8346C78.5434 19.1524 78.3082 18.9187 78.3082 18.6294V15.7697C78.3082 15.4804 78.5434 15.2467 78.8346 15.2467H79.0922V14.2564C79.0922 13.9671 79.3274 13.7334 79.6186 13.7334H82.7994C83.0906 13.7334 83.3258 13.9671 83.3258 14.2564V15.2467H83.6954C83.9866 15.2467 84.2218 15.4804 84.2218 15.7697Z" fill="#CCCCCC" fill-opacity="0.57"/>
<path d="M84.2218 7.50211V10.3618C84.2218 10.6511 83.9866 10.8848 83.6954 10.8848H78.8346C78.5434 10.8848 78.3082 10.6511 78.3082 10.3618V7.50211C78.3082 7.2128 78.5434 6.97913 78.8346 6.97913H79.0922V5.9888C79.0922 5.69949 79.3274 5.46582 79.6186 5.46582H82.7994C83.0906 5.46582 83.3258 5.69949 83.3258 5.9888V6.97913H83.6954C83.9866 6.97913 84.2218 7.2128 84.2218 7.50211Z" fill="#CCCCCC" fill-opacity="0.57"/>
<path d="M84.2218 -1.02133V1.83838C84.2218 2.12769 83.9866 2.36136 83.6954 2.36136H78.8346C78.5434 2.36136 78.3082 2.12769 78.3082 1.83838V-1.02133C78.3082 -1.31063 78.5434 -1.54431 78.8346 -1.54431H79.0922V-2.53464C79.0922 -2.82394 79.3274 -3.05762 79.6186 -3.05762H82.7994C83.0906 -3.05762 83.3258 -2.82394 83.3258 -2.53464V-1.54431H83.6954C83.9866 -1.54431 84.2218 -1.31063 84.2218 -1.02133Z" fill="#CCCCCC" fill-opacity="0.57"/>
<path d="M76.0011 23.6261V26.4858C76.0011 26.7752 75.7659 27.0088 75.4747 27.0088H70.6139C70.3227 27.0088 70.0875 26.7752 70.0875 26.4858V23.6261C70.0875 23.3368 70.3227 23.1032 70.6139 23.1032H70.8715V22.1128C70.8715 21.8235 71.1067 21.5898 71.3979 21.5898H74.5787C74.8699 21.5898 75.1051 21.8235 75.1051 22.1128V23.1032H75.4747C75.7659 23.1032 76.0011 23.3368 76.0011 23.6261Z" fill="#CCCCCC" fill-opacity="0.57"/>
<path d="M76.0011 32.049V34.9087C76.0011 35.198 75.7659 35.4317 75.4747 35.4317H70.6139C70.3227 35.4317 70.0875 35.198 70.0875 34.9087V32.049C70.0875 31.7597 70.3227 31.526 70.6139 31.526H70.8715V30.5357C70.8715 30.2464 71.1067 30.0127 71.3979 30.0127H74.5787C74.8699 30.0127 75.1051 30.2464 75.1051 30.5357V31.526H75.4747C75.7659 31.526 76.0011 31.7597 76.0011 32.049Z" fill="#D94407"/>
<path d="M76.0011 40.2609V43.1206C76.0011 43.4099 75.7659 43.6436 75.4747 43.6436H70.6139C70.3227 43.6436 70.0875 43.4099 70.0875 43.1206V40.2609C70.0875 39.9716 70.3227 39.7379 70.6139 39.7379H70.8715V38.7476C70.8715 38.4583 71.1067 38.2246 71.3979 38.2246H74.5787C74.8699 38.2246 75.1051 38.4583 75.1051 38.7476V39.7379H75.4747C75.7659 39.7379 76.0011 39.9716 76.0011 40.2609Z" fill="#CCCCCC" fill-opacity="0.57"/>
<path d="M76.0011 48.5285V51.3882C76.0011 51.6775 75.7659 51.9112 75.4747 51.9112H70.6139C70.3227 51.9112 70.0875 51.6775 70.0875 51.3882V48.5285C70.0875 48.2392 70.3227 48.0055 70.6139 48.0055H70.8715V47.0152C70.8715 46.7259 71.1067 46.4922 71.3979 46.4922H74.5787C74.8699 46.4922 75.1051 46.7259 75.1051 47.0152V48.0055H75.4747C75.7659 48.0055 76.0011 48.2392 76.0011 48.5285Z" fill="#CCCCCC" fill-opacity="0.57"/>
<path d="M76.0011 60.9357V63.7954C76.0011 64.0847 75.7659 64.3184 75.4747 64.3184H70.6139C70.3227 64.3184 70.0875 64.0847 70.0875 63.7954V60.9357C70.0875 60.6464 70.3227 60.4127 70.6139 60.4127H70.8715V59.4224C70.8715 59.1331 71.1067 58.8994 71.3979 58.8994H74.5787C74.8699 58.8994 75.1051 59.1331 75.1051 59.4224V60.4127H75.4747C75.7659 60.4127 76.0011 60.6464 76.0011 60.9357Z" fill="#CCCCCC" fill-opacity="0.57"/>
<path d="M76.0011 69.2697V72.1294C76.0011 72.4187 75.7659 72.6524 75.4747 72.6524H70.6139C70.3227 72.6524 70.0875 72.4187 70.0875 72.1294V69.2697C70.0875 68.9804 70.3227 68.7467 70.6139 68.7467H70.8715V67.7564C70.8715 67.4671 71.1067 67.2334 71.3979 67.2334H74.5787C74.8699 67.2334 75.1051 67.4671 75.1051 67.7564V68.7467H75.4747C75.7659 68.7467 76.0011 68.9804 76.0011 69.2697Z" fill="#CCCCCC" fill-opacity="0.57"/>
<path d="M76.0011 15.7697V18.6294C76.0011 18.9187 75.7659 19.1524 75.4747 19.1524H70.6139C70.3227 19.1524 70.0875 18.9187 70.0875 18.6294V15.7697C70.0875 15.4804 70.3227 15.2467 70.6139 15.2467H70.8715V14.2564C70.8715 13.9671 71.1067 13.7334 71.3979 13.7334H74.5787C74.8699 13.7334 75.1051 13.9671 75.1051 14.2564V15.2467H75.4747C75.7659 15.2467 76.0011 15.4804 76.0011 15.7697Z" fill="#CCCCCC" fill-opacity="0.57"/>
<path d="M76.0011 7.50211V10.3618C76.0011 10.6511 75.7659 10.8848 75.4747 10.8848H70.6139C70.3227 10.8848 70.0875 10.6511 70.0875 10.3618V7.50211C70.0875 7.2128 70.3227 6.97913 70.6139 6.97913H70.8715V5.9888C70.8715 5.69949 71.1067 5.46582 71.3979 5.46582H74.5787C74.8699 5.46582 75.1051 5.69949 75.1051 5.9888V6.97913H75.4747C75.7659 6.97913 76.0011 7.2128 76.0011 7.50211Z" fill="#CCCCCC" fill-opacity="0.57"/>
<path d="M76.0011 -1.02133V1.83838C76.0011 2.12769 75.7659 2.36136 75.4747 2.36136H70.6139C70.3227 2.36136 70.0875 2.12769 70.0875 1.83838V-1.02133C70.0875 -1.31063 70.3227 -1.54431 70.6139 -1.54431H70.8715V-2.53464C70.8715 -2.82394 71.1067 -3.05762 71.3979 -3.05762H74.5787C74.8699 -3.05762 75.1051 -2.82394 75.1051 -2.53464V-1.54431H75.4747C75.7659 -1.54431 76.0011 -1.31063 76.0011 -1.02133Z" fill="#CCCCCC" fill-opacity="0.57"/>
<path d="M67.5786 23.6261V26.4858C67.5786 26.7752 67.3434 27.0088 67.0522 27.0088H62.1914C61.9002 27.0088 61.665 26.7752 61.665 26.4858V23.6261C61.665 23.3368 61.9002 23.1032 62.1914 23.1032H62.449V22.1128C62.449 21.8235 62.6842 21.5898 62.9754 21.5898H66.1562C66.4474 21.5898 66.6826 21.8235 66.6826 22.1128V23.1032H67.0522C67.3434 23.1032 67.5786 23.3368 67.5786 23.6261Z" fill="#CCCCCC" fill-opacity="0.57"/>
<path d="M67.5786 32.049V34.9087C67.5786 35.198 67.3434 35.4317 67.0522 35.4317H62.1914C61.9002 35.4317 61.665 35.198 61.665 34.9087V32.049C61.665 31.7597 61.9002 31.526 62.1914 31.526H62.449V30.5357C62.449 30.2464 62.6842 30.0127 62.9754 30.0127H66.1562C66.4474 30.0127 66.6826 30.2464 66.6826 30.5357V31.526H67.0522C67.3434 31.526 67.5786 31.7597 67.5786 32.049Z" fill="#D94407"/>
<path d="M67.5786 40.2609V43.1206C67.5786 43.4099 67.3434 43.6436 67.0522 43.6436H62.1914C61.9002 43.6436 61.665 43.4099 61.665 43.1206V40.2609C61.665 39.9716 61.9002 39.7379 62.1914 39.7379H62.449V38.7476C62.449 38.4583 62.6842 38.2246 62.9754 38.2246H66.1562C66.4474 38.2246 66.6826 38.4583 66.6826 38.7476V39.7379H67.0522C67.3434 39.7379 67.5786 39.9716 67.5786 40.2609Z" fill="#CCCCCC" fill-opacity="0.57"/>
<path d="M67.5786 48.5285V51.3882C67.5786 51.6775 67.3434 51.9112 67.0522 51.9112H62.1914C61.9002 51.9112 61.665 51.6775 61.665 51.3882V48.5285C61.665 48.2392 61.9002 48.0055 62.1914 48.0055H62.449V47.0152C62.449 46.7259 62.6842 46.4922 62.9754 46.4922H66.1562C66.4474 46.4922 66.6826 46.7259 66.6826 47.0152V48.0055H67.0522C67.3434 48.0055 67.5786 48.2392 67.5786 48.5285Z" fill="#CCCCCC" fill-opacity="0.57"/>
<path d="M67.5786 60.9357V63.7954C67.5786 64.0847 67.3434 64.3184 67.0522 64.3184H62.1914C61.9002 64.3184 61.665 64.0847 61.665 63.7954V60.9357C61.665 60.6464 61.9002 60.4127 62.1914 60.4127H62.449V59.4224C62.449 59.1331 62.6842 58.8994 62.9754 58.8994H66.1562C66.4474 58.8994 66.6826 59.1331 66.6826 59.4224V60.4127H67.0522C67.3434 60.4127 67.5786 60.6464 67.5786 60.9357Z" fill="#CCCCCC" fill-opacity="0.57"/>
<path d="M67.5786 69.2697V72.1294C67.5786 72.4187 67.3434 72.6524 67.0522 72.6524H62.1914C61.9002 72.6524 61.665 72.4187 61.665 72.1294V69.2697C61.665 68.9804 61.9002 68.7467 62.1914 68.7467H62.449V67.7564C62.449 67.4671 62.6842 67.2334 62.9754 67.2334H66.1562C66.4474 67.2334 66.6826 67.4671 66.6826 67.7564V68.7467H67.0522C67.3434 68.7467 67.5786 68.9804 67.5786 69.2697Z" fill="#CCCCCC" fill-opacity="0.57"/>
<path d="M67.5786 15.7697V18.6294C67.5786 18.9187 67.3434 19.1524 67.0522 19.1524H62.1914C61.9002 19.1524 61.665 18.9187 61.665 18.6294V15.7697C61.665 15.4804 61.9002 15.2467 62.1914 15.2467H62.449V14.2564C62.449 13.9671 62.6842 13.7334 62.9754 13.7334H66.1562C66.4474 13.7334 66.6826 13.9671 66.6826 14.2564V15.2467H67.0522C67.3434 15.2467 67.5786 15.4804 67.5786 15.7697Z" fill="#CCCCCC" fill-opacity="0.57"/>
<path d="M67.5786 7.50211V10.3618C67.5786 10.6511 67.3434 10.8848 67.0522 10.8848H62.1914C61.9002 10.8848 61.665 10.6511 61.665 10.3618V7.50211C61.665 7.2128 61.9002 6.97913 62.1914 6.97913H62.449V5.9888C62.449 5.69949 62.6842 5.46582 62.9754 5.46582H66.1562C66.4474 5.46582 66.6826 5.69949 66.6826 5.9888V6.97913H67.0522C67.3434 6.97913 67.5786 7.2128 67.5786 7.50211Z" fill="#CCCCCC" fill-opacity="0.57"/>
<path d="M67.5786 -1.02133V1.83838C67.5786 2.12769 67.3434 2.36136 67.0522 2.36136H62.1914C61.9002 2.36136 61.665 2.12769 61.665 1.83838V-1.02133C61.665 -1.31063 61.9002 -1.54431 62.1914 -1.54431H62.449V-2.53464C62.449 -2.82394 62.6842 -3.05762 62.9754 -3.05762H66.1562C66.4474 -3.05762 66.6826 -2.82394 66.6826 -2.53464V-1.54431H67.0522C67.3434 -1.54431 67.5786 -1.31063 67.5786 -1.02133Z" fill="#CCCCCC" fill-opacity="0.57"/>
<path d="M53.7129 23.6261V26.4858C53.7129 26.7752 53.4777 27.0088 53.1865 27.0088H48.3257C48.0345 27.0088 47.7993 26.7752 47.7993 26.4858V23.6261C47.7993 23.3368 48.0345 23.1032 48.3257 23.1032H48.5833V22.1128C48.5833 21.8235 48.8185 21.5898 49.1097 21.5898H52.2905C52.5817 21.5898 52.8169 21.8235 52.8169 22.1128V23.1032H53.1865C53.4777 23.1032 53.7129 23.3368 53.7129 23.6261Z" fill="#CCCCCC" fill-opacity="0.57"/>
<path d="M53.7129 32.049V34.9087C53.7129 35.198 53.4777 35.4317 53.1865 35.4317H48.3257C48.0345 35.4317 47.7993 35.198 47.7993 34.9087V32.049C47.7993 31.7597 48.0345 31.526 48.3257 31.526H48.5833V30.5357C48.5833 30.2464 48.8185 30.0127 49.1097 30.0127H52.2905C52.5817 30.0127 52.8169 30.2464 52.8169 30.5357V31.526H53.1865C53.4777 31.526 53.7129 31.7597 53.7129 32.049Z" fill="#D94407"/>
<path d="M53.7129 40.2609V43.1206C53.7129 43.4099 53.4777 43.6436 53.1865 43.6436H48.3257C48.0345 43.6436 47.7993 43.4099 47.7993 43.1206V40.2609C47.7993 39.9716 48.0345 39.7379 48.3257 39.7379H48.5833V38.7476C48.5833 38.4583 48.8185 38.2246 49.1097 38.2246H52.2905C52.5817 38.2246 52.8169 38.4583 52.8169 38.7476V39.7379H53.1865C53.4777 39.7379 53.7129 39.9716 53.7129 40.2609Z" fill="#CCCCCC" fill-opacity="0.57"/>
<path d="M53.7129 48.5285V51.3882C53.7129 51.6775 53.4777 51.9112 53.1865 51.9112H48.3257C48.0345 51.9112 47.7993 51.6775 47.7993 51.3882V48.5285C47.7993 48.2392 48.0345 48.0055 48.3257 48.0055H48.5833V47.0152C48.5833 46.7259 48.8185 46.4922 49.1097 46.4922H52.2905C52.5817 46.4922 52.8169 46.7259 52.8169 47.0152V48.0055H53.1865C53.4777 48.0055 53.7129 48.2392 53.7129 48.5285Z" fill="#CCCCCC" fill-opacity="0.57"/>
<path d="M53.7128 60.9357V63.7954C53.7128 64.0847 53.4776 64.3184 53.1864 64.3184H48.3256C48.0344 64.3184 47.7992 64.0847 47.7992 63.7954V60.9357C47.7992 60.6464 48.0344 60.4127 48.3256 60.4127H48.5832V59.4224C48.5832 59.1331 48.8184 58.8994 49.1096 58.8994H52.2904C52.5816 58.8994 52.8168 59.1331 52.8168 59.4224V60.4127H53.1864C53.4776 60.4127 53.7128 60.6464 53.7128 60.9357Z" fill="#CCCCCC" fill-opacity="0.57"/>
<path d="M53.7128 69.2697V72.1294C53.7128 72.4187 53.4776 72.6524 53.1864 72.6524H48.3256C48.0344 72.6524 47.7992 72.4187 47.7992 72.1294V69.2697C47.7992 68.9804 48.0344 68.7467 48.3256 68.7467H48.5832V67.7564C48.5832 67.4671 48.8184 67.2334 49.1096 67.2334H52.2904C52.5816 67.2334 52.8168 67.4671 52.8168 67.7564V68.7467H53.1864C53.4776 68.7467 53.7128 68.9804 53.7128 69.2697Z" fill="#CCCCCC" fill-opacity="0.57"/>
<path d="M53.7129 15.7697V18.6294C53.7129 18.9187 53.4777 19.1524 53.1865 19.1524H48.3257C48.0345 19.1524 47.7993 18.9187 47.7993 18.6294V15.7697C47.7993 15.4804 48.0345 15.2467 48.3257 15.2467H48.5833V14.2564C48.5833 13.9671 48.8185 13.7334 49.1097 13.7334H52.2905C52.5817 13.7334 52.8169 13.9671 52.8169 14.2564V15.2467H53.1865C53.4777 15.2467 53.7129 15.4804 53.7129 15.7697Z" fill="#CCCCCC" fill-opacity="0.57"/>
<path d="M53.7129 7.50211V10.3618C53.7129 10.6511 53.4777 10.8848 53.1865 10.8848H48.3257C48.0345 10.8848 47.7993 10.6511 47.7993 10.3618V7.50211C47.7993 7.2128 48.0345 6.97913 48.3257 6.97913H48.5833V5.9888C48.5833 5.69949 48.8185 5.46582 49.1097 5.46582H52.2905C52.5817 5.46582 52.8169 5.69949 52.8169 5.9888V6.97913H53.1865C53.4777 6.97913 53.7129 7.2128 53.7129 7.50211Z" fill="#CCCCCC" fill-opacity="0.57"/>
<path d="M53.7128 -1.02133V1.83838C53.7128 2.12769 53.4776 2.36136 53.1864 2.36136H48.3256C48.0344 2.36136 47.7992 2.12769 47.7992 1.83838V-1.02133C47.7992 -1.31063 48.0344 -1.54431 48.3256 -1.54431H48.5832V-2.53464C48.5832 -2.82394 48.8184 -3.05762 49.1096 -3.05762H52.2904C52.5816 -3.05762 52.8168 -2.82394 52.8168 -2.53464V-1.54431H53.1864C53.4776 -1.54431 53.7128 -1.31063 53.7128 -1.02133Z" fill="#CCCCCC" fill-opacity="0.57"/>
<path d="M45.2345 23.6261V26.4858C45.2345 26.7752 44.9993 27.0088 44.7081 27.0088H39.8473C39.5561 27.0088 39.3209 26.7752 39.3209 26.4858V23.6261C39.3209 23.3368 39.5561 23.1032 39.8473 23.1032H40.1049V22.1128C40.1049 21.8235 40.3401 21.5898 40.6313 21.5898H43.8121C44.1033 21.5898 44.3385 21.8235 44.3385 22.1128V23.1032H44.7081C44.9993 23.1032 45.2345 23.3368 45.2345 23.6261Z" fill="#CCCCCC" fill-opacity="0.57"/>
<path d="M45.2345 32.049V34.9087C45.2345 35.198 44.9993 35.4317 44.7081 35.4317H39.8473C39.5561 35.4317 39.3209 35.198 39.3209 34.9087V32.049C39.3209 31.7597 39.5561 31.526 39.8473 31.526H40.1049V30.5357C40.1049 30.2464 40.3401 30.0127 40.6313 30.0127H43.8121C44.1033 30.0127 44.3385 30.2464 44.3385 30.5357V31.526H44.7081C44.9993 31.526 45.2345 31.7597 45.2345 32.049Z" fill="#D94407"/>
<path d="M45.2345 40.2609V43.1206C45.2345 43.4099 44.9993 43.6436 44.7081 43.6436H39.8473C39.5561 43.6436 39.3209 43.4099 39.3209 43.1206V40.2609C39.3209 39.9716 39.5561 39.7379 39.8473 39.7379H40.1049V38.7476C40.1049 38.4583 40.3401 38.2246 40.6313 38.2246H43.8121C44.1033 38.2246 44.3385 38.4583 44.3385 38.7476V39.7379H44.7081C44.9993 39.7379 45.2345 39.9716 45.2345 40.2609Z" fill="#CCCCCC" fill-opacity="0.57"/>
<path d="M45.2345 48.5285V51.3882C45.2345 51.6775 44.9993 51.9112 44.7081 51.9112H39.8473C39.5561 51.9112 39.3209 51.6775 39.3209 51.3882V48.5285C39.3209 48.2392 39.5561 48.0055 39.8473 48.0055H40.1049V47.0152C40.1049 46.7259 40.3401 46.4922 40.6313 46.4922H43.8121C44.1033 46.4922 44.3385 46.7259 44.3385 47.0152V48.0055H44.7081C44.9993 48.0055 45.2345 48.2392 45.2345 48.5285Z" fill="#CCCCCC" fill-opacity="0.57"/>
<path d="M45.2344 60.9357V63.7954C45.2344 64.0847 44.9992 64.3184 44.708 64.3184H39.8472C39.556 64.3184 39.3208 64.0847 39.3208 63.7954V60.9357C39.3208 60.6464 39.556 60.4127 39.8472 60.4127H40.1048V59.4224C40.1048 59.1331 40.34 58.8994 40.6312 58.8994H43.812C44.1032 58.8994 44.3384 59.1331 44.3384 59.4224V60.4127H44.708C44.9992 60.4127 45.2344 60.6464 45.2344 60.9357Z" fill="#CCCCCC" fill-opacity="0.57"/>
<path d="M45.2344 69.2697V72.1294C45.2344 72.4187 44.9992 72.6524 44.708 72.6524H39.8472C39.556 72.6524 39.3208 72.4187 39.3208 72.1294V69.2697C39.3208 68.9804 39.556 68.7467 39.8472 68.7467H40.1048V67.7564C40.1048 67.4671 40.34 67.2334 40.6312 67.2334H43.812C44.1032 67.2334 44.3384 67.4671 44.3384 67.7564V68.7467H44.708C44.9992 68.7467 45.2344 68.9804 45.2344 69.2697Z" fill="#CCCCCC" fill-opacity="0.57"/>
<path d="M45.2345 15.7697V18.6294C45.2345 18.9187 44.9993 19.1524 44.7081 19.1524H39.8473C39.5561 19.1524 39.3209 18.9187 39.3209 18.6294V15.7697C39.3209 15.4804 39.5561 15.2467 39.8473 15.2467H40.1049V14.2564C40.1049 13.9671 40.3401 13.7334 40.6313 13.7334H43.8121C44.1033 13.7334 44.3385 13.9671 44.3385 14.2564V15.2467H44.7081C44.9993 15.2467 45.2345 15.4804 45.2345 15.7697Z" fill="#CCCCCC" fill-opacity="0.57"/>
<path d="M45.2345 7.50211V10.3618C45.2345 10.6511 44.9993 10.8848 44.7081 10.8848H39.8473C39.5561 10.8848 39.3209 10.6511 39.3209 10.3618V7.50211C39.3209 7.2128 39.5561 6.97913 39.8473 6.97913H40.1049V5.9888C40.1049 5.69949 40.3401 5.46582 40.6313 5.46582H43.8121C44.1033 5.46582 44.3385 5.69949 44.3385 5.9888V6.97913H44.7081C44.9993 6.97913 45.2345 7.2128 45.2345 7.50211Z" fill="#CCCCCC" fill-opacity="0.57"/>
<path d="M45.2344 -1.02133V1.83838C45.2344 2.12769 44.9992 2.36136 44.708 2.36136H39.8472C39.556 2.36136 39.3208 2.12769 39.3208 1.83838V-1.02133C39.3208 -1.31063 39.556 -1.54431 39.8472 -1.54431H40.1048V-2.53464C40.1048 -2.82394 40.34 -3.05762 40.6312 -3.05762H43.812C44.1032 -3.05762 44.3384 -2.82394 44.3384 -2.53464V-1.54431H44.708C44.9992 -1.54431 45.2344 -1.31063 45.2344 -1.02133Z" fill="#CCCCCC" fill-opacity="0.57"/>
<path d="M36.812 23.6261V26.4858C36.812 26.7752 36.5768 27.0088 36.2856 27.0088H31.4248C31.1336 27.0088 30.8984 26.7752 30.8984 26.4858V23.6261C30.8984 23.3368 31.1336 23.1032 31.4248 23.1032H31.6824V22.1128C31.6824 21.8235 31.9176 21.5898 32.2088 21.5898H35.3896C35.6808 21.5898 35.916 21.8235 35.916 22.1128V23.1032H36.2856C36.5768 23.1032 36.812 23.3368 36.812 23.6261Z" fill="#CCCCCC" fill-opacity="0.57"/>
<path d="M36.812 32.049V34.9087C36.812 35.198 36.5768 35.4317 36.2856 35.4317H31.4248C31.1336 35.4317 30.8984 35.198 30.8984 34.9087V32.049C30.8984 31.7597 31.1336 31.526 31.4248 31.526H31.6824V30.5357C31.6824 30.2464 31.9176 30.0127 32.2088 30.0127H35.3896C35.6808 30.0127 35.916 30.2464 35.916 30.5357V31.526H36.2856C36.5768 31.526 36.812 31.7597 36.812 32.049Z" fill="#D94407"/>
<path d="M36.812 40.2609V43.1206C36.812 43.4099 36.5768 43.6436 36.2856 43.6436H31.4248C31.1336 43.6436 30.8984 43.4099 30.8984 43.1206V40.2609C30.8984 39.9716 31.1336 39.7379 31.4248 39.7379H31.6824V38.7476C31.6824 38.4583 31.9176 38.2246 32.2088 38.2246H35.3896C35.6808 38.2246 35.916 38.4583 35.916 38.7476V39.7379H36.2856C36.5768 39.7379 36.812 39.9716 36.812 40.2609Z" fill="#CCCCCC" fill-opacity="0.57"/>
<path d="M36.812 48.5285V51.3882C36.812 51.6775 36.5768 51.9112 36.2856 51.9112H31.4248C31.1336 51.9112 30.8984 51.6775 30.8984 51.3882V48.5285C30.8984 48.2392 31.1336 48.0055 31.4248 48.0055H31.6824V47.0152C31.6824 46.7259 31.9176 46.4922 32.2088 46.4922H35.3896C35.6808 46.4922 35.916 46.7259 35.916 47.0152V48.0055H36.2856C36.5768 48.0055 36.812 48.2392 36.812 48.5285Z" fill="#CCCCCC" fill-opacity="0.57"/>
<path d="M36.812 60.9357V63.7954C36.812 64.0847 36.5768 64.3184 36.2856 64.3184H31.4248C31.1336 64.3184 30.8984 64.0847 30.8984 63.7954V60.9357C30.8984 60.6464 31.1336 60.4127 31.4248 60.4127H31.6824V59.4224C31.6824 59.1331 31.9176 58.8994 32.2088 58.8994H35.3896C35.6808 58.8994 35.916 59.1331 35.916 59.4224V60.4127H36.2856C36.5768 60.4127 36.812 60.6464 36.812 60.9357Z" fill="#CCCCCC" fill-opacity="0.57"/>
<path d="M36.812 69.2697V72.1294C36.812 72.4187 36.5768 72.6524 36.2856 72.6524H31.4248C31.1336 72.6524 30.8984 72.4187 30.8984 72.1294V69.2697C30.8984 68.9804 31.1336 68.7467 31.4248 68.7467H31.6824V67.7564C31.6824 67.4671 31.9176 67.2334 32.2088 67.2334H35.3896C35.6808 67.2334 35.916 67.4671 35.916 67.7564V68.7467H36.2856C36.5768 68.7467 36.812 68.9804 36.812 69.2697Z" fill="#CCCCCC" fill-opacity="0.57"/>
<path d="M36.812 15.7697V18.6294C36.812 18.9187 36.5768 19.1524 36.2856 19.1524H31.4248C31.1336 19.1524 30.8984 18.9187 30.8984 18.6294V15.7697C30.8984 15.4804 31.1336 15.2467 31.4248 15.2467H31.6824V14.2564C31.6824 13.9671 31.9176 13.7334 32.2088 13.7334H35.3896C35.6808 13.7334 35.916 13.9671 35.916 14.2564V15.2467H36.2856C36.5768 15.2467 36.812 15.4804 36.812 15.7697Z" fill="#CCCCCC" fill-opacity="0.57"/>
<path d="M36.812 7.50211V10.3618C36.812 10.6511 36.5768 10.8848 36.2856 10.8848H31.4248C31.1336 10.8848 30.8984 10.6511 30.8984 10.3618V7.50211C30.8984 7.2128 31.1336 6.97913 31.4248 6.97913H31.6824V5.9888C31.6824 5.69949 31.9176 5.46582 32.2088 5.46582H35.3896C35.6808 5.46582 35.916 5.69949 35.916 5.9888V6.97913H36.2856C36.5768 6.97913 36.812 7.2128 36.812 7.50211Z" fill="#CCCCCC" fill-opacity="0.57"/>
<path d="M36.812 -1.02133V1.83838C36.812 2.12769 36.5768 2.36136 36.2856 2.36136H31.4248C31.1336 2.36136 30.8984 2.12769 30.8984 1.83838V-1.02133C30.8984 -1.31063 31.1336 -1.54431 31.4248 -1.54431H31.6824V-2.53464C31.6824 -2.82394 31.9176 -3.05762 32.2088 -3.05762H35.3896C35.6808 -3.05762 35.916 -2.82394 35.916 -2.53464V-1.54431H36.2856C36.5768 -1.54431 36.812 -1.31063 36.812 -1.02133Z" fill="#CCCCCC" fill-opacity="0.57"/>
</g>
<defs>
<clipPath id="clip0_4297_76126">
<rect width="112" height="68" fill="white"/>
</clipPath>
</defs>
</svg>
