<svg xmlns="http://www.w3.org/2000/svg" xmlns:xlink="http://www.w3.org/1999/xlink"  zoomAndPan="magnify" viewBox="0 0 75 37.5" preserveAspectRatio="xMidYMid meet" version="1.0"><defs><clipPath id="549addb401"><path d="M 0.492188 7 L 18 7 L 18 22 L 0.492188 22 Z M 0.492188 7 " clip-rule="nonzero"/></clipPath><clipPath id="d6637872d3"><path d="M 71 35 L 74.503906 35 L 74.503906 36.082031 L 71 36.082031 Z M 71 35 " clip-rule="nonzero"/></clipPath><clipPath id="21710f1905"><path d="M 43 1.296875 L 46 1.296875 L 46 4 L 43 4 Z M 43 1.296875 " clip-rule="nonzero"/></clipPath><clipPath id="98357f987c"><path d="M 39 1.296875 L 42 1.296875 L 42 2 L 39 2 Z M 39 1.296875 " clip-rule="nonzero"/></clipPath><clipPath id="ccc3f175ca"><path d="M 7.070312 11.757812 L 7.164062 11.757812 L 7.164062 12.3125 L 7.070312 12.3125 Z M 7.070312 11.757812 " clip-rule="nonzero"/></clipPath><clipPath id="b2886738d6"><path d="M 7.15625 11.769531 C 7.007812 12.953125 7.15625 11.769531 7.15625 11.769531 " clip-rule="nonzero"/></clipPath></defs><g clip-path="url(#549addb401)"><path fill="currentColor" d="M 7.347656 21.195312 L 6.851562 19.066406 L 6.179688 18.808594 C 5.914062 18.707031 5.78125 18.402344 5.882812 18.132812 C 5.980469 17.863281 6.28125 17.730469 6.546875 17.832031 L 6.5625 17.835938 L 6.21875 16.378906 L 5.441406 16.078125 C 5.175781 15.972656 5.042969 15.671875 5.144531 15.402344 C 5.246094 15.132812 5.542969 15 5.808594 15.101562 L 5.933594 15.148438 L 5.4375 13.03125 L 1.464844 11.105469 C 1.441406 11.089844 1.410156 11.074219 1.382812 11.0625 C 0.769531 10.703125 0.554688 9.910156 0.90625 9.289062 C 1.261719 8.664062 2.046875 8.449219 2.664062 8.804688 L 6.484375 11.019531 L 8.644531 10.171875 C 8.414062 10.019531 8.339844 9.707031 8.484375 9.464844 C 8.628906 9.21875 8.949219 9.140625 9.191406 9.289062 L 9.859375 9.695312 L 11.308594 9.125 L 11.242188 9.085938 C 10.996094 8.9375 10.917969 8.613281 11.066406 8.367188 C 11.210938 8.121094 11.53125 8.042969 11.773438 8.191406 L 12.527344 8.648438 L 14.222656 7.984375 C 14.511719 7.871094 14.847656 7.988281 15 8.273438 C 15.164062 8.578125 15.050781 8.964844 14.746094 9.128906 L 8.816406 12.367188 L 14.953125 15.921875 L 16.601562 15.425781 C 16.734375 15.382812 16.882812 15.4375 16.960938 15.5625 C 17.054688 15.710938 17.011719 15.910156 16.863281 16.003906 L 15.351562 16.96875 L 15.347656 16.984375 C 15.335938 17.003906 15.324219 17.027344 15.3125 17.046875 L 15.382812 18.847656 C 15.386719 18.988281 15.300781 19.121094 15.164062 19.167969 C 14.996094 19.222656 14.816406 19.128906 14.761719 18.960938 L 14.234375 17.304688 L 7.859375 14.210938 L 8.582031 20.984375 C 8.613281 21.292969 8.414062 21.589844 8.101562 21.664062 C 7.765625 21.746094 7.429688 21.535156 7.347656 21.195312 " fill-opacity="1" fill-rule="nonzero"/></g><path fill="currentColor" d="M 59.414062 31.816406 L 59.449219 31.824219 C 60.128906 32.054688 60.828125 32.285156 61.527344 32.503906 C 61.574219 32.519531 61.617188 32.554688 61.640625 32.601562 C 61.664062 32.644531 61.667969 32.699219 61.652344 32.746094 C 61.628906 32.828125 61.554688 32.882812 61.472656 32.882812 L 61.445312 32.882812 L 61.414062 32.875 C 60.707031 32.652344 60.003906 32.421875 59.324219 32.1875 C 59.277344 32.171875 59.238281 32.136719 59.214844 32.09375 C 59.191406 32.046875 59.1875 31.992188 59.207031 31.945312 C 59.234375 31.855469 59.320312 31.800781 59.414062 31.816406 " fill-opacity="1" fill-rule="nonzero"/><path fill="currentColor" d="M 62.960938 13.6875 L 62.929688 13.683594 L 62.894531 13.675781 C 62.84375 13.660156 62.808594 13.625 62.785156 13.578125 C 62.761719 13.53125 62.757812 13.480469 62.773438 13.429688 C 63.007812 12.726562 63.164062 12.019531 63.238281 11.324219 C 63.242188 11.269531 63.269531 11.226562 63.308594 11.191406 C 63.347656 11.160156 63.398438 11.144531 63.449219 11.152344 L 63.453125 11.152344 C 63.558594 11.164062 63.628906 11.257812 63.617188 11.363281 C 63.542969 12.085938 63.382812 12.824219 63.136719 13.554688 C 63.109375 13.632812 63.039062 13.683594 62.960938 13.6875 " fill-opacity="1" fill-rule="nonzero"/><path fill="currentColor" d="M 63.621094 33.144531 C 64.316406 33.347656 65.023438 33.546875 65.726562 33.738281 C 65.773438 33.753906 65.816406 33.785156 65.84375 33.828125 C 65.867188 33.875 65.875 33.925781 65.859375 33.976562 C 65.839844 34.058594 65.765625 34.117188 65.679688 34.117188 L 65.648438 34.117188 L 65.625 34.113281 C 64.917969 33.917969 64.207031 33.71875 63.511719 33.515625 C 63.410156 33.484375 63.351562 33.378906 63.382812 33.277344 C 63.410156 33.175781 63.519531 33.113281 63.621094 33.144531 " fill-opacity="1" fill-rule="nonzero"/><path fill="currentColor" d="M 63.40625 9.332031 L 63.378906 9.335938 L 63.347656 9.335938 C 63.265625 9.324219 63.199219 9.257812 63.183594 9.175781 C 63.070312 8.453125 62.851562 7.769531 62.535156 7.136719 C 62.511719 7.089844 62.507812 7.039062 62.523438 6.988281 C 62.542969 6.941406 62.574219 6.898438 62.621094 6.875 C 62.65625 6.859375 62.695312 6.851562 62.734375 6.859375 C 62.796875 6.867188 62.847656 6.90625 62.878906 6.960938 C 63.210938 7.628906 63.441406 8.351562 63.5625 9.113281 C 63.570312 9.164062 63.558594 9.214844 63.53125 9.253906 C 63.5 9.296875 63.457031 9.324219 63.40625 9.332031 " fill-opacity="1" fill-rule="nonzero"/><path fill="currentColor" d="M 67.84375 34.292969 C 68.550781 34.472656 69.265625 34.644531 69.972656 34.808594 C 70.074219 34.832031 70.140625 34.933594 70.117188 35.039062 C 70.097656 35.125 70.019531 35.1875 69.933594 35.1875 L 69.902344 35.1875 L 69.886719 35.183594 C 69.175781 35.019531 68.457031 34.847656 67.75 34.667969 C 67.703125 34.65625 67.660156 34.625 67.632812 34.582031 C 67.605469 34.535156 67.597656 34.484375 67.613281 34.433594 C 67.636719 34.332031 67.738281 34.265625 67.84375 34.292969 " fill-opacity="1" fill-rule="nonzero"/><path fill="currentColor" d="M 61.898438 15.410156 C 61.9375 15.339844 62.011719 15.300781 62.089844 15.3125 C 62.113281 15.316406 62.136719 15.324219 62.15625 15.335938 C 62.25 15.386719 62.28125 15.507812 62.230469 15.601562 C 61.878906 16.234375 61.464844 16.855469 60.996094 17.453125 C 60.957031 17.5 60.90625 17.527344 60.847656 17.527344 L 60.816406 17.527344 C 60.785156 17.519531 60.753906 17.507812 60.726562 17.484375 C 60.683594 17.453125 60.660156 17.40625 60.652344 17.355469 C 60.648438 17.304688 60.664062 17.253906 60.695312 17.214844 C 61.148438 16.632812 61.554688 16.027344 61.898438 15.410156 " fill-opacity="1" fill-rule="nonzero"/><g clip-path="url(#d6637872d3)"><path fill="currentColor" d="M 74.214844 36.015625 Z M 72.109375 35.277344 C 73.472656 35.5625 74.261719 35.695312 74.265625 35.695312 C 74.371094 35.710938 74.441406 35.8125 74.425781 35.917969 C 74.410156 36.007812 74.332031 36.078125 74.238281 36.078125 L 74.207031 36.078125 L 74.195312 36.074219 C 73.992188 36.039062 73.226562 35.90625 72.03125 35.65625 C 71.929688 35.632812 71.863281 35.53125 71.886719 35.425781 C 71.90625 35.324219 72.007812 35.253906 72.109375 35.277344 " fill-opacity="1" fill-rule="nonzero"/></g><path fill="currentColor" d="M 51.949219 23.574219 C 51.269531 23.808594 50.558594 24.019531 49.839844 24.199219 C 49.828125 24.203125 49.8125 24.203125 49.796875 24.203125 L 49.769531 24.203125 C 49.691406 24.191406 49.628906 24.136719 49.609375 24.058594 C 49.597656 24.007812 49.605469 23.957031 49.628906 23.910156 C 49.65625 23.867188 49.699219 23.835938 49.75 23.824219 C 50.457031 23.644531 51.15625 23.4375 51.828125 23.207031 C 51.855469 23.199219 51.886719 23.195312 51.914062 23.199219 C 51.988281 23.207031 52.046875 23.257812 52.070312 23.328125 C 52.105469 23.429688 52.050781 23.539062 51.949219 23.574219 " fill-opacity="1" fill-rule="nonzero"/><path fill="currentColor" d="M 48.816406 7.574219 C 48.785156 7.632812 48.722656 7.667969 48.660156 7.667969 L 48.628906 7.664062 C 48.601562 7.660156 48.578125 7.652344 48.554688 7.640625 C 48.464844 7.582031 48.4375 7.464844 48.492188 7.375 C 48.753906 6.933594 49.195312 6.261719 49.796875 5.5625 C 49.839844 5.511719 49.90625 5.488281 49.96875 5.496094 C 50.003906 5.503906 50.039062 5.519531 50.070312 5.542969 C 50.148438 5.613281 50.15625 5.734375 50.085938 5.816406 C 49.503906 6.492188 49.074219 7.144531 48.816406 7.574219 " fill-opacity="1" fill-rule="nonzero"/><path fill="currentColor" d="M 48.3125 6.773438 L 48.277344 6.777344 L 48.246094 6.777344 C 48.167969 6.765625 48.101562 6.703125 48.085938 6.625 C 47.945312 5.96875 47.640625 5.332031 47.179688 4.734375 C 47.113281 4.648438 47.128906 4.527344 47.210938 4.460938 C 47.253906 4.429688 47.304688 4.417969 47.355469 4.421875 C 47.40625 4.429688 47.449219 4.457031 47.480469 4.496094 C 47.976562 5.140625 48.308594 5.832031 48.460938 6.542969 C 48.480469 6.648438 48.417969 6.75 48.3125 6.773438 " fill-opacity="1" fill-rule="nonzero"/><g clip-path="url(#21710f1905)"><path fill="currentColor" d="M 45.734375 3.3125 L 45.707031 3.3125 C 45.675781 3.308594 45.648438 3.296875 45.625 3.28125 C 45.046875 2.882812 44.410156 2.546875 43.726562 2.289062 C 43.628906 2.253906 43.578125 2.140625 43.617188 2.042969 C 43.648438 1.957031 43.730469 1.90625 43.820312 1.917969 C 43.835938 1.917969 43.847656 1.921875 43.863281 1.929688 C 44.574219 2.195312 45.238281 2.542969 45.839844 2.960938 C 45.925781 3.023438 45.949219 3.140625 45.890625 3.230469 C 45.855469 3.28125 45.796875 3.3125 45.734375 3.3125 " fill-opacity="1" fill-rule="nonzero"/></g><path fill="currentColor" d="M 37.542969 2.5 C 36.929688 2.855469 36.402344 3.328125 35.976562 3.902344 C 35.941406 3.949219 35.886719 3.976562 35.828125 3.980469 L 35.796875 3.976562 C 35.765625 3.972656 35.734375 3.960938 35.710938 3.941406 C 35.625 3.875 35.609375 3.753906 35.671875 3.667969 C 36.128906 3.050781 36.695312 2.546875 37.351562 2.164062 C 37.390625 2.144531 37.433594 2.136719 37.472656 2.140625 C 37.535156 2.148438 37.585938 2.183594 37.613281 2.238281 C 37.667969 2.328125 37.636719 2.449219 37.542969 2.5 " fill-opacity="1" fill-rule="nonzero"/><path fill="currentColor" d="M 57.722656 3.214844 L 57.695312 3.210938 L 57.660156 3.203125 C 56.953125 2.980469 56.246094 2.871094 55.570312 2.878906 C 55.464844 2.882812 55.375 2.785156 55.375 2.675781 C 55.375 2.578125 55.449219 2.46875 55.558594 2.464844 L 55.566406 2.464844 C 55.859375 2.457031 56.167969 2.476562 56.480469 2.519531 C 56.890625 2.578125 57.328125 2.679688 57.773438 2.820312 C 57.824219 2.835938 57.863281 2.871094 57.886719 2.921875 C 57.910156 2.96875 57.914062 3.023438 57.898438 3.074219 C 57.875 3.15625 57.800781 3.210938 57.722656 3.214844 " fill-opacity="1" fill-rule="nonzero"/><path fill="currentColor" d="M 60.105469 4.414062 C 59.9375 4.300781 59.769531 4.195312 59.605469 4.097656 C 59.515625 4.042969 59.484375 3.925781 59.539062 3.832031 C 59.578125 3.765625 59.652344 3.730469 59.726562 3.742188 C 59.753906 3.742188 59.777344 3.753906 59.800781 3.765625 C 59.972656 3.867188 60.144531 3.976562 60.3125 4.09375 C 60.777344 4.398438 61.199219 4.75 61.570312 5.128906 C 61.644531 5.207031 61.644531 5.328125 61.570312 5.402344 C 61.535156 5.4375 61.488281 5.457031 61.4375 5.460938 L 61.410156 5.457031 C 61.367188 5.453125 61.328125 5.433594 61.296875 5.402344 C 60.945312 5.039062 60.542969 4.707031 60.105469 4.414062 " fill-opacity="1" fill-rule="nonzero"/><path fill="currentColor" d="M 47.6875 24.648438 C 46.976562 24.769531 46.246094 24.867188 45.507812 24.9375 L 45.464844 24.9375 C 45.375 24.925781 45.308594 24.851562 45.300781 24.765625 C 45.289062 24.65625 45.367188 24.5625 45.472656 24.550781 C 46.195312 24.484375 46.917969 24.386719 47.625 24.269531 C 47.644531 24.265625 47.664062 24.265625 47.683594 24.265625 C 47.765625 24.277344 47.832031 24.34375 47.84375 24.425781 C 47.863281 24.53125 47.792969 24.632812 47.6875 24.648438 " fill-opacity="1" fill-rule="nonzero"/><path fill="currentColor" d="M 53.5 3.285156 C 52.867188 3.527344 52.242188 3.878906 51.648438 4.332031 C 51.617188 4.355469 51.578125 4.371094 51.535156 4.371094 L 51.507812 4.367188 C 51.457031 4.363281 51.410156 4.335938 51.378906 4.292969 C 51.316406 4.207031 51.332031 4.085938 51.417969 4.023438 C 52.042969 3.546875 52.699219 3.175781 53.367188 2.921875 C 53.394531 2.910156 53.429688 2.90625 53.460938 2.910156 C 53.527344 2.921875 53.585938 2.96875 53.613281 3.035156 C 53.628906 3.085938 53.628906 3.136719 53.609375 3.183594 C 53.585938 3.230469 53.546875 3.265625 53.5 3.285156 " fill-opacity="1" fill-rule="nonzero"/><path fill="currentColor" d="M 34.957031 12.410156 C 34.929688 12.453125 34.882812 12.484375 34.835938 12.492188 L 34.800781 12.496094 L 34.769531 12.496094 C 34.691406 12.484375 34.625 12.421875 34.609375 12.339844 C 34.460938 11.574219 34.355469 10.832031 34.296875 10.136719 C 34.292969 10.085938 34.308594 10.035156 34.339844 9.996094 C 34.375 9.957031 34.417969 9.929688 34.46875 9.925781 C 34.484375 9.925781 34.5 9.925781 34.511719 9.925781 C 34.601562 9.941406 34.671875 10.011719 34.679688 10.101562 C 34.734375 10.785156 34.839844 11.515625 34.984375 12.265625 C 34.996094 12.316406 34.984375 12.367188 34.957031 12.410156 " fill-opacity="1" fill-rule="nonzero"/><path fill="currentColor" d="M 34.90625 5.5625 C 35.007812 5.59375 35.0625 5.703125 35.03125 5.804688 C 34.832031 6.445312 34.707031 7.160156 34.652344 7.925781 C 34.644531 8.027344 34.5625 8.105469 34.464844 8.105469 L 34.433594 8.105469 C 34.335938 8.09375 34.261719 8 34.269531 7.902344 C 34.324219 7.101562 34.460938 6.359375 34.667969 5.691406 C 34.699219 5.589844 34.804688 5.53125 34.90625 5.5625 " fill-opacity="1" fill-rule="nonzero"/><path fill="currentColor" d="M 35.179688 14.351562 C 35.199219 14.304688 35.238281 14.269531 35.289062 14.253906 C 35.316406 14.242188 35.347656 14.242188 35.375 14.246094 C 35.449219 14.253906 35.507812 14.304688 35.53125 14.375 C 35.761719 15.042969 36.046875 15.710938 36.386719 16.363281 C 36.410156 16.410156 36.414062 16.460938 36.398438 16.511719 C 36.386719 16.5625 36.351562 16.601562 36.308594 16.625 C 36.28125 16.640625 36.25 16.648438 36.222656 16.648438 L 36.191406 16.644531 C 36.132812 16.636719 36.078125 16.597656 36.046875 16.542969 C 35.699219 15.875 35.40625 15.1875 35.167969 14.5 C 35.152344 14.453125 35.15625 14.398438 35.179688 14.351562 " fill-opacity="1" fill-rule="nonzero"/><path fill="currentColor" d="M 57.808594 20.53125 C 57.777344 20.554688 57.738281 20.566406 57.699219 20.570312 L 57.667969 20.566406 C 57.617188 20.558594 57.570312 20.53125 57.539062 20.492188 C 57.476562 20.40625 57.496094 20.285156 57.582031 20.21875 C 58.167969 19.78125 58.726562 19.3125 59.238281 18.820312 C 59.28125 18.777344 59.335938 18.761719 59.394531 18.769531 C 59.4375 18.773438 59.476562 18.792969 59.507812 18.828125 C 59.582031 18.902344 59.578125 19.027344 59.5 19.097656 C 58.976562 19.601562 58.410156 20.082031 57.808594 20.53125 " fill-opacity="1" fill-rule="nonzero"/><g clip-path="url(#98357f987c)"><path fill="currentColor" d="M 39.46875 1.425781 C 40.179688 1.308594 40.929688 1.296875 41.703125 1.390625 C 41.804688 1.40625 41.878906 1.503906 41.867188 1.605469 C 41.855469 1.703125 41.777344 1.773438 41.679688 1.777344 L 41.65625 1.773438 C 40.917969 1.683594 40.203125 1.695312 39.53125 1.804688 C 39.511719 1.808594 39.492188 1.808594 39.472656 1.804688 C 39.390625 1.796875 39.324219 1.730469 39.3125 1.644531 C 39.304688 1.59375 39.316406 1.542969 39.34375 1.5 C 39.375 1.460938 39.417969 1.433594 39.46875 1.425781 " fill-opacity="1" fill-rule="nonzero"/></g><path fill="currentColor" d="M 28.3125 22.40625 C 29.015625 22.625 29.71875 22.828125 30.40625 23.015625 C 30.457031 23.03125 30.496094 23.0625 30.523438 23.105469 C 30.546875 23.152344 30.554688 23.203125 30.542969 23.253906 C 30.519531 23.335938 30.445312 23.394531 30.359375 23.394531 L 30.332031 23.394531 L 30.308594 23.390625 C 29.613281 23.203125 28.90625 22.996094 28.203125 22.777344 C 28.152344 22.761719 28.113281 22.726562 28.089844 22.683594 C 28.066406 22.636719 28.058594 22.585938 28.074219 22.535156 C 28.105469 22.433594 28.210938 22.375 28.3125 22.40625 " fill-opacity="1" fill-rule="nonzero"/><path fill="currentColor" d="M 15.976562 17.472656 C 16.015625 17.402344 16.09375 17.359375 16.175781 17.371094 C 16.195312 17.375 16.21875 17.378906 16.234375 17.390625 C 16.886719 17.726562 17.546875 18.050781 18.191406 18.363281 C 18.238281 18.386719 18.273438 18.425781 18.289062 18.472656 C 18.304688 18.523438 18.300781 18.574219 18.28125 18.621094 C 18.25 18.6875 18.183594 18.730469 18.113281 18.730469 L 18.082031 18.730469 C 18.0625 18.726562 18.042969 18.722656 18.027344 18.714844 C 17.378906 18.402344 16.71875 18.070312 16.0625 17.734375 C 15.96875 17.6875 15.929688 17.570312 15.976562 17.472656 " fill-opacity="1" fill-rule="nonzero"/><path fill="currentColor" d="M 20.117188 19.273438 C 20.132812 19.277344 20.152344 19.28125 20.167969 19.289062 C 20.832031 19.589844 21.507812 19.882812 22.171875 20.160156 C 22.21875 20.179688 22.253906 20.21875 22.273438 20.265625 C 22.292969 20.3125 22.292969 20.367188 22.273438 20.414062 C 22.246094 20.484375 22.175781 20.53125 22.101562 20.53125 L 22.070312 20.53125 C 22.054688 20.527344 22.039062 20.523438 22.023438 20.519531 C 21.367188 20.242188 20.691406 19.949219 20.011719 19.644531 C 19.964844 19.621094 19.929688 19.582031 19.910156 19.535156 C 19.894531 19.488281 19.894531 19.433594 19.917969 19.386719 C 19.949219 19.308594 20.03125 19.261719 20.117188 19.273438 " fill-opacity="1" fill-rule="nonzero"/><path fill="currentColor" d="M 24.152344 20.964844 C 24.167969 20.964844 24.179688 20.96875 24.195312 20.972656 C 24.882812 21.238281 25.574219 21.492188 26.242188 21.726562 C 26.34375 21.757812 26.394531 21.871094 26.363281 21.972656 C 26.335938 22.046875 26.265625 22.097656 26.183594 22.101562 L 26.152344 22.097656 L 26.117188 22.089844 C 25.441406 21.855469 24.75 21.601562 24.058594 21.335938 C 23.960938 21.296875 23.910156 21.1875 23.949219 21.085938 C 23.980469 21 24.0625 20.949219 24.152344 20.964844 " fill-opacity="1" fill-rule="nonzero"/><path fill="currentColor" d="M 37.382812 18.136719 C 37.433594 18.144531 37.484375 18.175781 37.511719 18.21875 C 37.914062 18.792969 38.367188 19.367188 38.855469 19.925781 C 38.925781 20.007812 38.921875 20.128906 38.839844 20.199219 C 38.808594 20.230469 38.761719 20.246094 38.71875 20.25 L 38.6875 20.246094 C 38.640625 20.242188 38.601562 20.21875 38.570312 20.183594 C 38.070312 19.613281 37.609375 19.027344 37.199219 18.441406 C 37.140625 18.355469 37.160156 18.234375 37.246094 18.171875 C 37.285156 18.144531 37.335938 18.132812 37.382812 18.136719 " fill-opacity="1" fill-rule="nonzero"/><path fill="currentColor" d="M 34.597656 24.304688 Z M 32.503906 23.539062 L 32.519531 23.542969 C 33.234375 23.707031 33.953125 23.855469 34.652344 23.984375 C 34.757812 24.003906 34.824219 24.101562 34.804688 24.207031 C 34.789062 24.296875 34.710938 24.367188 34.621094 24.367188 L 34.589844 24.367188 L 34.582031 24.363281 C 33.878906 24.234375 33.15625 24.085938 32.433594 23.921875 C 32.332031 23.898438 32.269531 23.792969 32.289062 23.6875 C 32.3125 23.589844 32.40625 23.527344 32.503906 23.539062 " fill-opacity="1" fill-rule="nonzero"/><path fill="currentColor" d="M 53.925781 22.777344 L 53.894531 22.773438 C 53.832031 22.765625 53.773438 22.722656 53.746094 22.664062 C 53.703125 22.566406 53.746094 22.449219 53.84375 22.40625 C 54.511719 22.105469 55.160156 21.773438 55.773438 21.414062 C 55.808594 21.394531 55.851562 21.382812 55.890625 21.390625 C 55.953125 21.398438 56.003906 21.433594 56.03125 21.484375 C 56.085938 21.578125 56.054688 21.695312 55.960938 21.75 C 55.339844 22.113281 54.679688 22.453125 54 22.761719 C 53.976562 22.769531 53.949219 22.777344 53.925781 22.777344 " fill-opacity="1" fill-rule="nonzero"/><path fill="currentColor" d="M 47.371094 26.558594 C 47.394531 26.5625 47.417969 26.570312 47.441406 26.582031 C 48.0625 26.933594 48.707031 27.28125 49.363281 27.617188 C 49.457031 27.664062 49.496094 27.78125 49.449219 27.878906 C 49.414062 27.941406 49.351562 27.980469 49.28125 27.984375 L 49.25 27.980469 C 49.230469 27.976562 49.210938 27.972656 49.191406 27.960938 C 48.527344 27.621094 47.875 27.269531 47.253906 26.917969 C 47.207031 26.894531 47.175781 26.851562 47.164062 26.800781 C 47.148438 26.753906 47.15625 26.699219 47.179688 26.65625 C 47.21875 26.585938 47.292969 26.546875 47.371094 26.558594 " fill-opacity="1" fill-rule="nonzero"/><path fill="currentColor" d="M 51.273438 28.566406 C 51.292969 28.566406 51.3125 28.574219 51.328125 28.582031 C 51.972656 28.882812 52.644531 29.183594 53.324219 29.476562 C 53.417969 29.519531 53.464844 29.632812 53.421875 29.730469 C 53.394531 29.800781 53.328125 29.847656 53.25 29.847656 L 53.222656 29.847656 C 53.203125 29.84375 53.1875 29.839844 53.171875 29.832031 C 52.488281 29.539062 51.8125 29.234375 51.167969 28.933594 C 51.121094 28.910156 51.085938 28.871094 51.070312 28.824219 C 51.050781 28.773438 51.054688 28.722656 51.074219 28.675781 C 51.109375 28.597656 51.191406 28.554688 51.273438 28.566406 " fill-opacity="1" fill-rule="nonzero"/><path fill="currentColor" d="M 55.300781 30.300781 C 55.316406 30.304688 55.328125 30.304688 55.34375 30.3125 C 56.011719 30.578125 56.699219 30.839844 57.386719 31.09375 C 57.484375 31.128906 57.535156 31.242188 57.5 31.339844 C 57.472656 31.417969 57.40625 31.464844 57.324219 31.46875 L 57.296875 31.464844 L 57.253906 31.457031 C 56.5625 31.203125 55.871094 30.9375 55.203125 30.671875 C 55.15625 30.652344 55.117188 30.617188 55.097656 30.570312 C 55.078125 30.523438 55.078125 30.46875 55.09375 30.421875 C 55.128906 30.339844 55.210938 30.289062 55.300781 30.300781 " fill-opacity="1" fill-rule="nonzero"/><path fill="currentColor" d="M 41.132812 24.6875 C 41.875 24.710938 42.613281 24.699219 43.308594 24.683594 L 43.3125 24.683594 C 43.417969 24.683594 43.5 24.773438 43.503906 24.875 C 43.507812 24.980469 43.421875 25.074219 43.316406 25.078125 C 43.238281 25.082031 43.15625 25.082031 43.074219 25.082031 C 43.023438 25.082031 42.96875 25.085938 42.917969 25.085938 C 42.34375 25.097656 41.738281 25.09375 41.121094 25.074219 L 41.101562 25.074219 C 41.003906 25.058594 40.933594 24.976562 40.9375 24.875 C 40.9375 24.824219 40.957031 24.777344 40.996094 24.738281 C 41.035156 24.703125 41.082031 24.6875 41.132812 24.6875 " fill-opacity="1" fill-rule="nonzero"/><path fill="currentColor" d="M 43.480469 24.296875 C 43.523438 24.234375 43.59375 24.207031 43.664062 24.214844 C 43.695312 24.21875 43.722656 24.230469 43.75 24.246094 C 44.320312 24.65625 44.933594 25.0625 45.5625 25.460938 C 45.652344 25.515625 45.679688 25.636719 45.625 25.726562 C 45.589844 25.78125 45.53125 25.816406 45.464844 25.820312 L 45.4375 25.816406 C 45.410156 25.8125 45.386719 25.804688 45.363281 25.789062 C 44.726562 25.390625 44.109375 24.976562 43.527344 24.566406 C 43.441406 24.503906 43.421875 24.382812 43.480469 24.296875 " fill-opacity="1" fill-rule="nonzero"/><path fill="currentColor" d="M 40.265625 21.445312 C 40.304688 21.449219 40.339844 21.46875 40.367188 21.496094 C 40.878906 21.976562 41.429688 22.460938 42.007812 22.929688 C 42.050781 22.960938 42.074219 23.007812 42.078125 23.058594 C 42.085938 23.113281 42.070312 23.164062 42.039062 23.203125 C 42.003906 23.246094 41.949219 23.273438 41.894531 23.273438 L 41.863281 23.273438 C 41.828125 23.269531 41.796875 23.253906 41.769531 23.230469 C 41.183594 22.757812 40.625 22.265625 40.105469 21.777344 C 40.03125 21.703125 40.027344 21.582031 40.097656 21.503906 C 40.140625 21.457031 40.203125 21.433594 40.265625 21.445312 " fill-opacity="1" fill-rule="nonzero"/><path fill="currentColor" d="M 36.757812 24.648438 Z M 36.800781 24.328125 C 37.523438 24.425781 38.25 24.503906 38.960938 24.566406 C 39.066406 24.574219 39.144531 24.667969 39.136719 24.773438 C 39.128906 24.875 39.050781 24.949219 38.953125 24.953125 L 38.933594 24.945312 C 38.214844 24.886719 37.480469 24.800781 36.75 24.703125 C 36.644531 24.6875 36.574219 24.59375 36.585938 24.488281 C 36.59375 24.4375 36.617188 24.394531 36.660156 24.363281 C 36.699219 24.332031 36.75 24.320312 36.800781 24.328125 " fill-opacity="1" fill-rule="nonzero"/><g clip-path="url(#ccc3f175ca)"><g clip-path="url(#b2886738d6)"><path fill="currentColor" d="M 4.046875 8.808594 L 10.1875 8.808594 L 10.1875 15.984375 L 4.046875 15.984375 Z M 4.046875 8.808594 " fill-opacity="1" fill-rule="nonzero"/></g></g></svg>