<svg width="32" height="32" viewBox="0 0 32 32" fill="none" xmlns="http://www.w3.org/2000/svg">
<path d="M4.78316 19.6854L2.65198 17.5541C1.78267 16.6848 1.78267 15.2547 2.65198 14.3854L4.78316 12.2541C5.1477 11.8896 5.44215 11.1745 5.44215 10.6698V7.6552C5.44215 6.42135 6.45167 5.41187 7.68552 5.41187H10.7C11.2048 5.41187 11.9199 5.11747 12.2844 4.75293L14.4156 2.6217C15.2849 1.7524 16.7151 1.7524 17.5844 2.6217L19.7156 4.75293C20.0801 5.11747 20.7952 5.41187 21.2999 5.41187H24.3145C25.5483 5.41187 26.5578 6.42135 26.5578 7.6552V10.6698C26.5578 11.1745 26.8523 11.8896 27.2168 12.2541L29.348 14.3854C30.2173 15.2547 30.2173 16.6848 29.348 17.5541L27.2168 19.6854C26.8523 20.0499 26.5578 20.765 26.5578 21.2697V24.2841C26.5578 25.518 25.5483 26.5276 24.3145 26.5276H21.2999C20.7952 26.5276 20.0801 26.822 19.7156 27.1866L17.5844 29.3178C16.7151 30.1871 15.2849 30.1871 14.4156 29.3178L12.2844 27.1866C11.9199 26.822 11.2048 26.5276 10.7 26.5276H7.68552C6.45167 26.5276 5.44215 25.518 5.44215 24.2841V21.2697C5.44215 20.751 5.1477 20.0359 4.78316 19.6854Z" stroke="black" stroke-width="2.10315" stroke-linecap="round" stroke-linejoin="round"/>
<path d="M11.8096 20.1616L20.2222 11.749" stroke="black" stroke-width="2.10315" stroke-linecap="round" stroke-linejoin="round"/>
<path d="M19.5127 19.4608H19.5253" stroke="black" stroke-width="2.8042" stroke-linecap="round" stroke-linejoin="round"/>
<path d="M12.5029 12.4501H12.5155" stroke="black" stroke-width="2.8042" stroke-linecap="round" stroke-linejoin="round"/>
</svg>
