<svg viewBox="0 0 720 470" fill="none" xmlns="http://www.w3.org/2000/svg">
<g clip-path="url(#clip0_6123_3464)">
<path d="M62.5708 334.129C65.5069 329.452 66.8682 324.113 68.9755 319.082C70.408 315.66 68.5968 312.937 67.0222 310.273C57.6341 294.409 48.388 278.451 38.6091 262.812C30.4167 249.659 31.3046 236.873 38.6091 223.898C40.9059 222.311 43.2026 223.471 45.4283 224.004C57.4802 226.928 69.3426 230.587 81.4892 233.156C83.0502 233.437 84.5301 234.059 85.8224 234.979C93.6071 240.684 101.869 245.706 110.518 249.99C111.736 250.647 112.807 251.546 113.667 252.63C123.138 266.837 132.372 281.126 140.766 295.984C142.021 298.79 140.991 301.371 140.044 303.975C132.428 324.851 124.815 345.723 117.207 366.591C116.153 369.491 116.106 373.398 112.033 374.452C108.789 366.318 108.292 357.877 108.281 350.573C102.74 363.773 97.01 378.465 91.0906 393.074C90.681 394.19 90.2145 395.285 89.6934 396.353C84.6619 407.221 80.6251 418.539 75.0727 429.182C71.521 433.196 67.8154 436.877 61.967 436.996C52.1882 435.99 42.8949 432.84 33.4239 430.496C30.405 429.751 27.3506 428.839 25.1367 426.294C22.2362 425.264 21.1824 424.127 22.8635 420.635C32.3345 400.876 41.5452 380.939 50.815 361.05C51.6319 359.286 52.2947 357.498 53.0287 355.64C54.4464 347.81 57.7183 340.434 62.5708 334.129Z" fill="#374850"/>
<path d="M657.648 421.639C657.648 426.564 657.553 431.501 657.719 436.426C657.825 439.504 656.535 440.759 653.552 440.522C651.989 440.403 650.403 440.522 648.816 440.522C498.779 440.522 348.742 440.522 198.705 440.522C196.219 440.522 193.567 439.741 191.247 441.398C185.043 442.25 181.089 437.148 175.785 435.609C173.078 434.23 170.277 433.044 167.404 432.057C165.876 431.335 164.065 431.252 162.798 429.962C162.348 428.15 163.899 427.357 164.704 426.185C166.362 424.279 166.314 421.071 169.321 420.207C172.215 419.567 175.185 419.344 178.141 419.544H643.11C648.043 419.358 652.968 420.068 657.648 421.639Z" fill="#C8C8C7"/>
<path d="M419.877 48.7866C427.04 65.6213 430.875 83.344 433.953 101.268C434.948 107.022 435.563 112.834 436.321 118.624L435.777 119.263C433.739 120.476 431.384 121.049 429.017 120.909C426.258 120.707 424.104 119.642 423.654 116.481C423.038 112.136 420.978 107.862 424.743 103.671C426.542 101.682 425.785 98.9357 423.05 97.8821C416.041 95.1236 413.887 88.0322 409.566 82.9297C407.896 80.9644 407.008 80.2422 405.008 81.6155C402.368 83.4032 399.917 82.9533 397.301 81.4853C394.187 79.745 391.014 79.1886 388.173 82.1483C387.656 82.3618 387.088 82.4194 386.539 82.314C385.095 81.6866 383.84 80.7276 382.443 79.9463C378.287 77.7087 374.89 78.4427 372.262 82.314C370.474 84.9778 368.556 87.3574 365.158 88.1269C362.72 88.6833 362.329 90.4946 362.791 92.7085C363.252 94.9223 363.714 97.3256 363.974 99.6697C363.987 100.384 363.856 101.093 363.589 101.756C363.323 102.419 362.927 103.022 362.424 103.529C356.007 109.212 355.806 113.19 361.713 117.961C362.11 118.381 362.395 118.893 362.542 119.452C362.27 129.231 368.461 135.778 374.629 141.946C377.411 144.681 381.934 144.728 385.888 143.189C387.446 142.581 389.109 142.288 390.781 142.324C392.453 142.361 394.101 142.727 395.631 143.402C401.089 145.521 406.996 143.402 410.88 138.903C414.254 134.937 418.812 132.049 420.682 126.698C421.44 124.519 424.838 123.738 426.128 125.786C429.68 131.469 436.238 135.399 436.783 142.964C436.854 156.887 433.018 170.099 429.36 183.334C426.045 191.835 423.44 200.619 419.096 208.693C417.355 211.913 415.39 214.613 411.341 214.944C397.265 215.299 383.189 215.275 369.124 214.944C365.063 214.684 363.027 211.972 361.216 208.717C356.694 200.584 354.574 191.444 350.348 183.192C347.53 169.815 343.908 156.614 342.807 142.94C342.416 138.051 342.345 133.185 342.274 128.308C342.181 126.295 342.225 124.277 342.404 122.27C342.481 120.9 343.039 119.6 343.979 118.6C346.062 103.505 347.933 88.3755 352.266 73.6954C354.633 65.6332 357.155 57.5946 359.606 49.5443C361.55 48.6023 363.673 48.0895 365.833 48.0407C382.478 47.9579 399.136 48.0407 415.793 48.0407C417.183 48.0941 418.558 48.3453 419.877 48.7866Z" fill="#EBEBEB"/>
<path d="M657.648 421.638H218.109H167.829C163.875 417.293 164.396 411.966 164.562 406.721C166.705 403.43 170.6 403.407 173.702 401.903C175.797 400.897 178.236 400.589 180.319 398.351C175.087 395.794 169.333 398.671 164.455 396.173C164.205 395.99 164.03 395.722 163.962 395.419C163.895 395.117 163.94 394.8 164.088 394.527C167.297 391.686 171.192 393.213 174.803 392.835C177.04 392.598 179.68 393.474 180.722 390.384C181.123 387.641 181.246 384.864 181.089 382.097C181.089 333.274 180.97 284.45 181.148 235.627C181.219 215.501 180.757 195.482 181.148 175.427C181.29 171.875 182.971 168.62 183.35 165.08C185.09 163.896 186.582 163.896 187.671 165.944C188.95 169.377 188.535 172.965 188.535 176.481C188.535 245.635 188.535 314.777 188.535 383.908C188.535 394.812 188.536 394.8 199.688 394.823C215.445 394.823 231.191 394.717 246.948 394.93C304.804 394.67 362.649 394.847 420.505 394.823C434.273 394.823 448.042 394.516 461.81 395.025C467.469 395.084 473.128 394.966 478.787 395.025C485.109 394.8 491.419 394.764 497.729 395.025C503.254 394.969 508.803 394.969 514.375 395.025C520.286 394.788 526.206 394.788 532.133 395.025C538.052 395.025 543.972 394.966 549.891 395.025C555.834 394.772 561.777 394.772 567.72 395.025C573.734 395.025 579.748 395.025 585.75 395.025C597.684 394.314 597.684 394.314 597.684 382.251V134.5C597.684 124.153 597.684 124.141 587.242 124.141C540.534 124.141 493.826 124.141 447.118 124.141C443.567 124.141 440.015 124.674 436.688 122.863C435.232 121.572 435.327 120.152 436.333 118.66C489.548 118.66 542.764 118.767 595.967 118.482C602.242 118.482 603.367 120.412 603.343 126.154C603.142 184.886 603.213 243.607 603.248 302.339C603.248 304.636 602.562 307.074 604.101 309.217C605.865 315.267 604.752 321.506 605.403 327.638C604.87 347.989 605.083 368.34 605.332 388.679C605.39 389.461 605.629 390.219 606.03 390.893C607.558 392.977 609.795 392.728 611.95 392.728C621.018 392.728 630.075 392.799 639.179 392.657C649.834 392.219 660.584 392.515 671.274 392.503C673.642 392.503 676.01 392.704 677.833 394.433C675.856 396.386 673.346 395.546 671.085 395.617C650.39 395.688 629.649 395.617 609.014 395.723C607.096 395.723 604.148 394.468 603.532 397.535C602.881 400.814 605.983 400.944 608.114 401.761C623.505 407.657 638.895 413.576 654.285 419.519C655.528 419.91 656.914 420.301 657.648 421.638Z" fill="#DBDBDA"/>
<path d="M183.243 166.335C185.824 169.2 184.06 171.129 181.834 172.964C181.562 174.693 180.201 175.545 178.958 176.516C171.585 181.992 163.647 186.663 155.28 190.45C146.886 194.357 138.706 194.345 130.584 189.858C123.363 183.537 114.969 178.777 107.558 172.692C104.385 170.384 106.043 167.033 105.569 164.737C104.48 168.916 106.587 173.024 108.612 177.061C109.003 177.873 109.202 178.764 109.192 179.665C109.263 189.077 108.008 198.406 107.286 207.759C107.013 211.31 108.032 213.205 111.193 214.602C117.834 217.514 124.866 219.408 131.46 222.415C133.923 223.599 136.764 224.191 137.688 227.293C136.175 238.066 133.504 248.644 129.72 258.843C127.352 261.471 124.76 260.299 122.179 259.222C118.751 257.724 115.534 255.782 112.613 253.445C102.988 247.348 93.2447 241.381 83.4659 235.604C77.0137 231.791 68.4426 231.626 60.854 229.684C53.2653 227.743 46.0199 225.801 38.597 223.848C38.1471 221.48 39.5558 219.704 40.5503 217.845C51.0276 198.169 62.5114 179.144 77.156 162.203C80.7419 158.041 84.8757 154.385 89.4445 151.335C93.1501 151.24 94.7603 154.164 96.3822 156.603C98.9157 160.368 100.964 160.747 103.225 156.603C103.42 156.423 103.676 156.322 103.941 156.322C104.207 156.322 104.463 156.423 104.657 156.603C116.413 159.681 128.572 160.238 140.505 162.286C143.216 162.759 144.72 160.51 146.366 158.888C152.676 152.708 158.915 146.469 165.177 140.254C165.669 140.283 166.149 140.422 166.581 140.659C167.013 140.897 167.387 141.228 167.675 141.627C172.636 148.908 177.987 155.928 182.616 163.446C183.038 164.35 183.253 165.337 183.243 166.335Z" fill="#2274A5"/>
<path d="M62.5711 334.127C59.9564 341.524 56.7905 348.715 53.1001 355.638C51.123 353.744 49.9746 355.863 48.6131 356.644C38.2542 362.564 27.4453 363.073 17.1692 357.355C6.89315 351.636 1.42363 342.521 0.594914 330.042C-0.34035 316.049 11.7236 300.173 26.2616 297.924C31.6128 297.095 32.6664 299.108 32.7374 303.228C32.844 309.917 33.1398 316.641 32.6544 323.354C32.2638 328.776 35.0222 329.995 39.4618 330.575C47.1688 331.511 54.864 332.896 62.5711 334.127Z" fill="#DCDBDB"/>
<path d="M61.9668 435.655C67.2824 435.49 70.4907 431.701 74.1371 428.647C80.4353 424.929 87.5031 424.326 94.5353 423.532C97.9844 423.31 101.446 423.67 104.776 424.598C110.765 425.452 116.518 427.519 121.682 430.671C128.851 435.022 134.744 441.189 138.765 448.548C139.166 449.222 139.529 449.918 139.854 450.631C140.324 451.538 140.497 452.569 140.351 453.579C140.908 458.315 143.311 460.245 148.141 459.499C149.894 459.238 152.048 458.706 153.552 460.529C144.152 465.619 134.503 469.491 123.493 466.377C120.995 465.027 120.545 462.328 119.527 460.067C114.863 449.661 106.871 444.606 95.5062 444.452C83.8094 444.286 76.6351 450.726 71.5445 460.375C70.3606 462.589 69.958 465.3 67.2942 466.472C59.6582 467.028 51.9038 469.337 45.0491 463.287C43.1075 461.559 39.5797 462.908 37.4961 460.671C39.5324 458.303 42.2316 459.878 44.5994 459.416C46.3278 459.096 48.7429 460.351 49.3349 457.356C49.7611 450.253 54.8398 445.659 58.344 440.213C59.3385 438.603 61.0315 437.396 61.9668 435.655Z" fill="#A7A6A6"/>
<path d="M419.877 48.7885C418.362 50.1262 416.515 49.5935 414.822 49.5935C396.436 49.5935 378.051 49.5935 359.665 49.5935C364.981 37.3759 369.835 24.9096 377.139 13.6627C379.463 10.0175 382.051 6.54741 384.882 3.28014C388.765 -1.08838 391.713 -1.04102 395.821 3.28014C400.301 8.27408 404.088 13.849 407.079 19.8544C412.135 29.1242 416.87 38.5597 419.877 48.7885Z" fill="#2274A5"/>
<path d="M677.821 394.398L638.978 394.197C638.428 393.733 637.974 393.166 637.64 392.528C635.651 379.813 635.083 366.956 634.089 354.146C633.98 353.469 634.018 352.776 634.2 352.114C634.382 351.453 634.703 350.838 635.142 350.311C650.32 349.967 665.509 348.748 680.651 351.045L681.432 351.862C680.272 366.044 679.068 380.223 677.821 394.398Z" fill="#475B66"/>
<path d="M662.75 265.676C662.016 247.35 664.834 229.994 676.318 214.923C678.561 211.92 681.338 209.356 684.51 207.358C689.328 204.351 694.407 202.185 699.9 205.641C704.814 208.72 707.702 216.048 706.625 222.216C705.263 230.077 701.191 236.482 695.757 242.093C686.605 251.564 674.293 257.093 665.189 266.635C664.005 263.024 666.172 259.662 667.794 257.495C670.753 253.553 670.99 248.64 673.796 244.852C680.509 238.743 682.083 230.55 682.983 221.73C681.894 228.94 680.935 235.866 676.4 241.549C675.595 242.567 675.039 244.402 673.464 243.975C671.535 243.431 671.712 241.478 672.115 239.974C672.624 238.044 672.115 236.055 672.434 234.883C673.05 237.95 670.694 241.75 672.671 245.538C672.553 248.403 670.682 250.582 669.629 253.068C669.238 253.991 668.03 255.21 667.545 254.571C665.177 251.446 667.367 255.459 666.835 254.997C667.313 256.982 667.178 259.064 666.449 260.97C665.72 262.877 664.43 264.517 662.75 265.676Z" fill="#2274A5"/>
<path d="M604.278 326.93C602.675 321.126 602.622 315.003 604.124 309.172C612.104 286.678 632.241 278.391 650.97 289.898C644.412 291.082 637.581 288.892 631.164 291.579C630.418 291.792 631.365 291.84 630.631 291.745C625.564 291.141 624.025 295.569 622.107 297.155C624.621 294.635 627.752 292.818 631.188 291.887C636.29 289.863 641.653 289.898 646.957 290.348C649.988 290.597 653.824 290.49 654.285 295.083C653.209 295.952 651.879 296.446 650.497 296.492C642.21 297.783 639.972 299.914 638.125 308.225C636.409 315.896 635.059 323.686 630.868 330.541C629.375 333.117 627.122 335.168 624.418 336.414C621.713 337.66 618.69 338.04 615.762 337.502C608.954 336.318 605.356 332.956 604.278 326.93Z" fill="#2274A5"/>
<path d="M183.243 166.333L165.166 140.288C167.888 135.777 167.048 130.367 168.907 125.643C170.564 121.405 171.961 117.522 177.679 116.634C181.314 116.078 184.084 112.325 187.979 111.236C191.531 110.229 194.857 108.974 196.349 114.219C196.882 116.113 199.83 116.587 200.457 118.753C201.523 120.221 203.192 121.121 204.092 122.79C204.636 124.081 204.447 125.679 205.216 126.756C209.703 133.114 207.584 139.341 204.471 145.142C200.161 153.121 194.786 160.355 186.333 164.569L183.243 166.333Z" fill="#D2766A"/>
<path d="M140.352 453.578L139.014 451.341C140.754 449.979 142.802 450.642 144.685 450.642C158.615 450.571 172.545 450.571 186.476 450.642C188.145 450.642 189.933 450.181 191.424 451.092C190.738 449.683 189.27 450.654 188.24 450.63C171.582 450.287 154.925 451.139 138.28 450.133C133.888 443.03 128.572 436.672 121.445 432.055C121.235 431.709 121.125 431.312 121.125 430.907C121.126 430.503 121.239 430.106 121.451 429.761C121.662 429.416 121.965 429.136 122.325 428.952C122.686 428.768 123.09 428.686 123.493 428.717C136.753 428.362 150.048 426.905 163.248 429.474L167.415 430.528C166.101 433.571 162.917 432.801 160.632 433.867C159.969 433.44 160.241 435.051 160.3 434.257C160.3 433.961 160.572 433.867 160.857 434.163C163.568 436.945 166.468 436.897 169.747 435.11C170.74 434.49 171.868 434.12 173.035 434.031C174.202 433.943 175.373 434.138 176.448 434.601L191.258 441.432C193.02 442.339 194.508 443.7 195.568 445.374C196.598 447.292 197.853 449.364 196.965 451.518C195.923 454.075 193.283 453.353 191.223 453.377C174.27 453.519 157.317 453.519 140.352 453.578Z" fill="#2274A5"/>
<path d="M669.38 290.358C676.992 276.483 691.72 270.173 705.654 274.814C710.537 276.484 714.616 279.923 717.088 284.453C719.56 288.983 720.245 294.274 719.008 299.284C718.589 301.058 717.8 302.724 716.692 304.171C715.584 305.619 714.182 306.816 712.579 307.683C710.976 308.551 709.207 309.07 707.389 309.205C705.571 309.341 703.746 309.091 702.031 308.471C696.041 306.542 691.376 302.552 687.031 298.302C682.438 293.886 677.478 291.589 671.12 292.761C673.665 285.954 679.916 284.237 685.883 282.793C688.733 282.005 691.75 282.054 694.573 282.935C694.863 283.614 695.012 284.345 695.012 285.084C695.012 285.822 694.863 286.553 694.573 287.233C695.567 284.095 695.567 284.095 701.38 284.036C699.652 284.533 696.787 283.515 693.922 282.544C691.874 282.426 689.825 282.627 687.777 282.544C685.883 280.603 687.777 279.727 688.961 279.301C691.909 278.342 694.881 277.418 697.248 277.809C693.33 278.057 688.559 278.046 684.806 281.645C679.691 284.498 674.956 288.227 669.38 290.358Z" fill="#2274A5"/>
<path d="M645.809 274.814C638.943 272.34 631.745 271.393 624.641 269.984C616.508 268.374 609.76 264.669 607.274 256.003C606.52 253.739 606.436 251.305 607.033 248.995C607.629 246.685 608.88 244.596 610.636 242.98C612.219 241.336 614.248 240.191 616.474 239.686C618.699 239.181 621.024 239.339 623.161 240.139C638.007 245.146 644.116 256.843 646.957 271.073C643.169 270.541 642.743 267.155 641.583 264.527C640.849 262.822 641.216 260.856 638.031 261.271C636.67 261.46 635.237 258.832 633.828 257.482C632.36 255.801 630.43 254.511 629.282 251.563C629.815 254.771 632.289 255.446 633.461 257.175C634.136 257.885 634.917 258.489 635.545 259.235C636.373 260.241 638.102 261.022 637.498 262.526C636.752 264.42 634.811 263.035 633.781 263.579C635.545 263.899 637.936 262.739 639.771 264.266C641.251 265.45 643.524 266.634 641.594 269.274C641.452 269.463 642.257 269.274 642.613 269.451C645.122 270.434 646.425 272.044 645.809 274.814Z" fill="#2274A5"/>
<path d="M61.9666 435.655C62.8546 436.65 63.1505 437.609 61.9666 438.627C56.0473 443.682 53.2179 450.892 49.3466 457.356C40.728 454.882 32.1092 452.336 23.4669 449.969C19.8442 448.986 18.8853 446.985 19.6785 443.505C20.841 437.574 22.6841 431.798 25.1716 426.291C34.2401 428.765 43.3086 431.287 52.4008 433.678C55.5499 434.507 58.782 435.004 61.9666 435.655Z" fill="#2274A5"/>
<path d="M669.629 331.581C672.955 331.581 676.294 331.415 679.585 331.687C681.953 331.888 685.576 330.101 686.381 332.978C687.328 336.399 687.896 342.449 686.179 343.55C682.628 345.834 682.935 349.09 681.444 351.837L680.982 351.399C679.265 347.456 676.247 346.308 672.032 346.415C659.696 346.699 647.348 346.225 635.012 346.758C629.341 345.065 628.181 342.839 628.702 336.186C629.105 330.87 632.455 329.828 636.823 329.828C637.806 329.828 638.789 329.828 639.771 329.828C647.987 329.757 647.987 329.746 650.793 322.275C651.059 321.73 651.468 321.268 651.977 320.938C655.41 321.648 654.002 324.88 655.043 326.857C655.387 327.2 655.505 328.514 656.298 327.212C657.091 325.91 656.902 324.181 659.021 324.43C660.69 325.756 659.802 328.289 661.472 329.603C663.307 330.645 665.248 329.947 667.154 329.947C668.338 329.899 668.883 330.906 669.629 331.581Z" fill="#475B66"/>
<path d="M104.065 156.711C103.107 158.842 102.159 160.973 100.999 163.577L89.4326 151.395C91.4571 146.269 94.9615 141.439 91.9307 135.424C91.7448 135.074 91.6308 134.69 91.5952 134.295C91.5595 133.9 91.603 133.501 91.7232 133.123C91.8434 132.745 92.0377 132.395 92.2949 132.092C92.5521 131.79 92.8671 131.543 93.2213 131.364C96.4414 131.849 98.5486 131.731 99.8627 127.552C100.81 124.521 104.8 122.295 108.576 123.124C112.353 123.953 116.307 123.609 120.06 124.687L120.249 129.422C116.567 129.612 113.442 129.813 116.165 135.081C117.349 137.449 116.165 140.29 114.105 142.326C117.053 137.922 116.757 137.982 115.632 132.938C114.507 127.895 118.343 130.571 120.368 130.357C122.12 135.46 121.066 140.586 119.941 145.523C118.473 151.951 114.484 154.035 105.19 154.142C101.84 154.142 99.5311 152.354 97.7435 150.128C98.7616 153.1 102.325 153.999 104.065 156.711Z" fill="#D2766A"/>
<path d="M37.4963 460.622C39.8641 460.622 42.2319 460.563 44.5996 460.622C45.5704 460.622 47.2987 460.622 47.3816 460.977C49.4533 469.525 56.1898 464.162 60.6412 465.357C63.009 465.997 65.7319 465.357 68.289 465.357C70.3727 463.511 72.9415 463.463 75.4987 463.451C88.8292 463.396 102.164 463.396 115.502 463.451C118.059 463.451 120.64 463.451 122.712 465.369C127.566 465.369 132.432 465.689 137.274 465.44C139.641 465.322 144.045 467.678 143.193 461.699C142.98 460.243 144.969 460.728 146.011 460.669C148.52 460.551 151.054 460.575 153.576 460.539C155.715 463.426 157.407 466.619 158.595 470.01H32.8672C33.7077 466.47 35.8507 463.676 37.4963 460.622Z" fill="#2A363B"/>
<path d="M669.629 331.582L667.391 330.398C664.266 326.598 665.473 321.768 664.396 317.482C663.901 315.302 663.553 313.091 663.354 310.864C662.786 317.861 663.2 324.94 660.276 331.558C657.577 329.593 659.814 326.55 658.654 324.242C655.825 318.547 656.476 312.581 656.748 308.035C655.221 313.611 658.24 321.412 653.93 328.066C652.036 325.852 653.729 323.058 652.746 320.702C649.195 312.415 652.746 304.447 653.575 296.362C653.575 295.805 653.918 295.261 654.037 294.692C648.567 289.957 642.08 290.738 635.675 291.496C633.97 291.709 630.939 292.822 630.596 292.68C629.294 293.307 629.164 292.68 629.412 291.579C636.326 287.447 643.619 288.737 650.994 289.921C653.575 290.797 653.125 289.306 652.533 287.885C651.077 284.333 649.538 280.782 648.035 277.23C647.81 276.247 648.342 275.951 649.219 275.916C652.202 280.083 653.327 285.162 655.813 289.874C658.18 281.587 660.548 273.655 662.821 265.723C665.603 261.52 666.479 256.844 666.278 251.374L667.651 254.429C669.907 251.883 671.361 248.728 671.831 245.36C672.25 244.974 672.8 244.76 673.37 244.76C673.94 244.76 674.489 244.974 674.909 245.36L665.319 266.67C663.295 272.956 661.294 279.219 659.684 285.612C658.358 290.904 657.482 295.545 663.543 298.717L669.463 290.43C673.997 286.216 679.715 283.907 685.007 280.959C686.286 280.107 686.878 281.208 687.612 281.871L694.372 282.214C694.509 282.33 694.61 282.484 694.663 282.656C694.715 282.828 694.717 283.012 694.668 283.185C694.561 283.505 694.455 283.67 694.348 283.67C685.019 282.688 677.241 285.6 671.203 292.893C666.468 297.451 664.372 302.068 666.74 309.278C669.108 316.488 668.752 324.088 669.629 331.582Z" fill="#323B3D"/>
<path d="M203.003 122.319C200.54 122.319 199.569 121.206 200.457 118.767L344.038 118.625C344.038 119.809 344.038 121.052 344.038 122.26C341.765 124.284 338.936 124.118 336.189 124.118C294.445 124.166 252.694 124.166 210.935 124.118C208.129 124.142 205.347 124.154 203.003 122.319Z" fill="#DAD9D9"/>
<path d="M120.06 124.685C118.131 125.653 115.97 126.063 113.821 125.869C102.633 124.981 102.633 124.981 98.5373 134.677C96.4536 134.085 95.6841 131.35 93.2217 131.386C90.3922 124.495 93.4228 119.464 98.4425 115.107C99.2949 114.373 100.597 113.296 101.414 113.497C107.416 114.989 112.519 112.195 117.609 110.04C121.303 108.489 121.931 110.916 122.404 113.059C123.328 117.155 123.115 121.263 120.06 124.685Z" fill="#28343A"/>
<path d="M649.148 275.867L647.964 277.181L645.774 274.813C645.987 271.261 641.524 271.084 640.872 267.426C640.02 262.584 634.622 264.987 631.295 263.72C632.656 261.755 634.989 263.72 636.764 262.134L632.029 257.09C632.305 256.866 632.65 256.744 633.006 256.744C633.361 256.744 633.706 256.866 633.982 257.09C636.587 256.498 636.539 264.194 640.553 259.174C641.192 260.085 641.71 261.076 642.092 262.122C642.691 265.539 644.347 268.682 646.827 271.107C647.727 272.682 648.414 274.28 649.148 275.867Z" fill="#625B37"/>
<path d="M120.32 130.382C119.136 131.684 117.384 130.548 115.419 131.566C123.777 134.762 116.236 138.184 115.739 141.392C115.324 144.032 114.235 143.902 110.305 142.221C115.312 141.629 116.011 138.847 114.969 134.525C113.714 129.281 114.863 128.369 120.249 129.482C120.391 129.761 120.416 130.084 120.32 130.382Z" fill="#6D4E4D"/>
<path d="M104.066 156.709C98.4663 155.62 96.2167 151.867 95.9326 146.48C97.9689 150.328 101.852 151.867 105.143 154.164L104.646 156.662H104.35L104.066 156.709Z" fill="#403C3F"/>
<path d="M104.977 426.197L94.3225 425.108C92.7361 422.953 94.1567 420.988 94.8078 419.046C96.8559 412.949 99.4013 407.042 101.367 400.909C102.254 398.139 101.84 397.05 98.6436 397.085C95.2458 397.085 91.5403 398.127 88.5332 395.57C88.9594 394.765 89.3857 393.96 89.8237 393.202C92.7006 390.752 96.1813 391.616 99.4251 391.616C103.071 391.616 105.084 390.029 106.528 386.738C108.434 382.512 108.695 377.516 112.211 374.023C119.077 359.012 123.635 343.136 129.626 327.793C132.846 319.565 135.664 311.219 138.671 302.848C139.452 300.682 140.754 298.575 139.416 296.16C142.281 287.872 145.833 279.869 148.402 271.476C148.503 270.797 148.788 270.159 149.226 269.631C149.665 269.102 150.24 268.705 150.888 268.48C153.988 268.611 157.009 269.502 159.684 271.073C161.176 273.441 160.016 275.619 159.223 277.809C155.281 288.689 151.528 299.64 147.526 310.496C138.055 336.175 128.963 361.96 119.373 387.591C117.905 391.509 117.55 395.629 116.485 399.607C112.294 403.573 111.749 409.303 109.642 414.24C107.937 418.123 107.097 422.42 104.977 426.197Z" fill="#DCDBDB"/>
<path d="M150.947 268.836C147.94 277.005 144.898 285.173 141.938 293.354C141.453 294.68 141.18 296.018 139.416 296.077L112.613 253.445C116.485 255.067 120.32 256.748 124.227 258.299C125.814 258.927 127.589 260.821 129.105 258.11C129.503 257.82 129.972 257.645 130.463 257.604C130.953 257.562 131.446 257.655 131.887 257.873C138.232 261.212 145.241 263.153 151.22 267.238C151.356 267.497 151.402 267.794 151.353 268.083C151.304 268.371 151.161 268.636 150.947 268.836Z" fill="#F6F6F6"/>
<path d="M88.4977 395.569H90.8655C104.918 395.51 104.954 395.569 100.337 408.651C98.395 414.168 96.2997 419.637 94.2871 425.119L74.1611 428.67L88.4977 395.569Z" fill="#F6F6F6"/>
<path d="M112.211 373.973C111.513 379.892 108.66 385.054 106.789 390.547C106.02 392.832 104.196 393.116 102.054 393.081C97.9574 393.022 93.8492 393.081 89.7529 393.081C94.9738 377.619 101.758 362.785 108.849 347.738C109.986 356.515 111.106 365.26 112.211 373.973Z" fill="#F5F5F5"/>
<path d="M115.383 400.247C115.168 396.331 115.81 392.416 117.265 388.775C126.334 364.115 135.237 339.407 144.222 314.723C144.821 313.316 145.493 311.941 146.235 310.604C150.355 312.367 150.414 316.523 151.361 319.909C156.334 337.88 159.14 356.289 162.182 374.651C163.07 380.05 164.42 385.401 164.55 390.906C164.727 392.528 163.508 393.949 163.899 395.642L164.183 395.523C166.16 398.885 167.19 402.354 165.497 406.178C166.286 411.316 167.075 416.446 167.864 421.569C166.906 423.593 169.972 427.322 165.248 427.748C163.376 428.362 161.418 428.673 159.447 428.672C147.253 428.293 135.095 429.382 122.901 429.358C120.533 429.358 118.165 429.358 117.644 426.813C115.821 418.088 113.016 409.386 115.383 400.247Z" fill="#374850"/>
<path d="M115.384 400.246C116.354 408.225 117.408 416.192 118.26 424.184C118.615 427.498 119.787 428.741 123.434 428.599C137.356 428.079 151.29 427.972 165.213 427.7L163.236 429.416C150.983 429.547 138.729 429.629 126.465 429.878C124.677 429.878 121.907 428.493 121.445 432.009C116.212 429.322 110.897 426.895 104.977 426.149C103.864 421.757 106.978 418.418 107.961 414.547C109.166 410.413 110.613 406.353 112.294 402.388C112.791 401.157 112.98 398.991 115.384 400.246Z" fill="#F5F4F2"/>
<path d="M176.448 434.576C174.234 435.275 171.961 435.82 169.819 436.684C166.539 437.998 163.343 439.762 161.129 435.086C160.999 434.837 159.069 435.429 157.08 435.808C160.063 431.877 163.71 431.072 167.415 430.504C170.34 432.055 173.832 432.363 176.448 434.576Z" fill="#7B6C34"/>
<path d="M351.2 183.716C355.344 186.38 355.403 191.234 356.954 195.153C358.907 200.054 361.145 204.778 363.43 209.501C364.377 211.478 365.36 213.384 367.988 213.396C369.363 215.081 370.189 217.147 370.356 219.316C369.314 225.235 373.457 227.07 377.767 228.787C379.827 234.15 379.187 239.738 378.595 245.136C376.997 259.84 377.553 274.626 376.796 289.354C376.192 300.92 375.47 312.522 375.21 324.136C375.067 331.074 369.906 334.448 363.963 331.05C350.833 323.544 333.288 331.05 331.643 348.264C331.276 352.194 329.464 354.455 325.427 354.728C324.632 354.698 323.842 354.869 323.131 355.225C316.714 359.878 310.759 360.351 303.668 355.616C299.808 353.047 295.215 356.006 292.788 360.15C290.74 363.63 288.242 365.027 284.086 364.566C275.278 363.548 270.543 369.467 266.233 375.872C265.627 376.3 264.955 376.628 264.245 376.843C247.67 377.908 231.167 377.446 214.64 377.269C208.934 377.198 207.596 375.469 207.193 369.597C207.063 367.62 207.122 365.655 207.122 363.678C207.122 297.096 207.122 230.519 207.122 163.946C207.122 160.24 206.625 156.44 208.306 152.9C210.745 149.348 214.64 149.94 218.026 149.928C249.13 149.779 280.235 149.735 311.339 149.798C313.5 149.671 315.666 149.916 317.744 150.52C320.81 151.917 319.958 154.309 319.082 156.523C307.397 185.847 314.95 212.307 331.11 237.476C332.294 239.288 333.75 240.933 333.809 243.242C333.3 245.456 331.169 245.195 329.678 245.906C328.186 246.616 326.895 247.48 327.31 249.457C327.455 250.134 327.844 250.734 328.403 251.142C328.962 251.55 329.651 251.739 330.34 251.671C331.13 251.71 331.906 251.456 332.52 250.958C333.134 250.46 333.543 249.753 333.667 248.972C334.105 247.101 333.951 245.053 335.431 243.514C337.183 236.719 336.082 229.817 336.283 222.962C336.349 214.308 337.543 205.7 339.835 197.355C340.799 193.735 342.486 190.348 344.796 187.398C346.714 185.693 348.004 183.03 351.2 183.716Z" fill="white"/>
<path d="M412.407 213.395C415.047 213.395 415.959 211.406 417 209.476C420.694 202.799 423.121 195.577 425.88 188.498C426.566 186.745 426.578 184.567 428.531 183.454C431.728 182.578 432.912 185.123 434.522 187.006C438.048 191.039 440.37 195.982 441.223 201.272C443.389 212.933 444.916 224.63 443.33 236.528C443.105 238.149 442.229 240.422 444.431 241.168C446.112 241.737 447.213 239.854 447.983 238.599C464.557 213.43 473.246 186.97 460.934 157.172C460.046 155.029 457.88 152.437 461.479 150.578C463.951 149.9 466.522 149.647 469.079 149.832C501.723 149.832 534.358 149.832 566.986 149.832C570.088 149.832 573.32 149.453 576.126 151.371C577.558 152.957 577.629 154.923 577.617 156.9C577.617 173.912 577.913 190.936 577.463 207.949C576.279 213.584 572.018 217.42 568.999 222.013C567.4 224.381 566.063 226.358 568.253 229.341C570.171 231.981 569.508 235.438 569.508 238.576C569.508 276.831 569.508 315.086 569.508 353.341C569.508 361.521 569.508 361.521 576.871 364.233C577.269 364.556 577.551 365 577.675 365.497C577.799 365.995 577.758 366.519 577.558 366.991C577.428 367.133 577.321 367.382 577.167 367.417C572.006 368.258 569.022 371.549 567.258 376.237C561.789 377.858 555.972 377.895 550.483 376.344C550.009 376.024 549.299 375.692 549.299 375.16C548.399 368.802 543.971 368.956 538.963 368.779C533.257 368.577 534.441 373.798 532.038 376.107C526.971 378.155 521.738 377.137 516.565 376.959C515.931 376.838 515.322 376.61 514.765 376.284C512.16 373.834 513.404 368.506 508.431 367.808C506.881 366.352 506.466 364.943 508.775 363.866C510.124 363.238 511.77 363.049 512.326 361.285C513.143 355.176 512.634 349.055 512.658 342.958C512.741 322.832 512.658 302.706 512.658 282.64C512.658 278.91 512.291 275.086 515.085 271.985C516.375 270.552 515.973 268.978 514.895 267.687C512.019 264.278 510.527 257.979 506.277 257.932C501.541 257.932 500.097 264.337 497.149 267.9C496.642 268.387 496.315 269.031 496.22 269.727C496.126 270.424 496.269 271.132 496.628 271.736C499.067 275.501 498.427 279.727 498.427 283.823C498.475 306.885 498.475 329.947 498.427 353.009C498.427 355.957 498.724 358.929 497.646 361.794C493.147 365.712 491.194 365.831 488.471 361.083C486.245 357.224 482.126 355.934 479.415 352.891C478.231 350.701 478.42 348.321 478.408 345.965C478.408 331.625 478.408 317.28 478.408 302.931C478.408 299.995 478.278 297.012 480.113 294.419C481.948 291.826 479.853 289.944 478.539 288.121C469.292 275.288 471.79 276.625 463.03 287.837C461.112 290.287 459.419 292.489 462.674 295.331C464.178 296.645 463.977 298.965 463.989 300.942C464.06 312.923 464.06 324.908 463.989 336.897C464.109 338.078 463.963 339.271 463.562 340.389C461.81 343.858 460.922 347.149 463.278 350.819C464.225 352.311 463.633 354.276 462.426 355.78C456.506 361.225 456.992 360.847 451.854 354.241C447.817 349.02 448.302 342.982 446.645 337.358C448.03 328.61 450.516 320.109 452.884 311.585C455.536 302.043 451.179 294.206 441.708 291.862C436.167 290.489 430.662 288.962 425.134 287.351C420.398 285.954 418.326 287.612 417.273 292.217C415.296 300.848 413.177 309.443 410.785 317.967C410.158 320.204 410.359 323.815 406.18 323.176C404.262 320.109 405.339 316.617 404.712 313.361C404.309 311.266 404.889 308.448 400.639 310.035C397.928 311.053 395.821 307.88 394.116 305.879C392.731 304.257 394.708 303.062 395.714 302.008C397.786 299.83 399.716 296.834 403.563 300.54C403.936 293.787 403.884 287.018 403.409 280.272C401.989 264.976 402.699 249.598 401.432 234.29C401.229 232.512 401.55 230.714 402.356 229.116C405.493 226.749 410.927 226.393 409.814 220.403C409.83 217.835 410.748 215.354 412.407 213.395Z" fill="white"/>
<path d="M209.289 153.243C209.348 173.133 209.455 193.022 209.466 212.911C209.466 265.096 209.427 317.282 209.348 369.467C209.348 374.357 210.532 375.718 215.457 375.635C232.185 375.363 248.925 375.635 265.665 375.635C268.27 379.613 266.494 380.832 262.481 380.856C256.561 380.856 249.126 385.97 247.09 391.12C246.368 392.932 247.599 394.601 247.244 396.353C228.302 396.412 209.431 396.353 190.524 396.613C186.843 396.613 186.393 395.122 186.416 392.079C186.535 379.471 186.476 366.863 186.416 354.254C186.416 291.035 186.377 227.812 186.298 164.585C189.786 160.899 193.279 157.225 196.775 153.563C200.762 149.508 203.707 144.549 205.358 139.108C206.377 135.663 207.892 132.099 204.02 128.95C202.15 127.423 204.021 124.452 202.967 122.297H343.955C343.955 124.357 343.896 126.417 343.86 128.477C337.74 134.254 332.329 140.919 324.019 143.867C289.544 144.092 255.081 143.867 220.618 143.974C218.066 143.837 215.506 143.932 212.971 144.258C209.206 146.199 211.467 150.651 209.289 153.243Z" fill="#273339"/>
<path d="M361.891 103.236C362.317 102.17 362.731 101.117 363.157 100.063C365.17 89.9407 376.18 81.5351 386.705 82.1271C386.889 82.1994 387.089 82.2242 387.285 82.1994C387.482 82.1746 387.669 82.1009 387.829 81.985C395.465 78.5636 401.906 82.5414 407.505 86.389C426.684 99.5656 425.121 127.197 404.664 138.326C391.902 145.263 372.699 142.742 363.595 126.487C362.151 123.918 362.826 121.112 361.808 118.591C360.409 116.271 359.677 113.61 359.692 110.901C359.706 108.193 360.467 105.54 361.891 103.236Z" fill="#2274A5"/>
<path d="M361.809 118.589C363.88 122.768 365.36 127.255 368.604 130.831C372.859 135.52 378.515 138.709 384.73 139.921C390.945 141.133 397.386 140.303 403.091 137.555C414.207 132.026 421.145 119.3 419.203 107.958C416.681 93.2306 406.654 83.7359 391.974 82.185C390.612 82.0429 389.239 82.0193 387.866 81.9364C389.724 76.017 394.01 77.8994 397.254 79.687C400.498 81.4747 402.357 82.1377 405.47 79.4739C407.838 77.485 411.389 76.9049 410.821 82.2797C410.821 82.4691 410.679 82.8006 410.727 82.8243C416.504 85.7011 416.35 94.0357 423.11 96.1074C427.845 97.5755 429.799 101.944 426.223 104.856C420.517 109.485 425.513 113.948 425.821 117.879C426.093 121.348 431.492 118.743 434.641 118.566C435.233 118.566 435.825 118.566 436.405 118.566C436.405 119.75 436.405 121.004 436.405 122.236C438.323 124.331 438.062 126.971 438.05 129.469C437.423 133.897 440.253 139.047 435.339 142.587C434.961 140.598 435.612 138.467 432.901 137.117C431.208 136.276 430.355 133.767 429.089 132.038C423.43 124.355 424.081 124.745 419.239 132.95C416.517 137.444 412.7 141.175 408.146 143.794C404.168 145.961 398.331 148.399 393.217 143.983C391.725 142.693 389.5 143.415 387.558 144.126C378.182 147.523 372.949 145.546 367.953 136.857C366.58 134.489 365.585 131.695 363.691 129.824C360.187 126.403 360.163 122.733 361.809 118.589Z" fill="#EBEBEB"/>
<path d="M326.279 142.445C331.891 137.46 337.053 131.896 343.896 128.451C344.16 145.274 346.624 161.99 351.224 178.174C351.733 180.009 352.786 181.844 351.224 183.667L346.488 187.491C345.745 187.244 345.072 186.82 344.53 186.255C343.987 185.69 343.591 185 343.374 184.247C337.656 170.799 331.11 157.717 325.83 144.078C325.778 143.79 325.791 143.493 325.869 143.211C325.947 142.928 326.087 142.666 326.279 142.445Z" fill="#2274A5" fill-opacity="0.3"/>
<path d="M435.35 142.657C437.138 138.17 435.824 133.422 436.534 128.841C440.974 127.799 443.081 131.516 446.005 133.576C449.468 135.768 452.403 138.699 454.6 142.159C454.754 142.735 454.778 143.337 454.671 143.923C449.344 157.218 443.128 170.111 437.445 183.252C436.617 185.158 435.93 187.455 433.065 187.218C431.55 185.979 430.039 184.732 428.531 183.477C428.377 177.557 431.124 172.171 432.083 166.441C433.444 158.532 435.516 150.754 435.35 142.657Z" fill="#2274A5" fill-opacity="0.3"/>
<path d="M412.407 213.395C412.064 215.762 411.709 218.059 411.365 220.391C410.632 221.04 409.777 221.537 408.85 221.854C407.924 222.171 406.944 222.302 405.967 222.238C395.031 222.645 384.08 222.222 373.209 220.971C371.636 220.871 370.14 220.251 368.959 219.207C368.639 217.266 368.307 215.336 367.988 213.395H412.407Z" fill="#2274A5"/>
<path d="M386.705 82.1246C381.656 83.0792 376.9 85.1971 372.812 88.3105C368.725 91.4238 365.419 95.4468 363.157 100.06C362.352 97.0652 361.441 94.141 360.79 91.0748C360.316 88.8846 361.157 86.8365 363.572 86.8483C367.633 86.8483 369.172 84.303 371.078 81.3906C375.186 75.1161 382.419 75.5896 386.705 82.1246Z" fill="#EBEBEB"/>
<path d="M361.891 103.234L361.819 118.625C357.581 118.956 356.006 116.056 356.054 112.765C356.101 108.704 356.492 104.276 361.891 103.234Z" fill="#EBEBEB"/>
<path d="M453.937 142.504C448.314 137.769 443.46 131.992 436.57 128.842C436.57 126.664 436.463 124.486 436.416 122.307C489.442 122.307 542.468 122.307 595.494 122.035C600.868 122.035 599.851 125.007 599.851 127.955C599.851 189.256 599.851 250.557 599.851 311.858C599.851 338.081 599.708 364.292 599.969 390.515C599.969 395.417 598.785 397.275 593.789 396.589C591.033 396.36 588.265 396.305 585.502 396.423C582.709 395.171 579.683 394.523 576.623 394.523C573.562 394.523 570.536 395.171 567.744 396.423H550.199C547.997 394.327 545.203 395.014 542.61 394.836C540.017 394.659 537.626 395.049 535.507 393.368C535.149 392.855 534.933 392.256 534.881 391.632C534.829 391.009 534.943 390.382 535.211 389.817C537.578 387.307 540.657 388.29 543.498 387.923C544.966 387.733 547.12 388.159 547.334 386.159C547.57 383.968 545.226 384.383 543.889 383.897C542.941 383.652 542.059 383.199 541.308 382.571C540.982 382.04 540.801 381.432 540.784 380.808C540.768 380.185 540.916 379.568 541.213 379.02C543.924 376.853 547.547 377.019 550.483 375.468H567.566C570.999 377.244 574.669 377.433 578.458 377.256C580.826 377.149 583.347 377.256 583.714 373.941C584.046 370.934 583.063 368.98 579.784 368.613C579.191 368.594 578.609 368.449 578.076 368.188C577.543 367.926 577.072 367.555 576.694 367.098V364.73C582.909 362.978 583.856 358.657 583.797 352.702C583.525 315.15 583.643 277.585 583.679 240.021C583.679 235.747 583.146 231.402 585.833 227.471C587.408 225.187 585.159 223.494 584.105 221.718C581.453 217.219 576.895 213.75 576.646 207.949C576.646 190.984 576.646 174.031 576.646 157.042C576.768 155.064 576.661 153.077 576.327 151.123C574.776 144.304 574.362 143.89 567.258 143.878C532.35 143.878 497.445 143.878 462.544 143.878C459.596 143.949 456.542 144.529 453.937 142.504Z" fill="#273339"/>
<path d="M163.106 391.959C159.246 366.837 155.623 341.679 148.899 317.102C148.427 314.819 147.527 312.646 146.247 310.697C150.178 299.285 154.096 287.86 158.086 276.459C158.666 274.802 159.566 273.263 159.436 271.428C159.306 269.593 160.229 268.148 161.318 266.799C170.008 258.713 172.648 247.916 174.755 236.87C175.809 232.917 177.089 229.027 178.591 225.221C179.893 221.906 178.591 220.355 175.584 219.775C172.577 219.195 169.025 215.572 166.645 220.841C165.39 223.635 165.154 226.985 162.23 228.879C154.984 229.945 147.727 229.294 140.47 229.104C139.767 229.12 139.071 228.955 138.449 228.626C137.827 228.296 137.3 227.813 136.918 227.222C129.093 221.835 119.764 219.976 111.122 216.567C106.232 214.637 104.823 212.66 105.629 207.25C107.037 197.779 107.132 188.154 107.771 178.6C113.051 177.89 116.781 181.737 121.232 183.335C124.696 184.688 127.989 186.44 131.046 188.556C139.014 192.759 146.804 192.629 155.055 188.805C164.526 184.413 173.027 178.505 181.787 172.988C183.599 174.504 182.971 176.611 182.971 178.505C182.971 250.106 182.971 321.715 182.971 393.332C177.229 394.338 171.452 393.557 165.699 393.758C165.13 393.779 164.569 393.615 164.102 393.291C163.634 392.966 163.285 392.499 163.106 391.959Z" fill="#F6F6F6"/>
<path d="M535.897 389.721L536.075 392.894C535.495 394.693 533.482 395.072 532.523 396.446H514.469C508.905 393.912 503.353 393.427 497.788 396.446H479.095C473.531 393.439 467.966 393.877 462.414 396.446C402.888 396.493 343.371 396.536 283.861 396.576C271.643 396.576 259.438 396.398 247.232 396.304C243.29 392.752 243.254 389.721 248.286 387.306C249.197 386.88 250.014 386.619 250.322 385.495C252.193 378.889 256.893 377.74 262.753 379.339C267.109 380.522 265.12 377.148 265.665 375.586C265.664 375.485 265.695 375.386 265.755 375.305C265.815 375.224 265.9 375.164 265.997 375.136C268.743 373.017 271.987 373.443 275.101 373.431C294.398 373.384 313.691 373.384 332.98 373.431C372.143 373.573 411.306 373.313 450.457 373.431C453.619 373.277 456.79 373.411 459.928 373.834C466.368 377.385 472.891 379.398 479.781 374.946C484.718 373.301 489.56 372.579 493.846 376.533C494.864 377.468 495.965 377.231 497.113 377.089C503.092 376.9 509.248 378.522 514.872 375.124C515.054 375.114 515.237 375.15 515.402 375.229C515.567 375.307 515.711 375.426 515.819 375.574C516.612 376.45 517.464 377.515 518.672 377.385C525.775 376.592 529.86 380.522 532.713 386.359C533.601 387.638 535.116 388.312 535.897 389.721Z" fill="#06293E"/>
<path d="M595.115 413.267H191.187C204.21 408.627 215.812 399.89 230.444 399.89C337.112 399.937 443.775 399.909 550.435 399.807C559.077 399.807 567.151 400.872 575.048 404.424C581.63 407.383 588.485 409.704 595.174 412.297L595.115 413.267Z" fill="#273339"/>
<path d="M165.508 406.167C164.928 402.615 163.733 399.182 164.195 395.512C169.25 395.512 174.305 395.512 179.372 395.571C180.911 395.571 182.615 395.417 182.923 397.619C183.184 399.62 181.739 400.437 180.319 400.981C175.358 402.781 170.445 404.462 165.508 406.167Z" fill="#F5F5F5"/>
<path d="M532.524 396.492C531.742 393.367 533.814 393.035 536.075 392.941C539.745 392.941 543.427 393.142 547.097 392.941C549.832 392.822 550.412 394.196 550.211 396.492H532.524Z" fill="#2274A5"/>
<path d="M567.756 396.446C569.496 388.798 575.321 394.409 579.062 393.249C580.861 392.681 585.917 390.455 585.538 396.446C579.621 396.937 573.673 396.937 567.756 396.446Z" fill="#2274A5"/>
<path d="M462.414 396.518C462.414 395.334 462.035 393.735 463.409 393.522C468.57 392.711 473.827 392.711 478.988 393.522C480.409 393.747 479.474 395.452 479.083 396.494L462.414 396.518Z" fill="#2274A5"/>
<path d="M497.788 396.52C497.338 395.336 496.284 393.489 498.415 393.347C503.25 393.093 508.095 393.093 512.93 393.347C514.765 393.418 514.481 395.218 514.469 396.555L497.788 396.52Z" fill="#2274A5"/>
<path d="M603.248 393.216L638.682 393.133C638.867 393.458 638.969 393.824 638.978 394.198L606.93 394.4C605.592 394.411 604.16 394.577 603.248 393.216Z" fill="#A8ACAE"/>
<path d="M163.105 391.959C169.569 394.871 176.412 392.433 183.03 393.356C179.017 395.629 174.672 393.865 170.528 394.421C168.291 394.729 165.793 393.628 163.911 395.7C163.524 395.167 163.252 394.559 163.113 393.914C162.975 393.27 162.972 392.604 163.105 391.959Z" fill="#93999D"/>
<path d="M136.966 227.174L162.668 227.884C168.244 229.068 173.228 231.246 175.809 236.858C174.471 242.292 173.938 247.726 171.748 253.219C169.575 258.809 166.13 263.815 161.685 267.84C158.133 270.03 154.582 269.722 151.089 267.84C143.264 265.733 136.599 260.985 129.093 258.168C131.721 247.821 134.345 237.489 136.966 227.174Z" fill="#D3776B"/>
<path d="M131.094 188.533C122.807 186.354 115.538 181.986 107.831 178.541C107.764 178.177 107.581 177.845 107.31 177.594C106.919 175.498 105.297 173.142 108.553 171.828C116.023 177.463 124.192 182.14 131.094 188.533Z" fill="#333B3A"/>
<path d="M97.8502 201.804C96.5953 197.013 95.3365 192.218 94.0737 187.42C94.9332 188.104 95.6477 188.953 96.1762 189.916C96.7046 190.88 97.0362 191.938 97.1516 193.031C98.4539 184.259 100.621 175.664 99.922 166.654L101.662 166.844C100.715 178.517 99.7761 190.186 98.8448 201.851L97.8502 201.804Z" fill="#2274A5"/>
<path d="M78.0323 230.692C70.929 216.485 73.3796 201.213 73.498 186.166C74.5634 201.036 73.4507 216.154 78.0323 230.692Z" fill="#665E35"/>
<path d="M108.552 171.828C106.185 173.332 107.866 175.712 107.309 177.594C104.172 172.858 104.373 167.661 105.379 161.777C107.132 165.353 104.764 169.567 108.552 171.828Z" fill="#8D7931"/>
<path d="M125.541 244.258C125.435 238.813 127.424 233.817 129.33 228.785C129.282 234.195 127.424 239.239 125.541 244.258Z" fill="#8B7732"/>
<path d="M122.7 465.358C104.547 465.934 86.394 465.934 68.2412 465.358C74.1606 444.688 92.6529 436.732 110.956 447.186C117.893 451.152 121.054 457.84 122.7 465.358Z" fill="#C8C7C6"/>
<path d="M138.279 450.123H192.051V451.307H139.002C138.765 450.94 138.516 450.537 138.279 450.123Z" fill="#807133"/>
<path d="M635.379 350.522C635.296 348.995 635.201 347.467 635.118 345.94C636.622 344.129 638.67 344.756 640.6 344.697C652.154 344.697 663.721 344.958 675.264 344.555C680.84 344.366 682.367 346.378 681.005 351.374C666.893 351.481 652.782 351.611 638.658 351.635C637.512 351.441 636.405 351.066 635.379 350.522Z" fill="#29363C"/>
<path d="M674.838 245.301H671.76C669.641 240.814 672.553 236.6 673.015 232.207V243.17C682.095 236.588 679.561 225.613 684.19 217.717C684.155 227.981 682.734 237.748 674.838 245.301Z" fill="#776933"/>
<path d="M629.377 291.567L630.561 292.668C628.015 294.739 622.51 295.757 622.83 298.102C623.812 305.205 619.278 298.303 619.136 299.12C622.617 297.782 622.498 290.335 629.377 291.567Z" fill="#625B33"/>
<path d="M614.696 306.328C615.679 310.756 619.207 313.976 619.775 318.652C614.447 312.78 613.086 309.525 614.696 306.328Z" fill="#2274A5"/>
<path d="M187.943 138.846C187.671 141.948 182.213 145.95 189.648 147.595C188.014 149.111 186.664 148.898 185.35 147.595C179.964 142.422 174.482 137.284 179.372 128.594C181.396 128.405 182.331 130.962 184.167 131.802C184.652 133.306 183.314 134.099 182.853 135.224C182.391 136.348 181.088 137.816 182.047 138.929C183.776 140.918 185.422 137.994 187.245 138.397L187.943 138.846Z" fill="#654B4A"/>
<path d="M181.917 134.099L184.167 131.838C185.954 132.489 187.719 133.543 189.684 132.004C188.914 128.452 185.943 126.286 184.297 123.29C183.67 122.106 184.297 122.106 185.185 122.296C189.044 129.056 193.223 121.988 198.065 122.473C195.863 123.811 194.36 124.841 192.75 125.67C190.654 126.759 189.932 128.038 191.152 130.405C193.117 134.229 191.507 137.012 187.943 138.906L187.612 138.633C187.541 134.75 183.421 136.1 181.917 134.099Z" fill="#684C4B"/>
<path d="M185.186 122.295L184.298 123.289C183.422 122.2 180.746 121.146 183.942 119.797C186.748 118.613 189.175 116.399 192.928 116.363C190.75 119.299 186.725 119.24 185.186 122.295Z" fill="#845754"/>
<path d="M687.528 281.74L684.924 280.829C685.137 280.166 683.977 278.97 684.924 278.899C690.287 278.497 695.484 275.845 702.279 278.094C696.419 278.52 691.329 278.011 687.528 281.74Z" fill="#2274A5"/>
<path d="M694.265 283.538C694.265 283.053 694.265 282.567 694.265 282.082C697.462 282.709 700.646 283.443 704.032 283.005C702.73 288.096 694.656 280.46 695.485 288.7C693.65 286.9 694.467 285.125 694.265 283.538Z" fill="#827132"/>
<path d="M634.053 257.069H632.1C628.785 255.448 626.559 253.388 629.069 249.256L634.053 257.069Z" fill="#2274A5"/>
<path d="M659.353 311.265C658.666 305.997 658.169 301.794 657.518 297.059C664.479 301.238 660.915 305.784 659.353 311.265Z" fill="#CDCDCF"/>
<path d="M151.089 267.807H161.685L159.436 271.358C156.441 271.11 153.362 271.11 150.947 268.848C151.051 268.511 151.099 268.159 151.089 267.807Z" fill="#B0A4A3"/>
<path d="M461.241 375.384C429.726 375.384 398.212 375.195 366.708 375.538C355.769 375.668 344.854 375.076 333.927 375.36C322.704 375.645 311.433 375.455 300.246 375.36C288.833 375.36 277.421 375.195 265.996 375.112C269.548 365.499 276.308 361.118 285.873 363.036C288.869 363.64 289.52 362.421 290.609 360.325C295.191 351.576 303.927 350.203 310.841 357.318C312.605 359.141 313.493 359.686 315.21 357.614C316.926 355.542 319.649 353.447 322.183 353.542C329.038 353.814 329.57 349.871 330.719 344.449C334.176 328.147 350.051 321.636 365.051 329.734C368.887 331.806 373.433 329.532 373.587 325.377C374.794 294.131 375.978 262.884 377.139 231.638C377.139 230.667 377.068 229.672 377.02 228.69C385.475 225.369 394.872 225.369 403.326 228.69C404.084 252.071 404.865 275.453 405.54 298.834C405.54 300.409 406.724 302.895 404.581 303.452C402.083 304.091 400.698 302.268 400.591 298.858C398.768 301.451 397.596 303.901 394.672 304.778C397.703 305.085 399.242 306.826 399.786 310.176C401.219 307.808 400.863 305.18 403.74 305.523C406.617 305.867 405.812 308.104 405.966 309.631C406.451 314.118 406.629 318.641 406.925 323.151C410.69 329.071 411.317 329.308 418.231 326.537C430.389 321.636 443.886 326.739 447.994 337.772C450.717 342.721 448.858 348.984 452.824 353.731C454.268 355.459 457.559 356.016 456.53 359.65C458.637 358.242 458.045 354.69 461.265 355.459C462.017 356.06 462.55 356.893 462.78 357.827C464.284 362.361 472.914 365.12 476.904 362.361C478.183 361.462 478.266 360.112 478.431 358.81C478.68 356.738 478.254 354.477 480.089 352.89C484.126 353.684 487.985 355.365 489.193 359.378C490.637 364.114 493.348 363.593 496.734 362.468C500.241 362.839 503.783 362.724 507.259 362.125C509.769 361.746 512.385 361.616 514.48 363.593C513.296 365.439 511.343 364.575 509.745 364.682C507.803 364.824 508.135 365.724 508.762 366.884C506.395 369.962 502.286 367.701 499.599 369.737C496.911 371.773 500.688 376.012 496.912 377.704C495.657 377.515 495.159 380.238 494.343 379.09C490.554 373.715 485.049 375.869 480.136 375.396C478.822 369.169 474.465 368.778 468.996 368.494C463.337 368.281 463.171 372.448 461.241 375.384Z" fill="#2274A5" fill-opacity="0.37"/>
<path d="M326.197 143.474C331.666 151.856 334.484 161.505 338.983 170.372C341.812 175.936 344.038 181.808 346.524 187.538C339.598 197.116 338.864 208.375 338.237 219.503C337.834 226.37 338.332 233.283 338.237 240.174C338.237 242.091 339.101 244.838 335.703 245.181C335.135 244.755 334.259 244.72 334.022 243.879C318.502 224.12 310.487 201.946 312.061 176.587C312.606 167.767 315.98 159.871 319.472 151.963C319.899 148.222 322.172 145.617 324.8 143.214C325.025 143.083 325.29 143.037 325.547 143.085C325.803 143.133 326.034 143.271 326.197 143.474Z" fill="#2274A5"/>
<path d="M325.333 143.521L319.413 152.01L213.468 151.844C211.917 151.844 210.272 151.584 209.265 153.241C209.384 149.595 207.762 145.771 210.378 142.385C212.45 143.356 214.652 142.87 216.783 142.87C250.839 142.87 284.899 142.89 318.964 142.929C321.095 142.929 323.344 142.326 325.333 143.521Z" fill="#475B65"/>
<path d="M346.11 285.208C336.733 289.292 327.558 291.897 317.768 288.76C315.601 288.085 312.227 290.808 311.635 287.647C311.043 284.486 315.187 286.96 316.524 285.113C319.131 281.204 321.258 276.994 322.858 272.576C325.522 265.579 325.948 265.402 330.98 270.67C335.68 275.63 341.883 279.004 346.11 285.208Z" fill="#DDDCDB"/>
<path d="M356.493 273.632C350.443 274.816 346.311 272.448 343.872 265.167C342.499 261 344.535 259.165 346.157 256.88C352.55 248.072 352.657 248.155 358.73 257.117C361.098 260.668 363.714 264.149 366.023 267.772C368.876 272.235 368.166 273.442 362.815 273.584C361.098 273.667 359.322 273.632 356.493 273.632Z" fill="#DDDDDC"/>
<path d="M403.351 228.796H377.045C368.971 228.489 368.971 228.489 368.959 219.219C383.094 219.692 397.206 221.03 411.366 220.403C411.354 228.583 411.354 228.583 403.351 228.796Z" fill="#2274A5"/>
<path d="M275.894 343.833V323.293C282.358 327.366 285.72 334.185 291.924 337.713L291.865 337.642C292.326 340.009 290.681 339.938 289.071 340.009C287.165 340.128 285.519 340.566 286.004 343.087C282.701 344.425 279.304 344.082 275.894 343.833Z" fill="#303A3F"/>
<path d="M288.395 346.972C290.87 351.198 288.466 354.075 285.4 356.348C282.334 358.621 279.22 357.887 276.758 355.661C273.727 352.927 272.993 349.434 275.456 345.752C279.007 342.437 282.263 341.218 285.246 346.403C285.933 347.658 287.235 347.374 288.395 346.972Z" fill="#2274A5" fill-opacity="0.24"/>
<path d="M304.035 277.228C300.98 276.873 299.145 275.227 299.098 271.972C299.027 268.148 301.679 266.715 304.769 266.857C307.859 266.999 309.647 269.367 309.576 272.445C309.504 275.748 307.29 277.121 304.035 277.228Z" fill="#DDDCDC"/>
<path d="M333.999 243.977L335.68 245.279C334.709 247.22 336.627 249.411 334.958 251.376C334.264 252.334 333.281 253.044 332.154 253.402C331.027 253.76 329.814 253.747 328.695 253.365C327.623 253.134 326.674 252.513 326.033 251.623C325.393 250.733 325.105 249.636 325.226 248.546C325.312 247.363 325.839 246.255 326.703 245.442C327.567 244.628 328.704 244.169 329.891 244.154C331.24 243.977 332.614 243.977 333.999 243.977Z" fill="#DDDCDB"/>
<path d="M288.396 346.972C288.396 348.369 288.147 349.706 286.513 350.145C285.329 350.476 284.643 349.576 284.465 348.665C283.21 342.153 279.458 343.621 275.456 345.752C275.61 345.101 275.752 344.438 275.894 343.787C277.398 342.865 279.104 342.32 280.865 342.201C282.625 342.081 284.389 342.39 286.004 343.1C286.798 344.438 287.591 345.788 288.396 346.972Z" fill="#2274A5"/>
<path d="M291.924 337.748C291.924 336.564 291.841 335.38 291.924 334.279C291.924 332.337 293.107 331.651 294.942 331.568C296.778 331.485 298.044 331.935 298.648 333.64C299.346 335.605 298.317 336.955 296.813 338.079C295.061 339.393 293.534 338.079 291.912 337.677L291.924 337.748Z" fill="#2274A5"/>
<path d="M577.179 208.599L591.172 228.571C586.224 227.979 585.442 230.158 585.454 234.171C585.632 274.352 585.561 314.521 585.561 354.702C585.561 363.853 585.561 363.853 576.658 364.753C567.743 364.042 567.743 364.042 567.743 354.749C567.743 314.497 567.684 274.316 567.838 234.112C567.838 230.264 567.223 228.038 562.014 228.82L576.386 208.457L577.179 208.599Z" fill="#2274A5"/>
<path d="M556.414 251.137C549.832 249.823 550.116 253.351 550.128 257.057C550.199 290.939 550.128 324.822 550.27 358.693C550.27 363.428 548.849 364.612 544.279 364.553C532.37 364.316 532.358 364.553 532.358 352.821C532.358 320.911 532.358 289.002 532.358 257.092C532.358 254.582 534.003 250.865 528.806 250.829C526.912 250.829 527.894 249.172 528.534 248.26C532.168 243.122 535.862 238.008 539.497 232.87C540.834 230.988 541.864 230.668 543.392 232.87C547.334 238.683 551.513 244.342 556.414 251.137Z" fill="#2AAFFE" fill-opacity="0.28"/>
<path d="M433.065 187.148C438.866 179.168 441.258 169.543 445.709 160.901C448.645 155.195 450.35 148.897 453.997 143.498C454.831 143.517 455.634 143.822 456.27 144.362C458.187 146.6 460.638 148.541 460.472 151.939C476.419 184.283 467.031 213.24 448.432 240.884C447.248 242.672 445.544 245.809 443.188 244.732C440.832 243.654 441.412 240.209 441.613 237.747C442.753 225.209 442.011 212.571 439.411 200.253C438.254 195.483 436.09 191.014 433.065 187.148Z" fill="#2274A5"/>
<path d="M514.54 363.64C510.889 363.47 507.231 363.72 503.637 364.386C501.447 364.895 498.156 366.34 496.794 362.516C496.849 333.984 496.9 305.445 496.948 276.898C496.948 275.595 497.457 273.464 495.965 273.216C488.483 272.032 494.379 269.013 495.35 267.415C497.777 263.389 500.843 259.743 503.483 255.836C505.176 253.327 506.526 252.533 508.574 255.552C512.315 261.057 516.269 266.42 520.614 272.517C515.416 272.198 514.789 274.719 514.813 278.65C514.978 304.825 514.907 331.013 514.884 357.188C514.884 359.343 514.659 361.486 514.54 363.64Z" fill="#2274A5"/>
<path d="M448.006 337.901C439.719 326.063 426.472 322.641 414.929 329.887C410.88 332.432 406.784 328.845 406.938 323.281C411.508 314.686 412.23 304.966 414.822 295.803C418.208 283.857 417.888 283.751 429.834 286.77C433.243 287.634 436.582 289.351 440.015 289.54C448.409 290.025 451.984 295.779 455.406 302.125C455.829 302.991 456.069 303.935 456.112 304.899C456.155 305.862 455.999 306.824 455.654 307.724C452.943 317.752 450.516 327.838 448.006 337.901Z" fill="#E5E5E4"/>
<path d="M480.149 352.89C479.983 364.729 479.947 364.125 468.31 364.859C459.869 365.392 461.775 359.981 461.313 355.506C461.585 355.246 462.118 354.831 462.071 354.725C457.335 345.798 462.959 336.896 462.142 327.886C461.301 318.534 461.739 309.027 462.059 299.603C462.201 295.543 460.603 294.359 455.915 294.974C460.65 288.38 464.888 282.567 469.032 276.683C470.216 274.979 471.151 274.6 472.513 276.53C476.242 281.822 480.066 287.054 483.854 292.323C484.813 293.648 485.263 294.998 482.86 294.868C479.876 294.702 479.864 296.537 479.876 298.656C479.995 316.77 480.085 334.847 480.149 352.89Z" fill="#2274A5"/>
<path d="M460.437 151.986L455.252 144.374C456.507 141.485 459.04 142.977 460.899 142.977C496.85 142.874 532.808 142.847 568.774 142.894C577.476 142.894 577.476 142.894 576.008 151.797L460.437 151.986Z" fill="#475B65"/>
<path d="M576.007 151.796C576.007 143.509 576.007 143.509 567.874 143.509C532.618 143.509 497.37 143.509 462.13 143.509C459.833 143.509 457.394 142.822 455.251 144.397C454.825 144.113 454.399 143.828 453.961 143.556C453.996 143.21 453.996 142.861 453.961 142.514C493.55 142.443 533.135 142.357 572.716 142.254C575.924 142.254 577.309 143.165 577.297 146.599C577.179 167.269 577.214 187.94 577.203 208.61C576.932 208.604 576.665 208.556 576.409 208.468C576.275 189.581 576.141 170.691 576.007 151.796Z" fill="#69777D"/>
<path d="M550.471 375.492C549.82 381.992 544.634 377.718 541.84 379.127C539.615 380.82 537.105 380.855 534.5 380.31C531.979 379.517 530.629 378.144 532.133 375.409C533.198 372.876 530.558 368.448 534.062 367.75C539.02 366.786 544.125 366.866 549.05 367.986C551.548 368.614 549.524 373.018 550.471 375.492Z" fill="#2274A5"/>
<path d="M576.694 367.098C577.477 367.239 578.267 367.338 579.061 367.394C584.815 367.583 588.828 373.313 585.229 377.421C581.63 381.529 575.687 378.202 570.834 378.96C567.957 379.41 567.637 377.587 567.602 375.468C567.957 367.772 567.957 367.772 576.694 367.098Z" fill="#2274A5"/>
<path d="M496.948 377.749C497.137 367.769 497.137 367.769 508.787 366.929C515.369 366.348 515.345 370.575 514.789 375.216C514.221 376.518 514.789 378.862 512.693 378.767C507.449 378.684 502.109 380.283 496.948 377.749Z" fill="#C3E9FF"/>
<path d="M532.121 375.469C532.618 376.866 531.884 379.02 534.489 379.115C534.931 379.491 535.243 379.996 535.381 380.559C535.519 381.123 535.476 381.715 535.258 382.252C534.335 383.957 533.719 385.875 532.168 387.201C530.736 387.201 530.227 386.408 529.8 385.141C528.131 379.636 523.976 377.837 518.885 379.139C514.659 380.228 515.546 377.872 515.653 375.587L532.121 375.469Z" fill="#303A3C"/>
<path d="M325.332 143.523C289.271 143.523 253.21 143.492 217.149 143.429C214.9 143.429 212.414 144.364 210.401 142.387L326.279 142.446C326.269 142.79 326.242 143.134 326.196 143.476H325.77L325.332 143.523Z" fill="#69777D"/>
<path d="M410.288 111.451C410.288 122.106 401.149 131.482 390.6 131.577C379.496 131.695 370.096 122.188 370.119 110.847C370.136 108.242 370.67 105.666 371.692 103.269C372.713 100.873 374.2 98.7031 376.067 96.8866C377.934 95.07 380.144 93.6428 382.568 92.6879C384.992 91.7331 387.581 91.2697 390.186 91.3247C392.841 91.2764 395.479 91.7642 397.941 92.7589C400.403 93.7535 402.64 95.2346 404.516 97.1134C406.393 98.9923 407.871 101.23 408.863 103.694C409.855 106.157 410.34 108.796 410.288 111.451Z" fill="#FDFDFD"/>
<path d="M576.126 389.59C574.172 389.59 572.219 389.519 570.277 389.59C567.566 389.709 567.732 387.862 567.756 386.038C567.779 384.215 567.365 382.38 570.123 382.487C574.409 382.487 578.695 382.57 582.992 382.487C585.692 382.416 585.573 384.168 585.526 386.038C585.478 387.909 585.893 389.732 583.158 389.673C580.802 389.519 578.47 389.59 576.126 389.59Z" fill="#2274A5"/>
<path d="M532.215 387.223C532.973 385.625 531.15 382.854 534.429 382.404C535.484 381.549 536.8 381.082 538.158 381.082C539.516 381.082 540.833 381.549 541.888 382.404C543.841 382.404 545.795 382.547 547.807 382.499C550.601 382.416 550.175 384.405 550.175 386.051C550.175 387.696 550.305 389.602 547.618 389.602C543.723 389.602 539.816 389.685 535.921 389.733C534.181 389.591 532.322 389.673 532.215 387.223Z" fill="#2274A5"/>
<path d="M541.888 382.369H534.43C534.43 381.28 534.43 380.191 534.43 379.102H541.817C541.864 380.203 541.876 381.304 541.888 382.369Z" fill="#2274A5"/>
<path d="M175.809 236.872C172.08 232.929 167.06 230.881 162.68 227.898C162.881 227.152 163.047 226.371 163.295 225.637C167.072 214.769 167.036 214.899 177.869 218.924C180.864 220.037 182 221.067 180.603 224.263C178.816 228.371 177.383 232.657 175.809 236.872Z" fill="#2274A5"/>
<path d="M461.242 375.386C461.786 367.158 461.786 367.158 469.754 367.158H471.506C481.995 367.158 479.793 366.85 480.172 375.445C480.042 376.202 480.172 377.221 479.722 377.694C476.845 380.749 463.503 379.067 461.242 375.386Z" fill="#C3E9FF"/>
<path d="M505.91 382.56H511.829C514.292 382.56 514.624 384.146 514.624 386.111C514.624 388.077 514.173 389.604 511.746 389.592C508.005 389.592 504.264 389.592 500.523 389.592C498.156 389.592 496.865 388.929 496.818 386.265C496.771 383.602 497.812 382.264 500.618 382.441C502.382 382.548 504.17 382.441 505.922 382.441L505.91 382.56Z" fill="#2274A5"/>
<path d="M471.968 382.487C474.241 383.895 480.018 379.42 479.888 386.204C479.77 392.396 474.549 388.714 471.684 389.495C469.861 389.992 467.777 389.495 465.765 389.59C463.29 389.696 462.213 388.69 462.213 386.145C462.213 383.599 462.911 382.368 465.54 382.463C467.529 382.581 469.506 382.487 471.968 382.487Z" fill="#2274A5"/>
<path d="M417.936 385.578C417.131 386.679 416.373 387.733 415.568 388.775C414.775 387.733 413.603 386.774 413.33 385.602C413.188 384.998 414.645 384.028 415.39 383.234L417.936 385.578Z" fill="#E2D8BC"/>
<path d="M272.437 386.23C273.277 387.13 274.745 388.054 274.651 388.776C274.52 389.77 273.218 390.611 272.413 391.511C271.643 390.729 270.175 389.829 270.282 389.143C270.471 388.125 271.679 387.225 272.437 386.23Z" fill="#E7E0C9"/>
<path d="M181.917 134.098C184.652 134.536 189.293 132.535 187.612 138.573C186.909 139.213 186.161 139.802 185.374 140.337C183.977 141.189 182.628 142.787 180.793 141.307C178.958 139.828 179.751 138.241 180.591 136.643C181.041 135.802 181.479 134.95 181.917 134.098Z" fill="#CD7469"/>
<path d="M390.825 297.782C390.347 297.549 389.924 297.218 389.583 296.81C389.243 296.402 388.992 295.926 388.848 295.415C388.694 294.965 390.221 293.438 391.156 293.236C392.636 292.94 393.169 294.693 394.128 295.604L390.825 297.782Z" fill="#FDEFCA"/>
<path d="M320.858 366.413C320.029 367.167 319.133 367.845 318.182 368.437C316.714 369.171 316.004 367.549 315.613 366.874C314.927 365.691 316.56 364.743 317.271 364.507C318.703 363.903 319.39 365.702 320.858 366.413Z" fill="#FDF1D1"/>
<path d="M225.626 147.393C225.64 147.678 225.594 147.962 225.491 148.229C225.388 148.495 225.231 148.736 225.029 148.938C224.827 149.14 224.585 149.297 224.319 149.4C224.053 149.503 223.768 149.549 223.483 149.536C223.205 149.584 222.919 149.574 222.644 149.506C222.37 149.437 222.113 149.312 221.89 149.138C221.667 148.964 221.483 148.745 221.349 148.495C221.216 148.246 221.136 147.971 221.116 147.689C221.057 147.36 221.077 147.022 221.174 146.702C221.27 146.382 221.44 146.089 221.671 145.847C221.901 145.605 222.186 145.42 222.5 145.309C222.815 145.197 223.152 145.16 223.483 145.203C224.055 145.218 224.598 145.455 224.998 145.864C225.398 146.273 225.623 146.821 225.626 147.393Z" fill="#D7DADB"/>
<path d="M212.236 147.534C212.221 147.242 212.269 146.95 212.378 146.678C212.487 146.407 212.653 146.162 212.866 145.962C213.079 145.761 213.334 145.609 213.611 145.517C213.889 145.425 214.183 145.394 214.474 145.427C214.718 145.429 214.958 145.482 215.181 145.581C215.403 145.681 215.603 145.825 215.767 146.005C215.931 146.185 216.057 146.397 216.136 146.627C216.215 146.858 216.246 147.102 216.226 147.345C216.273 147.634 216.249 147.93 216.155 148.208C216.062 148.486 215.902 148.736 215.69 148.938C215.477 149.14 215.219 149.287 214.937 149.366C214.655 149.445 214.358 149.455 214.071 149.393C213.585 149.378 213.124 149.176 212.782 148.831C212.441 148.485 212.245 148.02 212.236 147.534Z" fill="#C4C4C4"/>
<path d="M234.435 147.38C234.459 147.623 234.435 147.869 234.363 148.104C234.292 148.338 234.174 148.555 234.018 148.744C233.861 148.932 233.669 149.088 233.452 149.201C233.235 149.314 232.998 149.383 232.754 149.404C231.416 149.558 230.445 149.061 230.386 147.522C230.351 147.275 230.365 147.024 230.428 146.783C230.491 146.542 230.601 146.316 230.752 146.118C230.903 145.919 231.091 145.753 231.307 145.628C231.523 145.504 231.761 145.423 232.008 145.391C232.302 145.335 232.604 145.345 232.894 145.419C233.184 145.493 233.454 145.63 233.685 145.819C233.916 146.009 234.103 146.247 234.233 146.517C234.362 146.786 234.431 147.081 234.435 147.38Z" fill="#F8C42B"/>
</g>
<defs>
<clipPath id="clip0_6123_3464">
<rect width="719.135" height="470" fill="white" transform="translate(0.5)"/>
</clipPath>
</defs>
</svg>
