<svg width="40" height="40" viewBox="0 0 40 40" fill="none" xmlns="http://www.w3.org/2000/svg">
<path d="M20.2715 28.2031V31.9983" stroke="white" stroke-width="2.5" stroke-linecap="round" stroke-linejoin="round"/>
<path d="M11.2354 38.1443H29.3076V36.3371C29.3076 34.3492 27.6811 32.7227 25.6931 32.7227H14.8498C12.8619 32.7227 11.2354 34.3492 11.2354 36.3371V38.1443V38.1443Z" stroke="white" stroke-width="2.5" stroke-miterlimit="10"/>
<path d="M9.42773 38.1445H31.1144" stroke="white" stroke-width="2.5" stroke-linecap="round" stroke-linejoin="round"/>
<path d="M20.0002 27.3011C13.0062 27.3011 7.34961 21.6445 7.34961 14.6506V9.22889C7.34961 5.23493 10.5845 2 14.5785 2H25.4218C29.4158 2 32.6507 5.23493 32.6507 9.22889V14.6506C32.6507 21.6445 26.9941 27.3011 20.0002 27.3011Z" stroke="white" stroke-width="2.5" stroke-linecap="round" stroke-linejoin="round"/>
<path d="M8.19877 19.4427C6.84336 19.009 5.65059 18.2138 4.71083 17.2741C3.08433 15.4668 2 13.2982 2 10.7681C2 8.23794 3.98794 6.25 6.51806 6.25H7.69275C7.33131 7.08132 7.15058 8.00301 7.15058 8.96083V14.3825C7.15058 16.1897 7.5301 17.8885 8.19877 19.4427Z" stroke="white" stroke-width="2.5" stroke-linecap="round" stroke-linejoin="round"/>
<path d="M31.8013 19.4427C33.1567 19.009 34.3495 18.2138 35.2892 17.2741C36.9157 15.4668 38 13.2982 38 10.7681C38 8.23794 36.0121 6.25 33.482 6.25H32.3073C32.6687 7.08132 32.8495 8.00301 32.8495 8.96083V14.3825C32.8495 16.1897 32.4699 17.8885 31.8013 19.4427Z" stroke="white" stroke-width="2.5" stroke-linecap="round" stroke-linejoin="round"/>
</svg>
