<svg width="40" height="41" viewBox="0 0 40 41" fill="none" xmlns="http://www.w3.org/2000/svg">
<path d="M13.8418 24.8065C13.8418 27.193 15.6733 29.117 17.9488 29.117H22.5923C24.5718 29.117 26.1813 27.4335 26.1813 25.3615C26.1813 23.1045 25.2008 22.309 23.7393 21.791L16.2838 19.201C14.8223 18.683 13.8418 17.8875 13.8418 15.6305C13.8418 13.5585 15.4513 11.875 17.4308 11.875H22.0743C24.3498 11.875 26.1813 13.799 26.1813 16.1855" stroke="white" stroke-width="2.5" stroke-linecap="round" stroke-linejoin="round"/>
<path d="M20 9.40234V31.6023" stroke="white" stroke-width="2.5" stroke-linecap="round" stroke-linejoin="round"/>
<path d="M25.55 39H14.45C5.2 39 1.5 35.3 1.5 26.05V14.95C1.5 5.7 5.2 2 14.45 2H25.55C34.8 2 38.5 5.7 38.5 14.95V26.05C38.5 35.3 34.8 39 25.55 39Z" stroke="white" stroke-width="2.5" stroke-linecap="round" stroke-linejoin="round"/>
</svg>
