<svg width="38" height="39" viewBox="0 0 38 39" fill="none" xmlns="http://www.w3.org/2000/svg">
<path d="M4.162 25.7373L12.7463 34.3216C16.271 37.8463 21.9939 37.8463 25.5375 34.3216L33.8565 26.0026C37.3812 22.478 37.3812 16.7551 33.8565 13.2115L25.2532 4.6461C23.453 2.84586 20.9706 1.87942 18.4313 2.01207L8.95632 2.46686C5.16634 2.63741 2.15331 5.65045 1.96381 9.42148L1.50901 18.8964C1.39531 21.4547 2.36176 23.9371 4.162 25.7373Z" stroke="white" stroke-width="2.5" stroke-linecap="round" stroke-linejoin="round"/>
<path d="M14.2619 19.4828C16.8783 19.4828 18.9994 17.3617 18.9994 14.7453C18.9994 12.1289 16.8783 10.0078 14.2619 10.0078C11.6455 10.0078 9.52441 12.1289 9.52441 14.7453C9.52441 17.3617 11.6455 19.4828 14.2619 19.4828Z" stroke="white" stroke-width="2.5" stroke-linecap="round"/>
</svg>
