<svg width="21" height="15" viewBox="0 0 21 15" fill="none" xmlns="http://www.w3.org/2000/svg">
<g clip-path="url(#clip0_147_1705)">
<rect width="21" height="15" rx="3" fill="#120065"/>
<path d="M10.5 7.5L20 0.5H22L21.5 14.5H20.5L10.5 7.5Z" fill="white" stroke="#AC002B"/>
<path d="M15.7413 7.88589C15.7413 7.88589 15.3526 7.01551 16.7563 7.09285C16.7563 7.09285 17.0686 5.79044 19.012 5.3584C19.012 5.3584 19.2003 7.1693 17.374 7.81298C17.388 8.16998 17.6472 8.46985 17.9986 8.53514C18.0817 8.55454 18.2068 8.51574 18.2348 8.53514C18.3875 8.67724 17.2668 8.88506 17.0308 8.81384V8.31261C17.0308 8.31261 16.597 8.32236 16.3679 7.74193C16.3609 7.74193 16.2084 7.45181 15.7433 7.88402L15.7413 7.88589Z" fill="#A57939"/>
<path d="M16.8617 6.97686C16.8617 6.97686 16.6476 5.35128 17.1958 5.13867C17.1958 5.13867 17.7218 5.50782 17.7218 5.87687L16.8617 6.97686Z" fill="#6A462F"/>
<path d="M16.5275 7.98009C16.5275 7.98009 16.1941 7.45193 15.859 7.81292C15.859 7.81292 15.3743 6.95212 16.7991 6.98428L16.5275 7.98009Z" fill="white"/>
<path d="M17.3013 8.96178C17.171 8.97462 17.0405 8.93839 16.9355 8.86008C16.8934 8.818 16.8828 8.7536 16.9095 8.70027C16.9308 8.62382 16.9339 8.54347 16.9187 8.46551C16.7415 8.44186 16.4348 8.32306 16.2565 7.81032C16.2467 7.80066 16.2338 7.79464 16.2202 7.79331C16.194 7.78959 16.094 7.79552 15.9 7.98953C15.8661 8.02293 15.8177 8.03684 15.7713 8.02665C15.7249 8.01646 15.6873 7.98236 15.6715 7.93753C15.6002 7.72889 15.6117 7.50089 15.7034 7.30041C15.7963 7.14361 15.9544 7.03642 16.1345 7.00825C16.2795 6.97645 16.4274 6.96023 16.5758 6.95988L16.645 6.95749C16.6583 6.901 16.6692 6.84399 16.6778 6.7866C16.6973 6.64139 16.7078 6.49513 16.7094 6.34863C16.7267 5.86937 16.7482 5.27264 17.1191 5.02354C17.1471 5.00469 17.181 4.99675 17.2145 5.00121C17.3346 5.01122 17.4469 5.0646 17.5305 5.15137C17.6142 5.23815 17.6633 5.35239 17.6689 5.47276C17.6689 5.54921 17.6069 5.61123 17.5305 5.61123C17.4541 5.61123 17.3921 5.54921 17.3921 5.47285C17.3861 5.38178 17.3197 5.30604 17.2301 5.28832C17.0175 5.48658 17.0001 5.96752 16.9861 6.35873C16.9845 6.51724 16.9727 6.67548 16.9509 6.83249C16.9495 6.96006 16.9029 7.08293 16.8193 7.17931C16.7484 7.22467 16.6642 7.24487 16.5803 7.23672C16.4498 7.2368 16.3198 7.25107 16.1924 7.27915C16.0909 7.29182 16.0004 7.34904 15.9454 7.43533C15.9145 7.4949 15.899 7.56127 15.9004 7.62836C16.0042 7.5468 16.1353 7.50815 16.2667 7.52037C16.3166 7.52814 16.364 7.54717 16.4054 7.57601C16.4468 7.60485 16.4811 7.64275 16.5057 7.68683C16.5088 7.69294 16.5115 7.69923 16.5137 7.7057C16.6895 8.22765 17.0002 8.19532 17.0139 8.19293C17.0478 8.18869 17.0822 8.19689 17.1106 8.21603C17.139 8.23516 17.1595 8.26393 17.1683 8.29702C17.202 8.42317 17.2113 8.55459 17.1958 8.68423C17.403 8.69053 17.61 8.66532 17.8096 8.60947C17.4236 8.5463 17.1517 8.19612 17.1862 7.80651C17.1884 7.78442 17.1959 7.76319 17.2081 7.74462C17.2203 7.72605 17.2368 7.7107 17.2561 7.69985C17.4717 7.58043 17.6771 7.44358 17.8703 7.29066C17.858 7.16612 17.8259 7.04432 17.7753 6.92985C17.7473 6.85871 17.7823 6.77836 17.8534 6.75037C17.9245 6.72238 18.0049 6.75737 18.0329 6.8285C18.1805 7.20908 18.1436 7.37022 18.1307 7.41044C18.1222 7.43344 18.1077 7.45377 18.0888 7.46935C17.8923 7.63 17.6829 7.7742 17.4627 7.9005C17.4697 8.00211 17.5082 8.09911 17.5727 8.17787C17.6315 8.23683 17.7016 8.2833 17.7788 8.31448C17.856 8.34566 17.9387 8.3609 18.022 8.35929C18.1272 8.36558 18.3235 8.37737 18.3571 8.52593C18.3707 8.58643 18.358 8.67484 18.2194 8.75112C17.9303 8.881 17.6184 8.95245 17.3016 8.96133L17.3013 8.96178Z" fill="black"/>
<path d="M16.7995 7.30738C16.793 7.30738 16.7866 7.30693 16.7801 7.30605C16.7045 7.29551 16.6516 7.22561 16.662 7.14996C16.7386 6.60125 17.6033 5.90699 17.7016 5.82965C17.7392 5.80201 18.5413 5.21973 19.0895 5.21973C19.1215 5.21972 19.1525 5.23082 19.1773 5.25115C19.202 5.27147 19.2189 5.29976 19.2251 5.33117C19.3101 5.9364 19.1188 6.54774 18.7043 6.99679C18.6739 7.03045 18.629 7.04711 18.584 7.04135C18.539 7.03559 18.4998 7.00822 18.4788 6.968C18.4032 6.82218 18.3122 6.68487 18.2073 6.55846C18.1545 6.50318 18.1564 6.41557 18.2117 6.36277C18.267 6.30997 18.3546 6.31183 18.4074 6.36711C18.4883 6.45751 18.5601 6.55573 18.6217 6.66033C18.8673 6.32806 18.9895 5.9206 18.9673 5.50799C18.5709 5.61952 18.1984 5.80325 17.8687 6.05006C17.6295 6.2383 16.9878 6.81598 16.9359 7.18805C16.9264 7.25635 16.868 7.30729 16.799 7.30747L16.7995 7.30738ZM16.6015 8.82222C16.5888 8.82222 16.5763 8.82045 16.564 8.81708C16.4818 8.79157 16.3961 8.77943 16.3101 8.78112C16.2518 8.82444 16.1698 8.81531 16.1225 8.76021C16.0752 8.70511 16.0785 8.62272 16.1301 8.57161C16.182 8.53607 16.2411 8.51264 16.3032 8.50305C16.3653 8.49347 16.4288 8.49798 16.4889 8.51624L16.5228 8.31284C16.5354 8.23737 16.6068 8.18652 16.6822 8.1991C16.7576 8.21168 16.8086 8.28299 16.796 8.35847L16.738 8.70653C16.7269 8.77323 16.6692 8.82222 16.6015 8.82222Z" fill="black"/>
<path d="M15.1382 8.45996L17.3529 9.38278L15.1382 8.45996Z" fill="white"/>
<path d="M17.3531 9.52209C17.3348 9.52206 17.3167 9.51842 17.2999 9.51137L15.0852 8.58856C15.0396 8.5696 15.0075 8.5277 15.0012 8.47862C14.9948 8.42954 15.0151 8.38082 15.0543 8.35079C15.0736 8.336 15.0964 8.32657 15.1205 8.32343C15.1446 8.32028 15.1691 8.32355 15.1915 8.33289L17.4062 9.25571C17.4671 9.28113 17.5015 9.34589 17.4886 9.41056C17.4757 9.47523 17.419 9.52173 17.3531 9.52182V9.52209Z" fill="black"/>
</g>
<defs>
<clipPath id="clip0_147_1705">
<rect width="21" height="15" rx="3" fill="white"/>
</clipPath>
</defs>
</svg>
