<svg width="21" height="15" viewBox="0 0 21 15" fill="none" xmlns="http://www.w3.org/2000/svg">
<rect width="21" height="15" rx="3" fill="#C8102E"/>
<g clip-path="url(#clip0_147_2905)">
<path d="M0 1.6C0 0.716345 0.716345 0 1.6 0H11.2V6.4C11.2 7.28366 10.4837 8 9.6 8H0V1.6Z" fill="#1A47B8"/>
<path fill-rule="evenodd" clip-rule="evenodd" d="M1.19145 0H0V1.33333L10.0021 8L11.2 8V6.66667L1.19145 0Z" fill="white"/>
<path d="M0.397386 0L11.2 7.2189V8H10.8119L0 0.773631V0H0.397386Z" fill="#F93939"/>
<path fill-rule="evenodd" clip-rule="evenodd" d="M10.1333 0H11.2V1.33333C11.2 1.33333 4.2719 5.77496 1.06667 8H0V6.66667L10.1333 0Z" fill="white"/>
<path d="M11.2 0H10.8383L0 7.22511V8H0.397386L11.2 0.779474V0Z" fill="#F93939"/>
<path fill-rule="evenodd" clip-rule="evenodd" d="M4.07311 0H7.13621V2.46764H11.2V5.53074H7.13621V8H4.07311V5.53074H0V2.46764H4.07311V0Z" fill="white"/>
<path fill-rule="evenodd" clip-rule="evenodd" d="M4.71579 0H6.48421V3.07692H11.2V4.92308H6.48421V8H4.71579V4.92308H0V3.07692H4.71579V0Z" fill="#F93939"/>
</g>
<path d="M19.3104 5V10.9089C19.3104 12.4872 16.1552 13 16.1552 13C16.1552 13 13 12.4872 13 10.9089V5H19.3104Z" fill="white"/>
<path d="M19.3104 10.8764C19.3104 10.877 19.3084 10.9757 19.3083 10.9763C19.2192 12.4782 16.2438 12.9835 16.1571 12.9979C16.1544 12.9984 16.156 12.9984 16.1532 12.9979C16.0652 12.9833 13 12.4628 13 10.9071C13 10.9071 13 10.9071 13 10.9071C13 10.9071 13 10.8846 13.0048 10.8531C13.012 10.8056 13.0636 10.8188 13.0725 10.8661C13.0739 10.8738 13.0755 10.8817 13.0774 10.8898C13.089 10.941 13.1721 11.0085 13.1652 10.9564C13.1585 10.9062 13.2251 10.8179 13.2343 10.8677C13.2404 10.9004 13.249 10.9342 13.2609 10.968C13.2798 11.0217 13.3694 11.1107 13.3583 11.0549C13.3462 10.9946 13.4054 10.8802 13.4179 10.9405C13.4329 11.013 13.4583 11.0817 13.5 11.1316C13.5332 11.1714 13.5883 11.1446 13.5939 11.0931C13.5984 11.0519 13.6019 11.001 13.6009 10.9468C13.5991 10.8556 13.6577 10.8226 13.6794 10.9112C13.6953 10.9762 13.7061 11.0599 13.7061 11.1676C13.7061 11.1783 13.7009 11.2082 13.7068 11.1993C13.7149 11.1871 13.8284 11.1556 13.8341 11.169C13.8499 11.2063 13.8697 11.2381 13.8945 11.2585C13.8998 11.2629 13.9072 11.2619 13.9099 11.2555C13.9181 11.2359 13.9279 11.1837 13.8901 11.064C13.8667 10.9903 13.8688 10.9379 13.8793 10.9029C13.892 10.8605 13.9204 10.878 13.9254 10.922C13.9272 10.9378 13.9302 10.9554 13.9349 10.9742C13.952 11.0417 14.0233 11.0138 14.0282 10.9444C14.0319 10.8911 14.0745 10.9037 14.0873 10.9555C14.0953 10.9879 14.1087 11.0227 14.1307 11.0536C14.1764 11.1178 14.2587 11.0645 14.2239 10.9938C14.2233 10.9924 14.2226 10.991 14.2219 10.9897C14.2209 10.9878 14.2211 10.9887 14.2204 10.9868C14.2014 10.9374 14.2472 10.9288 14.2712 10.9759C14.2785 10.9903 14.2864 11.0043 14.2947 11.0171C14.3123 11.0441 14.3521 11.0709 14.3446 11.0396C14.3355 11.0015 14.389 10.9511 14.4113 10.9832C14.412 10.9843 14.4128 10.9853 14.4136 10.9864C14.4359 11.0176 14.4736 10.9836 14.4635 10.9465C14.4544 10.9127 14.449 10.8745 14.4523 10.8343C14.4547 10.8039 14.4829 10.7839 14.5134 10.7854L15.5122 10.8343L16.0564 10.8602L17.6027 10.751C17.6587 10.747 17.712 10.7251 17.7546 10.6885L17.8719 10.5878C17.925 10.5421 18.0031 10.5568 18.0053 10.6269C18.0063 10.6592 18.0023 10.6974 17.989 10.7406C17.9698 10.8035 18.0112 10.8501 18.051 10.7978C18.0729 10.7691 18.0938 10.7326 18.1109 10.6862C18.1211 10.6586 18.1392 10.6016 18.1473 10.6299C18.1572 10.6645 18.2335 10.756 18.2513 10.7247C18.2624 10.7051 18.2731 10.6844 18.2829 10.6629C18.3002 10.6248 18.3473 10.6273 18.3425 10.6689C18.3391 10.6977 18.3327 10.7293 18.3218 10.7628C18.3031 10.8206 18.3438 10.8615 18.3788 10.8117C18.385 10.8029 18.3911 10.7936 18.3971 10.7837C18.4218 10.7427 18.4642 10.6614 18.4652 10.7093C18.4662 10.7629 18.4926 10.8906 18.526 10.8487C18.5638 10.8013 18.5987 10.7426 18.6197 10.6723C18.633 10.6278 18.6833 10.6191 18.688 10.6653C18.6884 10.6686 18.6887 10.6719 18.6889 10.6753C18.6928 10.7263 18.7314 10.8011 18.7513 10.754C18.7667 10.7176 18.8172 10.6635 18.8212 10.7029C18.823 10.7205 18.8235 10.7407 18.8221 10.7637C18.8193 10.8109 18.8301 10.8958 18.8593 10.8587C18.8901 10.8197 18.98 10.7717 18.9623 10.8181C18.9577 10.8302 18.9526 10.8426 18.9468 10.8553C18.9265 10.8997 18.955 10.9299 18.9869 10.8929C18.9969 10.8814 19.0073 10.8683 19.0179 10.8535C19.0461 10.814 19.0865 10.8233 19.0706 10.8693C19.0679 10.8772 19.0648 10.8854 19.0613 10.894C19.0475 10.9274 19.0707 10.9527 19.0958 10.9267C19.1057 10.9165 19.1161 10.9041 19.1266 10.8892C19.1457 10.8621 19.1909 10.8371 19.1888 10.8701C19.1871 10.8988 19.2062 10.9445 19.2186 10.9186C19.2251 10.9049 19.2317 10.8886 19.2378 10.8695C19.2529 10.8225 19.3076 10.8153 19.3101 10.8645C19.3103 10.8685 19.3104 10.8724 19.3104 10.8764Z" fill="#2F8F22"/>
<path d="M17.6855 7.49115C17.6855 7.49115 17.5759 7.5098 17.435 7.46688C17.2942 7.42398 17.2373 7.4414 17.1936 7.46688C17.1936 7.46688 17.2508 7.35371 17.1117 7.26436C17.1117 7.26436 17.1569 7.37861 17.0943 7.43196C17.0943 7.43196 17.0665 7.45814 17.0334 7.41871C17.0334 7.41871 16.9847 7.36873 16.9335 7.33016C16.9335 7.33016 17.0517 7.28897 17.03 7.16886C17.0082 7.04875 16.9439 7.03298 16.9091 7.01808C16.9091 7.01808 16.9213 7.07244 16.9091 7.10925C16.9091 7.10925 16.7805 7.03736 16.9552 6.93567C17.1299 6.83398 17.0978 6.77437 17.0665 6.72263C17.0352 6.67092 16.9682 6.61394 16.9352 6.59376C16.9352 6.59376 16.97 6.64812 16.9639 6.69459C16.9578 6.74105 16.8787 6.77086 16.8943 6.68934C16.91 6.6078 16.8935 6.62183 16.8917 6.53504C16.8917 6.53504 17.0473 6.58765 17.1082 6.43598C17.1082 6.43598 17.1681 6.27906 16.9717 6.20103C16.9717 6.20103 17.0195 6.26502 16.996 6.31324C16.996 6.31324 16.9543 6.39213 16.9047 6.32814C16.8552 6.26415 16.8239 6.25188 16.8291 6.17647C16.8291 6.17647 17.0073 6.20103 16.9587 6.00727C16.9587 6.00727 16.93 6.13615 16.6987 5.96257C16.6987 5.96257 16.8491 5.80827 16.7909 5.68378C16.7909 5.68378 16.7726 5.62679 16.6092 5.66012C16.6092 5.66012 16.7509 5.5707 16.6909 5.49443C16.6909 5.49443 16.6605 5.44359 16.5283 5.5102C16.5283 5.5102 16.5796 5.42165 16.4501 5.3261C16.4501 5.3261 16.3632 5.3717 16.3171 5.41376C16.3171 5.41376 16.2284 5.30154 16.1719 5.25684C16.1719 5.25684 16.0693 5.2963 16.0433 5.41376C16.0433 5.41376 15.9955 5.35677 15.8868 5.33048C15.8868 5.33048 15.8346 5.42693 15.9024 5.51107C15.9024 5.51107 15.852 5.50931 15.7599 5.46898C15.7599 5.46898 15.6547 5.419 15.6703 5.50931C15.6859 5.59961 15.6938 5.61976 15.7147 5.66185C15.7147 5.66185 15.4786 5.60704 15.4886 5.7346C15.4956 5.82315 15.5286 5.89941 15.6017 5.9634C15.6017 5.9634 15.4695 6.13612 15.3565 6.00635C15.3565 6.00635 15.3174 6.04844 15.4017 6.15889C15.4017 6.15889 15.486 6.25182 15.4165 6.31056C15.4165 6.31056 15.3235 6.38507 15.2783 6.24043C15.2783 6.24043 15.1279 6.39035 15.3052 6.50518C15.3052 6.50518 15.4191 6.57007 15.5356 6.47011C15.5356 6.47011 15.5 6.75766 15.3887 6.70243C15.3887 6.70243 15.3217 6.65334 15.4417 6.5946C15.4417 6.5946 15.2687 6.57269 15.2409 6.74013C15.2409 6.74013 15.2195 6.87336 15.3704 6.92161C15.3704 6.92161 15.4869 6.96369 15.366 7.054C15.366 7.054 15.2808 7.11888 15.3365 7.2153C15.3365 7.2153 15.4034 7.32137 15.2339 7.33189C15.2339 7.33189 15.1418 7.33103 15.1087 7.31875C15.1087 7.31875 15.0715 7.38787 15.0975 7.46685C15.0975 7.46685 15.0131 7.40395 14.821 7.47354C14.6289 7.54317 14.6436 7.49408 14.628 7.51513C14.6123 7.53617 14.575 7.60716 14.575 7.60716C14.575 7.60716 14.6758 7.7299 14.6775 7.72727C14.6793 7.72465 14.6584 7.86753 14.6584 7.86753L14.708 7.8912L15.1035 7.71499L15.5052 7.50569L15.8281 7.52548L16.0329 7.57423L16.3018 7.59382L16.4945 7.49107H16.7735L17.0804 7.644L17.4307 7.85299L17.6133 7.885L17.7539 7.87749V7.59379L17.6855 7.49115Z" fill="#C8102E" stroke="black" stroke-width="0.0231904" stroke-linejoin="round"/>
<path d="M14.4997 7.82315C14.4997 7.82315 14.6527 7.90118 14.7166 7.80649C14.7166 7.80649 14.8 7.64736 14.6168 7.59214C14.6168 7.59214 14.7166 7.47247 14.6096 7.36202C14.6096 7.36202 14.5536 7.30286 14.4557 7.34625C14.4557 7.34625 14.4153 7.26209 14.3201 7.26471C14.3201 7.26471 14.2367 7.2634 14.208 7.35543C14.208 7.35543 14.0932 7.3081 14.0293 7.37647C14.0293 7.37647 13.9237 7.49483 14.0711 7.5882L14.1771 7.59786L14.2814 7.54964L14.3979 7.58296C14.398 7.58293 14.368 7.70086 14.4997 7.82315Z" fill="#C8102E" stroke="black" stroke-width="0.0231904" stroke-linejoin="round"/>
<path d="M17.9148 7.54306C18.0992 7.5257 18.1642 7.68125 18.1642 7.68125C18.2609 7.90791 18.0557 8.02891 18.0557 8.02891C18.0713 8.07976 18.0731 8.14637 18.0731 8.14637C18.3617 8.18145 18.3112 8.50581 18.3112 8.50581L18.2157 8.42692C18.0487 8.36204 17.8766 8.50405 17.7532 8.74251C17.6298 8.98098 17.6889 9.09319 17.7097 9.37547C17.7306 9.65774 18.1896 9.82607 18.1896 9.82607C18.1896 9.82607 17.9722 10.3854 17.8314 10.7448C17.6906 11.1043 17.3967 10.9552 17.3116 10.8795C17.2264 10.8038 17.2051 10.8458 17.162 10.8795C17.119 10.9131 17.355 11.0972 16.9256 11.2708C16.4961 11.4444 16.4214 11.5776 16.3501 11.6215C16.2788 11.6653 15.9815 11.6355 15.9519 11.5987C15.9224 11.5619 15.9398 11.5619 15.8285 11.4935C15.7173 11.4251 15.5295 11.3655 15.3243 11.2655C15.1191 11.1656 15.1243 11.0376 15.1261 11.0113C15.1278 10.985 15.1974 10.7711 14.9571 10.9412C14.7168 11.1112 14.5124 10.8602 14.5124 10.8602C14.4654 10.7985 14.2655 10.2626 14.2655 10.2626C14.2116 10.0628 14.1055 9.82956 14.1055 9.82956C14.1107 9.8278 14.0951 9.85412 14.2724 9.75243C14.4498 9.65074 14.5292 9.48154 14.5906 9.3141C14.652 9.14666 14.5923 8.86 14.5697 8.80212C14.5471 8.74427 14.415 8.47899 14.2513 8.4234C14.0877 8.36781 13.978 8.50581 13.978 8.50581C13.978 8.50581 13.9275 8.18145 14.2162 8.14637C14.2162 8.14637 14.2179 8.07976 14.2335 8.02891C14.2335 8.02891 14.0284 7.90794 14.125 7.68125C14.125 7.68125 14.1901 7.5257 14.3744 7.54306L14.3298 7.62739C14.3298 7.62739 14.2834 8.09028 14.9609 7.77993C15.6385 7.46958 15.6181 7.41173 16.0041 7.60635L16.2858 7.60111C16.2858 7.60111 16.6926 7.4129 16.823 7.49386C16.9534 7.57482 17.4228 7.83781 17.4228 7.83781C17.4228 7.83781 17.8766 8.00798 17.9653 7.69409L17.9148 7.54306Z" fill="#64B4D1" stroke="black" stroke-width="0.0173858"/>
<path d="M15.8763 9.55068C15.8763 9.55068 15.8527 9.40861 15.828 9.3166C15.828 9.3166 15.7777 9.17221 15.8635 9.07086L15.9698 8.94843C15.9698 8.94843 16.036 8.85949 16.1178 8.84741C16.1178 8.84741 16.1997 8.84498 16.2075 8.82832C16.2153 8.81166 16.3048 8.66431 16.5178 8.82832C16.5178 8.82832 16.5856 8.71962 16.6899 8.7012C16.6899 8.7012 16.8026 8.66702 16.8571 8.75118C16.8571 8.75118 16.9838 8.65516 17.0924 8.80971C17.0924 8.80971 17.2428 8.72512 17.3524 8.89331C17.3524 8.89331 17.501 8.82081 17.5923 8.97536C17.6836 9.12991 17.6653 9.19303 17.6653 9.19303L17.7331 9.4385L17.9731 9.73481L17.415 9.9452H17.1646L16.6639 10.0793L15.7746 10.1477L15.5269 9.85576L15.8763 9.55068Z" fill="white" stroke="#012169" stroke-width="0.0231821" stroke-miterlimit="10"/>
<path d="M15.1246 11.0293C15.1246 11.0293 14.9916 11.0372 14.9238 11.0714C14.856 11.1056 14.8038 11.1424 14.7256 11.1924C14.7256 11.1924 14.6891 11.241 14.5352 11.2114C14.5352 11.2114 14.2692 11.1476 14.2692 11.3554C14.2692 11.3554 13.951 11.3817 14.0814 11.6605C14.0814 11.6605 14.1701 11.8788 14.3526 11.7236C14.3526 11.7236 14.2353 11.8919 14.4622 11.9577C14.4622 11.9577 14.6239 11.9972 14.6708 11.8314C14.6708 11.8314 14.6969 11.7657 14.6343 11.6842C14.6343 11.6842 14.7126 11.6684 14.7673 11.5842C14.7673 11.5842 14.6004 11.7952 14.783 11.8712C14.783 11.8712 15.0124 11.9287 15.0255 11.6894C15.0255 11.6894 15.0067 11.5789 15.0957 11.5395C15.0957 11.5395 15.2785 11.4974 15.3619 11.2936C15.3619 11.2936 15.0991 11.1536 15.1246 11.0293Z" fill="#C8102E" stroke="black" stroke-width="0.0231904" stroke-linejoin="round"/>
<path d="M14.5877 8.93164C14.5877 8.93164 14.3825 8.83715 14.2851 8.93164C14.2851 8.93164 14.1495 8.84767 14.007 8.93164C14.007 8.93164 13.8713 9.02028 13.7775 9.11789C13.7775 9.11789 13.7114 9.17446 13.7357 9.35278C13.7357 9.35278 13.7705 9.4785 13.7496 9.54163C13.7496 9.54163 13.7044 9.53267 13.614 9.6398C13.614 9.6398 13.4993 9.7727 13.3984 9.6554C13.3984 9.6554 13.4297 9.81866 13.6192 9.79234C13.6192 9.79234 13.5271 9.86423 13.6071 10.0501C13.6071 10.0501 13.6662 10.1816 13.5723 10.3464C13.5723 10.3464 13.7375 10.2798 13.7305 10.0852C13.7305 10.0852 13.7166 9.95367 13.7653 9.86074C13.7653 9.86074 13.7166 9.94524 13.8296 10.1255C13.8296 10.1255 13.9165 10.2552 13.8453 10.3902C13.8453 10.3902 14.0087 10.3306 13.993 10.1325C13.9774 9.93436 13.8783 10.0168 13.9426 9.83443C13.9426 9.83443 13.9583 9.92783 14.0069 9.97494C14.0556 10.022 14.1182 10.1009 14.0921 10.2324C14.0921 10.2324 14.1895 10.1115 14.1669 9.98696C14.1443 9.86247 14.12 9.82483 14.12 9.82483L14.4277 9.65033L14.5807 9.3733L14.5877 8.93164Z" fill="#C8102E" stroke="black" stroke-width="0.0231904" stroke-linejoin="round"/>
<path d="M14.12 9.71341C14.12 9.71341 13.993 9.70465 13.9722 9.60645" stroke="black" stroke-width="0.0231821" stroke-miterlimit="10"/>
<path d="M13.7495 9.542C13.7495 9.542 13.7937 9.54025 13.8337 9.58057C13.8337 9.58057 13.8643 9.62617 13.9077 9.6209" stroke="black" stroke-width="0.0231821" stroke-miterlimit="10"/>
<path d="M14.3075 9.33948C14.3075 9.33948 14.2415 9.33948 14.205 9.30792C14.205 9.30792 14.1667 9.28163 14.1441 9.32369C14.1441 9.32369 14.1093 9.38329 14.1736 9.40961C14.1736 9.40961 14.2536 9.44994 14.1267 9.53059C14.1267 9.53059 14.278 9.47622 14.2171 9.40261C14.2171 9.40261 14.1511 9.35528 14.1754 9.33772C14.1754 9.33772 14.1824 9.32369 14.2084 9.34124C14.2345 9.35877 14.2867 9.35176 14.3075 9.33948Z" fill="black"/>
<path d="M16.3815 9.67561L15.8731 7.91992L15.8545 7.92492L16.3037 9.7019L16.3815 9.67561Z" fill="#784421" stroke="black" stroke-width="0.0173858"/>
<path d="M14.6109 11.6448C14.6109 11.6448 14.4909 11.5774 14.3918 11.6563C14.3918 11.6563 14.402 11.6125 14.4778 11.5932C14.4778 11.5932 14.5188 11.4775 14.6335 11.488C14.6335 11.488 14.5866 11.5441 14.524 11.5914C14.524 11.5914 14.5901 11.5983 14.6109 11.6448Z" fill="black"/>
<path d="M14.1883 11.9232C14.1883 11.9232 13.9979 11.8035 14.1009 11.6023C14.1009 11.6023 14.1309 11.5445 14.1883 11.5563C14.1883 11.5563 14.3069 11.5931 14.2143 11.7575C14.2143 11.7575 14.1674 11.864 14.1883 11.9232Z" fill="#64B4D1" stroke="#012169" stroke-width="0.0173858" stroke-miterlimit="2.613"/>
<path d="M14.5746 12.1129C14.5746 12.1129 14.3034 11.9893 14.3868 11.7789C14.3868 11.7789 14.4126 11.7079 14.4727 11.7132C14.4727 11.7132 14.5773 11.7184 14.5564 11.8578C14.5564 11.8578 14.525 11.9946 14.5746 12.1129Z" fill="#64B4D1" stroke="#012169" stroke-width="0.0173858" stroke-miterlimit="2.613"/>
<path d="M14.5169 11.3281C14.5169 11.3281 14.4354 11.3883 14.4023 11.4286C14.4023 11.4286 14.3691 11.3875 14.3257 11.3625C14.3257 11.3625 14.3757 11.3559 14.4023 11.3784C14.4023 11.3784 14.4439 11.3381 14.5169 11.3281Z" fill="black"/>
<path d="M14.7583 12.0607C14.7583 12.0607 14.9708 12.0068 14.9317 11.7872C14.9317 11.7872 14.9109 11.6912 14.8209 11.7044C14.8209 11.7044 14.7125 11.732 14.7831 11.8716C14.7831 11.8716 14.8248 11.9713 14.7583 12.0607Z" fill="#64B4D1" stroke="#012169" stroke-width="0.0173858" stroke-miterlimit="2.613"/>
<path d="M15.7185 7.41406C15.7185 7.41406 15.8554 7.45603 15.9298 7.48634C15.9298 7.48634 16.128 7.57575 16.3796 7.48634C16.3796 7.48634 16.5498 7.41895 16.5725 7.41406L16.4422 7.61259L16.4357 7.71515L16.5172 7.83481C16.5172 7.83481 16.4683 7.85454 16.3222 7.7651C16.3222 7.7651 16.1605 7.64019 15.9675 7.7651C15.9675 7.7651 15.8619 7.83665 15.7733 7.83481L15.8984 7.69503L15.8502 7.56917L15.7185 7.41406Z" fill="#F5CE00" stroke="black" stroke-width="0.0231821" stroke-miterlimit="2.613"/>
<path d="M14.8404 11.7979C14.8404 11.7979 14.8482 11.7874 14.8391 11.7828C14.8391 11.7828 14.83 11.7789 14.8234 11.7917C14.8234 11.7917 14.8013 11.8268 14.82 11.875C14.82 11.875 14.8378 11.9084 14.8292 11.9432C14.8292 11.9432 14.828 11.9531 14.8358 11.9544C14.8358 11.9544 14.8433 11.9518 14.8448 11.9446C14.8448 11.9446 14.8554 11.9106 14.8371 11.8773C14.8371 11.8773 14.815 11.8256 14.8404 11.7979Z" fill="white"/>
<path d="M17.7844 7.82413C17.7844 7.82413 17.6314 7.90215 17.5675 7.80746C17.5675 7.80746 17.4841 7.64834 17.6673 7.59311C17.6673 7.59311 17.5675 7.47345 17.6745 7.363C17.6745 7.363 17.7305 7.30383 17.8284 7.34723C17.8284 7.34723 17.8688 7.26306 17.964 7.26569C17.964 7.26569 18.0474 7.26437 18.0761 7.35641C18.0761 7.35641 18.1909 7.30908 18.2547 7.37745C18.2547 7.37745 18.3604 7.4958 18.213 7.58918L18.107 7.59883L18.0027 7.55061L17.8862 7.58393C17.8861 7.5839 17.9161 7.70184 17.7844 7.82413Z" fill="#C8102E" stroke="black" stroke-width="0.0231904" stroke-linejoin="round"/>
<path d="M16.5729 7.70013C16.5729 7.70013 16.569 7.73169 16.5377 7.73521C16.5377 7.73521 16.5051 7.74573 16.486 7.70507C16.486 7.70507 16.4838 7.69586 16.4833 7.69137C16.4811 7.67236 16.4746 7.61772 16.5338 7.57301C16.5338 7.57301 16.6303 7.49412 16.8145 7.58967C16.8145 7.58967 16.9606 7.6598 17.0614 7.71941C17.0614 7.71941 17.3222 7.85967 17.3535 7.87019C17.3535 7.87019 17.4683 7.92804 17.6439 7.93507C17.6439 7.93507 17.8838 7.9526 17.9855 7.7843C17.9855 7.7843 18.0629 7.65631 17.9855 7.57477C17.9855 7.57477 17.9542 7.53796 17.9028 7.54474C17.8812 7.54759 17.8573 7.55753 17.8343 7.58443C17.8343 7.58443 17.7969 7.63879 17.8403 7.67911C17.8403 7.67911 17.8969 7.71375 17.9168 7.64055C17.9168 7.64055 17.9177 7.6353 17.9194 7.64186C17.9205 7.6461 17.9333 7.70191 17.9034 7.74924C17.9034 7.74924 17.7586 7.96828 17.3605 7.74129L16.8354 7.44679C16.8354 7.44679 16.572 7.31178 16.4146 7.52306C16.4146 7.52306 16.2877 7.6984 16.4511 7.81323C16.4511 7.81323 16.5728 7.88599 16.6493 7.77029C16.6493 7.77029 16.7128 7.65632 16.6128 7.60636C16.6128 7.60636 16.525 7.56517 16.4903 7.65283C16.4555 7.74048 16.5581 7.76328 16.5676 7.70105C16.5677 7.70099 16.5703 7.68609 16.5729 7.70013Z" fill="#F5CE00" stroke="black" stroke-width="0.0231821" stroke-miterlimit="2.613"/>
<path d="M14.4915 8.60416C14.4915 8.60416 14.4915 8.33064 14.4915 8.27542C14.4915 8.2496 14.4917 8.22809 14.5308 8.19652C14.5699 8.16496 14.6116 8.11498 14.6716 8.25703C14.6716 8.25703 14.7889 8.13343 14.8281 8.11501C14.8281 8.11501 14.8959 8.05716 14.9428 8.1413C14.9428 8.1413 15.0054 8.04661 15.0549 8.02295C15.0549 8.02295 15.1723 7.94668 15.1775 8.17548L15.2688 8.09132C15.2688 8.09132 15.3392 8.03347 15.4175 8.11236C15.4175 8.11236 15.5505 8.24123 15.5687 8.27804C15.5687 8.27804 15.5981 8.31792 15.6003 8.38082C15.6003 8.38082 15.6 8.45162 15.6365 8.49105C15.6365 8.49105 15.6782 8.52786 15.7186 8.53576C15.7186 8.53576 15.8138 8.53838 15.8477 8.62779C15.8477 8.62779 15.8634 8.61231 15.9103 9.04084V9.82181L15.3835 10.4504L14.5385 10.2084L14.2021 10.069L14.1265 9.82181L14.4525 9.61142L14.6298 9.13276L14.5724 8.79613L14.4915 8.60416Z" fill="#E4CB5E" stroke="black" stroke-width="0.0173858" stroke-miterlimit="2.613"/>
<path d="M16.8196 9.019L16.8596 8.95939L16.9552 8.88574C16.9552 8.88574 17.1012 9.26901 17.1082 9.35265V9.47159C17.1082 9.47159 17.3273 9.52748 17.3655 9.86412L17.1847 10.1972L16.9013 10.0394L16.8196 9.97982V9.019H16.8196Z" fill="#784421" stroke="black" stroke-width="0.0173858"/>
<path d="M14.1357 11.652C14.1357 11.652 14.1461 11.6381 14.1389 11.6322C14.1389 11.6322 14.1344 11.6256 14.122 11.6414C14.122 11.6414 14.0644 11.7058 14.1103 11.8048C14.1103 11.8048 14.1155 11.8189 14.1246 11.8143C14.1246 11.8143 14.1324 11.8104 14.1252 11.7986C14.1252 11.7986 14.0842 11.717 14.1357 11.652Z" fill="white"/>
<path d="M14.9898 11.5857C14.9898 11.5857 14.9985 11.5558 14.9776 11.5243C14.9776 11.5243 14.9637 11.5015 14.9689 11.4717" stroke="black" stroke-width="0.0231821" stroke-miterlimit="10"/>
<path d="M15.1772 8.17578C15.1772 8.17578 15.178 8.25799 15.2015 8.3185C15.225 8.379 15.3042 8.48362 15.3094 8.54016" stroke="black" stroke-width="0.0173858" stroke-miterlimit="10"/>
<path d="M17.1646 11.0293C17.1646 11.0293 17.2976 11.0372 17.3654 11.0714C17.4332 11.1056 17.4854 11.1424 17.5636 11.1924C17.5636 11.1924 17.6001 11.241 17.754 11.2114C17.754 11.2114 18.02 11.1476 18.02 11.3554C18.02 11.3554 18.3381 11.3817 18.2077 11.6605C18.2077 11.6605 18.1191 11.8788 17.9365 11.7236C17.9365 11.7236 18.0539 11.8919 17.827 11.9577C17.827 11.9577 17.6653 11.9972 17.6184 11.8314C17.6184 11.8314 17.5923 11.7657 17.6549 11.6842C17.6549 11.6842 17.5766 11.6684 17.5219 11.5842C17.5219 11.5842 17.6888 11.7952 17.5062 11.8712C17.5062 11.8712 17.2768 11.9287 17.2637 11.6894C17.2637 11.6894 17.2824 11.5789 17.1935 11.5395C17.1935 11.5395 17.0107 11.4974 16.9272 11.2936C16.9272 11.2936 17.1901 11.1536 17.1646 11.0293Z" fill="#C8102E" stroke="black" stroke-width="0.0231904" stroke-linejoin="round"/>
<path d="M15.0728 8.53711L15.2898 10.2891" stroke="black" stroke-width="0.0173858" stroke-miterlimit="10"/>
<path d="M15.1228 8.53418L15.3662 10.1672" stroke="black" stroke-width="0.0173858" stroke-miterlimit="10"/>
<path d="M15.1685 8.52637L15.4488 10.146" stroke="black" stroke-width="0.0173858" stroke-miterlimit="10"/>
<path d="M15.6894 9.98128L15.181 8.22559L15.1624 8.23058L15.6116 10.0076L15.6894 9.98128Z" fill="#784421" stroke="black" stroke-width="0.0173858"/>
<path d="M15.3235 8.46387L15.8369 9.76119" stroke="black" stroke-width="0.0173858" stroke-miterlimit="10"/>
<path d="M15.2896 8.48535L15.7851 9.84058" stroke="black" stroke-width="0.0173858" stroke-miterlimit="10"/>
<path d="M14.4766 11.9886C14.4766 11.9886 14.417 11.9314 14.4253 11.829C14.4253 11.829 14.4288 11.8071 14.4179 11.8041C14.4179 11.8041 14.4062 11.7992 14.4045 11.8246C14.4045 11.8246 14.3879 11.9316 14.4601 11.993C14.4601 11.993 14.465 11.9991 14.473 11.9973C14.473 11.9973 14.4815 11.9954 14.4766 11.9886Z" fill="white"/>
<path d="M15.3469 8.44629L15.8763 9.62973" stroke="black" stroke-width="0.0173858" stroke-miterlimit="10"/>
<path d="M15.2024 8.52148L15.5271 10.1153" stroke="black" stroke-width="0.0173858" stroke-miterlimit="10"/>
<path d="M17.8584 9.70196C17.6265 9.57038 17.5756 9.27845 17.5756 9.27845C17.5196 8.98783 17.633 8.75771 17.633 8.75771C17.783 8.4408 18.0399 8.38184 18.0399 8.38184C18.0399 8.38184 17.7882 8.5565 17.7178 8.7919C17.7178 8.7919 17.663 8.99045 17.6943 9.18638C17.7256 9.38232 17.7139 9.33234 17.7621 9.48356L17.8584 9.70196Z" fill="#F5CE00" stroke="black" stroke-width="0.0231821" stroke-miterlimit="2.613"/>
<path d="M16.8595 8.95996L15.8851 9.26763L15.832 9.70169C15.6008 10.0367 15.1309 10.0961 15.1309 10.0961L15.4964 10.4853L16.1988 10.6326L16.5674 10.3486L16.9013 10.04C16.8665 9.87519 16.8856 9.63061 16.8856 9.63061C16.8856 9.58942 16.9013 9.49298 16.9013 9.49298C16.9013 9.49298 16.8439 9.09673 16.8595 8.95996Z" fill="#784421" stroke="black" stroke-width="0.0106157"/>
<path d="M15.8459 9.59275C15.8459 9.59275 16.4877 9.39236 16.8704 9.23145" stroke="black" stroke-width="0.0173858" stroke-miterlimit="10"/>
<path d="M15.5378 9.95875C15.5378 9.95875 16.3385 9.81411 16.9018 9.49327L17.1087 9.35352" stroke="black" stroke-width="0.0173858" stroke-miterlimit="10"/>
<path d="M17.1086 9.47168L16.886 9.63013C16.886 9.63013 15.9906 10.043 15.3088 10.0541" stroke="black" stroke-width="0.0173858" stroke-miterlimit="10"/>
<path d="M16.886 9.9248C16.886 9.9248 16.1977 10.2792 15.803 10.2845" stroke="black" stroke-width="0.0173858" stroke-miterlimit="10"/>
<path d="M17.7063 8.93262C17.7063 8.93262 17.9115 8.83813 18.0088 8.93262C18.0088 8.93262 18.1445 8.84865 18.287 8.93262C18.287 8.93262 18.4226 9.02125 18.5165 9.11887C18.5165 9.11887 18.5826 9.17544 18.5582 9.35376C18.5582 9.35376 18.5235 9.47948 18.5443 9.5426C18.5443 9.5426 18.5895 9.53365 18.68 9.64078C18.68 9.64078 18.7947 9.77367 18.8955 9.65638C18.8955 9.65638 18.8643 9.81963 18.6747 9.79332C18.6747 9.79332 18.7669 9.86521 18.6869 10.0511C18.6869 10.0511 18.6278 10.1826 18.7217 10.3474C18.7217 10.3474 18.5565 10.2808 18.5635 10.0861C18.5635 10.0861 18.5774 9.95465 18.5287 9.86172C18.5287 9.86172 18.5774 9.94622 18.4644 10.1265C18.4644 10.1265 18.3775 10.2562 18.4487 10.3912C18.4487 10.3912 18.2853 10.3316 18.3009 10.1335C18.3166 9.93534 18.4157 10.0177 18.3514 9.8354C18.3514 9.8354 18.3357 9.92878 18.287 9.97591C18.2384 10.023 18.1758 10.1019 18.2018 10.2334C18.2018 10.2334 18.1045 10.1124 18.1271 9.98794C18.1497 9.86345 18.174 9.8258 18.174 9.8258L17.8663 9.6513L17.7133 9.37427L17.7063 8.93262Z" fill="#C8102E" stroke="black" stroke-width="0.0231904" stroke-linejoin="round"/>
<path d="M14.2202 10.0404C14.2202 10.0404 14.2489 9.90446 14.3793 9.95793C14.3793 9.95793 14.4237 9.73526 14.661 9.72739C14.8983 9.71949 14.9113 9.95882 14.9113 9.97462C14.9113 9.97462 14.981 9.87186 15.0974 9.88378C15.0974 9.88378 15.2981 9.87195 15.2234 10.1942L15.2613 10.2346C15.2613 10.2346 15.4146 9.87465 15.7302 9.96934C15.7302 9.96934 16.0379 10.0631 15.8372 10.3612C15.8372 10.3612 15.989 10.5585 16.1178 10.54C16.2466 10.5216 16.3614 10.4822 16.4891 10.256C16.6169 10.0298 16.9142 9.99563 16.9899 10.0088C17.0655 10.0219 17.1252 10.071 17.1376 10.1245C17.1376 10.1245 17.295 9.5991 17.8609 9.68165L18.0878 9.79576L18.1739 9.83522L18.0456 10.1973L17.733 10.9037L17.4958 10.9767L17.248 10.8346L17.162 10.8808L17.1549 11.0924L16.8281 11.3276L16.6013 11.4211L16.3509 11.5921L16.2927 11.7449C16.2927 11.7449 16.1544 11.6866 15.9983 11.7449L15.9467 11.6184L15.8007 11.479L15.2333 11.2114L15.1308 10.8808L15.0272 10.8346L14.9113 10.9674L14.7418 10.9872L14.4888 10.8162L14.2202 10.0404Z" fill="white" stroke="#012169" stroke-width="0.0231821" stroke-miterlimit="10"/>
<path d="M16.6913 7.46686C16.6913 7.46686 16.4748 7.45723 16.4826 7.68165" stroke="black" stroke-width="0.0231821" stroke-miterlimit="2.613"/>
<path d="M18.116 9.84982C17.7391 9.73409 17.6361 9.32908 17.6361 9.32908C17.5592 9.02532 17.6831 8.7597 17.6831 8.7597C17.8552 8.35548 18.1464 8.35556 18.1464 8.35556C18.2925 8.35162 18.31 8.47654 18.31 8.47654C18.3238 8.56508 18.2616 8.59706 18.2616 8.59706C18.1617 8.65143 18.0986 8.57778 18.0986 8.57778C18.0569 8.52342 18.089 8.47522 18.089 8.47522C18.1147 8.43928 18.1638 8.45505 18.1638 8.45505C18.2027 8.4671 18.1986 8.51574 18.1986 8.51574C18.1988 8.51706 18.1997 8.51706 18.1997 8.51706C18.2014 8.51661 18.2008 8.51597 18.2008 8.51597C18.2008 8.51597 18.2094 8.45636 18.1512 8.45022C18.1512 8.45022 18.0378 8.42566 17.9048 8.59137C17.9048 8.59137 17.7296 8.81493 17.73 9.10421C17.73 9.10421 17.7079 9.6473 18.2738 9.78801C18.2738 9.78801 18.2125 9.87611 18.1043 10.1943C18.1043 10.1943 17.9817 10.6033 17.8647 10.8244C17.8647 10.8244 17.7092 11.1398 17.3623 11.0109C17.3623 11.0109 17.1558 10.9202 17.1563 10.7703C17.1563 10.7703 17.1419 10.6335 17.2658 10.623C17.2658 10.623 17.3871 10.6138 17.3858 10.7177C17.3858 10.7177 17.389 10.8301 17.2567 10.8045C17.2567 10.8045 17.2104 10.7946 17.2189 10.7493C17.2189 10.7493 17.2263 10.7085 17.2821 10.7262C17.2821 10.7262 17.2838 10.7265 17.2841 10.7256C17.2841 10.7256 17.2847 10.7246 17.2827 10.724C17.2827 10.724 17.2611 10.7144 17.2383 10.7224C17.2383 10.7224 17.2179 10.7292 17.2162 10.7611C17.2162 10.7611 17.2149 10.7867 17.2423 10.8012C17.2423 10.8012 17.2756 10.813 17.3017 10.8104C17.3017 10.8104 17.3367 10.8812 17.4161 10.9052C17.5266 10.9386 17.6176 10.9064 17.6733 10.862C17.7339 10.8136 17.7731 10.7292 17.7848 10.7085C17.7965 10.6877 17.8982 10.4599 17.9747 10.2149C17.9747 10.2149 18.0417 10.0036 18.0951 9.89316L18.116 9.84982Z" fill="#F5CE00" stroke="black" stroke-width="0.0231821" stroke-miterlimit="2.613"/>
<path d="M17.0526 10.8811C17.0526 10.8811 17.123 10.8716 17.123 10.9343C17.123 10.9343 17.1187 11.0261 17.0069 11.006C17.0069 11.006 16.8967 10.9819 16.9358 10.8587C16.9358 10.8587 16.9619 10.7719 17.0662 10.7844C17.0662 10.7844 17.1673 10.789 17.2116 10.9271C17.2116 10.9271 17.2455 11.0435 17.1875 11.1434C17.1227 11.2549 16.9589 11.3282 16.8798 11.3606C16.8798 11.3606 16.5629 11.4851 16.4684 11.5563C16.4684 11.5563 16.3234 11.6639 16.3875 11.7641C16.3875 11.7641 16.4123 11.8022 16.4495 11.8022C16.4495 11.8022 16.4919 11.8042 16.4991 11.7608C16.4991 11.7608 16.4993 11.76 16.4986 11.7589C16.4986 11.7589 16.498 11.7589 16.4977 11.7599C16.4977 11.7599 16.4947 11.7865 16.4717 11.7963C16.4717 11.7963 16.4408 11.8119 16.4084 11.7845C16.4084 11.7845 16.3741 11.7516 16.4028 11.7006C16.4028 11.7006 16.4404 11.6377 16.528 11.6749C16.528 11.6749 16.6051 11.7131 16.5734 11.795C16.5734 11.795 16.5452 11.8705 16.4521 11.8703C16.4521 11.8703 16.3821 11.8679 16.3373 11.821C16.2674 11.7477 16.2636 11.6049 16.3252 11.5311C16.3252 11.5311 16.3834 11.4527 16.5004 11.4049C16.5681 11.3772 16.696 11.3216 16.829 11.2695C16.9225 11.2328 17.0081 11.1889 17.0637 11.1231C17.0637 11.1231 17.1133 11.0678 17.1276 10.9731C17.1276 10.9731 17.1413 10.9021 17.098 10.8866C17.098 10.8866 17.0761 10.8767 17.052 10.88C17.052 10.88 17.0513 10.88 17.0512 10.8804C17.0511 10.8805 17.0501 10.8815 17.0526 10.8811Z" fill="#F5CE00" stroke="black" stroke-width="0.0231821" stroke-miterlimit="2.613"/>
<path d="M17.0583 10.8797C17.0583 10.8797 17.1362 10.8656 17.1848 10.9581C17.1848 10.9581 17.2135 11.0177 17.2181 11.0522" stroke="black" stroke-width="0.0231821" stroke-miterlimit="2.613"/>
<path d="M17.2431 10.7217C17.2431 10.7217 17.1652 10.7352 17.2053 10.8454C17.2431 10.9493 17.3134 10.9834 17.3342 10.9978" stroke="black" stroke-width="0.0231821" stroke-miterlimit="2.613"/>
<path d="M15.719 7.69915C15.719 7.69915 15.7228 7.73071 15.7542 7.73423C15.7542 7.73423 15.7868 7.74475 15.8058 7.70409C15.8058 7.70409 15.808 7.69488 15.8085 7.69039C15.8107 7.67138 15.8172 7.61674 15.7581 7.57204C15.7581 7.57204 15.6616 7.49315 15.4773 7.5887C15.4773 7.5887 15.3313 7.65883 15.2304 7.71844C15.2304 7.71844 14.9696 7.85869 14.9383 7.86922C14.9383 7.86922 14.8236 7.92707 14.648 7.9341C14.648 7.9341 14.408 7.95162 14.3064 7.78332C14.3064 7.78332 14.229 7.65534 14.3064 7.5738C14.3064 7.5738 14.3376 7.53699 14.3891 7.54377C14.4107 7.54661 14.4346 7.55655 14.4576 7.58345C14.4576 7.58345 14.495 7.63781 14.4515 7.67814C14.4515 7.67814 14.395 7.71277 14.375 7.63957C14.375 7.63957 14.3742 7.63432 14.3724 7.64088C14.3713 7.64512 14.3585 7.70094 14.3885 7.74827C14.3885 7.74827 14.5332 7.96731 14.9314 7.74031L15.4564 7.44582C15.4564 7.44582 15.7199 7.3108 15.8772 7.52208C15.8772 7.52208 16.0041 7.69742 15.8407 7.81226C15.8407 7.81226 15.719 7.88501 15.6425 7.76931C15.6425 7.76931 15.579 7.65534 15.679 7.60539C15.679 7.60539 15.7668 7.5642 15.8016 7.65185C15.8363 7.73951 15.7338 7.7623 15.7242 7.70007C15.7242 7.70004 15.7216 7.68514 15.719 7.69915Z" fill="#F5CE00" stroke="black" stroke-width="0.0231821" stroke-miterlimit="2.613"/>
<path d="M14.4335 9.69903C14.6654 9.56745 14.7163 9.27552 14.7163 9.27552C14.7723 8.9849 14.6589 8.75478 14.6589 8.75478C14.5089 8.43787 14.252 8.37891 14.252 8.37891C14.252 8.37891 14.5037 8.55357 14.5741 8.78897C14.5741 8.78897 14.6289 8.98752 14.5976 9.18345C14.5663 9.37939 14.578 9.32941 14.5298 9.48063L14.4335 9.69903Z" fill="#F5CE00" stroke="black" stroke-width="0.0231821" stroke-miterlimit="2.613"/>
<path d="M15.6008 7.46686C15.6008 7.46686 15.8174 7.45723 15.8095 7.68165" stroke="black" stroke-width="0.0231821" stroke-miterlimit="2.613"/>
<path d="M14.1765 9.84982C14.5533 9.73409 14.6563 9.32908 14.6563 9.32908C14.7333 9.02532 14.6094 8.7597 14.6094 8.7597C14.4373 8.35548 14.146 8.35556 14.146 8.35556C14 8.35162 13.9825 8.47654 13.9825 8.47654C13.9687 8.56508 14.0308 8.59706 14.0308 8.59706C14.1308 8.65143 14.1938 8.57778 14.1938 8.57778C14.2356 8.52342 14.2034 8.47522 14.2034 8.47522C14.1778 8.43928 14.1286 8.45505 14.1286 8.45505C14.0897 8.4671 14.0939 8.51574 14.0939 8.51574C14.0936 8.51706 14.0928 8.51706 14.0928 8.51706C14.091 8.51661 14.0917 8.51597 14.0917 8.51597C14.0917 8.51597 14.083 8.45636 14.1413 8.45022C14.1413 8.45022 14.2547 8.42566 14.3877 8.59137C14.3877 8.59137 14.5628 8.81493 14.5624 9.10421C14.5624 9.10421 14.5846 9.6473 14.0187 9.78801C14.0187 9.78801 14.0799 9.87611 14.1882 10.1943C14.1882 10.1943 14.3107 10.6033 14.4277 10.8244C14.4277 10.8244 14.5833 11.1398 14.9301 11.0109C14.9301 11.0109 15.1367 10.9202 15.1362 10.7703C15.1362 10.7703 15.1505 10.6335 15.0266 10.623C15.0266 10.623 14.9054 10.6138 14.9067 10.7177C14.9067 10.7177 14.9034 10.8301 15.0358 10.8045C15.0358 10.8045 15.0821 10.7946 15.0736 10.7493C15.0736 10.7493 15.0662 10.7085 15.0104 10.7262C15.0104 10.7262 15.0086 10.7265 15.0084 10.7256C15.0084 10.7256 15.0078 10.7246 15.0097 10.724C15.0097 10.724 15.0313 10.7144 15.0541 10.7224C15.0541 10.7224 15.0746 10.7292 15.0762 10.7611C15.0762 10.7611 15.0775 10.7867 15.0501 10.8012C15.0501 10.8012 15.0169 10.813 14.9908 10.8104C14.9908 10.8104 14.9557 10.8812 14.8763 10.9052C14.7659 10.9386 14.6749 10.9064 14.6192 10.862C14.5586 10.8136 14.5194 10.7292 14.5077 10.7085C14.4959 10.6877 14.3942 10.4599 14.3177 10.2149C14.3177 10.2149 14.2508 10.0036 14.1973 9.89316L14.1765 9.84982Z" fill="#F5CE00" stroke="black" stroke-width="0.0231821" stroke-miterlimit="2.613"/>
<path d="M15.2397 10.8811C15.2397 10.8811 15.1693 10.8716 15.1693 10.9343C15.1693 10.9343 15.1736 11.0261 15.2854 11.006C15.2854 11.006 15.3955 10.9819 15.3564 10.8587C15.3564 10.8587 15.3304 10.7719 15.226 10.7844C15.226 10.7844 15.125 10.789 15.0806 10.9271C15.0806 10.9271 15.0467 11.0435 15.1048 11.1434C15.1695 11.2549 15.3334 11.3282 15.4125 11.3606C15.4125 11.3606 15.7294 11.4851 15.8239 11.5563C15.8239 11.5563 15.9688 11.6639 15.9047 11.7641C15.9047 11.7641 15.88 11.8022 15.8428 11.8022C15.8428 11.8022 15.8004 11.8042 15.7932 11.7608C15.7932 11.7608 15.793 11.76 15.7937 11.7589C15.7937 11.7589 15.7943 11.7589 15.7945 11.7599C15.7945 11.7599 15.7976 11.7865 15.8206 11.7963C15.8206 11.7963 15.8515 11.8119 15.8839 11.7845C15.8839 11.7845 15.9182 11.7516 15.8895 11.7006C15.8895 11.7006 15.8519 11.6377 15.7643 11.6749C15.7643 11.6749 15.6871 11.7131 15.7189 11.795C15.7189 11.795 15.7471 11.8705 15.8402 11.8703C15.8402 11.8703 15.9102 11.8679 15.955 11.821C16.0249 11.7477 16.0287 11.6049 15.9671 11.5311C15.9671 11.5311 15.9088 11.4527 15.7919 11.4049C15.7242 11.3772 15.5963 11.3216 15.4633 11.2695C15.3698 11.2328 15.2842 11.1889 15.2286 11.1231C15.2286 11.1231 15.179 11.0678 15.1647 10.9731C15.1647 10.9731 15.151 10.9021 15.1942 10.8866C15.1942 10.8866 15.2162 10.8767 15.2403 10.88C15.2403 10.88 15.2409 10.88 15.2411 10.8804C15.2412 10.8804 15.2421 10.8815 15.2397 10.8811Z" fill="#F5CE00" stroke="black" stroke-width="0.0231821" stroke-miterlimit="2.613"/>
<path d="M15.2338 10.8797C15.2338 10.8797 15.156 10.8656 15.1073 10.9581C15.1073 10.9581 15.0786 11.0177 15.074 11.0522" stroke="black" stroke-width="0.0231821" stroke-miterlimit="2.613"/>
<path d="M15.0486 10.7217C15.0486 10.7217 15.1266 10.7352 15.0864 10.8454C15.0486 10.9493 14.9784 10.9834 14.9575 10.9978" stroke="black" stroke-width="0.0231821" stroke-miterlimit="2.613"/>
<path d="M15.9578 7.66898C15.9578 7.66898 16.1461 7.55102 16.3385 7.68165" stroke="black" stroke-width="0.0231821" stroke-miterlimit="2.613"/>
<path d="M14.886 8.8213C14.886 8.8213 14.9121 8.7161 14.7921 8.532C14.7921 8.532 14.7138 8.36369 14.6721 8.25586" stroke="black" stroke-width="0.0173858" stroke-miterlimit="2.613"/>
<path d="M14.9434 8.14062C14.9434 8.14062 15.0113 8.30608 15.0346 8.38018C15.0346 8.38018 15.1189 8.58772 15.1368 8.6298" stroke="black" stroke-width="0.0173858" stroke-miterlimit="2.613"/>
<path d="M14.9771 8.9375C14.9771 8.9375 15.0479 9.01377 15.0398 9.14264" stroke="black" stroke-width="0.0173858" stroke-miterlimit="10"/>
<path d="M14.7422 8.85645C14.7422 8.85645 14.8204 8.89415 14.8153 9.10191C14.8153 9.10191 14.8074 9.25358 14.9248 9.32985" stroke="black" stroke-width="0.0173858" stroke-miterlimit="10"/>
<path d="M14.7317 9.38367C14.7317 9.38367 14.9766 9.35693 14.99 9.50771C14.99 9.50771 14.9953 9.65235 15.0787 9.66815C15.0787 9.66815 15.2037 9.67998 15.2285 9.79571" stroke="black" stroke-width="0.0173858" stroke-miterlimit="10"/>
<path d="M14.8091 9.5498C14.8091 9.5498 14.8521 9.61424 14.8938 9.64184" stroke="black" stroke-width="0.0173858" stroke-miterlimit="10"/>
<path d="M15.1228 9.39062C15.1228 9.39062 15.185 9.48487 15.1967 9.54009" stroke="black" stroke-width="0.0173858" stroke-miterlimit="10"/>
<path d="M15.3926 8.25684C15.3926 8.25684 15.45 8.33486 15.5056 8.37167" stroke="black" stroke-width="0.0173858" stroke-miterlimit="10"/>
<path d="M15.6223 8.71875C15.6223 8.71875 15.744 8.77836 15.7232 9.08519C15.7232 9.08519 15.7075 9.26513 15.7579 9.36334" stroke="black" stroke-width="0.0173858" stroke-miterlimit="10"/>
<path d="M15.0488 8.51212L15.0566 8.54106C15.0566 8.54106 15.2748 8.55027 15.3926 8.40167L15.38 8.37317C15.38 8.37317 15.1896 8.36352 15.0488 8.51212Z" fill="#784421" stroke="black" stroke-width="0.0173858"/>
<path d="M15.8347 9.68134C15.8347 9.68134 16.5894 9.45636 16.8802 9.3252" stroke="black" stroke-width="0.0173858" stroke-miterlimit="10"/>
<path d="M15.7451 8.26506L16.1184 8.12305L16.1272 8.14802L15.7539 8.28982L15.7451 8.26506Z" fill="#784421" stroke="black" stroke-width="0.0106157"/>
<path d="M15.7856 8.27832L16.0334 9.49293" stroke="black" stroke-width="0.0173858" stroke-miterlimit="10"/>
<path d="M15.8289 8.26172L16.1126 9.47075" stroke="black" stroke-width="0.0173858" stroke-miterlimit="10"/>
<path d="M15.877 8.24316L16.1873 9.44335" stroke="black" stroke-width="0.0173858" stroke-miterlimit="10"/>
<path d="M15.9985 8.19824L16.4216 9.09915" stroke="black" stroke-width="0.0173858" stroke-miterlimit="10"/>
<path d="M16.0547 8.17578L16.5059 9.07142" stroke="black" stroke-width="0.0173858" stroke-miterlimit="10"/>
<path d="M16.0962 8.16016L16.5842 9.04681" stroke="black" stroke-width="0.0173858" stroke-miterlimit="10"/>
<path d="M16.0166 9.50255L16.2081 9.43945" stroke="black" stroke-width="0.0173858" stroke-miterlimit="10"/>
<path d="M15.8716 9.3812C15.8716 9.3812 16.4329 9.21725 16.8577 9.0459" stroke="black" stroke-width="0.0173858" stroke-miterlimit="10"/>
<path d="M15.864 9.44372C15.864 9.44372 16.5754 9.25549 16.8577 9.11816" stroke="black" stroke-width="0.0173858" stroke-miterlimit="10"/>
<path d="M16.0811 10.0228L16.1183 10.1367L16.2201 10.1041L16.1854 9.99121" stroke="black" stroke-width="0.0173858" stroke-miterlimit="10"/>
<path d="M16.3689 9.94074L16.4062 10.0547L16.508 10.0221L16.4732 9.90918" stroke="black" stroke-width="0.0173858" stroke-miterlimit="10"/>
<path d="M15.8857 9.26749L15.877 9.1133L16.8097 8.83008L16.8602 8.95982" stroke="black" stroke-width="0.0173858" stroke-miterlimit="10"/>
<path d="M16.2725 8.99414L16.3233 9.13027" stroke="black" stroke-width="0.0173858" stroke-miterlimit="10"/>
<path d="M16.5986 8.89453L16.658 9.02399" stroke="black" stroke-width="0.0173858" stroke-miterlimit="10"/>
<path d="M16.676 8.87012L16.7316 8.9926" stroke="black" stroke-width="0.0173858" stroke-miterlimit="10"/>
<path d="M16.75 8.84766L16.8084 8.97561" stroke="black" stroke-width="0.0173858" stroke-miterlimit="10"/>
<path d="M16.8096 8.82933L16.9122 8.77148L16.9556 8.88543" stroke="black" stroke-width="0.0173858" stroke-miterlimit="10"/>
<path d="M16.8601 8.80078L16.9123 8.91874" stroke="black" stroke-width="0.0173858" stroke-miterlimit="10"/>
<path d="M14.547 10.5779C14.547 10.5779 14.3644 10.393 14.547 10.212C14.547 10.212 14.3488 10.115 14.3801 9.95898" stroke="#012169" stroke-width="0.0231821" stroke-miterlimit="10"/>
<path d="M14.873 10.7243C14.873 10.7243 14.684 10.75 14.74 10.3818C14.74 10.3818 14.6618 10.5278 14.6348 10.6028C14.6147 10.6589 14.628 10.7496 14.708 10.7986C14.74 10.8182 14.9095 10.8623 14.9643 10.75" stroke="#012169" stroke-width="0.0231821" stroke-miterlimit="10"/>
<path d="M14.6615 10.1621C14.6615 10.1621 14.5845 10.2331 14.6393 10.3633" stroke="#012169" stroke-width="0.0231821" stroke-miterlimit="10"/>
<path d="M14.7415 10.1787C14.7415 10.1787 14.7506 10.305 14.8132 10.376" stroke="#012169" stroke-width="0.0231821" stroke-miterlimit="10"/>
<path d="M14.7952 10.1279C14.7952 10.1279 14.7946 10.2765 14.9015 10.3686" stroke="#012169" stroke-width="0.0231821" stroke-miterlimit="10"/>
<path d="M14.8486 10.0762C14.8486 10.0762 14.8496 10.2432 14.9735 10.3458" stroke="#012169" stroke-width="0.0231821" stroke-miterlimit="10"/>
<path d="M15.4639 10.3208C15.4639 10.3208 15.5265 10.1841 15.6582 10.1907C15.6582 10.1907 15.5942 10.2196 15.5956 10.2836C15.5956 10.2836 15.5877 10.3892 15.7012 10.3997C15.7012 10.3997 15.7925 10.4116 15.8381 10.3616" stroke="#012169" stroke-width="0.0231821" stroke-miterlimit="10"/>
<path d="M15.7754 10.9473C15.7754 10.9473 15.4508 10.7948 15.4847 10.5752C15.4847 10.5752 15.4977 10.4411 15.6288 10.3779" stroke="#012169" stroke-width="0.0231821" stroke-miterlimit="10"/>
<path d="M15.5604 10.5166C15.5604 10.5166 15.5317 10.6113 15.5956 10.677" stroke="#012169" stroke-width="0.0231821" stroke-miterlimit="10"/>
<path d="M15.6332 10.4521C15.6332 10.4521 15.5941 10.556 15.6593 10.6336" stroke="#012169" stroke-width="0.0231821" stroke-miterlimit="10"/>
<path d="M15.7115 10.4023C15.7115 10.4023 15.6646 10.4883 15.7207 10.5658" stroke="#012169" stroke-width="0.0231821" stroke-miterlimit="10"/>
<path d="M15.4153 10.9697C15.4153 10.9697 15.5926 11.1236 15.7309 11.1249" stroke="#012169" stroke-width="0.0231821" stroke-miterlimit="10"/>
<path d="M15.3591 11.0176C15.3591 11.0176 15.5249 11.1517 15.6285 11.1714" stroke="#012169" stroke-width="0.0231821" stroke-miterlimit="10"/>
<path d="M15.2969 11.0557C15.2969 11.0557 15.5017 11.236 15.6288 11.2491" stroke="#012169" stroke-width="0.0231821" stroke-miterlimit="10"/>
<path d="M16.1302 11.415C16.1302 11.415 15.9288 11.5235 16.085 11.6383" stroke="#012169" stroke-width="0.0231821" stroke-miterlimit="10"/>
<path d="M16.0022 11.2943C16.0022 11.2943 16.2304 11.1746 16.3295 11.1299" stroke="#012169" stroke-width="0.0231821" stroke-miterlimit="10"/>
<path d="M16.0842 11.3569C16.0842 11.3569 16.4141 11.1557 16.5119 11.1123" stroke="#012169" stroke-width="0.0231821" stroke-miterlimit="10"/>
<path d="M16.2539 11.3692C16.2539 11.3692 16.5356 11.1812 16.6868 11.0996" stroke="#012169" stroke-width="0.0231821" stroke-miterlimit="10"/>
<path d="M16.4407 11.3626C16.4407 11.3626 16.635 11.2101 16.8227 11.0996" stroke="#012169" stroke-width="0.0231821" stroke-miterlimit="10"/>
<path d="M16.8888 10.9095C16.8888 10.9095 16.7937 10.7701 16.4807 10.9095C16.4807 10.9095 16.5955 10.8053 16.8223 10.7246" stroke="#012169" stroke-width="0.0231821" stroke-miterlimit="10"/>
<path d="M17.1384 10.126C17.1384 10.126 17.1641 10.2391 17.1367 10.3075" stroke="#012169" stroke-width="0.0231821" stroke-miterlimit="10"/>
<path d="M16.6306 10.674C16.6306 10.674 16.6958 10.578 16.8614 10.5307C16.8614 10.5307 16.9061 10.6424 17.0349 10.6175C17.0349 10.6175 17.2292 10.5793 17.1705 10.3663C17.1705 10.3663 17.1301 10.2072 16.9082 10.1914" stroke="#012169" stroke-width="0.0231821" stroke-miterlimit="10"/>
<path d="M17.5684 9.9248C17.5684 9.9248 17.794 9.96541 17.7901 10.1495C17.7901 10.1495 17.8084 10.4256 17.5176 10.4796" stroke="#012169" stroke-width="0.0231821" stroke-miterlimit="10"/>
<path d="M17.7581 10.0375C17.7581 10.0375 17.82 9.90291 17.9583 9.84766" stroke="#012169" stroke-width="0.0231821" stroke-miterlimit="10"/>
<path d="M17.7903 9.76953C17.7903 9.76953 17.8519 9.86832 17.894 9.88269" stroke="#012169" stroke-width="0.0231821" stroke-miterlimit="10"/>
<path d="M17.7581 9.84766C17.7581 9.84766 17.8161 9.91862 17.8357 9.93048" stroke="#012169" stroke-width="0.0231821" stroke-miterlimit="10"/>
<path d="M17.7393 9.91699C17.7393 9.91699 17.7698 9.96217 17.7969 9.97641" stroke="#012169" stroke-width="0.0231821" stroke-miterlimit="10"/>
<path d="M16.5786 8.84926C16.5786 8.84926 16.6225 8.77801 16.7316 8.80826" stroke="#012169" stroke-width="0.0231821" stroke-miterlimit="10"/>
<path d="M17.177 9.3822C17.177 9.3822 17.2461 9.09387 17.4874 9.20036" stroke="#012169" stroke-width="0.0231821" stroke-miterlimit="10"/>
<path d="M17.3897 9.17816C17.3897 9.17816 17.4145 9.04524 17.3545 8.97754" stroke="#012169" stroke-width="0.0231821" stroke-miterlimit="10"/>
<path d="M17.2256 9.16797C17.2256 9.16797 17.2563 9.22295 17.23 9.26788" stroke="#012169" stroke-width="0.0231821" stroke-miterlimit="10"/>
<path d="M17.7153 12.1129C17.7153 12.1129 17.9866 11.9893 17.9031 11.7789C17.9031 11.7789 17.8773 11.7079 17.8172 11.7132C17.8172 11.7132 17.7126 11.7184 17.7335 11.8578C17.7335 11.8578 17.7649 11.9946 17.7153 12.1129Z" fill="#64B4D1" stroke="#012169" stroke-width="0.0173858" stroke-miterlimit="2.613"/>
<path d="M17.8133 11.9886C17.8133 11.9886 17.8729 11.9315 17.8646 11.829C17.8646 11.829 17.8611 11.8071 17.872 11.8041C17.872 11.8041 17.8837 11.7992 17.8854 11.8246C17.8854 11.8246 17.902 11.9316 17.8298 11.9929C17.8298 11.9929 17.8249 11.9991 17.8169 11.9973C17.8169 11.9973 17.8084 11.9954 17.8133 11.9886Z" fill="white"/>
<path d="M18.101 11.9232C18.101 11.9232 18.2913 11.8035 18.1883 11.6023C18.1883 11.6023 18.1583 11.5445 18.101 11.5563C18.101 11.5563 17.9823 11.5931 18.0749 11.7575C18.0749 11.7575 18.1218 11.864 18.101 11.9232Z" fill="#64B4D1" stroke="#012169" stroke-width="0.0173858" stroke-miterlimit="2.613"/>
<path d="M18.1484 11.652C18.1484 11.652 18.1379 11.6381 18.1451 11.6322C18.1451 11.6322 18.1497 11.6256 18.162 11.6414C18.162 11.6414 18.2196 11.7058 18.1738 11.8048C18.1738 11.8048 18.1686 11.8189 18.1594 11.8143C18.1594 11.8143 18.1516 11.8104 18.1588 11.7986C18.1588 11.7986 18.1999 11.7171 18.1484 11.652Z" fill="white"/>
<path d="M17.531 12.0607C17.531 12.0607 17.3185 12.0068 17.3576 11.7872C17.3576 11.7872 17.3785 11.6912 17.4684 11.7044C17.4684 11.7044 17.5768 11.732 17.5062 11.8716C17.5062 11.8716 17.4645 11.9713 17.531 12.0607Z" fill="#64B4D1" stroke="#012169" stroke-width="0.0173858" stroke-miterlimit="2.613"/>
<path d="M17.4489 11.7979C17.4489 11.7979 17.441 11.7874 17.4502 11.7828C17.4502 11.7828 17.4593 11.7789 17.4658 11.7917C17.4658 11.7917 17.488 11.8268 17.4692 11.875C17.4692 11.875 17.4515 11.9084 17.4601 11.9432C17.4601 11.9432 17.4613 11.9531 17.4534 11.9544C17.4534 11.9544 17.4459 11.9518 17.4445 11.9446C17.4445 11.9446 17.4339 11.9106 17.4521 11.8773C17.4521 11.8773 17.4743 11.8256 17.4489 11.7979Z" fill="white"/>
<path d="M17.6835 11.6448C17.6835 11.6448 17.8035 11.5774 17.9026 11.6563C17.9026 11.6563 17.8924 11.6125 17.8166 11.5932C17.8166 11.5932 17.7756 11.4775 17.6609 11.488C17.6609 11.488 17.7078 11.5441 17.7704 11.5914C17.7704 11.5914 17.7044 11.5983 17.6835 11.6448Z" fill="black"/>
<path d="M17.7725 11.3281C17.7725 11.3281 17.8539 11.3883 17.8871 11.4286C17.8871 11.4286 17.9203 11.3875 17.9637 11.3625C17.9637 11.3625 17.9137 11.3559 17.8871 11.3784C17.8871 11.3784 17.8455 11.3381 17.7725 11.3281Z" fill="black"/>
<path d="M17.2992 11.5857C17.2992 11.5857 17.2905 11.5558 17.3113 11.5243C17.3113 11.5243 17.3252 11.5015 17.32 11.4717" stroke="black" stroke-width="0.0231821" stroke-miterlimit="10"/>
<path d="M18.1738 9.71341C18.1738 9.71341 18.3007 9.70465 18.3216 9.60645" stroke="black" stroke-width="0.0231821" stroke-miterlimit="10"/>
<path d="M18.544 9.542C18.544 9.542 18.4997 9.54025 18.4598 9.58057C18.4598 9.58057 18.4292 9.62617 18.3857 9.6209" stroke="black" stroke-width="0.0231821" stroke-miterlimit="10"/>
<path d="M17.9863 9.33948C17.9863 9.33948 18.0524 9.33948 18.0889 9.30792C18.0889 9.30792 18.1272 9.28163 18.1498 9.32369C18.1498 9.32369 18.1845 9.38329 18.1202 9.40961C18.1202 9.40961 18.0402 9.44994 18.1672 9.53059C18.1672 9.53059 18.0159 9.47622 18.0767 9.40261C18.0767 9.40261 18.1428 9.35528 18.1185 9.33772C18.1185 9.33772 18.1115 9.32369 18.0854 9.34124C18.0593 9.35877 18.0072 9.35176 17.9863 9.33948Z" fill="black"/>
<path d="M18.0762 7.74286C18.0762 7.74286 18.106 7.70225 18.0938 7.58041C18.0816 7.45857 18.1874 7.44456 18.2281 7.47959C18.2281 7.47959 18.2702 7.516 18.2315 7.59328C18.2091 7.63787 18.1735 7.69561 18.0762 7.74286Z" fill="#64B4D1" stroke="#012169" stroke-width="0.0173858" stroke-miterlimit="2.613"/>
<path d="M18.1157 7.65208C18.1157 7.65208 18.1554 7.60943 18.1365 7.51687C18.1365 7.51687 18.1363 7.50774 18.1416 7.50713C18.1416 7.50713 18.1512 7.5047 18.1528 7.51383C18.1528 7.51383 18.1741 7.6125 18.1293 7.66611C18.1293 7.66611 18.1212 7.67404 18.1157 7.66611C18.1157 7.66608 18.1097 7.66042 18.1157 7.65208Z" fill="white"/>
<path d="M18.0425 7.69955C18.0425 7.69955 18.0394 7.65044 17.9545 7.56697C17.8696 7.4835 17.9394 7.40659 17.9914 7.40723C17.9914 7.40723 18.0453 7.40807 18.0647 7.49014C18.0759 7.53755 18.0853 7.60311 18.0425 7.69955Z" fill="#64B4D1" stroke="#012169" stroke-width="0.0173858" stroke-miterlimit="2.613"/>
<path d="M18.0291 7.5925C18.0291 7.5925 18.0306 7.53233 17.9537 7.46954C17.9537 7.46954 17.9475 7.46223 17.9511 7.45835C17.9511 7.45835 17.9567 7.45017 17.9642 7.45651C17.9642 7.45651 18.0469 7.52273 18.049 7.59506C18.049 7.59506 18.048 7.60676 18.0385 7.60388C18.0385 7.60383 18.0301 7.60316 18.0291 7.5925Z" fill="white"/>
<path d="M17.9269 7.66138C17.9269 7.66138 17.9047 7.62136 17.7999 7.58416C17.695 7.54696 17.7233 7.45537 17.7675 7.43578C17.7675 7.43578 17.8133 7.41563 17.8623 7.477C17.8906 7.5125 17.9247 7.56385 17.9269 7.66138Z" fill="#64B4D1" stroke="#012169" stroke-width="0.0173858" stroke-miterlimit="2.613"/>
<path d="M17.8811 7.58921C17.8811 7.58921 17.8572 7.53404 17.7612 7.50987C17.7612 7.50987 17.7525 7.50591 17.7541 7.50086C17.7541 7.50086 17.7558 7.491 17.7652 7.4936C17.7652 7.4936 17.868 7.51832 17.9001 7.58304C17.9001 7.58304 17.9042 7.59404 17.8944 7.59546C17.8944 7.59549 17.8864 7.59847 17.8811 7.58921Z" fill="white"/>
<path d="M17.9927 7.70319C17.9927 7.70319 17.9438 7.71692 17.8315 7.66275C17.7193 7.60859 17.6701 7.70285 17.6898 7.75328C17.6898 7.75328 17.7103 7.80547 17.7972 7.79631C17.8474 7.79101 17.9146 7.77787 17.9927 7.70319Z" fill="#64B4D1" stroke="#012169" stroke-width="0.0173858" stroke-miterlimit="2.613"/>
<path d="M17.7316 7.73804C17.7316 7.73804 17.7825 7.76943 17.8748 7.73371C17.8748 7.73371 17.8842 7.7319 17.8858 7.73698C17.8858 7.73698 17.89 7.74605 17.8808 7.74934C17.8808 7.74934 17.7825 7.78852 17.7194 7.75411C17.7194 7.75411 17.7098 7.74747 17.7171 7.74061C17.7171 7.74061 17.7219 7.73357 17.7316 7.73804Z" fill="white"/>
<path d="M17.8281 7.34668C17.8281 7.34668 17.8842 7.37386 17.8712 7.43961" stroke="black" stroke-width="0.0231821" stroke-miterlimit="2.613"/>
<path d="M18.0763 7.35742C18.0763 7.35742 18.0982 7.42685 18.074 7.46425" stroke="black" stroke-width="0.0231821" stroke-miterlimit="10"/>
<path d="M14.208 7.74286C14.208 7.74286 14.1782 7.70225 14.1904 7.58041C14.2026 7.45857 14.0968 7.44456 14.0561 7.47959C14.0561 7.47959 14.0141 7.516 14.0527 7.59328C14.0751 7.63787 14.1107 7.69561 14.208 7.74286Z" fill="#64B4D1" stroke="#012169" stroke-width="0.0173858" stroke-miterlimit="2.613"/>
<path d="M14.1684 7.65208C14.1684 7.65208 14.1287 7.60943 14.1476 7.51687C14.1476 7.51687 14.1478 7.50774 14.1425 7.50713C14.1425 7.50713 14.1329 7.5047 14.1313 7.51383C14.1313 7.51383 14.11 7.6125 14.1548 7.66611C14.1548 7.66611 14.1629 7.67404 14.1684 7.66611C14.1684 7.66608 14.1744 7.66042 14.1684 7.65208Z" fill="white"/>
<path d="M14.2418 7.69955C14.2418 7.69955 14.2449 7.65044 14.3298 7.56697C14.4147 7.4835 14.3449 7.40659 14.2929 7.40723C14.2929 7.40723 14.2391 7.40807 14.2197 7.49014C14.2085 7.53755 14.199 7.60311 14.2418 7.69955Z" fill="#64B4D1" stroke="#012169" stroke-width="0.0173858" stroke-miterlimit="2.613"/>
<path d="M14.2552 7.5925C14.2552 7.5925 14.2537 7.53233 14.3306 7.46954C14.3306 7.46954 14.3368 7.46223 14.3332 7.45835C14.3332 7.45835 14.3276 7.45017 14.3201 7.45651C14.3201 7.45651 14.2374 7.52273 14.2354 7.59506C14.2354 7.59506 14.2363 7.60676 14.2458 7.60388C14.2458 7.60383 14.2542 7.60316 14.2552 7.5925Z" fill="white"/>
<path d="M14.3572 7.66138C14.3572 7.66138 14.3794 7.62136 14.4842 7.58416C14.5891 7.54696 14.5607 7.45537 14.5166 7.43578C14.5166 7.43578 14.4708 7.41563 14.4218 7.477C14.3935 7.5125 14.3594 7.56385 14.3572 7.66138Z" fill="#64B4D1" stroke="#012169" stroke-width="0.0173858" stroke-miterlimit="2.613"/>
<path d="M14.4032 7.58921C14.4032 7.58921 14.427 7.53404 14.523 7.50987C14.523 7.50987 14.5318 7.50591 14.5301 7.50086C14.5301 7.50086 14.5284 7.491 14.519 7.4936C14.519 7.4936 14.4163 7.51832 14.3841 7.58304C14.3841 7.58304 14.3801 7.59404 14.3899 7.59546C14.3899 7.59549 14.3978 7.59847 14.4032 7.58921Z" fill="white"/>
<path d="M14.2915 7.70319C14.2915 7.70319 14.3404 7.71692 14.4527 7.66275C14.5649 7.60859 14.6141 7.70285 14.5944 7.75328C14.5944 7.75328 14.5739 7.80547 14.487 7.79631C14.4368 7.79101 14.3696 7.77787 14.2915 7.70319Z" fill="#64B4D1" stroke="#012169" stroke-width="0.0173858" stroke-miterlimit="2.613"/>
<path d="M14.5524 7.73804C14.5524 7.73804 14.5015 7.76943 14.4091 7.73371C14.4091 7.73371 14.3997 7.7319 14.3982 7.73698C14.3982 7.73698 14.394 7.74605 14.4031 7.74934C14.4031 7.74934 14.5014 7.78852 14.5645 7.75411C14.5645 7.75411 14.5741 7.74747 14.5669 7.74061C14.5669 7.74061 14.5621 7.73357 14.5524 7.73804Z" fill="white"/>
<path d="M14.4559 7.34668C14.4559 7.34668 14.3998 7.37386 14.4129 7.43961" stroke="black" stroke-width="0.0231821" stroke-miterlimit="2.613"/>
<path d="M14.2078 7.35742C14.2078 7.35742 14.1859 7.42685 14.2101 7.46425" stroke="black" stroke-width="0.0231821" stroke-miterlimit="10"/>
<path d="M16.642 6.71973C16.642 6.71973 16.6775 6.82114 16.6622 6.91304C16.6485 6.99522 16.6672 7.01646 16.6969 7.03273C16.7226 7.04679 16.7821 7.02218 16.7893 6.95774C16.7893 6.95774 16.8597 7.09516 16.7228 7.18786C16.7228 7.18786 16.6244 7.24836 16.5409 7.16749C16.5115 7.139 16.4985 7.06033 16.5129 6.98732C16.5129 6.98732 16.5344 6.88837 16.4985 6.78679C16.4985 6.78679 16.5546 6.84662 16.5403 6.96592C16.5403 6.96592 16.5116 7.17996 16.67 7.16944C16.67 7.16944 16.7795 7.16813 16.7828 7.03532C16.7828 7.03532 16.7417 7.08265 16.6909 7.06689C16.6548 7.05572 16.6217 7.02087 16.6276 6.96592C16.6338 6.90829 16.6498 6.80783 16.642 6.71973Z" fill="black"/>
<path d="M16.4626 7.06984C16.4626 7.06984 16.4539 7.23904 16.2991 7.28023C16.2991 7.28023 16.3209 7.24956 16.2861 7.1654C16.2861 7.1654 16.2522 7.11631 16.2548 7.04004C16.2548 7.04004 16.2056 7.07858 16.2618 7.1803C16.2957 7.24166 16.2661 7.31531 16.2557 7.31793C16.2452 7.32056 16.5113 7.28285 16.4626 7.06984Z" fill="black"/>
<path d="M16.2616 6.90167C16.2616 6.90167 16.2242 6.85958 16.2216 6.76227C16.219 6.66496 16.2007 6.6413 16.1877 6.62988C16.1877 6.62988 16.2068 6.71405 16.2016 6.76576C16.1964 6.81747 16.2051 6.8473 16.212 6.87183C16.212 6.87183 16.1277 6.88498 16.0747 6.76224C16.024 6.64492 15.973 6.65441 15.9478 6.65528C15.9478 6.65528 15.9771 6.65854 16.0364 6.76573C16.0956 6.87284 16.1121 6.89466 16.2616 6.90167Z" fill="black"/>
<path d="M15.8667 6.64844C15.8667 6.64844 15.9154 6.76503 15.9171 6.8264C15.9171 6.8264 15.8041 6.7887 15.7736 6.69052C15.7736 6.69052 15.6528 6.73171 15.6972 6.8711C15.6972 6.8711 15.5928 6.8343 15.5459 6.74924C15.5459 6.74924 15.6041 6.79308 15.658 6.81236C15.658 6.81236 15.6519 6.70015 15.7928 6.65807C15.7928 6.65807 15.8137 6.75859 15.884 6.78256C15.884 6.78258 15.8788 6.71946 15.8667 6.64844Z" fill="black"/>
<path d="M16.0525 6.44824C16.0525 6.44824 16.0916 6.50523 16.1716 6.50785C16.2098 6.50911 16.251 6.50048 16.2907 6.44824C16.2907 6.44824 16.2855 6.54731 16.1716 6.54818C16.1716 6.54818 16.0525 6.55256 16.0525 6.44824Z" fill="black"/>
<path d="M15.5601 7.12494C15.5601 7.12494 15.6194 7.17885 15.6318 7.1966C15.6318 7.1966 15.6735 7.23737 15.7093 7.18466C15.7093 7.18466 15.755 7.10035 15.8111 7.10258C15.8111 7.10258 15.7713 7.13021 15.7266 7.20991C15.7266 7.20991 15.7146 7.23933 15.6813 7.24262C15.6657 7.24415 15.6461 7.2492 15.6164 7.21814C15.6164 7.21814 15.5907 7.18675 15.5601 7.12494Z" fill="black"/>
<path d="M16.172 6.05176C16.0529 6.0517 16.1533 6.14379 16.1533 6.14379C16.1559 6.28975 16.0388 6.33468 15.959 6.2924C15.8792 6.25009 15.9416 6.14379 15.9416 6.14379C15.9416 6.14379 15.8516 6.20296 15.909 6.28843C15.9664 6.37391 16.1168 6.33576 16.172 6.25687C16.2272 6.33576 16.3776 6.37391 16.435 6.28843C16.4923 6.20296 16.4024 6.14379 16.4024 6.14379C16.4024 6.14379 16.4647 6.25009 16.385 6.2924C16.3052 6.33468 16.1881 6.28977 16.1907 6.14379C16.1907 6.14379 16.2911 6.0517 16.172 6.05176Z" fill="black"/>
<path d="M16.2439 5.89258C16.2439 5.89258 16.2856 5.9636 16.2765 6.0714C16.2765 6.0714 16.3143 5.96357 16.2439 5.89258Z" fill="black"/>
<path d="M15.8789 6.05975C15.8789 6.05975 15.8698 5.98217 15.7942 5.97559C15.7942 5.97559 15.8581 6.02163 15.8789 6.05975Z" fill="black"/>
<path d="M16.4658 6.05975C16.4658 6.05975 16.4749 5.98217 16.5506 5.97559C16.5506 5.97559 16.4867 6.02163 16.4658 6.05975Z" fill="black"/>
<path d="M15.759 6.17961C15.759 6.17961 15.819 6.19803 15.8555 6.15332C15.8555 6.15332 15.7864 6.17171 15.759 6.17961Z" fill="black"/>
<path d="M15.5649 5.70229C15.5649 5.70229 15.6347 5.69439 15.7045 5.79828C15.7045 5.79828 15.6354 5.83509 15.6184 5.85745C15.6184 5.85745 15.6184 5.82326 15.6523 5.79301C15.6523 5.79304 15.6393 5.74043 15.5649 5.70229Z" fill="black"/>
<path d="M16.733 5.70229C16.733 5.70229 16.6633 5.69439 16.5935 5.79828C16.5935 5.79828 16.6626 5.83509 16.6796 5.85745C16.6796 5.85745 16.6796 5.82326 16.6457 5.79301C16.6457 5.79304 16.6587 5.74043 16.733 5.70229Z" fill="black"/>
<path d="M16.1946 5.78047C16.1946 5.78047 16.2572 5.79764 16.3354 5.75424C16.3354 5.75424 16.4319 5.70295 16.4932 5.75424C16.4932 5.75424 16.4397 5.73044 16.3367 5.78047C16.3367 5.78047 16.2337 5.83696 16.1946 5.78047Z" fill="black"/>
<path d="M16.2595 5.84322C16.2595 5.84322 16.313 5.74946 16.476 5.76807C16.476 5.76807 16.4316 5.89845 16.2595 5.84322Z" fill="white"/>
<path d="M16.3726 5.85515C16.3904 5.85515 16.4048 5.83686 16.4048 5.81429C16.4048 5.79173 16.3904 5.77344 16.3726 5.77344C16.3548 5.77344 16.3403 5.79173 16.3403 5.81429C16.3403 5.83686 16.3548 5.85515 16.3726 5.85515Z" fill="#784421"/>
<path d="M16.3722 5.83918C16.3827 5.83918 16.3913 5.82796 16.3913 5.81412C16.3913 5.80028 16.3827 5.78906 16.3722 5.78906C16.3616 5.78906 16.353 5.80028 16.353 5.81412C16.353 5.82796 16.3616 5.83918 16.3722 5.83918Z" fill="black"/>
<path d="M15.9102 5.64322C15.9102 5.64322 16.0132 5.64981 16.0758 5.68924C16.0758 5.68924 16.1423 5.7287 16.2179 5.67213C16.2179 5.67213 16.3001 5.6248 16.3529 5.55905C16.3529 5.55905 16.227 5.64584 16.1801 5.65899C16.1801 5.65899 16.137 5.62611 16.1201 5.57878C16.1201 5.57878 16.1266 5.54329 16.1944 5.47754C16.1944 5.47754 16.1031 5.50517 16.0849 5.58275C16.0849 5.58275 16.1018 5.63008 16.137 5.66691C16.137 5.66691 16.1201 5.67481 16.0758 5.64718C16.0758 5.64718 15.9793 5.61428 15.9102 5.64322Z" fill="black"/>
<path d="M16.1717 6.2627C16.0826 6.33963 16.1717 6.33174 16.1717 6.33174C16.1717 6.33174 16.2608 6.33963 16.1717 6.2627Z" fill="black"/>
<path d="M16.1204 5.78047C16.1204 5.78047 16.0578 5.79764 15.9796 5.75424C15.9796 5.75424 15.8831 5.70295 15.8218 5.75424C15.8218 5.75424 15.8752 5.73044 15.9782 5.78047C15.9782 5.78047 16.0813 5.83696 16.1204 5.78047Z" fill="black"/>
<path d="M16.0553 5.84322C16.0553 5.84322 16.0019 5.74946 15.8389 5.76807C15.8389 5.76807 15.8832 5.89845 16.0553 5.84322Z" fill="white"/>
<path d="M15.9429 5.85515C15.9607 5.85515 15.9751 5.83686 15.9751 5.81429C15.9751 5.79173 15.9607 5.77344 15.9429 5.77344C15.9251 5.77344 15.9106 5.79173 15.9106 5.81429C15.9106 5.83686 15.9251 5.85515 15.9429 5.85515Z" fill="#784421"/>
<path d="M15.9427 5.83918C15.9533 5.83918 15.9619 5.82796 15.9619 5.81412C15.9619 5.80028 15.9533 5.78906 15.9427 5.78906C15.9322 5.78906 15.9236 5.80028 15.9236 5.81412C15.9236 5.82796 15.9322 5.83918 15.9427 5.83918Z" fill="black"/>
<defs>
<clipPath id="clip0_147_2905">
<path d="M0 1.6C0 0.716345 0.716345 0 1.6 0H11.2V6.4C11.2 7.28366 10.4837 8 9.6 8H0V1.6Z" fill="white"/>
</clipPath>
</defs>
</svg>
