<svg width="21" height="15" viewBox="0 0 21 15" fill="none" xmlns="http://www.w3.org/2000/svg">
<g clip-path="url(#clip0_147_3408)">
<path d="M0 0H21V15H0V0Z" fill="white"/>
<path d="M21 0V15H0L21 0Z" fill="#003087"/>
<path d="M0 6.25V0H8.75L0 6.25Z" fill="#FFD700"/>
<path d="M5.83325 3.5L7.46903 6.39307L5.83325 9.28613L4.19747 6.39307L5.83325 3.5ZM8.6665 6.39307L5.83325 8.06338L3 6.39307L5.83325 4.72275L8.6665 6.39307Z" fill="#101820"/>
<path d="M5.83306 8.89863C7.18819 8.89863 8.28673 7.7769 8.28673 6.39316C8.28673 5.00943 7.18819 3.8877 5.83306 3.8877C4.47794 3.8877 3.37939 5.00943 3.37939 6.39316C3.37939 7.7769 4.47794 8.89863 5.83306 8.89863Z" fill="#101820"/>
<path d="M5.83319 8.56323C7.00676 8.56323 7.95813 7.59178 7.95813 6.39343C7.95813 5.19509 7.00676 4.22363 5.83319 4.22363C4.65962 4.22363 3.70825 5.19509 3.70825 6.39343C3.70825 7.59178 4.65962 8.56323 5.83319 8.56323Z" fill="white"/>
<path d="M5.83328 7.83936L4.60645 5.66956H7.06011L5.83328 7.83936ZM5.83328 4.94629L7.06011 7.11609H4.60645L5.83328 4.94629Z" fill="#D50032"/>
</g>
<defs>
<clipPath id="clip0_147_3408">
<rect width="21" height="15" rx="3" fill="white"/>
</clipPath>
</defs>
</svg>
