<svg width="21" height="15" viewBox="0 0 21 15" fill="none" xmlns="http://www.w3.org/2000/svg">
<g clip-path="url(#clip0_148_19)">
<rect width="21" height="15" rx="3" fill="#5C9E31"/>
<path d="M0 0H21V15H0V0Z" fill="#5C9E31"/>
<path d="M16.8213 9.29276L17.1391 8.26428L17.4569 9.29276L16.6249 8.65724H17.6533L16.8213 9.29276ZM13.4846 8.08459L13.103 8.44595L13.1372 7.9146L12.6274 7.83446L13.0559 7.53348L12.7971 7.07174L13.2942 7.22774L13.4848 6.73209L13.6753 7.22774L14.1725 7.07174L13.9136 7.53348L14.3415 7.83446L13.8279 7.91509L13.8621 8.44645L13.4843 8.08475L13.4846 8.08459ZM18.627 7.0561L18.2454 7.41747L18.2796 6.88612L17.7698 6.80581L18.1984 6.50484L17.9395 6.04309L18.4366 6.19909L18.6272 5.70345L18.8177 6.19909L19.3149 6.04309L19.056 6.50484L19.4839 6.80581L18.9703 6.88645L19.0045 7.4178L18.6267 7.0561H18.627ZM15.8844 4.99914L15.5027 5.36051L15.537 4.82916L15.0272 4.74885L15.4557 4.44788L15.1968 3.98613L15.694 4.14213L15.8845 3.64648L16.0751 4.14213L16.5722 3.98613L16.3134 4.44788L16.7412 4.74885L16.2276 4.82948L16.2618 5.36084L15.884 4.99914H15.8844ZM15.8844 12.1985L15.5027 12.5599L15.537 12.0285L15.0272 11.9484L15.4557 11.6474L15.1968 11.1857L15.694 11.3417L15.8845 10.8459L16.0751 11.3417L16.5722 11.1857L16.3134 11.6474L16.7412 11.9484L16.2276 12.029L16.2618 12.5604L15.884 12.1987L15.8844 12.1985Z" fill="#FCEA2B" stroke="#FCEA2B" stroke-width="0.342772" stroke-linecap="round" stroke-linejoin="round"/>
<path d="M2 4.37125C2 3.61149 2.61166 3 3.37125 3C4.13085 3 4.74267 3.61166 4.74267 4.37125C4.74267 5.13085 4.13101 5.74267 3.37125 5.74267C2.61149 5.74267 2 5.13085 2 4.37125Z" fill="#FCEA2B"/>
<path d="M10.221 10.4037C9.76357 10.403 9.31716 10.2635 8.94069 10.0037C8.56421 9.74394 8.27538 9.37609 8.11233 8.94874C7.77845 8.07395 8.01837 7.08381 8.7156 6.45882C9.05616 6.15348 9.48132 5.95861 9.93494 5.89994C10.3886 5.84126 10.8493 5.92155 11.2564 6.1302C10.8564 5.72137 10.3438 5.44094 9.78382 5.32471C9.22384 5.20848 8.64193 5.26172 8.11235 5.47763C7.58276 5.69354 7.1295 6.06234 6.81041 6.53695C6.49132 7.01157 6.32087 7.5705 6.3208 8.14241C6.32084 8.71433 6.49127 9.27328 6.81034 9.74792C7.12942 10.2226 7.58267 10.5914 8.11227 10.8073C8.64187 11.0232 9.22379 11.0765 9.78378 10.9603C10.3438 10.8441 10.8564 10.5636 11.2564 10.1548C10.9357 10.3182 10.5809 10.4037 10.221 10.4037Z" fill="#FCEA2B" stroke="#FCEA2B" stroke-width="0.342772" stroke-linecap="round" stroke-linejoin="round"/>
</g>
<defs>
<clipPath id="clip0_148_19">
<rect width="21" height="15" rx="3" fill="white"/>
</clipPath>
</defs>
</svg>
