<svg width="21" height="15" viewBox="0 0 21 15" fill="none" xmlns="http://www.w3.org/2000/svg">
<rect width="21" height="15" rx="3" fill="#1A47B8"/>
<g clip-path="url(#clip0_148_52)">
<path d="M0 1.6C0 0.716345 0.716345 0 1.6 0H11.2V6.4C11.2 7.28366 10.4837 8 9.6 8H0V1.6Z" fill="#1A47B8"/>
<path fill-rule="evenodd" clip-rule="evenodd" d="M1.19145 0H0V1.33333L10.0021 8L11.2 8V6.66667L1.19145 0Z" fill="white"/>
<path d="M0.397386 0L11.2 7.2189V8H10.8119L0 0.773631V0H0.397386Z" fill="#F93939"/>
<path fill-rule="evenodd" clip-rule="evenodd" d="M10.1333 0H11.2V1.33333C11.2 1.33333 4.2719 5.77496 1.06667 8H0V6.66667L10.1333 0Z" fill="white"/>
<path d="M11.2 0H10.8383L0 7.22511V8H0.397386L11.2 0.779474V0Z" fill="#F93939"/>
<path fill-rule="evenodd" clip-rule="evenodd" d="M4.07311 0H7.13621V2.46764H11.2V5.53074H7.13621V8H4.07311V5.53074H0V2.46764H4.07311V0Z" fill="white"/>
<path fill-rule="evenodd" clip-rule="evenodd" d="M4.71579 0H6.48421V3.07692H11.2V4.92308H6.48421V8H4.71579V4.92308H0V3.07692H4.71579V0Z" fill="#F93939"/>
</g>
<path d="M15.4796 5.12242C15.4921 5.08386 15.5467 5.08386 15.5592 5.12242L15.6513 5.40557C15.6569 5.42282 15.673 5.43449 15.6911 5.43449H15.9871C16.0276 5.43449 16.0445 5.48645 16.0116 5.51027L15.7726 5.68358C15.7579 5.69425 15.7518 5.71317 15.7574 5.73044L15.8496 6.01398C15.8622 6.0525 15.8181 6.0846 15.7853 6.0609L15.5439 5.88667C15.5293 5.87611 15.5095 5.87611 15.4949 5.88667L15.2535 6.0609C15.2206 6.0846 15.1766 6.0525 15.1891 6.01398L15.2814 5.73044C15.287 5.71317 15.2808 5.69425 15.2661 5.68358L15.0271 5.51027C14.9943 5.48645 15.0111 5.43449 15.0517 5.43449H15.3476C15.3658 5.43449 15.3818 5.42282 15.3874 5.40557L15.4796 5.12242Z" fill="white"/>
<path d="M16.8469 5.39599C16.8741 5.36586 16.9239 5.38805 16.9197 5.42838L16.8887 5.72451C16.8868 5.74255 16.8967 5.75976 16.9133 5.76713L17.1836 5.8875C17.2207 5.90401 17.215 5.95832 17.1753 5.96673L16.8864 6.02784C16.8687 6.0316 16.8553 6.04638 16.8535 6.06445L16.8224 6.36099C16.8182 6.40128 16.7649 6.4127 16.7445 6.37768L16.5949 6.12033C16.5858 6.10473 16.5677 6.0967 16.5501 6.10039L16.2587 6.16137C16.219 6.16966 16.1919 6.12244 16.219 6.09234L16.4186 5.87083C16.4307 5.85734 16.4328 5.83754 16.4237 5.82182L16.2759 5.56628C16.2555 5.53115 16.2921 5.49054 16.3291 5.50705L16.5995 5.62742C16.6161 5.63479 16.6355 5.63066 16.6476 5.61719L16.8469 5.39599Z" fill="white"/>
<path d="M17.9848 6.20187C18.0219 6.18538 18.0584 6.22593 18.0381 6.26106L17.8893 6.51897C17.8803 6.53468 17.8823 6.55444 17.8945 6.56792L18.0925 6.78783C18.1197 6.81799 18.0923 6.86528 18.0526 6.85681L17.7639 6.79515C17.7461 6.79136 17.728 6.79945 17.7189 6.81518L17.5699 7.07345C17.5496 7.10854 17.4963 7.09731 17.492 7.05704L17.4599 6.76106C17.458 6.74312 17.4448 6.72844 17.4271 6.72463L17.1361 6.66181C17.0965 6.65326 17.0909 6.59907 17.1279 6.58261L17.4004 6.46143C17.417 6.45404 17.4269 6.43681 17.425 6.41875L17.3938 6.12516C17.3896 6.0848 17.4395 6.06256 17.4666 6.09272L17.6646 6.31264C17.6768 6.32611 17.6962 6.33025 17.7128 6.32288L17.9848 6.20187Z" fill="white"/>
<path d="M18.6963 7.4015C18.7369 7.40152 18.7537 7.45341 18.7209 7.47726L18.4801 7.65235C18.4654 7.66302 18.4593 7.68191 18.4649 7.69916L18.5563 7.9806C18.5689 8.0192 18.5247 8.05129 18.4919 8.0274L18.2532 7.85365C18.2385 7.84296 18.2186 7.84295 18.2039 7.85363L17.9627 8.02897C17.93 8.05279 17.8858 8.02085 17.8982 7.98229L17.9893 7.69885C17.9949 7.68167 17.9888 7.66289 17.9742 7.65224L17.7339 7.47648C17.7012 7.45257 17.7181 7.40079 17.7586 7.4008L18.0568 7.4009C18.075 7.40091 18.0911 7.38921 18.0967 7.37193L18.1876 7.09106C18.2001 7.05245 18.2547 7.05242 18.2673 7.09103L18.3587 7.37246C18.3643 7.38971 18.3804 7.4014 18.3986 7.4014L18.6963 7.4015Z" fill="white"/>
<path d="M18.8586 8.78622C18.8956 8.80272 18.8899 8.85698 18.8503 8.86543L18.5591 8.92744C18.5413 8.93121 18.528 8.94598 18.5261 8.96402L18.4952 9.25832C18.491 9.29869 18.4375 9.31002 18.4173 9.27485L18.2699 9.01903C18.2608 9.0033 18.2426 8.9952 18.2249 8.99898L17.9332 9.06107C17.8936 9.06951 17.8663 9.02238 17.8933 8.99219L18.0918 8.77031C18.1038 8.75686 18.1059 8.73722 18.0969 8.72156L17.9489 8.46327C17.9288 8.42812 17.9653 8.3877 18.0023 8.40419L18.2746 8.52556C18.2912 8.53295 18.3107 8.52881 18.3228 8.5153L18.5202 8.29572C18.5473 8.26553 18.5972 8.28772 18.593 8.32809L18.562 8.62239C18.5601 8.64043 18.5701 8.65763 18.5866 8.66502L18.8586 8.78622Z" fill="white"/>
<path d="M18.4434 10.1184C18.4705 10.1485 18.4432 10.1958 18.4036 10.1874L18.1123 10.1256C18.0946 10.1218 18.0764 10.1299 18.0673 10.1456L17.9194 10.4019C17.8991 10.437 17.8457 10.4256 17.8415 10.3853L17.8109 10.0916C17.809 10.0736 17.7957 10.0588 17.7779 10.055L17.4862 9.9931C17.4466 9.98469 17.4408 9.93052 17.4778 9.91393L17.7494 9.79197C17.7658 9.78458 17.7757 9.76748 17.7739 9.74953L17.7437 9.45335C17.7396 9.41305 17.7894 9.39098 17.8165 9.42109L18.0159 9.64274C18.0281 9.65624 18.0475 9.66037 18.0641 9.65297L18.3337 9.53264C18.3708 9.51609 18.4073 9.55667 18.3871 9.59182L18.2391 9.84809C18.23 9.8638 18.2321 9.88356 18.2442 9.89705L18.4434 10.1184Z" fill="white"/>
<path d="M17.5226 11.1658C17.5351 11.2044 17.491 11.2365 17.4582 11.2126L17.2172 11.0377C17.2026 11.0271 17.1827 11.0271 17.168 11.0377L16.9286 11.2117C16.8958 11.2355 16.8516 11.2034 16.8642 11.1648L16.9557 10.8841C16.9613 10.8668 16.9552 10.8479 16.9405 10.8372L16.6992 10.6621C16.6664 10.6383 16.6831 10.5864 16.7237 10.5863L17.0214 10.5853C17.0394 10.5853 17.0554 10.5737 17.061 10.5565L17.1539 10.2737C17.1666 10.2352 17.221 10.2353 17.2335 10.2738L17.3256 10.5574C17.3312 10.5747 17.3473 10.5864 17.3655 10.5864L17.6607 10.5861C17.7013 10.5861 17.7182 10.638 17.6853 10.6619L17.4459 10.8358C17.4313 10.8465 17.4251 10.8654 17.4307 10.8826L17.5226 11.1658Z" fill="white"/>
<path d="M16.2555 11.748C16.2512 11.7883 16.1978 11.7997 16.1775 11.7646L16.0286 11.5068C16.0195 11.491 16.0014 11.483 15.9836 11.4867L15.6942 11.5483C15.6545 11.5567 15.6272 11.5094 15.6544 11.4793L15.8521 11.26C15.8643 11.2466 15.8664 11.2268 15.8573 11.211L15.7081 10.9529C15.6878 10.9178 15.7242 10.8772 15.7613 10.8936L16.0336 11.0138C16.0501 11.0211 16.0695 11.017 16.0816 11.0036L16.2815 10.783C16.3087 10.753 16.3584 10.7753 16.3542 10.8155L16.3229 11.1121C16.321 11.1301 16.3309 11.1474 16.3475 11.1547L16.6174 11.2746C16.6545 11.291 16.6488 11.3454 16.6091 11.3538L16.3196 11.4153C16.3019 11.4191 16.2886 11.4339 16.2867 11.4519L16.2555 11.748Z" fill="white"/>
<path d="M14.861 11.7645C14.8408 11.7996 14.7874 11.7882 14.7831 11.7479L14.7519 11.4518C14.75 11.4338 14.7367 11.419 14.719 11.4152L14.4295 11.3537C14.3898 11.3453 14.3841 11.2909 14.4212 11.2745L14.691 11.1546C14.7076 11.1473 14.7176 11.13 14.7157 11.112L14.6844 10.8154C14.6802 10.7752 14.7299 10.7529 14.7571 10.7829L14.957 11.0035C14.9691 11.0169 14.9885 11.021 15.005 11.0137L15.2773 10.8935C15.3144 10.8771 15.3508 10.9177 15.3305 10.9528L15.1813 11.2109C15.1722 11.2267 15.1743 11.2464 15.1865 11.2599L15.3842 11.4791C15.4114 11.5093 15.3841 11.5566 15.3444 11.5482L15.055 11.4866C15.0372 11.4829 15.0191 11.4909 15.01 11.5066L14.861 11.7645Z" fill="white"/>
<path d="M13.5804 11.2123C13.5475 11.2361 13.5034 11.204 13.5159 11.1654L13.6078 10.8822C13.6134 10.865 13.6073 10.8461 13.5926 10.8354L13.3532 10.6615C13.3204 10.6376 13.3373 10.5857 13.3779 10.5857L13.6731 10.586C13.6913 10.586 13.7074 10.5743 13.713 10.5571L13.805 10.2735C13.8175 10.2349 13.872 10.2348 13.8846 10.2733L13.9775 10.5562C13.9832 10.5733 13.9991 10.5849 14.0172 10.585L14.3149 10.5859C14.3554 10.586 14.3721 10.6379 14.3394 10.6617L14.0981 10.8369C14.0834 10.8475 14.0772 10.8665 14.0829 10.8837L14.1744 11.1644C14.1869 11.203 14.1428 11.2351 14.1099 11.2113L13.8705 11.0373C13.8559 11.0267 13.836 11.0267 13.8213 11.0373L13.5804 11.2123Z" fill="white"/>
<path d="M12.6349 10.1869C12.5953 10.1953 12.568 10.1481 12.5951 10.1179L12.7943 9.89661C12.8064 9.88312 12.8085 9.86336 12.7994 9.84766L12.6514 9.59138C12.6311 9.55623 12.6677 9.51566 12.7048 9.5322L12.9744 9.65253C12.9909 9.65994 13.0104 9.6558 13.0226 9.6423L13.222 9.42065C13.2491 9.39054 13.2989 9.41261 13.2948 9.45291L13.2646 9.74909C13.2628 9.76704 13.2727 9.78415 13.2891 9.79154L13.5607 9.91349C13.5977 9.93008 13.5919 9.98425 13.5522 9.99266L13.2606 10.0546C13.2428 10.0583 13.2295 10.0731 13.2276 10.0912L13.197 10.3848C13.1928 10.4252 13.1394 10.4366 13.1191 10.4014L12.9711 10.1451C12.9621 10.1294 12.9439 10.1214 12.9262 10.1251L12.6349 10.1869Z" fill="white"/>
<path d="M12.1883 8.86592C12.1486 8.85748 12.1429 8.80322 12.18 8.78671L12.4519 8.66551C12.4685 8.65813 12.4784 8.64092 12.4765 8.62288L12.4456 8.32858C12.4414 8.28821 12.4913 8.26602 12.5184 8.29621L12.7157 8.51579C12.7279 8.5293 12.7473 8.53345 12.7639 8.52605L13.0363 8.40468C13.0733 8.38819 13.1098 8.42861 13.0897 8.46376L12.9416 8.72206C12.9327 8.73771 12.9347 8.75736 12.9468 8.77081L13.1453 8.99268C13.1723 9.02287 13.1449 9.07 13.1053 9.06156L12.8137 8.99947C12.7959 8.99569 12.7778 9.00379 12.7687 9.01953L12.6213 9.27534C12.601 9.31051 12.5476 9.29918 12.5434 9.25881L12.5124 8.96451C12.5105 8.94647 12.4973 8.93171 12.4795 8.92793L12.1883 8.86592Z" fill="white"/>
<path d="M12.3176 7.47787C12.2848 7.45402 12.3016 7.40213 12.3422 7.40212L12.64 7.40202C12.6581 7.40201 12.6742 7.39033 12.6798 7.37308L12.7712 7.09164C12.7838 7.05304 12.8384 7.05306 12.8509 7.09168L12.9419 7.37254C12.9474 7.38982 12.9635 7.40152 12.9817 7.40152L13.2799 7.40141C13.3204 7.4014 13.3373 7.45318 13.3046 7.4771L13.0643 7.65285C13.0497 7.6635 13.0436 7.68229 13.0492 7.69947L13.1403 7.9829C13.1527 8.02146 13.1085 8.05341 13.0758 8.02959L12.8346 7.85425C12.8199 7.84356 12.8 7.84357 12.7853 7.85426L12.5466 8.02801C12.5138 8.0519 12.4696 8.01982 12.4822 7.98122L12.5736 7.69978C12.5792 7.68253 12.5731 7.66363 12.5584 7.65296L12.3176 7.47787Z" fill="white"/>
<path d="M13.0005 6.26177C12.9802 6.22665 13.0168 6.1861 13.0538 6.20258L13.3259 6.3236C13.3424 6.33097 13.3619 6.32683 13.374 6.31335L13.572 6.09344C13.5992 6.06328 13.6491 6.08552 13.6448 6.12588L13.6136 6.41946C13.6117 6.43753 13.6217 6.45476 13.6383 6.46214L13.9107 6.58333C13.9477 6.59979 13.9421 6.65398 13.9025 6.66253L13.6115 6.72535C13.5939 6.72916 13.5807 6.74383 13.5787 6.76177L13.5467 7.05775C13.5423 7.09803 13.489 7.10926 13.4687 7.07417L13.3197 6.8159C13.3107 6.80017 13.2925 6.79208 13.2747 6.79587L12.986 6.85752C12.9463 6.866 12.919 6.81871 12.9461 6.78855L13.1441 6.56863C13.1563 6.55515 13.1584 6.5354 13.1493 6.51968L13.0005 6.26177Z" fill="white"/>
<path d="M14.1189 5.42828C14.1147 5.38794 14.1645 5.36575 14.1917 5.39588L14.391 5.61708C14.4031 5.63056 14.4225 5.63469 14.4391 5.62731L14.7095 5.50695C14.7465 5.49044 14.7831 5.53105 14.7627 5.56618L14.6149 5.82172C14.6058 5.83744 14.6079 5.85723 14.62 5.87072L14.8196 6.09223C14.8467 6.12233 14.8196 6.16955 14.7799 6.16126L14.4885 6.10029C14.4709 6.09659 14.4528 6.10462 14.4437 6.12022L14.2941 6.37757C14.2737 6.41259 14.2204 6.40117 14.2162 6.36088L14.1851 6.06434C14.1833 6.04628 14.1699 6.03149 14.1522 6.02773L13.8633 5.96662C13.8236 5.95822 13.8179 5.9039 13.855 5.88739L14.1253 5.76703C14.1419 5.75965 14.1518 5.74245 14.1499 5.72441L14.1189 5.42828Z" fill="white"/>
<defs>
<clipPath id="clip0_148_52">
<path d="M0 1.6C0 0.716345 0.716345 0 1.6 0H11.2V6.4C11.2 7.28366 10.4837 8 9.6 8H0V1.6Z" fill="white"/>
</clipPath>
</defs>
</svg>
