<svg width="21" height="15" viewBox="0 0 21 15" fill="none" xmlns="http://www.w3.org/2000/svg">
<g clip-path="url(#clip0_148_391)">
<path d="M0 0H21V15H0V0Z" fill="#1E50A0"/>
<path d="M21 0V15L0 0H21Z" fill="#5C9E31"/>
<path d="M7.00001 7.5C6.99902 7.0401 7.08888 6.58453 7.26442 6.15945C7.43997 5.73436 7.69774 5.34814 8.02294 5.02294C8.34814 4.69774 8.73436 4.43997 9.15945 4.26442C9.58453 4.08888 10.0401 3.99902 10.5 4.00001C10.9599 3.99902 11.4155 4.08888 11.8406 4.26442C12.2656 4.43997 12.6519 4.69774 12.9771 5.02294C13.3023 5.34814 13.56 5.73436 13.7356 6.15945C13.9111 6.58453 14.001 7.0401 14 7.5C14.001 7.9599 13.9111 8.41547 13.7356 8.84055C13.56 9.26564 13.3023 9.65186 12.9771 9.97706C12.6519 10.3023 12.2656 10.56 11.8406 10.7356C11.4155 10.9111 10.9599 11.001 10.5 11C10.0401 11.001 9.58453 10.9111 9.15945 10.7356C8.73436 10.56 8.34814 10.3023 8.02294 9.97706C7.69774 9.65186 7.43997 9.26564 7.26442 8.84055C7.08888 8.41547 6.99902 7.9599 7.00001 7.5Z" fill="#F1B31C"/>
<path d="M4.46213 10.4596L4.69787 9.66022L4.93329 10.4598L4.31679 9.96227H5.07896L4.46246 10.4598L4.46213 10.4596ZM1.98961 9.52053L1.70705 9.80467L1.73485 9.39177L1.35474 9.3261L1.67242 9.09228L1.48041 8.73701L1.84866 8.85777L1.98994 8.47266L2.13122 8.85777L2.49946 8.73701L2.30778 9.09228L2.62514 9.3261L2.2447 9.3887L2.2725 9.8016L1.9901 9.51729L1.98961 9.52053Z" fill="white" stroke="white" stroke-width="0.353442" stroke-linecap="round" stroke-linejoin="round"/>
<path fill-rule="evenodd" clip-rule="evenodd" d="M5.80024 8.72172L5.51768 9.00245L5.54548 8.58954L5.16504 8.52695L5.48272 8.29312L5.29071 7.93428L5.65896 8.05503L5.80024 7.66992L5.94152 8.05503L6.30977 7.93428L6.11808 8.29312L6.43544 8.52695L6.055 8.58954L6.0828 9.00245L5.8004 8.72172H5.80024Z" fill="white" stroke="white" stroke-width="0.353442" stroke-linecap="round" stroke-linejoin="round"/>
<path fill-rule="evenodd" clip-rule="evenodd" d="M3.76801 7.12309L3.48545 7.40382L3.51325 6.99091L3.13281 6.92832L3.45049 6.69449L3.25849 6.33565L3.62673 6.4564L3.76801 6.07129L3.9093 6.4564L4.27754 6.33565L4.08586 6.69449L4.40321 6.92832L4.02278 6.99091L4.05058 7.40382L3.76818 7.12309H3.76801Z" fill="white" stroke="white" stroke-width="0.353442" stroke-linecap="round" stroke-linejoin="round"/>
<path fill-rule="evenodd" clip-rule="evenodd" d="M3.76801 12.7188L3.48545 12.9995L3.51325 12.5866L3.13281 12.524L3.45049 12.2902L3.25849 11.9313L3.62673 12.0521L3.76801 11.667L3.9093 12.0521L4.27754 11.9313L4.08586 12.2902L4.40321 12.524L4.02278 12.5866L4.05058 12.9995L3.76818 12.7188H3.76801Z" fill="white" stroke="white" stroke-width="0.353442" stroke-linecap="round" stroke-linejoin="round"/>
<path d="M9.01536 6.6937C9.18139 6.73964 9.33827 6.82244 9.47742 6.93755C9.89216 7.28107 10.4418 7.30608 10.8784 7.0016C11.0512 6.86442 11.2086 6.70242 11.3468 6.51958L11.8091 5.95703C11.9422 6.02993 12.0937 6.04315 12.2346 5.99417C12.2102 6.40513 12.2811 6.81629 12.4396 7.18463C12.081 7.45205 11.7886 7.8241 11.5914 8.26386C11.4963 8.6142 11.4428 8.97818 11.4326 9.34538C11.4258 9.48615 11.392 9.62333 11.3338 9.74687C11.2726 9.87173 11.1549 9.94411 11.032 9.93236C10.8213 9.89295 10.7594 9.56914 10.7888 9.32321C10.8182 9.07727 10.8847 8.80064 10.761 8.59772C10.6498 8.45732 10.4989 8.36845 10.336 8.34742L9.40214 8.09637C9.18396 8.03801 8.90757 8.00353 8.78157 8.21991C8.76776 8.25268 8.74695 8.28092 8.72126 8.30195C8.6372 8.35121 8.57835 8.18675 8.60778 8.08292C8.69574 7.88385 8.81703 7.70732 8.96448 7.56376C9.09178 7.39608 9.17713 7.12873 9.0526 6.95783C8.89684 6.74315 8.92188 6.68158 9.01536 6.69332V6.6937Z" fill="#5C9E31" stroke="#5C9E31" stroke-width="0.353442" stroke-linecap="round" stroke-linejoin="round"/>
<path d="M15 5L19 3.6358M16.5585 3.02319L17.7892 4.04638L18.2045 2.89533L17.7892 2" stroke="#F1B31C" stroke-width="0.707054" stroke-linecap="round" stroke-linejoin="round"/>
</g>
<defs>
<clipPath id="clip0_148_391">
<rect width="21" height="15" rx="3" fill="white"/>
</clipPath>
</defs>
</svg>
