<svg width="21" height="15" viewBox="0 0 21 15" fill="none" xmlns="http://www.w3.org/2000/svg">
<g clip-path="url(#clip0_148_392)">
<rect width="21" height="15" rx="3" fill="white"/>
<path fill-rule="evenodd" clip-rule="evenodd" d="M0 10H21V15H0V10Z" fill="#249F58"/>
<path fill-rule="evenodd" clip-rule="evenodd" d="M0 0H21V5H0V0Z" fill="#151515"/>
<path fill-rule="evenodd" clip-rule="evenodd" d="M0 0V15.033L10 7.5L0 0Z" fill="#F93939"/>
<path d="M13.5 9C14.3284 9 15 8.32843 15 7.5C15 6.67157 14.3284 6 13.5 6C12.6716 6 12 6.67157 12 7.5C12 8.32843 12.6716 9 13.5 9Z" fill="#F93939"/>
<path d="M14.0625 9C14.8909 9 15.5625 8.32843 15.5625 7.5C15.5625 6.67157 14.8909 6 14.0625 6C13.2341 6 12.5625 6.67157 12.5625 7.5C12.5625 8.32843 13.2341 9 14.0625 9Z" fill="white"/>
<path d="M13.1641 8.20543C13.143 8.2697 13.2163 8.32356 13.2713 8.28422L13.6958 7.98075C13.7204 7.96318 13.7535 7.96336 13.7779 7.9812L14.1991 8.28925C14.2537 8.32919 14.3275 8.27613 14.3071 8.21163L14.1497 7.71412C14.1406 7.68532 14.151 7.65392 14.1755 7.63624L14.5986 7.33085C14.6534 7.29126 14.6258 7.20461 14.5582 7.20409L14.0363 7.20007C14.0061 7.19984 13.9795 7.18026 13.9702 7.1515L13.8106 6.6547C13.7899 6.5903 13.6989 6.5898 13.6775 6.65398L13.5124 7.14901C13.5029 7.17767 13.476 7.19697 13.4458 7.19687L12.924 7.19523C12.8563 7.19501 12.8278 7.28136 12.8822 7.32154L13.302 7.6315C13.3263 7.64945 13.3363 7.68096 13.3269 7.70966L13.1641 8.20543Z" fill="#F93939"/>
</g>
<defs>
<clipPath id="clip0_148_392">
<rect width="21" height="15" rx="3" fill="white"/>
</clipPath>
</defs>
</svg>
