<svg width="21" height="15" viewBox="0 0 21 15" fill="none" xmlns="http://www.w3.org/2000/svg">
<g clip-path="url(#clip0_148_1079)">
<path d="M0 0H21V15H0V0Z" fill="#FCDE02"/>
<path d="M21 0V15L0 0H21Z" fill="#018A2C"/>
<path d="M9.16454 9.5009C9.11038 9.6658 9.29842 9.80398 9.43962 9.70304L10.5288 8.92444C10.5919 8.87936 10.6767 8.87983 10.7393 8.92558L11.8199 9.71595C11.96 9.81842 12.1495 9.68229 12.0972 9.51681L11.6933 8.24033C11.6699 8.16644 11.6965 8.08588 11.7594 8.04052L12.845 7.25698C12.9858 7.15541 12.9149 6.93309 12.7413 6.93176L11.4025 6.92146C11.325 6.92086 11.2566 6.87061 11.2329 6.79682L10.8232 5.5222C10.7701 5.35696 10.5367 5.35569 10.4818 5.52034L10.0583 6.79045C10.0338 6.86398 9.96486 6.91348 9.88736 6.91324L8.54851 6.90902C8.37494 6.90847 8.30163 7.13 8.44126 7.2331L9.51833 8.02837C9.58069 8.07441 9.60647 8.15525 9.58229 8.22889L9.16454 9.5009Z" fill="#F93939"/>
</g>
<defs>
<clipPath id="clip0_148_1079">
<rect width="21" height="15" rx="3" fill="white"/>
</clipPath>
</defs>
</svg>
