<svg width="21" height="15" viewBox="0 0 21 15" fill="none" xmlns="http://www.w3.org/2000/svg">
<path d="M21 12.6922C21 13.3043 20.7542 13.8912 20.3166 14.324C19.879 14.7568 19.2855 14.9999 18.6667 14.9999H2.33333C1.71449 14.9999 1.121 14.7568 0.683417 14.324C0.245833 13.8912 0 13.3043 0 12.6922V9.80762H21V12.6922Z" fill="#DA1C0B"/>
<path d="M18.6667 0H2.33333C1.71449 0 1.121 0.243131 0.683417 0.675908C0.245833 1.10868 0 1.69566 0 2.30769L0 10.3846H21V2.30769C21 1.69566 20.7542 1.10868 20.3166 0.675908C19.879 0.243131 19.2855 0 18.6667 0Z" fill="#EEEEEE"/>
<path d="M8.42951 3.09375V3.54317H7.97568V3.09375H7.06743V3.54317H6.61301V3.09375H6.15918V3.99202H6.61301V6.23741H8.42951V3.99202H8.88393V3.09375H8.42951Z" fill="#DA1C0B"/>
<path d="M8.89074 5.33887V5.78829H8.43632V5.33887H7.98249V5.78829H7.07424V5.33887H6.61982V5.78829H6.16599V5.33887H5.71216V6.23714H6.16599V8.69137L5.71216 8.93137V9.38079H9.34457V8.93137L8.89074 8.69137V6.23714H9.34457V5.33887H8.89074Z" fill="#DA1C0B"/>
<path d="M7.06763 4.89062H7.97588V5.78889H7.06763V4.89062Z" fill="black"/>
<path d="M7.97578 4.89077C7.97797 4.95102 7.96785 5.0111 7.94605 5.06741C7.92424 5.12372 7.89118 5.1751 7.84885 5.2185C7.80652 5.26189 7.75578 5.29641 7.69967 5.31998C7.64355 5.34355 7.58321 5.3557 7.52224 5.3557C7.46127 5.3557 7.40093 5.34355 7.34481 5.31998C7.2887 5.29641 7.23796 5.26189 7.19563 5.2185C7.1533 5.1751 7.12024 5.12372 7.09844 5.06741C7.07663 5.0111 7.06651 4.95102 7.0687 4.89077C7.07291 4.77458 7.12254 4.66455 7.20714 4.58383C7.29173 4.50312 7.40469 4.45801 7.52224 4.45801C7.63979 4.45801 7.75275 4.50312 7.83735 4.58383C7.92194 4.66455 7.97157 4.77458 7.97578 4.89077ZM7.97578 7.71942C7.97578 7.36115 7.8842 7.07038 7.52195 7.07038C7.1597 7.07038 7.06812 7.36115 7.06812 7.71942V8.48384H7.97637L7.97578 7.71942Z" fill="black"/>
<path d="M14.5308 3.09375V3.54317H14.077V3.09375H13.1687V3.54317H12.7149V3.09375H12.2605V3.99202H12.7149V6.23741H14.5308V3.99202H14.9858V3.09375H14.5308Z" fill="#DA1C0B"/>
<path d="M14.9858 5.33887V5.78829H14.5308V5.33887H14.077V5.78829H13.1687V5.33887H12.7149V5.78829H12.2605V5.33887H11.8066V6.23714H12.2605V8.69137L11.8066 8.93137V9.38079H15.4391V8.93137L14.9858 8.69137V6.23714H15.4391V5.33887H14.9858Z" fill="#DA1C0B"/>
<path d="M13.1687 4.89062H14.077V5.78889H13.1687V4.89062Z" fill="black"/>
<path d="M14.0771 4.89025C14.0771 5.00929 14.0293 5.12346 13.9442 5.20763C13.8591 5.29181 13.7436 5.3391 13.6233 5.3391C13.5029 5.3391 13.3875 5.29181 13.3024 5.20763C13.2172 5.12346 13.1694 5.00929 13.1694 4.89025C13.1694 4.77121 13.2172 4.65705 13.3024 4.57287C13.3875 4.4887 13.5029 4.44141 13.6233 4.44141C13.7436 4.44141 13.8591 4.4887 13.9442 4.57287C14.0293 4.65705 14.0771 4.77121 14.0771 4.89025ZM14.0771 7.71891C14.0771 7.36064 13.9855 7.06987 13.6233 7.06987C13.261 7.06987 13.1694 7.36064 13.1694 7.71891V8.48333H14.0777L14.0771 7.71891Z" fill="black"/>
<path d="M11.6667 1.73145V2.30837H11.0833V1.73145H9.91667V2.30837H9.33333V1.73145H8.75V2.88529H9.33333V5.76991H11.6667V2.88529H12.25V1.73145H11.6667Z" fill="#DA1C0B"/>
<path d="M12.2501 4.61523V5.19216H11.6667V4.61523H11.0834V5.19216H9.91675V4.61523H9.33341V5.19216H8.75008V4.61523H8.16675V9.80755H12.8334V4.61523H12.2501Z" fill="#DA1C0B"/>
<path d="M9.91675 4.03906H11.0834V5.19291H9.91675V4.03906Z" fill="black"/>
<path d="M10.5001 4.61478C10.8222 4.61478 11.0834 4.35649 11.0834 4.03786C11.0834 3.71923 10.8222 3.46094 10.5001 3.46094C10.1779 3.46094 9.91675 3.71923 9.91675 4.03786C9.91675 4.35649 10.1779 4.61478 10.5001 4.61478Z" fill="black"/>
<path d="M11.3424 7.67097C11.3424 7.45002 11.2536 7.23813 11.0957 7.08189C10.9377 6.92566 10.7234 6.83789 10.5 6.83789C10.2766 6.83789 10.0624 6.92566 9.90443 7.08189C9.74646 7.23813 9.65771 7.45002 9.65771 7.67097V8.92116H11.343L11.3424 7.67097Z" fill="black"/>
<path d="M10.5943 10.5869V10.6636L11.2237 11.2856L10.5943 11.9075V14.6288H10.3913V14.3248H9.69653V13.9169H9.89953V14.1252H10.3913V13.52H9.89953V13.7248H9.69653V13.3198H10.3913V11.9063L9.76128 11.2856L10.3913 10.666V10.5869H10.5943Z" fill="#FFF100"/>
<path d="M10.0566 11.2831L10.493 10.8516L10.9293 11.2837L10.4924 11.7152L10.0566 11.2831Z" fill="#DA1C0B"/>
<path d="M10.5856 9.41602H10.4141C10.2724 9.41602 10.1575 9.58909 10.1575 9.80198V10.5739C10.1575 10.7868 10.2724 10.9599 10.4141 10.9599H10.5856C10.7274 10.9599 10.8423 10.7868 10.8423 10.5739V9.80198C10.8423 9.58909 10.7274 9.41602 10.5856 9.41602ZM10.6498 10.5866C10.6498 10.7072 10.5851 10.8041 10.5057 10.8041C10.4264 10.8041 10.3611 10.7072 10.3611 10.5866V9.80832C10.3611 9.6889 10.4258 9.59198 10.5057 9.59198C10.5856 9.59198 10.6498 9.6889 10.6498 9.80832V10.5866Z" fill="#FFF100"/>
<path d="M11.2734 8.80657C11.211 8.77196 11.1276 8.77311 11.0879 8.8083L10.4999 9.33273L9.91189 8.8083C9.87223 8.77311 9.78881 8.77254 9.72639 8.80657C9.66339 8.84061 9.64472 8.89657 9.68439 8.93234L10.4031 9.57157C10.4252 9.59119 10.4614 9.59754 10.4999 9.59523C10.5384 9.59754 10.574 9.59119 10.5967 9.57157L11.3154 8.93234C11.3556 8.89657 11.337 8.84004 11.2734 8.80657Z" fill="#FFF100"/>
</svg>
