<svg width="21" height="15" viewBox="0 0 21 15" fill="none" xmlns="http://www.w3.org/2000/svg">
<g clip-path="url(#clip0_148_1132)">
<path d="M21 0H0V15H21V0Z" fill="white"/>
<path d="M0 7.5H21V15H0V7.5ZM3.5 7.5C3.5 8.82608 3.99166 10.0979 4.86683 11.0355C5.742 11.9732 6.92899 12.5 8.16667 12.5C9.40434 12.5 10.5913 11.9732 11.4665 11.0355C12.3417 10.0979 12.8333 8.82608 12.8333 7.5C12.8333 6.17392 12.3417 4.90215 11.4665 3.96447C10.5913 3.02678 9.40434 2.5 8.16667 2.5C6.92899 2.5 5.742 3.02678 4.86683 3.96447C3.99166 4.90215 3.5 6.17392 3.5 7.5Z" fill="#C8102E"/>
</g>
<defs>
<clipPath id="clip0_148_1132">
<rect width="21" height="15" rx="3" fill="white"/>
</clipPath>
</defs>
</svg>
