<svg width="21" height="15" viewBox="0 0 21 15" fill="none" xmlns="http://www.w3.org/2000/svg">
<g clip-path="url(#clip0_149_25)">
<path fill-rule="evenodd" clip-rule="evenodd" d="M0 0H21V15H0V0Z" fill="#C62139"/>
<path fill-rule="evenodd" clip-rule="evenodd" d="M0.512207 0.681641H20.4878V14.318H0.512207V0.681641Z" fill="#00297B"/>
<path fill-rule="evenodd" clip-rule="evenodd" d="M10.409 3.26465C10.409 3.26465 8.13257 5.47254 8.13257 7.76594C8.13257 10.0597 10.409 12.3264 10.409 12.3264C10.409 12.3264 12.671 10.2252 12.671 7.76594C12.671 5.30749 10.409 3.26465 10.409 3.26465Z" fill="#92DBFC"/>
<path fill-rule="evenodd" clip-rule="evenodd" d="M8.38428 9.16642C8.97687 10.9008 10.4088 12.3266 10.4088 12.3266C10.4088 12.3266 11.8666 10.9723 12.4412 9.16602" fill="#008CE7"/>
<path fill-rule="evenodd" clip-rule="evenodd" d="M12.4493 8.66504C12.0984 8.97115 10.1237 8.82409 10.1237 8.82409L10.0132 9.16696L12.3647 9.17575C12.3743 9.1286 12.3977 9.07265 12.4061 9.02549L12.4493 8.66504Z" fill="#CCCCCC"/>
<path fill-rule="evenodd" clip-rule="evenodd" d="M8.91602 10.0838C9.01598 10.0878 9.11565 10.1138 9.20511 10.1717C9.36512 10.2744 9.45758 10.2736 9.62989 10.2768C9.81031 10.28 9.95201 10.4419 10.1468 10.4487C10.5059 10.4606 10.6572 10.6784 10.378 10.6784C10.2459 10.6784 9.96312 10.5705 9.82652 10.5929C9.61879 10.6185 9.49871 10.6377 9.345 10.7867C9.19188 10.5637 9.04864 10.329 8.91602 10.0838ZM9.62659 11.1752C9.71545 11.1012 9.77669 11.0433 9.86315 11.0397C10.0313 11.0337 10.0883 10.907 10.2825 10.907C10.5032 10.9562 10.8019 10.8751 10.9772 10.8271C11.2876 10.74 11.1405 10.4754 10.9523 10.3791C10.8004 10.2996 10.5155 10.3751 10.3387 10.2964C10.2051 10.2325 10.3153 10.1314 10.3873 10.1098C10.4596 10.0934 10.5374 10.1226 10.6281 10.1406C10.7969 10.1538 10.9662 10.1444 11.1336 10.1126C11.4263 10.0578 11.4143 9.95313 11.5557 9.95074C11.6586 9.94514 11.7373 9.90758 11.8078 9.84644C11.8901 9.7793 11.9763 9.64143 12.0762 9.64663L12.1351 9.64982C11.5176 11.106 10.4086 12.0619 10.4086 12.0619C10.4086 12.0619 10.0502 11.7274 9.62659 11.1752Z" fill="#FFDE52"/>
<path fill-rule="evenodd" clip-rule="evenodd" d="M9.76364 8.5471C9.77204 8.53192 9.78045 8.53871 9.78885 8.5471L9.80687 9.66044H9.74683L9.76364 8.5471Z" fill="#8C4200"/>
<path fill-rule="evenodd" clip-rule="evenodd" d="M9.03567 9.62342C9.03567 9.62342 9.79368 9.69375 10.2587 9.57227C10.2587 9.57227 10.2977 9.60423 10.2419 9.68416C10.1857 9.76408 10.0437 9.78127 9.96569 9.79845C9.96569 9.79845 9.94678 9.8496 9.94828 9.87637C9.95008 9.90315 9.99751 9.90035 10.0209 9.89436L10.0443 9.88876C10.0443 9.88876 10.0332 9.98867 9.74625 10.0019C9.65198 10.0062 9.34158 10.0142 9.27583 9.90195C9.27583 9.90195 9.33287 9.90754 9.34758 9.90195C9.36259 9.89635 9.35148 9.82402 9.34608 9.81363C9.34068 9.80324 9.14494 9.81363 9.04168 9.69775C9.01616 9.66458 9.00415 9.62901 9.00415 9.61662C9.00415 9.61542 9.03567 9.62342 9.03567 9.62342ZM9.43073 9.81723C9.43073 9.81723 9.63817 9.8496 9.87683 9.81723C9.87683 9.81723 9.88314 9.87238 9.87233 9.89316C9.86152 9.91434 9.58594 9.93032 9.44695 9.90115C9.42473 9.89236 9.42383 9.85919 9.43073 9.81723Z" fill="#8C4200"/>
<path fill-rule="evenodd" clip-rule="evenodd" d="M9.17334 9.54808C9.17334 9.54808 9.4135 9.14686 9.33635 8.45312C9.7077 8.72806 10.0232 9.14247 10.1091 9.5273C9.77224 9.4234 9.47474 9.49533 9.17334 9.54808Z" fill="#FDF9FF"/>
<path fill-rule="evenodd" clip-rule="evenodd" d="M10.4094 3C10.4094 3 8 5.18631 8 7.76424C8 10.3426 10.4094 12.5908 10.4094 12.5908C10.4094 12.5908 12.8032 10.528 12.8032 7.76424C12.8032 5.00089 10.4094 3 10.4094 3ZM10.4085 3.52909C10.4085 3.52909 8.26508 5.47403 8.26508 7.76784C8.26508 10.0616 10.4085 12.0617 10.4085 12.0617C10.4085 12.0617 12.5381 10.2267 12.5381 7.76784C12.5381 5.30899 10.4085 3.52909 10.4085 3.52909Z" fill="#C62139"/>
<path fill-rule="evenodd" clip-rule="evenodd" d="M11.046 10.1082C11.0844 10.2888 11.125 10.3504 11.2808 10.3967C11.4345 10.4431 11.6692 10.2608 11.5239 10.0842C11.3852 9.91957 11.2393 9.87761 11.1151 9.72935C10.9226 9.49677 10.6585 9.01563 10.533 8.56087C10.3958 8.06334 10.4195 6.66348 10.4258 5.95416C10.4258 5.94617 10.4423 5.94097 10.4444 5.93778C10.4534 5.92179 10.4618 5.94257 10.4477 5.83867C10.4441 5.8119 10.4267 5.78432 10.4267 5.75755C10.427 5.7096 10.2907 5.8099 10.255 5.89582C10.2466 5.9154 10.2811 5.97135 10.2811 5.98214C10.2856 6.66268 10.2256 8.0062 10.3739 8.61442C10.4654 8.99086 10.6329 9.28178 10.7842 9.55072C10.8752 9.72295 11.0064 9.90918 11.046 10.1082Z" fill="#8C4200"/>
<path fill-rule="evenodd" clip-rule="evenodd" d="M8.99409 5.75332C9.00399 5.76931 9.00249 5.83964 9.00249 5.83964C9.0103 5.84523 9.13878 5.70617 9.13878 5.71256C9.13878 5.74173 9.14179 5.80207 9.14179 5.80207C9.14179 5.80207 9.27477 5.64822 9.28018 5.66421C9.28618 5.68259 9.27958 5.7721 9.27958 5.7721L9.38435 5.63144C9.39606 5.61625 9.39425 5.65102 9.39516 5.70657C9.39546 5.71656 9.54015 5.57669 9.54886 5.57429C9.56777 5.5691 9.57347 5.64702 9.57257 5.66621C9.57167 5.68059 9.70616 5.57309 9.70016 5.58708L9.71007 5.6698C9.74759 5.66381 9.83675 5.62305 9.89019 5.63384C9.9076 5.63703 9.9067 5.64742 9.89139 5.65542C9.63291 5.78289 9.43388 5.97511 9.318 6.24285C9.27868 6.33437 9.26667 6.41389 9.27718 6.43387C9.27718 6.43387 9.32341 6.31199 9.37594 6.29281C9.38285 6.29041 9.38765 6.37113 9.39486 6.36633C9.39486 6.36633 9.43448 6.24445 9.463 6.1993C9.47081 6.18731 9.48341 6.26323 9.49182 6.25204C9.49182 6.25204 9.51223 6.17052 9.55276 6.11338C9.55846 6.10538 9.56897 6.1909 9.57528 6.18371C9.6173 6.13655 9.65633 6.01867 9.67194 6.00988C9.68305 5.99949 9.68485 6.10778 9.69536 6.09859C9.69536 6.09859 9.7551 5.95233 9.79052 5.92596C9.81363 5.90877 9.81273 6.00588 9.81273 6.00588C9.85806 5.95113 9.9082 5.86042 9.93191 5.82126C9.94302 5.80287 9.93702 5.94034 9.94843 5.94594C9.96344 5.95273 10.0616 5.84044 10.0724 5.83804C10.0799 5.83684 10.0883 5.87001 10.0694 5.89718L9.94812 6.06742C9.97154 6.07302 9.98055 6.06502 9.99706 6.07022C10.0469 6.0862 9.904 6.18611 9.9067 6.20449C9.9067 6.20449 9.97544 6.20289 9.95233 6.21928C9.93582 6.23126 9.84486 6.37353 9.84486 6.36833C9.84486 6.36594 9.89049 6.36953 9.89019 6.38552C9.88989 6.41509 9.81484 6.56734 9.81393 6.56654C9.81003 6.56175 9.85446 6.56015 9.86047 6.57494C9.87157 6.60291 9.78332 6.72599 9.80043 6.74677C9.80283 6.74997 9.85086 6.74797 9.87217 6.75356C9.88238 6.75636 9.9112 6.97735 9.90399 6.96856C9.91602 6.87714 9.93297 6.78699 9.95473 6.69882C9.96674 6.66125 10.0055 6.75596 10.0085 6.74757C10.007 6.74757 10.0007 6.6129 10.0061 6.55136C10.0076 6.53417 10.0355 6.56934 10.0349 6.55296C10.034 6.51579 10.0316 6.47583 10.0379 6.43947C10.0424 6.41229 10.0661 6.48902 10.0754 6.46824C10.0754 6.46824 10.0466 6.33477 10.0586 6.2972C10.0664 6.27242 10.0856 6.35714 10.0982 6.36034C10.0982 6.36034 10.091 6.25644 10.1042 6.23007L10.1442 6.28202C10.1529 6.26523 10.1511 6.10339 10.1592 6.0886C10.1658 6.07581 10.2072 6.14894 10.2132 6.13775C10.2189 6.12696 10.1958 6.00708 10.2012 5.99789C10.2084 5.9839 10.2537 6.03106 10.2546 6.02986C10.2729 6.00748 10.2726 5.95073 10.2801 5.92995C10.3012 5.87321 10.4206 5.86601 10.4347 5.90598C10.4417 5.92596 10.4369 5.95113 10.4341 5.9819C10.4351 5.9827 10.4942 5.9879 10.4942 5.9823C10.4942 5.9823 10.4873 6.04944 10.4915 6.12297C10.4921 6.13296 10.5512 6.12057 10.5521 6.13056C10.5572 6.19969 10.5443 6.20649 10.5443 6.20649C10.5449 6.21128 10.5842 6.1985 10.5848 6.20409C10.5874 6.24457 10.5796 6.28501 10.5626 6.31878C10.5596 6.32438 10.6188 6.31319 10.6197 6.31998C10.6269 6.37193 10.6281 6.41349 10.6209 6.48702C10.6203 6.49261 10.6785 6.43507 10.6794 6.44106C10.6884 6.5026 10.6779 6.56934 10.6833 6.63368C10.6845 6.64847 10.7217 6.58932 10.7253 6.60651C10.7283 6.62329 10.7169 6.74557 10.7223 6.75277C10.7223 6.75277 10.7851 6.74877 10.7905 6.75516C10.84 6.81191 10.8307 6.91101 10.8307 6.91101C10.8442 6.89863 10.8391 6.77914 10.8253 6.67044C10.8238 6.65885 10.8733 6.66325 10.8718 6.65246C10.8718 6.65246 10.8178 6.6125 10.7998 6.50181C10.7959 6.47823 10.852 6.48302 10.852 6.48302C10.8364 6.43946 10.8091 6.43107 10.786 6.38911C10.7785 6.37553 10.8442 6.36913 10.8442 6.36514C10.8442 6.32358 10.7887 6.3036 10.7599 6.26004C10.7476 6.24165 10.8199 6.24046 10.8199 6.24046C10.7989 6.20449 10.7286 6.18851 10.6929 6.14135C10.6737 6.11538 10.7641 6.0898 10.7629 6.0854C10.753 6.04744 10.668 6.03545 10.6266 5.99229C10.6182 5.9835 10.6806 5.95353 10.6806 5.95353C10.6743 5.93755 10.5383 5.82845 10.6074 5.83844C10.6368 5.84244 10.6959 5.89319 10.7004 5.8856C10.7004 5.8856 10.698 5.82166 10.704 5.81446C10.7268 5.78569 10.8052 5.93635 10.8316 5.93035C10.8316 5.93035 10.8415 5.82246 10.8535 5.81926C10.8823 5.81286 10.9172 5.97671 10.9454 5.97671C10.9493 5.97671 10.9514 5.882 10.9658 5.8768C10.9823 5.87081 11.0009 5.9831 11.0216 6.00788C11.0409 6.03066 11.0412 5.91996 11.0526 5.94114C11.0718 5.97511 11.0766 6.04584 11.1027 6.07701C11.1198 6.09699 11.1228 5.97951 11.1417 5.99509C11.1639 6.01347 11.1588 6.07421 11.1834 6.10419C11.1955 6.11857 11.2033 6.02666 11.2165 6.04025C11.2285 6.05224 11.2366 6.16413 11.2495 6.18211C11.2657 6.20489 11.2846 6.12297 11.3014 6.13576C11.3134 6.14535 11.3107 6.24245 11.3221 6.26363C11.3453 6.30679 11.3573 6.21128 11.3726 6.22607C11.3834 6.23606 11.4065 6.34755 11.4161 6.35634C11.4374 6.37633 11.4491 6.30559 11.4656 6.31558C11.4776 6.32278 11.5014 6.46664 11.5113 6.46304C11.5173 6.46064 11.5335 6.13496 11.4305 5.99749C11.2633 5.7737 10.9634 5.64463 10.7187 5.64143C10.7187 5.64143 10.8418 5.61146 10.8448 5.58668C10.8514 5.53713 10.9124 5.54272 10.955 5.55471C10.9625 5.55631 10.9586 5.4668 10.9595 5.4668C10.9976 5.4652 11.0315 5.49277 11.0682 5.51955C11.0793 5.52834 11.0451 5.43003 11.0571 5.43842C11.1039 5.47159 11.1561 5.48118 11.1874 5.52114C11.1958 5.53153 11.178 5.44562 11.178 5.44562C11.2012 5.43882 11.2471 5.47958 11.2654 5.51835C11.2744 5.53713 11.2648 5.41804 11.2717 5.43922C11.2717 5.43922 11.3534 5.47279 11.3618 5.51435C11.3618 5.51435 11.3687 5.43882 11.3798 5.44282C11.4122 5.45321 11.441 5.52035 11.4665 5.53034C11.4665 5.53034 11.4557 5.4628 11.4641 5.4652C11.5254 5.48438 11.592 5.53034 11.592 5.53034C11.5575 5.42484 11.4263 5.31454 11.1958 5.28497C11.0755 5.27372 10.9546 5.28286 10.8361 5.31214C10.7169 5.34571 10.623 5.36489 10.6422 5.34212C10.7208 5.24781 10.8484 5.23622 10.8835 5.21424C10.9085 5.19865 10.7989 5.1471 10.8205 5.13991C10.8424 5.13351 10.9403 5.12392 10.9403 5.12392C10.9613 5.10354 10.8691 5.06398 10.8829 5.03441C10.9106 4.97567 11.0739 5.02921 11.088 5.00644C11.0925 4.99924 11.0177 4.94529 11.0207 4.9373C11.0327 4.90773 11.178 4.95968 11.1816 4.93331C11.1816 4.93331 11.1375 4.89334 11.106 4.86058C11.1024 4.85658 11.236 4.81262 11.236 4.81262C11.2195 4.79773 11.2015 4.7859 11.1825 4.77746C11.1543 4.76427 11.2996 4.71831 11.2996 4.71831C11.1156 4.61561 10.6377 4.90733 10.5428 5.21024C10.5182 5.28257 10.5173 5.20385 10.5227 5.14271C10.5275 5.07677 10.5344 5.01882 10.5287 4.95888C10.5266 4.9409 10.4897 5.00644 10.4867 4.98885C10.4774 4.92491 10.5056 4.85418 10.4927 4.78265C10.4885 4.75867 10.439 4.85338 10.4326 4.82941C10.4143 4.76347 10.4459 4.67076 10.4332 4.57965C10.4281 4.54408 10.3813 4.65557 10.3657 4.624C10.3474 4.58724 10.3552 4.45057 10.3465 4.42979C10.3396 4.413 10.2979 4.49533 10.2943 4.47974C10.2378 4.22918 10.3129 4.19801 10.2042 4.33908C10.2006 4.34427 10.1766 4.19122 10.1724 4.19601C10.1279 4.3119 10.0553 4.11369 10.0301 4.13207C10.0115 4.14606 10.0811 4.22319 10.0817 4.25755C10.082 4.27434 10.0178 4.27554 10.0178 4.27554C10.0193 4.30391 10.14 4.38423 10.1439 4.4154C10.1469 4.44138 10.0586 4.43538 10.0586 4.43538C10.0613 4.47015 10.1619 4.50332 10.1673 4.54088C10.1703 4.56086 10.1201 4.56566 10.1219 4.58684C10.1246 4.61881 10.2192 4.68195 10.2222 4.71472C10.2243 4.73709 10.1619 4.74669 10.1604 4.76747C10.1586 4.79304 10.2859 4.87896 10.2862 4.90334C10.2862 4.9369 10.2351 4.91932 10.2123 4.9365C10.1796 4.96048 10.3165 5.05799 10.3225 5.08596C10.327 5.10994 10.2675 5.08876 10.2654 5.11074C10.263 5.13991 10.3327 5.18387 10.3486 5.23382C10.3645 5.28297 10.3483 5.29576 10.3255 5.27618C10.2795 5.23662 10.0946 4.99725 10.0454 4.93331C9.9451 4.81284 9.817 4.74139 9.68215 4.7307C9.66714 4.7363 9.7608 4.81702 9.7614 4.84619C9.7614 4.85378 9.71937 4.86497 9.72117 4.86697C9.74699 4.89894 9.82774 4.9361 9.82774 4.9361L9.80463 4.98686C9.81003 5.00164 9.84816 5.00564 9.9091 5.03041C9.9091 5.03041 9.86347 5.06478 9.86707 5.06798C9.89919 5.09995 9.96193 5.12273 9.96193 5.12273L9.90009 5.1483C9.89649 5.16269 10.0394 5.23222 10.0394 5.23222C10.0394 5.23222 9.99466 5.27938 9.99676 5.28177C10.0076 5.29496 10.1123 5.32453 10.1123 5.32453C10.1141 5.32653 10.0385 5.3553 10.0388 5.3561C10.0664 5.38967 10.1424 5.40046 10.1601 5.45601C10.1601 5.45601 10.1703 5.48758 10.1403 5.48158C10.0223 5.42923 9.83945 5.32134 9.48492 5.36369C9.12227 5.42124 8.84609 5.80527 8.85089 5.84324C8.85089 5.84324 8.98058 5.73014 8.99409 5.75332Z" fill="#109421"/>
<path d="M10.2909 5.86335C10.3384 5.86335 10.3768 5.81218 10.3768 5.74906C10.3768 5.68594 10.3384 5.63477 10.2909 5.63477C10.2435 5.63477 10.2051 5.68594 10.2051 5.74906C10.2051 5.81218 10.2435 5.86335 10.2909 5.86335Z" fill="#8C4200"/>
<path d="M10.2831 6.05182C10.3305 6.05182 10.369 6.00065 10.369 5.93753C10.369 5.87441 10.3305 5.82324 10.2831 5.82324C10.2357 5.82324 10.1973 5.87441 10.1973 5.93753C10.1973 6.00065 10.2357 6.05182 10.2831 6.05182Z" fill="#8C4200"/>
<path d="M10.401 5.82135C10.4485 5.82135 10.4869 5.77018 10.4869 5.70706C10.4869 5.64394 10.4485 5.59277 10.401 5.59277C10.3536 5.59277 10.3152 5.64394 10.3152 5.70706C10.3152 5.77018 10.3536 5.82135 10.401 5.82135Z" fill="#8C4200"/>
<path d="M10.414 5.98053C10.4614 5.98053 10.4998 5.92937 10.4998 5.86624C10.4998 5.80312 10.4614 5.75195 10.414 5.75195C10.3666 5.75195 10.3281 5.80312 10.3281 5.86624C10.3281 5.92937 10.3666 5.98053 10.414 5.98053Z" fill="#8C4200"/>
<path fill-rule="evenodd" clip-rule="evenodd" d="M9.37808 7.86211C9.37408 7.86211 9.37138 7.86437 9.36998 7.8689C9.36858 7.8729 9.36758 7.87836 9.36698 7.88529H9.35797V7.72144H9.36698C9.36798 7.73556 9.37168 7.74262 9.37808 7.74262H9.59663V7.75661C9.58862 7.75741 9.58462 7.76407 9.58462 7.77659V7.9708C9.58462 7.97613 9.58512 7.98079 9.58612 7.98479C9.58712 7.98879 9.58962 7.99079 9.59363 7.99079H9.59723V8.00477C9.53018 8.06072 9.45073 8.08869 9.35887 8.08869C9.32785 8.08869 9.29783 8.08296 9.26881 8.07151C9.23999 8.05899 9.21447 8.03981 9.19226 8.01396C9.17024 7.98839 9.15223 7.95602 9.13822 7.91686C9.12501 7.87689 9.11841 7.83054 9.11841 7.77779C9.11841 7.72504 9.12501 7.67895 9.13822 7.63952C9.15223 7.59983 9.17024 7.56706 9.19226 7.54122C9.21447 7.51457 9.23989 7.49513 9.26851 7.48287C9.29773 7.46955 9.32785 7.46289 9.35887 7.46289C9.37128 7.46289 9.38218 7.46329 9.39159 7.46409C9.4008 7.46489 9.4098 7.46649 9.41861 7.46888C9.42761 7.47128 9.43682 7.47435 9.44623 7.47808C9.45563 7.48127 9.46674 7.48567 9.47955 7.49126C9.49196 7.49659 9.50337 7.50325 9.51377 7.51124C9.52398 7.51817 9.53058 7.52163 9.53359 7.52163C9.53759 7.52163 9.54109 7.51844 9.54409 7.51204L9.5531 7.51684L9.50477 7.67109L9.49576 7.6631C9.49676 7.6583 9.49726 7.65404 9.49726 7.65031C9.49726 7.64498 9.49306 7.63912 9.48465 7.63273C9.47625 7.62553 9.46564 7.61927 9.45283 7.61395C9.44002 7.60862 9.42551 7.60396 9.4093 7.59996C9.39329 7.59596 9.37768 7.59396 9.36247 7.59396C9.34486 7.59396 9.32785 7.59796 9.31144 7.60595C9.29563 7.61288 9.28132 7.62407 9.26851 7.63952C9.2563 7.65524 9.24649 7.67482 9.23909 7.69827C9.23168 7.72091 9.22798 7.74822 9.22798 7.78019C9.22798 7.81136 9.23238 7.83866 9.24119 7.86211C9.25 7.88475 9.2611 7.9034 9.27451 7.91805C9.28832 7.93297 9.30363 7.9439 9.32044 7.95082C9.33725 7.95775 9.35377 7.96121 9.36998 7.96121C9.39079 7.96121 9.4093 7.95935 9.42551 7.95562C9.44233 7.95162 9.45834 7.94616 9.47355 7.93923V7.86211H9.37808Z" fill="#BD0728"/>
<path fill-rule="evenodd" clip-rule="evenodd" d="M10.0672 7.49886C10.0672 7.493 10.066 7.4886 10.0636 7.48567C10.0618 7.48167 10.0565 7.47888 10.0477 7.47728V7.46289H10.1912V7.47728C10.1824 7.47888 10.1769 7.48154 10.1747 7.48527C10.1727 7.48847 10.1717 7.49286 10.1717 7.49846V7.81575C10.1717 7.8677 10.1667 7.91139 10.1567 7.94683C10.1467 7.98253 10.1329 8.0109 10.1153 8.03195C10.0981 8.05326 10.0776 8.06831 10.054 8.0771C10.0308 8.0851 10.0059 8.08909 9.97927 8.08909C9.95286 8.08909 9.92784 8.0851 9.90422 8.0771C9.88081 8.06831 9.8603 8.05326 9.84268 8.03195C9.82547 8.01063 9.81176 7.98226 9.80156 7.94683C9.79175 7.91139 9.78685 7.8677 9.78685 7.81575V7.49846C9.78685 7.49313 9.78575 7.48887 9.78355 7.48567C9.78154 7.48167 9.77614 7.47888 9.76733 7.47728V7.46289H9.91113V7.47728C9.90232 7.47888 9.89672 7.48154 9.89432 7.48527C9.89232 7.48847 9.89132 7.49286 9.89132 7.49846V7.81575C9.89132 7.86131 9.89902 7.89394 9.91443 7.91366C9.92984 7.93337 9.95146 7.94323 9.97927 7.94323C10.0073 7.94323 10.0289 7.93337 10.0441 7.91366C10.0593 7.89394 10.067 7.86131 10.0672 7.81575V7.49886Z" fill="#BD0728"/>
<path fill-rule="evenodd" clip-rule="evenodd" d="M10.6219 8.06312C10.6219 8.06711 10.6227 8.07031 10.6243 8.07271C10.6263 8.07431 10.6303 8.0751 10.6363 8.0751V8.08949H10.4958V8.07471C10.5019 8.07311 10.5061 8.07071 10.5085 8.06751C10.5113 8.06352 10.514 8.05686 10.5166 8.04753L10.5244 8.01516C10.5286 7.99785 10.5342 7.976 10.5412 7.94962L10.564 7.86051L10.5895 7.7618L10.6141 7.6631L10.6363 7.57598C10.6427 7.55067 10.6478 7.53003 10.6514 7.51404L10.6577 7.48927C10.6577 7.48527 10.6559 7.48247 10.6523 7.48087C10.6491 7.47927 10.6455 7.47808 10.6417 7.47728V7.46289H10.8489V7.47728C10.8449 7.47808 10.8415 7.47927 10.8387 7.48087C10.8361 7.48247 10.8348 7.48647 10.8348 7.49286C10.8348 7.49446 10.8371 7.50472 10.8417 7.52363C10.8471 7.54281 10.8538 7.56786 10.8618 7.59876L10.8888 7.70226L10.9212 7.82015L10.9531 7.93644L10.9816 8.03914C10.9856 8.05326 10.989 8.06272 10.9918 8.06751C10.995 8.07231 10.999 8.07471 11.0038 8.07471V8.08909H10.8474V8.07471C10.8574 8.07391 10.8624 8.06911 10.8624 8.06032L10.8585 8.04473L10.8495 8.01157L10.8405 7.9756C10.8377 7.96494 10.836 7.95748 10.8354 7.95322H10.6475C10.642 7.97453 10.6378 7.99198 10.6348 8.00557L10.6267 8.03754L10.6228 8.05552L10.6219 8.06312ZM10.815 7.85851L10.7378 7.57518L10.6673 7.85851H10.815Z" fill="#BD0728"/>
<path fill-rule="evenodd" clip-rule="evenodd" d="M11.5516 8.07959C11.5612 8.07799 11.5671 8.07572 11.5693 8.07279C11.5717 8.0688 11.5729 8.064 11.5729 8.05841V7.62043L11.5714 7.61803L11.4354 8.07959L11.3012 7.61323H11.2997V8.05841C11.2997 8.06374 11.3007 8.06853 11.3027 8.07279C11.3053 8.07572 11.3114 8.07799 11.321 8.07959V8.09397H11.1865V8.07959C11.1963 8.07799 11.2022 8.07572 11.2042 8.07279C11.2068 8.0688 11.2081 8.064 11.2081 8.05841V7.50334C11.2081 7.49801 11.2068 7.49362 11.2042 7.49015C11.2022 7.48642 11.1963 7.48376 11.1865 7.48216V7.46777H11.3859V7.48216C11.3738 7.48296 11.3678 7.49002 11.3678 7.50334L11.372 7.52252L11.3838 7.56648L11.3997 7.62362C11.4057 7.64334 11.4113 7.66279 11.4165 7.68197C11.4221 7.70008 11.4269 7.71634 11.4309 7.73072C11.4349 7.74511 11.4377 7.75457 11.4393 7.75909C11.4479 7.72899 11.4569 7.69969 11.4663 7.67118C11.4757 7.64267 11.4837 7.61656 11.4903 7.59285C11.4981 7.56888 11.5043 7.5489 11.5089 7.53291C11.5133 7.51719 11.5155 7.50734 11.5155 7.50334C11.5155 7.49002 11.5095 7.48296 11.4975 7.48216V7.46777H11.7044V7.48216C11.6946 7.48376 11.6885 7.48642 11.6861 7.49015C11.6841 7.49335 11.6831 7.49775 11.6831 7.50334V8.05801C11.6831 8.06334 11.6841 8.06813 11.6861 8.07239C11.6885 8.07533 11.6945 8.07759 11.7041 8.07919V8.09357H11.5516V8.07959Z" fill="#BD0728"/>
</g>
<defs>
<clipPath id="clip0_149_25">
<rect width="21" height="15" rx="3" fill="white"/>
</clipPath>
</defs>
</svg>
