<svg width="21" height="15" viewBox="0 0 21 15" fill="none" xmlns="http://www.w3.org/2000/svg">
<g clip-path="url(#clip0_149_79)">
<path fill-rule="evenodd" clip-rule="evenodd" d="M0 0H21V15H0V0Z" fill="#CF142B"/>
<path d="M7.76354 6.20935C7.77141 6.2178 7.86705 6.27892 7.86886 6.27574C7.87067 6.2726 8.12617 6.22331 8.12436 6.22649C8.12259 6.22964 7.97679 6.38914 7.98323 6.3927C7.98963 6.39622 8.12446 6.56581 8.12766 6.56759C8.13086 6.56937 7.8628 6.53726 7.8628 6.53726L7.6804 6.67242L7.64658 6.48823C7.64658 6.48823 7.42545 6.40337 7.42225 6.4016C7.41905 6.39985 7.61578 6.34291 7.61578 6.34291L7.67872 6.1956C7.67872 6.1956 7.75357 6.21212 7.76354 6.20935Z" fill="#F9DD16"/>
<path d="M11.025 6.67384C11.0306 6.51969 10.7445 5.81211 10.6972 5.70319C10.6064 5.58376 10.5123 5.39616 10.4745 5.23561C10.4519 5.07399 10.3686 4.94516 10.2468 4.89843C10.107 4.8196 9.96712 4.84418 9.83308 4.85125C9.76709 4.86283 9.70984 4.89581 9.6765 4.94605C9.60099 5.04523 9.562 5.03624 9.51064 5.07833C9.09754 5.12796 8.70199 5.32386 8.40164 5.45639C8.24154 5.55817 8.10658 5.61593 8.04457 5.62698C7.87759 5.62217 7.7587 5.54045 7.70206 5.49719L7.15135 4.97168C6.99142 4.84611 6.94518 5.01838 6.97579 5.04591C7.02675 5.16332 6.90598 5.22983 7.34218 5.66095L7.50131 6.01064C7.50131 6.01064 7.4888 6.10444 7.49658 6.10873C7.57241 6.30371 7.70444 6.25999 7.76778 6.20807L7.90532 6.09274C7.90532 6.09274 8.17284 6.01891 8.17724 6.0113C8.45991 6.06205 9.19622 5.94877 9.31871 5.89637C9.42941 5.84005 9.4347 5.89096 9.53137 5.81861C9.61183 5.7699 9.56719 5.80929 9.71696 5.68329C9.76299 5.64686 9.79646 5.70935 9.80338 5.75249C9.79825 6.15891 9.84034 6.42003 9.86481 6.8262L10.4735 7.15806L11.025 6.67384Z" fill="white"/>
<path d="M7.49139 5.32424C7.49689 5.32933 7.37772 5.67112 7.37772 5.67112C7.37772 5.67112 7.28144 5.5704 7.28235 5.56883L7.36384 5.20832L7.49139 5.32424Z" fill="#F9DD16"/>
<path d="M10.1688 5.02693C10.1352 5.09616 10.0514 5.19616 10.0501 5.19837L9.96854 5.34649C9.93211 5.42783 9.95256 5.46154 9.9665 5.48584C9.99529 5.53974 9.99972 5.56853 10.021 5.60955C10.0278 5.66011 9.93651 5.67411 9.93522 5.67632C9.74411 5.73465 9.65406 5.55326 9.65336 5.5441C9.63078 5.44971 9.63462 5.43429 9.69317 5.41687C9.76009 5.40404 9.78678 5.40414 9.82043 5.38176C9.88414 5.33797 9.9326 5.20086 9.93386 5.1986C9.93512 5.19635 9.94575 5.12033 9.94575 5.12033C9.9518 5.08365 9.93559 5.04938 9.95661 4.99172C9.98331 4.93624 9.99875 4.92138 10.0577 4.91882C10.1347 4.91447 10.1925 4.96979 10.1688 5.02693Z" fill="#F9DD16"/>
<path d="M12.6625 5.32645C12.6511 5.32892 12.5495 5.37974 12.5514 5.38287C12.5533 5.38598 12.4692 5.62819 12.4673 5.62506C12.4654 5.62198 12.3976 5.41797 12.3913 5.42167C12.385 5.42536 12.1683 5.45521 12.1651 5.45705C12.162 5.45888 12.3241 5.24674 12.3241 5.24674L12.2961 5.02375L12.4752 5.0872C12.4752 5.0872 12.6603 4.94143 12.6635 4.9396C12.6666 4.93774 12.6186 5.13376 12.6186 5.13376L12.7169 5.26112C12.7169 5.26112 12.665 5.31657 12.6625 5.32645Z" fill="#F9DD16"/>
<path d="M10.6248 7.87019C10.7579 7.95212 11.524 8.06296 11.6435 8.07719C11.7941 8.05971 12.0063 8.07358 12.1666 8.12178C12.3202 8.18348 12.4753 8.17706 12.5773 8.09672C12.7165 8.01718 12.7647 7.88582 12.8254 7.76815C12.8481 7.70617 12.8476 7.64091 12.82 7.58737C12.7704 7.47341 12.7977 7.44471 12.7863 7.37991C12.9488 7.00335 12.9737 6.56847 13.0069 6.24638C12.9971 6.05911 13.0136 5.91528 13.0348 5.85695C13.1224 5.71719 13.2538 5.65689 13.3202 5.63033L14.058 5.42464C14.2485 5.35137 14.1198 5.22572 14.0803 5.238C13.9514 5.22259 13.9531 5.08646 13.3556 5.24193L12.9681 5.20228C12.9681 5.20228 12.8917 5.14466 12.884 5.14913C12.6744 5.11605 12.647 5.25035 12.6611 5.33028L12.6941 5.50514C12.6941 5.50514 12.6256 5.76988 12.6301 5.77743C12.4443 5.99268 12.1765 6.67629 12.1615 6.80683C12.1558 6.92928 12.1084 6.90829 12.1238 7.02683C12.1266 7.11972 12.1142 7.06199 12.1504 7.2526C12.1595 7.31004 12.0877 7.30724 12.0463 7.29152C11.6908 7.08362 11.4398 6.98869 11.0698 6.8061L10.4736 7.15817L10.6248 7.87019Z" fill="white"/>
<path d="M13.5777 5.53742C13.5705 5.53955 13.3289 5.26692 13.3289 5.26692C13.3289 5.26692 13.4657 5.23539 13.4666 5.23695L13.7435 5.48688L13.5777 5.53742Z" fill="#F9DD16"/>
<path d="M12.5026 7.96592C12.4583 7.90268 12.4121 7.7812 12.4108 7.77902L12.321 7.6354C12.2676 7.56366 12.2277 7.56418 12.1993 7.56389C12.1374 7.5614 12.1099 7.55075 12.0631 7.5483C12.0152 7.52882 12.0484 7.44406 12.0471 7.44185C12.0911 7.24993 12.2959 7.26411 12.3043 7.2681C12.3987 7.29615 12.4104 7.30713 12.3965 7.36571C12.3744 7.42911 12.361 7.45178 12.3639 7.49164C12.3707 7.56781 12.4673 7.67774 12.4686 7.67994C12.47 7.68214 12.5316 7.72926 12.5316 7.72926C12.5609 7.75278 12.5992 7.75614 12.6395 7.80292C12.6751 7.85343 12.6804 7.87402 12.6532 7.92553C12.6187 7.99321 12.5411 8.01472 12.5026 7.96592Z" fill="#F9DD16"/>
<path d="M10.9949 9.93881C10.9984 9.92789 11.0043 9.81595 11.0006 9.816C10.9969 9.81603 10.8256 9.62311 10.8293 9.62306C10.8329 9.62299 11.0465 9.6675 11.0464 9.66024C11.0463 9.65304 11.1281 9.45358 11.1281 9.44997C11.1281 9.44636 11.234 9.69061 11.234 9.69061L11.4444 9.77843L11.2991 9.89918C11.2991 9.89918 11.3351 10.1298 11.3351 10.1334C11.3352 10.137 11.1865 9.99795 11.1865 9.99795L11.0252 10.0179C11.0252 10.0179 11.0023 9.94592 10.9949 9.93881Z" fill="#F9DD16"/>
<path d="M9.77082 6.9296C9.63224 7.00182 9.15216 7.59857 9.07993 7.69325C9.02019 7.83016 8.90204 8.0039 8.77955 8.11624C8.64849 8.21616 8.57673 8.35142 8.59659 8.47848C8.59715 8.63685 8.68884 8.74364 8.7622 8.85423C8.80545 8.90463 8.86317 8.93691 8.92412 8.94021C9.0493 8.955 9.06092 8.99268 9.12371 9.0154C9.37431 9.34233 9.74498 9.5813 10.0121 9.77086C10.182 9.85635 10.3004 9.94243 10.3412 9.9897C10.4206 10.1343 10.4082 10.2763 10.3984 10.3461L10.2113 11.0773C10.1808 11.2762 10.3557 11.2295 10.3646 11.1897C10.4425 11.0877 10.5616 11.1573 10.7229 10.5708L10.9513 10.2607C10.9513 10.2607 11.0402 10.2245 11.0401 10.2158C11.1738 10.0539 11.0692 9.9633 10.9917 9.93529L10.8213 9.87575C10.8213 9.87575 10.6223 9.68484 10.6133 9.6849C10.5165 9.41891 10.048 8.84857 9.94045 8.77044C9.8354 8.70431 9.8776 8.67438 9.76545 8.6282C9.68224 8.58401 9.7393 8.60236 9.5533 8.53773C9.49816 8.51673 9.53645 8.45704 9.57098 8.42962C9.93157 8.2311 10.1405 8.06492 10.4861 7.84133L10.4736 7.1574L9.77082 6.9296Z" fill="white"/>
<path d="M10.3518 10.612C10.3535 10.6048 10.7143 10.5356 10.7143 10.5356C10.7143 10.5356 10.6738 10.6678 10.6719 10.6679L10.3135 10.7784L10.3518 10.612Z" fill="#F9DD16"/>
<path d="M8.7493 8.48079C8.82709 8.47479 8.95718 8.49628 8.95976 8.49624L9.13109 8.49174C9.22098 8.48215 9.24044 8.44791 9.25486 8.42391C9.28792 8.37249 9.31106 8.35435 9.33656 8.31579C9.37766 8.2847 9.43573 8.35546 9.43832 8.35546C9.58542 8.48905 9.47072 8.65627 9.46301 8.66144C9.39116 8.72778 9.37566 8.73221 9.33099 8.69105C9.28618 8.64048 9.2729 8.61771 9.23633 8.60023C9.16584 8.56785 9.02079 8.59504 9.01818 8.59509C9.01556 8.59514 8.94327 8.62404 8.94327 8.62404C8.90793 8.6372 8.88586 8.66811 8.82453 8.67899C8.76229 8.68396 8.74147 8.67823 8.70967 8.62928C8.66731 8.56595 8.68709 8.48912 8.7493 8.48079Z" fill="#F9DD16"/>
<path d="M10.6212 7.86731C10.5567 7.83234 10.5068 7.82417 10.4824 7.83928C10.4512 7.62912 10.4246 7.41885 10.3826 7.20899C9.98498 7.03093 9.90103 6.99049 9.77064 6.92969C9.83366 6.89224 9.86576 6.8539 9.86461 6.82555C10.0653 6.90424 10.2639 6.98688 10.4697 7.0562C10.825 6.80687 10.9026 6.75562 11.0212 6.67507C11.0227 6.74748 11.0405 6.79399 11.0661 6.80727C10.8965 6.9387 10.7246 7.06634 10.5608 7.20691C10.6031 7.63431 10.6095 7.72595 10.6212 7.86731Z" fill="#F9DD16"/>
</g>
<defs>
<clipPath id="clip0_149_79">
<rect width="21" height="15" rx="3" fill="white"/>
</clipPath>
</defs>
</svg>
