<svg width="21" height="15" viewBox="0 0 21 15" fill="none" xmlns="http://www.w3.org/2000/svg">
<g clip-path="url(#clip0_149_141)">
<path d="M0 0H21V15H0V0Z" fill="#244AA5"/>
<path d="M10.6135 4.75329C10.7014 4.85583 10.7602 4.95829 10.7602 5.08291C10.6864 5.11938 10.5845 5.13428 10.5257 5.20018C10.892 5.14879 10.9649 5.57353 11.3752 5.41235C11.39 5.47117 11.4489 5.52251 11.5218 5.50032L11.5657 5.38334C11.7265 5.33941 11.6826 5.60294 11.859 5.55157C11.9469 5.62492 11.8881 5.74925 11.9469 5.83748C11.9469 5.93984 11.9909 6.0277 12.0348 6.11553C12.0787 6.06454 12.1077 5.9912 12.2105 6.01318C12.2834 6.09358 12.3423 6.16692 12.3571 6.25476C12.3273 6.42339 12.2834 6.56968 12.4591 6.65751V6.70887C12.5768 6.76024 12.8403 6.65751 12.8403 6.86262C12.8254 6.93596 12.9133 6.87008 12.943 6.91398C13.016 6.88457 13.1187 6.89949 13.2066 6.89949C13.2795 7.05323 13.1187 7.16302 13.0748 7.30224C13.1477 7.37521 13.1187 7.50735 13.1038 7.59478L13.0599 7.61676C13.1768 7.63871 13.3234 7.60264 13.4262 7.66853L13.6168 7.74147C13.7046 7.6905 13.8066 7.68267 13.9242 7.69051C14.0121 7.75641 13.8945 7.8662 13.9682 7.91719C14.071 7.91719 14.1588 7.93211 14.1729 8.01997L14.1878 8.04898C14.2608 7.91719 14.4662 8.00502 14.5541 7.91016C14.7008 7.91016 14.7298 8.07096 14.8027 8.15882C14.8325 8.38625 14.5541 8.48903 14.6419 8.71569C14.5831 8.82548 14.4662 8.91337 14.3784 9.01609C14.4074 9.03099 14.3925 9.06708 14.3925 9.08903C14.3047 9.14083 14.3784 9.29454 14.2607 9.30871C14.2466 9.40436 14.0709 9.36751 14.129 9.47024C14.2466 9.62398 14.0709 9.7189 14.0709 9.8585C13.9972 9.93928 13.8505 9.78476 13.8505 9.93928C13.7627 9.96123 13.6748 9.8585 13.6168 9.94636C13.587 10.0491 13.6748 10.0852 13.6607 10.1879C13.8066 10.173 13.8506 10.3197 13.9094 10.4076L14.056 10.5542C13.9094 10.6711 13.7188 10.5393 13.543 10.6052C13.4991 10.5832 13.543 10.5252 13.4991 10.5032C13.4552 10.4514 13.3673 10.4514 13.2944 10.4373C13.3085 10.5032 13.1768 10.5252 13.2356 10.6052C13.2356 10.6271 13.2646 10.693 13.2065 10.693C13.0889 10.7299 13.1038 10.5911 13.001 10.642C12.8693 10.693 12.972 10.8907 12.7814 10.8687C12.8104 11.0452 12.4889 11.1621 12.7085 11.3158C12.7375 11.3449 12.7226 11.4037 12.7226 11.4476C12.5908 11.5652 12.357 11.5213 12.2104 11.4774C12.0927 11.4476 12.1665 11.3009 12.1226 11.2209C12.0786 11.1472 11.9469 11.0962 11.9469 10.9934C11.8589 10.9573 11.7853 10.9347 11.7265 10.8617C11.5218 11.0593 11.2724 11.2499 10.9798 11.257C10.848 11.3229 10.7743 11.5872 10.5695 11.4773C10.4891 11.6092 10.2472 11.4773 10.2326 11.6672C10.1373 11.7041 10.1813 11.8288 10.1229 11.8868C10.1009 12.0335 10.1229 12.1582 10.2472 12.2461C10.2985 12.3559 10.1373 12.3559 10.2032 12.4586C10.2181 12.4947 10.2032 12.5465 10.1813 12.5614C10.1373 12.5833 10.1229 12.6053 10.1373 12.6492C10.1009 12.6492 10.086 12.6712 10.0569 12.7002C10.0201 12.7732 9.9032 12.81 9.82243 12.861C9.74202 12.8829 9.6832 12.8249 9.63221 12.7732C9.61729 12.8539 9.55144 12.8979 9.47104 12.8979C9.35376 12.8979 9.37574 12.7951 9.28788 12.7512C9.32435 12.6194 9.20711 12.5614 9.24395 12.4437C9.33922 12.3708 9.50005 12.319 9.45612 12.1653C9.35376 12.0413 9.39023 11.8578 9.28788 11.7111C9.222 11.6531 9.11219 11.5653 9.14866 11.4256C9.24395 11.3159 9.14866 11.1841 9.09729 11.0672C9.07534 10.9715 9.01689 10.8837 9.01689 10.7738C8.85572 10.679 8.84826 10.4295 8.6212 10.4076C8.46002 10.4076 8.43098 10.2028 8.26981 10.2169C8.25491 10.1879 8.21844 10.166 8.18903 10.1369C8.07216 10.2169 7.9255 10.115 7.77919 10.1511C7.6839 9.99026 7.85959 9.77064 7.60312 9.67494V9.57299C7.63253 9.58708 7.64705 9.55804 7.65449 9.54318C7.669 9.43337 7.47133 9.41925 7.55213 9.29452C7.5082 9.25767 7.45684 9.24275 7.48625 9.16981C7.37606 8.94313 7.04662 8.9651 6.97328 8.73764C7.03211 8.68668 7.03211 8.63489 7.05408 8.59099C7.00269 8.50313 6.9882 8.40821 7.00269 8.31331C7.05408 8.29839 7.08309 8.23254 7.11251 8.18075C7.04662 8.13684 6.9662 8.07096 6.89288 8.09291C6.76112 8.07096 6.6658 7.96898 6.54855 7.91016C6.51914 7.88112 6.53406 7.82938 6.53406 7.79329C6.69521 7.74149 6.51211 7.51444 6.70975 7.54387C6.76114 7.47799 6.87093 7.45601 6.95136 7.40465C7.03213 7.39016 7.09801 7.41954 7.17842 7.44152C7.2443 7.52898 7.36157 7.49251 7.42743 7.56583C7.49331 7.55093 7.57411 7.51444 7.65451 7.55093C7.65451 7.4266 7.71296 7.35326 7.80117 7.2654C7.81569 7.21441 7.89609 7.17756 7.96197 7.14853C8.0867 7.17756 8.23299 7.17756 8.32122 7.0897C8.37967 7.12655 8.43104 7.05323 8.49692 7.05323C8.57729 7.03834 8.6432 7.06029 8.70202 7.09716C8.70908 6.95048 8.96555 7.07518 9.01694 6.89949C9.07539 6.78222 8.85577 6.73831 8.87026 6.63556C8.83379 6.51829 8.92165 6.45986 8.96555 6.37946C9.01692 6.35748 9.07537 6.3281 9.14125 6.34259C9.30989 6.28414 9.17809 5.93984 9.44911 6.06454C9.44911 6.10104 9.43422 6.14494 9.45617 6.1524C9.55146 6.1524 9.56609 6.04248 9.63227 6.00575C9.66128 5.90339 9.59542 5.77869 9.68325 5.69826C9.72719 5.69083 9.76403 5.67631 9.79307 5.63944C9.79307 5.55903 9.74914 5.51513 9.68325 5.46374C9.6613 5.50034 9.60285 5.4712 9.56609 5.48572C9.56609 5.39786 9.51499 5.33944 9.5001 5.25863C9.45617 5.23668 9.43422 5.20021 9.44911 5.14882C9.51499 5.08294 9.44911 4.92176 9.60285 4.95831C9.6613 4.90724 9.76403 4.94371 9.82248 4.85585C9.97622 4.76802 10.1813 4.76802 10.2986 4.60684C10.3499 4.61427 10.4084 4.56291 10.4598 4.60684C10.4743 4.70211 10.6135 4.66524 10.6135 4.75329Z" fill="#D0A650"/>
<path d="M11.7474 2.76703L11.5449 2.14453L11.3449 2.76703H10.6899L11.2199 3.15203L11.0174 3.77453L11.5449 3.38953L12.0749 3.77453L11.8724 3.15203L12.4024 2.76703H11.7474Z" fill="white"/>
<path d="M13.8075 3.13074L13.605 2.51074L13.405 3.13074H12.75L13.28 3.51574L13.0775 4.13824L13.605 3.75324L14.135 4.13824L13.9325 3.51574L14.4625 3.13074H13.8075Z" fill="white"/>
<path d="M15.7726 3.84559L15.5726 3.22559L15.3701 3.84559H14.7151L15.2451 4.23059L15.0426 4.85309L15.5726 4.46809L16.1001 4.85309L15.8976 4.23059L16.4276 3.84559H15.7726Z" fill="white"/>
<path d="M9.65491 2.76703L9.45491 2.14453L9.25241 2.76703H8.59741L9.12741 3.15203L8.92491 3.77453L9.45491 3.38953L9.98241 3.77453L9.77991 3.15203L10.3099 2.76703H9.65491Z" fill="white"/>
<path d="M7.5951 3.13074L7.3951 2.51074L7.1926 3.13074H6.5376L7.0676 3.51574L6.8651 4.13824L7.3951 3.75324L7.9226 4.13824L7.7201 3.51574L8.2501 3.13074H7.5951Z" fill="white"/>
<path d="M5.63001 3.84559L5.42751 3.22559L5.22751 3.84559H4.57251L5.10251 4.23059L4.90001 4.85309L5.42751 4.46809L5.95751 4.85309L5.75501 4.23059L6.28501 3.84559H5.63001Z" fill="white"/>
</g>
<defs>
<clipPath id="clip0_149_141">
<rect width="21" height="15" rx="3" fill="white"/>
</clipPath>
</defs>
</svg>
