<svg width="21" height="15" viewBox="0 0 21 15" fill="none" xmlns="http://www.w3.org/2000/svg">
<rect width="21" height="15" rx="3" fill="#1A47B8"/>
<g clip-path="url(#clip0_149_435)">
<path d="M0 1.6C0 0.716345 0.716345 0 1.6 0H11.2V6.4C11.2 7.28366 10.4837 8 9.6 8H0V1.6Z" fill="#1A47B8"/>
<path fill-rule="evenodd" clip-rule="evenodd" d="M1.19145 0H0V1.33333L10.0021 8L11.2 8V6.66667L1.19145 0Z" fill="white"/>
<path d="M0.397386 0L11.2 7.2189V8H10.8119L0 0.773631V0H0.397386Z" fill="#F93939"/>
<path fill-rule="evenodd" clip-rule="evenodd" d="M10.1333 0H11.2V1.33333C11.2 1.33333 4.2719 5.77496 1.06667 8H0V6.66667L10.1333 0Z" fill="white"/>
<path d="M11.2 0H10.8383L0 7.22511V8H0.397386L11.2 0.779474V0Z" fill="#F93939"/>
<path fill-rule="evenodd" clip-rule="evenodd" d="M4.07311 0H7.13621V2.46764H11.2V5.53074H7.13621V8H4.07311V5.53074H0V2.46764H4.07311V0Z" fill="white"/>
<path fill-rule="evenodd" clip-rule="evenodd" d="M4.71579 0H6.48421V3.07692H11.2V4.92308H6.48421V8H4.71579V4.92308H0V3.07692H4.71579V0Z" fill="#F93939"/>
</g>
<path d="M17.2943 6.67383V8.68637C17.2943 10.4306 16.4687 11.0292 15.3644 11.5039C14.2601 11.0292 13.4241 10.4306 13.4241 8.68637V6.67383H17.2943Z" fill="white" stroke="white" stroke-width="0.206744" stroke-linejoin="round"/>
<path d="M12.2272 11.338C12.2891 11.5031 12.7329 11.7199 13.2489 11.4412C13.5998 11.2451 13.8269 10.9664 14.0436 10.4711C14.1056 10.3472 14.1365 10.1924 13.992 10.0995C13.8785 10.0169 13.6927 9.92405 13.6102 9.84149C13.5689 9.80021 13.5276 9.76924 13.4966 9.73828C13.5173 9.75892 13.5379 9.77956 13.5586 9.81053C13.765 10.0582 13.5482 10.4194 13.3212 10.6362C13.1561 10.791 12.8568 11.1729 12.4233 10.8116C12.3304 10.7291 12.1137 11.0697 12.2272 11.338Z" fill="#FCEA83" stroke="white" stroke-width="0.206744" stroke-linejoin="round"/>
<path d="M18.5019 11.338C18.4296 11.5031 17.9859 11.7199 17.4801 11.4412C17.1292 11.2451 16.9022 10.9664 16.6751 10.4711C16.6235 10.3472 16.5926 10.1924 16.737 10.0995C16.8506 10.0169 17.0363 9.92405 17.1189 9.84149C17.1602 9.80021 17.1912 9.76924 17.2324 9.73828C17.2118 9.75892 17.1912 9.77956 17.1705 9.81053C16.9641 10.0582 17.1808 10.4194 17.3976 10.6362C17.5627 10.791 17.8723 11.1729 18.3058 10.8116C18.3987 10.7291 18.6051 11.0697 18.5019 11.338Z" fill="#FCEA83" stroke="white" stroke-width="0.206744" stroke-linejoin="round"/>
<path d="M15.3646 12.2253C16.1903 12.2253 17.4597 11.8538 18.1409 10.5534C18.2544 10.3366 18.1409 10.2231 18.0067 10.1509C17.8622 10.0889 17.6868 9.94445 17.5939 9.85156C17.759 10.0167 17.728 10.1302 17.6145 10.316C17.0882 11.1933 16.3657 11.637 15.3646 11.637C14.3635 11.637 13.641 11.1933 13.1147 10.316C13.0012 10.1302 12.9702 10.0167 13.125 9.85156C13.0424 9.94445 12.8567 10.0889 12.7122 10.1509C12.578 10.2231 12.4645 10.3366 12.578 10.5534C13.2592 11.8538 14.5389 12.2253 15.3646 12.2253Z" fill="#FCEA83" stroke="white" stroke-width="0.206744" stroke-linejoin="round"/>
<path d="M13.4554 10.481C13.4348 10.3777 13.3006 10.419 13.2593 10.5429C13.2077 10.4706 13.1561 10.3984 13.1149 10.3158C12.991 10.13 12.9704 10.0062 13.1458 9.83075C13.2284 9.74818 13.3935 9.65529 13.507 9.7585C13.7444 9.95459 13.6206 10.2745 13.4554 10.481Z" fill="#C8102E" stroke="white" stroke-width="0.206744" stroke-linejoin="round"/>
<path d="M17.2638 10.481C17.2844 10.3777 17.4289 10.419 17.4702 10.5429C17.5218 10.4706 17.5734 10.3984 17.6147 10.3158C17.7386 10.13 17.7592 10.0062 17.5734 9.83075C17.5012 9.74818 17.336 9.65529 17.2122 9.7585C16.9851 9.95459 17.0987 10.2745 17.2638 10.481Z" fill="#C8102E" stroke="white" stroke-width="0.206744" stroke-linejoin="round"/>
<path d="M12.2271 11.3386C12.1239 11.1837 12.0413 10.7812 12.0207 10.678C11.9897 10.5851 11.9794 10.5026 12.0929 10.4613C12.2065 10.42 12.3097 10.5645 12.3613 10.6884C12.4129 10.8122 12.4954 10.998 12.5883 11.225C12.3613 11.0909 12.1755 11.1837 12.2271 11.3386Z" fill="#C8102E" stroke="white" stroke-width="0.206744" stroke-linejoin="round"/>
<path d="M18.5021 11.3386C18.595 11.1837 18.6775 10.7812 18.7085 10.678C18.7292 10.5851 18.7498 10.5026 18.6363 10.4613C18.5227 10.42 18.4195 10.5645 18.3679 10.6884C18.3163 10.8122 18.2338 10.998 18.1409 11.225C18.3679 11.0909 18.5434 11.1837 18.5021 11.3386Z" fill="#C8102E" stroke="white" stroke-width="0.206744" stroke-linejoin="round"/>
<path d="M14.5702 6.66415C14.436 6.69511 14.3432 6.70543 14.2193 6.5919C14.1367 6.50934 14.1574 6.36485 14.24 6.31324C14.3328 6.25132 14.4154 6.21004 14.5289 6.241C14.6425 6.27196 14.9418 6.55062 14.8695 6.56094C14.7973 6.56094 14.6837 6.63319 14.5702 6.66415Z" fill="white" stroke="white" stroke-width="0.206744" stroke-linejoin="round"/>
<path d="M14.8899 6.168C14.9312 6.13704 14.9828 6.1164 15.117 6.10608C15.2408 6.09576 15.3337 6.09576 15.3646 6.18864C15.4059 6.30217 15.4369 6.43634 15.5195 6.49827C15.4679 6.52923 15.2098 6.56019 15.1169 6.50859C14.9931 6.44666 14.9621 6.20929 14.8899 6.168Z" fill="white" stroke="white" stroke-width="0.206744" stroke-linejoin="round"/>
<path d="M15.7776 6.17818C15.8189 6.14722 15.8705 6.14722 16.0046 6.15754C16.1388 6.16786 16.1904 6.17818 16.2214 6.27107C16.2523 6.37428 16.2214 6.50844 16.2833 6.60133C16.2214 6.62197 16.015 6.62197 15.9427 6.54973C15.8292 6.46716 15.8395 6.22979 15.7776 6.17818Z" fill="white" stroke="white" stroke-width="0.206744" stroke-linejoin="round"/>
<path d="M16.397 6.24024C16.3041 6.2196 16.2422 6.20928 16.2009 6.24024C16.2525 6.30217 16.2112 6.54987 16.3145 6.63243C16.3867 6.68403 16.5725 6.69436 16.6138 6.58083C16.6654 6.47762 16.6654 6.32281 16.397 6.24024Z" fill="#073163" stroke="white" stroke-width="0.206744" stroke-linejoin="round"/>
<path d="M15.334 6.13699C15.3649 6.10602 15.4269 6.0957 15.5507 6.0957C15.6849 6.0957 15.7675 6.11634 15.8087 6.19891C15.85 6.30212 15.8397 6.43629 15.9119 6.51885C15.881 6.56014 15.6023 6.56014 15.5198 6.49821C15.4062 6.42597 15.3959 6.18859 15.334 6.13699Z" fill="#073163" stroke="white" stroke-width="0.206744" stroke-linejoin="round"/>
<path d="M14.4565 6.22989C14.4565 6.17829 14.5288 6.16796 14.7146 6.15764C14.9003 6.137 14.9107 6.14732 14.9726 6.28149C15.0035 6.35374 15.0448 6.47759 15.1274 6.51887C14.9003 6.57047 14.8281 6.60144 14.7042 6.52919C14.6114 6.47759 14.5081 6.35374 14.4875 6.30213C14.4772 6.27117 14.4772 6.24021 14.4565 6.22989Z" fill="#073163" stroke="white" stroke-width="0.206744" stroke-linejoin="round"/>
<path d="M14.4773 5.31241C14.405 5.31241 14.3431 5.28144 14.3018 5.22984C14.2296 5.13695 14.0335 5.09567 13.9509 5.17824C13.9199 5.19888 13.8787 5.19888 13.8477 5.2092C13.7961 5.2092 13.7342 5.2608 13.7548 5.36401C13.7961 5.33305 13.8064 5.36401 13.8374 5.36401C13.858 5.35369 13.8477 5.37433 13.8477 5.39497C13.8477 5.44658 13.9612 5.54978 14.0644 5.53946C14.178 5.53946 14.2296 5.58075 14.2502 5.60139C14.2812 5.63235 14.2605 5.62203 14.2812 5.67363C14.3121 5.70459 14.3224 5.71491 14.2708 5.7562C14.1986 5.81812 14.147 5.96261 14.2708 6.07614C14.405 6.17935 14.7456 6.33416 15.1275 6.03486C15.499 5.74588 16.077 5.91101 16.1183 6.01422C16.1699 6.11742 16.1905 6.17935 16.2008 6.23095C16.2111 6.27224 16.2627 6.31352 16.335 6.3032C16.4072 6.3032 16.4898 6.33416 16.5311 6.36512C16.5827 6.39608 16.6549 6.38576 16.6343 6.29288C16.593 6.0039 16.4176 5.96261 16.3969 5.82844C16.5001 5.83876 16.5724 5.83876 16.6136 5.79748C16.6446 5.7562 16.6859 5.68395 16.7272 5.66331C16.7581 5.64267 16.7581 5.62203 16.7169 5.63235C16.6653 5.64267 16.6343 5.66331 16.5414 5.65299C16.0666 5.60139 14.7353 5.24016 14.4773 5.31241Z" fill="#059334" stroke="white" stroke-width="0.206744" stroke-linejoin="round"/>
<path d="M16.5826 5.66226C16.5309 5.69322 16.4793 5.74483 16.3865 5.86868C16.2833 6.00285 15.9736 6.13702 15.5918 6.13702C15.2202 6.13702 14.9932 6.07509 14.828 5.94092C14.7351 5.86868 14.6629 5.82739 14.601 5.79643C14.4874 5.74483 14.4668 5.6313 14.4978 5.53841C14.4668 5.59002 14.4462 5.64162 14.3842 5.6313C14.343 5.6313 14.2604 5.6313 14.281 5.67258C14.2707 5.65194 14.2707 5.62098 14.2604 5.61066C14.2501 5.60034 14.2397 5.59002 14.2397 5.59002C14.2707 5.61066 14.343 5.54873 14.3946 5.54873C14.4358 5.55905 14.4874 5.50745 14.4771 5.44553C14.4668 5.39392 14.4565 5.35264 14.4462 5.31136C14.5287 5.27007 15.6124 5.46617 15.8291 5.48681C16.0459 5.49713 16.6651 5.59002 16.5826 5.66226Z" fill="black" stroke="white" stroke-width="0.206744" stroke-linejoin="round"/>
<path d="M14.6213 5.26957C14.7245 5.16637 14.8483 5.11476 14.9722 5.14572H15.0031C15.065 5.09412 15.2095 5.0838 15.2921 5.12508H15.3334C15.4572 5.0838 15.6946 5.12508 15.7772 5.20765L15.8081 5.22829C16.0868 5.20765 16.2519 5.3315 16.448 5.52759C16.4687 5.54823 16.4996 5.58951 16.5512 5.59984C16.6132 5.61016 16.6235 5.64112 16.5719 5.67208C16.5099 5.70304 16.4583 5.75465 16.3551 5.86818C16.2622 5.99202 15.9629 6.11587 15.5914 6.11587C15.2302 6.11587 15.0134 6.05395 14.8483 5.9301C14.7554 5.85785 14.6832 5.81657 14.6316 5.78561C14.5696 5.76497 14.4871 5.6824 14.518 5.59983C14.5387 5.51727 14.4871 5.41406 14.4458 5.31085C14.4768 5.29021 14.5593 5.25925 14.6006 5.27989L14.6213 5.26957Z" fill="#059334" stroke="white" stroke-width="0.206744" stroke-linejoin="round"/>
<path d="M16.4483 5.52713C16.2522 5.33103 16.0871 5.20718 15.8084 5.22782C15.8084 5.23815 15.8084 5.26911 15.7981 5.28975C15.9632 5.35167 16.2006 5.53745 16.3038 5.67162C16.3451 5.63033 16.4173 5.57873 16.4483 5.52713Z" fill="#00493D" stroke="white" stroke-width="0.206744" stroke-linejoin="round"/>
<path d="M15.7777 5.20716C15.6951 5.12459 15.4577 5.08331 15.3339 5.12459C15.3339 5.16588 15.3339 5.2278 15.3132 5.26908C15.3855 5.30005 15.4474 5.37229 15.5093 5.44454C15.5506 5.43422 15.6538 5.40325 15.7054 5.39293C15.7261 5.35165 15.7673 5.25876 15.7777 5.20716Z" fill="#00493D" stroke="white" stroke-width="0.206744" stroke-linejoin="round"/>
<path d="M15.2924 5.12508C15.2098 5.0838 15.0653 5.09412 15.0034 5.14572C14.9827 5.18701 14.9724 5.26957 14.9724 5.31086C15.0137 5.31086 15.0756 5.34182 15.0963 5.36246C15.1582 5.34182 15.2408 5.30054 15.2717 5.26957C15.282 5.22829 15.3027 5.16637 15.2924 5.12508Z" fill="#00493D" stroke="white" stroke-width="0.206744" stroke-linejoin="round"/>
<path d="M14.6218 5.26949C14.725 5.16628 14.8489 5.11468 14.9727 5.14564C14.9521 5.1766 14.9418 5.23853 14.9418 5.30045C14.8282 5.29013 14.6838 5.3211 14.6218 5.36238V5.26949Z" fill="#00493D" stroke="white" stroke-width="0.206744" stroke-linejoin="round"/>
<path d="M16.2626 5.69326C16.1697 5.55909 15.9426 5.40428 15.7878 5.33203C15.7878 5.34235 15.7672 5.38363 15.7568 5.4146C15.8188 5.50748 15.9426 5.7139 15.9942 5.82743C16.0458 5.80678 16.1903 5.74486 16.2626 5.69326Z" fill="#00493D" stroke="white" stroke-width="0.206744" stroke-linejoin="round"/>
<path d="M15.4785 5.92006C15.4992 5.77557 15.5095 5.56916 15.5095 5.49692C15.5611 5.4866 15.6643 5.45563 15.7056 5.44531C15.7572 5.52788 15.881 5.74461 15.9326 5.84782C15.8088 5.87878 15.6024 5.93039 15.4785 5.92006Z" fill="#00493D" stroke="white" stroke-width="0.206744" stroke-linejoin="round"/>
<path d="M15.1169 5.42547C15.1685 5.40483 15.2408 5.36355 15.2924 5.32227C15.3337 5.35323 15.4162 5.42547 15.4472 5.46676C15.4472 5.55964 15.4162 5.82798 15.4059 5.92087C15.3234 5.92087 15.1892 5.90023 15.1169 5.85894C15.1273 5.70413 15.1376 5.52868 15.1169 5.42547Z" fill="#00493D" stroke="white" stroke-width="0.206744" stroke-linejoin="round"/>
<path d="M14.6008 5.54918C14.6112 5.52854 14.6215 5.4563 14.6215 5.42533C14.704 5.37373 14.9105 5.32213 15.0653 5.40469C15.0756 5.5079 15.0653 5.76592 15.0549 5.82784C14.9208 5.72463 14.704 5.58015 14.6008 5.54918Z" fill="#00493D" stroke="white" stroke-width="0.206744" stroke-linejoin="round"/>
<path d="M14.085 5.36271C14.0644 5.36271 14.0541 5.30078 14.0128 5.30078C14.0025 5.30078 13.9715 5.3111 13.9612 5.30078C13.9612 5.32142 13.9715 5.34206 13.9818 5.35238C13.9921 5.38335 14.0437 5.36271 14.085 5.36271Z" fill="black"/>
<path d="M14.085 5.53818C14.2088 5.53818 14.2295 5.38337 14.2914 5.37305" stroke="white" stroke-width="0.206744" stroke-linejoin="round"/>
<path d="M14.1572 5.54928C14.2501 5.59056 14.3224 5.37383 14.3946 5.38415" stroke="white" stroke-width="0.206744" stroke-linejoin="round"/>
<path d="M13.9717 5.27931C14.0026 5.27931 14.0233 5.23802 14.0749 5.28963C14.0955 5.31027 14.1265 5.32059 14.1471 5.32059" stroke="white" stroke-width="0.206744" stroke-linejoin="round"/>
<path d="M14.1262 5.43652C14.085 5.49845 14.0127 5.53973 13.9714 5.51909" stroke="white" stroke-width="0.206744" stroke-linejoin="round"/>
<path d="M13.9507 5.17676C13.9197 5.1974 13.8991 5.23868 13.8784 5.26964" stroke="white" stroke-width="0.206744" stroke-linejoin="round"/>
<path d="M13.8477 5.33301V5.38461" stroke="white" stroke-width="0.206744" stroke-linejoin="round"/>
<path d="M14.9521 5.17708C14.7354 5.01195 14.4774 4.85713 14.24 4.82617C14.3948 4.91906 14.8283 5.25964 14.9418 5.37317" fill="black"/>
<path d="M14.9521 5.17708C14.7354 5.01195 14.4774 4.85713 14.24 4.82617C14.3948 4.91906 14.8283 5.25964 14.9418 5.37317" stroke="white" stroke-width="0.206744" stroke-linejoin="round"/>
<path d="M15.076 5.02305C14.818 4.84759 14.5187 4.6515 14.2297 4.63086C14.4465 4.74439 14.7664 5.01273 14.9419 5.22946" fill="black"/>
<path d="M15.076 5.02305C14.818 4.84759 14.5187 4.6515 14.2297 4.63086C14.4465 4.74439 14.7664 5.01273 14.9419 5.22946" stroke="white" stroke-width="0.206744" stroke-linejoin="round"/>
<path d="M15.4065 4.73348C15.551 4.41354 15.7058 4.23809 15.9122 4.04199C15.809 4.25873 15.6955 4.70252 15.6439 4.87797" fill="black"/>
<path d="M15.4065 4.73348C15.551 4.41354 15.7058 4.23809 15.9122 4.04199C15.809 4.25873 15.6955 4.70252 15.6439 4.87797" stroke="white" stroke-width="0.206744" stroke-linejoin="round"/>
<path d="M15.6333 4.68274C15.7365 4.45568 15.8913 4.25959 16.1597 4.13574C16.0255 4.26991 15.8191 4.67242 15.7675 4.88916" fill="black"/>
<path d="M15.6333 4.68274C15.7365 4.45568 15.8913 4.25959 16.1597 4.13574C16.0255 4.26991 15.8191 4.67242 15.7675 4.88916" stroke="white" stroke-width="0.206744" stroke-linejoin="round"/>
<path d="M15.7261 4.8882C15.8499 4.71275 16.0976 4.38248 16.5414 4.20703C16.2834 4.46505 15.9015 4.9398 15.8086 5.12558" fill="black"/>
<path d="M15.7261 4.8882C15.8499 4.71275 16.0976 4.38248 16.5414 4.20703C16.2834 4.46505 15.9015 4.9398 15.8086 5.12558" stroke="white" stroke-width="0.206744" stroke-linejoin="round"/>
<path d="M15.8707 5.11516C16.0565 5.01195 16.428 4.84682 16.6964 4.89842C16.5312 4.96035 16.0358 5.1874 15.8191 5.39382" fill="black"/>
<path d="M15.8707 5.11516C16.0565 5.01195 16.428 4.84682 16.6964 4.89842C16.5312 4.96035 16.0358 5.1874 15.8191 5.39382" stroke="white" stroke-width="0.206744" stroke-linejoin="round"/>
<path d="M15.8294 5.0428C16.0049 4.85703 16.3248 4.57837 16.6654 4.46484C16.4177 4.70222 15.8913 5.2389 15.8191 5.32146" fill="black"/>
<path d="M15.8294 5.0428C16.0049 4.85703 16.3248 4.57837 16.6654 4.46484C16.4177 4.70222 15.8913 5.2389 15.8191 5.32146" stroke="white" stroke-width="0.206744" stroke-linejoin="round"/>
<path d="M15.3339 4.93084C15.21 4.54897 15.0243 4.18775 14.7456 4.07422C14.9004 4.30128 15.0965 4.63154 15.1997 5.12693" fill="black"/>
<path d="M15.3339 4.93084C15.21 4.54897 15.0243 4.18775 14.7456 4.07422C14.9004 4.30128 15.0965 4.63154 15.1997 5.12693" stroke="white" stroke-width="0.206744" stroke-linejoin="round"/>
<path d="M15.0965 4.91907C14.8901 4.67137 14.6114 4.42367 14.2915 4.37207C14.5082 4.49592 14.8695 4.85715 15.0036 5.20805" fill="black"/>
<path d="M15.0965 4.91907C14.8901 4.67137 14.6114 4.42367 14.2915 4.37207C14.5082 4.49592 14.8695 4.85715 15.0036 5.20805" stroke="white" stroke-width="0.206744" stroke-linejoin="round"/>
<path d="M15.2105 4.90942C14.9524 4.44498 14.7563 4.36242 14.6428 4.26953C14.7357 4.44498 14.9628 4.90942 15.0969 5.10551" fill="black"/>
<path d="M15.2105 4.90942C14.9524 4.44498 14.7563 4.36242 14.6428 4.26953C14.7357 4.44498 14.9628 4.90942 15.0969 5.10551" stroke="white" stroke-width="0.206744" stroke-linejoin="round"/>
<path d="M14.6941 4.87695C14.8179 4.9492 15.0037 5.12465 15.0656 5.23818" stroke="white" stroke-width="0.206744" stroke-linejoin="round"/>
<path d="M14.6941 5.09473C14.756 5.14633 14.8695 5.20825 14.9728 5.30114Z" fill="black"/>
<path d="M14.6941 5.09473C14.756 5.14633 14.8695 5.20825 14.9728 5.30114" stroke="white" stroke-width="0.206744" stroke-linejoin="round"/>
<path d="M15.9221 5.24825C16.0253 5.16569 16.2524 5.03152 16.3659 4.99023Z" fill="black"/>
<path d="M15.9221 5.24825C16.0253 5.16569 16.2524 5.03152 16.3659 4.99023" stroke="white" stroke-width="0.206744" stroke-linejoin="round"/>
<path d="M15.8499 5.17777C15.9531 5.0436 16.1595 4.85782 16.2317 4.7959Z" fill="black"/>
<path d="M15.8499 5.17777C15.9531 5.0436 16.1595 4.85782 16.2317 4.7959" stroke="white" stroke-width="0.206744" stroke-linejoin="round"/>
<path d="M16.139 4.53711C16.0461 4.64032 15.8294 4.89833 15.7468 5.02218Z" fill="black"/>
<path d="M16.139 4.53711C16.0461 4.64032 15.8294 4.89833 15.7468 5.02218" stroke="white" stroke-width="0.206744" stroke-linejoin="round"/>
<path d="M15.8706 4.44434C15.7983 4.53722 15.6538 4.80556 15.6125 4.89845Z" fill="black"/>
<path d="M15.8706 4.44434C15.7983 4.53722 15.6538 4.80556 15.6125 4.89845" stroke="white" stroke-width="0.206744" stroke-linejoin="round"/>
<path d="M15.0554 4.46484C15.1173 4.62998 15.2309 4.90863 15.2722 5.02216Z" fill="black"/>
<path d="M15.0554 4.46484C15.1173 4.62998 15.2309 4.90863 15.2722 5.02216" stroke="white" stroke-width="0.206744" stroke-linejoin="round"/>
<path d="M14.9624 4.64062C15.0037 4.70255 15.0863 4.84704 15.1172 4.95025Z" fill="black"/>
<path d="M14.9624 4.64062C15.0037 4.70255 15.0863 4.84704 15.1172 4.95025" stroke="white" stroke-width="0.206744" stroke-linejoin="round"/>
<path d="M15.313 4.58867C15.313 4.49579 15.3749 4.39258 15.4368 4.39258C15.5091 4.39258 15.5607 4.51643 15.5607 4.58867C15.5607 4.67124 15.4988 4.74348 15.4368 4.74348C15.3749 4.74348 15.313 4.68156 15.313 4.58867Z" fill="black" stroke="white" stroke-width="0.206744" stroke-linejoin="round"/>
<path d="M15.1786 4.67047C15.1889 4.56726 15.2611 4.48469 15.3231 4.49501C15.385 4.50533 15.416 4.62918 15.4056 4.70143C15.3953 4.78399 15.3231 4.84592 15.2715 4.8356C15.2199 4.8356 15.1683 4.76335 15.1786 4.67047Z" fill="black" stroke="white" stroke-width="0.206744" stroke-linejoin="round"/>
<path d="M15.4575 4.70127C15.4369 4.60839 15.4782 4.50518 15.5401 4.49486C15.602 4.48454 15.6639 4.58774 15.6743 4.67031C15.6949 4.75288 15.6433 4.83544 15.5917 4.83544C15.5401 4.84576 15.4678 4.79416 15.4575 4.70127Z" fill="black" stroke="white" stroke-width="0.206744" stroke-linejoin="round"/>
<path d="M15.3027 4.78301C15.3027 4.6798 15.3647 4.58691 15.4266 4.58691C15.4988 4.58691 15.5504 4.70044 15.5504 4.78301C15.5504 4.86557 15.4885 4.93782 15.4266 4.93782C15.3647 4.93782 15.3027 4.87589 15.3027 4.78301Z" fill="black" stroke="white" stroke-width="0.206744" stroke-linejoin="round"/>
<path d="M15.1167 4.83574C15.1167 4.74286 15.1889 4.63965 15.2509 4.63965C15.3128 4.63965 15.3747 4.7635 15.3747 4.83574C15.3747 4.91831 15.3025 4.99055 15.2509 4.99055C15.1889 4.99055 15.1167 4.92863 15.1167 4.83574Z" fill="black" stroke="white" stroke-width="0.206744" stroke-linejoin="round"/>
<path d="M15.4988 4.79375C15.4988 4.70086 15.5607 4.59766 15.6226 4.59766C15.6949 4.59766 15.7465 4.72151 15.7465 4.79375C15.7465 4.87632 15.6846 4.94856 15.6226 4.94856C15.5607 4.94856 15.4988 4.88664 15.4988 4.79375Z" fill="black" stroke="white" stroke-width="0.206744" stroke-linejoin="round"/>
<path d="M15.4575 4.87773C15.4575 4.77453 15.5298 4.68164 15.5917 4.68164C15.6536 4.68164 15.7155 4.79517 15.7155 4.87773C15.7155 4.9603 15.6536 5.03255 15.5917 5.03255C15.5298 5.03255 15.4575 4.97062 15.4575 4.87773Z" fill="black" stroke="white" stroke-width="0.206744" stroke-linejoin="round"/>
<path d="M15.2922 4.96953C15.2922 4.86632 15.3542 4.77344 15.4161 4.77344C15.4883 4.77344 15.5399 4.89729 15.5399 4.96953C15.5399 5.0521 15.478 5.12434 15.4161 5.12434C15.3542 5.12434 15.2922 5.06242 15.2922 4.96953Z" fill="black" stroke="white" stroke-width="0.206744" stroke-linejoin="round"/>
<path d="M15.0342 4.96953C15.0342 4.86632 15.0858 4.77344 15.1374 4.77344C15.189 4.77344 15.2303 4.89729 15.2303 4.96953C15.2303 5.0521 15.1787 5.12434 15.1374 5.12434C15.0858 5.12434 15.0342 5.06242 15.0342 4.96953Z" fill="black" stroke="white" stroke-width="0.206744" stroke-linejoin="round"/>
<path d="M15.6121 4.94847C15.6121 4.85558 15.6637 4.7627 15.7153 4.7627C15.7669 4.7627 15.8185 4.87622 15.8185 4.94847C15.8185 5.04136 15.7566 5.10328 15.7153 5.10328C15.6637 5.10328 15.6121 5.04136 15.6121 4.94847Z" fill="black" stroke="white" stroke-width="0.206744" stroke-linejoin="round"/>
<path d="M15.6741 5.12457C15.6948 5.02136 15.7567 4.93879 15.798 4.94912C15.8392 4.95944 15.8496 5.08328 15.8289 5.15553C15.8186 5.24842 15.7567 5.30002 15.7154 5.2897C15.6741 5.27938 15.6535 5.20713 15.6741 5.12457Z" fill="black" stroke="white" stroke-width="0.206744" stroke-linejoin="round"/>
<path d="M15.4781 5.09421C15.4885 5.00132 15.5504 4.90844 15.602 4.91876C15.6639 4.91876 15.6949 5.0426 15.6845 5.11485C15.6742 5.20774 15.6226 5.26966 15.571 5.25934C15.5194 5.25934 15.4678 5.1871 15.4781 5.09421Z" fill="black" stroke="white" stroke-width="0.206744" stroke-linejoin="round"/>
<path d="M15.1891 5.1251C15.1582 5.02189 15.0962 4.94964 15.055 4.95996C15.0137 4.97029 15.0034 5.09413 15.024 5.16638C15.0446 5.24895 15.1066 5.30055 15.1478 5.29023C15.1788 5.27991 15.2098 5.20766 15.1891 5.1251Z" fill="black" stroke="white" stroke-width="0.206744" stroke-linejoin="round"/>
<path d="M15.1167 5.10472C15.1167 5.01183 15.1683 4.91895 15.2199 4.91895C15.2818 4.91895 15.3231 5.03247 15.3231 5.10472C15.3231 5.1976 15.2715 5.25953 15.2199 5.25953C15.1786 5.25953 15.1167 5.1976 15.1167 5.10472Z" fill="black" stroke="white" stroke-width="0.206744" stroke-linejoin="round"/>
<path d="M15.2717 5.14434C15.2717 5.04113 15.3337 4.94824 15.3956 4.94824C15.4678 4.94824 15.5194 5.06177 15.5194 5.14434C15.5194 5.2269 15.4575 5.29915 15.3956 5.29915C15.3337 5.29915 15.2717 5.23722 15.2717 5.14434Z" fill="black" stroke="white" stroke-width="0.206744" stroke-linejoin="round"/>
<path d="M15.3232 4.01032C15.3025 4.09289 15.2303 4.16513 15.2819 4.27866C15.189 4.2477 15.1064 4.23738 15.0342 4.31994C15.1271 4.30962 15.2096 4.34058 15.2509 4.40251C15.1683 4.39219 15.1271 4.43347 15.1064 4.48507C15.1787 4.46443 15.2509 4.44379 15.2819 4.45411C15.2509 4.48507 15.1993 4.53668 15.189 4.57796C15.2509 4.52636 15.3232 4.53668 15.3644 4.50572C15.3335 4.57796 15.3954 4.65021 15.447 4.72245C15.4367 4.61924 15.4986 4.547 15.4677 4.4954C15.5605 4.51604 15.5709 4.5986 15.705 4.5986C15.6534 4.56764 15.6225 4.46443 15.5605 4.46443C15.5915 4.45411 15.7153 4.44379 15.736 4.46443C15.7153 4.42315 15.6431 4.38187 15.6018 4.38187C15.6431 4.34058 15.7153 4.25802 15.7669 4.23738C15.6947 4.2477 15.5812 4.25802 15.5399 4.31994C15.6431 4.23738 15.6225 4.08257 15.736 4.06192C15.6741 4.0516 15.5812 4.09289 15.5089 4.16513C15.5399 4.10321 15.5399 4.02064 15.5812 4C15.4986 4.02064 15.4057 4.12385 15.3748 4.17545C15.3748 4.12385 15.3438 4.04128 15.3232 4.01032Z" fill="black" stroke="white" stroke-width="0.206744" stroke-linejoin="round"/>
<path d="M15.3748 4.17578C15.3748 4.20674 15.3748 4.26867 15.3645 4.28931Z" fill="black"/>
<path d="M15.3748 4.17578C15.3748 4.20674 15.3748 4.26867 15.3645 4.28931" stroke="white" stroke-width="0.206744" stroke-linejoin="round"/>
<path d="M15.5092 4.16504C15.4885 4.18568 15.4473 4.25793 15.4473 4.31985Z" fill="black"/>
<path d="M15.5092 4.16504C15.4885 4.18568 15.4473 4.25793 15.4473 4.31985" stroke="white" stroke-width="0.206744" stroke-linejoin="round"/>
<path d="M15.571 4.28906C15.5401 4.3097 15.5091 4.34067 15.4988 4.38195" stroke="white" stroke-width="0.206744" stroke-linejoin="round"/>
<path d="M12.2272 11.338C12.2891 11.5031 12.7329 11.7199 13.2489 11.4412C13.5998 11.2451 13.8269 10.9664 14.0436 10.4711C14.1056 10.3472 14.1365 10.1924 13.992 10.0995C13.8785 10.0169 13.6927 9.92405 13.6102 9.84149C13.5689 9.80021 13.5276 9.76924 13.4966 9.73828C13.5173 9.75892 13.5379 9.77956 13.5586 9.81053C13.765 10.0582 13.5482 10.4194 13.3212 10.6362C13.1561 10.791 12.8568 11.1729 12.4233 10.8116C12.3304 10.7291 12.1137 11.0697 12.2272 11.338Z" fill="#FCEA83" stroke="black" stroke-width="0.0309621"/>
<path d="M18.5019 11.338C18.4296 11.5031 17.9859 11.7199 17.4801 11.4412C17.1292 11.2451 16.9022 10.9664 16.6751 10.4711C16.6235 10.3472 16.5926 10.1924 16.737 10.0995C16.8506 10.0169 17.0363 9.92405 17.1189 9.84149C17.1602 9.80021 17.1912 9.76924 17.2324 9.73828C17.2118 9.75892 17.1912 9.77956 17.1705 9.81053C16.9641 10.0582 17.1808 10.4194 17.3976 10.6362C17.5627 10.791 17.8723 11.1729 18.3058 10.8116C18.3987 10.7291 18.6051 11.0697 18.5019 11.338Z" fill="#FCEA83" stroke="black" stroke-width="0.0309621"/>
<path d="M15.3646 12.2253C16.1903 12.2253 17.4597 11.8538 18.1409 10.5534C18.2544 10.3366 18.1409 10.2231 18.0067 10.1509C17.8622 10.0889 17.6868 9.94445 17.5939 9.85156C17.759 10.0167 17.728 10.1302 17.6145 10.316C17.0882 11.1933 16.3657 11.637 15.3646 11.637C14.3635 11.637 13.641 11.1933 13.1147 10.316C13.0012 10.1302 12.9702 10.0167 13.125 9.85156C13.0424 9.94445 12.8567 10.0889 12.7122 10.1509C12.578 10.2231 12.4645 10.3366 12.578 10.5534C13.2592 11.8538 14.5389 12.2253 15.3646 12.2253Z" fill="#FCEA83" stroke="black" stroke-width="0.0309621"/>
<path d="M13.4554 10.4839C13.4348 10.3807 13.3006 10.422 13.2593 10.5458C13.2077 10.4736 13.1561 10.4013 13.1149 10.3188C12.991 10.133 12.9704 10.0091 13.1458 9.83368C13.2284 9.75111 13.3935 9.65822 13.507 9.76143C13.7444 9.95752 13.6206 10.2775 13.4554 10.4839Z" fill="#C8102E" stroke="black" stroke-width="0.0309621"/>
<path d="M17.2638 10.4839C17.2844 10.3807 17.4289 10.422 17.4702 10.5458C17.5218 10.4736 17.5734 10.4013 17.6147 10.3188C17.7386 10.133 17.7592 10.0091 17.5734 9.83368C17.5012 9.75111 17.336 9.65822 17.2122 9.76143C16.9851 9.95752 17.0987 10.2775 17.2638 10.4839Z" fill="#C8102E" stroke="black" stroke-width="0.0309621"/>
<path d="M12.2271 11.3415C12.1239 11.1867 12.0413 10.7842 12.0207 10.681C11.9897 10.5881 11.9794 10.5055 12.0929 10.4642C12.2065 10.4229 12.3097 10.5674 12.3613 10.6913C12.4129 10.8151 12.4954 11.0009 12.5883 11.228C12.3613 11.0938 12.1755 11.1867 12.2271 11.3415Z" fill="#C8102E" stroke="black" stroke-width="0.0309621"/>
<path d="M18.5021 11.3415C18.595 11.1867 18.6775 10.7842 18.7085 10.681C18.7292 10.5881 18.7498 10.5055 18.6363 10.4642C18.5227 10.4229 18.4195 10.5674 18.3679 10.6913C18.3163 10.8151 18.2338 11.0009 18.1409 11.228C18.3679 11.0938 18.5434 11.1867 18.5021 11.3415Z" fill="#C8102E" stroke="black" stroke-width="0.0309621"/>
<path d="M14.5702 6.66415C14.436 6.69511 14.3432 6.70543 14.2193 6.5919C14.1367 6.50934 14.1574 6.36485 14.24 6.31324C14.3328 6.25132 14.4154 6.21004 14.5289 6.241C14.6425 6.27196 14.9418 6.55062 14.8695 6.56094C14.7973 6.56094 14.6837 6.63319 14.5702 6.66415Z" fill="white" stroke="black" stroke-width="0.0309621"/>
<path d="M14.8899 6.168C14.9312 6.13704 14.9828 6.1164 15.117 6.10608C15.2408 6.09576 15.3337 6.09576 15.3646 6.18864C15.4059 6.30217 15.4369 6.43634 15.5195 6.49827C15.4679 6.52923 15.2098 6.56019 15.1169 6.50859C14.9931 6.44666 14.9621 6.20929 14.8899 6.168Z" fill="white" stroke="black" stroke-width="0.0309621"/>
<path d="M15.7776 6.17818C15.8189 6.14722 15.8705 6.14722 16.0046 6.15754C16.1388 6.16786 16.1904 6.17818 16.2214 6.27107C16.2523 6.37428 16.2214 6.50844 16.2833 6.60133C16.2214 6.62197 16.015 6.62197 15.9427 6.54973C15.8292 6.46716 15.8395 6.22979 15.7776 6.17818Z" fill="white" stroke="black" stroke-width="0.0309621"/>
<path d="M16.397 6.24024C16.3041 6.2196 16.2422 6.20928 16.2009 6.24024C16.2525 6.30217 16.2112 6.54987 16.3145 6.63243C16.3867 6.68403 16.5725 6.69436 16.6138 6.58083C16.6654 6.47762 16.6654 6.32281 16.397 6.24024Z" fill="#073163" stroke="black" stroke-width="0.0309621"/>
<path d="M15.334 6.13699C15.3649 6.10602 15.4269 6.0957 15.5507 6.0957C15.6849 6.0957 15.7675 6.11634 15.8087 6.19891C15.85 6.30212 15.8397 6.43629 15.9119 6.51885C15.881 6.56014 15.6023 6.56014 15.5198 6.49821C15.4062 6.42597 15.3959 6.18859 15.334 6.13699Z" fill="#073163" stroke="black" stroke-width="0.0309621"/>
<path d="M14.4565 6.22989C14.4565 6.17829 14.5288 6.16796 14.7146 6.15764C14.9003 6.137 14.9107 6.14732 14.9726 6.28149C15.0035 6.35374 15.0448 6.47759 15.1274 6.51887C14.9003 6.57047 14.8281 6.60144 14.7042 6.52919C14.6114 6.47759 14.5081 6.35374 14.4875 6.30213C14.4772 6.27117 14.4772 6.24021 14.4565 6.22989Z" fill="#073163" stroke="black" stroke-width="0.0309621"/>
<path d="M14.9521 5.17708C14.7354 5.01195 14.4774 4.85713 14.24 4.82617C14.3948 4.91906 14.8283 5.25964 14.9418 5.37317" fill="#F9D050"/>
<path d="M14.9521 5.17708C14.7354 5.01195 14.4774 4.85713 14.24 4.82617C14.3948 4.91906 14.8283 5.25964 14.9418 5.37317" stroke="black" stroke-width="0.0139315"/>
<path d="M15.076 5.02305C14.818 4.84759 14.5187 4.6515 14.2297 4.63086C14.4465 4.74439 14.7664 5.01273 14.9419 5.22946" fill="#F9D050"/>
<path d="M15.076 5.02305C14.818 4.84759 14.5187 4.6515 14.2297 4.63086C14.4465 4.74439 14.7664 5.01273 14.9419 5.22946" stroke="black" stroke-width="0.0139315"/>
<path d="M15.4065 4.73348C15.551 4.41354 15.7058 4.23809 15.9122 4.04199C15.809 4.25873 15.6955 4.70252 15.6439 4.87797" fill="#F9D050"/>
<path d="M15.4065 4.73348C15.551 4.41354 15.7058 4.23809 15.9122 4.04199C15.809 4.25873 15.6955 4.70252 15.6439 4.87797" stroke="black" stroke-width="0.0139315"/>
<path d="M15.6333 4.68274C15.7365 4.45568 15.8913 4.25959 16.1597 4.13574C16.0255 4.26991 15.8191 4.67242 15.7675 4.88916" fill="#F9D050"/>
<path d="M15.6333 4.68274C15.7365 4.45568 15.8913 4.25959 16.1597 4.13574C16.0255 4.26991 15.8191 4.67242 15.7675 4.88916" stroke="black" stroke-width="0.0139315"/>
<path d="M15.7261 4.8882C15.8499 4.71275 16.0976 4.38248 16.5414 4.20703C16.2834 4.46505 15.9015 4.9398 15.8086 5.12558" fill="#F9D050"/>
<path d="M15.7261 4.8882C15.8499 4.71275 16.0976 4.38248 16.5414 4.20703C16.2834 4.46505 15.9015 4.9398 15.8086 5.12558" stroke="black" stroke-width="0.0139315"/>
<path d="M15.8707 5.11516C16.0565 5.01195 16.428 4.84682 16.6964 4.89842C16.5312 4.96035 16.0358 5.1874 15.8191 5.39382" fill="#F9D050"/>
<path d="M15.8707 5.11516C16.0565 5.01195 16.428 4.84682 16.6964 4.89842C16.5312 4.96035 16.0358 5.1874 15.8191 5.39382" stroke="black" stroke-width="0.0139315"/>
<path d="M15.8294 5.0428C16.0049 4.85703 16.3248 4.57837 16.6654 4.46484C16.4177 4.70222 15.8913 5.2389 15.8191 5.32146" fill="#F9D050"/>
<path d="M15.8294 5.0428C16.0049 4.85703 16.3248 4.57837 16.6654 4.46484C16.4177 4.70222 15.8913 5.2389 15.8191 5.32146" stroke="black" stroke-width="0.0139315"/>
<path d="M15.3339 4.93084C15.21 4.54897 15.0243 4.18775 14.7456 4.07422C14.9004 4.30128 15.0965 4.63154 15.1997 5.12693" fill="#F9D050"/>
<path d="M15.3339 4.93084C15.21 4.54897 15.0243 4.18775 14.7456 4.07422C14.9004 4.30128 15.0965 4.63154 15.1997 5.12693" stroke="black" stroke-width="0.0139315"/>
<path d="M15.0965 4.91907C14.8901 4.67137 14.6114 4.42367 14.2915 4.37207C14.5082 4.49592 14.8695 4.85715 15.0036 5.20805" fill="#F9D050"/>
<path d="M15.0965 4.91907C14.8901 4.67137 14.6114 4.42367 14.2915 4.37207C14.5082 4.49592 14.8695 4.85715 15.0036 5.20805" stroke="black" stroke-width="0.0139315"/>
<path d="M15.2105 4.90942C14.9524 4.44498 14.7563 4.36242 14.6428 4.26953C14.7357 4.44498 14.9628 4.90942 15.0969 5.10551" fill="#F9D050"/>
<path d="M15.2105 4.90942C14.9524 4.44498 14.7563 4.36242 14.6428 4.26953C14.7357 4.44498 14.9628 4.90942 15.0969 5.10551" stroke="black" stroke-width="0.0139315"/>
<path d="M14.6941 4.87695C14.8179 4.9492 15.0037 5.12465 15.0656 5.23818" stroke="black" stroke-width="0.0139315"/>
<path d="M14.6941 5.09473C14.756 5.14633 14.8695 5.20825 14.9728 5.30114Z" fill="#F9D050"/>
<path d="M14.6941 5.09473C14.756 5.14633 14.8695 5.20825 14.9728 5.30114" stroke="black" stroke-width="0.0139315"/>
<path d="M15.9221 5.24825C16.0253 5.16569 16.2524 5.03152 16.3659 4.99023Z" fill="#F9D050"/>
<path d="M15.9221 5.24825C16.0253 5.16569 16.2524 5.03152 16.3659 4.99023" stroke="black" stroke-width="0.0139315"/>
<path d="M15.8499 5.17777C15.9531 5.0436 16.1595 4.85782 16.2317 4.7959Z" fill="#F9D050"/>
<path d="M15.8499 5.17777C15.9531 5.0436 16.1595 4.85782 16.2317 4.7959" stroke="black" stroke-width="0.0139315"/>
<path d="M16.139 4.53711C16.0461 4.64032 15.8294 4.89833 15.7468 5.02218Z" fill="#F9D050"/>
<path d="M16.139 4.53711C16.0461 4.64032 15.8294 4.89833 15.7468 5.02218" stroke="black" stroke-width="0.0139315"/>
<path d="M15.8706 4.44434C15.7983 4.53722 15.6538 4.80556 15.6125 4.89845Z" fill="#F9D050"/>
<path d="M15.8706 4.44434C15.7983 4.53722 15.6538 4.80556 15.6125 4.89845" stroke="black" stroke-width="0.0139315"/>
<path d="M15.0554 4.46484C15.1173 4.62998 15.2309 4.90863 15.2722 5.02216Z" fill="#F9D050"/>
<path d="M15.0554 4.46484C15.1173 4.62998 15.2309 4.90863 15.2722 5.02216" stroke="black" stroke-width="0.0139315"/>
<path d="M14.9624 4.64062C15.0037 4.70255 15.0863 4.84704 15.1172 4.95025Z" fill="#F9D050"/>
<path d="M14.9624 4.64062C15.0037 4.70255 15.0863 4.84704 15.1172 4.95025" stroke="black" stroke-width="0.0139315"/>
<path d="M15.3132 4.58867C15.3132 4.49579 15.3752 4.39258 15.4371 4.39258C15.5093 4.39258 15.5609 4.51643 15.5609 4.58867C15.5609 4.67124 15.499 4.74348 15.4371 4.74348C15.3752 4.74348 15.3132 4.68156 15.3132 4.58867Z" fill="#F9D050" stroke="black" stroke-width="0.0139315"/>
<path d="M15.1788 4.67047C15.1891 4.56726 15.2614 4.48469 15.3233 4.49501C15.3852 4.50533 15.4162 4.62918 15.4059 4.70143C15.3956 4.78399 15.3233 4.84592 15.2717 4.8356C15.2201 4.8356 15.1685 4.76335 15.1788 4.67047Z" fill="#F9D050" stroke="black" stroke-width="0.0139315"/>
<path d="M15.4578 4.70127C15.4371 4.60839 15.4784 4.50518 15.5403 4.49486C15.6023 4.48454 15.6642 4.58774 15.6745 4.67031C15.6951 4.75288 15.6435 4.83544 15.5919 4.83544C15.5403 4.84576 15.4681 4.79416 15.4578 4.70127Z" fill="#F9D050" stroke="black" stroke-width="0.0139315"/>
<path d="M15.303 4.78301C15.303 4.6798 15.3649 4.58691 15.4268 4.58691C15.4991 4.58691 15.5507 4.70044 15.5507 4.78301C15.5507 4.86557 15.4888 4.93782 15.4268 4.93782C15.3649 4.93782 15.303 4.87589 15.303 4.78301Z" fill="#F9D050" stroke="black" stroke-width="0.0139315"/>
<path d="M15.1172 4.83574C15.1172 4.74286 15.1894 4.63965 15.2514 4.63965C15.3133 4.63965 15.3752 4.7635 15.3752 4.83574C15.3752 4.91831 15.303 4.99055 15.2514 4.99055C15.1894 4.99055 15.1172 4.92863 15.1172 4.83574Z" fill="#F9D050" stroke="black" stroke-width="0.0139315"/>
<path d="M15.499 4.79375C15.499 4.70086 15.5609 4.59766 15.6229 4.59766C15.6951 4.59766 15.7467 4.72151 15.7467 4.79375C15.7467 4.87632 15.6848 4.94856 15.6229 4.94856C15.5609 4.94856 15.499 4.88664 15.499 4.79375Z" fill="#F9D050" stroke="black" stroke-width="0.0139315"/>
<path d="M15.4578 4.87773C15.4578 4.77453 15.53 4.68164 15.5919 4.68164C15.6539 4.68164 15.7158 4.79517 15.7158 4.87773C15.7158 4.9603 15.6539 5.03255 15.5919 5.03255C15.53 5.03255 15.4578 4.97062 15.4578 4.87773Z" fill="#F9D050" stroke="black" stroke-width="0.0139315"/>
<path d="M15.2927 4.96953C15.2927 4.86632 15.3546 4.77344 15.4166 4.77344C15.4888 4.77344 15.5404 4.89729 15.5404 4.96953C15.5404 5.0521 15.4785 5.12434 15.4166 5.12434C15.3546 5.12434 15.2927 5.06242 15.2927 4.96953Z" fill="#F9D050" stroke="black" stroke-width="0.0139315"/>
<path d="M15.0344 4.96953C15.0344 4.86632 15.086 4.77344 15.1376 4.77344C15.1892 4.77344 15.2305 4.89729 15.2305 4.96953C15.2305 5.0521 15.1789 5.12434 15.1376 5.12434C15.086 5.12434 15.0344 5.06242 15.0344 4.96953Z" fill="#F9D050" stroke="black" stroke-width="0.0139315"/>
<path d="M15.6123 4.94847C15.6123 4.85558 15.6639 4.7627 15.7155 4.7627C15.7671 4.7627 15.8187 4.87622 15.8187 4.94847C15.8187 5.04136 15.7568 5.10328 15.7155 5.10328C15.6639 5.10328 15.6123 5.04136 15.6123 4.94847Z" fill="#F9D050" stroke="black" stroke-width="0.0139315"/>
<path d="M15.6744 5.12457C15.695 5.02136 15.7569 4.93879 15.7982 4.94912C15.8395 4.95944 15.8498 5.08328 15.8292 5.15553C15.8188 5.24842 15.7569 5.30002 15.7156 5.2897C15.6744 5.27938 15.6537 5.20713 15.6744 5.12457Z" fill="#F9D050" stroke="black" stroke-width="0.0139315"/>
<path d="M15.4784 5.09421C15.4887 5.00132 15.5506 4.90844 15.6022 4.91876C15.6642 4.91876 15.6951 5.0426 15.6848 5.11485C15.6745 5.20774 15.6229 5.26966 15.5713 5.25934C15.5197 5.25934 15.4681 5.1871 15.4784 5.09421Z" fill="#F9D050" stroke="black" stroke-width="0.0139315"/>
<path d="M15.1894 5.1251C15.1584 5.02189 15.0965 4.94964 15.0552 4.95996C15.0139 4.97029 15.0036 5.09413 15.0242 5.16638C15.0449 5.24895 15.1068 5.30055 15.1481 5.29023C15.179 5.27991 15.21 5.20766 15.1894 5.1251Z" fill="#F9D050" stroke="black" stroke-width="0.0139315"/>
<path d="M15.1172 5.10472C15.1172 5.01183 15.1688 4.91895 15.2204 4.91895C15.2823 4.91895 15.3236 5.03247 15.3236 5.10472C15.3236 5.1976 15.272 5.25953 15.2204 5.25953C15.1791 5.25953 15.1172 5.1976 15.1172 5.10472Z" fill="#F9D050" stroke="black" stroke-width="0.0139315"/>
<path d="M15.272 5.14434C15.272 5.04113 15.3339 4.94824 15.3958 4.94824C15.4681 4.94824 15.5197 5.06177 15.5197 5.14434C15.5197 5.2269 15.4577 5.29915 15.3958 5.29915C15.3339 5.29915 15.272 5.23722 15.272 5.14434Z" fill="#F9D050" stroke="black" stroke-width="0.0139315"/>
<path d="M15.3234 4.01032C15.3028 4.09289 15.2305 4.16513 15.2821 4.27866C15.1892 4.2477 15.1067 4.23738 15.0344 4.31994C15.1273 4.30962 15.2099 4.34058 15.2512 4.40251C15.1686 4.39219 15.1273 4.43347 15.1067 4.48507C15.1789 4.46443 15.2512 4.44379 15.2821 4.45411C15.2512 4.48507 15.1996 4.53668 15.1892 4.57796C15.2512 4.52636 15.3234 4.53668 15.3647 4.50572C15.3337 4.57796 15.3956 4.65021 15.4473 4.72245C15.4369 4.61924 15.4989 4.547 15.4679 4.4954C15.5608 4.51604 15.5711 4.5986 15.7053 4.5986C15.6537 4.56764 15.6227 4.46443 15.5608 4.46443C15.5917 4.45411 15.7156 4.44379 15.7362 4.46443C15.7156 4.42315 15.6433 4.38187 15.6021 4.38187C15.6433 4.34058 15.7156 4.25802 15.7672 4.23738C15.6949 4.2477 15.5814 4.25802 15.5401 4.31994C15.6433 4.23738 15.6227 4.08257 15.7362 4.06192C15.6743 4.0516 15.5814 4.09289 15.5092 4.16513C15.5401 4.10321 15.5401 4.02064 15.5814 4C15.4989 4.02064 15.406 4.12385 15.375 4.17545C15.375 4.12385 15.344 4.04128 15.3234 4.01032Z" fill="#F9D050" stroke="black" stroke-width="0.0139315"/>
<path d="M15.3753 4.17578C15.3753 4.20674 15.3753 4.26867 15.365 4.28931Z" fill="#F9D050"/>
<path d="M15.3753 4.17578C15.3753 4.20674 15.3753 4.26867 15.365 4.28931" stroke="black" stroke-width="0.0139315"/>
<path d="M15.5094 4.16504C15.4888 4.18568 15.4475 4.25793 15.4475 4.31985Z" fill="#F9D050"/>
<path d="M15.5094 4.16504C15.4888 4.18568 15.4475 4.25793 15.4475 4.31985" stroke="black" stroke-width="0.0139315"/>
<path d="M15.5713 4.28906C15.5403 4.3097 15.5093 4.34067 15.499 4.38195" stroke="black" stroke-width="0.0139315"/>
<path d="M14.4773 5.31241C14.405 5.31241 14.3431 5.28144 14.3018 5.22984C14.2296 5.13695 14.0335 5.09567 13.9509 5.17824C13.9199 5.19888 13.8787 5.19888 13.8477 5.2092C13.7961 5.2092 13.7342 5.2608 13.7548 5.36401C13.7961 5.33305 13.8064 5.36401 13.8374 5.36401C13.858 5.35369 13.8477 5.37433 13.8477 5.39497C13.8477 5.44658 13.9612 5.54978 14.0644 5.53946C14.178 5.53946 14.2296 5.58075 14.2502 5.60139C14.2812 5.63235 14.2605 5.62203 14.2812 5.67363C14.3121 5.70459 14.3224 5.71491 14.2708 5.7562C14.1986 5.81812 14.147 5.96261 14.2708 6.07614C14.405 6.17935 14.7456 6.33416 15.1275 6.03486C15.499 5.74588 16.077 5.91101 16.1183 6.01422C16.1699 6.11742 16.1905 6.17935 16.2008 6.23095C16.2111 6.27224 16.2627 6.31352 16.335 6.3032C16.4072 6.3032 16.4898 6.33416 16.5311 6.36512C16.5827 6.39608 16.6549 6.38576 16.6343 6.29288C16.593 6.0039 16.4176 5.96261 16.3969 5.82844C16.5001 5.83876 16.5724 5.83876 16.6136 5.79748C16.6446 5.7562 16.6859 5.68395 16.7272 5.66331C16.7581 5.64267 16.7581 5.62203 16.7169 5.63235C16.6653 5.64267 16.6343 5.66331 16.5414 5.65299C16.0666 5.60139 14.7353 5.24016 14.4773 5.31241Z" fill="#059334" stroke="black" stroke-width="0.0309621"/>
<path d="M16.5826 5.66226C16.5309 5.69322 16.4793 5.74483 16.3865 5.86868C16.2833 6.00285 15.9736 6.13702 15.5918 6.13702C15.2202 6.13702 14.9932 6.07509 14.828 5.94092C14.7351 5.86868 14.6629 5.82739 14.601 5.79643C14.4874 5.74483 14.4668 5.6313 14.4978 5.53841C14.4668 5.59002 14.4462 5.64162 14.3842 5.6313C14.343 5.6313 14.2604 5.6313 14.281 5.67258C14.2707 5.65194 14.2707 5.62098 14.2604 5.61066C14.2501 5.60034 14.2397 5.59002 14.2397 5.59002C14.2707 5.61066 14.343 5.54873 14.3946 5.54873C14.4358 5.55905 14.4874 5.50745 14.4771 5.44553C14.4668 5.39392 14.4565 5.35264 14.4462 5.31136C14.5287 5.27007 15.6124 5.46617 15.8291 5.48681C16.0459 5.49713 16.6651 5.59002 16.5826 5.66226Z" fill="black" stroke="black" stroke-width="0.0309621"/>
<path d="M14.6213 5.26957C14.7245 5.16637 14.8483 5.11476 14.9722 5.14572H15.0031C15.065 5.09412 15.2095 5.0838 15.2921 5.12508H15.3334C15.4572 5.0838 15.6946 5.12508 15.7772 5.20765L15.8081 5.22829C16.0868 5.20765 16.2519 5.3315 16.448 5.52759C16.4687 5.54823 16.4996 5.58951 16.5512 5.59984C16.6132 5.61016 16.6235 5.64112 16.5719 5.67208C16.5099 5.70304 16.4583 5.75465 16.3551 5.86818C16.2622 5.99202 15.9629 6.11587 15.5914 6.11587C15.2302 6.11587 15.0134 6.05395 14.8483 5.9301C14.7554 5.85785 14.6832 5.81657 14.6316 5.78561C14.5696 5.76497 14.4871 5.6824 14.518 5.59983C14.5387 5.51727 14.4871 5.41406 14.4458 5.31085C14.4768 5.29021 14.5593 5.25925 14.6006 5.27989L14.6213 5.26957Z" fill="#059334" stroke="black" stroke-width="0.0309621"/>
<path d="M16.4483 5.52713C16.2522 5.33103 16.0871 5.20718 15.8084 5.22782C15.8084 5.23815 15.8084 5.26911 15.7981 5.28975C15.9632 5.35167 16.2006 5.53745 16.3038 5.67162C16.3451 5.63033 16.4173 5.57873 16.4483 5.52713Z" fill="#00493D" stroke="black" stroke-width="0.0309621"/>
<path d="M15.7777 5.20716C15.6951 5.12459 15.4577 5.08331 15.3339 5.12459C15.3339 5.16588 15.3339 5.2278 15.3132 5.26908C15.3855 5.30005 15.4474 5.37229 15.5093 5.44454C15.5506 5.43422 15.6538 5.40325 15.7054 5.39293C15.7261 5.35165 15.7673 5.25876 15.7777 5.20716Z" fill="#00493D" stroke="black" stroke-width="0.0309621"/>
<path d="M15.2924 5.12508C15.2098 5.0838 15.0653 5.09412 15.0034 5.14572C14.9827 5.18701 14.9724 5.26957 14.9724 5.31086C15.0137 5.31086 15.0756 5.34182 15.0963 5.36246C15.1582 5.34182 15.2408 5.30054 15.2717 5.26957C15.282 5.22829 15.3027 5.16637 15.2924 5.12508Z" fill="#00493D" stroke="black" stroke-width="0.0309621"/>
<path d="M14.6218 5.26949C14.725 5.16628 14.8489 5.11468 14.9727 5.14564C14.9521 5.1766 14.9418 5.23853 14.9418 5.30045C14.8282 5.29013 14.6838 5.3211 14.6218 5.36238V5.26949Z" fill="#00493D" stroke="black" stroke-width="0.0309621"/>
<path d="M16.2626 5.69326C16.1697 5.55909 15.9426 5.40428 15.7878 5.33203C15.7878 5.34235 15.7672 5.38363 15.7568 5.4146C15.8188 5.50748 15.9426 5.7139 15.9942 5.82743C16.0458 5.80678 16.1903 5.74486 16.2626 5.69326Z" fill="#00493D" stroke="black" stroke-width="0.0309621"/>
<path d="M15.4785 5.92006C15.4992 5.77557 15.5095 5.56916 15.5095 5.49692C15.5611 5.4866 15.6643 5.45563 15.7056 5.44531C15.7572 5.52788 15.881 5.74461 15.9326 5.84782C15.8088 5.87878 15.6024 5.93039 15.4785 5.92006Z" fill="#00493D" stroke="black" stroke-width="0.0309621"/>
<path d="M15.1169 5.42547C15.1685 5.40483 15.2408 5.36355 15.2924 5.32227C15.3337 5.35323 15.4162 5.42547 15.4472 5.46676C15.4472 5.55964 15.4162 5.82798 15.4059 5.92087C15.3234 5.92087 15.1892 5.90023 15.1169 5.85894C15.1273 5.70413 15.1376 5.52868 15.1169 5.42547Z" fill="#00493D" stroke="black" stroke-width="0.0309621"/>
<path d="M14.6008 5.54918C14.6112 5.52854 14.6215 5.4563 14.6215 5.42533C14.704 5.37373 14.9105 5.32213 15.0653 5.40469C15.0756 5.5079 15.0653 5.76592 15.0549 5.82784C14.9208 5.72463 14.704 5.58015 14.6008 5.54918Z" fill="#00493D" stroke="black" stroke-width="0.0309621"/>
<path d="M14.085 5.36271C14.0644 5.36271 14.0541 5.30078 14.0128 5.30078C14.0025 5.30078 13.9715 5.3111 13.9612 5.30078C13.9612 5.32142 13.9715 5.34206 13.9818 5.35238C13.9921 5.38335 14.0437 5.36271 14.085 5.36271Z" fill="black"/>
<path d="M14.085 5.53818C14.2088 5.53818 14.2295 5.38337 14.2914 5.37305" stroke="black" stroke-width="0.0309621"/>
<path d="M14.1572 5.54928C14.2501 5.59056 14.3224 5.37383 14.3946 5.38415" stroke="black" stroke-width="0.0309621"/>
<path d="M13.9717 5.27931C14.0026 5.27931 14.0233 5.23802 14.0749 5.28963C14.0955 5.31027 14.1265 5.32059 14.1471 5.32059" stroke="black" stroke-width="0.0309621"/>
<path d="M14.1262 5.43652C14.085 5.49845 14.0127 5.53973 13.9714 5.51909" stroke="black" stroke-width="0.0309621"/>
<path d="M13.9507 5.17676C13.9197 5.1974 13.8991 5.23868 13.8784 5.26964" stroke="black" stroke-width="0.0309621"/>
<path d="M13.8477 5.33301V5.38461" stroke="black" stroke-width="0.0309621"/>
<path d="M17.2948 6.67383V8.68637C17.2948 10.4306 16.4692 11.0292 15.3649 11.5039C14.2605 11.0292 13.4246 10.4306 13.4246 8.68637V6.67383H17.2948Z" fill="white"/>
<path d="M15.3649 8.37675C15.4577 8.37675 15.6022 8.29418 15.7261 8.17033C15.8602 8.02584 16.0873 7.97424 16.3247 8.17033C16.5621 8.36643 16.7065 8.28386 16.8304 8.17033C16.9542 8.05681 17.0575 8.01552 17.2948 8.01552V6.67383H13.4246V8.01552C13.6619 8.01552 13.7651 8.05681 13.889 8.17033C14.0128 8.28386 14.1573 8.36643 14.3947 8.17033C14.6424 7.97424 14.8591 8.02584 15.0036 8.17033C15.1172 8.29418 15.2616 8.37675 15.3649 8.37675Z" fill="#C8102E"/>
<path d="M15.3646 9.40782C15.4885 9.40782 15.7362 9.27365 15.7981 9.24268C16.0251 9.10851 16.1903 9.23236 16.3244 9.29429C16.4689 9.35621 16.7373 9.42846 16.9024 9.29429C17.0675 9.16012 17.1604 9.17044 17.2739 9.17044C17.2946 9.01563 17.2946 8.86082 17.2946 8.68536V8.56152C17.1501 8.53055 17.0779 8.57184 16.923 8.70601C16.7682 8.84018 16.5928 8.80921 16.3657 8.72665C16.149 8.63376 15.9323 8.46863 15.7155 8.72665C15.6536 8.79889 15.5091 8.9021 15.3646 8.9021C15.2098 8.9021 15.0756 8.79889 15.0137 8.72665C14.7867 8.46863 14.5802 8.63376 14.3635 8.72665C14.1364 8.80921 13.9507 8.84018 13.7959 8.70601C13.6514 8.57184 13.5791 8.53055 13.4243 8.56152V8.68536C13.4243 8.86082 13.4346 9.01563 13.4553 9.17044C13.5688 9.17044 13.6514 9.16012 13.8165 9.29429C13.9816 9.42846 14.2603 9.35621 14.3945 9.29429C14.539 9.23236 14.7041 9.10851 14.9311 9.24268C14.9931 9.27365 15.2304 9.40782 15.3646 9.40782Z" fill="#0B50A0"/>
<path d="M15.3644 9.85284C15.5192 9.85284 15.705 9.79091 15.8701 9.69803C16.0765 9.5845 16.221 9.6361 16.4274 9.73931C16.6441 9.84252 16.8196 9.81155 16.9434 9.73931C17.0054 9.69803 17.057 9.61546 17.1911 9.64642C17.1292 9.90444 17.0363 10.1315 16.9228 10.3173C16.7164 10.3689 16.6029 10.3689 16.3861 10.276C16.1694 10.1728 15.901 10.1109 15.7566 10.2037C15.6224 10.2863 15.4779 10.3276 15.3644 10.3276C15.2508 10.3276 15.1063 10.2863 14.9722 10.2037C14.8277 10.1109 14.5594 10.1728 14.3426 10.276C14.1259 10.3689 14.0124 10.3689 13.8059 10.3173C13.6924 10.1315 13.5995 9.90444 13.5376 9.64642C13.6718 9.61546 13.7234 9.69803 13.7853 9.73931C13.8988 9.81155 14.0846 9.84252 14.291 9.73931C14.5077 9.6361 14.6522 9.5845 14.8586 9.69803C15.0238 9.79091 15.2096 9.85284 15.3644 9.85284Z" fill="#0B50A0"/>
<path d="M15.3646 11.5032C15.7774 11.3278 16.1593 11.1317 16.4689 10.8634C16.3863 10.8324 16.3347 10.853 16.2625 10.8014C16.1902 10.7498 15.9735 10.7292 15.7877 10.8324C15.5916 10.9253 15.5091 10.9459 15.3646 10.9459C15.2201 10.9459 15.1375 10.9253 14.9414 10.8324C14.7556 10.7292 14.5389 10.7498 14.4667 10.8014C14.3944 10.853 14.3428 10.8324 14.2603 10.8634C14.5699 11.1317 14.9414 11.3278 15.3646 11.5032Z" fill="#0B50A0"/>
<path d="M15.096 7.17956C15.1063 7.20021 15.0857 7.25181 15.096 7.27245C15.1166 7.31373 15.1166 7.33438 15.1476 7.35502H15.2198C15.4469 7.35502 15.7152 7.26213 15.9423 7.26213C16.159 7.26213 16.2932 7.33438 16.417 7.33438C16.4893 7.33438 16.5512 7.28277 16.5512 7.23117C16.5512 7.17956 16.4686 7.1486 16.2932 7.1486C16.0455 7.1486 15.9113 7.21053 15.7049 7.21053C15.3953 7.21053 15.3437 7.097 15.3437 7.0454C15.3437 6.99379 15.3953 6.92155 15.5604 6.92155C15.612 6.92155 15.6533 6.91123 15.6739 6.89058C15.6843 6.86994 15.7152 6.82866 15.7771 6.7977C15.8494 6.75641 15.9939 6.7977 16.0661 6.74609C16.0661 6.78738 16.0042 6.8493 15.9526 6.86994C16.0558 6.83898 16.1693 6.83898 16.19 6.92155C16.1384 6.89058 16.0558 6.91123 16.0248 6.92155C15.9836 6.93187 15.9629 6.94219 15.9216 6.95251C15.9629 6.94219 15.9836 7.02475 16.0455 7.02475C15.9836 7.07636 15.8804 7.07636 15.7771 7.03507C15.7462 7.02475 15.6636 6.99379 15.612 6.99379C15.5088 6.99379 15.4469 7.01443 15.4469 7.05572C15.4469 7.10732 15.5088 7.13828 15.6946 7.13828C15.8804 7.13828 15.9836 7.08668 16.2622 7.08668C16.2416 7.05572 16.2725 7.02475 16.2313 6.99379C16.3345 6.99379 16.448 7.02475 16.4893 7.097C16.479 7.02475 16.5409 6.96283 16.5202 6.9009C16.5822 6.91123 16.6338 6.97315 16.6441 7.02475C16.6441 6.99379 16.6854 6.99379 16.6854 6.96283C16.7473 6.99379 16.7783 7.06604 16.7679 7.12796C16.7989 7.07636 16.8299 7.097 16.8505 7.03507C16.8711 7.07636 16.8608 7.20021 16.7886 7.24149C16.8505 7.20021 16.9434 7.20021 17.0053 7.27245C16.9434 7.26213 16.9124 7.29309 16.8815 7.30341C16.7576 7.37566 16.5512 7.41694 16.3964 7.40662C16.2313 7.3963 16.2106 7.36534 16.1074 7.36534C16.1693 7.37566 16.2932 7.49951 16.4067 7.49951C16.479 7.49951 16.5306 7.49951 16.5615 7.48919C16.5925 7.47887 16.6441 7.48919 16.6854 7.50983C16.7163 7.54079 16.7783 7.57175 16.8195 7.56143C16.8092 7.60271 16.7886 7.62336 16.7576 7.63368C16.8092 7.66464 16.7783 7.68528 16.8299 7.72656C16.8092 7.72656 16.7886 7.7472 16.7576 7.73688C16.7886 7.76785 16.7886 7.80913 16.8195 7.82977C16.8092 7.82977 16.7783 7.84009 16.7576 7.82977C16.7886 7.87105 16.7576 7.92266 16.7886 7.9433C16.8195 7.98458 16.7576 8.03619 16.706 7.9949C16.7163 8.02586 16.6854 8.05683 16.6544 8.04651C16.6234 8.03619 16.6028 8.00522 16.6131 7.9949C16.6131 7.98458 16.6131 7.98458 16.6234 7.97426C16.6028 8.00522 16.5615 8.00522 16.5409 7.9949C16.5306 7.98458 16.5202 7.97426 16.5202 7.96394C16.448 7.98458 16.417 7.92266 16.4274 7.8917C16.4377 7.86073 16.4996 7.85041 16.5202 7.86073C16.5409 7.87105 16.5615 7.88137 16.5822 7.86073C16.6028 7.85041 16.6131 7.82977 16.6131 7.80913C16.6131 7.77817 16.5822 7.68528 16.448 7.6956C16.2932 7.70592 16.0455 7.66464 15.9216 7.62336C15.9113 7.61304 15.901 7.61304 15.8907 7.60271C15.8907 7.644 15.8494 7.66464 15.8494 7.70592C15.8494 7.75753 15.87 7.79881 15.932 7.81945C15.901 7.87105 15.8494 7.86073 15.8288 7.82977C15.8288 7.86073 15.7875 7.88137 15.7875 7.92266C15.7771 7.90202 15.7668 7.8917 15.7565 7.87105C15.7255 7.9433 15.643 7.98458 15.6017 7.96394C15.5501 8.00522 15.4882 7.9949 15.4675 7.95362C15.4366 7.97426 15.3953 7.97426 15.3746 7.95362C15.3746 7.98458 15.354 7.97426 15.3437 8.01554C15.3437 8.03619 15.3024 8.04651 15.2818 8.03619C15.2611 8.02586 15.2508 7.98458 15.2714 7.96394C15.2405 7.98458 15.2095 7.98458 15.1889 7.96394C15.1889 7.9433 15.1889 7.91234 15.2095 7.90202H15.2301C15.2095 7.8917 15.1785 7.90202 15.1579 7.8917C15.1373 7.87105 15.1373 7.85041 15.1476 7.82977C15.1579 7.81945 15.1889 7.79881 15.2095 7.81945L15.2198 7.82977C15.2198 7.80913 15.2301 7.78849 15.2405 7.78849C15.2611 7.77817 15.2921 7.77817 15.323 7.80913C15.3437 7.84009 15.3643 7.84009 15.4262 7.82977C15.4778 7.82977 15.5604 7.77817 15.6223 7.72656C15.4469 7.6956 15.5501 7.58207 15.6017 7.54079C15.5604 7.53047 15.4985 7.53047 15.4572 7.55111C15.2405 7.66464 15.0134 7.79881 14.8689 7.75753C14.8689 7.77817 14.8792 7.79881 14.8896 7.81945C14.8586 7.81945 14.7967 7.81945 14.776 7.78849C14.7657 7.80913 14.7451 7.86073 14.7657 7.90202C14.7451 7.88137 14.6831 7.86073 14.6522 7.85041C14.6728 7.87105 14.6522 7.91234 14.6625 7.9433C14.6315 7.91234 14.5799 7.89169 14.5593 7.91234C14.5387 7.93298 14.4974 7.9433 14.4664 7.93298C14.4458 7.96394 14.4148 7.98458 14.3838 7.9949C14.3838 7.97426 14.3838 7.9433 14.3735 7.93298C14.3632 7.96394 14.3322 8.00522 14.291 8.02586C14.291 8.00522 14.291 7.97426 14.2806 7.95362C14.2806 7.9949 14.1981 8.01554 14.1878 8.04651C14.1981 8.01554 14.1981 7.98458 14.1981 7.96394C14.1774 7.9949 14.1465 8.02586 14.0949 8.03619C14.1052 8.01554 14.1155 7.9949 14.1052 7.97426C14.0949 8.01554 14.0329 8.03619 13.9813 8.02586C13.9813 8.04651 13.9401 8.07747 13.8885 8.04651C13.8575 8.03619 13.8368 8.00522 13.8575 7.98458C13.8162 7.98458 13.7749 7.9433 13.7956 7.91234C13.7956 7.90202 13.8059 7.89169 13.8059 7.88137C13.7749 7.86073 13.7646 7.81945 13.7956 7.78849C13.8059 7.77817 13.8368 7.77817 13.8575 7.77817C13.8575 7.6956 13.9297 7.6956 13.9607 7.75753C13.9813 7.78849 14.0433 7.84009 14.0949 7.82977C14.1155 7.82977 14.1258 7.81945 14.1465 7.81945C14.2084 7.79881 14.3322 7.7472 14.4045 7.68528C14.4148 7.65432 14.4148 7.63368 14.4148 7.61304C14.3735 7.63368 14.3322 7.65432 14.3116 7.68528V7.65432C14.2806 7.65432 14.229 7.644 14.2084 7.644C14.2187 7.63368 14.229 7.58207 14.2497 7.57175C14.1981 7.58207 14.1465 7.57175 14.1052 7.56143C14.1258 7.54079 14.1258 7.50983 14.1362 7.47887C14.1155 7.48919 14.0639 7.46855 14.0226 7.47887C14.0329 7.4479 14.0433 7.40662 14.0742 7.3963C14.0329 7.40662 13.9813 7.3963 13.9297 7.37566C13.971 7.37566 13.9917 7.32405 14.0226 7.32405C13.9401 7.32405 13.9194 7.28277 13.8781 7.26213C13.9091 7.27245 13.9297 7.24149 13.9607 7.24149C13.9297 7.23117 13.8781 7.17956 13.8988 7.1486C13.8885 7.15892 13.8781 7.17956 13.8575 7.18989C13.8368 7.20021 13.7956 7.18989 13.7646 7.15892C13.744 7.11764 13.7543 7.06604 13.7956 7.05572C13.744 7.0454 13.744 6.99379 13.7646 6.97315C13.7749 6.95251 13.8162 6.92155 13.8369 6.95251C13.8472 6.96283 13.8575 6.98347 13.8678 6.99379C13.8575 6.97315 13.8575 6.93187 13.8575 6.9009C13.8678 6.86994 13.8885 6.86994 13.9194 6.85962C13.9504 6.85962 13.971 6.89058 13.971 6.92155C13.971 6.95251 13.9813 6.97315 13.9917 7.01443C13.9917 7.00411 14.002 6.98347 14.002 6.97315C14.002 6.93187 14.0536 6.94219 14.0845 6.95251C14.1155 6.96283 14.1258 7.02475 14.0845 7.05572C14.0639 7.07636 14.0742 7.10732 14.0949 7.12796C14.1671 7.24149 14.291 7.33438 14.3942 7.3447C14.3942 7.30341 14.4148 7.26213 14.4458 7.23117C14.4458 7.21053 14.4561 7.17956 14.4664 7.15892C14.4767 7.097 14.5077 7.06604 14.549 7.08668C14.5387 7.07636 14.5283 7.06604 14.5283 7.05572C14.4974 7.02475 14.4664 6.97315 14.4871 6.93187C14.5077 6.89058 14.5696 6.9009 14.5903 6.92155C14.5799 6.85962 14.6522 6.80802 14.6522 6.77706C14.6625 6.80802 14.6831 6.8493 14.6728 6.88026C14.6831 6.83898 14.7554 6.78738 14.807 6.76673C14.7864 6.7977 14.8483 6.8493 14.838 6.88026C14.8586 6.82866 14.9412 6.7977 15.0031 6.7977C14.9825 6.81834 14.9825 6.85962 14.9825 6.88026C15.0134 6.88026 15.065 6.86994 15.0857 6.83898C15.0857 6.88026 15.065 6.92155 15.0444 6.94219C15.0547 6.93187 15.096 6.93187 15.1269 6.93187C15.096 6.96283 15.1063 6.99379 15.0753 7.01443C15.1166 6.99379 15.1682 6.99379 15.1785 7.03507C15.1992 7.06604 15.1682 7.11764 15.1476 7.1486C15.1269 7.15892 15.1063 7.17956 15.096 7.17956Z" fill="#F9D050" stroke="black" stroke-width="0.0309621"/>
<path d="M14.4565 7.30469C14.3842 7.33565 14.3636 7.40789 14.3533 7.44918" stroke="black" stroke-width="0.0309621"/>
<path d="M14.4461 7.37695C14.3429 7.43888 14.3017 7.49048 14.3223 7.60401" stroke="black" stroke-width="0.0309621"/>
<path d="M14.4978 7.68593C14.5597 7.66529 14.601 7.64464 14.6526 7.55176" stroke="black" stroke-width="0.0309621"/>
<path d="M14.6213 7.59375C14.6007 7.63503 14.6213 7.70728 14.5903 7.73824C14.6419 7.70728 14.6832 7.666 14.6935 7.59375" stroke="black" stroke-width="0.0309621"/>
<path d="M14.6418 7.70697C14.6831 7.68633 14.7451 7.6244 14.776 7.55216C14.7657 7.58312 14.776 7.63472 14.7554 7.66569C14.807 7.61408 14.8276 7.58312 14.8379 7.53152C14.8379 7.54184 14.8483 7.56248 14.8483 7.5728C14.8689 7.55216 14.8895 7.53152 14.8895 7.49023" stroke="black" stroke-width="0.0309621"/>
<path d="M14.8896 7.52146V7.57307C14.9309 7.54211 14.9413 7.50082 14.9413 7.44922" stroke="black" stroke-width="0.0309621"/>
<path d="M14.9312 7.51055C14.9931 7.46926 15.0034 7.40734 15.0034 7.31445" stroke="black" stroke-width="0.0309621"/>
<path d="M15.0034 7.41793C15.0447 7.38697 15.055 7.36632 15.055 7.27344" stroke="black" stroke-width="0.0309621"/>
<path d="M14.9206 6.99468C14.9 6.99468 14.8793 7.005 14.8793 7.03596C14.8793 7.0566 14.8483 7.08756 14.8483 7.11852C14.838 7.15981 14.8174 7.17013 14.7864 7.15981C14.7555 7.13917 14.7555 7.13917 14.7555 7.1082C14.7555 7.06692 14.8071 7.0566 14.8071 7.01532C14.8174 6.99468 14.8277 6.96371 14.838 6.96371C14.7864 6.99468 14.7142 6.97403 14.7039 6.91211" stroke="black" stroke-width="0.0309621"/>
<path d="M15.0135 7.02515C14.9929 7.03547 14.9722 7.00451 14.9413 7.01483C14.9309 7.01483 14.9 7.02515 14.8896 7.01483" stroke="black" stroke-width="0.0309621"/>
<path d="M14.8691 7.07755C14.8795 7.08787 14.9311 7.10851 14.9827 7.08787C14.9414 7.09819 14.9104 7.04659 14.9517 7.01562" stroke="black" stroke-width="0.0309621"/>
<path d="M14.7763 6.97363C14.735 6.97363 14.7041 7.0046 14.7144 7.03556C14.7247 7.06652 14.766 7.06652 14.797 7.04588" stroke="black" stroke-width="0.0309621"/>
<path d="M14.7039 7.491C14.7142 7.48067 14.7245 7.46003 14.7245 7.44971C14.7451 7.44971 14.7658 7.43939 14.7761 7.42907C14.8174 7.42907 14.8483 7.39811 14.8587 7.36715C14.8793 7.36715 14.8896 7.31554 14.9 7.2949C14.9103 7.30522 14.9309 7.2949 14.9412 7.25362C14.9619 7.26394 14.9928 7.25362 15.0032 7.22266" stroke="black" stroke-width="0.0309621"/>
<path d="M14.5803 7.14941C14.5803 7.15973 14.5597 7.18038 14.539 7.1907C14.5493 7.21134 14.539 7.26294 14.5184 7.27326C14.5287 7.2939 14.5184 7.32487 14.5081 7.34551C14.5081 7.35583 14.5184 7.38679 14.5184 7.39711" stroke="black" stroke-width="0.0309621"/>
<path d="M14.6216 6.94434C14.601 6.99594 14.6113 7.05786 14.6526 7.06818" stroke="black" stroke-width="0.0309621"/>
<path d="M14.6423 7.10938C14.632 7.16098 14.632 7.23322 14.6216 7.26419C14.6113 7.28483 14.5907 7.35707 14.6733 7.37771C14.7661 7.39836 14.8177 7.38803 14.8693 7.23322" stroke="black" stroke-width="0.0309621"/>
<path d="M15.0236 7.63477C15.0236 7.64509 15.0133 7.66573 14.9927 7.66573" stroke="black" stroke-width="0.0309621"/>
<path d="M15.0959 7.61426C15.0959 7.6349 15.0753 7.66586 15.0649 7.67618" stroke="black" stroke-width="0.0309621"/>
<path d="M15.1686 7.59375C15.1686 7.61439 15.1686 7.64535 15.1479 7.65567" stroke="black" stroke-width="0.0309621"/>
<path d="M14.5387 6.95312C14.5491 6.95312 14.5594 6.97377 14.5697 6.99441C14.5387 6.97377 14.5078 7.02537 14.5284 7.05633" stroke="black" stroke-width="0.0309621"/>
<path d="M14.5081 7.12891C14.4978 7.13923 14.4771 7.14955 14.4668 7.15987" stroke="black" stroke-width="0.0309621"/>
<path d="M14.4768 7.22168C14.4664 7.22168 14.4561 7.232 14.4458 7.232" stroke="black" stroke-width="0.0309621"/>
<path d="M13.9814 7.03627C13.9814 7.02595 13.9814 7.02595 13.9918 7.01562" stroke="black" stroke-width="0.0309621"/>
<path d="M13.8886 7.00641C13.8782 7.00641 13.8782 7.00641 13.8679 6.99609" stroke="black" stroke-width="0.0309621"/>
<path d="M13.8989 7.14941H13.9196" stroke="black" stroke-width="0.0309621"/>
<path d="M13.8576 7.0876C13.8369 7.06696 13.806 7.05664 13.7957 7.05664" stroke="black" stroke-width="0.0309621"/>
<path d="M14.4253 7.46973C14.3531 7.53165 14.3221 7.58325 14.3118 7.6555" stroke="black" stroke-width="0.0309621"/>
<path d="M14.4974 7.52148C14.4767 7.56277 14.4458 7.59373 14.4148 7.61437" stroke="black" stroke-width="0.0309621"/>
<path d="M14.0953 7.8309C14.0127 7.85154 13.9508 7.84122 13.8889 7.79994C13.8786 7.78962 13.8682 7.78962 13.8579 7.7793" stroke="black" stroke-width="0.0309621"/>
<path d="M14.4048 7.68664C14.3945 7.72792 14.3842 7.77952 14.3635 7.78984C14.4461 7.74856 14.5183 7.68664 14.5287 7.59375" stroke="black" stroke-width="0.0309621"/>
<path d="M13.8059 7.88239C13.8369 7.87207 13.8678 7.89271 13.8885 7.87207" stroke="black" stroke-width="0.0309621"/>
<path d="M15.6021 7.5417C15.6227 7.55202 15.6537 7.56235 15.664 7.57267C15.6743 7.55202 15.7156 7.52106 15.7465 7.51074" stroke="black" stroke-width="0.0309621"/>
<path d="M14.869 7.75904C14.8587 7.71775 14.8793 7.66615 14.9412 7.64551" stroke="black" stroke-width="0.0309621"/>
<path d="M14.4668 7.93455C14.4771 7.91391 14.4771 7.88295 14.4874 7.8623" stroke="black" stroke-width="0.0309621"/>
<path d="M14.0124 7.96387C14.0021 7.98451 13.9814 8.00515 13.9814 8.02579" stroke="black" stroke-width="0.0309621"/>
<path d="M13.8579 7.98575C13.8579 7.98575 13.8579 7.97543 13.8682 7.97543C13.8889 7.96511 13.9198 7.94447 13.9302 7.92383" stroke="black" stroke-width="0.0309621"/>
<path d="M15.261 7.84138C15.2404 7.8517 15.23 7.84138 15.2197 7.83105" stroke="black" stroke-width="0.0309621"/>
<path d="M15.2511 7.89258C15.2511 7.89258 15.2408 7.9029 15.2305 7.9029" stroke="black" stroke-width="0.0309621"/>
<path d="M15.3027 7.94434C15.2924 7.95466 15.282 7.96498 15.2717 7.96498" stroke="black" stroke-width="0.0309621"/>
<path d="M15.6021 7.96482C15.6227 7.9545 15.633 7.93386 15.6433 7.89258" stroke="black" stroke-width="0.0309621"/>
<path d="M15.4675 7.9545C15.4985 7.94418 15.5191 7.92354 15.5501 7.89258" stroke="black" stroke-width="0.0309621"/>
<path d="M15.7566 7.87247C15.7566 7.85183 15.7566 7.83119 15.7669 7.81055" stroke="black" stroke-width="0.0309621"/>
<path d="M16.5205 7.96551C16.4998 7.94487 16.4998 7.91391 16.5308 7.89327C16.5515 7.88295 16.5618 7.87263 16.5824 7.8623" stroke="black" stroke-width="0.0309621"/>
<path d="M15.891 7.60482C15.7259 7.53257 15.7362 7.43969 15.6021 7.45001" stroke="black" stroke-width="0.0309621"/>
<path d="M16.6233 7.92383C16.6336 7.93415 16.6233 7.96511 16.6233 7.97543" stroke="black" stroke-width="0.0309621"/>
<path d="M16.7166 7.92383C16.7063 7.95479 16.7063 7.96511 16.7063 7.99607" stroke="black" stroke-width="0.0309621"/>
<path d="M15.9219 6.95312H15.8394" stroke="black" stroke-width="0.0309621"/>
<path d="M15.0549 7.30469C15.0549 7.32533 15.0859 7.36661 15.1685 7.36661C15.1581 7.36661 15.1478 7.35629 15.1478 7.35629" stroke="black" stroke-width="0.0309621"/>
<path d="M15.0961 7.1802C15.0858 7.19052 15.0755 7.1802 15.0755 7.1802C15.0548 7.15956 15.0858 7.11828 15.1167 7.09764C15.0858 7.10796 15.0651 7.10796 15.0445 7.10796C15.0239 7.16988 14.9619 7.20084 14.9206 7.15956C14.9103 7.20084 14.8587 7.25245 14.8174 7.24213C14.7762 7.22148 14.7658 7.19052 14.7762 7.15956C14.7246 7.22148 14.6626 7.1802 14.642 7.15956C14.6317 7.13892 14.642 7.08731 14.6626 7.02539" stroke="black" stroke-width="0.0309621"/>
<path d="M15.7567 7.57129C15.7257 7.59193 15.6948 7.57129 15.6638 7.60225C15.6431 7.62289 15.6741 7.63321 15.6948 7.63321C15.6844 7.66418 15.6844 7.6745 15.736 7.6745C15.7154 7.70546 15.7773 7.71578 15.767 7.75706C15.798 7.7261 15.798 7.68482 15.7876 7.65386C15.7773 7.62289 15.7257 7.60225 15.7567 7.57129Z" fill="black"/>
<path d="M14.8171 7.24077C14.7758 7.22013 14.7655 7.18917 14.7758 7.1582C14.7655 7.17884 14.7449 7.18917 14.7242 7.18917C14.683 7.28205 14.6314 7.36462 14.5694 7.36462C14.4972 7.37494 14.5075 7.44718 14.5591 7.44718C14.6726 7.46783 14.7242 7.42654 14.8171 7.24077Z" fill="#073163"/>
<path d="M13.7955 6.99381C13.8265 6.96285 13.8059 6.93189 13.7852 6.92157C13.7543 6.91124 13.6923 6.92157 13.6614 6.97317C13.6923 6.96285 13.7233 6.96285 13.7336 6.98349C13.7439 7.00413 13.7646 7.02477 13.7955 6.99381Z" fill="#073163"/>
<path d="M13.8472 6.80762C13.9194 6.80762 13.9401 6.81794 13.9504 6.8489C13.9607 6.86954 13.9401 6.9005 13.9194 6.9005C13.8885 6.9005 13.8575 6.87986 13.8678 6.86954C13.8781 6.8489 13.8781 6.81794 13.8472 6.80762Z" fill="#073163"/>
<path d="M14.0538 6.97308C14.1054 6.9834 14.126 6.95244 14.0951 6.91115C14.0848 6.88019 14.0538 6.85955 14.0022 6.86987C14.0538 6.90083 14.0022 6.95244 14.0538 6.97308Z" fill="#073163"/>
<path d="M13.6716 7.14846C13.7026 7.20006 13.7542 7.20006 13.7748 7.18974C13.8058 7.17942 13.8161 7.14846 13.8058 7.12781C13.7852 7.09685 13.7542 7.08653 13.7439 7.12781C13.7232 7.1691 13.6923 7.15878 13.6716 7.14846Z" fill="#073163"/>
<path d="M13.8266 7.77706C13.8059 7.73577 13.744 7.73577 13.6924 7.77706C13.713 7.76674 13.7543 7.77706 13.7646 7.7977C13.7749 7.81834 13.7956 7.81834 13.8059 7.81834C13.8162 7.80802 13.8369 7.7977 13.8266 7.77706Z" fill="#073163"/>
<path d="M13.9092 7.71531C13.9092 7.66371 13.8369 7.65339 13.7957 7.67403C13.8163 7.67403 13.8473 7.69467 13.8473 7.71531C13.8576 7.73595 13.8782 7.74627 13.8885 7.74627C13.9092 7.73595 13.9195 7.72563 13.9092 7.71531Z" fill="#073163"/>
<path d="M13.8058 7.90138C13.7439 7.89106 13.7129 7.96331 13.7129 8.01491C13.7232 7.98395 13.7542 7.96331 13.7851 7.97363C13.8161 7.97363 13.8264 7.96331 13.8264 7.94267C13.8367 7.92203 13.8264 7.91171 13.8058 7.90138Z" fill="#073163"/>
<path d="M13.8162 8.07694C13.8368 8.08726 13.8574 8.06662 13.8678 8.03565C13.8678 8.01501 13.909 8.01501 13.9194 8.02533C13.94 8.03565 13.94 8.07694 13.909 8.09758C13.8884 8.1079 13.8368 8.11822 13.8162 8.07694Z" fill="#073163"/>
<path d="M15.2507 7.76831C15.2301 7.75799 15.1785 7.73734 15.1372 7.76831C15.1682 7.75799 15.1888 7.77863 15.1991 7.79927C15.1991 7.81991 15.2301 7.83023 15.2404 7.80959C15.2507 7.79927 15.2611 7.77863 15.2507 7.76831Z" fill="#073163"/>
<path d="M15.1581 7.83868C15.1169 7.81804 15.0653 7.86965 15.0549 7.91093C15.0653 7.90061 15.1065 7.87997 15.1272 7.87997C15.1478 7.89029 15.1685 7.87997 15.1685 7.85933C15.1788 7.849 15.1788 7.83868 15.1581 7.83868Z" fill="#073163"/>
<path d="M15.2095 7.92188C15.1785 7.92188 15.1372 7.96316 15.1372 8.00444C15.1475 7.9838 15.1682 7.97348 15.1888 7.9838C15.2095 7.9838 15.2404 7.97348 15.2404 7.95284C15.2404 7.9322 15.2301 7.92188 15.2095 7.92188Z" fill="#073163"/>
<path d="M15.3024 8.00582C15.2818 7.9955 15.2508 8.00582 15.2508 8.03679C15.2508 8.06775 15.2508 8.09871 15.2405 8.10903C15.2611 8.08839 15.2818 8.07807 15.3024 8.06775C15.3127 8.05743 15.323 8.02646 15.3024 8.00582Z" fill="#073163"/>
<path d="M16.4689 7.91164C16.4482 7.891 16.4173 7.90132 16.4069 7.92196C16.3966 7.9426 16.3863 7.99421 16.4069 8.03549C16.4069 8.01485 16.4276 7.98389 16.4482 7.98389C16.4792 7.97357 16.4895 7.93228 16.4689 7.91164Z" fill="#073163"/>
<path d="M16.5304 7.95375C16.4892 7.97439 16.4892 8.04664 16.5201 8.08792C16.5201 8.06728 16.5304 8.03632 16.5511 8.026C16.582 8.026 16.5924 7.98471 16.582 7.96407C16.5614 7.94343 16.5408 7.95375 16.5304 7.95375Z" fill="#073163"/>
<path d="M16.6543 7.99396C16.6337 7.98364 16.613 8.00428 16.613 8.02492C16.6027 8.05588 16.6234 8.09716 16.6543 8.11781C16.6543 8.09716 16.6646 8.07652 16.675 8.0662C16.7059 8.04556 16.6956 8.00428 16.6543 7.99396Z" fill="#073163"/>
<path d="M16.7472 7.9834C16.7266 7.9834 16.7059 8.01436 16.7266 8.04532C16.7369 8.06596 16.7575 8.07628 16.7988 8.06596C16.7885 8.06596 16.7679 8.035 16.7782 8.02468C16.7885 8.00404 16.7782 7.9834 16.7472 7.9834Z" fill="#073163"/>
<path d="M13.8785 9.91361L14.3946 8.32422L14.9106 9.91361L13.5586 8.93314H15.2306L13.8785 9.91361Z" fill="#F9D050"/>
<path d="M13.9818 9.76889L15.0552 8.98452H13.7341L14.7972 9.76889L14.3947 8.50977L13.9818 9.76889Z" fill="#024919"/>
<path d="M15.819 9.91361L16.335 8.32422L16.851 9.91361L15.499 8.93314H17.171L15.819 9.91361Z" fill="#F9D050"/>
<path d="M15.9223 9.76889L16.9956 8.98452H15.6746L16.7376 9.76889L16.3351 8.50977L15.9223 9.76889Z" fill="#024919"/>
<path d="M14.8487 11.0396L15.3648 9.4502L15.8808 11.0396L14.5288 10.0591H16.2008L14.8487 11.0396Z" fill="#F9D050"/>
<path d="M14.9518 10.8939L16.0252 10.1095H14.7041L15.7671 10.8939L15.3646 9.63477L14.9518 10.8939Z" fill="#024919"/>
<path d="M17.2948 6.67383V8.68637C17.2948 10.4306 16.4692 11.0292 15.3649 11.5039C14.2605 11.0292 13.4246 10.4306 13.4246 8.68637V6.67383H17.2948Z" stroke="black" stroke-width="0.0309621"/>
<path d="M12.8469 10.4714L12.7669 10.5139C12.7498 10.5229 12.7423 10.5204 12.728 10.5002L12.7193 10.5048L12.7729 10.6059L12.7816 10.6013C12.7734 10.5782 12.7754 10.5711 12.7924 10.562L12.9608 10.4727C12.9782 10.4635 12.9869 10.4665 12.9994 10.4858L13.0081 10.4811L12.9545 10.3801L12.9458 10.3847C12.9551 10.4064 12.9527 10.4153 12.9353 10.4245L12.8632 10.4627L12.8252 10.3911L12.8973 10.3529C12.9146 10.3436 12.9234 10.3466 12.9361 10.3665L12.9448 10.3619L12.8917 10.2617L12.883 10.2663C12.8915 10.2874 12.8891 10.2955 12.8717 10.3047L12.7033 10.394C12.6863 10.4031 12.6794 10.401 12.6652 10.3819L12.6565 10.3865L12.7096 10.4867L12.7183 10.4821C12.7096 10.4589 12.7118 10.4512 12.7288 10.4422L12.8089 10.3998L12.8469 10.4714Z" fill="#00493D"/>
<path d="M12.871 10.7433C12.8592 10.7253 12.8599 10.7172 12.874 10.7078L12.9536 10.6553C12.9738 10.6859 12.9686 10.7059 12.9327 10.7344L12.9375 10.7418L13.0486 10.6684L13.0438 10.6611C13.0042 10.6812 12.985 10.6785 12.9655 10.649L12.9647 10.6479L13.041 10.5976C13.0535 10.5893 13.0588 10.591 13.0685 10.6056C13.0987 10.6514 13.0966 10.6725 13.0576 10.7084L13.0622 10.7154L13.1283 10.6718L13.0212 10.5098L13.013 10.5152C13.0245 10.5354 13.0227 10.5442 13.006 10.5553L12.8469 10.6604C12.8299 10.6717 12.8236 10.6702 12.8073 10.6511L12.7991 10.6565L12.9076 10.8208L12.9834 10.7869L12.9782 10.779C12.9354 10.7879 12.9004 10.7877 12.871 10.7433Z" fill="#00493D"/>
<path d="M13.2178 10.9984L13.1508 11.0595C13.1366 11.0725 13.1287 11.072 13.1098 11.056L13.1025 11.0626L13.1796 11.1471L13.1869 11.1405C13.1732 11.1202 13.1733 11.1128 13.1876 11.0998L13.3284 10.9713C13.343 10.958 13.3521 10.9587 13.369 10.9743L13.3763 10.9676L13.2992 10.8831L13.2919 10.8898C13.3063 10.9085 13.3062 10.9177 13.2917 10.931L13.2314 10.9859L13.1768 10.926L13.237 10.8711C13.2515 10.8578 13.2607 10.8585 13.2781 10.8746L13.2853 10.868L13.2089 10.7842L13.2016 10.7908C13.2151 10.8091 13.2148 10.8175 13.2002 10.8308L13.0594 10.9593C13.0452 10.9723 13.038 10.972 13.0195 10.957L13.0122 10.9637L13.0887 11.0474L13.0959 11.0408C13.0817 11.0205 13.0819 11.0126 13.0962 10.9996L13.1631 10.9385L13.2178 10.9984Z" fill="#00493D"/>
<path d="M13.376 11.3183L13.375 11.3174C13.3655 11.3084 13.3673 11.2987 13.387 11.2534L13.4751 11.0514L13.4683 11.0449L13.2655 11.1501C13.2311 11.1679 13.2241 11.1694 13.2099 11.1609L13.2031 11.168L13.2527 11.215L13.2595 11.2079C13.2462 11.1931 13.2435 11.1846 13.2506 11.1772C13.2541 11.1735 13.2628 11.1682 13.2826 11.1576L13.2968 11.1499L13.3518 11.202C13.3389 11.2322 13.3321 11.2453 13.3261 11.2516C13.3204 11.2576 13.3146 11.2574 13.3055 11.2499C13.3043 11.2487 13.3008 11.246 13.2968 11.2433L13.2901 11.2505L13.3692 11.3255L13.376 11.3183ZM13.311 11.1423L13.3998 11.0946L13.3587 11.1874L13.311 11.1423Z" fill="#00493D"/>
<path d="M13.4493 11.328C13.4307 11.3505 13.4251 11.3515 13.401 11.3352L13.3948 11.3428L13.4874 11.4193L13.4937 11.4117C13.4726 11.3912 13.4723 11.3858 13.4913 11.3627L13.6235 11.2027C13.6544 11.2303 13.6564 11.2554 13.6309 11.2952L13.6385 11.3014L13.6884 11.2399L13.5327 11.1113L13.4815 11.1717L13.489 11.1779C13.5233 11.1454 13.5483 11.1426 13.5815 11.168L13.4493 11.328Z" fill="#00493D"/>
<path d="M13.7495 11.4604L13.697 11.5343C13.6859 11.55 13.678 11.5512 13.6561 11.5395L13.6504 11.5475L13.7437 11.6138L13.7494 11.6058C13.7317 11.5889 13.7303 11.5816 13.7415 11.5659L13.8519 11.4105C13.8633 11.3944 13.8725 11.3932 13.8923 11.4049L13.898 11.3968L13.8047 11.3305L13.799 11.3386C13.8171 11.3538 13.8189 11.3629 13.8075 11.3789L13.7602 11.4454L13.6941 11.3984L13.7414 11.3319C13.7528 11.3159 13.7619 11.3146 13.7823 11.3267L13.788 11.3186L13.6955 11.2529L13.6898 11.261C13.7068 11.2759 13.7083 11.2843 13.6969 11.3003L13.5865 11.4557C13.5753 11.4714 13.5682 11.4727 13.547 11.4619L13.5413 11.4699L13.6337 11.5356L13.6394 11.5276C13.6212 11.5108 13.6197 11.503 13.6309 11.4873L13.6834 11.4134L13.7495 11.4604Z" fill="#00493D"/>
<path d="M14.1262 11.6118L14.1333 11.6156L14.1705 11.5457L14.002 11.4561L13.9974 11.4647C14.0172 11.477 14.02 11.4853 14.0104 11.5033L13.9209 11.6716C13.9112 11.6897 13.905 11.6913 13.8816 11.6824L13.877 11.6911L13.9839 11.748L13.9885 11.7393C13.9619 11.7234 13.9588 11.7164 13.969 11.6972L14.0121 11.6162C14.042 11.6331 14.0462 11.6518 14.0289 11.6943L14.0363 11.6983L14.0989 11.5808L14.0914 11.5768C14.065 11.6136 14.0481 11.6202 14.0184 11.6044L14.0613 11.5237C14.0682 11.5109 14.0739 11.5095 14.089 11.5175C14.147 11.5484 14.1371 11.577 14.1262 11.6118Z" fill="#00493D"/>
<path d="M14.2759 11.5826C14.2105 11.5567 14.1424 11.5923 14.1121 11.6685C14.082 11.7442 14.1066 11.8163 14.1714 11.842C14.2361 11.8677 14.3036 11.8318 14.3337 11.7561C14.3634 11.6814 14.3387 11.6076 14.2759 11.5826ZM14.2707 11.5946C14.3051 11.6083 14.3076 11.6605 14.2773 11.7366C14.2475 11.8117 14.2121 11.8442 14.1762 11.8299C14.1402 11.8157 14.1368 11.7677 14.1662 11.6937C14.1976 11.6147 14.2341 11.5801 14.2707 11.5946Z" fill="#00493D"/>
<path d="M14.4679 11.6821L14.4713 11.6729L14.3644 11.6338L14.361 11.643C14.3822 11.6537 14.3843 11.6599 14.3745 11.6865L14.3293 11.8101C14.316 11.8463 14.316 11.8669 14.3293 11.8902C14.3398 11.9087 14.3576 11.9228 14.3806 11.9312C14.4416 11.9535 14.4776 11.9189 14.4982 11.8627L14.5414 11.7447C14.5494 11.7229 14.556 11.7186 14.5775 11.7223L14.5809 11.713L14.5114 11.6876L14.508 11.6968C14.5319 11.7081 14.5355 11.7178 14.5256 11.7448L14.4843 11.8576C14.4642 11.9123 14.4372 11.9314 14.3996 11.9176C14.3674 11.9058 14.3611 11.8788 14.3795 11.8285L14.4248 11.7049C14.4355 11.6757 14.4431 11.6743 14.4679 11.6821Z" fill="#00493D"/>
<path d="M14.6535 11.7304L14.5847 11.7129L14.5823 11.7224C14.5888 11.7241 14.5929 11.7312 14.603 11.757L14.557 11.9379C14.5514 11.9596 14.5452 11.9637 14.5205 11.9611L14.5181 11.9707L14.5921 11.9895L14.5945 11.98C14.5703 11.9701 14.5663 11.9614 14.5732 11.9343L14.6122 11.7808L14.7052 12.0256L14.7143 12.0279L14.7715 11.8031C14.777 11.7813 14.7825 11.7774 14.8047 11.779L14.8071 11.7695L14.737 11.7516L14.7346 11.7612C14.758 11.77 14.7622 11.7796 14.7553 11.8067L14.7257 11.9231L14.6535 11.7304Z" fill="#00493D"/>
<path d="M14.7952 12.0062C14.7922 12.0232 14.7826 12.0295 14.7632 12.0269L14.7615 12.0366L14.8662 12.0551C14.9378 12.0678 14.995 12.0228 15.0092 11.9425C15.0234 11.8626 14.9856 11.8059 14.909 11.7923L14.808 11.7744L14.8062 11.7841C14.827 11.7902 14.8323 11.7971 14.8291 11.815L14.7952 12.0062ZM14.9505 11.9381C14.9346 12.0281 14.8988 12.0469 14.8643 12.0408C14.8494 12.0382 14.846 12.0324 14.8491 12.0149L14.8844 11.8156C14.886 11.8067 14.8934 11.8032 14.9064 11.8055C14.9362 11.8108 14.9674 11.8427 14.9505 11.9381Z" fill="#00493D"/>
<path d="M15.0993 12.0698C15.0778 12.0681 15.0718 12.0625 15.0732 12.0456L15.0808 11.9506C15.1174 11.9535 15.1299 11.9699 15.1303 12.0158L15.139 12.0165L15.1497 11.8838L15.1409 11.8831C15.1324 11.9267 15.1185 11.9402 15.0832 11.9373L15.0819 11.9372L15.0892 11.8462C15.0904 11.8312 15.0951 11.8281 15.1125 11.8295C15.1672 11.8339 15.1826 11.8485 15.1867 11.9014L15.1951 11.9021L15.2015 11.8232L15.0079 11.8076L15.0071 11.8174C15.0301 11.8209 15.036 11.8277 15.0344 11.8477L15.0191 12.0377C15.0175 12.0581 15.0124 12.062 14.9874 12.0632L14.9866 12.073L15.1828 12.0888L15.2028 12.0082L15.1934 12.0074C15.1741 12.0466 15.1523 12.0741 15.0993 12.0698Z" fill="#00493D"/>
<path d="M15.2304 12.0597C15.2295 12.077 15.2207 12.0844 15.2012 12.0842L15.2007 12.094L15.3069 12.0995C15.3795 12.1032 15.4307 12.0514 15.4348 11.9699C15.439 11.8889 15.3944 11.8373 15.3168 11.8334L15.2143 11.8281L15.2138 11.838C15.2352 11.8414 15.2412 11.8476 15.2403 11.8657L15.2304 12.0597ZM15.376 11.9728C15.3714 12.0641 15.3382 12.0872 15.3032 12.0855C15.2881 12.0847 15.284 12.0794 15.2849 12.0617L15.2952 11.8595C15.2957 11.8504 15.3027 11.8461 15.3158 11.8467C15.346 11.8483 15.381 11.8761 15.376 11.9728Z" fill="#00493D"/>
<path d="M15.6197 12.0587C15.6222 12.0782 15.6169 12.0845 15.5922 12.0903L15.5934 12.1001L15.7103 12.0855L15.709 12.0757C15.6834 12.0769 15.6764 12.0722 15.6738 12.0519L15.6502 11.8628C15.6476 11.8425 15.6538 11.8353 15.6784 11.8311L15.6772 11.8213L15.5603 11.8359L15.5615 11.8457C15.5858 11.8446 15.5936 11.8496 15.5961 11.8696L15.6197 12.0587Z" fill="#00493D"/>
<path d="M15.8011 12.0249C15.8061 12.0537 15.8031 12.0586 15.7751 12.0662L15.7768 12.0759L15.8952 12.0554L15.8935 12.0457C15.8642 12.0484 15.8599 12.0451 15.8548 12.0156L15.8194 11.8111C15.8605 11.8056 15.8808 11.8205 15.8944 11.8657L15.9041 11.864L15.8899 11.7861L15.6909 11.8206L15.7034 11.8987L15.713 11.8971C15.7107 11.8499 15.7248 11.8291 15.7657 11.8204L15.8011 12.0249Z" fill="#00493D"/>
<path d="M16.0817 11.7443L16.0789 11.7349L15.9697 11.7668L15.9725 11.7762C15.9959 11.7723 16.0012 11.7761 16.0091 11.8033L16.046 11.9295C16.0568 11.9666 16.069 11.9831 16.0936 11.994C16.113 12.0027 16.1356 12.0035 16.1592 11.9966C16.2216 11.9784 16.23 11.9292 16.2132 11.8717L16.178 11.7511C16.1715 11.7288 16.1742 11.7214 16.1938 11.7116L16.191 11.7021L16.12 11.7229L16.1227 11.7324C16.1486 11.7273 16.1572 11.7329 16.1653 11.7605L16.199 11.8758C16.2153 11.9318 16.2048 11.9632 16.1664 11.9744C16.1334 11.984 16.1124 11.966 16.0974 11.9145L16.0605 11.7883C16.0518 11.7584 16.0571 11.7527 16.0817 11.7443Z" fill="#00493D"/>
<path d="M16.3344 11.803C16.3767 11.7865 16.387 11.7814 16.3983 11.7695C16.4195 11.7484 16.4248 11.7207 16.414 11.6923C16.3978 11.6496 16.3587 11.6367 16.3061 11.6566L16.2048 11.6951L16.2083 11.7043C16.2312 11.6981 16.2378 11.7024 16.2476 11.7281L16.3094 11.8909C16.3181 11.9137 16.3168 11.9226 16.3028 11.9305C16.3019 11.9308 16.299 11.9327 16.2959 11.9348L16.2994 11.944L16.4044 11.9041L16.4009 11.8949C16.3747 11.9006 16.3706 11.8984 16.3604 11.8715L16.3344 11.803ZM16.3295 11.7902L16.292 11.6915C16.2888 11.683 16.2925 11.6766 16.3029 11.6726C16.329 11.6627 16.3455 11.675 16.3606 11.7147C16.3778 11.76 16.3698 11.7749 16.3295 11.7902Z" fill="#00493D"/>
<path d="M16.5025 11.5747C16.4368 11.5999 16.4109 11.6723 16.4402 11.7488C16.4694 11.8249 16.5364 11.8612 16.6014 11.8363C16.6665 11.8113 16.6918 11.7392 16.6625 11.663C16.6338 11.588 16.5656 11.5505 16.5025 11.5747ZM16.5068 11.587C16.5414 11.5737 16.5786 11.6105 16.6079 11.687C16.6368 11.7623 16.6329 11.8103 16.5967 11.8241C16.5606 11.838 16.5256 11.805 16.4971 11.7307C16.4666 11.6513 16.47 11.6011 16.5068 11.587Z" fill="#00493D"/>
<path d="M16.6514 11.5065L16.5879 11.5384L16.5923 11.5472C16.5983 11.5441 16.6061 11.5469 16.6306 11.5597L16.7142 11.7266C16.7242 11.7467 16.7222 11.7539 16.7018 11.768L16.7062 11.7769L16.7745 11.7426L16.7701 11.7338C16.7454 11.7423 16.7366 11.7383 16.7241 11.7133L16.6532 11.5717L16.8836 11.6959L16.8921 11.6917L16.7882 11.4843C16.7781 11.4642 16.7797 11.4577 16.7975 11.4444L16.7931 11.4355L16.7284 11.468L16.7328 11.4768C16.7563 11.4681 16.7658 11.4726 16.7783 11.4976L16.8321 11.605L16.6514 11.5065Z" fill="#00493D"/>
<path d="M17.067 11.5139C17.0844 11.5373 17.084 11.543 17.0624 11.5625L17.0683 11.5704L17.1647 11.4987L17.1588 11.4908C17.1339 11.5064 17.1286 11.5054 17.1107 11.4814L16.9869 11.3148C17.021 11.2914 17.0459 11.2955 17.0785 11.3297L17.0863 11.3239L17.0385 11.2607L16.8765 11.3812L16.9229 11.4454L16.9307 11.4395C16.9073 11.3985 16.9106 11.3735 16.9431 11.3474L17.067 11.5139Z" fill="#00493D"/>
<path d="M17.2637 11.2556L17.3213 11.3256C17.3336 11.3405 17.3326 11.3484 17.3157 11.3664L17.3219 11.374L17.4103 11.3013L17.404 11.2937C17.3831 11.3064 17.3757 11.3058 17.3634 11.2909L17.2423 11.1437C17.2298 11.1285 17.231 11.1194 17.2474 11.1033L17.2411 11.0957L17.1528 11.1684L17.159 11.176C17.1785 11.1626 17.1877 11.1632 17.2002 11.1784L17.252 11.2413L17.1893 11.2929L17.1375 11.2299C17.125 11.2147 17.1262 11.2056 17.1432 11.1891L17.1369 11.1815L17.0493 11.2535L17.0556 11.2611C17.0745 11.2486 17.0829 11.2493 17.0954 11.2645L17.2166 11.4117C17.2288 11.4266 17.2282 11.4338 17.2122 11.4515L17.2185 11.4591L17.3061 11.3871L17.2998 11.3794C17.2788 11.3926 17.2709 11.392 17.2587 11.3771L17.2011 11.3071L17.2637 11.2556Z" fill="#00493D"/>
<path d="M17.5065 11.1948C17.4909 11.2097 17.4827 11.2104 17.471 11.1981L17.4054 11.129C17.432 11.1037 17.4526 11.1053 17.487 11.1357L17.4933 11.1297L17.4016 11.0331L17.3953 11.0392C17.422 11.0746 17.4228 11.094 17.3971 11.1183L17.3962 11.1193L17.3332 11.053C17.3229 11.0422 17.3236 11.0366 17.3363 11.0245C17.3761 10.9868 17.3973 10.9851 17.4395 11.0173L17.4456 11.0115L17.391 10.9541L17.2502 11.0879L17.257 11.095C17.2749 11.0801 17.2839 11.0803 17.2978 11.0949L17.4291 11.2331C17.4432 11.2479 17.4427 11.2543 17.4269 11.2738L17.4336 11.2809L17.5764 11.1453L17.5297 11.0766L17.5229 11.0831C17.5391 11.1236 17.545 11.1582 17.5065 11.1948L17.5065 11.1948Z" fill="#00493D"/>
<path d="M17.5161 10.7997C17.4869 10.835 17.4925 10.8758 17.5307 10.9075C17.5574 10.9296 17.5876 10.9319 17.6305 10.9154L17.6546 10.9061C17.6862 10.8938 17.6992 10.8941 17.715 10.9072C17.7359 10.9245 17.7391 10.9486 17.7225 10.9685C17.6897 11.0082 17.633 10.9778 17.6138 10.9676L17.6076 10.9751L17.6825 11.0372L17.6888 11.0297C17.6825 11.0218 17.6814 11.0175 17.6849 11.0134C17.6922 11.0045 17.7119 11.0017 17.7319 10.9776C17.7637 10.9392 17.7594 10.8919 17.7211 10.8603C17.6984 10.8414 17.6658 10.8345 17.6423 10.8431L17.5886 10.8628C17.5591 10.8738 17.5468 10.8732 17.5322 10.8611C17.5134 10.8456 17.5109 10.8251 17.5255 10.8075C17.5418 10.7878 17.5736 10.7809 17.6231 10.804L17.6291 10.7967L17.5633 10.7422L17.5568 10.75C17.5632 10.7583 17.5639 10.7624 17.5603 10.7668C17.5543 10.7741 17.5339 10.7782 17.5161 10.7997Z" fill="#00493D"/>
<path d="M17.8518 10.7802C17.8393 10.7977 17.8314 10.7999 17.8176 10.7901L17.7402 10.7345C17.7616 10.7047 17.7821 10.7024 17.8216 10.7258L17.8267 10.7187L17.7185 10.6411L17.7134 10.6482C17.7463 10.678 17.7507 10.6969 17.7301 10.7256L17.7293 10.7267L17.655 10.6735C17.6429 10.6647 17.6426 10.6591 17.6528 10.6449C17.6847 10.6003 17.7052 10.5947 17.7527 10.6184L17.7576 10.6116L17.6933 10.5654L17.5801 10.7232L17.5881 10.729C17.6029 10.711 17.6117 10.7095 17.6281 10.7212L17.783 10.8323C17.7996 10.8442 17.8004 10.8506 17.7884 10.8727L17.7964 10.8784L17.9112 10.7184L17.8525 10.6597L17.847 10.6674C17.8705 10.7042 17.8828 10.737 17.8518 10.7802Z" fill="#00493D"/>
<path d="M18.0189 10.4897L18.0183 10.4909C18.0122 10.5025 18.0024 10.5035 17.9534 10.4967L17.7351 10.4668L17.7307 10.4751L17.887 10.6417C17.9135 10.67 17.9168 10.6764 17.9125 10.6923L17.9212 10.6969L17.953 10.6364L17.9442 10.6318C17.9336 10.6487 17.9262 10.6535 17.9171 10.6488C17.9126 10.6464 17.9051 10.6394 17.8896 10.6233L17.8783 10.6116L17.9136 10.5446C17.9461 10.5488 17.9605 10.5518 17.9682 10.5558C17.9755 10.5597 17.9769 10.5654 17.9722 10.5762C17.9714 10.5777 17.9697 10.5817 17.9682 10.5863L17.9769 10.5908L18.0276 10.4943L18.0189 10.4897ZM17.8671 10.6L17.7971 10.5275L17.8976 10.5419L17.8671 10.6Z" fill="#00493D"/>
<path d="M17.8147 10.3053C17.7973 10.3476 17.8147 10.385 17.8607 10.4038C17.8928 10.417 17.9224 10.4102 17.9583 10.3817L17.9786 10.3656C18.0051 10.3445 18.0177 10.3409 18.0366 10.3487C18.0617 10.359 18.0719 10.381 18.062 10.4049C18.0425 10.4526 17.9793 10.4405 17.958 10.4365L17.9543 10.4455L18.0443 10.4824L18.048 10.4734C18.0397 10.4678 18.0374 10.4639 18.0395 10.459C18.0438 10.4484 18.0618 10.4398 18.0737 10.4108C18.0926 10.3647 18.0744 10.3209 18.0285 10.302C18.0011 10.2908 17.9679 10.2939 17.9481 10.3091L17.9027 10.3439C17.8778 10.3632 17.8659 10.3663 17.8484 10.3591C17.8258 10.3499 17.8173 10.3311 17.826 10.3099C17.8357 10.2863 17.864 10.2702 17.9181 10.2775L17.9217 10.2688L17.8426 10.2363L17.8388 10.2457C17.8473 10.2517 17.8492 10.2554 17.8471 10.2607C17.8435 10.2694 17.8253 10.2794 17.8147 10.3053Z" fill="#00493D"/>
<defs>
<clipPath id="clip0_149_435">
<path d="M0 1.6C0 0.716345 0.716345 0 1.6 0H11.2V6.4C11.2 7.28366 10.4837 8 9.6 8H0V1.6Z" fill="white"/>
</clipPath>
</defs>
</svg>
