<svg width="21" height="15" viewBox="0 0 21 15" fill="none" xmlns="http://www.w3.org/2000/svg">
<g clip-path="url(#clip0_149_1043)">
<path d="M0 0H21V15H0V0Z" fill="#0F7562"/>
<mask id="mask0_149_1043" style="mask-type:luminance" maskUnits="userSpaceOnUse" x="8" y="6" width="5" height="4">
<path d="M8.8667 6.79785H12.1334V9.92285H8.8667V6.79785Z" fill="white"/>
</mask>
<g mask="url(#mask0_149_1043)">
<path d="M8.97601 9.27832C10.2828 9.27832 11.3422 8.14329 11.3422 6.74316C11.3422 5.34304 10.2828 4.20801 8.97601 4.20801C7.66922 4.20801 6.60986 5.34304 6.60986 6.74316C6.60986 8.14329 7.66922 9.27832 8.97601 9.27832Z" fill="white"/>
<path d="M12.0241 9.27832C13.3309 9.27832 14.3903 8.14329 14.3903 6.74316C14.3903 5.34304 13.3309 4.20801 12.0241 4.20801C10.7173 4.20801 9.65796 5.34304 9.65796 6.74316C9.65796 8.14329 10.7173 9.27832 12.0241 9.27832Z" fill="white"/>
</g>
<path d="M12.1332 9.02832C13.44 9.02832 14.4994 7.89329 14.4994 6.49316C14.4994 5.09304 13.44 3.95801 12.1332 3.95801C10.8264 3.95801 9.76709 5.09304 9.76709 6.49316C9.76709 7.89329 10.8264 9.02832 12.1332 9.02832Z" fill="#0F7562"/>
<path d="M8.86663 9.02832C10.1734 9.02832 11.2328 7.89329 11.2328 6.49316C11.2328 5.09304 10.1734 3.95801 8.86663 3.95801C7.55985 3.95801 6.50049 5.09304 6.50049 6.49316C6.50049 7.89329 7.55985 9.02832 8.86663 9.02832Z" fill="#0F7562"/>
<mask id="mask1_149_1043" style="mask-type:luminance" maskUnits="userSpaceOnUse" x="6" y="2" width="9" height="9">
<path d="M10.4998 11C12.8194 11 14.6998 8.98528 14.6998 6.5C14.6998 4.01472 12.8194 2 10.4998 2C8.18021 2 6.2998 4.01472 6.2998 6.5C6.2998 8.98528 8.18021 11 10.4998 11Z" fill="white"/>
</mask>
<g mask="url(#mask1_149_1043)">
<path d="M6.85425 9.02734H8.97612V9.27734H6.85425V9.02734ZM6.85425 9.53516H14.1459V9.66016H6.85425V9.53516ZM6.85425 9.91797H14.1459V10.1133H6.85425V9.91797ZM6.85425 10.3086H14.1459V10.5586H6.85425V10.3086ZM6.85425 10.6836H14.1459V11.0742H6.85425V10.6836ZM14.1459 9.02734H12.024V9.27734H14.1459V9.02734Z" fill="white"/>
</g>
<mask id="mask2_149_1043" style="mask-type:luminance" maskUnits="userSpaceOnUse" x="6" y="3" width="6" height="6">
<path d="M9.34808 8.16992C10.6549 8.16992 11.7142 7.03489 11.7142 5.63477C11.7142 4.23464 10.6549 3.09961 9.34808 3.09961C8.04129 3.09961 6.98193 4.23464 6.98193 5.63477C6.98193 7.03489 8.04129 8.16992 9.34808 8.16992Z" fill="white"/>
</mask>
<g mask="url(#mask2_149_1043)">
<path d="M11.652 8.16992C12.9588 8.16992 14.0182 7.03489 14.0182 5.63477C14.0182 4.23464 12.9588 3.09961 11.652 3.09961C10.3452 3.09961 9.28589 4.23464 9.28589 5.63477C9.28589 7.03489 10.3452 8.16992 11.652 8.16992Z" fill="white"/>
</g>
<mask id="mask3_149_1043" style="mask-type:luminance" maskUnits="userSpaceOnUse" x="6" y="3" width="6" height="6">
<path d="M9.04901 8.41113C10.3558 8.41113 11.4152 7.2761 11.4152 5.87598C11.4152 4.47585 10.3558 3.34082 9.04901 3.34082C7.74222 3.34082 6.68286 4.47585 6.68286 5.87598C6.68286 7.2761 7.74222 8.41113 9.04901 8.41113Z" fill="white"/>
</mask>
<g mask="url(#mask3_149_1043)">
<path d="M11.9511 8.41113C13.2579 8.41113 14.3173 7.2761 14.3173 5.87598C14.3173 4.47585 13.2579 3.34082 11.9511 3.34082C10.6443 3.34082 9.58496 4.47585 9.58496 5.87598C9.58496 7.2761 10.6443 8.41113 11.9511 8.41113Z" fill="#0F7562"/>
</g>
<path d="M10.4999 5.11035C11.0234 5.11035 11.4478 4.65564 11.4478 4.09473C11.4478 3.53381 11.0234 3.0791 10.4999 3.0791C9.9764 3.0791 9.552 3.53381 9.552 4.09473C9.552 4.65564 9.9764 5.11035 10.4999 5.11035Z" fill="#0F7562"/>
<mask id="mask4_149_1043" style="mask-type:luminance" maskUnits="userSpaceOnUse" x="6" y="3" width="6" height="6">
<path d="M8.95404 8.55273C10.2608 8.55273 11.3202 7.41771 11.3202 6.01758C11.3202 4.61745 10.2608 3.48242 8.95404 3.48242C7.64725 3.48242 6.58789 4.61745 6.58789 6.01758C6.58789 7.41771 7.64725 8.55273 8.95404 8.55273Z" fill="white"/>
</mask>
<g mask="url(#mask4_149_1043)">
<path d="M12.0458 8.55273C13.3526 8.55273 14.412 7.41771 14.412 6.01758C14.412 4.61745 13.3526 3.48242 12.0458 3.48242C10.739 3.48242 9.67969 4.61745 9.67969 6.01758C9.67969 7.41771 10.739 8.55273 12.0458 8.55273Z" fill="white"/>
</g>
<mask id="mask5_149_1043" style="mask-type:luminance" maskUnits="userSpaceOnUse" x="6" y="3" width="6" height="6">
<path d="M8.79388 8.83301C10.1007 8.83301 11.16 7.69798 11.16 6.29785C11.16 4.89772 10.1007 3.7627 8.79388 3.7627C7.48709 3.7627 6.42773 4.89772 6.42773 6.29785C6.42773 7.69798 7.48709 8.83301 8.79388 8.83301Z" fill="white"/>
</mask>
<g mask="url(#mask5_149_1043)">
<path d="M7.73636 12.1768C9.27269 12.1768 10.5181 10.8424 10.5181 9.19629C10.5181 7.55022 9.27269 6.21582 7.73636 6.21582C6.20003 6.21582 4.95459 7.55022 4.95459 9.19629C4.95459 10.8424 6.20003 12.1768 7.73636 12.1768Z" fill="white"/>
</g>
<mask id="mask6_149_1043" style="mask-type:luminance" maskUnits="userSpaceOnUse" x="6" y="3" width="6" height="6">
<path d="M8.94671 8.62012C10.2535 8.62012 11.3129 7.48509 11.3129 6.08496C11.3129 4.68483 10.2535 3.5498 8.94671 3.5498C7.63993 3.5498 6.58057 4.68483 6.58057 6.08496C6.58057 7.48509 7.63993 8.62012 8.94671 8.62012Z" fill="white"/>
</mask>
<g mask="url(#mask6_149_1043)">
<path d="M7.80203 12.457C9.33836 12.457 10.5838 11.1226 10.5838 9.47656C10.5838 7.83049 9.33836 6.49609 7.80203 6.49609C6.2657 6.49609 5.02026 7.83049 5.02026 9.47656C5.02026 11.1226 6.2657 12.457 7.80203 12.457Z" fill="#0F7562"/>
</g>
<path d="M6.96354 7.97656C7.48706 7.97656 7.91146 7.52185 7.91146 6.96094C7.91146 6.40002 7.48706 5.94531 6.96354 5.94531C6.44002 5.94531 6.01562 6.40002 6.01562 6.96094C6.01562 7.52185 6.44002 7.97656 6.96354 7.97656Z" fill="#0F7562"/>
<mask id="mask7_149_1043" style="mask-type:luminance" maskUnits="userSpaceOnUse" x="6" y="3" width="6" height="6">
<path d="M8.79388 8.83301C10.1007 8.83301 11.16 7.69798 11.16 6.29785C11.16 4.89772 10.1007 3.7627 8.79388 3.7627C7.48709 3.7627 6.42773 4.89772 6.42773 6.29785C6.42773 7.69798 7.48709 8.83301 8.79388 8.83301Z" fill="white"/>
</mask>
<g mask="url(#mask7_149_1043)">
<mask id="mask8_149_1043" style="mask-type:luminance" maskUnits="userSpaceOnUse" x="6" y="3" width="6" height="6">
<path d="M9.17303 8.58203C10.4798 8.58203 11.5392 7.447 11.5392 6.04688C11.5392 4.64675 10.4798 3.51172 9.17303 3.51172C7.86624 3.51172 6.80688 4.64675 6.80688 6.04688C6.80688 7.447 7.86624 8.58203 9.17303 8.58203Z" fill="white"/>
</mask>
<g mask="url(#mask8_149_1043)">
<path d="M8.02835 12.6836C9.56468 12.6836 10.8101 11.3492 10.8101 9.70312C10.8101 8.05706 9.56468 6.72266 8.02835 6.72266C6.49202 6.72266 5.24658 8.05706 5.24658 9.70312C5.24658 11.3492 6.49202 12.6836 8.02835 12.6836Z" fill="white"/>
</g>
<path d="M9.771 7.1875L10.2085 7.57812H10.5731V8.35938H10.1356L9.771 7.1875Z" fill="white"/>
</g>
<path d="M10.5002 6.79688L10.4979 6.80457L10.5017 6.8059L10.5002 6.79688Z" fill="#FFDE23"/>
<path d="M10.5002 6.79688L10.5026 6.80457L10.4988 6.8059L10.5002 6.79688Z" fill="#FFDE23"/>
<path d="M10.4998 6.79688L10.4918 6.79701L10.4917 6.80108L10.4998 6.79688Z" fill="#FFDE23"/>
<path d="M10.5 6.79688L10.4936 6.8019L10.4914 6.7986L10.5 6.79688Z" fill="#FFDE23"/>
<path d="M10.4995 6.79688L10.5057 6.79204L10.5034 6.78865L10.4995 6.79688Z" fill="#FFDE23"/>
<path d="M10.4995 6.79688L10.5019 6.78902L10.5056 6.79033L10.4995 6.79688Z" fill="#FFDE23"/>
<path d="M10.4995 6.7959L10.4972 6.78809L10.4935 6.78944L10.4995 6.7959Z" fill="#FFDE23"/>
<path d="M10.4995 6.79688L10.4933 6.7921L10.4957 6.78868L10.4995 6.79688Z" fill="#FFDE23"/>
<path d="M10.5 6.7959L10.5063 6.80079L10.5086 6.79743L10.5 6.7959Z" fill="#FFDE23"/>
<path d="M10.5 6.7959L10.5079 6.79588L10.5079 6.79999L10.5 6.7959Z" fill="#FFDE23"/>
<path d="M10.5002 6.79688L10.4979 6.80457L10.5017 6.8059L10.5002 6.79688Z" fill="#FFDE23"/>
<path d="M10.5002 6.79688L10.5026 6.80457L10.4988 6.8059L10.5002 6.79688Z" fill="#FFDE23"/>
<path d="M10.4998 6.79688L10.4918 6.79701L10.4917 6.80108L10.4998 6.79688Z" fill="#FFDE23"/>
<path d="M10.5 6.79688L10.4936 6.8019L10.4914 6.7986L10.5 6.79688Z" fill="#FFDE23"/>
<path d="M10.4995 6.79688L10.5057 6.79204L10.5034 6.78865L10.4995 6.79688Z" fill="#FFDE23"/>
<path d="M10.4995 6.79688L10.5019 6.78902L10.5056 6.79033L10.4995 6.79688Z" fill="#FFDE23"/>
<path d="M10.4995 6.7959L10.4972 6.78809L10.4935 6.78944L10.4995 6.7959Z" fill="#FFDE23"/>
<path d="M10.4995 6.79688L10.4933 6.7921L10.4957 6.78868L10.4995 6.79688Z" fill="#FFDE23"/>
<path d="M10.5 6.7959L10.5063 6.80079L10.5086 6.79743L10.5 6.7959Z" fill="#FFDE23"/>
<path d="M10.5 6.7959L10.5079 6.79588L10.5079 6.79999L10.5 6.7959Z" fill="#FFDE23"/>
<mask id="mask9_149_1043" style="mask-type:luminance" maskUnits="userSpaceOnUse" x="9" y="3" width="6" height="6">
<path d="M12.2061 8.83301C10.8993 8.83301 9.83997 7.69798 9.83997 6.29785C9.83997 4.89772 10.8993 3.7627 12.2061 3.7627C13.5129 3.7627 14.5723 4.89772 14.5723 6.29785C14.5723 7.69798 13.5129 8.83301 12.2061 8.83301Z" fill="white"/>
</mask>
<g mask="url(#mask9_149_1043)">
<path d="M13.2636 12.1768C11.7273 12.1768 10.4819 10.8424 10.4819 9.19629C10.4819 7.55022 11.7273 6.21582 13.2636 6.21582C14.8 6.21582 16.0454 7.55022 16.0454 9.19629C16.0454 10.8424 14.8 12.1768 13.2636 12.1768Z" fill="white"/>
</g>
<mask id="mask10_149_1043" style="mask-type:luminance" maskUnits="userSpaceOnUse" x="9" y="3" width="6" height="6">
<path d="M12.0533 8.62012C10.7465 8.62012 9.68714 7.48509 9.68714 6.08496C9.68714 4.68483 10.7465 3.5498 12.0533 3.5498C13.3601 3.5498 14.4194 4.68483 14.4194 6.08496C14.4194 7.48509 13.3601 8.62012 12.0533 8.62012Z" fill="white"/>
</mask>
<g mask="url(#mask10_149_1043)">
<path d="M13.198 12.457C11.6616 12.457 10.4162 11.1226 10.4162 9.47656C10.4162 7.83049 11.6616 6.49609 13.198 6.49609C14.7343 6.49609 15.9797 7.83049 15.9797 9.47656C15.9797 11.1226 14.7343 12.457 13.198 12.457Z" fill="#0F7562"/>
</g>
<path d="M14.0365 7.97656C13.5129 7.97656 13.0885 7.52185 13.0885 6.96094C13.0885 6.40002 13.5129 5.94531 14.0365 5.94531C14.56 5.94531 14.9844 6.40002 14.9844 6.96094C14.9844 7.52185 14.56 7.97656 14.0365 7.97656Z" fill="#0F7562"/>
<mask id="mask11_149_1043" style="mask-type:luminance" maskUnits="userSpaceOnUse" x="9" y="3" width="6" height="6">
<path d="M12.2061 8.83301C10.8993 8.83301 9.83997 7.69798 9.83997 6.29785C9.83997 4.89772 10.8993 3.7627 12.2061 3.7627C13.5129 3.7627 14.5723 4.89772 14.5723 6.29785C14.5723 7.69798 13.5129 8.83301 12.2061 8.83301Z" fill="white"/>
</mask>
<g mask="url(#mask11_149_1043)">
<mask id="mask12_149_1043" style="mask-type:luminance" maskUnits="userSpaceOnUse" x="9" y="3" width="6" height="6">
<path d="M11.827 8.58203C10.5202 8.58203 9.46082 7.447 9.46082 6.04688C9.46082 4.64675 10.5202 3.51172 11.827 3.51172C13.1338 3.51172 14.1931 4.64675 14.1931 6.04688C14.1931 7.447 13.1338 8.58203 11.827 8.58203Z" fill="white"/>
</mask>
<g mask="url(#mask12_149_1043)">
<path d="M12.9716 12.6836C11.4353 12.6836 10.1899 11.3492 10.1899 9.70312C10.1899 8.05706 11.4353 6.72266 12.9716 6.72266C14.508 6.72266 15.7534 8.05706 15.7534 9.70312C15.7534 11.3492 14.508 12.6836 12.9716 12.6836Z" fill="white"/>
</g>
<path d="M11.229 7.1875L10.7915 7.57812H10.4269V8.35938H10.8644L11.229 7.1875Z" fill="white"/>
</g>
<path d="M10.5 6.79688L10.5023 6.80457L10.4985 6.8059L10.5 6.79688Z" fill="#FFDE23"/>
<path d="M10.5 6.79688L10.4977 6.80457L10.5015 6.8059L10.5 6.79688Z" fill="#FFDE23"/>
<path d="M10.5002 6.79688L10.5082 6.79701L10.5083 6.80108L10.5002 6.79688Z" fill="#FFDE23"/>
<path d="M10.5 6.79688L10.5064 6.8019L10.5086 6.7986L10.5 6.79688Z" fill="#FFDE23"/>
<path d="M10.5005 6.79688L10.4943 6.79204L10.4966 6.78865L10.5005 6.79688Z" fill="#FFDE23"/>
<path d="M10.5005 6.79688L10.4981 6.78902L10.4944 6.79033L10.5005 6.79688Z" fill="#FFDE23"/>
<path d="M10.5005 6.7959L10.5028 6.78809L10.5065 6.78944L10.5005 6.7959Z" fill="#FFDE23"/>
<path d="M10.5005 6.79688L10.5067 6.7921L10.5043 6.78868L10.5005 6.79688Z" fill="#FFDE23"/>
<path d="M10.5 6.7959L10.4937 6.80079L10.4914 6.79743L10.5 6.7959Z" fill="#FFDE23"/>
<path d="M10.5 6.7959L10.4921 6.79588L10.4921 6.79999L10.5 6.7959Z" fill="#FFDE23"/>
<path d="M10.5 6.79688L10.5023 6.80457L10.4985 6.8059L10.5 6.79688Z" fill="#FFDE23"/>
<path d="M10.5 6.79688L10.4977 6.80457L10.5015 6.8059L10.5 6.79688Z" fill="#FFDE23"/>
<path d="M10.5002 6.79688L10.5082 6.79701L10.5083 6.80108L10.5002 6.79688Z" fill="#FFDE23"/>
<path d="M10.5 6.79688L10.5064 6.8019L10.5086 6.7986L10.5 6.79688Z" fill="#FFDE23"/>
<path d="M10.5005 6.79688L10.4943 6.79204L10.4966 6.78865L10.5005 6.79688Z" fill="#FFDE23"/>
<path d="M10.5005 6.79688L10.4981 6.78902L10.4944 6.79033L10.5005 6.79688Z" fill="#FFDE23"/>
<path d="M10.5005 6.7959L10.5028 6.78809L10.5065 6.78944L10.5005 6.7959Z" fill="#FFDE23"/>
<path d="M10.5005 6.79688L10.5067 6.7921L10.5043 6.78868L10.5005 6.79688Z" fill="#FFDE23"/>
<path d="M10.5 6.7959L10.4937 6.80079L10.4914 6.79743L10.5 6.7959Z" fill="#FFDE23"/>
<path d="M10.5 6.7959L10.4921 6.79588L10.4921 6.79999L10.5 6.7959Z" fill="#FFDE23"/>
<path d="M10.5002 6.79785L10.2625 7.58173L10.6283 7.70908L10.5002 6.79785Z" fill="#FFDE23"/>
<path d="M10.5002 6.79785L10.738 7.58173L10.3722 7.70908L10.5002 6.79785Z" fill="#FFDE23"/>
<path d="M10.5 6.79785L9.73685 6.81122L9.73073 7.20996L10.5 6.79785Z" fill="#FFDE23"/>
<path d="M10.5 6.79102L9.87207 7.28238L9.65156 6.95588L10.5 6.79102Z" fill="#FFDE23"/>
<path d="M10.5037 6.79785L11.1225 6.31763L10.8929 5.97998L10.5037 6.79785Z" fill="#FFDE23"/>
<path d="M10.5 6.79395L10.7327 6.01385L11.1035 6.14498L10.5 6.79395Z" fill="#FFDE23"/>
<path d="M10.5005 6.78906L10.2737 6.01361L9.89696 6.14939L10.5005 6.78906Z" fill="#FFDE23"/>
<path d="M10.4929 6.79785L9.8782 6.32292L10.1119 5.97998L10.4929 6.79785Z" fill="#FFDE23"/>
<path d="M10.5 6.7998L11.122 7.28328L11.3484 6.94888L10.5 6.7998Z" fill="#FFDE23"/>
<path d="M10.5005 6.80078L11.2694 6.79882L11.2691 7.20897L10.5005 6.80078Z" fill="#FFDE23"/>
</g>
<defs>
<clipPath id="clip0_149_1043">
<rect width="21" height="15" rx="3" fill="white"/>
</clipPath>
</defs>
</svg>
