<svg width="21" height="15" viewBox="0 0 21 15" fill="none" xmlns="http://www.w3.org/2000/svg">
<g clip-path="url(#clip0_149_1544)">
<path d="M30.5 0H0V15H30.5V0Z" fill="#009543"/>
<path d="M30.5 0H0V10H30.5V0Z" fill="#ED4135"/>
<path d="M30.5 0H0V5H30.5V0Z" fill="#0035AD"/>
<path d="M5.4412 10.8824C7.34172 10.8824 8.8824 9.34172 8.8824 7.4412C8.8824 5.54068 7.34172 4 5.4412 4C3.54068 4 2 5.54068 2 7.4412C2 9.34172 3.54068 10.8824 5.4412 10.8824Z" fill="#FAE600"/>
<path d="M4.85791 7.95505H6.02458ZM4.85791 7.09172H6.02458ZM5.44124 4.01172V9.89172Z" fill="black"/>
<path d="M4.05554 10.6014C5.46 11.1749 6.77639 10.6366 6.77639 10.6366C6.77639 10.6366 6.27946 10.0989 6.02473 9.88888C5.77616 9.68406 5.04494 9.69215 4.79542 9.88888C4.58719 10.0531 3.98995 10.6582 4.05554 10.6014Z" fill="black"/>
<path d="M5.44115 9.58777C5.65378 9.58777 5.82615 9.33705 5.82615 9.02777C5.82615 8.71849 5.65378 8.46777 5.44115 8.46777C5.22852 8.46777 5.05615 8.71849 5.05615 9.02777C5.05615 9.33705 5.22852 9.58777 5.44115 9.58777Z" fill="black"/>
<path d="M5.44103 7.81932C5.69876 7.81932 5.9077 7.68706 5.9077 7.52392C5.9077 7.36077 5.69876 7.22852 5.44103 7.22852C5.1833 7.22852 4.97437 7.36077 4.97437 7.52392C4.97437 7.68706 5.1833 7.81932 5.44103 7.81932Z" fill="black"/>
<path d="M5.44103 6.62474C5.69876 6.62474 5.9077 6.41581 5.9077 6.15807C5.9077 5.90034 5.69876 5.69141 5.44103 5.69141C5.1833 5.69141 4.97437 5.90034 4.97437 6.15807C4.97437 6.41581 5.1833 6.62474 5.44103 6.62474Z" fill="black"/>
<path d="M6.00121 4.42023C6.00107 4.41992 6.04165 4.48722 5.95658 4.64041C5.54997 5.37268 5.14194 5.3885 5.0645 5.45157C4.97914 5.52105 4.94312 5.51629 4.94312 5.51629C4.94921 5.45357 4.95487 5.19712 4.95933 5.17241C5.02105 4.83027 5.53791 4.83498 5.94241 4.48465C6.0056 4.42992 6.00107 4.41992 6.00107 4.41992L6.00121 4.42023Z" fill="black"/>
<path d="M4.63599 5.99512C4.63599 5.99512 4.72732 6.25714 4.74099 6.52012C4.76281 6.94004 5.16519 6.95178 5.44099 6.95178V6.71845C5.23429 6.71845 5.05476 6.68773 4.90432 6.38012C4.83011 6.22837 4.63599 5.99512 4.63599 5.99512Z" fill="black"/>
<path d="M4.62451 9.37806C4.62451 9.37806 4.77143 9.19687 4.94329 8.77199C5.03296 8.55031 5.24545 8.42139 5.44118 8.42139V8.09473C4.9972 8.09473 4.78434 8.25935 4.76188 8.49987C4.71574 8.99401 4.62451 9.37806 4.62451 9.37806Z" fill="black"/>
<path d="M6.24609 5.99512C6.24609 5.99512 6.15476 6.25714 6.14109 6.52012C6.11927 6.94004 5.71689 6.95178 5.44109 6.95178V6.71845C5.64779 6.71845 5.82732 6.68773 5.97776 6.38012C6.05197 6.22837 6.24609 5.99512 6.24609 5.99512Z" fill="black"/>
<path d="M6.25757 9.37806C6.25757 9.37806 6.11065 9.19687 5.93879 8.77199C5.84912 8.55031 5.63663 8.42139 5.4409 8.42139V8.09473C5.88488 8.09473 6.09774 8.25935 6.1202 8.49987C6.16634 8.99401 6.25757 9.37806 6.25757 9.37806Z" fill="black"/>
</g>
<defs>
<clipPath id="clip0_149_1544">
<rect width="21" height="15" rx="3" fill="white"/>
</clipPath>
</defs>
</svg>
