<svg width="21" height="15" viewBox="0 0 21 15" fill="none" xmlns="http://www.w3.org/2000/svg">
<g clip-path="url(#clip0_149_1562)">
<path d="M21 0H0V15H21V0Z" fill="#007934"/>
<path d="M14 0H7V15H14V0Z" fill="white"/>
<path d="M10.5684 3C10.5518 3.1792 10.5353 3.3585 10.5187 3.53771C10.458 3.54685 10.3973 3.55595 10.3366 3.5651C10.3366 3.5651 10.4631 3.63609 10.4852 3.70741C10.4887 3.71883 10.4873 3.72829 10.4822 3.7354C10.4805 3.73762 10.4779 3.74009 10.4756 3.74195C10.439 3.7701 10.3307 3.75683 10.3307 3.75683C10.3307 3.75683 10.4741 3.87789 10.4852 3.92178C10.4854 3.9228 10.4857 3.92376 10.4858 3.92476C10.4857 3.92558 10.4859 3.92693 10.4858 3.92773C10.4856 3.92836 10.4848 3.92949 10.4846 3.93011C10.4836 3.93227 10.4818 3.9347 10.4798 3.93666C10.446 3.96782 10.2869 3.97656 10.2869 3.97656C10.2869 3.97656 10.4633 4.10234 10.4744 4.17366C10.4844 4.23829 10.476 4.27614 10.4744 4.28262C10.4621 4.27209 10.1776 4.03304 9.9941 4.1028C9.98496 4.10754 9.97955 4.11207 9.97733 4.11649C9.97635 4.1187 9.97615 4.12145 9.97673 4.12364C9.98959 4.1634 10.2491 4.20413 10.4301 4.36064C10.4256 4.3998 9.9142 4.23606 9.8953 4.33861C9.9113 4.36752 10.4456 4.44454 10.4852 4.51427C10.2884 4.52158 9.88184 4.47096 9.8953 4.5357C9.85418 4.61045 10.2793 4.56823 10.4576 4.62919C10.5099 4.68826 10.5048 4.73788 10.4139 4.74411C10.242 4.66239 9.85729 4.60166 9.85636 4.706C9.85637 4.70613 9.85634 4.70649 9.85636 4.7066C9.8564 4.70672 9.85692 4.70709 9.85696 4.70719C9.85712 4.70752 9.85729 4.70809 9.85756 4.70839C9.85817 4.70897 9.85954 4.70963 9.86055 4.71017C9.904 4.73184 10.2622 4.72127 10.3971 4.81021C10.2059 4.85346 9.55746 4.72246 9.55334 4.78639C9.57182 4.81625 9.67442 4.9473 9.85098 4.94181C10.0275 4.93632 10.436 5.01318 10.4636 5.06804C10.4645 5.06976 10.4645 5.07151 10.4642 5.07281C10.4522 5.11106 9.92629 4.9561 9.72403 5.05137C9.51439 5.15013 10.3252 5.09026 10.4576 5.21095C10.59 5.33164 10.1929 5.19964 10.1929 5.19964C10.1929 5.19964 9.64148 5.12313 9.55874 5.16153C9.47597 5.19994 9.38208 5.28777 9.38208 5.28777C9.38208 5.28777 9.43709 5.39723 9.49226 5.3753C9.50067 5.37195 9.50641 5.37127 9.50963 5.37232C9.50971 5.37236 9.51015 5.37228 9.51023 5.37232C9.51031 5.37236 9.51076 5.37288 9.51083 5.37292C9.51096 5.373 9.51132 5.37341 9.51143 5.37351C9.51152 5.37364 9.51194 5.37399 9.51203 5.37411C9.51207 5.37415 9.5126 5.37464 9.51263 5.3747C9.51288 5.37525 9.51314 5.37641 9.51323 5.37709C9.51453 5.39354 9.4755 5.4414 9.4755 5.4414C9.4755 5.4414 10.2483 5.62754 10.4193 5.79211C10.5903 5.9567 9.43719 5.53427 9.43719 5.53427C9.43719 5.53427 8.97373 5.70431 9.46473 5.71529C9.41 5.79491 9.4874 5.84391 9.49228 5.84689C9.49228 5.84689 10.309 6.01712 10.3918 6.14878C10.4745 6.28045 9.83455 6.0224 9.69111 5.95109C9.55271 5.88228 9.16749 5.98749 9.14556 6.01957C9.14539 6.01982 9.14507 6.02052 9.14496 6.02076C9.14492 6.02089 9.145 6.02124 9.14496 6.02136C9.14492 6.02161 9.14494 6.02233 9.14496 6.02255C9.14498 6.02267 9.14494 6.02304 9.14496 6.02315C9.145 6.02327 9.14492 6.02364 9.14496 6.02374C9.145 6.02386 9.14551 6.02423 9.14556 6.02434C9.1456 6.02446 9.14552 6.02482 9.14556 6.02493C9.1458 6.02537 9.14641 6.02628 9.14676 6.02672C9.14684 6.02684 9.14725 6.0272 9.14735 6.02731C9.17203 6.05435 9.34399 6.09159 9.34917 6.13807C9.34918 6.13827 9.34915 6.13848 9.34917 6.13866C9.34925 6.14115 9.34848 6.14408 9.34737 6.1464C9.32571 6.18817 9.12056 6.20593 9.11201 6.24525C9.11189 6.24592 9.11141 6.24695 9.11141 6.24763C9.11141 6.29154 10.1434 6.50549 10.4193 6.73591C10.6952 6.96632 9.60846 6.46139 9.60846 6.46139C9.60846 6.46139 9.66915 6.54364 9.60846 6.5656C9.54777 6.58753 9.33217 6.25841 8.97907 6.46139C8.91476 6.54491 9.28737 6.61119 9.3821 6.62038C9.34975 6.70307 9.32155 6.73043 9.45396 6.81271C9.46844 6.82171 9.47657 6.82715 9.47971 6.82998C9.4798 6.83006 9.48023 6.83049 9.48031 6.83057L9.48091 6.83117C9.48095 6.83121 9.48089 6.83172 9.48091 6.83177C9.4809 6.83181 9.48093 6.83234 9.48091 6.83237C9.48087 6.83237 9.48038 6.83236 9.48031 6.83237C9.48023 6.83236 9.47981 6.83238 9.47971 6.83237C9.4592 6.82917 9.22132 6.70761 9.19645 6.70256C9.1962 6.70251 9.19544 6.70257 9.19525 6.70256C9.19517 6.70256 9.19471 6.70254 9.19465 6.70256C9.19465 6.71353 9.2222 6.84546 9.2222 6.84546C9.09996 6.74672 8.95219 6.71695 8.81379 6.81808C8.81359 6.82393 8.81257 6.9186 8.95153 6.97706C8.87321 7.13619 9.04003 7.08678 9.30486 7.2349C8.91128 7.13262 8.87975 7.32261 9.16114 7.3665C9.44252 7.41038 10.2151 7.43787 10.3972 7.67375C10.4356 7.72351 10.446 7.74853 10.4385 7.75652C10.4081 7.78388 10.1287 7.58296 10.0882 7.5755C10.0881 7.57554 10.0876 7.57542 10.0876 7.5755C10.0875 7.57558 10.087 7.576 10.087 7.57609C10.0864 7.57674 10.0857 7.57801 10.0852 7.57907C10.0752 7.6009 10.066 7.69578 10.066 7.69578C9.94829 7.62804 9.8403 7.56728 9.69951 7.53858C9.68847 7.56051 9.69078 7.59168 9.67975 7.61361C9.55198 7.52199 9.44069 7.45758 9.25516 7.44867C9.2478 7.47793 9.24036 7.50753 9.233 7.53679C9.233 7.53679 9.07833 7.34478 8.77487 7.53679C8.60543 7.65758 9.41497 7.58053 9.54737 7.72317C9.67979 7.86579 9.57492 7.88752 9.57492 7.88752C9.46458 7.84729 9.3547 7.80746 9.24436 7.76724C9.24436 7.76724 8.85226 7.69555 8.74193 7.78331C8.63159 7.8711 10.3529 8.08511 10.4025 8.32102C10.436 8.44895 9.99811 8.18706 9.61923 8.07451C9.60457 8.11638 9.58957 8.15827 9.57492 8.20015C9.56593 8.19131 9.41937 8.04956 9.25513 8.02508C9.25508 8.02517 9.25457 8.02554 9.25452 8.02568C9.25451 8.02589 9.25453 8.0266 9.25452 8.02687C9.25477 8.04488 9.28806 8.17336 9.28806 8.17336C9.28806 8.17336 8.86366 7.97564 8.6485 8.07987C8.43332 8.1841 9.39862 8.23894 9.48689 8.33771C9.49654 8.34851 9.50056 8.35638 9.50006 8.36153C9.4999 8.36241 9.49929 8.36377 9.49887 8.3645C9.47754 8.39555 9.18968 8.28087 9.16112 8.3377C9.12801 8.40354 8.65916 8.21719 8.66468 8.30495C8.6702 8.39274 8.73115 8.44191 8.73115 8.44191C8.73115 8.44191 9.70769 8.53511 9.7408 8.65031C9.77389 8.76551 9.20005 8.58481 9.20005 8.58481C9.20005 8.58481 9.14454 8.6667 9.18867 8.70509C9.19039 8.70659 9.19177 8.70803 9.19226 8.70866C9.19227 8.7087 9.19226 8.70923 9.19226 8.70926C9.19222 8.70925 9.19174 8.70928 9.19166 8.70926C9.17171 8.70272 8.86079 8.50022 8.89103 8.65567C8.76937 8.6075 8.45525 8.45829 8.49939 8.57349C8.54287 8.687 9.36218 8.84863 9.38629 8.85336C9.36462 8.85506 9.01813 8.88388 9.03417 8.97424C8.56978 8.69293 8.57087 8.86163 8.58144 8.8748C8.58146 8.87482 8.58142 8.87538 8.58144 8.8754C8.55535 8.8713 7.98402 8.72977 8.43831 8.97424C8.68194 9.10534 8.74132 9.15645 8.74254 9.1761C8.74254 9.17654 8.74258 9.17749 8.74254 9.17789C8.74245 9.17841 8.74212 9.17921 8.74194 9.17968C8.7419 9.1798 8.7414 9.18016 8.74134 9.18027C8.74113 9.1806 8.74097 9.18117 8.74074 9.18146C8.74066 9.18155 8.74023 9.18197 8.74014 9.18206C8.74006 9.18214 8.73964 9.18257 8.73954 9.18266C8.73946 9.18274 8.73904 9.18317 8.73894 9.18326C8.73882 9.18334 8.73846 9.18377 8.73834 9.18385C8.7289 9.18986 8.70607 9.18735 8.69941 9.18742C8.69913 9.18743 8.69842 9.1874 8.69822 9.18742C8.69809 9.18746 8.69764 9.18796 8.69762 9.18802L8.69822 9.18862C8.7047 9.1982 8.74034 9.29495 8.73834 9.31188C8.7383 9.31216 8.73781 9.31285 8.73774 9.31307C8.7377 9.31315 8.73778 9.31358 8.73774 9.31366C8.73772 9.3137 8.73717 9.31362 8.73714 9.31366C8.73709 9.31368 8.73718 9.31424 8.73714 9.31426C8.73709 9.31427 8.73658 9.31425 8.73653 9.31426C8.73649 9.31426 8.736 9.31427 8.73593 9.31426C8.71602 9.30927 8.41513 9.14939 8.31194 9.1386C8.2071 9.12763 7.71043 9.27559 8.24008 9.50599C8.76973 9.7364 9.09506 9.45104 9.38747 9.48396C9.67988 9.51687 9.81807 9.56635 9.7905 9.65962C9.76291 9.75288 9.49138 9.35387 9.20602 9.69892C8.88141 9.63505 8.66119 9.59809 8.82874 9.83528C8.29863 9.6383 7.97491 9.89538 8.6425 9.99963C9.29851 10.0189 9.70185 9.84064 9.70185 9.84064C9.70185 9.84064 9.81252 10.044 9.97254 9.90138C10.125 9.76544 10.137 9.93845 10.1426 9.95497C10.1427 9.95522 10.1431 9.95543 10.1432 9.95557C10.1433 9.95561 10.1432 9.95614 10.1432 9.95616C10.1433 9.95616 10.1437 9.95617 10.1438 9.95616C10.1556 9.95322 10.2977 9.89007 10.2977 9.89007C10.3106 9.89007 10.3238 9.89007 10.3366 9.89007V11.2066C10.515 11.2084 10.693 11.2101 10.8714 11.212C10.8714 11.212 10.7004 10.0657 10.7941 9.9121C10.885 9.76331 10.9709 9.77937 10.9762 9.78051C10.9762 9.78051 11.3238 9.8845 11.3625 9.86804C11.3629 9.86784 11.3638 9.86767 11.3642 9.86745C11.3645 9.86728 11.3652 9.86701 11.3654 9.86685C11.3661 9.86642 11.3672 9.86555 11.3678 9.86506C11.368 9.86498 11.3683 9.86457 11.3684 9.86446C11.3967 9.83882 11.3679 9.73762 11.5445 9.75311C11.599 9.73339 11.5782 9.64696 11.6134 9.62568C11.614 9.62531 11.6151 9.62481 11.6158 9.62449C11.6171 9.62387 11.6191 9.62316 11.6206 9.62271C11.6226 9.62212 11.6254 9.62176 11.6277 9.62152C11.6829 9.61603 12.7476 9.91751 12.9793 9.63224C12.9187 9.47315 12.7087 9.62139 12.6536 9.62688C12.6039 9.62688 12.3941 9.52814 12.2727 9.62688C12.1624 9.5446 11.6607 9.48992 11.6607 9.48992C11.5945 9.42409 12.8579 9.52262 12.9296 9.47325C13.0786 9.32512 12.6539 9.34171 12.5877 9.39108C12.47 9.31976 12.3221 9.32503 12.232 9.3744C12.1887 9.27162 11.7785 9.31614 11.5505 9.28687C11.4775 9.2443 11.4896 9.21987 11.5391 9.19338C12.0154 9.21351 12.4893 9.27535 12.9679 9.25412C13.0973 9.08642 12.8051 9.02317 12.626 9.16599C12.5209 8.99408 12.3059 9.16041 12.1625 9.14396C12.0191 9.1275 12.0852 8.9522 12.2673 8.97961C12.4494 9.00705 12.7749 8.96842 12.8356 8.88613C12.8963 8.80385 12.7994 8.72049 12.499 8.79859C12.3974 8.69982 12.1739 8.79843 12.0691 8.83135C11.9296 8.75398 11.6051 8.82058 11.4948 8.84802C11.3867 8.78125 12.0631 8.67236 12.0631 8.67236C12.3241 8.66777 12.4714 8.62286 12.5541 8.60091C12.9488 8.39059 12.5486 8.36825 12.3415 8.52111C12.213 8.42133 12.0909 8.52974 11.9751 8.56816C11.8664 8.60415 11.6656 8.63037 11.6409 8.61996C11.6406 8.61984 11.6399 8.61951 11.6397 8.61936C11.6397 8.61932 11.6392 8.61882 11.6391 8.61877L11.6385 8.61817C11.6385 8.61813 11.6385 8.61763 11.6385 8.61757C11.6385 8.61753 11.6385 8.61704 11.6385 8.61697C11.6386 8.61673 11.6389 8.61607 11.6391 8.61578C11.6554 8.5907 11.9529 8.40915 11.9529 8.40915C11.9529 8.40915 12.3391 8.38142 12.4164 8.37045C12.4635 8.36376 12.6284 8.28611 12.6284 8.25731C12.627 8.23944 12.5583 8.24108 12.3499 8.29363C12.1623 8.3101 12.0522 8.29946 11.9804 8.30495C11.8651 8.29309 11.8165 8.281 11.8068 8.27041C11.8064 8.26996 11.8058 8.26907 11.8056 8.26863C11.8047 8.26671 11.8053 8.2645 11.8068 8.26267C11.8071 8.26225 11.8081 8.2613 11.8086 8.26088C11.8368 8.23843 12.0193 8.22218 12.0193 8.22218C12.0193 8.22218 12.5765 8.17137 12.6134 8.14239C12.6135 8.14226 12.6139 8.1419 12.614 8.14179C12.6142 8.14154 12.6145 8.14083 12.6146 8.1406C12.6146 8.14048 12.6152 8.14011 12.6152 8.14C12.6267 7.91348 12.1425 8.01808 12.1295 8.01972C12.1309 7.86044 11.6926 8.01738 11.672 8.01972C11.672 8.01971 11.6715 8.01973 11.6714 8.01972C11.6526 8.00867 11.6443 7.99701 11.6427 7.98637C11.6421 7.98232 11.6427 7.97775 11.6439 7.97387C11.6549 7.94103 11.7211 7.91552 11.7211 7.91552C11.8425 7.88627 12.024 7.87714 12.0715 7.8387C12.0715 7.8387 12.414 7.8357 12.4547 7.74522C12.3707 7.5146 11.7297 7.78604 11.6439 7.82739C11.6267 7.82739 11.6162 7.82309 11.6109 7.81607C11.5828 7.77513 11.7218 7.6403 11.7265 7.63565C11.7266 7.63561 11.727 7.6351 11.7271 7.63506C11.7483 7.62908 12.26 7.60304 12.5044 7.27361C12.5217 7.06992 12.2122 7.38854 12.2122 7.38854C12.1891 7.12436 11.8757 7.40529 11.6936 7.42724C11.5115 7.44917 11.5062 7.34486 11.6331 7.32839C11.76 7.31195 11.9033 7.32272 11.975 7.1307C12.0468 6.93869 12.2622 7.14188 12.3008 7.07056C12.3382 7.00147 12.2303 6.94258 12.2236 6.93897C12.2236 6.93897 12.3835 6.7739 12.1242 6.77939C11.8675 6.78482 11.5356 6.7474 11.5289 6.74664C11.545 6.74053 11.8065 6.64247 12.0523 6.64779C12.3061 6.65328 12.1681 6.46677 11.9254 6.46677C11.6826 6.46677 11.5559 6.3846 11.5559 6.3846C11.6938 6.3334 11.8317 6.28217 11.9697 6.23097C11.9605 6.19258 11.9513 6.15444 11.9421 6.11605C11.9421 6.11605 12.1848 5.9239 11.8427 5.96778C11.5006 6.01168 11.4618 6.0172 11.4618 6.0172C11.4618 6.0172 10.7885 6.1198 10.7726 6.12141C10.7725 6.12141 10.772 6.12141 10.772 6.12141C10.7654 6.12039 10.6987 6.09979 10.6863 6.07436C10.686 6.07353 10.6854 6.07223 10.6851 6.07139C10.6848 6.07037 10.6846 6.06884 10.6845 6.06782C10.6844 6.06662 10.6843 6.06487 10.6845 6.06365C10.6873 6.05025 10.7081 6.03577 10.7612 6.02256C10.9377 5.97868 11.5615 5.85268 11.6553 5.88561C11.6674 5.88985 11.6762 5.88889 11.6816 5.88442C11.7168 5.85278 11.5998 5.65098 11.3127 5.62242C10.9817 5.58951 10.778 5.70459 10.778 5.70459C10.778 5.70459 10.5626 5.62752 10.7612 5.56168C10.9598 5.49587 11.2744 5.58372 11.2744 5.58372C11.2744 5.58372 11.6273 5.47933 11.3349 5.43545C11.0425 5.39155 10.9503 5.47492 10.8163 5.47951C10.7628 5.41313 11.2754 5.39746 11.3073 5.34256C11.2533 5.24378 10.9361 5.34256 10.7504 5.34256C10.6714 5.30923 10.6662 5.25501 10.7558 5.22168C10.9452 5.21437 11.1233 5.22543 11.3127 5.21811C11.3072 5.11754 11.3128 4.99832 11.3073 4.89776C11.0671 4.85411 10.7853 4.92973 10.6504 4.92337C10.6865 4.81363 11.2052 4.78531 11.263 4.75545C11.3822 4.60731 10.7654 4.75316 10.7504 4.75545C10.6409 4.73937 10.6476 4.67056 10.7169 4.62921C10.8769 4.61092 11.2357 4.65253 11.2085 4.54466C11.1877 4.44358 10.9598 4.4977 10.866 4.51965C10.7722 4.54158 10.6342 4.52501 10.6342 4.52501C10.5742 4.44461 11.1751 4.47747 11.1696 4.41545C11.1618 4.34423 10.7887 4.39329 10.6618 4.39877C10.5642 4.33181 11.1206 4.28729 11.1468 4.27849C11.147 4.27841 11.1474 4.27796 11.1474 4.27789C11.1682 4.09553 10.7612 4.27789 10.6839 4.27789C10.6707 4.27789 10.6606 4.2746 10.6534 4.26896C10.6518 4.26766 10.65 4.26572 10.6486 4.2642C10.6221 4.23344 10.6456 4.16297 10.6456 4.16297C10.6456 4.16297 10.7907 4.09816 10.7995 4.08258C10.7996 4.08246 10.8001 4.08211 10.8001 4.08199C10.8001 4.08195 10.8001 4.08145 10.8001 4.08139C10.8001 4.08135 10.8001 4.08085 10.8001 4.0808C10.8001 4.08071 10.7996 4.08029 10.7995 4.0802C10.7992 4.07974 10.7984 4.07895 10.7977 4.07841C10.7807 4.06538 10.6809 4.03246 10.6678 4.03137C10.6677 4.03137 10.6673 4.03137 10.6672 4.03137C10.6671 4.03134 10.6666 4.03082 10.6666 4.03078C10.6664 4.03065 10.6661 4.03036 10.666 4.03018C10.6659 4.0301 10.6654 4.0297 10.6654 4.02958C10.6579 4.01425 10.6672 3.90513 10.6672 3.90513C10.6672 3.90513 10.7821 3.81949 10.7893 3.78545C10.7894 3.78516 10.7893 3.78453 10.7893 3.78425C10.7894 3.78397 10.7893 3.78333 10.7893 3.78306C10.7893 3.78282 10.7893 3.78213 10.7893 3.78187C10.7893 3.78162 10.7894 3.78092 10.7893 3.78068C10.7893 3.78056 10.7894 3.7802 10.7893 3.78008C10.7892 3.77975 10.7889 3.77921 10.7887 3.77889C10.7887 3.77877 10.7888 3.7784 10.7887 3.7783C10.7887 3.77821 10.7882 3.7778 10.7881 3.7777C10.788 3.77749 10.7877 3.77729 10.7875 3.7771C10.7873 3.77682 10.7872 3.77617 10.7869 3.77591C10.7868 3.77583 10.7864 3.7754 10.7863 3.77532C10.7859 3.77495 10.7851 3.77446 10.7845 3.77413C10.7843 3.774 10.7836 3.77365 10.7833 3.77353C10.7543 3.75967 10.6342 3.80092 10.6342 3.80092C10.6342 3.76435 10.6342 3.72793 10.6342 3.69136C10.6342 3.69136 10.7394 3.67999 10.7504 3.63062C10.751 3.62773 10.7507 3.62488 10.7504 3.62228C10.7502 3.62125 10.7501 3.6197 10.7498 3.61871C10.7491 3.61659 10.7481 3.61408 10.7468 3.61216C10.7466 3.61187 10.7458 3.61126 10.7456 3.61097C10.7215 3.58009 10.6234 3.57584 10.6234 3.57584C10.605 3.38383 10.5867 3.19204 10.5683 3.00004L10.5684 3ZM10.4702 4.88045V4.95607C10.4702 4.95607 10.3465 4.94977 10.3235 4.93047C10.3233 4.93038 10.323 4.92996 10.3229 4.92987C10.3228 4.92979 10.3224 4.92937 10.3223 4.92928C10.3222 4.92919 10.3218 4.92878 10.3217 4.92868C10.3216 4.9286 10.3211 4.92818 10.3211 4.92808C10.3209 4.9278 10.3206 4.9272 10.3205 4.92689C10.3204 4.92681 10.3205 4.9264 10.3205 4.9263C10.3204 4.92622 10.3199 4.9258 10.3199 4.9257C10.3199 4.92562 10.3199 4.92521 10.3199 4.92511C10.3199 4.9249 10.3199 4.92413 10.3199 4.92392C10.3199 4.92379 10.3199 4.92343 10.3199 4.92332C10.3199 4.9232 10.3199 4.92283 10.3199 4.92273C10.32 4.92229 10.3202 4.92139 10.3205 4.92094C10.3205 4.92082 10.321 4.92046 10.3211 4.92034C10.3214 4.91988 10.3219 4.91902 10.3223 4.91856C10.3224 4.91843 10.3228 4.91808 10.3229 4.91796C10.3231 4.91771 10.3238 4.91701 10.3241 4.91677C10.3249 4.91604 10.326 4.91514 10.3271 4.91439C10.3686 4.88549 10.4514 4.88617 10.4678 4.88164C10.4679 4.8816 10.4683 4.88168 10.4684 4.88164C10.4685 4.8816 10.4689 4.88109 10.469 4.88104C10.4691 4.881 10.4695 4.88108 10.4696 4.88104C10.4697 4.881 10.4701 4.8805 10.4702 4.88045ZM10.6457 4.98108C10.6499 4.98108 10.8921 4.98315 10.9133 5.01442C10.9135 5.01467 10.9138 5.01534 10.9139 5.01562C10.9141 5.01603 10.9144 5.01698 10.9145 5.0174C10.9146 5.01769 10.9145 5.01831 10.9145 5.0186C10.9145 5.01903 10.9146 5.01994 10.9145 5.02038C10.9144 5.02083 10.9141 5.02171 10.9139 5.02217C10.8954 5.06123 10.6504 5.08469 10.6504 5.08469L10.6457 4.98108ZM10.6319 5.13054C10.632 5.13058 10.6324 5.13049 10.6325 5.13054C10.6326 5.13058 10.633 5.13049 10.6331 5.13054C10.6475 5.13431 10.7478 5.13755 10.76 5.15435C10.7602 5.15452 10.7605 5.15479 10.7606 5.15495C10.7607 5.15503 10.7606 5.15546 10.7606 5.15554C10.7607 5.15571 10.7612 5.15597 10.7612 5.15614C10.7613 5.15622 10.7612 5.15665 10.7612 5.15673C10.7612 5.15682 10.7612 5.15724 10.7612 5.15733C10.7612 5.15741 10.7612 5.15784 10.7612 5.15792C10.7612 5.15801 10.7612 5.15843 10.7612 5.15852C10.7612 5.1586 10.7613 5.15902 10.7612 5.15911C10.7612 5.1592 10.7607 5.15962 10.7606 5.15971C10.7606 5.15979 10.7607 5.16021 10.7606 5.1603C10.7605 5.16059 10.7602 5.16121 10.76 5.1615C10.76 5.16158 10.7595 5.16199 10.7594 5.16209C10.7594 5.16217 10.7595 5.16259 10.7594 5.16269C10.7386 5.18795 10.6461 5.19484 10.6415 5.19484C10.6414 5.19483 10.6409 5.19486 10.6409 5.19484C10.6408 5.19482 10.6409 5.19428 10.6409 5.19425C10.6408 5.19412 10.6403 5.19378 10.6403 5.19365C10.636 5.18511 10.6319 5.13054 10.6319 5.13054ZM9.89349 5.32942C9.97256 5.32533 10.1295 5.34385 10.4241 5.42469C10.4241 5.43093 10.43 5.50688 10.4277 5.51937C10.4276 5.51945 10.4271 5.51988 10.4271 5.51996C10.427 5.52005 10.4271 5.5205 10.4271 5.52056C10.427 5.5206 10.4265 5.52115 10.4265 5.52115C10.4218 5.51885 9.89051 5.36703 9.84198 5.36931C9.84065 5.36936 9.83905 5.36944 9.83779 5.36931C9.83672 5.36919 9.8352 5.36894 9.8342 5.36872C9.83287 5.36839 9.83116 5.36746 9.83 5.36693C9.82958 5.36673 9.82861 5.36656 9.8282 5.36634C9.82808 5.36625 9.82773 5.36582 9.8276 5.36574C9.82599 5.36465 9.82439 5.363 9.82341 5.36157C9.82333 5.36145 9.82288 5.36109 9.82281 5.36098C9.82269 5.36073 9.82232 5.36002 9.82221 5.35979C9.82217 5.35966 9.82225 5.35931 9.82221 5.35919C9.82213 5.35894 9.82167 5.35825 9.82161 5.358C9.82159 5.35788 9.82163 5.35753 9.82161 5.3574C9.82159 5.35716 9.82162 5.35647 9.82161 5.35621C9.82162 5.35597 9.82159 5.35528 9.82161 5.35502C9.82169 5.35436 9.82198 5.35332 9.82221 5.35264C9.82287 5.35101 9.82421 5.34891 9.8258 5.34728C9.83393 5.33938 9.85429 5.33144 9.89349 5.32942ZM10.169 5.5539C10.2536 5.55088 10.4566 5.59942 10.4678 5.59677C10.4678 5.61286 10.4768 5.68891 10.4666 5.70455C10.4665 5.70468 10.4661 5.70503 10.466 5.70515C10.4659 5.70527 10.4655 5.70564 10.4654 5.70574C10.4653 5.70582 10.4649 5.70626 10.4648 5.70634C10.4646 5.70646 10.4638 5.70684 10.4636 5.70693C10.4635 5.70697 10.4631 5.70691 10.463 5.70693C10.4627 5.70695 10.4621 5.70695 10.4618 5.70693C10.4617 5.70691 10.4613 5.70697 10.4612 5.70693C10.4439 5.70265 10.1445 5.60807 10.133 5.56938C10.1328 5.56875 10.133 5.56761 10.133 5.567C10.1331 5.56565 10.1338 5.564 10.1348 5.56283C10.1349 5.56271 10.1353 5.56236 10.1354 5.56224C10.1355 5.56211 10.1359 5.56176 10.136 5.56164C10.1418 5.55711 10.1536 5.55445 10.169 5.5539ZM11.0025 5.7623C11.0834 5.76073 11.1405 5.76762 11.1193 5.79208C11.0616 5.85869 10.6624 5.91355 10.6624 5.91355L10.6552 5.79208C10.6638 5.79082 10.8666 5.76495 11.0025 5.7623ZM9.85995 6.14102C9.92783 6.13743 10.0859 6.17449 10.4378 6.32264L10.4402 6.41017C10.4402 6.41017 9.84423 6.23043 9.82343 6.20057C9.8132 6.18587 9.79417 6.1445 9.85995 6.14102ZM11.0277 6.27143C11.0458 6.27051 11.0586 6.27233 11.063 6.27679C11.0632 6.27691 11.0635 6.27725 11.0636 6.27738C11.0639 6.27779 11.0641 6.27873 11.0642 6.27917C11.0643 6.27962 11.0648 6.28047 11.0648 6.28096C11.0646 6.28347 11.0627 6.28685 11.0594 6.29048C11.004 6.35252 10.7061 6.41434 10.7061 6.41434C10.7061 6.41434 10.7061 6.33626 10.7061 6.33395C10.7062 6.33395 10.7067 6.33395 10.7067 6.33395C10.7203 6.33349 10.9389 6.27591 11.0277 6.27143ZM9.72102 6.28214C9.81 6.27745 10.0109 6.32438 10.4612 6.5364C10.4612 6.5386 10.4652 6.61172 10.4636 6.61857C10.4635 6.61856 10.463 6.61859 10.463 6.61857C10.4363 6.61002 9.65274 6.33634 9.65274 6.33634C9.65191 6.33334 9.64012 6.28641 9.72102 6.28214ZM11.2127 6.62454C11.2355 6.62359 11.2504 6.62555 11.2541 6.6305C11.2544 6.63107 11.2546 6.63222 11.2547 6.63288C11.2546 6.63526 11.2526 6.63829 11.2487 6.64181C11.1776 6.70562 10.7246 6.78292 10.7085 6.78413C10.7084 6.78413 10.708 6.78414 10.7079 6.78413C10.7079 6.78411 10.7074 6.78417 10.7073 6.78413C10.7073 6.78409 10.7068 6.78359 10.7067 6.78353C10.7066 6.78332 10.7062 6.78263 10.7061 6.78234C10.7061 6.78222 10.7062 6.78185 10.7061 6.78174C10.706 6.78149 10.7056 6.78082 10.7055 6.78055C10.7026 6.76576 10.712 6.71397 10.7127 6.70672C10.7127 6.70659 10.7127 6.70619 10.7127 6.70612C10.7127 6.70614 10.7133 6.7061 10.7133 6.70612C10.7134 6.70613 10.7138 6.70671 10.7139 6.70672C10.714 6.70672 10.7144 6.70671 10.7145 6.70672C10.7435 6.70623 11.0907 6.62962 11.2127 6.62454ZM9.88091 6.82402C10.0158 6.81709 10.4244 7.00341 10.4444 7.00921C10.4445 7.00922 10.445 7.00921 10.445 7.00921C10.4429 7.01753 10.4426 7.0848 10.4408 7.09555C10.4408 7.09584 10.4409 7.09658 10.4408 7.09674C10.4408 7.09678 10.4403 7.09672 10.4402 7.09674C10.4292 7.09087 9.86918 6.85976 9.8444 6.8782C9.82895 6.8418 9.84495 6.82587 9.88091 6.82402ZM11.0858 6.87285C11.1138 6.87162 11.1344 6.87286 11.1409 6.87642C11.1417 6.87691 11.1424 6.8776 11.1427 6.8782C11.1427 6.87829 11.1427 6.87869 11.1427 6.8788C11.1427 6.87892 11.1427 6.87929 11.1427 6.8794C11.1426 6.87965 11.1428 6.88035 11.1427 6.88059C11.1426 6.88071 11.1422 6.88106 11.1421 6.88119C11.1417 6.88171 11.1409 6.8824 11.1403 6.88297C11.0987 6.91973 10.7127 6.99551 10.7127 6.99551C10.7127 6.99551 10.7109 6.92441 10.7109 6.91751C10.7219 6.91518 10.971 6.87788 11.0858 6.87285ZM11.0546 7.11876C11.0818 7.11787 11.1011 7.11941 11.1055 7.12412L11.1061 7.12472C11.1063 7.12493 11.1061 7.12569 11.1061 7.12591C11.1062 7.12603 11.1067 7.12639 11.1067 7.12651C11.1067 7.12663 11.1062 7.12698 11.1061 7.1271C11.1061 7.12735 11.1063 7.12803 11.1061 7.12829C11.1061 7.12842 11.1056 7.12875 11.1055 7.12889C11.1052 7.12943 11.1048 7.13012 11.1043 7.13068C11.104 7.1311 11.103 7.13203 11.1026 7.13246C11.0609 7.16822 10.7337 7.23667 10.7337 7.23667C10.7337 7.23667 10.7247 7.15859 10.7247 7.15628C10.7337 7.15649 10.9525 7.12213 11.0546 7.11876ZM9.67371 7.13841C9.75267 7.13345 9.94831 7.1658 10.4312 7.34027L10.4474 7.43436C10.4474 7.43436 9.64331 7.17625 9.62041 7.16818C9.62046 7.16818 9.6204 7.16765 9.62041 7.16758C9.62043 7.16708 9.62029 7.16588 9.62041 7.1646C9.6207 7.16224 9.62191 7.15852 9.62461 7.15507C9.63027 7.14817 9.64322 7.14033 9.67371 7.13841ZM10.7331 7.34265C10.7428 7.34471 10.8776 7.34916 10.9025 7.37005C10.9027 7.37013 10.903 7.37055 10.9031 7.37064C10.9032 7.37073 10.9036 7.37114 10.9037 7.37124C10.9038 7.37132 10.9043 7.37174 10.9043 7.37184C10.9046 7.37217 10.9048 7.37272 10.9049 7.37303C10.905 7.37315 10.9055 7.37352 10.9055 7.37363C10.9057 7.37406 10.906 7.37497 10.9061 7.37541C10.9062 7.37554 10.9061 7.37589 10.9061 7.37601C10.9062 7.37613 10.9061 7.37649 10.9061 7.37661C10.9061 7.37685 10.9062 7.37757 10.9061 7.3778C10.9061 7.37792 10.9062 7.37827 10.9061 7.37839C10.9061 7.37864 10.9056 7.37934 10.9055 7.37958C10.9055 7.37971 10.9056 7.38006 10.9055 7.38018C10.9054 7.38043 10.9051 7.38112 10.9049 7.38137C10.8841 7.41354 10.7433 7.42544 10.7433 7.42544C10.7433 7.42544 10.7363 7.3624 10.7331 7.34265ZM11.0594 7.52605C11.0908 7.52531 11.1134 7.52888 11.1181 7.53796C11.1208 7.54412 11.1157 7.55322 11.1008 7.56536C10.9852 7.65954 10.7337 7.6779 10.7337 7.6779V7.57429C10.7337 7.57429 10.7341 7.57429 10.7343 7.57429C10.7486 7.5726 10.9552 7.52854 11.0594 7.52605ZM11.3798 7.62252C11.4197 7.62102 11.4369 7.62766 11.4421 7.63681C11.4425 7.63762 11.4431 7.63893 11.4433 7.63979C11.4437 7.64134 11.444 7.6435 11.4439 7.64515C11.4426 7.65695 11.4298 7.67109 11.42 7.68028C11.3807 7.71704 10.7546 7.9143 10.7546 7.9143C10.7546 7.9143 10.7499 7.78345 10.7522 7.77198C11.1183 7.66169 11.2973 7.62563 11.3798 7.62252ZM10.975 7.9929C11.0148 7.99142 11.0459 7.99376 11.0553 8.00302C11.0558 8.00363 11.0567 8.00472 11.0571 8.0054C11.0573 8.00582 11.0575 8.00675 11.0576 8.00719C11.0578 8.00763 11.0576 8.00851 11.0576 8.00898C11.0577 8.00977 11.0579 8.01109 11.0576 8.01196C11.0572 8.01371 11.056 8.01587 11.0547 8.01791C11.0011 8.07018 10.7409 8.07805 10.7409 8.07805V8.01315C10.7897 8.01151 10.8985 7.99573 10.975 7.9929ZM11.2355 8.09948C11.2479 8.09919 11.2554 8.10119 11.2565 8.10484C11.2565 8.10513 11.2565 8.10573 11.2565 8.10603C11.2558 8.10907 11.2522 8.11368 11.2445 8.11913C11.1405 8.19262 10.7498 8.26799 10.7498 8.26799C10.7498 8.26799 10.7547 8.21663 10.757 8.20428C10.7679 8.20412 11.142 8.10176 11.2355 8.09948ZM11.4547 8.18106C11.5007 8.18063 11.5358 8.18738 11.5559 8.2019C11.5559 8.2019 11.5564 8.20189 11.5565 8.2019C11.5565 8.20194 11.5565 8.20243 11.5565 8.2025C11.5565 8.20258 11.5565 8.20301 11.5565 8.2031C11.5565 8.2033 11.5565 8.20405 11.5565 8.20429C11.5545 8.21852 11.5253 8.28551 11.4223 8.31445C11.294 8.30305 10.7492 8.46318 10.7384 8.46569C10.7384 8.46565 10.7379 8.46573 10.7379 8.46569C10.7378 8.46548 10.7379 8.4648 10.7379 8.4645C10.7376 8.45424 10.745 8.399 10.745 8.399C10.9328 8.28734 11.2741 8.18275 11.4547 8.18106ZM10.06 8.49546C10.0612 8.49544 10.0623 8.49545 10.0636 8.49546C10.2992 8.52072 10.3872 8.60844 10.4121 8.64372C10.3651 8.72571 9.99269 8.54184 10.0318 8.5026C10.0363 8.49863 10.0455 8.49576 10.06 8.49546ZM11.4104 8.51094C11.4197 8.51057 11.4283 8.51249 11.4343 8.5163C11.4368 8.51794 11.4392 8.5203 11.4409 8.52285C11.4432 8.5265 11.4447 8.53145 11.4451 8.53714C11.4205 8.57496 11.2932 8.55845 11.2852 8.55738C11.2916 8.55511 11.3651 8.51265 11.4104 8.51094ZM10.9055 8.76579C10.923 8.76507 10.9375 8.76683 10.9457 8.77174C10.9466 8.77238 10.9479 8.77338 10.9487 8.77413C10.9489 8.77438 10.9496 8.77505 10.9499 8.77532C10.9502 8.77573 10.9508 8.77666 10.9511 8.77711C10.9513 8.77756 10.9515 8.77841 10.9517 8.77889C10.9531 8.78334 10.9526 8.78949 10.9487 8.79676C10.9117 8.86568 10.7498 8.84022 10.7498 8.84022V8.79199C10.7499 8.79201 10.7504 8.79198 10.7504 8.79199C10.7596 8.79276 10.8488 8.76811 10.9055 8.76579ZM9.95218 8.94741C10.002 8.94491 10.0455 8.97739 10.0911 9.00338C10.1928 8.9827 10.4013 9.01945 10.4013 9.01945V9.11115C10.4013 9.11124 10.4008 9.11169 10.4007 9.11175C10.4006 9.11179 10.4002 9.11171 10.4001 9.11175C10.3811 9.11504 10.1367 9.10442 10.0821 9.07007C10.0376 9.07007 9.91157 9.00393 9.90188 8.97003C9.9018 8.96975 9.90134 8.96912 9.90128 8.96884C9.9012 8.96842 9.90132 8.96747 9.90128 8.96706C9.90127 8.96677 9.90127 8.96613 9.90128 8.96586C9.90129 8.96562 9.90124 8.96492 9.90128 8.96467C9.9013 8.96455 9.90126 8.9642 9.90128 8.96408C9.90132 8.96383 9.9018 8.96312 9.90188 8.96289C9.90192 8.96276 9.90184 8.96241 9.90188 8.96229C9.9193 8.95306 9.93627 8.9482 9.95218 8.94741ZM11.0211 8.99266C11.0594 8.99061 11.0756 9.00236 11.0457 9.04446C10.9625 9.16161 10.7474 9.11354 10.7474 9.11354L10.7385 9.04089C10.8143 9.04383 10.953 8.99631 11.0211 8.99266ZM10.2175 9.23024C10.3044 9.22621 10.3989 9.26061 10.3989 9.26061C10.4011 9.26502 10.4457 9.35226 10.4061 9.38148C10.4046 9.38254 10.403 9.38357 10.4013 9.38446C10.3528 9.40973 10.1209 9.36472 10.1073 9.27192C10.1346 9.24328 10.175 9.23221 10.2175 9.23024ZM9.321 9.27549C9.40053 9.27075 9.48937 9.31946 9.49946 9.32432C9.49958 9.32436 9.49998 9.3243 9.50005 9.32432C9.50005 9.32707 9.49706 9.41245 9.49706 9.41245C9.49706 9.41245 9.33963 9.36881 9.28985 9.28085C9.29983 9.27815 9.3105 9.27612 9.321 9.27549ZM10.8355 9.2874C10.9242 9.28684 11.0314 9.30756 11.0469 9.33742C11.0498 9.34353 11.0489 9.35026 11.0433 9.35707C10.9994 9.40989 10.7499 9.36184 10.7499 9.36184V9.29753C10.7721 9.29107 10.8026 9.28761 10.8355 9.2874Z" fill="#007934"/>
</g>
<defs>
<clipPath id="clip0_149_1562">
<rect width="21" height="15" rx="3" fill="white"/>
</clipPath>
</defs>
</svg>
