<svg xmlns="http://www.w3.org/2000/svg" width="21" height="15" viewBox="0 0 21 15" fill="none">
<rect width="21" height="15" rx="3" fill="#FEDD00"/>
<g clip-path="url(#clip0_158_1977)">
<g clip-path="url(#clip1_158_1977)">
<path d="M29 0H0V15H29V0Z" fill="#012169"/>
<path d="M0 0L14.5 7.5ZM14.5 0L0 7.5Z" fill="black"/>
<path d="M0 0L14.5 7.5M14.5 0L0 7.5" stroke="white" stroke-width="1.45"/>
<mask id="mask0_158_1977" style="mask-type:luminance" maskUnits="userSpaceOnUse" x="0" y="0" width="17" height="10">
<path d="M0 0V3.75H16.9167V7.5H14.5L0 0ZM0 7.5V10H7.25V0H14.5L0 7.5Z" fill="white"/>
</mask>
<g mask="url(#mask0_158_1977)">
<path d="M0 0L14.5 7.5ZM14.5 0L0 7.5Z" fill="black"/>
<path d="M0 0L14.5 7.5M14.5 0L0 7.5" stroke="#C8102E" stroke-width="0.966667"/>
</g>
<path d="M7.25 0V10ZM0 3.75H16.9167Z" fill="black"/>
<path d="M7.25 0V10M0 3.75H16.9167" stroke="white" stroke-width="2.41667"/>
<path d="M7.25 0V10ZM0 3.75H16.9167Z" fill="black"/>
<path d="M7.25 0V10M0 3.75H16.9167" stroke="#C8102E" stroke-width="1.45"/>
</g>
<path d="M7.25005 5.02559C7.93126 5.02559 8.48349 4.45431 8.48349 3.74961C8.48349 3.04491 7.93126 2.47363 7.25005 2.47363C6.56883 2.47363 6.0166 3.04491 6.0166 3.74961C6.0166 4.45431 6.56883 5.02559 7.25005 5.02559Z" fill="#012169"/>
<path d="M7.24998 2.47363L7.97498 4.7819L6.0769 3.35531H8.42305L6.52498 4.7819" fill="#FEDD00"/>
<path d="M3.02081 3.07227L3.44696 4.42903L2.3313 3.5905H3.71033L2.59467 4.42903" fill="#FEDD00"/>
<path d="M11.4791 3.07227L11.9052 4.42903L10.7896 3.5905H12.1686L11.0529 4.42903" fill="#FEDD00"/>
<path d="M7.25006 5.57227L7.67621 6.92903L6.56055 6.0905H7.93958L6.82392 6.92903" fill="#FEDD00"/>
<path d="M7.25006 0.572266L7.67621 1.92903L6.56055 1.0905H7.93958L6.82392 1.92903" fill="#FEDD00"/>
</g>
<defs>
<clipPath id="clip0_158_1977">
<path d="M0 0H14V6C14 7.10457 13.1046 8 12 8H0V0Z" fill="white"/>
</clipPath>
<clipPath id="clip1_158_1977">
<rect width="15" height="8" fill="white"/>
</clipPath>
</defs>
</svg>