<svg width="21" height="15" viewBox="0 0 21 15" fill="none" xmlns="http://www.w3.org/2000/svg">
<g clip-path="url(#clip0_149_1587)">
<path d="M21 12.6525C21 13.2598 20.7542 13.8423 20.3166 14.2717C19.879 14.7012 19.2855 14.9424 18.6667 14.9424H2.33333C1.71449 14.9424 1.121 14.7012 0.683418 14.2717C0.245833 13.8423 0 13.2598 0 12.6525V2.34759C0 1.74025 0.245833 1.15779 0.683418 0.728335C1.121 0.298881 1.71449 0.0576172 2.33333 0.0576172H18.6667C19.2855 0.0576172 19.879 0.298881 20.3166 0.728335C20.7542 1.15779 21 1.74025 21 2.34759V12.6525Z" fill="#CE1126"/>
<path d="M0 4.06543H21V10.9353H0V4.06543Z" fill="#EEEEEE"/>
<path d="M8.72789 8.51103C8.65206 8.31066 8.63106 8.13547 8.63106 8.13547C8.63106 8.13547 8.58556 8.07307 8.44556 8.13547C8.30556 8.19788 8.15739 8.31409 7.94739 8.35932C7.84998 8.37993 7.76598 8.33127 7.70239 8.27516C7.72573 8.35703 7.76131 8.4326 7.79164 8.5116L8.72789 8.51103ZM10.811 8.51103C10.7532 8.39539 10.6821 8.3055 10.5001 8.3055C10.3239 8.3055 10.2451 8.40684 10.1874 8.51103H10.811ZM13.2085 8.51103C13.2429 8.42401 13.2808 8.33814 13.3059 8.24711C13.1128 8.44004 12.8159 8.36619 12.7243 8.25169C12.624 8.12631 12.3965 8.10742 12.3965 8.10742C12.3965 8.10742 12.3691 8.28776 12.309 8.50244C12.3084 8.5053 12.3061 8.50874 12.3049 8.5116L13.2085 8.51103ZM13.0008 8.9404C13.0469 8.86311 13.0947 8.78697 13.1338 8.7051C13.0694 8.67118 12.998 8.65219 12.925 8.64957C12.7243 8.64499 12.7051 8.78583 12.4239 8.78812C12.2903 8.78926 12.2197 8.75606 12.1812 8.71369C12.1062 8.80084 12.019 8.87717 11.9222 8.9404H13.0008ZM9.86598 8.9404H11.0717C11.0468 8.91661 11.0238 8.89096 11.0029 8.86368L11.0046 8.87055C11.0046 8.87055 10.755 8.63641 10.4995 8.63641C10.1716 8.63641 9.94531 8.87055 9.94531 8.87055L9.95289 8.85682C9.92596 8.88665 9.89692 8.91458 9.86598 8.9404ZM9.02656 8.9404C8.94541 8.87442 8.8767 8.79498 8.82356 8.70568C8.73723 8.76407 8.63981 8.81331 8.54064 8.80644C8.29448 8.78869 8.13814 8.53164 7.99348 8.60091C7.94389 8.62496 7.89723 8.64843 7.85231 8.66904C7.89548 8.7635 7.94798 8.85224 8.00048 8.94097L9.02656 8.9404ZM8.38839 9.44992H12.6129C12.6823 9.37607 12.7488 9.29992 12.8106 9.21978C12.7126 9.13734 12.5645 9.03887 12.3959 9.03887C12.1136 9.03887 11.9928 9.28962 11.7431 9.28962C11.4935 9.28962 11.4661 9.06578 11.1563 9.06578C10.8466 9.06578 10.7095 9.32511 10.468 9.32511C10.2265 9.32511 10.0532 9.06578 9.82573 9.06578C9.59764 9.06578 9.42439 9.32511 9.17881 9.32511C8.93323 9.32511 8.79614 9.03887 8.57739 9.03887C8.43973 9.03887 8.27698 9.12474 8.16964 9.19058C8.23731 9.28103 8.31081 9.36748 8.38839 9.44992ZM12.0961 9.8707C12.1631 9.82605 12.2337 9.78654 12.2973 9.73674C12.1509 9.66804 11.9082 9.56671 11.7431 9.56671C11.4935 9.56671 11.4299 9.70067 11.1563 9.70067C10.8827 9.70067 10.762 9.54839 10.4896 9.54839C10.2171 9.54839 10.125 9.74532 9.86598 9.74532C9.60698 9.74532 9.49731 9.53064 9.17823 9.53064C8.99098 9.53064 8.77106 9.60735 8.61998 9.6709C8.70689 9.74532 8.80373 9.80658 8.89939 9.8707H12.0961ZM11.1656 10.0224C10.8559 10.0224 10.7101 10.2818 10.5001 10.2818C10.2901 10.2818 10.1069 10.0133 9.86598 10.0133C9.72131 10.0133 9.55214 10.0923 9.43431 10.1564C9.76389 10.2869 10.1215 10.3625 10.5001 10.3625C10.8667 10.3608 11.2295 10.289 11.5681 10.1512C11.462 10.0871 11.3191 10.0224 11.1656 10.0224Z" fill="#083E9D"/>
<path d="M8.61984 6.74231L7.80375 6.4137C7.71959 6.62101 7.66084 6.8374 7.62875 7.05833L8.61984 7.12817V6.74231ZM9.21484 6.98219V7.16996L9.76842 7.20889V7.20489L9.21484 6.98219ZM12.3083 7.12645L13.3705 7.05146C13.3365 6.82017 13.2736 6.59386 13.1833 6.37763L12.3083 6.73029V7.12645ZM11.743 6.95814L11.2454 7.15851L11.2472 7.20088L11.743 7.16596V6.95814ZM12.6542 5.58473L12.3083 5.88128V6.36504L12.9768 6.02154C12.8841 5.86588 12.7761 5.71957 12.6542 5.58473ZM11.743 6.36504L11.2326 6.80185L11.2367 6.91578L11.743 6.65529V6.36504ZM9.75967 6.882L9.21484 6.41542V6.74174L9.76375 7.02627L9.75967 6.882ZM8.61984 5.90647L8.30309 5.63568C8.17864 5.77925 8.06902 5.93458 7.97584 6.0994L8.61984 6.43317V5.90647ZM11.743 5.89903C11.743 5.81201 11.8632 5.76163 11.9921 5.74961L12.3946 5.34028C12.2512 5.22037 12.097 5.11363 11.9338 5.0214L11.2168 6.23909C11.2186 6.33756 11.2221 6.43431 11.225 6.53106L11.7436 6.00322L11.743 5.89903ZM9.21484 5.7914V6.05475L9.75209 6.62839L9.74392 6.34386L8.98909 5.06262C8.84086 5.1521 8.70039 5.25339 8.56909 5.36547L8.88234 5.6998C9.04159 5.67976 9.21484 5.70438 9.21484 5.7914ZM11.2122 5.70782L11.6153 4.8674C11.4606 4.80086 11.3001 4.74817 11.1358 4.70996L10.9742 5.35287C10.9742 5.35287 11.3143 5.36489 11.2413 5.37692C11.2221 5.37978 11.2139 5.51374 11.2122 5.70782ZM9.699 4.76034C9.57592 4.79526 9.46158 4.84736 9.34608 4.89659L9.72642 5.73358L9.699 4.76034ZM8.61984 7.43503L7.59259 7.40812C7.58909 7.43846 7.58325 7.46823 7.58325 7.49972C7.58325 7.61307 7.60192 7.72185 7.61709 7.83062H8.61984V7.43503ZM12.3083 7.83062H13.3828C13.3979 7.72185 13.4166 7.61307 13.4166 7.49972C13.4166 7.46823 13.4108 7.43846 13.4073 7.40812L12.3083 7.44762V7.83062Z" fill="#FF9D11"/>
<path d="M8.77734 5.95258V8.00096C8.77734 8.27805 8.93251 8.94042 9.37876 8.94042C9.98951 8.94042 10.1873 8.1979 10.1873 8.1979C10.1873 8.1979 9.74684 8.57803 9.43418 8.45724C9.12151 8.33644 9.09993 8.15324 9.09993 7.75078V6.00353C9.10051 5.84495 8.77734 5.80945 8.77734 5.95258ZM12.1928 5.95258V8.00096C12.1928 8.27805 12.0376 8.94042 11.5913 8.94042C10.9806 8.94042 10.7828 8.1979 10.7828 8.1979C10.7828 8.1979 11.2233 8.57803 11.5353 8.45724C11.848 8.33644 11.8696 8.15324 11.8696 7.75078V6.00353C11.8702 5.84495 12.1928 5.80945 12.1928 5.95258ZM10.9736 7.09585L9.92534 6.7804V5.13849C9.92534 4.65531 10.3022 4.41715 10.9736 4.64672C10.3903 4.70054 10.2048 5.18257 10.9736 5.54096V7.09585Z" fill="#CE1126"/>
<path d="M11.6667 7.90662C11.6667 7.94841 11.6317 7.98276 11.5892 7.98276H9.33808C9.31755 7.98261 9.29791 7.97454 9.28339 7.96029C9.26887 7.94604 9.26065 7.92676 9.2605 7.90662C9.2605 7.86482 9.2955 7.83047 9.33808 7.83047H11.5892C11.6317 7.83047 11.6667 7.86482 11.6667 7.90662ZM9.92608 8.30851H9.40516L9.62858 8.01825H10.1495L9.92608 8.30851ZM11.007 8.30851H11.5279L11.3045 8.01825H10.783L11.007 8.30851ZM9.71725 7.6696L9.58716 7.53049L9.71666 7.39194C9.74 7.36733 9.73125 7.33355 9.69683 7.31695C9.663 7.30034 9.61575 7.30721 9.59241 7.3324L9.5335 7.39481V7.3095C9.5335 7.28947 9.51717 7.27344 9.49675 7.27344C9.47633 7.27344 9.46 7.28947 9.46 7.3095V7.39481L9.40167 7.3324C9.37833 7.30721 9.33108 7.30034 9.29725 7.31695C9.26283 7.33355 9.25408 7.36733 9.27741 7.39194L9.40691 7.53049L9.27683 7.6696C9.2535 7.69422 9.26283 7.728 9.29666 7.74517C9.33108 7.7612 9.37716 7.75433 9.40108 7.72914L9.49675 7.62667L9.59241 7.72914C9.61633 7.75433 9.663 7.7612 9.69683 7.74517C9.73125 7.728 9.74 7.69422 9.71725 7.6696ZM10.2002 7.6696L10.0702 7.53049L10.1997 7.39194C10.223 7.36733 10.2142 7.33355 10.1798 7.31695C10.146 7.30034 10.0987 7.30721 10.0754 7.3324L10.0165 7.39481V7.3095C10.0165 7.28947 10.0002 7.27344 9.97975 7.27344C9.95933 7.27344 9.943 7.28947 9.943 7.3095V7.39481L9.88466 7.3324C9.86133 7.30721 9.81408 7.30034 9.78025 7.31695C9.74583 7.33355 9.73708 7.36733 9.76041 7.39194L9.88991 7.53049L9.75983 7.6696C9.7365 7.69422 9.74583 7.728 9.77966 7.74517C9.81408 7.7612 9.86016 7.75433 9.88408 7.72914L9.97975 7.62667L10.0754 7.72914C10.0993 7.75433 10.146 7.7612 10.1798 7.74517C10.2142 7.728 10.2236 7.69422 10.2002 7.6696ZM10.6838 7.6696L10.5537 7.53049L10.6832 7.39194C10.7066 7.36733 10.6978 7.33355 10.6634 7.31695C10.6296 7.30034 10.5823 7.30721 10.559 7.3324L10.5001 7.39538V7.31008C10.5001 7.29004 10.4837 7.27401 10.4633 7.27401C10.4429 7.27401 10.4266 7.29004 10.4266 7.31008V7.39538L10.3682 7.33298C10.3449 7.30779 10.2977 7.30092 10.2638 7.31752C10.2294 7.33412 10.2207 7.3679 10.244 7.39252L10.3735 7.53106L10.2434 7.67018C10.2201 7.69479 10.2294 7.72857 10.2632 7.74574C10.2977 7.76177 10.3437 7.7549 10.3677 7.72972L10.4633 7.62724L10.559 7.72972C10.5829 7.7549 10.6296 7.76177 10.6634 7.74574C10.6978 7.728 10.7072 7.69422 10.6838 7.6696ZM11.1686 7.6696L11.0385 7.53049L11.168 7.39194C11.1913 7.36733 11.1826 7.33355 11.1482 7.31695C11.1143 7.30034 11.0671 7.30721 11.0437 7.3324L10.9848 7.39481V7.3095C10.9848 7.28947 10.9685 7.27344 10.9481 7.27344C10.9277 7.27344 10.9113 7.28947 10.9113 7.3095V7.39481L10.853 7.3324C10.8297 7.30721 10.7824 7.30034 10.7486 7.31695C10.7142 7.33355 10.7054 7.36733 10.7287 7.39194L10.8582 7.53049L10.7282 7.6696C10.7048 7.69422 10.7142 7.728 10.748 7.74517C10.7824 7.7612 10.8285 7.75433 10.8524 7.72914L10.9481 7.62667L11.0437 7.72914C11.0677 7.75433 11.1143 7.7612 11.1482 7.74517C11.1826 7.728 11.1919 7.69422 11.1686 7.6696ZM11.6516 7.6696L11.5215 7.53049L11.651 7.39194C11.6743 7.36733 11.6656 7.33355 11.6312 7.31695C11.5973 7.30034 11.5501 7.30721 11.5267 7.3324L11.4678 7.39481V7.3095C11.4678 7.28947 11.4515 7.27344 11.4311 7.27344C11.4107 7.27344 11.3943 7.28947 11.3943 7.3095V7.39481L11.336 7.3324C11.3127 7.30721 11.2654 7.30034 11.2316 7.31695C11.1972 7.33355 11.1884 7.36733 11.2117 7.39194L11.3412 7.53049L11.2112 7.6696C11.1878 7.69422 11.1972 7.728 11.231 7.74517C11.2654 7.7612 11.3115 7.75433 11.3354 7.72914L11.4311 7.62667L11.5267 7.72914C11.5507 7.75433 11.5973 7.7612 11.6312 7.74517C11.6656 7.728 11.6749 7.69422 11.6516 7.6696Z" fill="#630810"/>
</g>
<defs>
<clipPath id="clip0_149_1587">
<rect width="21" height="15" rx="3" fill="white"/>
</clipPath>
</defs>
</svg>
