<svg width="21" height="15" viewBox="0 0 21 15" fill="none" xmlns="http://www.w3.org/2000/svg">
<g clip-path="url(#clip0_149_1601)">
<path d="M18.6667 0.00292969H5.6875V14.9972H18.6667C19.2855 14.9972 19.879 14.7541 20.3166 14.3215C20.7542 13.8889 21 13.3022 21 12.6904V2.30973C21 1.69793 20.7542 1.11119 20.3166 0.678577C19.879 0.245967 19.2855 0.00292969 18.6667 0.00292969Z" fill="#0092C8"/>
<path d="M19.6876 5.03176C18.9946 4.79762 18.2111 4.76129 18.2111 4.76129L17.7007 5.75264C17.7007 5.75264 19.2139 5.78436 19.2139 5.87663C19.2139 5.94007 18.8697 6.50408 18.6545 6.85068C18.5224 6.81319 18.3853 6.7955 18.2479 6.7982C17.5916 6.7982 17.3367 6.94237 17.0631 7.33914C16.7896 7.73591 17.0631 7.89797 17.0631 7.89797C17.0631 7.89797 16.7248 8.64018 15.4578 9.05252L15.8737 7.63211C16.348 7.55368 16.7534 7.79012 16.7534 7.79012C16.7534 7.79012 16.4436 6.88932 16.8263 5.53753C17.2084 4.18459 18.63 3.17536 18.63 3.17536L17.0398 3.64018L17.4446 2.25667C17.4446 2.25667 17.6453 1.82415 17.4446 1.69785C17.314 1.61596 17.2463 1.79128 17.2136 1.92565C17.0006 1.86391 16.7724 1.87903 16.5696 1.96832C16.1683 2.14826 15.2391 1.88816 15.2391 1.88816C15.2391 1.88816 15.6036 2.29243 15.8772 2.36452C15.5856 2.50869 15.0203 2.45448 15.0203 2.45448C15.0203 2.45448 15.7133 2.85125 16.1776 2.70708C16.4862 2.61135 16.8275 2.60327 17.0241 2.60846L16.684 3.74456L15.2385 4.16729C15.2385 4.16729 14.5822 4.68978 14.3635 6.2215C14.1447 7.75321 14.9287 8.88874 14.9287 8.88874C14.9287 8.88874 14.8465 8.14883 15.4736 7.78263L15.0617 9.16094C14.8762 9.20449 14.6885 9.23856 14.4994 9.26302C14.4947 9.25206 13.744 7.58655 13.8711 6.18516C13.9989 4.77917 15.2385 3.34318 15.2385 3.34318L13.6162 3.92623L14.1867 1.96775C14.1867 1.96775 14.5455 1.73361 14.2357 1.58943C13.9271 1.44526 13.9866 1.90662 13.9866 1.90662C13.7966 1.86783 13.599 1.88922 13.422 1.96775C13.0206 2.14768 12.0914 1.88759 12.0914 1.88759C12.0914 1.88759 12.456 2.29185 12.7296 2.36394C12.4379 2.50812 11.8726 2.45391 11.8726 2.45391C11.8726 2.45391 12.5656 2.85068 13.03 2.7065C13.2643 2.63478 13.5085 2.59938 13.7539 2.60154L13.2697 4.05022L11.7939 4.5802C11.7939 4.5802 11.5384 4.94064 11.0099 5.9862C10.4814 7.03118 11.2286 8.52715 11.2286 8.52715C11.2286 8.52715 11.4491 8.19612 11.9158 8.10154L11.6329 8.94929C10.4621 8.41757 10.2084 7.50062 10.2084 7.50062C10.2084 7.50062 10.4091 7.46486 10.4091 7.2486C10.4091 7.04041 10.3192 6.93372 9.71197 6.92565L9.85897 6.40662C10.1244 6.56117 10.3181 6.7982 10.3181 6.7982C10.3181 6.7982 10.0626 5.86106 10.5916 4.92392C11.1201 3.98678 12.3597 3.17594 12.4146 3.17594C12.4437 3.17594 11.5086 3.43891 10.6325 3.68343L10.9982 2.39393C10.9982 2.39393 11.266 2.00466 10.9743 1.91469C10.6826 1.82473 10.7299 2.32184 10.7299 2.32184C10.5605 2.29904 10.3881 2.32382 10.2323 2.39335C9.83097 2.57328 8.90172 2.31319 8.90172 2.31319C8.90172 2.31319 9.2663 2.71746 9.53989 2.78955C9.24822 2.93372 8.68297 2.87951 8.68297 2.87951C8.68297 2.87951 9.37539 3.27628 9.8403 3.13211C10.0618 3.06521 10.2918 3.03024 10.5234 3.0283L10.3052 3.77398L9.1508 4.0952C9.1508 4.0952 8.91397 4.45564 8.64039 5.32069C8.3668 6.18574 8.84105 6.88874 8.84105 6.88874C8.84105 6.88874 8.98689 6.27628 9.44247 6.27628C9.48564 6.27628 9.52822 6.28493 9.57022 6.29301L9.38355 6.93372C8.94722 6.96486 8.8778 7.08309 8.8778 7.26706C8.8778 7.48332 9.11464 7.5012 9.11464 7.5012C9.11464 7.5012 9.0598 7.87951 9.20564 8.34837C9.35147 8.81665 9.02364 8.72669 8.47647 8.45679C8.4403 8.43949 8.40472 8.42969 8.36914 8.417L8.37264 8.41354L7.00005 7.80685C7.00005 7.80685 6.70839 7.3922 6.56255 7.68055C6.41672 7.9689 6.89039 8.03522 6.89039 8.03522L7.67672 8.42738C7.5233 8.50639 7.44689 8.63326 7.52855 8.76187C7.71055 9.05022 8.11189 8.76187 8.93205 9.55483C9.20855 9.82184 9.81289 10.4637 10.6961 11.0191C10.8541 11.1188 18.4392 10.7913 18.3856 10.6563C18.2531 10.3241 17.9661 9.72726 17.5724 9.57328C18.4474 8.7982 18.5022 7.89739 18.5022 7.89739C18.5022 7.89739 18.7391 7.89739 18.9397 7.50062C19.0401 7.30166 19.0307 7.12634 18.9141 7.00004C19.1929 6.46486 19.8783 5.15172 20.0516 4.85183C20.2709 4.47294 20.0521 4.29301 19.6876 5.03176ZM13.5626 9.32069C12.9821 9.32069 12.5032 9.24341 12.1019 9.12403L12.4006 8.10097C12.4595 8.11077 12.5143 8.11423 12.5785 8.13153C13.5054 8.38297 14.4947 9.25783 14.5006 9.26302C14.2176 9.29935 13.9073 9.32069 13.5626 9.32069Z" fill="#FFCC4D"/>
<path d="M20.2348 10.4018C19.7792 10.0777 19.3598 10.1855 19.2688 10.4998C19.1778 10.8141 18.7584 10.6723 18.3028 10.3476C17.8472 10.0229 17.5375 10.0771 17.4459 10.4375C17.3543 10.798 16.8445 10.7617 16.3702 10.4197C15.8966 10.0771 15.4223 10.3297 15.2397 10.5869C15.0577 10.8441 14.9119 10.8701 14.3262 10.5096C13.7406 10.1492 13.3258 10.3655 13.1619 10.6717C12.998 10.9779 12.7606 10.9058 12.2688 10.5737C11.7765 10.2415 11.3209 10.3655 11.0841 10.5737C10.8472 10.7818 10.5188 10.8516 10.0813 10.5737C9.64383 10.2957 9.29733 10.3113 9.07858 10.5344C8.85983 10.7576 8.60491 11.0863 7.91191 10.5552C7.21891 10.0241 6.85491 10.4733 6.50841 10.708C6.16133 10.9427 5.8335 10.3482 5.8335 10.3482V10.7265C5.8335 10.7265 6.16133 11.3211 6.50783 11.0869C6.85433 10.8528 7.21891 10.4029 7.91133 10.9341C8.60375 11.4652 8.85925 11.1365 9.078 10.9133C9.29675 10.6901 9.64325 10.6746 10.0807 10.9525C10.5182 11.2305 10.8461 11.1607 11.0835 10.9525C11.3203 10.7444 11.7765 10.6204 12.2682 10.9525C12.7606 11.2847 12.9974 11.3568 13.1613 11.0506C13.3252 10.7444 13.74 10.5281 14.3257 10.8885C14.9113 11.249 15.0572 11.223 15.2392 10.9658C15.4212 10.7086 15.8954 10.456 16.3697 10.7986C16.8433 11.1411 17.3543 11.1769 17.4453 10.8164C17.5363 10.456 17.8467 10.4018 18.3022 10.7265C18.7578 11.0512 19.1772 11.193 19.2682 10.8787C19.3592 10.5644 19.7787 10.4566 20.2342 10.7807C20.6898 11.1048 21.0002 10.9606 21.0002 10.9606V10.5823C21.0002 10.5823 20.6904 10.7265 20.2348 10.4018Z" fill="black"/>
<path d="M20.2348 10.7807C19.7792 10.4566 19.3598 10.5644 19.2688 10.8787C19.1778 11.193 18.7584 11.0512 18.3028 10.7265C17.8472 10.4018 17.5375 10.456 17.4459 10.8165C17.3543 11.1769 16.8445 11.1406 16.3702 10.7986C15.8966 10.456 15.4223 10.7086 15.2397 10.9658C15.0577 11.223 14.9119 11.249 14.3262 10.8885C13.7406 10.5281 13.3258 10.7444 13.1619 11.0506C12.998 11.3568 12.7606 11.2847 12.2688 10.9526C11.7765 10.6204 11.3209 10.7444 11.0841 10.9526C10.8472 11.1607 10.5188 11.2305 10.0813 10.9526C9.64383 10.6746 9.29733 10.6902 9.07858 10.9133C8.85983 11.1365 8.60491 11.4652 7.91191 10.9341C7.21891 10.403 6.85491 10.8522 6.50841 11.0869C6.16133 11.3211 5.8335 10.7265 5.8335 10.7265V11.0869C5.8335 11.0869 6.16133 11.6815 6.50783 11.4474C6.85433 11.2132 7.21891 10.7634 7.91133 11.2945C8.60375 11.8257 8.85925 11.497 9.078 11.2738C9.29675 11.0506 9.64325 11.035 10.0807 11.313C10.5182 11.591 10.8461 11.5212 11.0835 11.313C11.3203 11.1048 11.7765 10.9808 12.2682 11.313C12.7606 11.6452 12.9974 11.7173 13.1613 11.411C13.3252 11.1048 13.74 10.8885 14.3257 11.249C14.9113 11.6094 15.0572 11.5835 15.2392 11.3263C15.4212 11.0691 15.8954 10.8165 16.3697 11.159C16.8433 11.5016 17.3543 11.5373 17.4453 11.1769C17.5363 10.8165 17.8467 10.7622 18.3022 11.0869C18.7578 11.4116 19.1772 11.5535 19.2682 11.2392C19.3592 10.9249 19.7787 10.817 20.2342 11.1411C20.6898 11.4652 21.0002 11.3211 21.0002 11.3211V10.9606C21.0002 10.9606 20.6904 11.1048 20.2348 10.7807ZM7.09116 12.0962C7.40033 11.7496 7.87516 11.7899 8.23975 12.0962C8.60433 12.4024 8.76825 12.1706 9.11475 11.971C9.46125 11.7715 9.953 11.7594 10.0627 12.0448C10.1723 12.3303 9.60708 11.9416 9.26058 12.2444C8.91408 12.5466 8.35291 12.6365 7.94808 12.2444C7.54325 11.8522 6.81758 12.4024 7.09116 12.0962ZM11.1564 12.1654C11.4895 12.2772 11.9404 12.3124 12.3412 12.0598C12.7419 11.8072 13.0342 11.9255 13.4717 12.272C13.9092 12.6186 14.237 12.5022 14.6383 12.272C15.0397 12.0419 15.3675 11.7536 15.9327 12.0056C16.498 12.2582 16.7716 12.2836 16.9897 12.1988C17.2085 12.1135 16.9897 12.4924 16.4426 12.4018C15.8954 12.3118 15.5127 11.9693 15.0204 12.2934C14.5281 12.6175 13.8899 12.9208 13.3801 12.49C12.8697 12.0592 12.5961 12.1186 12.2863 12.3055C11.9766 12.4918 11.6301 12.5097 11.4475 12.4197C11.2655 12.3303 10.8881 12.0754 11.1564 12.1654ZM18.1745 12.1654C18.3857 12.2917 18.612 12.3245 18.8307 12.1654C19.0495 12.0062 19.2682 12.1354 19.5418 12.287C19.8154 12.4387 19.8697 12.6088 19.5418 12.5056C19.214 12.4024 19.0862 12.1729 18.8307 12.3147C18.5752 12.4566 18.3022 12.497 18.1745 12.3147C18.0467 12.1319 18.0164 12.0708 18.1745 12.1654ZM8.78633 13.0154C9.08616 12.8586 9.57033 12.6371 9.91625 13.0154C10.2627 13.3937 10.4267 13.1953 10.7002 13.0154C10.9738 12.8355 11.2107 12.6186 11.6301 12.8891C12.0495 13.1596 12.2496 13.0852 12.4141 12.9958C12.578 12.907 12.7238 12.9612 12.4141 13.1411C12.1043 13.3211 11.7946 13.3032 11.5572 13.1233C11.3203 12.9433 11.1197 12.8528 10.8099 13.159C10.5002 13.4652 10.0988 13.5569 9.80716 13.268C9.5155 12.9791 9.4245 12.9554 9.13283 13.1025C8.84116 13.2496 8.4865 13.1723 8.78633 13.0154ZM14.3647 13.1025C14.7317 12.911 15.2217 12.5829 15.6224 12.9612C16.0237 13.3395 16.2606 13.1619 16.5884 12.9445C16.9162 12.7271 17.2266 12.4128 17.7002 12.7865C18.1739 13.1596 18.4842 13.1238 18.7211 13.0154C18.9579 12.907 18.8488 13.1146 18.5572 13.1821C18.2655 13.2496 17.8642 13.2496 17.5912 13.0154C17.3176 12.7813 17.0627 12.7934 16.771 13.1025C16.4793 13.4116 15.7502 13.4981 15.4766 13.2207C15.203 12.9433 14.8571 13.1054 14.6016 13.2132C14.3461 13.3211 13.9984 13.294 14.3647 13.1025ZM6.7085 13.3885C6.92608 13.1902 7.21891 13.2674 7.5835 13.6279C7.94808 13.9883 8.112 13.9162 8.44041 13.7363C8.76883 13.5564 9.20575 13.52 9.38833 13.7184C9.57033 13.9168 9.498 13.9797 9.27866 13.8851C9.05991 13.7905 8.84991 13.7363 8.55358 13.9889C8.25783 14.2415 7.72875 14.2951 7.47383 13.9889C7.21833 13.6827 7.0725 13.5022 6.87241 13.5742C6.67175 13.6458 6.41683 13.6538 6.7085 13.3885ZM11.7578 13.7398C11.9702 13.5143 12.396 13.3291 12.8148 13.7398C13.2342 14.1504 13.3072 14.0962 13.635 13.8799C13.9628 13.6636 14.3461 13.4156 14.7468 13.783C15.1482 14.1504 15.3121 14.0783 15.658 13.8799C16.0045 13.6815 16.3142 13.5062 16.6969 13.783C17.0796 14.0598 17.3712 14.1319 17.6997 13.9341C18.0275 13.7357 18.0998 13.824 17.7907 14.0783C17.5352 14.2876 17.0726 14.3666 16.7517 14.0604C16.3498 13.6769 16.0955 13.7899 15.7671 14.0246C15.4392 14.2588 14.9282 14.313 14.6366 14.0068C14.3449 13.7005 14.1442 13.7905 13.8712 14.0068C13.5977 14.223 13.1275 14.4439 12.7956 13.9889C12.4637 13.5339 12.1393 13.7363 11.9754 13.8268C11.8127 13.9162 11.4481 14.0685 11.7578 13.7398Z" fill="#BBDDF5"/>
<path d="M0 9.80664V12.6901C0 13.3019 0.245833 13.8887 0.683418 14.3213C1.121 14.7539 1.71449 14.997 2.33333 14.997H5.83333V9.80664H0Z" fill="#CA0000"/>
<path d="M4.74899 11.3296C4.51216 11.4196 4.29341 11.3925 4.00174 11.0632C3.94838 11.0036 3.88379 10.9548 3.81157 10.9196C3.95216 10.9525 4.13182 11.0188 4.28407 11.032C4.58507 11.0591 4.88549 10.8429 4.88549 10.8429C4.88549 10.8429 4.74899 10.7345 4.38441 10.6358C4.08632 10.5545 3.58641 10.6151 3.41257 10.8481C3.27141 10.8561 3.13607 10.8844 3.02641 10.8977C2.83624 10.9202 2.61632 10.8348 2.61632 10.8348C2.61632 10.8348 2.58016 10.3931 2.06916 10.3931C1.62232 10.3931 1.61357 10.7985 1.61357 10.7985C1.61357 10.7985 1.38549 10.9069 1.38549 10.5891C1.38549 10.2714 1.12999 10.2892 0.907156 10.2892C0.684323 10.2892 0.628906 10.276 0.628906 10.5643C0.628906 10.8527 0.792823 10.7985 0.893156 10.8884C0.893156 10.8884 0.99349 11.3931 1.59491 11.321C1.62174 11.37 1.63107 11.4922 1.63107 11.4922C1.63107 11.4922 1.52199 11.5222 1.34874 11.483C1.09032 11.4248 0.901906 11.3931 0.901906 11.7443C0.901906 12.0955 1.27582 11.9969 1.80432 11.9969C2.33282 11.9969 2.36024 11.6728 2.36024 11.6728C2.36024 11.6728 2.60641 11.6007 2.89807 11.6185C2.82516 11.6814 2.86657 11.8342 2.93424 11.9069C3.07599 12.058 3.33557 11.9969 3.53566 11.9969C3.73574 11.9969 3.82732 11.8435 3.78182 11.6364C3.97316 11.7714 4.50166 11.5193 4.43807 11.6364C4.37449 11.7535 4.52907 12.0418 4.93041 11.8798C5.33232 11.7166 4.98582 11.2391 4.74899 11.3296Z" fill="#FFCC4D"/>
<path d="M1.96399 11.2762C2.0571 11.2762 2.13258 11.1995 2.13258 11.1049C2.13258 11.0103 2.0571 10.9336 1.96399 10.9336C1.87089 10.9336 1.79541 11.0103 1.79541 11.1049C1.79541 11.1995 1.87089 11.2762 1.96399 11.2762Z" fill="black"/>
<path d="M1.96402 10.7847C1.96402 10.8268 1.90569 10.8614 1.83394 10.8614C1.76219 10.8614 1.70386 10.8274 1.70386 10.7847C1.70386 10.7426 1.76219 10.708 1.83394 10.708C1.90627 10.7086 1.96402 10.7426 1.96402 10.7847Z" fill="black"/>
<path d="M2.13277 10.8614C2.20461 10.8614 2.26285 10.8271 2.26285 10.7847C2.26285 10.7423 2.20461 10.708 2.13277 10.708C2.06093 10.708 2.00269 10.7423 2.00269 10.7847C2.00269 10.8271 2.06093 10.8614 2.13277 10.8614Z" fill="black"/>
<path d="M4.74899 13.357C4.51216 13.4469 4.29341 13.4198 4.00174 13.0905C3.94838 13.0309 3.88379 12.9821 3.81157 12.9469C3.95216 12.9804 4.13182 13.0461 4.28407 13.0594C4.58507 13.0865 4.88549 12.8702 4.88549 12.8702C4.88549 12.8702 4.74899 12.7618 4.38441 12.6632C4.08632 12.5819 3.58699 12.643 3.41257 12.8754C3.27141 12.8835 3.13607 12.9117 3.02641 12.925C2.83624 12.9475 2.61632 12.8621 2.61632 12.8621C2.61632 12.8621 2.58016 12.4204 2.06916 12.4204C1.62232 12.4204 1.61357 12.8258 1.61357 12.8258C1.61357 12.8258 1.38549 12.9342 1.38549 12.6165C1.38549 12.2987 1.12999 12.3166 0.907156 12.3166C0.684323 12.3166 0.628906 12.3033 0.628906 12.5917C0.628906 12.88 0.792823 12.8258 0.893156 12.9158C0.893156 12.9158 0.99349 13.4204 1.59491 13.3483C1.62174 13.3973 1.63107 13.5196 1.63107 13.5196C1.63107 13.5196 1.52199 13.5496 1.34874 13.5104C1.09032 13.4521 0.901906 13.4204 0.901906 13.7716C0.901906 14.1228 1.27582 14.0242 1.80432 14.0242C2.33282 14.0242 2.36024 13.7001 2.36024 13.7001C2.36024 13.7001 2.60641 13.628 2.89807 13.6459C2.82516 13.7087 2.86657 13.8616 2.93424 13.9342C3.07599 14.0853 3.33557 14.0242 3.53566 14.0242C3.73574 14.0242 3.82732 13.8708 3.78182 13.6638C3.97316 13.7987 4.50166 13.5467 4.43807 13.6638C4.37449 13.7808 4.52907 14.0692 4.93041 13.9071C5.33232 13.7445 4.98582 13.267 4.74899 13.357Z" fill="#FFCC4D"/>
<path d="M2.13261 13.1321C2.13292 13.1543 2.1288 13.1763 2.12049 13.197C2.11219 13.2176 2.09986 13.2364 2.0842 13.2523C2.06855 13.2682 2.04988 13.2809 2.02926 13.2897C2.00864 13.2984 1.98647 13.3031 1.96402 13.3034C1.94158 13.3031 1.91941 13.2984 1.89879 13.2897C1.87817 13.2809 1.8595 13.2682 1.84385 13.2523C1.82819 13.2364 1.81586 13.2176 1.80755 13.197C1.79925 13.1763 1.79513 13.1543 1.79544 13.1321C1.79544 13.0375 1.87069 12.9608 1.96402 12.9608C2.05736 12.9608 2.13261 13.0375 2.13261 13.1321ZM1.96402 12.8121C1.96402 12.8542 1.90569 12.8888 1.83394 12.8888C1.76219 12.8888 1.70386 12.8542 1.70386 12.8121C1.70386 12.77 1.76219 12.7354 1.83394 12.7354C1.90627 12.7354 1.96402 12.77 1.96402 12.8121ZM2.26269 12.8121C2.26269 12.8542 2.20436 12.8888 2.13261 12.8888C2.06086 12.8888 2.00252 12.8542 2.00252 12.8121C2.00252 12.77 2.06086 12.7354 2.13261 12.7354C2.20436 12.7354 2.26269 12.77 2.26269 12.8121Z" fill="black"/>
<path d="M0 5.19336H5.83333V9.80697H0V5.19336Z" fill="#EEEEEE"/>
<path d="M1.21275 7.10743L1.05058 6.86464C1.04417 6.66452 1.01383 6.50881 0.975333 6.50881C0.936833 6.50881 0.9065 6.66395 0.900083 6.86464L0.737917 7.10743C0.70175 7.16222 0.7315 7.2072 0.805583 7.2072H0.917C0.931 7.29659 0.951417 7.35541 0.97475 7.35541C0.998083 7.35541 1.0185 7.29601 1.0325 7.2072H1.14392C1.21917 7.20778 1.24892 7.16279 1.21275 7.10743ZM1.05292 6.26026C1.05292 6.39694 1.01792 6.38367 0.975333 6.38367C0.93275 6.38367 0.89775 6.39694 0.89775 6.26026C0.89775 6.12416 0.93275 6.01343 0.975333 6.01343C1.0185 6.01343 1.05292 6.12416 1.05292 6.26026ZM1.16608 6.53707C1.02783 6.53707 1.04125 6.50247 1.04125 6.46037C1.04125 6.41827 1.02783 6.38367 1.16608 6.38367C1.30375 6.38367 1.41575 6.4177 1.41575 6.46037C1.41575 6.50305 1.30375 6.53707 1.16608 6.53707ZM0.785167 6.53707C0.923417 6.53707 0.91 6.50247 0.91 6.46037C0.91 6.41827 0.923417 6.38367 0.785167 6.38367C0.6475 6.38367 0.5355 6.4177 0.5355 6.46037C0.5355 6.50305 0.6475 6.53707 0.785167 6.53707ZM3.04675 7.10743L2.88458 6.86464C2.87817 6.66452 2.84783 6.50881 2.80933 6.50881C2.77083 6.50881 2.7405 6.66395 2.73408 6.86464L2.5725 7.10743C2.53633 7.16222 2.56608 7.2072 2.64017 7.2072H2.75158C2.76558 7.29659 2.786 7.35541 2.80933 7.35541C2.83267 7.35541 2.85308 7.29601 2.86708 7.2072H2.9785C3.05317 7.20778 3.08292 7.16279 3.04675 7.10743ZM2.88692 6.26026C2.88692 6.39694 2.85192 6.38367 2.80933 6.38367C2.76675 6.38367 2.73175 6.39694 2.73175 6.26026C2.73175 6.12416 2.76675 6.01343 2.80933 6.01343C2.8525 6.01343 2.88692 6.12416 2.88692 6.26026ZM3.00008 6.53707C2.86183 6.53707 2.87525 6.50247 2.87525 6.46037C2.87525 6.41827 2.86183 6.38367 3.00008 6.38367C3.13775 6.38367 3.24975 6.4177 3.24975 6.46037C3.24975 6.50305 3.13775 6.53707 3.00008 6.53707ZM2.61917 6.53707C2.75742 6.53707 2.744 6.50247 2.744 6.46037C2.744 6.41827 2.75742 6.38367 2.61917 6.38367C2.4815 6.38367 2.3695 6.4177 2.3695 6.46037C2.3695 6.50305 2.4815 6.53707 2.61917 6.53707ZM4.92392 7.10743L4.76175 6.86464C4.75533 6.66452 4.725 6.50881 4.6865 6.50881C4.648 6.50881 4.61767 6.66395 4.61125 6.86464L4.44908 7.10743C4.41292 7.16222 4.44267 7.2072 4.51675 7.2072H4.62817C4.64217 7.29659 4.66258 7.35541 4.68592 7.35541C4.70925 7.35541 4.72967 7.29601 4.74367 7.2072H4.85508C4.93092 7.20778 4.96067 7.16279 4.92392 7.10743ZM4.76467 6.26026C4.76467 6.39694 4.72967 6.38367 4.68708 6.38367C4.6445 6.38367 4.6095 6.39694 4.6095 6.26026C4.6095 6.12416 4.6445 6.01343 4.68708 6.01343C4.72967 6.01343 4.76467 6.12416 4.76467 6.26026ZM4.87725 6.53707C4.739 6.53707 4.75242 6.50247 4.75242 6.46037C4.75242 6.41827 4.739 6.38367 4.87725 6.38367C5.01492 6.38367 5.12692 6.4177 5.12692 6.46037C5.1275 6.50305 5.0155 6.53707 4.87725 6.53707ZM4.49692 6.53707C4.63517 6.53707 4.62175 6.50247 4.62175 6.46037C4.62175 6.41827 4.63517 6.38367 4.49692 6.38367C4.35925 6.38367 4.24725 6.4177 4.24725 6.46037C4.24725 6.50305 4.35925 6.53707 4.49692 6.53707ZM3.49125 5.5959C3.45508 5.65068 3.48483 5.69567 3.55892 5.69567H3.67033C3.68433 5.78505 3.70475 5.84388 3.72808 5.84388C3.75142 5.84388 3.77183 5.78448 3.78583 5.69567H3.89725C3.97133 5.69567 4.00108 5.65068 3.96492 5.5959L3.80333 5.35311C3.80168 5.2997 3.7976 5.2464 3.79108 5.19336H3.66508C3.65878 5.24641 3.65489 5.29971 3.65342 5.35311L3.49125 5.5959ZM1.659 5.5959C1.62283 5.65068 1.65258 5.69567 1.72667 5.69567H1.83808C1.85208 5.78505 1.8725 5.84388 1.89583 5.84388C1.91917 5.84388 1.93958 5.78448 1.95358 5.69567H2.065C2.13908 5.69567 2.16883 5.65068 2.13267 5.5959L1.9705 5.35311C1.9692 5.29972 1.96551 5.24642 1.95942 5.19336H1.83283C1.82653 5.24641 1.82264 5.29971 1.82117 5.35311L1.659 5.5959ZM0.205333 7.74699C0.205333 7.88367 0.170333 7.87041 0.12775 7.87041C0.0851667 7.87041 0.0501667 7.88367 0.0501667 7.74699C0.0501667 7.61089 0.0851667 7.50016 0.12775 7.50016C0.170333 7.50016 0.205333 7.61089 0.205333 7.74699ZM0.317917 8.02381C0.179667 8.02381 0.193083 7.98921 0.193083 7.94711C0.193083 7.90501 0.179667 7.87041 0.317917 7.87041C0.455583 7.87041 0.567583 7.90443 0.567583 7.94711C0.568167 7.98978 0.456167 8.02381 0.317917 8.02381ZM0.12775 5.84445C0.151083 5.84445 0.1715 5.78505 0.1855 5.69624H0.2975C0.371583 5.69624 0.401333 5.65126 0.365167 5.59647L0.203 5.35368C0.201371 5.30009 0.197284 5.24659 0.19075 5.19336H0.06475C0.0584492 5.24641 0.0545564 5.29971 0.0530833 5.35311L0 5.43269V5.69624H0.07C0.0845833 5.78505 0.104417 5.84445 0.12775 5.84445ZM0.12775 8.84272C0.151083 8.84272 0.1715 8.78332 0.1855 8.69394H0.2975C0.371583 8.69394 0.401333 8.64895 0.365167 8.59417L0.203 8.35138C0.197167 8.15068 0.16625 7.99555 0.12775 7.99555C0.08925 7.99555 0.0589167 8.15068 0.0525 8.35138L0 8.43096V8.69394H0.07C0.084 8.78332 0.104417 8.84272 0.12775 8.84272ZM0.0624167 7.94711C0.0624167 7.91308 0.0676667 7.8854 0 7.8756V8.0192C0.0670833 8.00881 0.0624167 7.98113 0.0624167 7.94711ZM2.142 8.59474L1.97983 8.35195C1.974 8.15126 1.94308 7.99613 1.90458 7.99613C1.86608 7.99613 1.83575 8.15126 1.82933 8.35195L1.66833 8.59474C1.63217 8.64953 1.66192 8.69451 1.736 8.69451H1.84742C1.86142 8.7839 1.88183 8.8433 1.90517 8.8433C1.9285 8.8433 1.94892 8.7839 1.96292 8.69451H2.07433C2.149 8.69394 2.17875 8.64895 2.142 8.59474ZM1.98275 7.74699C1.98275 7.88367 1.94775 7.87041 1.90517 7.87041C1.86258 7.87041 1.82758 7.88367 1.82758 7.74699C1.82758 7.61089 1.86258 7.50016 1.90517 7.50016C1.94775 7.50016 1.98275 7.61089 1.98275 7.74699ZM2.09533 8.02381C1.95708 8.02381 1.9705 7.98921 1.9705 7.94711C1.9705 7.90501 1.95708 7.87041 2.09533 7.87041C2.233 7.87041 2.345 7.90443 2.345 7.94711C2.345 7.98978 2.23358 8.02381 2.09533 8.02381ZM1.715 8.02381C1.85325 8.02381 1.83983 7.98921 1.83983 7.94711C1.83983 7.90501 1.85325 7.87041 1.715 7.87041C1.57733 7.87041 1.46533 7.90443 1.46533 7.94711C1.46533 7.98978 1.57733 8.02381 1.715 8.02381ZM3.98358 8.59474L3.82142 8.35195C3.81558 8.15126 3.78467 7.99613 3.74617 7.99613C3.70767 7.99613 3.67733 8.15126 3.67092 8.35195L3.50875 8.59474C3.47258 8.64953 3.50233 8.69451 3.57642 8.69451H3.68783C3.70183 8.7839 3.72225 8.8433 3.74558 8.8433C3.76892 8.8433 3.78933 8.7839 3.80333 8.69451H3.91475C3.99 8.69394 4.01975 8.64895 3.98358 8.59474ZM3.82375 7.74699C3.82375 7.88367 3.78875 7.87041 3.74617 7.87041C3.70358 7.87041 3.66858 7.88367 3.66858 7.74699C3.66917 7.61089 3.70358 7.50016 3.74617 7.50016C3.78933 7.50016 3.82375 7.61089 3.82375 7.74699ZM3.93692 8.02381C3.79867 8.02381 3.81208 7.98921 3.81208 7.94711C3.81208 7.90501 3.79867 7.87041 3.93692 7.87041C4.07458 7.87041 4.18658 7.90443 4.18658 7.94711C4.18658 7.98978 4.07458 8.02381 3.93692 8.02381ZM3.556 8.02381C3.69425 8.02381 3.68083 7.98921 3.68083 7.94711C3.68083 7.90501 3.69425 7.87041 3.556 7.87041C3.41833 7.87041 3.30633 7.90443 3.30633 7.94711C3.30633 7.98978 3.41833 8.02381 3.556 8.02381ZM5.71375 7.74699C5.71375 7.88367 5.67875 7.87041 5.63617 7.87041C5.59358 7.87041 5.55917 7.88425 5.55917 7.74699C5.55917 7.61089 5.59358 7.50016 5.63675 7.50016C5.67992 7.50016 5.71375 7.61089 5.71375 7.74699ZM5.369 5.5959C5.33283 5.65068 5.36258 5.69567 5.43667 5.69567H5.54808C5.56208 5.78505 5.5825 5.84388 5.60583 5.84388C5.62917 5.84388 5.64958 5.78448 5.66358 5.69567H5.775C5.80358 5.69567 5.81875 5.68413 5.83333 5.67317V5.58206L5.6805 5.35311C5.67903 5.29971 5.67513 5.24641 5.66883 5.19336H5.54283C5.53653 5.24641 5.53264 5.29971 5.53117 5.35311L5.369 5.5959ZM5.63675 7.99555C5.59825 7.99555 5.56792 8.15068 5.5615 8.35138L5.39933 8.59417C5.36317 8.64895 5.39292 8.69394 5.467 8.69394H5.57842C5.59242 8.78332 5.61283 8.84272 5.63617 8.84272C5.6595 8.84272 5.67992 8.78332 5.69392 8.69394H5.80533C5.81875 8.69394 5.82225 8.68586 5.83275 8.68356V8.53419L5.71083 8.35195C5.70558 8.15126 5.67467 7.99555 5.63675 7.99555ZM5.70208 7.94711C5.70208 7.98921 5.68867 8.02381 5.82692 8.02381L5.83333 8.02323V7.87098L5.82692 7.87041C5.68808 7.87098 5.70208 7.90501 5.70208 7.94711ZM5.446 8.02381C5.58425 8.02381 5.57083 7.98921 5.57083 7.94711C5.57083 7.90501 5.58425 7.87041 5.446 7.87041C5.30833 7.87041 5.19633 7.90443 5.19633 7.94711C5.19633 7.98978 5.30833 8.02381 5.446 8.02381ZM4.62817 9.80697H4.767C4.75592 9.65068 4.72967 9.5365 4.69758 9.5365C4.6655 9.5365 4.63925 9.65068 4.62817 9.80697ZM4.77517 9.28794C4.77517 9.42519 4.74017 9.41193 4.69758 9.41193C4.655 9.41193 4.62 9.42519 4.62 9.28794C4.62 9.15184 4.655 9.04111 4.69758 9.04111C4.74017 9.04111 4.77517 9.15126 4.77517 9.28794ZM4.88775 9.56475C4.7495 9.56475 4.76292 9.53015 4.76292 9.48805C4.76292 9.44595 4.7495 9.41135 4.88775 9.41135C5.02542 9.41135 5.13742 9.44538 5.13742 9.48805C5.138 9.53073 5.026 9.56475 4.88775 9.56475ZM4.50742 9.56475C4.64567 9.56475 4.63225 9.53015 4.63225 9.48805C4.63225 9.44595 4.64567 9.41135 4.50742 9.41135C4.36975 9.41135 4.25775 9.44538 4.25775 9.48805C4.25775 9.53073 4.36975 9.56475 4.50742 9.56475ZM2.90675 9.28794C2.90675 9.42519 2.87175 9.41193 2.82917 9.41193C2.78658 9.41193 2.75158 9.42519 2.75158 9.28794C2.75158 9.15184 2.78658 9.04111 2.82917 9.04111C2.87175 9.04111 2.90675 9.15126 2.90675 9.28794ZM3.01933 9.56475C2.88108 9.56475 2.8945 9.53015 2.8945 9.48805C2.8945 9.44595 2.88108 9.41135 3.01933 9.41135C3.157 9.41135 3.269 9.44538 3.269 9.48805C3.269 9.53073 3.15758 9.56475 3.01933 9.56475ZM2.639 9.56475C2.77725 9.56475 2.76383 9.53015 2.76383 9.48805C2.76383 9.44595 2.77725 9.41135 2.639 9.41135C2.50133 9.41135 2.38933 9.44538 2.38933 9.48805C2.38933 9.53073 2.50133 9.56475 2.639 9.56475ZM2.75975 9.80697H2.89858C2.8875 9.65068 2.86125 9.5365 2.82917 9.5365C2.79708 9.5365 2.77083 9.65068 2.75975 9.80697ZM0.884333 9.80697H1.02317C1.01208 9.65068 0.985833 9.5365 0.95375 9.5365C0.921667 9.5365 0.895417 9.65068 0.884333 9.80697ZM1.03133 9.28794C1.03133 9.42519 0.996333 9.41193 0.95375 9.41193C0.911167 9.41193 0.876167 9.42519 0.876167 9.28794C0.876167 9.15184 0.911167 9.04111 0.95375 9.04111C0.996333 9.04111 1.03133 9.15126 1.03133 9.28794ZM1.14392 9.56475C1.00567 9.56475 1.01908 9.53015 1.01908 9.48805C1.01908 9.44595 1.00567 9.41135 1.14392 9.41135C1.28158 9.41135 1.39358 9.44538 1.39358 9.48805C1.39358 9.53073 1.28158 9.56475 1.14392 9.56475ZM0.763583 9.56475C0.901833 9.56475 0.888417 9.53015 0.888417 9.48805C0.888417 9.44595 0.901833 9.41135 0.763583 9.41135C0.625917 9.41135 0.513917 9.44538 0.513917 9.48805C0.513333 9.53073 0.625333 9.56475 0.763583 9.56475Z" fill="#292F33"/>
<path d="M0 5.19324V2.30973C0 1.69793 0.245833 1.11119 0.683418 0.678577C1.121 0.245967 1.71449 0.00292969 2.33333 0.00292969L2.91667 0.579631L3.5 0.00292969H5.83333V5.19324H3.5L2.91667 4.61654L2.33333 5.19324H0Z" fill="#DC241F"/>
<path d="M5.83333 0.862214V0.00292969H5.50258L3.5 1.78494L2.91667 2.2982L2.33333 1.78494L0.889 0.49947L0.887833 0.498893L0.88725 0.49947C0.65975 0.677094 0.466083 0.896817 0.3185 1.14537L0.32025 1.14711L1.6135 2.2982L2.331 2.88067L1.6135 3.46314L0 4.89912V5.19324H0.965417L2.33333 3.9764L2.91667 3.46314L3.5 3.9764L4.86792 5.19324H5.83333V4.89912L4.21983 3.46314L3.49825 2.88067L4.21983 2.2982L5.83333 0.862214Z" fill="#009543"/>
<path d="M3.5 2.29762V0.00292969H2.33333V2.29762H0.000583333L0 2.30973V3.46314H2.33333V5.19324H3.5V3.46314H5.83333V2.29762H3.5Z" fill="#EEEEEE"/>
</g>
<defs>
<clipPath id="clip0_149_1601">
<rect width="21" height="15" rx="3" fill="white"/>
</clipPath>
</defs>
</svg>
