<svg width="21" height="15" viewBox="0 0 21 15" fill="none" xmlns="http://www.w3.org/2000/svg">
<rect width="21" height="15" rx="3" fill="#1A47B8"/>
<g clip-path="url(#clip0_149_1641)">
<path d="M0 1.6C0 0.716345 0.716345 0 1.6 0H11.2V6.4C11.2 7.28366 10.4837 8 9.6 8H0V1.6Z" fill="#1A47B8"/>
<path fill-rule="evenodd" clip-rule="evenodd" d="M1.19145 0H0V1.33333L10.0021 8L11.2 8V6.66667L1.19145 0Z" fill="white"/>
<path d="M0.397386 0L11.2 7.2189V8H10.8119L0 0.773631V0H0.397386Z" fill="#F93939"/>
<path fill-rule="evenodd" clip-rule="evenodd" d="M10.1333 0H11.2V1.33333C11.2 1.33333 4.2719 5.77496 1.06667 8H0V6.66667L10.1333 0Z" fill="white"/>
<path d="M11.2 0H10.8383L0 7.22511V8H0.397386L11.2 0.779474V0Z" fill="#F93939"/>
<path fill-rule="evenodd" clip-rule="evenodd" d="M4.07311 0H7.13621V2.46764H11.2V5.53074H7.13621V8H4.07311V5.53074H0V2.46764H4.07311V0Z" fill="white"/>
<path fill-rule="evenodd" clip-rule="evenodd" d="M4.71579 0H6.48421V3.07692H11.2V4.92308H6.48421V8H4.71579V4.92308H0V3.07692H4.71579V0Z" fill="#F93939"/>
</g>
<path d="M18.0001 7.25784C17.9953 8.96297 17.7242 10.8 15.5002 11.675C13.2762 10.8 13.0051 8.96297 13.0002 7.25781L18.0001 7.25784Z" fill="#128BBF"/>
<path d="M15.5002 11.6741C16.5084 11.2774 17.1329 10.6302 17.4955 9.93994C17.4383 9.92067 17.3244 9.91891 17.2784 9.93545C17.2236 9.93193 15.1283 9.77755 14.8823 9.68798C14.6682 9.61007 13.8515 9.75417 13.4702 9.88938C13.8259 10.6235 14.4419 11.2577 15.5002 11.6741Z" fill="#E8ECE9"/>
<path d="M13.9458 10.6177C13.9798 10.6067 14.0447 10.6093 14.0703 10.6139C14.1004 10.6193 14.1058 10.6221 14.1168 10.5895C14.1277 10.5569 14.1523 10.5651 14.1715 10.5813C14.1906 10.5976 14.2398 10.5895 14.2589 10.5623C14.2781 10.5353 14.2835 10.538 14.3027 10.5569C14.3218 10.5759 14.33 10.5705 14.3492 10.5651C14.3683 10.5597 14.4011 10.538 14.4175 10.5082C14.4339 10.4783 14.4584 10.4674 14.4721 10.4837C14.4858 10.5 14.4995 10.5082 14.5186 10.5054C14.5378 10.5027 14.5433 10.5217 14.5405 10.5461C14.5378 10.5705 14.5487 10.5759 14.5952 10.538C14.6363 10.5786 14.6498 10.5623 14.6498 10.519C14.6498 10.4756 14.639 10.3155 14.6226 10.2938C14.6061 10.2721 14.5897 10.2096 14.587 10.1608C14.5818 10.0686 14.5815 10.0632 14.4694 10.0062C14.4694 9.97359 14.4612 9.96002 14.382 9.96545C14.3847 9.95459 14.371 9.92202 14.3546 9.90845C14.3382 9.89488 14.3355 9.88945 14.3437 9.85155C14.3765 9.85427 14.4121 9.84884 14.4312 9.8217C14.4503 9.79455 14.5132 9.79996 14.5515 9.81627C14.5897 9.83255 14.639 9.83527 14.7127 9.82441C14.7401 9.80267 14.7866 9.77824 14.8358 9.7511C14.8849 9.72396 14.8986 9.7131 14.9013 9.67511C14.9084 9.5777 14.874 9.46619 14.8466 9.41472C14.8194 9.36315 14.8112 9.29799 14.7729 9.21656C14.7312 9.12792 14.7318 9.10535 14.6854 9.05107C14.6726 9.03614 14.658 9.02393 14.6553 8.99417C14.6525 8.96432 14.6416 8.92361 14.6089 8.89375C14.5262 8.81846 14.494 8.57624 14.4612 8.39718C14.4423 8.29457 14.4557 8.05266 14.4121 8.01466C14.3382 7.95492 14.3027 7.9658 14.2534 7.9468C14.2179 7.89792 14.2016 7.80029 14.1687 7.71344C14.1168 7.72158 14.0812 7.77589 14.0457 7.79486C14.0101 7.81389 14.0047 7.81389 14.0047 7.86274C14.0047 7.9115 13.9773 7.97935 13.9282 8.05537C13.8789 8.13127 13.7969 8.10966 13.7286 8.22358C13.5782 8.0418 13.5754 7.99023 13.5645 7.93864C13.5535 7.88717 13.5289 7.87631 13.4443 7.80303C13.4443 7.78132 13.4333 7.69454 13.4415 7.64571C13.3786 7.59411 13.3321 7.60225 13.3021 7.64025C13.2721 7.67825 13.2502 7.73517 13.2037 7.75686C13.1758 7.79205 13.0917 7.88081 13.0229 7.98646C13.0855 8.93069 13.3002 9.86806 13.9458 10.6177Z" fill="#69522B"/>
<path d="M17.9999 7.25734C18.0018 6.61503 17.9658 5.99143 17.9823 5.44497C17.1512 5.0759 16.0577 5 15.5 5C14.9423 5 13.8488 5.0759 13.0177 5.44497C13.0341 5.99143 12.9983 6.61503 13.0001 7.25731L17.9999 7.25734Z" fill="#BCA76B"/>
<path d="M13.1353 8.00032C13.1626 8.04374 13.2119 8.11838 13.2173 8.159C13.2365 8.11964 13.2515 8.1021 13.2556 8.07767C13.2597 8.05324 13.2884 8.00574 13.2775 7.97996C13.2665 7.95415 13.2583 7.93379 13.2884 7.95282C13.3184 7.97182 13.3126 8.00469 13.3061 8.05324C13.2884 8.18616 13.2324 8.2133 13.2242 8.30287C13.3048 8.49143 13.2447 8.55929 13.3321 8.74377C13.3458 8.75192 13.3823 8.73742 13.3932 8.74013C13.4396 8.70754 13.4743 8.71935 13.5398 8.73292C13.6055 8.74649 13.641 8.79253 13.641 8.83324C13.641 8.87395 13.641 8.88484 13.6547 8.90926C13.6684 8.93369 13.6958 8.97169 13.6903 8.99883C13.6848 9.02587 13.6958 9.04216 13.7039 9.05573C13.7122 9.0693 13.7012 9.09916 13.693 9.11818C13.6848 9.13718 13.6875 9.16161 13.7204 9.20232C13.7532 9.24293 13.8297 9.41392 13.8297 9.51427C13.8297 9.61472 13.8351 9.66086 13.8762 9.67976C13.9172 9.69876 13.9309 9.71505 13.9254 9.75847C13.9199 9.80193 13.9445 10.0271 13.95 10.0624C13.9555 10.0977 13.9692 10.0896 13.9856 10.1086C14.0019 10.1275 14.0128 10.1492 14.0675 10.1492C14.1222 10.1492 14.175 10.142 14.2106 10.1474C14.2598 10.2153 14.2899 10.3074 14.3008 10.3644C14.3118 10.4215 14.3108 10.4992 14.33 10.4992C14.3491 10.4992 14.3683 10.502 14.3628 10.4314C14.3573 10.3608 14.3519 10.3499 14.3273 10.3148C14.3026 10.2795 14.289 10.2632 14.3026 10.2414C14.3163 10.2197 14.319 10.1844 14.3136 10.1573C14.3081 10.1302 14.2999 10.0896 14.3464 10.1437C14.3929 10.198 14.4066 10.2116 14.4202 10.2306C14.4339 10.2496 14.4393 10.2849 14.4367 10.3175C14.4339 10.3499 14.4393 10.3635 14.4584 10.3472C14.4776 10.331 14.5022 10.3581 14.4912 10.3934C14.4803 10.4286 14.494 10.4504 14.5268 10.4612C14.5596 10.4721 14.5733 10.4802 14.5815 10.5047C14.5897 10.5291 14.6171 10.5399 14.6171 10.4911C14.6171 10.4422 14.5979 10.3391 14.5842 10.3066C14.5706 10.274 14.5596 10.2034 14.5569 10.1627C14.5542 10.122 14.5459 10.1113 14.5268 10.1031C14.5076 10.095 14.4912 10.0814 14.4885 10.0624C14.4858 10.0434 14.4694 10.0366 14.4571 10.0366C14.4447 10.0366 14.4339 10.0271 14.4271 10.0135C14.4202 9.99996 14.4134 9.9986 14.3997 9.99725C14.3861 9.99589 14.3642 10.004 14.3573 9.98232C14.3505 9.9606 14.3409 9.92939 14.3273 9.91175C14.3136 9.89411 14.3013 9.88868 14.2999 9.82771C14.2985 9.76664 14.2971 9.75847 14.278 9.73676C14.2589 9.71505 14.2261 9.65815 14.2124 9.63372C14.1988 9.60929 14.1851 9.58487 14.1851 9.63644C14.1851 9.68791 14.1851 9.71505 14.2178 9.73405C14.2507 9.75304 14.2589 9.75304 14.2452 9.78019C14.2315 9.80733 14.2452 9.82635 14.2507 9.84535C14.2561 9.86435 14.2671 9.88335 14.2507 9.90225C14.2342 9.92125 14.2178 9.91582 14.2206 9.88606C14.2233 9.85621 14.2124 9.82092 14.1988 9.7965C14.1851 9.77204 14.1742 9.75578 14.1578 9.76935C14.1414 9.78293 14.1277 9.76662 14.1386 9.75578C14.1496 9.7449 14.1468 9.73676 14.1386 9.72864C14.1304 9.72047 14.1277 9.71233 14.1414 9.69605C14.155 9.67976 14.155 9.67162 14.1468 9.63372C14.1386 9.59572 14.0785 9.40578 14.0511 9.36238C14.0237 9.31893 14.0265 9.28636 14.062 9.32978C14.0976 9.37324 14.1277 9.41121 14.1304 9.44639C14.1332 9.4817 14.1414 9.50344 14.1523 9.51701C14.1632 9.53058 14.1714 9.52513 14.1769 9.49527C14.1824 9.46542 14.2043 9.47627 14.166 9.41938C14.1277 9.36238 14.0566 9.26736 14.0292 9.09644C14.0019 8.92555 13.9909 8.81153 13.9636 8.76549C13.9363 8.71935 13.9281 8.70849 13.9254 8.66506C13.9227 8.62161 13.9254 8.57818 13.9063 8.54572C13.8871 8.51314 13.8734 8.50772 13.8707 8.55657C13.868 8.60533 13.8734 8.71389 13.8871 8.73292C13.9008 8.75192 13.8926 8.80067 13.8898 8.82781C13.8871 8.85495 13.8441 8.88179 13.9336 8.93638C13.9692 8.95812 13.9636 8.98797 13.9582 9.007C13.9527 9.02587 13.9473 9.02316 13.9281 8.99343C13.909 8.96352 13.8898 8.93912 13.8707 8.92281C13.8515 8.90655 13.8488 8.89567 13.8515 8.85767C13.8543 8.81967 13.8625 8.79253 13.8515 8.77906C13.8406 8.76549 13.8351 8.77634 13.8297 8.79796C13.8242 8.81967 13.8187 8.87938 13.8078 8.89569C13.7968 8.91198 13.7914 8.90112 13.7832 8.86581C13.775 8.83053 13.7859 8.77634 13.805 8.71392C13.8242 8.65149 13.8351 8.58633 13.8187 8.505C13.8023 8.42358 13.8105 8.39912 13.7476 8.33137C13.6848 8.26352 13.6137 8.19838 13.5836 8.11431C13.5535 8.03017 13.5481 7.95689 13.5152 7.91887C13.4825 7.88097 13.436 7.83211 13.4059 7.81854V7.69379C13.4059 7.66391 13.3923 7.64491 13.3567 7.65034C13.3212 7.65577 13.2993 7.68562 13.2775 7.72624C13.2556 7.76695 13.2392 7.74797 13.2091 7.81854C13.179 7.88911 13.1353 7.92429 13.1353 8.00032Z" fill="#CFA763"/>
<path d="M13.3322 8.79613C13.3541 8.8097 13.375 8.8188 13.4078 8.80249C13.4407 8.7862 13.4799 8.73923 13.5236 8.7854C13.5673 8.83141 13.5919 8.90744 13.5919 8.96715C13.5919 9.02676 13.5919 9.13804 13.6603 9.20049C13.7287 9.26282 13.7641 9.32796 13.7669 9.40941C13.7696 9.49073 13.7997 9.61561 13.8079 9.64815C13.8161 9.68065 13.8352 9.71865 13.8571 9.74039C13.879 9.76207 13.8954 9.82453 13.8981 9.88957C13.9009 9.95471 13.89 10.0008 13.8981 10.0334C13.9064 10.066 13.8981 10.0932 13.8735 10.0769C13.8489 10.0606 13.8435 10.0524 13.8298 10.0253C13.8161 9.99813 13.7997 10.0036 13.8134 10.0443C13.827 10.085 13.8681 10.1229 13.9036 10.1229C13.9392 10.1229 13.9501 10.1283 13.972 10.1501C13.9938 10.1718 13.9965 10.1826 14.0348 10.1826C14.0731 10.1826 14.0786 10.1826 14.1141 10.1935C14.1497 10.2043 14.1497 10.1989 14.1688 10.1935C14.188 10.188 14.207 10.2043 14.2207 10.2396C14.2344 10.2749 14.2672 10.3725 14.2672 10.3997C14.2672 10.4268 14.2672 10.454 14.2863 10.4811C14.3055 10.5082 14.3 10.5354 14.2781 10.5191C14.2562 10.5028 14.2562 10.5083 14.2398 10.511C14.2234 10.5137 14.2125 10.5056 14.1907 10.492C14.1688 10.4784 14.1825 10.4811 14.1606 10.4485C14.1388 10.416 14.1251 10.4051 14.1251 10.4295C14.1251 10.454 14.1223 10.4838 14.1059 10.4702C14.0895 10.4567 14.0813 10.4567 14.0676 10.4702C14.0539 10.4838 14.0485 10.4947 14.0321 10.4675C14.0157 10.4404 13.9965 10.4404 13.9801 10.435C13.9637 10.4295 13.9637 10.4295 13.9556 10.4051C13.9474 10.3807 13.9228 10.3753 13.9009 10.3753C13.879 10.3753 13.8681 10.3644 13.8653 10.3481C13.8626 10.3319 13.8489 10.3211 13.838 10.3129C13.827 10.3048 13.8325 10.2858 13.8298 10.2668C13.827 10.2478 13.8106 10.2559 13.7997 10.2505C13.7887 10.245 13.7805 10.2478 13.7805 10.2206C13.7805 10.1935 13.7696 10.1853 13.7614 10.1663C13.7533 10.1473 13.7614 10.1283 13.7669 10.1067C13.7723 10.085 13.7696 10.0714 13.7533 10.0524C13.7369 10.0334 13.7505 10.0144 13.7068 9.97642C13.663 9.93842 13.6412 9.97099 13.6275 9.88152C13.6138 9.79193 13.5864 9.60747 13.5618 9.57761C13.5372 9.54773 13.5209 9.52602 13.4963 9.51787C13.4717 9.50973 13.4553 9.51516 13.4525 9.46359C13.4498 9.41212 13.4334 9.34698 13.4006 9.31439C13.3677 9.28182 13.3541 9.27096 13.3377 9.25739C13.3213 9.24382 13.3158 9.21939 13.3377 9.17335C13.3595 9.12721 13.3513 9.06478 13.3486 9.0349C13.3459 9.00515 13.3377 8.96715 13.3431 8.93458C13.3486 8.90201 13.3459 8.86127 13.3377 8.83958C13.3294 8.81784 13.3185 8.81244 13.3322 8.79613Z" fill="#CFA763"/>
<path d="M14.1634 10.2805C14.147 10.3131 14.1279 10.3022 14.1114 10.2859C14.095 10.2696 14.0759 10.2696 14.0841 10.2398C14.0923 10.2099 14.0896 10.2045 14.0677 10.1882C14.0652 10.1863 14.0626 10.1847 14.0601 10.183C14.0533 10.1828 14.0453 10.1828 14.0349 10.1828C13.9966 10.1828 13.9938 10.1719 13.972 10.1502C13.9678 10.146 13.9633 10.1419 13.9586 10.1381C13.9582 10.1433 13.9584 10.1502 13.9584 10.1584C13.9584 10.1882 13.9584 10.1828 13.9283 10.1909C13.8982 10.1991 13.9037 10.1611 13.8982 10.1366C13.8971 10.1316 13.8955 10.1268 13.8935 10.122C13.8606 10.1158 13.8259 10.0813 13.8134 10.0445C13.7998 10.0037 13.8162 9.99831 13.8299 10.0255C13.8435 10.0526 13.849 10.0607 13.8736 10.077C13.8982 10.0933 13.9064 10.0662 13.8982 10.0336C13.8956 10.0231 13.895 10.011 13.8953 9.99759C13.8894 9.98703 13.8814 9.97849 13.8709 9.97389C13.8271 9.95486 13.8408 9.94943 13.8435 9.91415C13.8463 9.87897 13.838 9.87897 13.8107 9.89786C13.7834 9.91686 13.7806 9.89515 13.7806 9.84097C13.7806 9.78668 13.7451 9.78668 13.737 9.82468C13.7287 9.86268 13.7151 9.83825 13.6987 9.78397C13.6823 9.72969 13.6604 9.71612 13.6577 9.76769C13.6553 9.81131 13.6431 9.82177 13.6145 9.79754C13.6196 9.82906 13.624 9.85851 13.6276 9.88168C13.6412 9.97115 13.6631 9.93858 13.7069 9.9766C13.7506 10.0146 13.737 10.0336 13.7534 10.0526C13.7697 10.0716 13.7724 10.0852 13.7669 10.1069C13.7615 10.1285 13.7534 10.1475 13.7615 10.1665C13.7697 10.1855 13.7806 10.1936 13.7806 10.2208C13.7806 10.2479 13.7888 10.2452 13.7998 10.2507C13.8066 10.254 13.8154 10.2521 13.8219 10.2548C13.8289 10.2456 13.8353 10.2344 13.8435 10.2262C13.8763 10.1936 13.9256 10.2289 13.942 10.2697C13.9584 10.3104 13.9774 10.3212 14.0021 10.2887C14.0267 10.2561 14.0185 10.2615 14.0458 10.2914C14.0732 10.3212 14.0841 10.3158 14.0841 10.3158C14.0841 10.3158 14.1114 10.3049 14.1306 10.3212C14.1497 10.3375 14.1607 10.3348 14.1961 10.2832C14.2317 10.2317 14.1798 10.2479 14.1634 10.2805Z" fill="#D7C99C"/>
<path d="M14.188 10.6592C14.2535 10.6538 14.4313 10.6022 14.4504 10.5859C14.4941 10.6158 14.5707 10.6565 14.6035 10.6565C14.5406 10.6701 14.4996 10.6619 14.4832 10.6511C14.4914 10.6701 14.5133 10.6999 14.5269 10.7026C14.4668 10.6999 14.3985 10.6864 14.3766 10.6646C14.3247 10.6864 14.2371 10.6918 14.188 10.6592ZM14.3055 10.7407C14.3287 10.7475 14.4449 10.7665 14.4599 10.7665C14.4216 10.7989 14.4545 10.8301 14.5187 10.8247C14.4873 10.8288 14.453 10.8406 14.4763 10.8451C14.5324 10.8559 14.6841 10.8152 14.7142 10.7989C14.6622 10.8654 14.4094 10.9265 14.3055 10.7407ZM14.4094 10.9061C14.4408 10.8898 14.5187 10.8953 14.5557 10.9129C14.5146 10.9278 14.434 10.9278 14.4094 10.9061Z" fill="#7FB8C1"/>
<path d="M14.5269 10.9029C14.5829 10.8934 14.7415 10.9314 14.7975 10.8975C14.7784 10.9477 14.6785 10.9545 14.6444 10.9436C14.6103 10.9327 14.5775 10.9192 14.5542 10.9205C14.5665 10.9137 14.546 10.9124 14.5269 10.9029ZM14.5843 10.9803C14.6267 10.987 14.7784 10.9681 14.8249 10.9504C14.874 10.9667 14.9711 10.9924 14.993 10.9897C14.9465 11.0182 14.8576 11.0019 14.829 10.9897C14.7469 11.0168 14.6799 11.025 14.5843 10.9803Z" fill="#7FB8C1"/>
<path d="M14.6569 11.0066C14.7176 11.0201 14.7694 11.0104 14.8291 10.9906C14.8477 10.9985 14.8916 11.0082 14.9329 11.0063C14.9603 11.0218 14.9972 11.0435 15.0328 11.0462C14.9959 11.0612 14.8605 11.0462 14.8333 11.0313C14.7649 11.0327 14.6473 11.0476 14.6186 11.0707C14.6173 11.0517 14.6297 11.0253 14.6569 11.0066V11.0066ZM14.5845 10.7003C14.6318 10.716 14.8032 10.7085 14.8906 10.6678C14.9251 10.6517 14.9464 10.6786 14.907 10.6922C14.7648 10.7411 14.6527 10.76 14.5708 10.7166C14.5384 10.6995 14.5352 10.684 14.5845 10.7003ZM15.4237 10.4697C15.2132 10.5673 15.0737 10.5972 14.7813 10.5077C14.754 10.4994 14.7348 10.5077 14.7648 10.5267C14.795 10.5456 14.9562 10.5891 14.9945 10.5918C15.0328 10.5945 15.0191 10.6121 14.9959 10.6189C14.9726 10.6257 14.9658 10.642 14.9972 10.6298C15.0287 10.6175 15.2044 10.6129 15.2761 10.6501C15.3075 10.6664 15.3157 10.6637 15.3129 10.6515C15.3102 10.6393 15.3266 10.6311 15.3499 10.6284C15.3731 10.6257 15.3868 10.6175 15.369 10.6108C15.3512 10.604 15.3485 10.5999 15.3622 10.5931C15.3758 10.5863 15.3772 10.5796 15.3567 10.5755C15.3362 10.5714 15.3225 10.566 15.3417 10.5565C15.3608 10.5471 15.3895 10.5402 15.4114 10.5376C15.4169 10.5227 15.4073 10.4833 15.4237 10.4697Z" fill="#7FB8C1"/>
<path d="M15.0737 10.4932C15.194 10.5017 15.4155 10.4471 15.5331 10.3331C15.574 10.3575 15.6314 10.3846 15.6615 10.3901C15.6916 10.3955 15.7189 10.4226 15.6725 10.4226C15.626 10.4226 15.5603 10.4036 15.5303 10.3901C15.3744 10.4851 15.192 10.5163 15.0764 10.5068C15.0437 10.5041 15.0355 10.4905 15.0737 10.4932ZM14.8837 10.154C14.8675 10.1568 14.7976 10.173 14.7785 10.1716C14.7594 10.1703 14.7402 10.1757 14.7416 10.1893C14.743 10.2029 14.7484 10.211 14.7197 10.2083C14.691 10.2056 14.6664 10.2164 14.6595 10.2246C14.6527 10.2327 14.6472 10.2409 14.6759 10.2436C14.7047 10.2463 14.7197 10.249 14.7525 10.2341C14.7853 10.2191 14.8168 10.1961 14.8523 10.1947C14.8878 10.1934 14.9234 10.1472 14.8837 10.154Z" fill="#7FB8C1"/>
<path d="M14.7854 10.2395C14.8152 10.2587 14.963 10.3087 15.0164 10.3046C15.0697 10.3006 15.0597 10.3258 15.0191 10.3345C14.9357 10.352 14.8338 10.316 14.7648 10.2612C14.7306 10.234 14.7621 10.2245 14.7854 10.2395Z" fill="#7FB8C1"/>
<path d="M15.4852 10.311C15.3721 10.3468 15.257 10.3341 15.2105 10.3219C15.164 10.3097 15.1216 10.3069 15.153 10.3368C15.1845 10.3666 15.2857 10.3869 15.343 10.372C15.1394 10.4181 15.086 10.4141 15.0355 10.4059C14.9849 10.3978 14.8899 10.3996 14.8496 10.4032C14.8196 10.4059 14.7785 10.4018 14.7608 10.391C14.743 10.3801 14.7375 10.3598 14.7908 10.3652C14.8441 10.3706 14.851 10.3598 14.8045 10.353C14.758 10.3462 14.6938 10.3652 14.7567 10.4046C14.8196 10.4439 14.9576 10.4018 15.0451 10.4263C15.1325 10.4507 15.3184 10.4683 15.4948 10.3272C15.5039 10.32 15.5194 10.3002 15.4852 10.311ZM15.2214 10.1984C15.1982 10.1997 15.1571 10.1848 15.1353 10.1753C15.1134 10.1658 15.082 10.1644 15.1053 10.1956C15.1284 10.2269 15.2296 10.2445 15.2652 10.2296C15.3007 10.2146 15.2857 10.1984 15.3211 10.2201C15.3567 10.2418 15.3936 10.2567 15.4196 10.2567C15.4456 10.2567 15.4552 10.2567 15.4264 10.2404C15.3977 10.2241 15.3841 10.2201 15.3813 10.2065C15.3786 10.1929 15.3745 10.1848 15.4005 10.1929C15.4264 10.2011 15.4565 10.216 15.477 10.2051C15.4976 10.1943 15.5358 10.1699 15.5699 10.1699L15.5781 10.1495C15.5289 10.1454 15.4976 10.1604 15.4839 10.1658C15.4702 10.1712 15.4456 10.1739 15.4196 10.1699C15.3936 10.1658 15.3594 10.1631 15.3512 10.1563C15.343 10.1495 15.343 10.1441 15.3649 10.14C15.3868 10.1359 15.3936 10.121 15.3635 10.1264C15.3334 10.1319 15.2529 10.1291 15.2105 10.1156C15.1681 10.1021 15.1503 10.1007 15.1325 10.1074C15.1148 10.1142 15.1175 10.1332 15.1435 10.1346C15.1694 10.1359 15.2282 10.1414 15.2488 10.1604C15.2693 10.1794 15.2665 10.1807 15.2433 10.1712C15.2201 10.1617 15.1776 10.1671 15.2214 10.1984ZM16.211 10.1251C16.129 10.1848 16.0306 10.1984 15.9131 10.2065C15.8789 10.2089 15.8894 10.2185 15.9186 10.2214C16.0415 10.2336 16.1838 10.1889 16.2302 10.14C16.2436 10.1259 16.2421 10.1025 16.211 10.1251ZM15.652 10.2635C15.6875 10.2649 15.8105 10.2961 15.8502 10.3097C15.8803 10.3069 15.8885 10.3002 15.883 10.2893C15.8775 10.2784 15.8734 10.2662 15.9281 10.2689C15.9827 10.2717 16.1085 10.2703 16.1318 10.2703C16.1509 10.2621 16.1932 10.2296 16.2124 10.2282C16.1632 10.2309 15.9582 10.2418 15.9322 10.2391C15.9062 10.2364 15.8926 10.2391 15.8762 10.2486C15.8597 10.2581 15.8502 10.2621 15.8297 10.254C15.8092 10.2459 15.7722 10.235 15.7518 10.2472C15.7313 10.2594 15.6889 10.2486 15.652 10.2635V10.2635Z" fill="#7FB8C1"/>
<path d="M16.1316 10.2699C16.1508 10.2617 16.1931 10.2292 16.2122 10.2278C16.2478 10.2251 16.2888 10.24 16.308 10.2427C16.3271 10.2454 16.3476 10.2414 16.3339 10.2264C16.3202 10.2115 16.3326 10.1857 16.3886 10.1925C16.4446 10.1993 16.4733 10.2088 16.528 10.2034C16.5827 10.198 16.6073 10.2387 16.7112 10.1979C16.7029 10.2387 16.7221 10.2414 16.7412 10.2332C16.7604 10.2251 16.7823 10.2278 16.8151 10.2522C16.8479 10.2767 17.0475 10.2794 17.094 10.2713C17.1404 10.2631 17.165 10.2875 17.1294 10.2984C17.094 10.3093 17.0857 10.3255 17.094 10.3364C17.1021 10.3472 17.1103 10.3607 17.0666 10.3553C17.0229 10.3499 17.0146 10.3634 16.9928 10.3797C16.9709 10.396 16.9654 10.4014 16.9053 10.3906C16.8452 10.3797 16.8342 10.3879 16.8014 10.3933C16.7686 10.3987 16.7604 10.3987 16.7276 10.3879C16.6948 10.377 16.6237 10.3662 16.58 10.3797C16.5362 10.3933 16.5034 10.4069 16.4651 10.396C16.4268 10.3852 16.4241 10.3906 16.4487 10.3662C16.4733 10.3417 16.4788 10.3444 16.5253 10.339C16.5718 10.3337 16.6073 10.3201 16.5745 10.3011C16.5417 10.2821 16.5307 10.2848 16.487 10.3065C16.4432 10.3283 16.4213 10.3417 16.3722 10.3147C16.323 10.2875 16.2984 10.293 16.2655 10.3011C16.2327 10.3093 16.1781 10.2903 16.1316 10.2699ZM16.2956 10.3512C16.233 10.3601 16.2162 10.3201 16.1508 10.3283C16.1289 10.331 16.092 10.358 16.1426 10.3539C16.1931 10.3499 16.2478 10.377 16.297 10.3729C16.3462 10.3689 16.3243 10.3471 16.2956 10.3512ZM16.2231 10.3987C16.2561 10.3868 16.3243 10.4096 16.3531 10.4042C16.3818 10.3987 16.4091 10.4164 16.3791 10.4259C16.349 10.4354 16.2765 10.4082 16.2437 10.4177C16.2108 10.4272 16.1781 10.415 16.2231 10.3987ZM15.5698 10.5737C15.6149 10.5752 15.7775 10.5683 15.8418 10.4327C15.8467 10.4222 15.8514 10.4177 15.8719 10.4313C15.8924 10.4449 15.9676 10.4896 16.1084 10.5019C16.1478 10.5053 16.1904 10.525 16.1111 10.5195C16.0318 10.5141 15.9061 10.4924 15.8637 10.4666C15.7926 10.5778 15.6649 10.5909 15.5698 10.5886C15.5125 10.5873 15.5261 10.5724 15.5698 10.5737Z" fill="#7FB8C1"/>
<path d="M15.9212 10.3894C15.8993 10.4193 15.824 10.4709 15.7899 10.4736C15.7558 10.4763 15.6532 10.4668 15.6272 10.4573C15.6013 10.4478 15.5698 10.4505 15.6067 10.4763C15.6437 10.5021 15.7353 10.5197 15.7721 10.5116C15.809 10.5035 15.8514 10.4912 15.8801 10.5089C15.9088 10.5265 15.9622 10.5603 15.9935 10.5536C16.025 10.5469 16.0893 10.5469 16.1098 10.5563C16.1303 10.5658 16.1658 10.5943 16.1125 10.578C16.0592 10.5617 16.0154 10.5753 15.9908 10.5644C16.0181 10.6024 16.0802 10.6635 16.133 10.6635C16.1453 10.6635 16.1535 10.6852 16.1275 10.6974C16.1535 10.7096 16.2136 10.7191 16.245 10.6906C16.2368 10.7015 16.2409 10.7083 16.2546 10.7151C16.2683 10.7218 16.2847 10.7314 16.2601 10.7341C16.2355 10.7368 16.1795 10.7436 16.1631 10.7368C16.2163 10.7706 16.3544 10.8249 16.4952 10.7978C16.522 10.7926 16.5362 10.7816 16.4925 10.7828C16.4022 10.7856 16.3968 10.7842 16.3804 10.7748C16.364 10.7652 16.3668 10.7572 16.3927 10.749C16.4186 10.7409 16.4843 10.7314 16.5116 10.7314C16.539 10.7314 16.5663 10.7205 16.5103 10.7205C16.4542 10.7205 16.3859 10.7205 16.3586 10.711C16.3312 10.7015 16.3107 10.6893 16.3394 10.6703C16.3681 10.6513 16.3982 10.6567 16.4119 10.6391C16.3216 10.6377 16.2108 10.5902 16.2724 10.5469C16.2867 10.5368 16.282 10.536 16.2587 10.5333C16.2355 10.5306 16.1672 10.5116 16.1385 10.4953C16.1098 10.479 16.1289 10.4654 16.1522 10.4614C16.0988 10.4709 15.9921 10.4424 15.9212 10.3894ZM16.7235 10.3867C16.6742 10.4234 16.5813 10.4383 16.5417 10.4383C16.502 10.4383 16.4966 10.4519 16.528 10.4559C16.5595 10.46 16.5937 10.4641 16.6073 10.46C16.621 10.4559 16.6292 10.4546 16.6496 10.4641C16.6701 10.4736 16.7139 10.479 16.7522 10.4668C16.7905 10.4546 16.8533 10.4491 16.8793 10.4505C16.9053 10.4519 16.934 10.4532 16.882 10.4383C16.8301 10.4234 16.7454 10.4342 16.7248 10.4396C16.7043 10.4451 16.6483 10.441 16.6784 10.4315C16.7084 10.422 16.7344 10.4071 16.7495 10.3949C16.7385 10.3921 16.7317 10.3894 16.7235 10.3867ZM16.6975 10.4926C16.6551 10.5238 16.5937 10.5536 16.5308 10.5563C16.5882 10.5766 16.6361 10.635 16.6729 10.6323C16.6551 10.6431 16.6333 10.6594 16.6101 10.6621C16.6456 10.6716 16.7057 10.6608 16.7549 10.6336C16.837 10.6567 16.9435 10.6418 16.9791 10.6119C16.9258 10.6119 16.8616 10.5929 16.8329 10.5685C16.8589 10.5685 16.8834 10.5522 16.8957 10.5374C16.8342 10.5481 16.7289 10.5184 16.6975 10.4926Z" fill="#7FB8C1"/>
<path d="M16.6102 10.6625C16.6335 10.6597 16.6553 10.6435 16.6731 10.6326C16.628 10.6475 16.4311 10.6163 16.3724 10.5647C16.3136 10.5133 16.3136 10.5525 16.3546 10.5892C16.3956 10.6258 16.468 10.6815 16.6102 10.6625ZM16.7551 10.7872C16.7305 10.8008 16.613 10.8089 16.5747 10.8008C16.5364 10.7927 16.52 10.7967 16.5296 10.8117C16.5391 10.8266 16.5432 10.8402 16.5118 10.8361C16.4803 10.832 16.4242 10.8388 16.4011 10.8469C16.3778 10.8551 16.3491 10.8754 16.3984 10.8673C16.4475 10.8592 16.4926 10.8497 16.5295 10.8592C16.5665 10.8687 16.6977 10.8714 16.7237 10.8605C16.7496 10.8497 16.7318 10.8497 16.7195 10.8497C16.7072 10.8497 16.7018 10.8415 16.7195 10.8334C16.7373 10.8252 16.751 10.8022 16.7551 10.7872ZM15.6178 10.6299C15.5686 10.6516 15.4046 10.695 15.3608 10.6977C15.3061 10.7222 15.2625 10.7358 15.2351 10.7358C15.2543 10.752 15.328 10.7682 15.3581 10.7602C15.3417 10.7764 15.3035 10.7954 15.2898 10.8035C15.3335 10.7981 15.3854 10.8089 15.4073 10.8117C15.3499 10.8442 15.2707 10.8551 15.2297 10.8497C15.2433 10.8687 15.2625 10.8877 15.2871 10.8877C15.2351 10.9012 15.1722 10.9012 15.1394 10.8904C15.1531 10.9175 15.1667 10.9338 15.1859 10.9365C15.1421 10.9419 15.0874 10.9501 15.041 10.9229C15.0765 10.9691 15.1558 10.9853 15.2734 10.9718C15.3909 10.9583 15.4894 10.9067 15.5167 10.8849C15.4675 10.8904 15.4019 10.8931 15.369 10.8877C15.4347 10.8714 15.5768 10.8117 15.6014 10.7872C15.574 10.7872 15.5468 10.7791 15.5276 10.7655C15.5659 10.7709 15.6999 10.7548 15.7409 10.7385C15.6917 10.7276 15.6616 10.6978 15.6479 10.6787C15.8201 10.733 16.0118 10.7153 16.1044 10.6923C16.1263 10.6869 16.129 10.6593 16.0853 10.6625C16.0087 10.6679 15.8611 10.6462 15.8228 10.6272C15.8584 10.6543 15.9022 10.6706 15.9322 10.676C15.8611 10.695 15.7628 10.7086 15.6178 10.6299Z" fill="#7FB8C1"/>
<path d="M15.2897 10.8029C15.3034 10.7947 15.3416 10.7757 15.358 10.7595C15.3279 10.7676 15.2542 10.7514 15.235 10.7351C15.2624 10.7351 15.306 10.7215 15.3607 10.6971C15.2624 10.6944 15.194 10.6944 15.1584 10.6754C15.1229 10.6564 15.0573 10.6618 15.0327 10.6672C15.0081 10.6727 15.0163 10.7134 15.1201 10.7025C15.0764 10.7324 14.9589 10.7432 14.9151 10.7324C14.926 10.7676 14.9343 10.8029 14.9233 10.8219C14.9808 10.8544 15.1311 10.8951 15.2049 10.8897C15.1393 10.8653 15.1037 10.8381 15.1584 10.8327C15.2131 10.8273 15.2432 10.8164 15.2897 10.8029ZM15.1201 10.9793C15.251 10.9685 15.4263 10.9661 15.5658 10.849C15.6013 10.8191 15.6252 10.8291 15.5904 10.8599C15.5166 10.925 15.3334 11.0145 15.1584 11.0172C15.0872 11.0183 15.0546 10.9846 15.1201 10.9793ZM16.1003 10.7649C16.0674 10.7771 15.9758 10.792 15.9486 10.7879C15.9212 10.7839 15.8816 10.7825 15.8597 10.7961C15.8378 10.8096 15.8364 10.8178 15.8665 10.8205C15.8966 10.8232 15.9349 10.8259 15.954 10.8246C15.9294 10.8381 15.913 10.8571 15.9075 10.8653C15.9513 10.8544 16.0319 10.8734 16.0551 10.887C16.0374 10.8924 16.0168 10.8856 16.0018 10.8775C16.0757 10.9549 16.2943 10.9549 16.3299 10.9413C16.3135 10.9535 16.2984 10.9657 16.282 10.9698C16.3436 10.9807 16.4146 10.9793 16.4843 10.9386C16.4611 10.9426 16.3915 10.9359 16.3737 10.9345C16.3887 10.92 16.4069 10.9093 16.4269 10.9033C16.3996 10.8979 16.3135 10.9006 16.293 10.9114C16.3012 10.8951 16.3162 10.8748 16.3326 10.868C16.2246 10.868 16.0934 10.8666 16.0456 10.8409C16.1221 10.849 16.2069 10.8042 16.2424 10.8042C16.1823 10.8029 16.1167 10.7893 16.1003 10.7649ZM15.8255 10.8245C15.7721 10.8354 15.6916 10.8571 15.6697 10.8694C15.6478 10.8816 15.6246 10.8884 15.6724 10.8884C15.7203 10.8884 15.8501 10.8938 15.8788 10.8979C15.8063 10.887 15.708 10.8843 15.6888 10.8843C15.6697 10.8843 15.6478 10.8829 15.6834 10.8721C15.7189 10.8612 15.7654 10.8368 15.8255 10.8245ZM15.7176 10.9508C15.7366 10.9508 15.82 10.9508 15.8528 10.9223C15.887 10.9481 15.9527 10.9846 15.995 10.9846C16.0374 10.9846 16.0333 10.9955 15.9963 10.9996C15.9595 11.0036 15.887 10.982 15.8501 10.9549C15.8009 10.9725 15.76 10.9576 15.7176 10.9508ZM15.0847 11.3157C15.1694 11.3483 15.2815 11.3727 15.3635 11.3455C15.4099 11.3863 15.5057 11.389 15.5575 11.3781C15.6095 11.3673 15.656 11.3618 15.7135 11.3808C15.7708 11.3998 15.8884 11.4012 15.9212 11.4282C15.8911 11.4297 15.8269 11.4282 15.8118 11.4324C15.7967 11.4364 15.805 11.4459 15.8323 11.4608C15.7394 11.4554 15.5794 11.4947 15.5303 11.5368C15.548 11.4947 15.6027 11.4377 15.6888 11.4377C15.6396 11.4202 15.4825 11.4189 15.4318 11.45C15.4168 11.4337 15.399 11.4066 15.3977 11.3958C15.3143 11.4432 15.1502 11.3754 15.0847 11.3157ZM14.8672 11.1638C14.9681 11.1495 15.0368 11.1176 15.0669 11.0878C15.0847 11.1041 15.1584 11.1203 15.2391 11.0959C15.2227 11.1081 15.2213 11.1312 15.2282 11.1434C15.1748 11.1448 15.0736 11.1706 15.0396 11.1882C15.0054 11.2057 14.9055 11.218 14.8728 11.2003C14.84 11.1828 14.8386 11.1678 14.8672 11.1638Z" fill="#7FB8C1"/>
<path d="M15.2282 11.1436C15.1748 11.1449 15.0736 11.1707 15.0396 11.1884C15.0464 11.2019 15.0505 11.2235 15.0519 11.2385C15.1502 11.2032 15.3758 11.1815 15.4619 11.1951C15.4209 11.1979 15.3429 11.2398 15.2993 11.2453C15.4058 11.2371 15.5098 11.2588 15.537 11.2656C15.5644 11.2724 15.5698 11.2928 15.5493 11.3118C15.5288 11.3308 15.5194 11.3335 15.563 11.3348C15.6068 11.3362 15.697 11.3308 15.738 11.2914C15.7216 11.2738 15.6792 11.2805 15.6669 11.2683C15.6957 11.2588 15.7285 11.2385 15.7408 11.2235C15.667 11.2222 15.6396 11.2208 15.615 11.2154C15.5904 11.2101 15.5726 11.2032 15.6027 11.187C15.6327 11.1707 15.6464 11.1571 15.656 11.1463C15.6027 11.1612 15.5194 11.1734 15.4496 11.1191C15.4756 11.1259 15.537 11.1218 15.5589 11.1123C15.5357 11.1001 15.5166 11.0906 15.4975 11.0906C15.5534 11.0635 15.6642 11.0391 15.8009 11.0933C15.8692 11.0879 15.9431 11.0906 15.9949 11.1042C16.0168 11.0825 16.0633 11.0309 16.0879 11.0173C15.9267 11.0309 15.6368 11.0011 15.6423 10.917C15.5904 10.9847 15.4701 11.0228 15.4182 11.0119C15.4127 11.0363 15.4346 11.0662 15.4537 11.0825C15.399 11.0933 15.306 11.1015 15.2624 11.0933C15.287 11.1178 15.3334 11.1395 15.3607 11.1368C15.3034 11.1368 15.2733 11.1476 15.2282 11.1436Z" fill="#7FB8C1"/>
<path d="M15.563 11.3351C15.6068 11.3364 15.6971 11.331 15.7381 11.2916C15.7217 11.274 15.6793 11.2808 15.667 11.2685C15.6957 11.259 15.7285 11.2387 15.7408 11.2238C15.8556 11.2144 15.9582 11.2198 16.0073 11.2049C16.0565 11.1899 16.1823 11.1981 16.207 11.1913C16.0975 11.2088 16.0757 11.2183 16.0702 11.236C16.0647 11.2536 16.1058 11.2685 16.1318 11.2685C16.0825 11.2658 16.021 11.3174 16.0155 11.3378C15.95 11.2998 15.9185 11.3445 15.9117 11.3595C15.8843 11.3486 15.7941 11.3513 15.7476 11.3907C15.6875 11.373 15.6478 11.3635 15.5877 11.373C15.6246 11.3649 15.6178 11.3405 15.563 11.335V11.3351ZM16.088 11.0176C16.1249 11.0162 16.2055 11.0203 16.2342 11.0162C16.2151 11.0257 16.1906 11.0433 16.1851 11.0515C16.278 11.0406 16.4051 11.0338 16.442 11.0393C16.3969 11.0325 16.3504 11.061 16.3272 11.0759C16.3039 11.0908 16.3176 11.1003 16.3491 11.1044C16.3805 11.1085 16.4229 11.1329 16.3655 11.1248C16.308 11.1166 16.1947 11.1166 16.1673 11.1207C16.1399 11.1248 16.1249 11.1112 16.1645 11.1058C16.2042 11.1003 16.2315 11.0868 16.2506 11.0759C16.2178 11.0841 16.155 11.0841 16.1358 11.0786C16.1167 11.0732 16.1044 11.0623 16.1263 11.0569C16.1482 11.0515 16.1331 11.0433 16.1099 11.0461C16.0866 11.0488 16.0278 11.0732 15.995 11.1044C16.0305 11.0678 16.062 11.0352 16.088 11.0176ZM15.6711 11.0786C15.7162 11.1288 15.7695 11.1573 15.8542 11.1601C15.872 11.1606 15.9051 11.1843 15.8624 11.1859C15.7476 11.1899 15.6902 11.1628 15.6396 11.0895C15.6292 11.0745 15.6485 11.0535 15.6711 11.0786ZM17.1282 10.4614C17.0941 10.4845 17.0489 10.5252 17.0789 10.5821C17.0825 10.5802 17.0859 10.578 17.0894 10.576C17.2201 10.4188 17.336 10.2498 17.4356 10.0712C17.4367 10.0652 17.4377 10.0594 17.4385 10.0544C17.4002 10.087 17.34 10.1195 17.3154 10.1276C17.3318 10.171 17.2553 10.228 17.2143 10.2443C17.2307 10.2715 17.2253 10.3122 17.1897 10.3203C17.1979 10.3447 17.1706 10.3447 17.1377 10.3582C17.1049 10.3718 17.0885 10.3827 17.0777 10.399C17.0953 10.3895 17.12 10.3813 17.1336 10.3854C17.1473 10.3895 17.15 10.4098 17.1254 10.4152C17.1008 10.4207 17.0845 10.4342 17.0762 10.4451C17.1117 10.4315 17.1624 10.4383 17.1282 10.4614ZM14.7183 9.84277C14.7594 9.8713 14.8318 9.91867 14.9261 9.91188C14.9726 9.94858 15.0451 9.97976 15.0779 9.98655C15.015 10.0123 14.9466 10.034 14.9288 10.0544C14.9001 10.0273 14.8633 10.0313 14.8537 10.0178C14.8264 10.0395 14.8305 10.0531 14.8482 10.0639C14.866 10.0748 15.0041 10.0979 15.0382 10.0884C15.0724 10.0789 15.0816 10.107 15.0533 10.1168C14.9794 10.1425 14.8359 10.1181 14.7867 10.0395C14.7375 9.96076 14.6951 9.93091 14.5612 10.0028C14.5461 9.96484 14.5461 9.95534 14.5201 9.95534C14.4941 9.95534 14.4463 9.92141 14.4832 9.92277C14.5201 9.92412 14.6295 9.90784 14.7183 9.8428V9.84277Z" fill="#7FB8C1"/>
<path d="M14.751 10.0175C14.7282 10.0231 14.6635 10.0582 14.6404 10.0609C14.6171 10.0637 14.5761 10.0962 14.6185 10.0976C14.6608 10.0989 14.7155 10.0528 14.7456 10.0487C14.7757 10.0447 14.7784 10.0107 14.751 10.0175ZM14.9301 10.145C14.9342 10.1586 14.9342 10.1735 14.9301 10.183C14.926 10.1925 14.926 10.2047 14.9438 10.1911C14.9615 10.1776 14.9725 10.1613 14.9902 10.1708C15.008 10.1803 15.0532 10.1789 15.0736 10.1762C15.0942 10.1735 15.1009 10.1694 15.0709 10.1572C15.0408 10.145 15.0108 10.1409 14.9943 10.1423C14.9779 10.1436 14.9574 10.1396 14.9438 10.1341C14.9301 10.1287 14.926 10.1314 14.9301 10.145ZM15.578 10.1491L15.5698 10.1694C15.6204 10.1681 15.7434 10.1803 15.783 10.2047C15.8213 10.1748 15.8145 10.1653 15.8418 10.1708C15.8692 10.1762 15.9033 10.1857 15.9184 10.1776C15.9334 10.1694 15.9444 10.1708 15.9608 10.1735C15.9771 10.1762 16.0127 10.1694 16.0332 10.1572C16.0537 10.145 16.0961 10.1287 16.1207 10.1287C16.1453 10.1287 16.1753 10.1233 16.1303 10.1165C16.0851 10.1097 16.0168 10.1233 15.9935 10.1314C15.9704 10.1396 15.9006 10.145 15.8596 10.145C15.8186 10.145 15.7626 10.1653 15.7161 10.1531C15.6696 10.1409 15.6054 10.1491 15.578 10.1491ZM16.3558 10.1301C16.4162 10.1584 16.5376 10.183 16.6319 10.1789C16.6484 10.1782 16.6814 10.1956 16.64 10.1993C16.5335 10.2088 16.4377 10.1939 16.349 10.145C16.3243 10.1314 16.3326 10.1192 16.3558 10.1301ZM16.4174 10.1287C16.5102 10.126 16.5799 10.1273 16.6087 10.1545C16.6619 10.1382 16.7577 10.1287 16.7795 10.1328C16.8014 10.1368 16.826 10.1273 16.7754 10.1151C16.7248 10.103 16.6073 10.0989 16.5704 10.1057C16.5335 10.1124 16.4186 10.1165 16.3804 10.1124C16.3968 10.1151 16.4077 10.1178 16.4174 10.1287ZM16.7782 10.1653C16.8219 10.1423 16.9476 10.164 16.9859 10.1477C16.9586 10.1803 17.0735 10.183 17.1732 10.1572C17.1349 10.1816 17.0529 10.1857 17.0174 10.2006C16.9818 10.2156 16.9627 10.2047 16.9353 10.1925C16.908 10.1803 16.8383 10.1558 16.7782 10.1653Z" fill="#7FB8C1"/>
<path d="M17.1731 10.1573C17.0734 10.1831 16.9585 10.1804 16.9859 10.1478C16.9476 10.1641 16.8218 10.1424 16.7781 10.1654C16.8232 10.1383 16.8574 10.16 16.8901 10.1044C16.9106 10.1085 16.9585 10.1112 16.9749 10.0895C17.0036 10.0963 17.0542 10.1085 17.0693 10.1234C17.0843 10.1383 17.1075 10.1193 17.0883 10.0963C17.1334 10.08 17.1048 10.1156 17.21 10.0895C17.2319 10.0841 17.2852 10.0746 17.303 10.0732C17.2675 10.1017 17.2251 10.1329 17.1731 10.1573Z" fill="#7FB8C1"/>
<path d="M18.0001 7.25784C17.9953 8.96297 17.7242 10.8 15.5002 11.675C13.2762 10.8 13.0051 8.96297 13.0002 7.25781L18.0001 7.25784Z" stroke="black" stroke-width="0.0502625"/>
<path d="M13.991 8.0237C13.954 8.071 13.9145 8.11056 13.8635 8.14669C13.8125 8.18291 13.7468 8.21183 13.7832 8.27333C13.8197 8.33483 13.8489 8.34214 13.8561 8.38911C13.8635 8.43611 13.8744 8.47596 13.9108 8.48682C13.9473 8.49758 13.9619 8.49039 13.9619 8.56639C13.9619 8.64238 13.9619 8.67131 13.9947 8.70024C14.0275 8.72914 14.0238 8.75809 14.0384 8.8269C14.053 8.89558 14.053 9.04393 14.0967 9.14521C14.1405 9.24649 14.239 9.43827 14.228 9.47805C14.2171 9.51783 14.2024 9.54676 14.2462 9.59373C14.29 9.64082 14.3191 9.70951 14.3228 9.74929C14.3264 9.78917 14.3337 9.80357 14.3774 9.78917C14.4211 9.77467 14.443 9.76015 14.4577 9.74208C14.4722 9.72403 14.5013 9.72768 14.5415 9.74929C14.5816 9.771 14.6435 9.79272 14.6799 9.771C14.7164 9.74929 14.7346 9.71682 14.7674 9.71682C14.8185 9.68061 14.8367 9.60458 14.8476 9.58297C14.8585 9.56126 14.8513 9.56126 14.8294 9.53954C14.8076 9.51783 14.8185 9.48159 14.8148 9.44548C14.8112 9.40924 14.7966 9.35506 14.7528 9.27539C14.7092 9.19585 14.6836 9.09811 14.6545 9.07286C14.6253 9.04747 14.6107 8.986 14.607 8.95708C14.6035 8.92815 14.5706 8.90279 14.5487 8.88106C14.5269 8.85944 14.505 8.82687 14.4795 8.70024C14.454 8.57357 14.4358 8.48318 14.4358 8.46146C14.4358 8.43975 14.4321 8.43608 14.4102 8.42889C14.3883 8.42168 14.3774 8.38547 14.3847 8.3674C14.392 8.34933 14.3774 8.33126 14.3701 8.30955C14.3629 8.28783 14.3701 8.24805 14.3847 8.22636C14.3993 8.20462 14.3957 8.14313 14.3811 8.09249C14.3665 8.04187 14.3519 7.99842 14.2935 7.99113C14.2353 7.98392 14.2243 7.96952 14.2024 7.92242C14.1806 7.87543 14.1587 7.79224 14.1514 7.77407C14.1442 7.75598 14.1332 7.75234 14.0895 7.78857C14.0457 7.82469 14.0312 7.8367 14.0312 7.90435C14.0312 7.94778 14.0385 7.96221 14.053 7.98756C14.0676 8.01285 14.0713 8.02013 14.0822 8.08884C14.0931 8.15755 14.1551 8.26612 14.0749 8.32761C13.9947 8.38911 14.0056 8.40361 14.0093 8.44696C14.0129 8.49039 13.9874 8.51929 13.9728 8.45782C13.9583 8.39632 13.9728 8.36018 14.0166 8.33126C14.0603 8.30226 14.1004 8.26612 14.0713 8.22634C14.042 8.18658 14.0312 8.09249 14.0275 8.04906C14.0238 8.00563 14.0166 7.99113 13.991 8.02368V8.0237Z" fill="#CFA763"/>
<path d="M13.3417 8.94642C13.3397 8.97587 13.3463 9.00824 13.3486 9.03423C13.3513 9.06408 13.3596 9.12654 13.3377 9.17268C13.3158 9.21872 13.3213 9.24314 13.3377 9.25672C13.3386 9.25747 13.3395 9.25817 13.3403 9.2589C13.3849 9.24407 13.3907 9.19469 13.3787 9.17079C13.366 9.14553 13.3696 9.11475 13.3842 9.08947C13.3988 9.06408 13.3988 9.04968 13.386 9.03151C13.3732 9.01344 13.3732 9.01344 13.3879 8.96283C13.4007 8.91825 13.3683 8.91855 13.3417 8.94642ZM13.8079 9.64751C13.7997 9.61494 13.7696 9.49006 13.7669 9.40873C13.7641 9.32731 13.7287 9.26214 13.6603 9.19982C13.607 9.15106 13.5953 9.07275 13.5928 9.01231C13.5527 8.98799 13.5357 8.99904 13.5391 9.04423C13.5427 9.09301 13.5919 9.11661 13.5847 9.18708C13.5774 9.25765 13.5774 9.2396 13.612 9.27396C13.6466 9.30828 13.6593 9.34088 13.6412 9.35538C13.623 9.36978 13.6211 9.39516 13.6466 9.40413C13.6721 9.41321 13.674 9.44037 13.6703 9.46563C13.6666 9.49101 13.6904 9.49644 13.7049 9.51449C13.7195 9.53256 13.7213 9.57598 13.7068 9.60136C13.6922 9.62662 13.6904 9.6664 13.7158 9.64479C13.7414 9.62308 13.7524 9.64291 13.7723 9.67726C13.7897 9.70692 13.8042 9.69762 13.8231 9.68865C13.8167 9.67545 13.8116 9.66167 13.8079 9.64751ZM13.5947 8.14074C13.5676 8.14272 13.5491 8.16622 13.5646 8.24837C13.5743 8.29921 13.5354 8.28816 13.5209 8.26277C13.5063 8.23752 13.4953 8.18323 13.4662 8.13614C13.437 8.08914 13.4516 8.16871 13.448 8.21216C13.4443 8.25559 13.4735 8.25559 13.499 8.2917C13.5245 8.32794 13.5026 8.34247 13.4735 8.34247C13.4443 8.34247 13.459 8.40027 13.4662 8.44008C13.4735 8.47983 13.459 8.48715 13.437 8.45458C13.4152 8.42201 13.4297 8.37137 13.4334 8.30987C13.437 8.24837 13.4407 8.26277 13.4006 8.24837C13.3605 8.23387 13.3677 8.22666 13.3824 8.19045C13.3969 8.15431 13.4115 8.13616 13.3933 8.11807C13.375 8.10002 13.3787 8.08917 13.4078 8.0855C13.437 8.08198 13.4261 8.06024 13.4516 8.05293C13.4771 8.04574 13.4881 8.0566 13.4917 8.0096C13.4947 7.97035 13.508 7.94622 13.5377 7.95813C13.5555 8.01857 13.5788 8.11267 13.5947 8.14074ZM14.2609 8.79096C14.2717 8.71142 14.2644 8.63188 14.2973 8.60282C14.3301 8.57392 14.3702 8.51607 14.3665 8.63906C14.3629 8.76206 14.3592 8.75484 14.3338 8.78377C14.3082 8.81267 14.2863 8.81988 14.3119 8.86695C14.3373 8.91395 14.341 8.91762 14.3373 8.98997C14.3338 9.06232 14.3338 9.09125 14.3629 9.12746C14.392 9.16358 14.3993 9.16725 14.4067 9.20703C14.4139 9.24679 14.4394 9.3011 14.4722 9.33C14.505 9.35892 14.5415 9.44213 14.5451 9.50009C14.5488 9.55791 14.5998 9.57244 14.6471 9.61222C14.6946 9.652 14.6363 9.68091 14.5998 9.66286C14.5634 9.64477 14.5779 9.66286 14.5561 9.68812C14.5342 9.7135 14.5269 9.71714 14.5087 9.67372C14.4905 9.63027 14.4284 9.60134 14.3993 9.59051C14.3702 9.57965 14.3447 9.53256 14.3191 9.48556C14.2973 9.44517 14.2539 9.41562 14.2144 9.4126C14.2253 9.44309 14.2312 9.46699 14.228 9.47837C14.2171 9.51816 14.2025 9.54706 14.2462 9.59405C14.29 9.64112 14.3191 9.70983 14.3228 9.74961C14.3264 9.7895 14.3338 9.8039 14.3774 9.7895C14.4212 9.77497 14.4431 9.76047 14.4577 9.7424C14.4722 9.72436 14.5013 9.728 14.5415 9.74961C14.5816 9.77133 14.6436 9.79304 14.68 9.77133C14.7165 9.74961 14.7347 9.71714 14.7675 9.71714C14.8185 9.68091 14.8367 9.60491 14.8477 9.5833C14.8586 9.56158 14.8513 9.56158 14.8295 9.53987C14.8076 9.51816 14.8185 9.48192 14.8148 9.4458C14.8113 9.40956 14.7966 9.35538 14.7529 9.27571C14.7092 9.19617 14.6836 9.09844 14.6545 9.07316C14.6254 9.0478 14.6107 8.9863 14.6071 8.9574C14.6035 8.92848 14.5707 8.90312 14.5488 8.88138C14.5269 8.85977 14.505 8.8272 14.4796 8.70056C14.4596 8.60157 14.4441 8.52484 14.4383 8.48559C14.4121 8.52705 14.3943 8.53716 14.3848 8.50876C14.3739 8.47629 14.3592 8.45812 14.3447 8.47986C14.3301 8.50157 14.3264 8.46176 14.3264 8.44372C14.3264 8.42555 14.3228 8.42201 14.3045 8.42201C14.2863 8.42201 14.3009 8.3931 14.2936 8.3388C14.2863 8.28451 14.2754 8.2773 14.2681 8.34244C14.2609 8.40748 14.2244 8.44726 14.239 8.46179C14.2535 8.47629 14.2463 8.50522 14.2316 8.54864C14.2171 8.59197 14.2244 8.61735 14.2353 8.64625C14.2462 8.67518 14.228 8.72949 14.2207 8.77656C14.2134 8.82355 14.2499 8.87055 14.2609 8.79096H14.2609ZM13.9619 8.56671C13.9619 8.64271 13.9619 8.67163 13.9947 8.70056C14.0275 8.72946 14.0239 8.75839 14.0385 8.8272C14.053 8.89591 14.053 9.04426 14.0968 9.14553C14.1098 9.17569 14.1278 9.21402 14.1462 9.2539C14.1704 9.235 14.1915 9.20253 14.1989 9.18529C14.2097 9.15993 14.177 9.1093 14.1515 9.06597C14.126 9.02254 14.1551 9.00802 14.1806 8.95373C14.2062 8.89955 14.177 8.89591 14.1369 8.88138C14.0968 8.86698 14.0968 8.83074 14.0749 8.77291C14.053 8.71506 14.0567 8.6897 14.0713 8.65713C14.0858 8.62454 14.0749 8.59928 14.0457 8.59197C14.0166 8.58478 14.0239 8.56307 14.0348 8.52693C14.0457 8.49069 14.053 8.4835 14.0094 8.49436C13.9762 8.5025 13.9682 8.50866 13.9583 8.52057C13.9607 8.531 13.9619 8.54553 13.9619 8.56671Z" fill="#D7C99C"/>
<path d="M14.6504 8.53711L14.563 9.49298M14.9121 9.12264C14.8764 9.28434 14.8294 9.46802 14.7817 9.62376M16.0557 8.66236C16.122 8.72393 16.211 8.73834 16.3095 8.78611M16.4946 9.08507L16.4461 9.45337M16.4472 9.10136L16.3603 9.47948M14.8549 9.13408C14.8138 9.29125 14.7589 9.43457 14.7062 9.58008" stroke="black" stroke-width="0.0125656"/>
<path d="M16.7514 10.023C16.749 10.0237 16.7465 10.0243 16.7441 10.0246C16.7415 10.025 16.7388 10.0253 16.736 10.0255L16.7277 10.026C16.7249 10.0262 16.7222 10.0264 16.7195 10.0267C16.7168 10.027 16.7142 10.0273 16.7118 10.0279C16.7095 10.0284 16.7072 10.0291 16.7051 10.0301C16.7031 10.031 16.7014 10.0322 16.6998 10.0337C16.6983 10.0353 16.6971 10.0371 16.6964 10.0392C16.6942 10.0421 16.6919 10.0449 16.6894 10.0476L16.6856 10.0518C16.6829 10.0546 16.6803 10.0574 16.6776 10.0603L16.6739 10.0648C16.6727 10.0663 16.6715 10.0679 16.6704 10.0696C16.6693 10.0712 16.6682 10.0729 16.6673 10.0747C16.6479 10.0906 16.6243 10.1006 16.5994 10.1038C16.5816 10.1087 16.5396 10.11 16.5219 10.1038C16.4877 10.1042 16.4519 10.1017 16.4314 10.0876C16.4074 10.0752 16.3761 10.0833 16.3571 10.0941C16.3419 10.1026 16.339 10.1183 16.3215 10.1231C16.3111 10.1369 16.2649 10.1353 16.2472 10.1296C16.207 10.1322 16.1823 10.1191 16.1535 10.1102C16.1346 10.0968 16.1041 10.0869 16.0825 10.107C16.0689 10.1215 16.0505 10.131 16.0275 10.1361C15.9881 10.1345 15.9435 10.1412 15.9144 10.1264C15.8821 10.1237 15.8698 10.106 15.8401 10.0973C15.8063 10.0916 15.7906 10.1091 15.7691 10.1167C15.7498 10.1328 15.7224 10.1345 15.6883 10.1329C15.6531 10.1314 15.6103 10.1376 15.5881 10.1231C15.5596 10.12 15.5413 10.1036 15.5203 10.0941C15.4995 10.0777 15.4609 10.0948 15.4428 10.1038C15.4117 10.1086 15.4001 10.1328 15.361 10.1296C15.3292 10.1257 15.3075 10.1127 15.278 10.1038C15.2502 10.0914 15.2252 10.072 15.1811 10.0747C15.1679 10.0921 15.1394 10.0994 15.1102 10.1005C15.0839 10.1009 15.058 10.1009 15.0389 10.0941C14.9861 10.0925 14.9607 10.0369 14.9225 10.0073L14.7315 9.81788C14.7424 9.78403 14.7463 9.77812 14.7287 9.75602C14.736 9.72226 14.7129 9.71764 14.7222 9.68379C14.7366 9.65782 14.6965 9.66234 14.6867 9.64828C14.6638 9.6438 14.654 9.62697 14.6318 9.61918C14.6137 9.60658 14.5962 9.5982 14.5736 9.58688C14.5538 9.57873 14.5367 9.56777 14.5187 9.55784C14.5051 9.54557 14.4871 9.53775 14.4735 9.5255C14.4558 9.51739 14.4415 9.5067 14.4282 9.49647C14.4097 9.49059 14.4007 9.47677 14.3829 9.46737C14.3701 9.45539 14.3495 9.44516 14.3345 9.43506C14.3109 9.42731 14.2895 9.41196 14.2634 9.40602C14.2457 9.40537 14.2403 9.36587 14.2729 9.36722C14.2963 9.36795 14.3106 9.38273 14.328 9.39306C14.3555 9.40437 14.3824 9.41625 14.4153 9.42216C14.4343 9.43345 14.4514 9.43938 14.4734 9.448C14.4925 9.46278 14.5177 9.46535 14.5413 9.4803C14.5633 9.4903 14.5895 9.50218 14.6027 9.5126C14.6214 9.52052 14.631 9.53405 14.6512 9.54164C14.6581 9.55009 14.6724 9.55391 14.6835 9.56428C14.7033 9.57167 14.7211 9.58015 14.7352 9.59011C14.7536 9.60219 14.7638 9.60354 14.7772 9.61598C14.7939 9.62113 14.899 9.67399 14.8937 9.66775C14.9971 9.68765 15.0429 9.69392 15.1469 9.70873L15.9015 9.72061L16.1751 9.60631L16.2582 9.47472L16.6626 9.40081C16.6549 9.39263 17.3724 9.37557 17.3875 9.43579C17.3939 9.4612 17.4134 9.51224 17.3901 9.52428C17.3748 9.53217 16.7125 9.43998 16.7023 9.49947C16.6978 9.52527 16.7033 9.68597 16.707 9.7119L16.7181 9.78967L16.7292 9.86745L16.7402 9.94522L16.7514 10.023Z" fill="#666666"/>
<path d="M14.7011 9.0059C14.5791 9.14468 14.4578 9.25541 14.3276 9.36129M15.3715 8.44088L15.7647 8.1008M15.1951 8.77701C15.2739 8.83222 15.362 8.88188 15.482 8.91232M15.1396 8.26302C15.1885 8.3405 15.2459 8.4157 15.4174 8.46048M15.0278 7.48926C14.9747 7.55983 14.8898 7.62559 14.7787 7.67958M15.1688 7.96663C15.2247 8.02086 15.3035 8.05235 15.384 8.08208M15.1687 9.15056C15.2083 9.34533 15.2425 9.50003 15.2876 9.6613" stroke="black" stroke-width="0.0125656"/>
<path d="M15.1375 9.65724C15.3417 9.44752 15.5162 9.22217 15.6295 8.96478M16.0463 8.20642C16.1117 8.27653 16.18 8.32742 16.2867 8.35632M16.3302 7.95538C16.3856 8.05482 16.454 8.12853 16.518 8.21094M15.7265 7.64453C15.7196 7.7434 15.6596 7.84274 15.6177 7.92844" stroke="black" stroke-width="0.0125656"/>
<path d="M15.8678 7.69341C15.7951 7.77441 15.7248 7.86119 15.6252 7.91097M15.8803 7.34082C15.8304 7.3748 15.7609 7.41461 15.7063 7.43466M16.6255 8.09307C16.5652 8.1647 16.5049 8.24891 16.4056 8.31071M16.6367 8.68962C16.5596 8.76267 16.4903 8.84759 16.4018 8.90361M16.6502 9.40013C16.8034 9.32167 16.945 9.21988 17.0832 9.11147C16.9681 9.22177 16.8536 9.33333 16.7238 9.41427M16.6862 8.10798C16.7112 8.17312 16.7693 8.24439 16.8269 8.29086" stroke="black" stroke-width="0.0125656"/>
<path d="M16.6009 7.45842L16.5896 9.41632L16.7321 9.40787L16.6723 7.45215L16.6009 7.45842Z" fill="#BCA76B" stroke="#472B1F" stroke-width="0.00946708"/>
<path d="M16.6957 9.98298C16.7297 10.0034 16.7493 10.0218 16.7773 10.0489C16.8397 10.1063 16.8815 10.1065 16.9706 10.0484C17.0038 10.0522 17.0374 10.0696 17.0735 10.063C17.1053 10.064 17.1362 10.0583 17.1673 10.0516C17.2053 10.0424 17.2107 9.99661 17.2242 9.96592C17.2416 9.93029 17.2606 9.8935 17.2857 9.86271C17.3186 9.84057 17.3542 9.8177 17.377 9.78471C17.4031 9.75409 17.3986 9.71416 17.3932 9.67737C17.3902 9.64239 17.3874 9.60983 17.3877 9.57455C17.379 9.53001 17.4175 9.49556 17.4142 9.45181C17.3922 9.43224 17.3558 9.42699 17.3263 9.41848C17.2742 9.40712 17.2215 9.39949 17.1683 9.39565C17.125 9.39215 17.0817 9.3875 17.0385 9.3843C16.9959 9.38093 16.9533 9.37803 16.9105 9.37789C16.8625 9.37921 16.813 9.37328 16.7661 9.38103C16.7324 9.38892 16.69 9.38588 16.6624 9.40132C16.6499 9.43389 16.642 9.46761 16.6406 9.50137C16.636 9.53044 16.6343 9.56066 16.6344 9.59112C16.6361 9.64665 16.6287 9.70314 16.6441 9.75699C16.6543 9.80035 16.6579 9.84446 16.6661 9.88733C16.6673 9.92154 16.6715 9.95675 16.6958 9.98298H16.6957Z" fill="#333333" stroke="black" stroke-width="0.0329963"/>
<path d="M16.8586 9.0293L17.0526 9.39214M17.3433 9.41114C17.2861 9.3511 17.2412 9.27877 17.2066 9.19612" stroke="black" stroke-width="0.0125656"/>
<path d="M17.3301 8.84473L17.394 8.88964L17.3985 8.89132C17.3775 8.87177 17.3572 8.85053 17.3307 8.84478C17.3307 8.84478 17.3303 8.84478 17.3301 8.84473ZM17.1954 8.86368L17.1882 8.86586L17.0984 9.21695L17.1954 8.86368ZM17.6236 8.87642C17.6015 8.87825 17.5805 8.88758 17.5596 8.8975L17.5973 8.88436L17.6463 8.87707C17.6388 8.87624 17.6312 8.87602 17.6236 8.87642ZM17.2066 9.19581L17.189 9.19923C17.1964 9.19923 17.2034 9.1996 17.2092 9.20111C17.2181 9.2034 17.226 9.20689 17.2335 9.21084L17.2066 9.19581ZM17.2417 9.21541C17.2647 9.22926 17.2842 9.24708 17.3114 9.25434L17.2417 9.21541ZM17.4494 9.23333L17.3296 9.25731C17.3715 9.26103 17.4091 9.24454 17.4494 9.23333Z" fill="#472B1F"/>
<path d="M17.2013 8.84346L17.0984 9.2183L17.2066 9.19718L17.3201 9.2605L17.4917 9.22618L17.5788 9.23938C17.6057 9.11895 17.5978 8.9768 17.6685 8.87514L17.5973 8.8857L17.4838 8.92529L17.394 8.89098L17.3228 8.84082L17.2013 8.84346Z" fill="white"/>
<path d="M17.3651 8.8877C17.3471 8.92224 17.3297 8.95709 17.3255 8.99856C17.3255 8.99856 17.2752 8.98101 17.249 8.97745C17.2211 8.97368 17.1645 8.97745 17.1645 8.97745L17.1638 8.97985L17.1394 9.06852C17.142 9.06819 17.2085 9.05997 17.2384 9.06456C17.2607 9.06792 17.3017 9.08831 17.3017 9.08831L17.2685 9.23106L17.2897 9.24287L17.3357 9.25676L17.337 9.2565L17.3564 9.25257C17.3653 9.20377 17.3724 9.15328 17.3941 9.11728C17.3941 9.11728 17.4637 9.13599 17.5023 9.13315C17.5289 9.13121 17.5837 9.12537 17.5972 9.12388C17.6011 9.09369 17.605 9.06347 17.6103 9.0338C17.5968 9.03743 17.538 9.05189 17.5049 9.04865C17.475 9.04578 17.4205 9.01704 17.4205 9.01704C17.4285 8.98622 17.4425 8.9554 17.4575 8.92462L17.3651 8.8877Z" fill="#C8102E"/>
<path d="M17.1264 8.84132C17.0808 8.71643 17.0241 8.51185 17.001 8.34961" stroke="black" stroke-width="0.0164981"/>
<path d="M17.1674 8.87037C17.1674 8.87037 17.2802 8.84371 17.3271 8.85387C17.3763 8.8645 17.4075 8.92062 17.4573 8.92765C17.5146 8.93574 17.5658 8.88225 17.6236 8.8775C17.651 8.87522 17.7054 8.88806 17.7054 8.88806L17.6684 9.02532L17.6367 9.14147V9.24438C17.6367 9.24438 17.5401 9.22115 17.4916 9.22591C17.4307 9.23185 17.3804 9.26748 17.32 9.25758C17.2754 9.25026 17.2529 9.21347 17.2091 9.20215C17.173 9.19281 17.0811 9.21683 17.0811 9.21683L17.1674 8.87037Z" stroke="#472B1F" stroke-width="0.0329963"/>
<path d="M17.1879 8.86621L17.143 8.86885L17.0005 9.37298L17.0665 9.37565L17.1879 8.86621Z" fill="#BCA76B" stroke="#472B1F" stroke-width="0.00753938"/>
<path d="M17.1431 8.86868C17.1234 8.85772 17.1092 8.82548 17.1193 8.80535C17.1309 8.78248 17.1687 8.777 17.1932 8.78424C17.2201 8.79218 17.2577 8.82101 17.2487 8.84757C17.2371 8.88157 17.1745 8.88612 17.1431 8.86868Z" fill="#BCA76B" stroke="#472B1F" stroke-width="0.00753938"/>
<path d="M17.6631 8.88086C17.5944 8.98041 17.6001 9.11639 17.574 9.23333C17.6068 9.23864 17.6336 9.24468 17.6336 9.24468V9.14173L17.6669 9.02561L17.7056 8.88835C17.7056 8.88835 17.6854 8.88406 17.6631 8.88086Z" fill="#472B1F"/>
<path d="M16.851 8.47096C16.9217 8.51919 16.994 8.64754 17.0946 8.74824M16.984 8.28783C16.9317 8.15009 16.8895 7.92514 16.8821 7.75744M16.7757 9.09585L16.8871 9.38662M16.8865 7.62165C16.7906 7.5971 16.6997 7.52917 16.6854 7.47463M16.2607 7.7172C16.3229 7.72195 16.5404 7.5593 16.5737 7.47461M16.8149 9.05421L16.9683 9.38174M16.8029 9.16436L16.9146 9.12231M16.8216 9.22553L16.9408 9.17572M16.8707 9.34837L17.0005 9.29321M16.7372 8.70355L16.8938 8.8713M16.4054 9.10993L16.2973 9.47533M16.3755 9.1914L16.4848 9.18982M16.3489 9.28145L16.4763 9.28517M16.3196 9.37466L16.4576 9.40074" stroke="black" stroke-width="0.0125656"/>
<path d="M16.6862 7.40947C16.6608 7.40066 16.5934 7.39895 16.5667 7.42046C16.5523 7.43201 16.5643 7.47061 16.5822 7.47094C16.6184 7.4716 16.6644 7.47329 16.6788 7.46269C16.6938 7.45171 16.7035 7.41544 16.6862 7.40947Z" fill="#BCA76B" stroke="#472B1F" stroke-width="0.00955471"/>
<path d="M16.2905 7.71443C16.3373 7.90581 16.5403 7.8739 16.5309 7.69922Z" fill="#BCA76B"/>
<path d="M16.2905 7.71443C16.3373 7.90581 16.5403 7.8739 16.5309 7.69922" stroke="#472B1F" stroke-width="0.0131135"/>
<path d="M16.4768 7.70596C16.5376 7.92575 16.8016 7.88909 16.7893 7.68848Z" fill="#BCA76B"/>
<path d="M16.4768 7.70596C16.5376 7.92575 16.8016 7.88909 16.7893 7.68848" stroke="#472B1F" stroke-width="0.0160241"/>
<path d="M16.7002 7.70205C16.7597 7.86303 16.8434 7.83179 16.9434 7.68555Z" fill="#BCA76B"/>
<path d="M16.7002 7.70205C16.7597 7.86303 16.8434 7.83179 16.9434 7.68555" stroke="#472B1F" stroke-width="0.0137214"/>
<path d="M17.0014 7.625L16.259 7.6675L16.2608 7.71779L17.0092 7.67938L17.0014 7.625Z" fill="#BCA76B" stroke="#472B1F" stroke-width="0.0132834"/>
<path d="M16.3176 8.37074C16.3626 8.58126 16.5743 8.54998 16.5678 8.3584Z" fill="#BCA76B"/>
<path d="M16.3176 8.37074C16.3626 8.58126 16.5743 8.54998 16.5678 8.3584" stroke="#472B1F" stroke-width="0.0139979"/>
<path d="M16.5117 8.36314C16.5707 8.60507 16.8458 8.56969 16.837 8.34961Z" fill="#BCA76B"/>
<path d="M16.5117 8.36314C16.5707 8.60507 16.8458 8.56969 16.837 8.34961" stroke="#472B1F" stroke-width="0.0171048"/>
<path d="M16.7437 8.36229C16.8024 8.53975 16.8901 8.50705 16.9967 8.34863Z" fill="#BCA76B"/>
<path d="M16.7437 8.36229C16.8024 8.53975 16.8901 8.50705 16.9967 8.34863" stroke="#472B1F" stroke-width="0.0146468"/>
<path d="M17.0583 8.28418L16.2856 8.31731L16.2866 8.37241L17.0654 8.34394L17.0583 8.28418Z" fill="#BCA76B" stroke="#472B1F" stroke-width="0.0141793"/>
<path d="M16.2979 8.96338C16.3477 9.17825 16.5643 9.14242 16.5543 8.94629Z" fill="#BCA76B"/>
<path d="M16.2979 8.96338C16.3477 9.17825 16.5643 9.14242 16.5543 8.94629" stroke="#472B1F" stroke-width="0.014351"/>
<path d="M16.4968 8.95323C16.5501 9.27382 16.8432 9.15886 16.8302 8.93359Z" fill="#BCA76B"/>
<path d="M16.4968 8.95323C16.5501 9.27382 16.8432 9.15886 16.8302 8.93359" stroke="#472B1F" stroke-width="0.0175363"/>
<path d="M16.7349 8.94817C16.7983 9.12895 16.8876 9.09388 16.9942 8.92969Z" fill="#BCA76B"/>
<path d="M16.7349 8.94817C16.7983 9.12895 16.8876 9.09388 16.9942 8.92969" stroke="#472B1F" stroke-width="0.0150163"/>
<path d="M17.0563 8.86328L16.2644 8.91103L16.2663 8.96748L17.0647 8.92436L17.0563 8.86328Z" fill="#BCA76B" stroke="#472B1F" stroke-width="0.014537"/>
<path d="M16.7896 8.00879L16.4958 8.01743L16.4967 8.09039L16.7928 8.08939L16.7896 8.00879ZM16.7916 8.63021L16.4979 8.63885L16.4987 8.71181L16.7948 8.71081L16.7916 8.63021Z" fill="#BCA76B" stroke="#472B1F" stroke-width="0.00643129"/>
<path d="M16.0581 8.96973L16.2748 9.49113M14.9606 9.1323C14.9369 9.29672 14.8996 9.50681 14.8577 9.66519" stroke="black" stroke-width="0.0164981"/>
<path d="M17.3913 9.45037C17.2679 9.43048 17.144 9.41012 17.0191 9.40467C16.9208 9.40035 16.822 9.40609 16.7239 9.4149C16.5808 9.42777 16.4347 9.43437 16.2976 9.47694C16.279 9.48268 16.2593 9.48908 16.2454 9.50261C16.2067 9.54036 16.203 9.60318 16.1703 9.64624C16.1387 9.68798 16.018 9.75757 15.9745 9.78664C15.6572 9.79456 15.3046 9.79014 14.9101 9.73114L14.8546 9.66911L14.8318 9.64624L14.8938 9.66911L15.0342 9.67237L15.377 9.65931C15.377 9.65931 15.6666 9.65964 15.8112 9.65277C15.893 9.64891 15.9749 9.64403 16.0561 9.63321C16.0736 9.63086 16.0935 9.63311 16.1083 9.62341C16.1325 9.60757 16.1404 9.57513 16.1573 9.55157C16.1731 9.52947 16.1831 9.50053 16.2063 9.48627C16.2681 9.43995 16.3466 9.44414 16.4139 9.43127C16.4946 9.41583 16.5689 9.41273 16.6503 9.40075C16.7443 9.38692 16.8393 9.38039 16.9343 9.37527C16.9952 9.37201 17.0563 9.36752 17.1171 9.37201C17.2095 9.37884 17.3109 9.37161 17.3913 9.41771C17.4061 9.42619 17.4327 9.44229 17.424 9.45691C17.4183 9.46644 17.4023 9.45212 17.3913 9.45037Z" fill="black" stroke="black" stroke-width="0.0098989"/>
<path d="M15.9477 7.34082C15.9947 7.37678 16.0813 7.40679 16.1654 7.41958M15.8503 8.66496C15.751 8.73646 15.646 8.78554 15.5374 8.81977M16.1314 9.59545L15.9587 9.14251M15.9929 8.99423L16.1917 9.51073M15.9685 9.12783L16.1004 9.08222" stroke="black" stroke-width="0.0125656"/>
<path d="M15.8767 7.27344L15.8357 9.67976L15.9782 9.67121L15.9514 7.2737L15.8767 7.27344Z" fill="#BCA76B" stroke="#472B1F" stroke-width="0.00950618"/>
<path d="M16.0479 7.64551C16.1035 7.75129 16.1925 7.83623 16.3228 7.89539" stroke="black" stroke-width="0.0164981"/>
<path d="M15.5823 7.49473C15.6272 7.70525 15.8389 7.674 15.8325 7.48242Z" fill="#BCA76B"/>
<path d="M15.5823 7.49473C15.6272 7.70525 15.8389 7.674 15.8325 7.48242" stroke="#472B1F" stroke-width="0.0139979"/>
<path d="M15.7764 7.48908C15.8354 7.73101 16.1105 7.69564 16.1016 7.47559Z" fill="#BCA76B"/>
<path d="M15.7764 7.48908C15.8354 7.73101 16.1105 7.69564 16.1016 7.47559" stroke="#472B1F" stroke-width="0.0171048"/>
<path d="M16.0083 7.48827C16.067 7.66572 16.1743 7.68183 16.2614 7.47461Z" fill="#BCA76B"/>
<path d="M16.0083 7.48827C16.067 7.66572 16.1743 7.68183 16.2614 7.47461" stroke="#472B1F" stroke-width="0.0146468"/>
<path d="M16.3231 7.41016L15.5505 7.44325L15.5515 7.49839L16.3303 7.46988L16.3231 7.41016Z" fill="#BCA76B" stroke="#472B1F" stroke-width="0.0141793"/>
<path d="M15.5823 7.98109C15.6272 8.19161 15.8389 8.16033 15.8325 7.96875Z" fill="#BCA76B"/>
<path d="M15.5823 7.98109C15.6272 8.19161 15.8389 8.16033 15.8325 7.96875" stroke="#472B1F" stroke-width="0.0139979"/>
<path d="M15.7764 7.97346C15.8354 8.21539 16.1105 8.18001 16.1016 7.95996Z" fill="#BCA76B"/>
<path d="M15.7764 7.97346C15.8354 8.21539 16.1105 8.18001 16.1016 7.95996" stroke="#472B1F" stroke-width="0.0171048"/>
<path d="M16.0083 7.97359C16.067 8.15108 16.2445 8.12121 16.2614 7.95996Z" fill="#BCA76B"/>
<path d="M16.0083 7.97359C16.067 8.15108 16.2445 8.12121 16.2614 7.95996" stroke="#472B1F" stroke-width="0.0146468"/>
<path d="M16.3231 7.89453L15.5505 7.92763L15.5515 7.98276L16.3303 7.95425L16.3231 7.89453Z" fill="#BCA76B" stroke="#472B1F" stroke-width="0.0141793"/>
<path d="M15.8121 8.25098C15.7424 8.29674 15.6791 8.3528 15.5874 8.38095" stroke="black" stroke-width="0.0164981"/>
<path d="M15.5588 8.43617C15.6038 8.64669 15.8155 8.6154 15.8091 8.42383Z" fill="#BCA76B"/>
<path d="M15.5588 8.43617C15.6038 8.64669 15.8155 8.6154 15.8091 8.42383" stroke="#472B1F" stroke-width="0.0139979"/>
<path d="M15.7529 8.43049C15.8119 8.67242 16.0871 8.63704 16.0782 8.41699Z" fill="#BCA76B"/>
<path d="M15.7529 8.43049C15.8119 8.67242 16.0871 8.63704 16.0782 8.41699" stroke="#472B1F" stroke-width="0.0171048"/>
<path d="M15.9851 8.42964C16.0438 8.60713 16.2007 8.55133 16.2382 8.41602Z" fill="#BCA76B"/>
<path d="M15.9851 8.42964C16.0438 8.60713 16.2007 8.55133 16.2382 8.41602" stroke="#472B1F" stroke-width="0.0146468"/>
<path d="M16.2997 8.35156L15.5271 8.38466L15.528 8.4398L16.3068 8.41129L16.2997 8.35156Z" fill="#BCA76B" stroke="#472B1F" stroke-width="0.0141793"/>
<path d="M15.6564 8.98745C15.6364 9.22511 15.5412 9.44021 15.4768 9.66453M15.7424 8.98931C15.7211 9.22036 15.6494 9.43752 15.5909 9.65461M15.8135 8.96875C15.7858 9.22544 15.7549 9.43978 15.6975 9.65333" stroke="black" stroke-width="0.0125656"/>
<path d="M15.5691 8.87172C15.6141 9.08223 15.8257 9.05095 15.8193 8.85938Z" fill="#BCA76B"/>
<path d="M15.5691 8.87172C15.6141 9.08223 15.8257 9.05095 15.8193 8.85938" stroke="#472B1F" stroke-width="0.0139979"/>
<path d="M15.7632 8.86506C15.8222 9.10699 16.0973 9.07162 16.0885 8.85156Z" fill="#BCA76B"/>
<path d="M15.7632 8.86506C15.8222 9.10699 16.0973 9.07162 16.0885 8.85156" stroke="#472B1F" stroke-width="0.0171048"/>
<path d="M15.9954 8.86519C16.0541 9.04268 16.2087 9.00767 16.2485 8.85156Z" fill="#BCA76B"/>
<path d="M15.9954 8.86519C16.0541 9.04268 16.2087 9.00767 16.2485 8.85156" stroke="#472B1F" stroke-width="0.0146468"/>
<path d="M16.31 8.78711L15.5374 8.8202L15.5383 8.87534L16.3171 8.84683L16.31 8.78711Z" fill="#BCA76B" stroke="#472B1F" stroke-width="0.0141793"/>
<path d="M16.0644 7.7373L15.7871 7.74595L15.7879 7.8189L16.0674 7.81791L16.0644 7.7373Z" fill="#BCA76B" stroke="#472B1F" stroke-width="0.00820371"/>
<path d="M16.0529 8.20605L15.8064 8.21414L15.8071 8.28251L16.0555 8.28158L16.0529 8.20605Z" fill="#BCA76B" stroke="#472B1F" stroke-width="0.00748957"/>
<path d="M16.0686 8.66211L15.8005 8.67079L15.8014 8.74407L16.0715 8.74308L16.0686 8.66211Z" fill="#BCA76B" stroke="#472B1F" stroke-width="0.00808367"/>
<path d="M15.6509 9.0732L15.795 9.10311M15.6173 9.20785L15.7838 9.2116M15.5911 9.30511L15.7632 9.35374M15.5443 9.45849L15.7463 9.44914M15.5088 9.58193L15.722 9.57633M15.459 8.98145C15.4364 9.22459 15.5933 9.45512 15.6717 9.65944M16.1099 9.53195L16.2468 9.49121M16.0774 9.45861L16.2322 9.39345M16.0285 9.34293L16.1882 9.29569M15.9926 9.23376L16.149 9.19305" stroke="black" stroke-width="0.0125656"/>
<path d="M15.1557 10.09C15.1375 10.0904 15.1201 10.0838 15.1021 10.0815C15.0842 10.0757 15.0661 10.0703 15.0492 10.0617C15.0325 10.0536 15.0168 10.0412 15.0018 10.0305C14.9867 10.0195 14.9725 10.0073 14.9593 9.99398C14.9423 9.97845 14.9252 9.96418 14.9098 9.94724C14.8937 9.93078 14.8767 9.91444 14.8629 9.8974C14.8481 9.88084 14.8299 9.86787 14.8178 9.8493C14.8039 9.83571 14.8038 9.81191 14.7921 9.79708C14.773 9.79331 14.7447 9.79012 14.7439 9.76481C14.7376 9.74956 14.7349 9.73086 14.7157 9.73294C14.7078 9.73335 14.7056 9.74501 14.7105 9.73774C14.7007 9.73244 14.7033 9.75586 14.702 9.74327C14.6963 9.75257 14.69 9.77233 14.6902 9.77089C14.6818 9.78783 14.6827 9.80693 14.7048 9.80924C14.7259 9.81236 14.7284 9.83543 14.7463 9.8448C14.7606 9.8587 14.7782 9.8771 14.7941 9.88969C14.8093 9.90829 14.821 9.91869 14.8328 9.93988C14.8401 9.95478 14.8595 9.96523 14.8707 9.97757C14.88 9.99295 14.8905 10.0066 14.9026 10.0202C14.9159 10.0338 14.933 10.0482 14.9489 10.057C14.9633 10.0657 14.9777 10.0736 14.9927 10.082C15.009 10.0901 15.0244 10.1011 15.0423 10.1045C15.0613 10.1152 15.0849 10.1118 15.1058 10.1163C15.1267 10.1176 15.1473 10.1163 15.1646 10.1031C15.1819 10.0914 15.1643 10.0936 15.1557 10.09ZM16.2836 9.54328C16.2582 9.60359 16.2177 9.68733 16.1672 9.7393C16.3327 9.77132 16.466 9.7251 16.6152 9.69977C16.5984 9.63596 16.599 9.56522 16.6053 9.49219C16.4867 9.50428 16.4023 9.53122 16.2837 9.54328H16.2836Z" fill="black"/>
<path d="M16.2974 9.55933C16.2765 9.61269 16.2605 9.66779 16.219 9.71375C16.3549 9.74206 16.4658 9.70118 16.5882 9.67878C16.5648 9.62928 16.5718 9.5755 16.5801 9.52148C16.4828 9.53214 16.3947 9.54867 16.2974 9.55933Z" fill="#333333"/>
<path d="M14.8674 9.79941L15.3481 9.83573C15.7343 9.84761 16.1771 9.8301 16.56 9.78622C16.5757 9.78438 16.6014 9.78001 16.6066 9.79494C16.6129 9.81313 16.5878 9.83575 16.5687 9.83864C16.1293 9.89594 15.685 9.87383 15.2432 9.87068L14.981 9.84312L14.8674 9.79941Z" fill="black"/>
<path d="M15.0439 8.72186C14.9202 8.81722 14.7969 8.9135 14.657 8.96834M15.0626 8.26855C14.9496 8.35019 14.8373 8.45093 14.7163 8.50035" stroke="black" stroke-width="0.0164981"/>
<path d="M15.0207 7.44067L15.0176 9.68934L15.141 9.68082L15.0694 7.42773L15.0207 7.44067Z" fill="#BCA76B" stroke="#472B1F" stroke-width="0.00884684"/>
<path d="M15.0696 7.42773C15.1698 7.5386 15.2495 7.59849 15.3341 7.67026" stroke="black" stroke-width="0.0164981"/>
<path d="M15.1012 7.36346C15.0761 7.35062 15.0097 7.34812 14.9833 7.37943C14.9692 7.39626 14.9809 7.45248 14.9987 7.45294C15.0344 7.4539 15.0797 7.45641 15.0939 7.44097C15.1087 7.42496 15.1183 7.37217 15.1012 7.36346Z" fill="#BCA76B" stroke="#472B1F" stroke-width="0.0114492"/>
<path d="M15.0309 9.97935C15.0344 9.96028 15.0491 9.95474 15.0664 9.95147C15.0864 9.95223 15.1107 9.9486 15.1235 9.95652C15.1388 9.96038 15.1466 9.96813 15.1603 9.9743C15.1686 9.98443 15.1829 9.9914 15.1933 9.99714C15.2336 10.0126 15.2117 9.96599 15.2347 9.96414C15.2542 9.96589 15.2746 9.95688 15.2909 9.96414C15.3055 9.96701 15.3122 9.9776 15.3201 9.98697C15.3288 9.99466 15.3383 10.0013 15.343 10.0098C15.3463 10.0216 15.3897 10.0428 15.3912 10.0149C15.4001 9.99582 15.3962 9.96282 15.4268 9.96671C15.4608 9.96483 15.487 9.97331 15.5181 9.97684C15.5344 9.98351 15.5476 9.98565 15.5612 9.99968C15.573 10.0067 15.572 10.0207 15.5828 10.02C15.6137 10.0428 15.6072 10.0005 15.617 9.98697C15.6247 9.97473 15.6471 9.97813 15.6576 9.96922C15.6772 9.96348 15.6961 9.95698 15.7236 9.95909C15.7346 9.9653 15.7537 9.9749 15.7667 9.98193C15.7765 9.9909 15.7888 10.0026 15.7947 10.0174C15.7959 10.0323 15.8093 10.0441 15.8226 10.0326C15.8294 10.0156 15.8431 10.016 15.8556 10.0073C15.8687 10.0044 15.8773 9.99605 15.886 9.98701C15.8937 9.98503 15.9016 9.96803 15.9089 9.9616C15.9224 9.9515 15.9496 9.95391 15.9723 9.95147C15.9947 9.95807 16.0154 9.96074 16.0281 9.97176C16.0359 9.98008 16.0416 9.9905 16.0536 9.9946C16.0607 10.0093 16.0778 9.99704 16.0891 9.99206C16.0983 9.98523 16.1123 9.9778 16.1246 9.97176C16.1353 9.96107 16.1506 9.95493 16.1711 9.95401C16.1961 9.95117 16.2091 9.96434 16.2286 9.96668C16.2469 9.9747 16.2677 9.97592 16.2793 9.98701C16.2926 9.99602 16.3105 10.0036 16.3237 9.99206C16.341 9.99258 16.3277 9.95873 16.3343 9.95078C16.3542 9.93494 16.4016 9.93705 16.4265 9.94642C16.4475 9.94698 16.4721 9.94395 16.4861 9.9515C16.5 9.95487 16.502 9.96807 16.5077 9.98193C16.514 9.99489 16.5508 9.99437 16.5635 9.98447C16.5755 9.98473 16.5608 9.96731 16.5559 9.96163C16.5481 9.95652 16.5397 9.94418 16.5355 9.93623C16.5544 9.92712 16.5632 9.94441 16.5787 9.94639C16.5877 9.95414 16.6 9.95682 16.6091 9.96668C16.6239 9.97216 16.6368 9.97948 16.6597 9.97684C16.681 9.98305 16.6716 10.0141 16.6472 10.0073C16.6293 10.0131 16.6007 10.0082 16.5787 10.0098C16.5453 10.0058 16.5096 10.0077 16.4747 10.0073C16.4573 10.0137 16.4289 10.0121 16.4087 10.0174C16.3871 10.0172 16.3704 10.0217 16.3472 10.02C16.3253 10.0233 16.2995 10.0225 16.2743 10.0225C16.2521 10.0268 16.2328 10.0276 16.2093 10.0301C16.1889 10.0303 16.1723 10.0344 16.15 10.0326C16.1208 10.0381 16.0819 10.0339 16.0486 10.0352C16.0276 10.0387 16.0098 10.0381 15.9902 10.0403C15.969 10.0409 15.9503 10.0444 15.9277 10.0453C15.9046 10.0447 15.8871 10.0497 15.8627 10.0479C15.8267 10.0533 15.7869 10.049 15.7493 10.0504C15.7312 10.0462 15.7072 10.048 15.6876 10.0453C15.669 10.0448 15.6535 10.0412 15.6327 10.0428C15.617 10.0374 15.5898 10.0434 15.5742 10.0377C15.5435 10.0395 15.5201 10.0339 15.4898 10.0352H15.3257C15.3117 10.0292 15.2866 10.0344 15.2684 10.0326C15.2379 10.0321 15.2015 10.0337 15.1744 10.0319C15.1498 10.0276 15.123 10.0323 15.1025 10.0225C15.0697 10.0165 15.0281 10.0059 15.0309 9.97935Z" fill="black" stroke="black" stroke-width="0.0230974"/>
<path d="M14.7593 7.71756C14.7986 7.86331 14.9838 7.84163 14.9782 7.70898Z" fill="#BCA76B"/>
<path d="M14.7593 7.71756C14.7986 7.86331 14.9838 7.84163 14.9782 7.70898" stroke="#472B1F" stroke-width="0.0108953"/>
<path d="M14.929 7.71246C14.9806 7.87995 15.2213 7.85547 15.2136 7.70312Z" fill="#BCA76B"/>
<path d="M14.929 7.71246C14.9806 7.87995 15.2213 7.85547 15.2136 7.70312" stroke="#472B1F" stroke-width="0.0133136"/>
<path d="M15.1321 7.71256C15.1835 7.83544 15.2773 7.84659 15.3536 7.70312Z" fill="#BCA76B"/>
<path d="M15.1321 7.71256C15.1835 7.83544 15.2773 7.84659 15.3536 7.70312" stroke="#472B1F" stroke-width="0.0114004"/>
<path d="M15.4075 7.6582L14.7314 7.68113L14.7323 7.71931L15.4137 7.69955L15.4075 7.6582Z" fill="#BCA76B" stroke="#472B1F" stroke-width="0.0110365"/>
<path d="M14.9433 7.98535C14.884 8.03722 14.7721 8.10506 14.7229 8.09843" stroke="black" stroke-width="0.0164981"/>
<path d="M14.8224 7.79883C14.6759 8.35449 14.4867 8.94413 14.3076 9.41502" stroke="black" stroke-width="0.0164981"/>
<path d="M14.7517 8.13808C14.7922 8.29465 14.9826 8.27138 14.9768 8.12891Z" fill="#BCA76B"/>
<path d="M14.7517 8.13808C14.7922 8.29465 14.9826 8.27138 14.9768 8.12891" stroke="#472B1F" stroke-width="0.0114495"/>
<path d="M14.9128 8.13476C14.9659 8.34468 15.2134 8.314 15.2055 8.12305Z" fill="#BCA76B"/>
<path d="M14.9128 8.13476C14.9659 8.34468 15.2134 8.314 15.2055 8.12305" stroke="#472B1F" stroke-width="0.0151126"/>
<path d="M15.1353 8.13314C15.1939 8.26457 15.3008 8.27648 15.3877 8.12305Z" fill="#BCA76B"/>
<path d="M15.1353 8.13314C15.1939 8.26457 15.3008 8.27648 15.3877 8.12305" stroke="#472B1F" stroke-width="0.0125859"/>
<path d="M15.4172 8.05859L14.7236 8.08895L14.7244 8.1395L15.4236 8.11337L15.4172 8.05859Z" fill="#BCA76B" stroke="#472B1F" stroke-width="0.0128652"/>
<path d="M14.7151 8.53856C14.7589 8.73027 14.9652 8.7018 14.959 8.52734Z" fill="#BCA76B"/>
<path d="M14.7151 8.53856C14.7589 8.73027 14.9652 8.7018 14.959 8.52734" stroke="#472B1F" stroke-width="0.0131879"/>
<path d="M14.9045 8.53628C14.966 8.81879 15.2525 8.77748 15.2433 8.52051Z" fill="#BCA76B"/>
<path d="M14.9045 8.53628C14.966 8.81879 15.2525 8.77748 15.2433 8.52051" stroke="#472B1F" stroke-width="0.0188635"/>
<path d="M15.1306 8.53194C15.1879 8.69359 15.2924 8.70824 15.3773 8.51953Z" fill="#BCA76B"/>
<path d="M15.1306 8.53194C15.1879 8.69359 15.2924 8.70824 15.3773 8.51953" stroke="#472B1F" stroke-width="0.0137992"/>
<path d="M15.4369 8.46094L14.6472 8.49113L14.6481 8.54132L15.4441 8.51538L15.4369 8.46094Z" fill="#BCA76B" stroke="#472B1F" stroke-width="0.01368"/>
<path d="M14.7012 9.00726C14.7486 9.21491 14.9721 9.18405 14.9653 8.99512Z" fill="#BCA76B"/>
<path d="M14.7012 9.00726C14.7486 9.21491 14.9721 9.18405 14.9653 8.99512" stroke="#472B1F" stroke-width="0.0142817"/>
<path d="M15.2853 9.11429C15.331 9.31164 15.3904 9.49203 15.4477 9.66024M15.2258 9.10742C15.2508 9.29735 15.3035 9.4812 15.3585 9.65912" stroke="black" stroke-width="0.0164981"/>
<path d="M14.9055 8.99963C14.9626 9.27501 15.2513 9.25165 15.2489 8.98633Z" fill="#BCA76B"/>
<path d="M14.9055 8.99963C14.9626 9.27501 15.2513 9.25165 15.2489 8.98633" stroke="#472B1F" stroke-width="0.0174516"/>
<path d="M15.1506 8.99881C15.2126 9.17383 15.3258 9.18973 15.4178 8.98535Z" fill="#BCA76B"/>
<path d="M15.1506 8.99881C15.2126 9.17383 15.3258 9.18973 15.4178 8.98535" stroke="#472B1F" stroke-width="0.0149437"/>
<path d="M15.4818 8.91211L14.6021 8.94821L14.6031 9.00826L15.4899 8.97721L15.4818 8.91211Z" fill="#BCA76B" stroke="#472B1F" stroke-width="0.0157957"/>
<path d="M15.1951 7.92188L14.9426 7.92857L14.9434 7.985L15.1979 7.98421L15.1951 7.92188ZM15.1951 8.33103L14.9426 8.33773L14.9434 8.39415L15.1979 8.39336L15.1951 8.33103Z" fill="#BCA76B" stroke="#472B1F" stroke-width="0.00688495"/>
<path d="M15.2112 8.77734L14.9426 8.78401L14.9434 8.84027L15.2142 8.83948L15.2112 8.77734Z" fill="#BCA76B" stroke="#472B1F" stroke-width="0.00708949"/>
<path d="M15.3102 9.17188L15.1662 9.20178M15.3331 9.28167L15.1891 9.31158M15.3651 9.4008L15.2188 9.39376M15.4086 9.51514L15.2577 9.53784M14.7339 9.4921L14.8854 9.522M14.7758 9.36858L14.9122 9.39848M14.8126 9.27343L14.939 9.30585M14.8357 9.18788L14.9495 9.21025" stroke="black" stroke-width="0.0125656"/>
<path d="M16.637 9.69138C16.8894 9.68012 17.1912 9.65097 17.3942 9.73019M16.653 9.77545C16.8858 9.74114 17.1568 9.72174 17.3555 9.79807M16.6788 9.94355C16.8466 9.90598 17.0711 9.89721 17.2302 9.93709M16.6959 9.98318C16.8637 10.0208 17.0612 10.0295 17.2203 9.98967" stroke="black" stroke-width="0.0251312"/>
<path d="M14.241 9.39648L14.7857 9.72568L14.7974 9.7111L14.6255 9.59168C14.5028 9.51568 14.3795 9.44089 14.241 9.39648Z" fill="black"/>
<path d="M16.8565 9.66544L16.8522 9.48376M16.912 9.4859V9.67185M17.0146 9.67398V9.47949M17.1279 9.4958V9.68253M17.1963 9.49445L17.1984 9.68469M17.2861 9.51405V9.69107M17.3331 9.51156L17.3309 9.71032M16.88 9.74453L16.8778 9.91549M16.8223 9.75307V9.91549M16.9719 9.7488L16.9655 9.91122M17.0275 9.74666L17.0253 9.90909M17.1108 9.74453L17.1001 9.90268M17.1899 9.76589L17.16 9.91122" stroke="black" stroke-width="0.0125656"/>
<path d="M16.6406 9.49457C16.89 9.46501 17.1393 9.5007 17.3887 9.5255" stroke="black" stroke-width="0.0251313"/>
<path d="M17.9999 7.25734C18.0018 6.61503 17.9658 5.99143 17.9823 5.44497C17.1512 5.0759 16.0577 5 15.5 5C14.9423 5 13.8488 5.0759 13.0177 5.44497C13.0341 5.99143 12.9983 6.61503 13.0001 7.25731L17.9999 7.25734Z" stroke="black" stroke-width="0.0502625"/>
<path d="M15.3503 6.21484C15.3503 6.21484 15.4401 6.34838 15.4643 6.42025C15.4762 6.45543 15.4806 6.49371 15.4781 6.53075C15.4736 6.59845 15.4474 6.66313 15.4263 6.72761C15.4117 6.77229 15.3795 6.8062 15.3973 6.84973C15.4059 6.87072 15.4143 6.88995 15.4367 6.88645C15.4504 6.88433 15.4569 6.86748 15.4678 6.85884C15.4755 6.85266 15.4828 6.84536 15.4919 6.84156C15.5049 6.8362 15.5233 6.84439 15.5334 6.83466C15.5418 6.82648 15.5477 6.8092 15.5403 6.80012C15.5337 6.79211 15.5196 6.79973 15.5092 6.80012C15.4942 6.80069 15.4774 6.81097 15.4643 6.80357C15.4509 6.79597 15.4436 6.76213 15.4436 6.76213C15.4436 6.76213 15.4704 6.68817 15.485 6.65162C15.4971 6.62144 15.5166 6.59369 15.523 6.56183C15.5251 6.55167 15.5223 6.54108 15.523 6.53075C15.5242 6.51451 15.5189 6.49435 15.5299 6.4824C15.5371 6.47462 15.5571 6.48538 15.561 6.4755C15.5758 6.43776 15.5069 6.41303 15.4919 6.37535C15.4863 6.36128 15.49 6.34477 15.485 6.33046C15.4743 6.29926 15.4367 6.24412 15.4367 6.24412L15.3503 6.21484Z" fill="#69737C" stroke="black" stroke-width="0.0183147"/>
<path d="M15.6305 6.31796C15.6305 6.31796 15.7102 6.41747 15.7184 6.47766C15.7203 6.49102 15.7095 6.50355 15.7092 6.51703C15.7087 6.5382 15.7217 6.55836 15.7208 6.57952C15.7176 6.64759 15.6818 6.71016 15.6652 6.77627C15.6512 6.83219 15.6282 6.94524 15.6282 6.94524L15.6791 6.9406L15.6883 6.85496C15.6883 6.85496 15.715 6.75787 15.7277 6.70914C15.7365 6.67527 15.7413 6.6402 15.7532 6.60729C15.761 6.58555 15.7778 6.56727 15.7833 6.54479C15.7903 6.51554 15.7989 6.48152 15.7856 6.45453C15.7809 6.44512 15.7674 6.44359 15.7601 6.43602C15.7428 6.41795 15.7297 6.39589 15.7184 6.37351C15.7071 6.35083 15.693 6.30176 15.693 6.30176C15.6824 6.30571 15.6305 6.31796 15.6305 6.31796Z" fill="#66452B" stroke="black" stroke-width="0.0183147"/>
<path d="M15.2539 6.1366L15.3108 6.1819L15.4092 6.2413L15.4545 6.24407L15.5058 6.26254L15.5697 6.26053L15.6171 6.30887L15.6304 6.31782L15.683 6.31054L15.7023 6.28903L15.8027 6.13604L15.7786 5.88379L15.3005 5.91474L15.2539 6.1366Z" fill="white"/>
<path d="M15.7696 5.71022C15.8342 5.76264 15.897 5.81754 15.9475 5.88412C15.9864 5.9302 16.0103 5.99287 16.0674 6.0217C16.1478 6.10761 16.4922 6.20723 16.4933 6.23408C16.414 6.20173 16.3795 6.31005 16.3025 6.29265C16.2309 6.31344 16.172 6.26661 16.1101 6.24057C16.017 6.23725 15.9201 6.24207 15.8372 6.28929C15.792 6.31389 15.7381 6.27593 15.7023 6.28842L15.6982 6.29621L15.6929 6.30101M15.2539 6.13599C15.1987 6.10862 15.1584 6.05722 15.1071 6.02625C15.0674 5.97038 15.0164 5.91445 15.0188 5.84093C15.0126 5.76495 14.9927 5.65987 15.0288 5.58767C15.0029 5.53105 14.9665 5.51579 14.9379 5.45999C14.9171 5.38282 14.8389 5.33854 14.8859 5.27987C14.9381 5.23344 14.9747 5.1786 15.042 5.15451C15.0978 5.14157 15.1545 5.14702 15.2081 5.16616C15.2774 5.1743 15.3155 5.23349 15.3521 5.28474C15.3965 5.35401 15.426 5.43187 15.4384 5.51325C15.4704 5.58012 15.5554 5.59373 15.6177 5.62227C15.6714 5.64769 15.7251 5.66936 15.7696 5.71022" fill="white"/>
<path d="M16.147 6.15798C16.1199 6.15412 16.055 6.18092 16.072 6.14076C16.0055 6.13594 15.9356 6.15021 15.8716 6.12791C15.8053 6.09538 15.7333 6.07536 15.6623 6.05603C15.5929 6.05225 15.511 6.06833 15.4577 6.01134C15.4024 5.979 15.3215 6.00233 15.2707 5.9553C15.2194 5.91165 15.1885 5.85138 15.1904 5.78399C15.1802 5.71794 15.1557 5.62903 15.2296 5.59016C15.278 5.57551 15.3242 5.58809 15.3534 5.53958C15.4149 5.52943 15.4713 5.55193 15.5244 5.58196C15.5865 5.61275 15.6552 5.63182 15.7156 5.66641C15.7736 5.70465 15.8228 5.75446 15.8772 5.79788C15.9198 5.84682 15.9695 5.89203 15.9972 5.95213C16.0299 6.0166 16.0976 6.05057 16.1556 6.08793C16.1903 6.09689 16.2731 6.13538 16.1945 6.14571C16.1783 6.14833 16.1632 6.15626 16.147 6.15798Z" fill="black"/>
<path d="M15.4688 5.9411C15.435 5.93656 15.4007 5.92962 15.3729 5.90867C15.3509 5.89557 15.2967 5.86376 15.3319 5.8389C15.3611 5.83543 15.3946 5.85001 15.4207 5.82988C15.46 5.82165 15.5015 5.82089 15.5378 5.80155C15.5716 5.78319 15.6115 5.79547 15.6467 5.78419C15.6729 5.77027 15.6693 5.71768 15.7093 5.7266C15.7461 5.71721 15.7353 5.78777 15.7025 5.76536C15.6822 5.79381 15.7392 5.80344 15.7542 5.82104C15.7846 5.8555 15.7178 5.86328 15.7118 5.88884C15.6696 5.90115 15.6387 5.84813 15.5965 5.86299C15.5887 5.87716 15.5975 5.90612 15.567 5.89905C15.5317 5.87752 15.5012 5.9017 15.4664 5.90603C15.4766 5.91372 15.4545 5.94198 15.4688 5.9411ZM16.2019 6.19394C16.1821 6.18345 16.1566 6.19231 16.1346 6.19363C16.1198 6.19382 16.1051 6.19458 16.0912 6.18838C16.0694 6.18783 16.028 6.16421 16.0217 6.19562C16.0231 6.20919 16.0588 6.21495 16.0292 6.21922C15.9993 6.2235 15.9724 6.20992 15.945 6.20024C15.9338 6.18974 15.91 6.1765 15.9159 6.20186C15.9254 6.22382 15.9019 6.23396 15.883 6.23325C15.8562 6.23135 15.8263 6.2241 15.8069 6.2046C15.7928 6.22197 15.8267 6.24643 15.8466 6.24767C15.8666 6.2646 15.8165 6.25793 15.8051 6.25557C15.7882 6.25269 15.7692 6.25044 15.7545 6.26091C15.7311 6.2662 15.7305 6.28904 15.7577 6.28655C15.7839 6.29513 15.8132 6.30295 15.8392 6.28943C15.8673 6.27301 15.8977 6.26126 15.93 6.25576C15.9552 6.25017 15.9807 6.24626 16.0064 6.24403C16.0405 6.24013 16.0749 6.24059 16.1093 6.24062C16.1362 6.25495 16.1626 6.24253 16.1863 6.22993C16.201 6.22541 16.2452 6.20871 16.213 6.19599C16.209 6.19741 16.2056 6.19086 16.2019 6.19394Z" fill="#69737C"/>
<path d="M16.1101 6.24048C16.1234 6.24062 16.1364 6.24031 16.1482 6.23393C16.1611 6.22678 16.1753 6.22446 16.189 6.21945C16.2066 6.21965 16.2148 6.19585 16.1962 6.19094C16.1864 6.18448 16.1749 6.17988 16.1647 6.17536C16.1543 6.16629 16.1388 6.16347 16.1294 6.154C16.1373 6.14411 16.1442 6.13342 16.1522 6.12359C16.1645 6.11865 16.1795 6.12056 16.1927 6.11724C16.2025 6.11414 16.2128 6.11566 16.2229 6.11529C16.2366 6.12225 16.2515 6.12683 16.2646 6.13455C16.2781 6.14191 16.2922 6.14865 16.3074 6.15325C16.3199 6.15708 16.3319 6.16158 16.3438 6.16651C16.3576 6.17351 16.3733 6.17579 16.3878 6.18067C16.4024 6.18365 16.4083 6.19994 16.4256 6.19755C16.4424 6.20048 16.4575 6.20396 16.47 6.21576C16.4793 6.21968 16.496 6.22844 16.4964 6.23631C16.4827 6.2381 16.4711 6.22583 16.4568 6.22857C16.4457 6.23098 16.4385 6.24183 16.4255 6.23984C16.4198 6.25656 16.3981 6.25401 16.3881 6.2678C16.374 6.27864 16.3588 6.28835 16.3421 6.29503C16.3291 6.29995 16.3147 6.29954 16.302 6.29387C16.2869 6.28972 16.271 6.29347 16.2558 6.29096C16.2396 6.29535 16.2246 6.29176 16.2092 6.28642C16.1958 6.28281 16.1856 6.27291 16.1739 6.26591C16.16 6.26023 16.1347 6.25355 16.1209 6.24775C16.1136 6.24424 16.1144 6.24202 16.1064 6.24046L16.1101 6.24048Z" fill="black"/>
<path d="M15.0822 5.14655C15.068 5.14633 15.0539 5.14655 15.0406 5.15221C15.0173 5.1574 14.9966 5.1712 14.9816 5.18951C14.9622 5.21216 14.9397 5.23188 14.9151 5.24866C14.9031 5.25706 14.8931 5.2681 14.886 5.28092C14.9001 5.29012 14.9222 5.29269 14.9321 5.27598C14.9473 5.25715 14.9672 5.24187 14.9898 5.23325C15.0099 5.22928 15.0302 5.2373 15.0502 5.23943C15.0662 5.2481 15.0826 5.25491 15.1009 5.25755C15.1104 5.26101 15.1266 5.26248 15.1401 5.26625C15.1586 5.27337 15.1781 5.27657 15.1972 5.28156C15.2189 5.28602 15.2409 5.28444 15.2625 5.28096C15.2674 5.2804 15.2723 5.28023 15.2772 5.28008C15.2741 5.28709 15.2716 5.29356 15.2721 5.29685C15.2725 5.31001 15.2782 5.32185 15.284 5.33338C15.291 5.3448 15.2981 5.35615 15.3049 5.36736C15.3105 5.38042 15.3169 5.39302 15.322 5.40636C15.3285 5.41649 15.3322 5.42755 15.3367 5.43853C15.3397 5.45095 15.3447 5.46307 15.3534 5.47212C15.3621 5.48357 15.3725 5.494 15.3804 5.50619C15.3875 5.51671 15.3929 5.5286 15.3983 5.53962C15.4079 5.54763 15.4179 5.55926 15.4309 5.55788C15.4445 5.55962 15.4573 5.55419 15.4706 5.55275L15.466 5.55161C15.4536 5.54516 15.4474 5.53239 15.4408 5.52087C15.4378 5.50802 15.4366 5.49459 15.4343 5.48202C15.4334 5.46926 15.4289 5.45703 15.4246 5.44497C15.4213 5.43432 15.4169 5.42415 15.4141 5.41351C15.409 5.40265 15.4047 5.39132 15.4007 5.37994C15.3962 5.36804 15.3927 5.3557 15.3857 5.34497C15.3792 5.33348 15.3742 5.32133 15.3671 5.31005C15.3595 5.29985 15.3551 5.28662 15.3471 5.27691C15.3432 5.27081 15.3376 5.26759 15.3314 5.26552C15.3339 5.25945 15.3313 5.25129 15.3244 5.24481C15.3152 5.23387 15.3026 5.22353 15.2956 5.20938C15.2806 5.1907 15.2562 5.18471 15.2354 5.17497C15.2111 5.16393 15.1849 5.15868 15.1589 5.15358C15.1385 5.14804 15.1174 5.14572 15.0963 5.14671C15.0916 5.14672 15.0869 5.14661 15.0821 5.14653L15.0822 5.14655Z" fill="black"/>
<path d="M15.3237 5.48703C15.323 5.4685 15.2977 5.4758 15.2899 5.48567C15.2774 5.49796 15.2704 5.51519 15.2554 5.52508C15.2333 5.54118 15.2042 5.54339 15.1823 5.55967C15.1696 5.57266 15.16 5.58924 15.143 5.59736C15.1257 5.60666 15.1069 5.61714 15.0979 5.63549C15.0939 5.64896 15.0848 5.66765 15.0989 5.67838C15.117 5.68517 15.0997 5.70158 15.1007 5.71333C15.1091 5.72575 15.1295 5.73063 15.1423 5.72179C15.1594 5.71155 15.1778 5.70203 15.1889 5.68482C15.2052 5.66509 15.2234 5.64563 15.2468 5.63454C15.2622 5.63072 15.2742 5.62041 15.2847 5.60918C15.2958 5.6001 15.2864 5.58243 15.3033 5.57939C15.3187 5.57355 15.3269 5.559 15.3367 5.5469C15.3458 5.53283 15.3292 5.51969 15.3314 5.50468C15.3305 5.49818 15.3297 5.491 15.3237 5.48705L15.3237 5.48703Z" fill="#69737C"/>
<path d="M15.5883 6.95804H15.495C15.4796 6.95184 15.4688 6.92602 15.4492 6.93627C15.4321 6.94283 15.415 6.95091 15.3987 6.9597C15.383 6.9683 15.3696 6.97968 15.3593 6.99401C15.3574 7.00388 15.3286 7.01499 15.3529 7.01534C15.3739 7.01705 15.3868 6.99547 15.4071 6.99263C15.4231 6.98622 15.4407 6.99023 15.4574 6.98912C15.471 6.99238 15.4864 6.99249 15.5011 6.99239C15.5177 6.99111 15.5333 6.99416 15.5494 6.99376C15.5728 6.99586 15.5407 7.01016 15.5332 7.01331C15.5149 7.02161 15.4946 7.02403 15.475 7.02836C15.4556 7.02851 15.4356 7.0277 15.4178 7.03633C15.3999 7.04464 15.3818 7.05343 15.3653 7.06478C15.3562 7.06979 15.3332 7.08189 15.3559 7.08212C15.3729 7.0842 15.3892 7.08003 15.4053 7.07498C15.4332 7.06449 15.4622 7.05765 15.4916 7.053C15.5108 7.04865 15.5285 7.04036 15.548 7.03685C15.5598 7.03685 15.5914 7.031 15.5815 7.05186C15.5694 7.06642 15.5522 7.0766 15.535 7.08418C15.5206 7.09256 15.5071 7.10572 15.489 7.10522C15.4753 7.10041 15.4464 7.11096 15.4672 7.12483C15.4778 7.14372 15.5001 7.13078 15.5138 7.12377C15.53 7.1157 15.5458 7.10934 15.5628 7.10277C15.5819 7.09569 15.6014 7.08831 15.6197 7.08007C15.6349 7.07045 15.6539 7.06707 15.6678 7.0565C15.6844 7.04683 15.7041 7.03902 15.712 7.0199C15.7169 7.00437 15.7287 6.99478 15.7437 6.98959C15.7606 6.98532 15.7787 6.98798 15.7959 6.98421C15.8152 6.98411 15.8097 6.94917 15.7918 6.94829C15.7762 6.93814 15.7628 6.92619 15.7469 6.91717C15.728 6.91033 15.7081 6.90543 15.6876 6.90735C15.6707 6.90857 15.6574 6.91925 15.6491 6.93321C15.6386 6.94554 15.6362 6.9672 15.6154 6.96233C15.6061 6.96489 15.5969 6.96149 15.5883 6.95806V6.95804ZM15.1337 7.07414C15.1337 7.07414 15.1514 7.00901 15.1743 6.98646C15.221 6.94062 15.354 6.90733 15.354 6.90733C15.2972 6.92943 15.2292 6.91298 15.1743 6.9287C15.1286 6.94299 15.0503 7.00143 15.0503 7.00143C15.0503 7.00143 15.0793 6.9392 15.1016 6.91374C15.1675 6.84178 15.2726 6.83337 15.3518 6.8453L15.4417 6.85812C15.4417 6.85812 15.457 6.8674 15.4502 6.88106C15.4361 6.90963 15.3935 6.92601 15.3647 6.93972C15.284 6.98084 15.1839 7.01294 15.1337 7.07415V7.07414Z" fill="#66452B" stroke="black" stroke-width="0.0183147"/>
<path d="M15.4074 6.84531C15.335 6.89427 15.168 6.98178 15.1742 6.98646C15.1742 6.98646 15.3166 6.95391 15.3817 6.92231C15.4043 6.91134 15.436 6.90342 15.4437 6.87954C15.4477 6.8673 15.4417 6.85011 15.4309 6.84318C15.4243 6.83893 15.4139 6.8409 15.4074 6.84531Z" fill="#69737C" stroke="black" stroke-width="0.0183147"/>
<path d="M15.7532 6.46585C15.7356 6.46467 15.7331 6.49684 15.7323 6.51446C15.7318 6.52664 15.7317 6.54832 15.7439 6.54918C15.7594 6.55028 15.7633 6.52297 15.7647 6.50751C15.7661 6.49317 15.7676 6.46682 15.7532 6.46585Z" fill="#69737C"/>
<path d="M15.6788 6.93999C15.6794 6.92585 15.6614 6.9334 15.6537 6.93589C15.6362 6.93991 15.6211 6.94984 15.6058 6.95872C15.5938 6.96654 15.5809 6.97276 15.5686 6.98001C15.5444 6.99163 15.5225 7.00752 15.4982 7.01906C15.4879 7.02407 15.4773 7.02883 15.4662 7.03116C15.4571 7.03292 15.4604 7.03865 15.4681 7.03796C15.4848 7.04154 15.5021 7.03961 15.5182 7.03393C15.536 7.02837 15.5563 7.02377 15.5734 7.01651C15.5827 7.00809 15.6019 7.00505 15.6125 6.99889C15.6214 6.99315 15.6446 6.98967 15.6542 6.98522C15.6701 6.97688 15.6636 6.96539 15.6818 6.96524C15.6931 6.96522 15.6948 6.94795 15.6835 6.94577C15.6814 6.94442 15.6794 6.94253 15.6788 6.93999Z" fill="#69737C" stroke="black" stroke-width="0.0183147"/>
<path d="M15.5146 7.09321C15.5275 7.0897 15.5411 7.09034 15.5537 7.08571C15.5693 7.08168 15.5846 7.07668 15.5998 7.0714C15.607 7.06782 15.6143 7.06428 15.6215 7.06066C15.6342 7.05165 15.643 7.03815 15.6514 7.02527C15.6572 7.01432 15.6627 7.00315 15.6682 6.99209C15.6708 6.9831 15.6598 6.97912 15.6544 6.98566C15.6461 6.99159 15.6386 6.99836 15.63 7.00389C15.6217 7.01095 15.6117 7.01571 15.604 7.02339C15.5947 7.03436 15.59 7.04872 15.5796 7.05876C15.5747 7.06377 15.569 7.06762 15.5626 7.07041C15.5494 7.07762 15.5348 7.08147 15.5214 7.08824C15.519 7.08965 15.5164 7.09101 15.5146 7.09321Z" fill="#69737C" stroke="black" stroke-width="0.0183147"/>
<path d="M15.6893 6.14971C15.6945 6.15806 15.6974 6.16805 15.6979 6.17783C15.6994 6.18979 15.7024 6.20155 15.7039 6.21348C15.7032 6.2259 15.6902 6.23341 15.6881 6.24564C15.6874 6.25382 15.6886 6.26218 15.6867 6.27033C15.6837 6.28361 15.688 6.29753 15.6829 6.3105C15.6767 6.32259 15.6587 6.31343 15.6476 6.31659C15.6368 6.31911 15.6236 6.31964 15.6171 6.30881C15.6079 6.29892 15.5997 6.28793 15.5894 6.27916C15.5768 6.26695 15.5638 6.25472 15.5556 6.23903C15.5481 6.2285 15.5418 6.21729 15.5345 6.20659C15.5321 6.20208 15.5296 6.19639 15.5278 6.19252M15.5697 6.26048C15.5591 6.26055 15.5487 6.26389 15.5377 6.26248H15.5058C15.498 6.2593 15.4826 6.25924 15.4752 6.25415C15.4664 6.25244 15.4622 6.24724 15.4545 6.24402C15.4489 6.23995 15.4437 6.24432 15.4366 6.24322C15.4318 6.2344 15.4213 6.22332 15.4156 6.2172C15.4095 6.21403 15.4027 6.21175 15.398 6.20495C15.3914 6.20333 15.3863 6.19256 15.3838 6.18908C15.3789 6.18331 15.3775 6.17563 15.3727 6.16937C15.3682 6.16275 15.3665 6.15635 15.3618 6.14939C15.3609 6.14793 15.3615 6.14605 15.3618 6.14453" stroke="black" stroke-width="0.0183147"/>
<path d="M15.4365 6.2436C15.4341 6.25891 15.4168 6.24342 15.4091 6.24164C15.4027 6.23847 15.397 6.23477 15.3896 6.23244C15.3843 6.22833 15.3771 6.2255 15.3715 6.22292C15.3648 6.21877 15.3564 6.21609 15.3514 6.21089C15.3419 6.20874 15.3348 6.19942 15.3258 6.1969C15.3176 6.18915 15.3084 6.18343 15.2993 6.1774C15.2899 6.16995 15.2793 6.16346 15.2702 6.15424C15.2616 6.14679 15.2544 6.13887 15.2537 6.1275C15.2529 6.11727 15.2503 6.10727 15.246 6.09798C15.2471 6.09219 15.2429 6.09019 15.2438 6.08496" stroke="black" stroke-width="0.0183147"/>
<path d="M16.147 6.25163C16.1568 6.25229 16.1667 6.25143 16.1763 6.24908C16.1863 6.2485 16.1956 6.24449 16.2052 6.2422C16.2152 6.23799 16.2233 6.22799 16.2351 6.22897C16.2457 6.22839 16.2576 6.2322 16.2671 6.22565C16.2731 6.21749 16.2816 6.2146 16.2913 6.21628C16.3012 6.21484 16.3107 6.21809 16.3203 6.22007C16.3292 6.22325 16.3384 6.22522 16.3473 6.22834C16.3559 6.23284 16.3643 6.23793 16.3734 6.24141C16.3824 6.246 16.3671 6.25231 16.3642 6.25687C16.3552 6.26059 16.3443 6.25716 16.3363 6.26416C16.3281 6.26855 16.3207 6.27446 16.3168 6.28317C16.312 6.29313 16.2999 6.29027 16.2912 6.29348C16.2825 6.29473 16.2737 6.29354 16.2651 6.29496C16.2577 6.29521 16.2498 6.29787 16.2429 6.29423C16.2337 6.29135 16.2241 6.28919 16.2143 6.28894C16.2068 6.28373 16.2007 6.27529 16.1908 6.27453C16.1774 6.27151 16.1664 6.26268 16.1535 6.25842C16.152 6.25782 16.1506 6.2569 16.1495 6.25573C16.1484 6.25456 16.1475 6.25316 16.147 6.25163Z" fill="#BCA76B"/>
<path d="M14.945 5.39032C14.9229 5.38564 14.9012 5.39597 14.8789 5.39553C14.8586 5.40009 14.8371 5.39675 14.8162 5.39777C14.7945 5.39382 14.7711 5.39581 14.7489 5.39933C14.716 5.40468 14.6847 5.41762 14.6515 5.42263C14.6067 5.42551 14.5614 5.42305 14.5164 5.42387C14.4849 5.42652 14.5195 5.38566 14.5374 5.38737C14.5784 5.3763 14.6185 5.36142 14.6611 5.35727C14.6927 5.35259 14.7234 5.34297 14.7548 5.33742C14.7802 5.33019 14.8059 5.32447 14.8312 5.31715C14.8576 5.31271 14.8842 5.30771 14.9108 5.31226C14.9383 5.30545 14.9658 5.29897 14.9921 5.28779C15.0159 5.27595 15.0444 5.28386 15.0668 5.26913C15.081 5.24825 15.1074 5.24898 15.1299 5.2509C15.1538 5.25529 15.18 5.26406 15.1947 5.28527C15.2123 5.31076 15.1584 5.30746 15.1745 5.33417C15.165 5.344 15.1467 5.3463 15.132 5.34557C15.1194 5.34484 15.1061 5.34814 15.0947 5.3413C15.0743 5.33409 15.0587 5.31829 15.0399 5.3075C15.0206 5.30451 15.0197 5.34006 14.9953 5.33626C14.9645 5.34806 14.9308 5.34505 14.8984 5.34557C14.9188 5.35303 14.9411 5.36031 14.9574 5.37465C14.9638 5.38454 14.9524 5.38828 14.945 5.39032Z" fill="black" stroke="black" stroke-width="0.0122098"/>
<path d="M15.0752 5.30106L15.0957 5.29175L15.1069 5.2731C15.1069 5.2731 15.1245 5.29956 15.1162 5.30851C15.1068 5.31872 15.0752 5.30106 15.0752 5.30106ZM15.1297 5.25111C15.1339 5.24791 15.1127 5.23478 15.1285 5.23131C15.1452 5.21126 15.1715 5.22777 15.191 5.23391C15.2284 5.24574 15.2678 5.26032 15.2928 5.29239C15.3287 5.33386 15.3368 5.39056 15.3652 5.43637C15.3774 5.45829 15.3852 5.48223 15.3933 5.50581C15.3992 5.5246 15.4279 5.54411 15.4129 5.56432C15.3953 5.57504 15.3774 5.56068 15.3608 5.55635C15.3382 5.55399 15.3492 5.57919 15.3639 5.58213C15.38 5.58851 15.3849 5.61402 15.362 5.61256C15.3401 5.60996 15.3183 5.60829 15.2969 5.60492C15.2798 5.59565 15.3015 5.57854 15.3111 5.57233C15.3239 5.56464 15.3408 5.55438 15.3383 5.53692C15.3386 5.50536 15.3167 5.47947 15.3119 5.44889C15.3063 5.42597 15.3008 5.40261 15.2894 5.38173C15.2795 5.33252 15.2353 5.2986 15.1899 5.28353C15.1704 5.27353 15.1496 5.2649 15.131 5.25396L15.1297 5.25113V5.25111Z" fill="white"/>
<path d="M15.2935 5.27544C15.3 5.27907 15.3064 5.28304 15.313 5.28641C15.3183 5.29183 15.3304 5.31014 15.3342 5.31668C15.3367 5.32206 15.338 5.32779 15.3393 5.33358C15.3404 5.34097 15.3462 5.34608 15.3501 5.35201C15.3537 5.36042 15.3564 5.36923 15.3597 5.37776C15.3641 5.3844 15.3685 5.39122 15.3701 5.39915C15.3716 5.40586 15.3736 5.41234 15.3763 5.41865C15.38 5.42398 15.382 5.43449 15.3728 5.43498C15.3667 5.43341 15.3603 5.43029 15.3566 5.42479C15.3496 5.41837 15.3458 5.40935 15.3403 5.40169C15.337 5.39632 15.3349 5.3898 15.3336 5.38415C15.3298 5.37756 15.3289 5.36972 15.3262 5.36266C15.3229 5.35598 15.3217 5.34854 15.3178 5.34215C15.3135 5.33489 15.3119 5.32646 15.3073 5.31935C15.3034 5.31077 15.2894 5.28951 15.2927 5.27962C15.293 5.27824 15.2933 5.27686 15.2935 5.27544ZM15.1461 5.22055C15.141 5.21886 15.1373 5.21493 15.1338 5.21103C15.1299 5.20872 15.1228 5.20625 15.12 5.20347C15.1104 5.20727 15.1183 5.19719 15.1136 5.19871C15.1114 5.19504 15.1117 5.19238 15.1094 5.18847C15.1064 5.18499 15.1026 5.1823 15.0998 5.17862C15.1 5.17661 15.0958 5.17397 15.1 5.17398C15.1051 5.17382 15.1105 5.17332 15.1151 5.17572C15.1201 5.17484 15.1239 5.1786 15.1288 5.17782C15.1358 5.1773 15.1428 5.17794 15.1498 5.17763C15.1532 5.17641 15.1537 5.18081 15.1574 5.17957C15.1598 5.18003 15.1605 5.1821 15.1633 5.18119C15.169 5.18147 15.1698 5.18747 15.1729 5.19077C15.1771 5.19338 15.179 5.19803 15.18 5.20236C15.181 5.20348 15.1819 5.20862 15.1815 5.20749C15.1821 5.20635 15.1822 5.21249 15.1795 5.21225C15.176 5.21586 15.1711 5.21631 15.1672 5.2186C15.1622 5.219 15.1585 5.22341 15.1534 5.22238C15.151 5.22197 15.1486 5.22104 15.1461 5.22055Z" fill="#BCA76B"/>
<path d="M15.1338 5.21087C15.1266 5.21399 15.1189 5.21685 15.1109 5.2157C15.1057 5.21688 15.1018 5.2208 15.0979 5.22421C15.0934 5.22713 15.0879 5.22804 15.0827 5.22904C15.0784 5.22816 15.0752 5.22473 15.071 5.22359C15.0673 5.22216 15.0674 5.21718 15.0635 5.21598C15.0595 5.21324 15.055 5.21154 15.0506 5.2097C15.0468 5.20806 15.0481 5.20341 15.0476 5.2001C15.0475 5.19633 15.0481 5.19253 15.0495 5.18906C15.0493 5.18375 15.0541 5.18174 15.0587 5.18277C15.0674 5.18285 15.076 5.18279 15.0847 5.18281C15.089 5.18053 15.0939 5.17806 15.099 5.17887C15.1038 5.18047 15.1061 5.18545 15.11 5.18835C15.1181 5.19573 15.1258 5.2034 15.1338 5.21087ZM15.1728 5.1906C15.1786 5.18766 15.1848 5.1848 15.1912 5.18396C15.1976 5.18368 15.2035 5.18641 15.2097 5.18772C15.2163 5.18972 15.223 5.19137 15.229 5.19498C15.236 5.19727 15.2422 5.20108 15.2489 5.20409C15.2549 5.20739 15.2608 5.21095 15.267 5.21391C15.2727 5.2167 15.2783 5.21992 15.2834 5.22363C15.2889 5.22796 15.2944 5.23258 15.2985 5.23826C15.3024 5.24265 15.2986 5.25086 15.2928 5.24625C15.287 5.24247 15.2806 5.24016 15.2741 5.23796C15.2681 5.23708 15.2622 5.23609 15.2568 5.23324C15.2504 5.23202 15.2447 5.2279 15.2383 5.22628C15.2301 5.22252 15.2215 5.22007 15.2134 5.21622C15.2099 5.21358 15.2053 5.21316 15.2015 5.21088C15.194 5.2069 15.1863 5.20337 15.1788 5.19944C15.1765 5.197 15.1718 5.19465 15.1728 5.1906Z" fill="white"/>
<path d="M15.2661 5.3228C15.241 5.32082 15.2158 5.33251 15.191 5.32455C15.1722 5.32203 15.1576 5.3362 15.1414 5.34292C15.1205 5.34086 15.1162 5.37084 15.0976 5.36935C15.0817 5.36745 15.0627 5.35515 15.0483 5.36082C15.0807 5.37517 15.1137 5.38955 15.1425 5.41051C15.1582 5.42504 15.1759 5.43773 15.1966 5.44403C15.2105 5.45005 15.2268 5.46405 15.2205 5.48096C15.2142 5.50075 15.1846 5.50424 15.1835 5.52664C15.1801 5.54629 15.1585 5.55465 15.1516 5.57241C15.1439 5.5862 15.1262 5.59447 15.1249 5.61136C15.1291 5.63243 15.1536 5.61655 15.153 5.60106C15.1566 5.58757 15.1686 5.56672 15.1853 5.57531C15.199 5.59462 15.2157 5.56177 15.2322 5.56965C15.2397 5.58103 15.2573 5.58699 15.2649 5.57192C15.276 5.56756 15.2935 5.56032 15.2829 5.5445C15.2826 5.52828 15.3026 5.52938 15.3117 5.52016C15.3244 5.51442 15.3377 5.498 15.3239 5.4861C15.3114 5.46877 15.3248 5.44402 15.3092 5.42795C15.2974 5.40952 15.3096 5.38648 15.2997 5.36737C15.2913 5.35154 15.2848 5.32913 15.2679 5.32227L15.2661 5.3228Z" fill="black"/>
<path d="M15.941 6.0069C15.9123 6.00637 15.8891 6.02834 15.8607 6.03038C15.8263 6.0352 15.8697 6.05077 15.8803 6.05824C15.9076 6.07639 15.9402 6.08264 15.9706 6.09321C15.9991 6.10676 16.0312 6.11519 16.0626 6.10969C16.0918 6.10284 16.0701 6.07382 16.0619 6.05775C16.0445 6.03272 16.0148 6.02005 15.9928 5.99944C15.9769 5.98531 15.953 5.9904 15.941 6.00689V6.0069Z" fill="#69737C"/>
<path d="M15.9214 6.06836C15.9109 6.06965 15.9006 6.07308 15.8898 6.0719C15.8775 6.07296 15.8644 6.07551 15.8531 6.06881C15.8403 6.06556 15.8272 6.06307 15.8158 6.05611C15.8069 6.05025 15.7949 6.04787 15.7896 6.03782C15.7821 6.02715 15.7973 6.02625 15.8044 6.02506C15.8172 6.02247 15.8308 6.01996 15.8438 6.02262C15.8579 6.02991 15.8734 6.03378 15.8874 6.04115C15.8991 6.04626 15.9108 6.05211 15.9193 6.06157C15.9192 6.0612 15.9213 6.06592 15.9214 6.06837V6.06836Z" fill="white"/>
<path d="M16.0624 6.05925C16.0644 6.07152 16.0427 6.05986 16.0349 6.06391C16.0202 6.06598 16.0073 6.06138 15.9939 6.05569C15.9725 6.04557 15.9508 6.03562 15.9278 6.03045C15.9171 6.02767 15.8953 6.01782 15.911 6.00558C15.9234 5.99604 15.9394 5.98837 15.9546 5.98638C15.9708 5.98551 15.9848 5.99634 15.9998 6.00168C16.0148 6.00894 16.0306 6.01523 16.0437 6.02605C16.053 6.0338 16.0636 6.04573 16.0624 6.05925Z" fill="white"/>
<path d="M15.673 5.92147C15.6521 5.93401 15.6282 5.93988 15.6039 5.93925C15.5823 5.94721 15.5454 5.92773 15.5377 5.95638C15.5273 5.97967 15.5554 5.98954 15.5704 5.99976C15.6143 6.02512 15.6661 6.02381 15.7151 6.02595C15.7285 6.02679 15.771 6.0209 15.7485 6.00448C15.7239 5.98569 15.7056 5.96065 15.686 5.93711C15.6812 5.9324 15.6758 5.92785 15.673 5.92147ZM15.9191 5.93746C15.9092 5.93602 15.9 5.93191 15.8905 5.92911C15.8775 5.92476 15.8665 5.91612 15.8541 5.91008C15.8374 5.90058 15.821 5.89033 15.8037 5.88214C15.7952 5.87916 15.7968 5.86997 15.8061 5.87108C15.8153 5.87137 15.8185 5.85666 15.8275 5.86627C15.8389 5.87312 15.8495 5.8808 15.8583 5.89091C15.8688 5.89959 15.8787 5.91026 15.8925 5.91349C15.9023 5.919 15.9184 5.92441 15.9191 5.93746ZM15.8858 5.98299C15.8858 5.98299 15.8413 5.99457 15.8206 5.98605C15.8054 5.98149 15.7896 5.97854 15.7754 5.97103C15.758 5.9623 15.7392 5.95445 15.7256 5.94014C15.7146 5.92625 15.7282 5.90436 15.7459 5.91008C15.7567 5.90702 15.7522 5.88224 15.7688 5.89325C15.7915 5.90351 15.8142 5.91474 15.8338 5.93036C15.8456 5.94159 15.8588 5.95136 15.8701 5.9631C15.8756 5.96945 15.8858 5.98299 15.8858 5.98299ZM15.5539 5.67014C15.5836 5.67776 15.6181 5.69166 15.6363 5.71785C15.6624 5.74959 15.6114 5.7669 15.5884 5.74896C15.5506 5.73045 15.5125 5.7114 15.472 5.6999C15.4332 5.7049 15.4892 5.72737 15.5 5.7376C15.5171 5.74776 15.5318 5.76725 15.5316 5.78673C15.506 5.80659 15.4732 5.78539 15.445 5.78263C15.4142 5.77905 15.397 5.75213 15.3776 5.73151C15.3635 5.71686 15.3472 5.70809 15.3283 5.71664C15.3283 5.74244 15.3471 5.74883 15.359 5.7706C15.3696 5.7837 15.4104 5.81703 15.371 5.81728C15.3422 5.80939 15.3157 5.79049 15.3003 5.76425C15.2827 5.74612 15.269 5.70843 15.3052 5.70368C15.3363 5.68493 15.3729 5.67567 15.4092 5.67572C15.4488 5.67208 15.4889 5.67847 15.5277 5.66815C15.5332 5.66981 15.5583 5.65681 15.5539 5.67014Z" fill="#69737C"/>
<path d="M15.2533 5.69238C15.2484 5.70086 15.2449 5.709 15.2448 5.71796C15.2442 5.72876 15.2453 5.73868 15.2462 5.74866C15.249 5.75667 15.2511 5.76592 15.2544 5.77359C15.2592 5.78274 15.2669 5.78822 15.2743 5.79459C15.2803 5.80122 15.2865 5.80465 15.2942 5.80888C15.3001 5.81242 15.3059 5.81468 15.3126 5.81693C15.3184 5.81955 15.3279 5.82206 15.3359 5.82365C15.3446 5.82516 15.3509 5.82381 15.3544 5.81641C15.3633 5.81079 15.3561 5.80607 15.3501 5.80424C15.3432 5.80294 15.3372 5.79742 15.3311 5.79227C15.3245 5.78635 15.3197 5.77958 15.3154 5.77206C15.313 5.76532 15.3083 5.75908 15.3038 5.75261C15.2992 5.74727 15.2957 5.74184 15.2897 5.73642C15.2831 5.73054 15.2771 5.72408 15.2718 5.71713C15.2675 5.7112 15.2609 5.70366 15.2555 5.69796C15.2543 5.69634 15.2531 5.69448 15.2533 5.69238ZM15.5144 5.79542C15.4979 5.79387 15.4714 5.78692 15.4516 5.78123C15.4293 5.77348 15.4087 5.76023 15.3949 5.74094C15.3783 5.72558 15.3622 5.70921 15.3429 5.69724C15.3228 5.69114 15.3146 5.71942 15.3274 5.73167C15.3384 5.74928 15.3545 5.76302 15.3669 5.77963C15.3814 5.79496 15.3994 5.8061 15.4179 5.81604C15.4413 5.83041 15.4695 5.83491 15.4964 5.83668C15.5121 5.8347 15.531 5.82507 15.5349 5.8086C15.5362 5.79797 15.5222 5.7957 15.5144 5.79542ZM15.4565 5.92812C15.4421 5.93074 15.4261 5.93083 15.4139 5.92152C15.4017 5.91547 15.3933 5.90336 15.3859 5.89217C15.3759 5.88045 15.3643 5.86798 15.3491 5.86348C15.3356 5.85964 15.3194 5.86907 15.3237 5.88438C15.3255 5.89713 15.3352 5.90713 15.3439 5.916C15.3582 5.93023 15.3776 5.93654 15.3957 5.94445C15.4048 5.9493 15.4158 5.95034 15.426 5.95052C15.4364 5.95036 15.453 5.95428 15.4565 5.94108C15.457 5.93676 15.4562 5.93243 15.4565 5.92812H15.4565ZM15.6019 5.88577C15.6143 5.89117 15.6228 5.90701 15.6147 5.91931C15.6055 5.93235 15.5889 5.94001 15.5729 5.93796C15.5594 5.93749 15.5458 5.93947 15.5327 5.93556C15.5176 5.93104 15.5036 5.92417 15.4899 5.91671C15.4747 5.91167 15.4731 5.89384 15.463 5.88359C15.4568 5.87199 15.4777 5.86637 15.4864 5.86969C15.5011 5.87445 15.51 5.88837 15.5242 5.89365C15.5354 5.89957 15.5468 5.90522 15.5597 5.90662C15.5706 5.9092 15.5851 5.91146 15.5922 5.90039C15.5949 5.89519 15.5984 5.89043 15.6019 5.88577Z" fill="white"/>
<path d="M15.7289 5.85358C15.7396 5.86475 15.733 5.88578 15.718 5.88928C15.7055 5.89186 15.6923 5.89478 15.6798 5.89063C15.6614 5.88616 15.645 5.87615 15.6291 5.86607C15.6196 5.85811 15.6046 5.85537 15.5976 5.84429C15.5933 5.82921 15.6098 5.81722 15.6238 5.82259C15.6439 5.82919 15.6654 5.8317 15.6842 5.84223C15.6978 5.848 15.7116 5.8541 15.7264 5.85458L15.7289 5.85358Z" fill="white"/>
<path d="M15.7696 5.71022C15.8342 5.76264 15.897 5.81754 15.9475 5.88412C15.9864 5.9302 16.0103 5.99287 16.0674 6.0217C16.1478 6.10761 16.4922 6.20723 16.4933 6.23408C16.414 6.20173 16.3795 6.31005 16.3025 6.29265C16.2309 6.31344 16.172 6.26661 16.1101 6.24057C16.017 6.23725 15.9201 6.24207 15.8372 6.28929C15.792 6.31389 15.7381 6.27593 15.7023 6.28842L15.6982 6.29621L15.6929 6.30101M15.2539 6.13599C15.1987 6.10862 15.1584 6.05722 15.1071 6.02625C15.0674 5.97038 15.0164 5.91445 15.0188 5.84093C15.0126 5.76495 14.9927 5.65987 15.0288 5.58767C15.0029 5.53105 14.9665 5.51579 14.9379 5.45999C14.9171 5.38282 14.8389 5.33854 14.8859 5.27987C14.9381 5.23344 14.9747 5.1786 15.042 5.15451C15.0978 5.14157 15.1545 5.14702 15.2081 5.16616C15.2774 5.1743 15.3155 5.23349 15.3521 5.28474C15.3965 5.35401 15.426 5.43187 15.4384 5.51325C15.4704 5.58012 15.5554 5.59373 15.6177 5.62227C15.6714 5.64769 15.7251 5.66936 15.7696 5.71022" stroke="black" stroke-width="0.0183147"/>
<defs>
<clipPath id="clip0_149_1641">
<path d="M0 1.6C0 0.716345 0.716345 0 1.6 0H11.2V6.4C11.2 7.28366 10.4837 8 9.6 8H0V1.6Z" fill="white"/>
</clipPath>
</defs>
</svg>
