<svg width="21" height="15" viewBox="0 0 21 15" fill="none" xmlns="http://www.w3.org/2000/svg">
<rect width="21" height="15" rx="3" fill="#1A47B8"/>
<g clip-path="url(#clip0_149_2169)">
<path d="M0 1.6C0 0.716345 0.716345 0 1.6 0H11.2V6.4C11.2 7.28366 10.4837 8 9.6 8H0V1.6Z" fill="#1A47B8"/>
<path fill-rule="evenodd" clip-rule="evenodd" d="M1.19145 0H0V1.33333L10.0021 8L11.2 8V6.66667L1.19145 0Z" fill="white"/>
<path d="M0.397386 0L11.2 7.2189V8H10.8119L0 0.773631V0H0.397386Z" fill="#F93939"/>
<path fill-rule="evenodd" clip-rule="evenodd" d="M10.1333 0H11.2V1.33333C11.2 1.33333 4.2719 5.77496 1.06667 8H0V6.66667L10.1333 0Z" fill="white"/>
<path d="M11.2 0H10.8383L0 7.22511V8H0.397386L11.2 0.779474V0Z" fill="#F93939"/>
<path fill-rule="evenodd" clip-rule="evenodd" d="M4.07311 0H7.13621V2.46764H11.2V5.53074H7.13621V8H4.07311V5.53074H0V2.46764H4.07311V0Z" fill="white"/>
<path fill-rule="evenodd" clip-rule="evenodd" d="M4.71579 0H6.48421V3.07692H11.2V4.92308H6.48421V8H4.71579V4.92308H0V3.07692H4.71579V0Z" fill="#F93939"/>
</g>
<path d="M18.0476 6V8.16324C18.0476 9.60541 17.3265 11.1587 15.5238 12C13.7211 11.1587 13 9.60541 13 8.16324V6H18.0476Z" fill="#FCD116" stroke="black" stroke-width="0.192288"/>
<path d="M18.0476 6V8.16324C18.0476 9.60541 17.3265 11.1587 15.5238 12C13.7211 11.1587 13 9.60541 13 8.16324V6H18.0476Z" stroke="white" stroke-width="0.168252"/>
<path d="M14.6133 8.38167C14.5472 8.49284 14.4361 8.51687 14.349 8.48082C14.2588 8.44477 14.1777 8.23445 14.0876 8.12028C14.0004 8.00911 13.9764 8.05718 13.9163 7.99109C13.8592 7.92799 13.7691 7.87992 13.6279 7.81382C13.5498 7.77777 13.4686 7.74472 13.4146 7.60651C13.4356 7.54942 13.4927 7.50135 13.5377 7.48332C13.5828 7.4683 13.6189 7.4022 13.6249 7.34512C13.6309 7.29103 13.6789 7.23094 13.745 7.18588C13.715 7.19189 13.6519 7.17987 13.6219 7.15884C13.5948 7.1348 13.5498 7.14081 13.5227 7.16184C13.4957 7.17987 13.4626 7.18588 13.4146 7.17987C13.4326 7.16485 13.4656 7.1318 13.4686 7.10175C13.4716 7.07171 13.5077 7.05668 13.5768 7.05668C13.6429 7.05668 13.688 6.97857 13.742 6.97857C13.703 6.97857 13.712 6.91247 13.733 6.90946C13.6369 6.89144 13.6489 6.81332 13.688 6.81332C13.685 6.8013 13.6729 6.78928 13.6279 6.77426C13.5858 6.75924 13.6068 6.72018 13.6399 6.69614C13.6098 6.63605 13.6369 6.59098 13.685 6.55193C13.6189 6.54892 13.691 6.45578 13.709 6.40471C13.727 6.35663 13.736 6.35062 13.7571 6.38067C13.7811 6.40771 13.8352 6.4708 13.8983 6.48883C13.9584 6.50686 13.9944 6.53991 14.0064 6.59098C14.0185 6.64507 14.0425 6.67211 14.1086 6.69614C14.1777 6.71717 14.2708 6.77426 14.2588 6.90345C14.3129 6.90646 14.352 6.92148 14.385 6.94852" fill="#FCAD56"/>
<path d="M14.6133 8.38167C14.5472 8.49284 14.4361 8.51687 14.349 8.48082C14.2588 8.44477 14.1777 8.23445 14.0876 8.12028C14.0004 8.00911 13.9764 8.05718 13.9163 7.99109C13.8592 7.92799 13.7691 7.87992 13.6279 7.81382C13.5498 7.77777 13.4686 7.74472 13.4146 7.60651C13.4356 7.54942 13.4927 7.50135 13.5377 7.48332C13.5828 7.4683 13.6189 7.4022 13.6249 7.34512C13.6309 7.29103 13.6789 7.23094 13.745 7.18588C13.715 7.19189 13.6519 7.17987 13.6219 7.15884C13.5948 7.1348 13.5498 7.14081 13.5227 7.16184C13.4957 7.17987 13.4626 7.18588 13.4146 7.17987C13.4326 7.16485 13.4656 7.1318 13.4686 7.10175C13.4716 7.07171 13.5077 7.05668 13.5768 7.05668C13.6429 7.05668 13.688 6.97857 13.742 6.97857C13.703 6.97857 13.712 6.91247 13.733 6.90946C13.6369 6.89144 13.6489 6.81332 13.688 6.81332C13.685 6.8013 13.6729 6.78928 13.6279 6.77426C13.5858 6.75924 13.6068 6.72018 13.6399 6.69614C13.6098 6.63605 13.6369 6.59098 13.685 6.55193C13.6189 6.54892 13.691 6.45578 13.709 6.40471C13.727 6.35663 13.736 6.35062 13.7571 6.38067C13.7811 6.40771 13.8352 6.4708 13.8983 6.48883C13.9584 6.50686 13.9944 6.53991 14.0064 6.59098C14.0185 6.64507 14.0425 6.67211 14.1086 6.69614C14.1777 6.71717 14.2708 6.77426 14.2588 6.90345C14.3129 6.90646 14.352 6.92148 14.385 6.94852" stroke="black" stroke-width="0.00660992" stroke-linecap="round" stroke-linejoin="round"/>
<path d="M14.7785 6.75298C14.7785 6.82509 14.8116 6.87015 14.8537 6.90621C14.8987 6.94226 14.9378 6.97231 14.9288 7.01737C14.9198 7.06545 14.9378 7.09549 14.9768 7.12554C15.0189 7.15558 15.049 7.19164 15.0369 7.25173C15.0249 7.31182 15.0339 7.34787 15.058 7.39294C15.082 7.438 15.1241 7.47406 15.106 7.54617C15.088 7.61828 15.097 7.71442 15.1211 7.76249C15.1421 7.80756 15.1211 7.84361 15.079 7.92473C15.0369 8.00285 15.0129 8.0329 14.9258 8.06294C14.8356 8.08998 14.8296 8.14406 14.8296 8.2372C14.8296 8.33335 14.7665 8.38142 14.6494 8.36339C14.5292 8.46254 14.4541 8.34537 14.424 8.19814C14.394 8.05092 14.388 7.89169 14.2107 7.76249C14.0364 7.63029 14.1055 7.40796 14.2528 7.31782C14.4 7.23069 14.382 6.97231 14.3639 6.81307C14.3489 6.65383 14.4541 6.56369 14.5352 6.47656C14.6433 6.51863 14.7785 6.68387 14.7785 6.75298Z" fill="#FFA1A1" stroke="black" stroke-width="0.00660992" stroke-linecap="round" stroke-linejoin="round"/>
<path d="M14.5231 7.77726C14.4901 7.69914 14.454 7.62102 14.5411 7.45277C14.6313 7.28151 14.5742 7.15232 14.5472 7.06519C14.5201 6.98106 14.5141 6.90294 14.5472 6.86689C14.5832 6.83384 14.5982 6.81281 14.6012 6.75572C14.6042 6.70164 14.6493 6.71967 14.6553 6.74671C14.6613 6.77375 14.6673 6.81882 14.6193 6.89994C14.5712 6.98407 14.7545 7.18837 14.6703 7.4077C14.6133 7.56093 14.6884 7.75622 14.7184 7.89143C14.7485 8.02663 14.7665 8.35112 14.5682 8.39919C14.7034 8.33309 14.5772 7.90344 14.5231 7.77726Z" fill="#F1B2DC" stroke="black" stroke-width="0.00660992" stroke-linecap="round" stroke-linejoin="round"/>
<path d="M13.6309 7.75311C13.6639 7.75912 13.6819 7.74109 13.6909 7.72006C13.7 7.69903 13.706 7.68701 13.736 7.684C13.7661 7.684 13.8141 7.67499 13.8262 7.65095C13.8352 7.62692 13.8712 7.64795 13.9043 7.58786C13.9343 7.52477 13.9553 7.45266 14.0365 7.42562M14.2588 6.90283C14.2288 6.90283 14.1416 6.90584 14.1056 6.98395M13.8562 6.53027C13.9283 6.5513 13.8983 6.59938 13.9343 6.62642C14.0004 6.67749 13.9403 6.73158 13.9944 6.7466C14.0485 6.76162 14.0455 6.77063 14.0335 6.83072C14.0154 6.89983 14.0815 6.90283 14.0575 6.9479M13.745 7.18526C13.7871 7.1462 13.8923 7.11615 13.9163 7.07409M13.742 6.97794C13.8051 6.97494 13.8892 6.99898 13.9013 6.97494M13.733 6.90884C13.7631 6.90884 13.8262 6.88781 13.8382 6.84575M13.6879 6.8127C13.724 6.8127 13.7691 6.80969 13.8141 6.77664M13.6399 6.69552C13.6669 6.67449 13.715 6.69853 13.7601 6.66848M13.6849 6.5513C13.706 6.5513 13.751 6.5453 13.751 6.57234" stroke="black" stroke-width="0.00660992" stroke-linecap="round" stroke-linejoin="round"/>
<path d="M16.5604 7.09968C16.5604 7.09968 16.3501 6.92242 16.1758 6.80224C16.0016 6.68206 15.7912 6.53484 15.7912 6.50479C15.8243 6.48076 16.0016 6.59493 16.2449 6.74215C16.4913 6.89237 16.6295 7.03959 16.6295 7.03959L16.5604 7.09968ZM16.5454 7.21986C16.5454 7.21986 16.3411 7.09668 16.1398 7.00955C15.9294 6.92242 15.614 6.92242 15.5809 6.89237C15.5809 6.86233 15.9475 6.8443 16.2089 6.94946C16.4763 7.07264 16.6145 7.15977 16.6145 7.15977L16.5454 7.21986ZM16.5424 7.42417C16.5424 7.42417 16.32 7.32202 16.1037 7.27395C15.8934 7.22587 15.5929 7.2439 15.5569 7.21686C15.5569 7.18682 15.9294 7.12673 16.2089 7.21686C16.4913 7.30399 16.6115 7.36408 16.6115 7.36408L16.5424 7.42417ZM16.5303 7.63148C16.5303 7.63148 16.3621 7.51731 16.1398 7.49328C15.9294 7.47224 15.65 7.63148 15.614 7.60144C15.614 7.57139 15.8573 7.39413 16.1608 7.42417C16.4582 7.45422 16.5994 7.57139 16.5994 7.57139L16.5303 7.63148ZM16.5994 6.9765C16.5994 6.9765 16.3861 6.78121 16.3861 6.64901C16.3861 6.53183 16.5153 6.35156 16.5724 6.35156C16.5424 6.41165 16.4432 6.53183 16.4432 6.64901C16.4432 6.76919 16.6686 6.91641 16.6686 6.91641L16.5994 6.9765Z" fill="#9E540A" stroke="black" stroke-width="0.00660992" stroke-linecap="round" stroke-linejoin="round"/>
<path d="M16.5995 6.97672C16.5995 6.97672 16.6416 6.78142 16.6416 6.64923C16.6416 6.47196 16.5154 6.30972 16.5274 6.26465C16.5725 6.30972 16.6987 6.44191 16.6987 6.64923C16.6987 6.8295 16.6686 6.91663 16.6686 6.91663L16.5995 6.97672Z" fill="#9E540A" stroke="black" stroke-width="0.00660992" stroke-linecap="round" stroke-linejoin="round"/>
<path d="M16.6505 6.91336C16.6505 6.85627 16.6295 6.8052 16.5934 6.76614C16.5454 6.70905 16.4733 6.69102 16.3981 6.70304C16.308 6.71806 16.2359 6.77215 16.1908 6.85627C16.1307 6.96744 16.1247 7.08762 16.1217 7.2048C16.1217 7.6104 16.1367 7.77565 16.1488 8.17525C16.1518 8.29243 16.1728 8.53279 16.1187 8.72207C16.0977 8.80319 16.0737 8.87831 16.0376 8.95642C16.0616 8.85727 16.0737 8.8062 16.0857 8.73108C16.1187 8.53579 16.1097 8.35252 16.1037 8.17225C16.0917 7.80269 16.0706 7.61341 16.0586 7.16574C16.0556 7.03053 16.0676 6.92838 16.1307 6.82022C16.1968 6.70905 16.311 6.62793 16.4402 6.62793C16.4943 6.62793 16.5394 6.63694 16.5844 6.66398C16.6746 6.71206 16.7166 6.8112 16.7166 6.91035L16.6505 6.91336Z" fill="#9E540A" stroke="#FCD116" stroke-width="0.0360541" stroke-linecap="round" stroke-linejoin="round"/>
<path d="M16.6505 6.91336C16.6505 6.85627 16.6295 6.8052 16.5934 6.76614C16.5454 6.70905 16.4733 6.69102 16.3981 6.70304C16.308 6.71806 16.2359 6.77215 16.1908 6.85627C16.1307 6.96744 16.1247 7.08762 16.1217 7.2048C16.1217 7.6104 16.1367 7.77565 16.1488 8.17525C16.1518 8.29243 16.1728 8.53279 16.1187 8.72207C16.0977 8.80319 16.0737 8.87831 16.0376 8.95642C16.0616 8.85727 16.0737 8.8062 16.0857 8.73108C16.1187 8.53579 16.1097 8.35252 16.1037 8.17225C16.0917 7.80269 16.0706 7.61341 16.0586 7.16574C16.0556 7.03053 16.0676 6.92838 16.1307 6.82022C16.1968 6.70905 16.311 6.62793 16.4402 6.62793C16.4943 6.62793 16.5394 6.63694 16.5844 6.66398C16.6746 6.71206 16.7166 6.8112 16.7166 6.91035L16.6505 6.91336Z" fill="#9E540A"/>
<path d="M16.6686 8.3614C16.6686 8.3614 16.5845 8.51162 16.5214 8.61979C16.4583 8.72795 16.4072 8.75198 16.3591 8.71894C16.3141 8.68589 16.3531 8.59876 16.3892 8.55669C16.4252 8.51463 16.6265 8.31934 16.6265 8.31934L16.6686 8.3614Z" fill="#9E540A" stroke="black" stroke-width="0.00660992" stroke-linecap="round" stroke-linejoin="round"/>
<path d="M16.6897 8.37372C16.6897 8.37372 16.6566 8.54498 16.6296 8.66816C16.6055 8.79135 16.5635 8.83341 16.5124 8.81839C16.4583 8.80637 16.4673 8.70722 16.4884 8.65614C16.5094 8.60507 16.6356 8.34668 16.6356 8.34668L16.6897 8.37372Z" fill="#9E540A" stroke="black" stroke-width="0.00660992" stroke-linecap="round" stroke-linejoin="round"/>
<path d="M16.7255 8.37928C16.7255 8.37928 16.7255 8.55354 16.7255 8.67973C16.7255 8.80592 16.6955 8.857 16.6384 8.85399C16.5843 8.85099 16.5723 8.75484 16.5843 8.69776C16.5934 8.64368 16.6685 8.36426 16.6685 8.36426L16.7255 8.37928Z" fill="#9E540A" stroke="black" stroke-width="0.00660992" stroke-linecap="round" stroke-linejoin="round"/>
<path d="M16.8908 7.09968C16.8908 7.09968 17.1011 6.92242 17.2754 6.80224C17.4496 6.68206 17.6599 6.53484 17.6599 6.50479C17.6269 6.48076 17.4496 6.59493 17.2063 6.74215C16.9599 6.89237 16.8217 7.03959 16.8217 7.03959L16.8908 7.09968ZM16.9058 7.21986C16.9058 7.21986 17.1101 7.09668 17.3114 7.00955C17.5217 6.92242 17.8372 6.92242 17.8703 6.89237C17.8703 6.86233 17.5037 6.8443 17.2423 6.94946C16.9749 7.07264 16.8367 7.15977 16.8367 7.15977L16.9058 7.21986ZM16.9088 7.42417C16.9088 7.42417 17.1311 7.32202 17.3475 7.27395C17.5578 7.22587 17.8582 7.2439 17.8943 7.21686C17.8943 7.18682 17.5217 7.12673 17.2423 7.21686C16.9599 7.30399 16.8397 7.36408 16.8397 7.36408L16.9088 7.42417ZM16.9208 7.63148C16.9208 7.63148 17.0891 7.51731 17.3114 7.49328C17.5217 7.47224 17.8011 7.63148 17.8372 7.60144C17.8372 7.57139 17.5938 7.39413 17.2904 7.42417C16.9929 7.45422 16.8517 7.57139 16.8517 7.57139L16.9208 7.63148ZM16.8517 6.9765C16.8517 6.9765 17.065 6.78121 17.065 6.64901C17.065 6.53183 16.9358 6.35156 16.8788 6.35156C16.9088 6.41165 17.008 6.53183 17.008 6.64901C17.008 6.76919 16.7826 6.91641 16.7826 6.91641L16.8517 6.9765Z" fill="#9E540A" stroke="black" stroke-width="0.00660992" stroke-linecap="round" stroke-linejoin="round"/>
<path d="M16.8516 6.97672C16.8516 6.97672 16.8096 6.78142 16.8096 6.64923C16.8096 6.47196 16.9358 6.30972 16.9238 6.26465C16.8787 6.30972 16.7525 6.44191 16.7525 6.64923C16.7525 6.8295 16.7825 6.91663 16.7825 6.91663L16.8516 6.97672Z" fill="#9E540A" stroke="black" stroke-width="0.00660992" stroke-linecap="round" stroke-linejoin="round"/>
<path d="M16.8007 6.91336C16.8007 6.85627 16.8217 6.8052 16.8577 6.76614C16.9058 6.70905 16.9779 6.69102 17.053 6.70304C17.1432 6.71806 17.2153 6.77215 17.2603 6.85627C17.3204 6.96744 17.3264 7.08762 17.3294 7.2048C17.3294 7.6104 17.3144 7.77565 17.3024 8.17525C17.2994 8.29243 17.2784 8.53279 17.3325 8.72207C17.3535 8.80319 17.3775 8.87831 17.4136 8.95642C17.3895 8.85727 17.3775 8.8062 17.3655 8.73108C17.3325 8.53579 17.3415 8.35252 17.3475 8.17225C17.3595 7.80269 17.3805 7.61341 17.3925 7.16574C17.3955 7.03053 17.3835 6.92838 17.3204 6.82022C17.2543 6.70905 17.1402 6.62793 17.011 6.62793C16.9569 6.62793 16.9118 6.63694 16.8668 6.66398C16.7766 6.71206 16.7346 6.8112 16.7346 6.91035L16.8007 6.91336Z" fill="#9E540A" stroke="#FCD116" stroke-width="0.0360541" stroke-linecap="round" stroke-linejoin="round"/>
<path d="M16.8007 6.91336C16.8007 6.85627 16.8217 6.8052 16.8577 6.76614C16.9058 6.70905 16.9779 6.69102 17.053 6.70304C17.1432 6.71806 17.2153 6.77215 17.2603 6.85627C17.3204 6.96744 17.3264 7.08762 17.3294 7.2048C17.3294 7.6104 17.3144 7.77565 17.3024 8.17525C17.2994 8.29243 17.2784 8.53279 17.3325 8.72207C17.3535 8.80319 17.3775 8.87831 17.4136 8.95642C17.3895 8.85727 17.3775 8.8062 17.3655 8.73108C17.3325 8.53579 17.3415 8.35252 17.3475 8.17225C17.3595 7.80269 17.3805 7.61341 17.3925 7.16574C17.3955 7.03053 17.3835 6.92838 17.3204 6.82022C17.2543 6.70905 17.1402 6.62793 17.011 6.62793C16.9569 6.62793 16.9118 6.63694 16.8668 6.66398C16.7766 6.71206 16.7346 6.8112 16.7346 6.91035L16.8007 6.91336Z" fill="#9E540A"/>
<path d="M16.7826 8.3614C16.7826 8.3614 16.8667 8.51162 16.9298 8.61979C16.9929 8.72795 17.044 8.75198 17.092 8.71894C17.1371 8.68589 17.098 8.59876 17.062 8.55669C17.0259 8.51463 16.8246 8.31934 16.8246 8.31934L16.7826 8.3614Z" fill="#9E540A" stroke="black" stroke-width="0.00660992" stroke-linecap="round" stroke-linejoin="round"/>
<path d="M16.7615 8.37372C16.7615 8.37372 16.7946 8.54498 16.8216 8.66816C16.8456 8.79135 16.8877 8.83341 16.9388 8.81839C16.9929 8.80637 16.9838 8.70722 16.9628 8.65614C16.9418 8.60507 16.8156 8.34668 16.8156 8.34668L16.7615 8.37372Z" fill="#9E540A" stroke="black" stroke-width="0.00660992" stroke-linecap="round" stroke-linejoin="round"/>
<path d="M16.7256 8.37928C16.7256 8.37928 16.7256 8.55354 16.7256 8.67973C16.7256 8.80592 16.7557 8.857 16.8128 8.85399C16.8668 8.85099 16.8789 8.75484 16.8668 8.69776C16.8578 8.64368 16.7827 8.36426 16.7827 8.36426L16.7256 8.37928Z" fill="#9E540A" stroke="black" stroke-width="0.00660992" stroke-linecap="round" stroke-linejoin="round"/>
<path d="M16.7256 8.37853C16.5663 8.37553 16.5513 8.31844 16.5513 8.31844C16.5513 8.31844 16.5303 8.24633 16.5273 8.20127C16.5242 8.19526 16.4822 8.10512 16.4942 8.06606C16.4792 8.03001 16.4431 7.94288 16.4762 7.92786C16.4612 7.88579 16.4371 7.83772 16.4341 7.79265C16.4221 7.7596 16.3921 7.6875 16.4161 7.66346C16.4161 7.66346 16.359 7.54328 16.386 7.51324C16.386 7.51324 16.359 7.39606 16.386 7.36601C16.386 7.36601 16.386 7.24583 16.4161 7.21579C16.4161 7.21579 16.4161 7.09861 16.4431 7.06857C16.4431 7.07458 16.5273 6.90332 16.7256 6.90332L16.7225 7.1587H16.7256V8.37853Z" fill="#9E540A" stroke="black" stroke-width="0.00660992" stroke-linecap="round" stroke-linejoin="round"/>
<path d="M16.7257 7.72327C16.4704 7.72026 16.4163 7.66318 16.4163 7.66318M16.7257 7.57304C16.4704 7.57304 16.3862 7.51295 16.3862 7.51295M16.7257 7.42582C16.4704 7.42282 16.3862 7.36573 16.3862 7.36573M16.7257 7.2756C16.4704 7.27259 16.4163 7.21551 16.4163 7.21551M16.7227 7.15842C16.7257 7.15842 16.5304 7.15842 16.5004 7.12837L16.4433 7.07129M16.7257 8.25807C16.6506 8.25807 16.5665 8.24605 16.5274 8.20098M16.7257 8.13789C16.5845 8.13789 16.5004 8.0808 16.5004 8.0808C16.5004 8.0808 16.4974 8.07479 16.4944 8.06578M16.7257 7.99067C16.5395 7.98766 16.4884 7.94861 16.4764 7.92757M16.7257 7.87049C16.4704 7.87049 16.4433 7.8104 16.4433 7.8104C16.4433 7.8104 16.4403 7.80439 16.4343 7.79237" stroke="black" stroke-width="0.00660992" stroke-linecap="round" stroke-linejoin="round"/>
<path d="M16.7256 8.37853C16.8849 8.37553 16.8999 8.31844 16.8999 8.31844C16.8999 8.31844 16.9209 8.24633 16.9239 8.20127C16.9269 8.19526 16.969 8.10512 16.957 8.06606C16.972 8.03001 17.008 7.94288 16.975 7.92786C16.99 7.88579 17.0141 7.83772 17.0171 7.79265C17.0291 7.7596 17.0591 7.6875 17.0351 7.66346C17.0351 7.66346 17.0922 7.54328 17.0651 7.51324C17.0651 7.51324 17.0922 7.39606 17.0651 7.36601C17.0651 7.36601 17.0651 7.24583 17.0351 7.21579C17.0351 7.21579 17.0351 7.09861 17.008 7.06857C17.008 7.07458 16.9239 6.90332 16.7256 6.90332L16.7286 7.1587H16.7256V8.37853Z" fill="#9E540A" stroke="black" stroke-width="0.00660992" stroke-linecap="round" stroke-linejoin="round"/>
<path d="M16.7257 7.72327C16.9811 7.72026 17.0351 7.66318 17.0351 7.66318M16.7257 7.57304C16.9811 7.57304 17.0652 7.51295 17.0652 7.51295M16.7257 7.42582C16.9811 7.42282 17.0652 7.36573 17.0652 7.36573M16.7257 7.2756C16.9811 7.27259 17.0351 7.21551 17.0351 7.21551M16.7287 7.15842C16.7257 7.15842 16.921 7.15842 16.951 7.12837L17.0081 7.07129M16.7257 8.25807C16.8008 8.25807 16.8849 8.24605 16.924 8.20098M16.7257 8.13789C16.8669 8.13789 16.951 8.0808 16.951 8.0808C16.951 8.0808 16.954 8.07479 16.957 8.06578M16.7257 7.99067C16.912 7.98766 16.963 7.94861 16.9751 7.92757M16.7257 7.87049C16.9811 7.87049 17.0081 7.8104 17.0081 7.8104C17.0081 7.8104 17.0111 7.80439 17.0171 7.79237" stroke="black" stroke-width="0.00660992" stroke-linecap="round" stroke-linejoin="round"/>
<path d="M15.5234 11.1412C15.3942 11.2614 15.1448 11.1833 15.0667 11.1292C14.9856 11.1563 14.7692 11.0721 14.7122 10.979C14.5559 11 14.5018 10.7777 14.5289 10.7206C14.5709 10.6365 14.4958 10.5824 14.5499 10.5253C14.625 10.4532 14.5079 10.3841 14.58 10.336C14.6521 10.285 14.5619 10.2008 14.634 10.1467C14.7092 10.0897 14.595 10.0115 14.6731 9.97249C14.7512 9.93343 14.6641 9.83128 14.7302 9.79222C14.7963 9.75316 14.6911 9.65401 14.7813 9.60894C14.8684 9.56387 14.7903 9.48576 14.8594 9.45271C14.9345 9.41365 14.8654 9.33253 14.9345 9.30549C15.0126 9.27244 14.9555 9.18531 15.0216 9.16127C15.0787 9.14024 15.0427 9.08616 15.0787 9.03809H15.5234" fill="#009E49"/>
<path d="M15.5234 11.1412C15.3942 11.2614 15.1448 11.1833 15.0667 11.1292C14.9856 11.1563 14.7692 11.0721 14.7122 10.979C14.5559 11 14.5018 10.7777 14.5289 10.7206C14.5709 10.6365 14.4958 10.5824 14.5499 10.5253C14.625 10.4532 14.5079 10.3841 14.58 10.336C14.6521 10.285 14.5619 10.2008 14.634 10.1467C14.7092 10.0897 14.595 10.0115 14.6731 9.97249C14.7512 9.93343 14.6641 9.83128 14.7302 9.79222C14.7963 9.75316 14.6911 9.65401 14.7813 9.60894C14.8684 9.56387 14.7903 9.48576 14.8594 9.45271C14.9345 9.41365 14.8654 9.33253 14.9345 9.30549C15.0126 9.27244 14.9555 9.18531 15.0216 9.16127C15.0787 9.14024 15.0427 9.08616 15.0787 9.03809H15.5234" stroke="black" stroke-width="0.00660992" stroke-linecap="round" stroke-linejoin="round"/>
<path d="M15.2259 9.05566C15.1658 9.11575 15.2379 9.16082 15.1779 9.23293C15.1148 9.30804 15.1718 9.3471 15.1208 9.4132C15.0697 9.4793 15.1448 9.51235 15.0877 9.58746C15.0306 9.65957 15.0997 9.70464 15.0366 9.76473C14.9766 9.82782 15.0487 9.8819 14.9856 9.948C14.9255 10.0171 14.9976 10.0622 14.9375 10.1223C14.8744 10.1854 14.9465 10.2515 14.8864 10.3115C14.8263 10.3746 14.8984 10.4528 14.8293 10.5249C14.7632 10.597 14.8414 10.6541 14.7873 10.7081C14.7302 10.7652 14.7813 10.8223 14.7422 10.8614C14.7031 10.9004 14.6971 10.9545 14.7122 10.9785M15.3431 9.0767C15.289 9.15181 15.3732 9.18486 15.3221 9.24495C15.271 9.30804 15.3431 9.32907 15.304 9.40118C15.265 9.47329 15.3341 9.49132 15.283 9.56343C15.2319 9.63553 15.3101 9.69262 15.256 9.76473C15.1989 9.83684 15.283 9.87589 15.2319 9.948C15.1839 10.0231 15.256 10.0622 15.2109 10.1163C15.1658 10.1733 15.244 10.2274 15.1869 10.2965C15.1328 10.3626 15.2109 10.4137 15.1658 10.4738C15.1208 10.5369 15.1839 10.603 15.1448 10.6541C15.1058 10.7021 15.1718 10.7772 15.1148 10.8433C15.0607 10.9094 15.1268 10.9545 15.0937 10.9996C15.0607 11.0446 15.0336 11.1107 15.0667 11.1288" stroke="black" stroke-width="0.00660992" stroke-linecap="round" stroke-linejoin="round"/>
<path d="M15.5235 11.1412C15.6527 11.2614 15.9021 11.1833 15.9802 11.1292C16.0613 11.1563 16.2776 11.0721 16.3347 10.979C16.491 11 16.545 10.7777 16.518 10.7206C16.4759 10.6365 16.551 10.5824 16.497 10.5253C16.4218 10.4532 16.539 10.3841 16.4669 10.336C16.3948 10.285 16.4849 10.2008 16.4128 10.1467C16.3377 10.0897 16.4519 10.0115 16.3738 9.97249C16.2957 9.93343 16.3828 9.83128 16.3167 9.79222C16.2506 9.75316 16.3557 9.65401 16.2656 9.60894C16.1785 9.56387 16.2566 9.48576 16.1875 9.45271C16.1124 9.41365 16.1815 9.33253 16.1124 9.30549C16.0343 9.27244 16.0914 9.18531 16.0253 9.16127C15.9682 9.14024 16.0042 9.08616 15.9682 9.03809H15.5235" fill="#009E49"/>
<path d="M15.5235 11.1412C15.6527 11.2614 15.9021 11.1833 15.9802 11.1292C16.0613 11.1563 16.2776 11.0721 16.3347 10.979C16.491 11 16.545 10.7777 16.518 10.7206C16.4759 10.6365 16.551 10.5824 16.497 10.5253C16.4218 10.4532 16.539 10.3841 16.4669 10.336C16.3948 10.285 16.4849 10.2008 16.4128 10.1467C16.3377 10.0897 16.4519 10.0115 16.3738 9.97249C16.2957 9.93343 16.3828 9.83128 16.3167 9.79222C16.2506 9.75316 16.3557 9.65401 16.2656 9.60894C16.1785 9.56387 16.2566 9.48576 16.1875 9.45271C16.1124 9.41365 16.1815 9.33253 16.1124 9.30549C16.0343 9.27244 16.0914 9.18531 16.0253 9.16127C15.9682 9.14024 16.0042 9.08616 15.9682 9.03809H15.5235" stroke="black" stroke-width="0.00660992" stroke-linecap="round" stroke-linejoin="round"/>
<path d="M15.8209 9.05566C15.881 9.11575 15.8089 9.16082 15.869 9.23293C15.9321 9.30804 15.875 9.3471 15.9261 9.4132C15.9772 9.4793 15.9021 9.51235 15.9592 9.58746C16.0162 9.65957 15.9471 9.70464 16.0102 9.76473C16.0703 9.82782 15.9982 9.8819 16.0613 9.948C16.1214 10.0171 16.0493 10.0622 16.1094 10.1223C16.1725 10.1854 16.1004 10.2515 16.1605 10.3115C16.2205 10.3746 16.1484 10.4528 16.2175 10.5249C16.2836 10.597 16.2055 10.6541 16.2596 10.7081C16.3167 10.7652 16.2656 10.8223 16.3047 10.8614C16.3437 10.9004 16.3497 10.9545 16.3347 10.9785M15.7038 9.0767C15.7578 9.15181 15.6737 9.18486 15.7248 9.24495C15.7759 9.30804 15.7038 9.32907 15.7428 9.40118C15.7819 9.47329 15.7128 9.49132 15.7639 9.56343C15.8149 9.63553 15.7368 9.69262 15.7909 9.76473C15.848 9.83684 15.7639 9.87589 15.8149 9.948C15.863 10.0231 15.7909 10.0622 15.836 10.1163C15.881 10.1733 15.8029 10.2274 15.86 10.2965C15.9141 10.3626 15.836 10.4137 15.881 10.4738C15.9261 10.5369 15.863 10.603 15.9021 10.6541C15.9411 10.7021 15.875 10.7772 15.9321 10.8433C15.9862 10.9094 15.9201 10.9545 15.9531 10.9996C15.9862 11.0446 16.0132 11.1107 15.9802 11.1288" stroke="black" stroke-width="0.00660992" stroke-linecap="round" stroke-linejoin="round"/>
<path d="M15.5234 11.1422V9.03906" stroke="#009E49" stroke-width="0.00660992" stroke-linecap="round" stroke-linejoin="round"/>
<path d="M15.5234 9.14648C15.4964 9.26366 15.5625 9.36581 15.5234 9.46496C15.4844 9.56111 15.5505 9.60016 15.5294 9.67828C15.5054 9.7564 15.5565 9.81348 15.5234 9.89761C15.4904 9.98174 15.5685 10.0478 15.5234 10.159C15.4784 10.2672 15.5535 10.2942 15.5234 10.4054C15.4904 10.5316 15.5805 10.5977 15.5234 10.6878C15.4663 10.7779 15.5745 10.799 15.5294 10.9011C15.4844 11.0003 15.5565 11.0393 15.5234 11.1415" stroke="black" stroke-width="0.00660992" stroke-linecap="round" stroke-linejoin="round"/>
<path d="M15.5687 9.52653C15.5536 9.55958 15.6137 9.6377 15.5807 9.69779C15.5446 9.75488 15.5987 9.84501 15.5627 9.91712C15.5266 9.98923 15.6197 10.0794 15.5837 10.1635C15.5446 10.2476 15.6017 10.3528 15.5837 10.4309C15.5687 10.509 15.6228 10.6592 15.5837 10.7133C15.5446 10.7704 15.6228 10.7854 15.5777 10.9236C15.5326 11.0618 15.5026 10.9447 15.5296 10.9026C15.5867 10.8095 15.4665 10.7794 15.5236 10.6893C15.5807 10.5991 15.4906 10.533 15.5236 10.4069C15.5536 10.2957 15.4785 10.2686 15.5236 10.1605C15.5687 10.0493 15.4906 9.98322 15.5236 9.89909C15.5567 9.81497 15.5056 9.75788 15.5296 9.67976C15.5506 9.60165 15.4845 9.56259 15.5236 9.46644C15.5536 9.3703 15.5837 9.49348 15.5687 9.52653ZM15.3163 9.62268C15.2953 9.65873 15.3523 9.72784 15.3013 9.79694C15.2652 9.84501 15.3253 9.9021 15.2742 9.9712C15.2412 10.0193 15.3073 10.0794 15.2622 10.1485C15.2322 10.1875 15.2832 10.2626 15.2472 10.3197C15.2111 10.3798 15.2652 10.4279 15.2021 10.506C15.1661 10.5481 15.2292 10.6532 15.1901 10.6863C15.151 10.7193 15.1871 10.8485 15.1601 10.8665C15.136 10.8876 15.1601 10.9807 15.094 11.0017C15.127 10.9567 15.0609 10.9116 15.115 10.8455C15.1721 10.7794 15.106 10.7043 15.145 10.6562C15.1841 10.6052 15.121 10.5391 15.1661 10.476C15.2111 10.4159 15.133 10.3648 15.1871 10.2987C15.2442 10.2296 15.1661 10.1755 15.2111 10.1184C15.2562 10.0643 15.1841 10.0253 15.2322 9.95017C15.2832 9.87806 15.1991 9.839 15.2562 9.76689C15.3103 9.69479 15.2322 9.6377 15.2832 9.56559C15.3343 9.49348 15.2652 9.47546 15.3043 9.40335C15.3764 9.43039 15.3403 9.58662 15.3163 9.62268ZM15.1661 9.42739C15.136 9.47546 15.1781 9.53254 15.133 9.59263C15.0879 9.65573 15.133 9.73385 15.0879 9.78492C15.0429 9.83299 15.1 9.92914 15.0429 9.9682C14.9858 10.0073 15.0219 10.1244 14.9768 10.1635C14.9317 10.2025 14.9768 10.3137 14.9257 10.3708C14.8746 10.4279 14.8987 10.5451 14.8686 10.5721C14.8416 10.5991 14.9077 10.6562 14.8596 10.6953C14.8085 10.7343 14.8085 10.8125 14.7424 10.8635C14.7815 10.8245 14.7304 10.7674 14.7875 10.7103C14.8416 10.6562 14.7635 10.5991 14.8296 10.527C14.8987 10.4549 14.8266 10.3768 14.8866 10.3137C14.9467 10.2536 14.8746 10.1875 14.9377 10.1244C14.9978 10.0643 14.9257 10.0193 14.9858 9.95017C15.0489 9.88407 14.9768 9.82999 15.0369 9.76689C15.1 9.7068 15.0309 9.66174 15.0879 9.58963C15.145 9.51452 15.0699 9.48147 15.121 9.41537C15.145 9.38532 15.145 9.35828 15.145 9.33425C15.1811 9.24111 15.1811 9.40335 15.1661 9.42739Z" fill="#FCD116" stroke="black" stroke-width="0.00660992" stroke-linecap="round" stroke-linejoin="round"/>
<path d="M15.106 9.10809C15.106 8.47714 15.1931 8.25781 15.5236 8.25781C15.8541 8.25781 15.9412 8.47714 15.9412 9.10809H15.106Z" fill="#CE1126" stroke="black" stroke-width="0.00660992" stroke-linecap="round" stroke-linejoin="round"/>
<path d="M15.106 9.10809C15.106 8.47714 15.1931 8.25781 15.5236 8.25781C15.3734 8.25781 15.2802 8.37499 15.2562 8.45311C15.2291 8.53122 15.2442 8.52521 15.2772 8.49517C15.3103 8.46512 15.2952 8.53122 15.2652 8.56728C15.2382 8.60333 15.2111 8.70849 15.2502 8.67544C15.2892 8.63938 15.3193 8.67844 15.2772 8.73853C15.2352 8.79562 15.1991 8.93383 15.2412 8.88575C15.2832 8.83768 15.2922 8.9158 15.2652 8.95486C15.2412 8.99392 15.2442 9.02997 15.2652 9.01194C15.2892 8.99392 15.2862 9.07504 15.2652 9.10809H15.106ZM15.6798 9.09607C15.6798 9.00293 15.6828 8.7836 15.6317 8.71149C15.5957 8.65441 15.5957 8.59432 15.6378 8.66042C15.6798 8.72652 15.7008 8.69347 15.6708 8.62737C15.6348 8.54324 15.5867 8.4501 15.5987 8.43207C15.6137 8.41104 15.6227 8.42006 15.6528 8.46512C15.6828 8.51019 15.6888 8.44409 15.6558 8.39902C15.6227 8.35696 15.6257 8.34795 15.6948 8.37799C15.818 8.42907 15.8781 8.57629 15.8781 9.07203L15.6798 9.09607Z" fill="black" stroke="black" stroke-width="0.00660992" stroke-linecap="round" stroke-linejoin="round"/>
<path d="M15.5235 9.19796C15.3913 9.19796 15.2471 9.17693 15.151 9.13787C15.0368 9.0928 15.0308 9.05374 15.0698 9.00567C15.0999 8.96962 15.16 8.99065 15.2201 9.01769C15.2772 9.04173 15.4394 9.05975 15.5235 9.05975C15.6076 9.05975 15.7699 9.04173 15.827 9.01469C15.8871 8.99065 15.9472 8.96962 15.9772 9.00567C16.0163 9.05374 16.0103 9.0928 15.8961 9.13787C15.7999 9.17693 15.6557 9.19796 15.5235 9.19796Z" fill="#CE1126" stroke="black" stroke-width="0.00660992" stroke-linecap="round" stroke-linejoin="round"/>
<defs>
<clipPath id="clip0_149_2169">
<path d="M0 1.6C0 0.716345 0.716345 0 1.6 0H11.2V6.4C11.2 7.28366 10.4837 8 9.6 8H0V1.6Z" fill="white"/>
</clipPath>
</defs>
</svg>
