<svg width="21" height="15" viewBox="0 0 21 15" fill="none" xmlns="http://www.w3.org/2000/svg">
<rect width="21" height="15" rx="3" fill="#1A47B8"/>
<g clip-path="url(#clip0_149_2534)">
<path d="M0 1.6C0 0.716345 0.716345 0 1.6 0H11.2V6.4C11.2 7.28366 10.4837 8 9.6 8H0V1.6Z" fill="#1A47B8"/>
<path fill-rule="evenodd" clip-rule="evenodd" d="M1.19145 0H0V1.33333L10.0021 8L11.2 8V6.66667L1.19145 0Z" fill="white"/>
<path d="M0.397386 0L11.2 7.2189V8H10.8119L0 0.773631V0H0.397386Z" fill="#F93939"/>
<path fill-rule="evenodd" clip-rule="evenodd" d="M10.1333 0H11.2V1.33333C11.2 1.33333 4.2719 5.77496 1.06667 8H0V6.66667L10.1333 0Z" fill="white"/>
<path d="M11.2 0H10.8383L0 7.22511V8H0.397386L11.2 0.779474V0Z" fill="#F93939"/>
<path fill-rule="evenodd" clip-rule="evenodd" d="M4.07311 0H7.13621V2.46764H11.2V5.53074H7.13621V8H4.07311V5.53074H0V2.46764H4.07311V0Z" fill="white"/>
<path fill-rule="evenodd" clip-rule="evenodd" d="M4.71579 0H6.48421V3.07692H11.2V4.92308H6.48421V8H4.71579V4.92308H0V3.07692H4.71579V0Z" fill="#F93939"/>
</g>
<path d="M12.7588 5.01849L17.7424 5L17.7331 9.43803C17.7331 9.43803 17.9088 10.113 15.6435 11.1393C16.4572 11.0561 17.3448 10.1869 17.3448 10.1869C17.3448 10.1869 17.7054 9.72466 17.881 9.98354C18.0567 10.2424 18.2231 10.3719 18.3526 10.4736C18.482 10.5753 18.5837 10.8526 18.3896 11.0561C18.1954 11.2595 17.8903 11.2872 17.8071 11.0376C17.6776 11.1023 16.8825 12.0639 15.2552 12.1101C13.6002 12.0823 12.6941 11.0283 12.6941 11.0283C12.6941 11.0283 12.4722 11.3797 12.1579 11.1023C11.8527 10.7417 12.0839 10.5106 12.0839 10.5106C12.0839 10.5106 12.3428 10.3626 12.4167 10.2609C12.5369 10.1222 12.5739 9.93731 12.7773 9.93731C13.0177 9.9558 13.1102 10.15 13.1102 10.15C13.1102 10.15 13.9423 11.0283 14.8392 11.1393C12.8144 10.1684 12.7404 9.5674 12.7497 9.41946L12.7589 5.01843L12.7588 5.01849Z" fill="white"/>
<path d="M12.8791 5.13907L17.6315 5.11133V9.38293C17.6407 9.93769 16.7069 10.5017 15.246 11.2229C13.739 10.4462 12.8698 9.97467 12.8606 9.37369L12.8791 5.13907Z" fill="#006129" stroke="black" stroke-width="0.0375614"/>
<path d="M13.5256 5.76942L13.8062 5.35742L14.088 5.77028" stroke="#FFC72C" stroke-width="0.0375614"/>
<path d="M13.8624 5.61628C13.8624 5.64705 13.8375 5.672 13.8067 5.672C13.7759 5.672 13.751 5.64705 13.751 5.61628C13.751 5.5855 13.7759 5.56055 13.8067 5.56055C13.8375 5.56055 13.8624 5.5855 13.8624 5.61628Z" fill="#FFC72C" stroke="black" stroke-width="0.0187817"/>
<path d="M13.5783 6.0746L14.0132 6.07584C14.0132 6.07584 14.02 6.0194 13.9678 5.9851C14.1956 5.95377 14.1364 5.75285 14.3272 5.74146C14.3642 5.74716 14.2275 5.82688 14.2275 5.82688C14.2275 5.82688 14.1125 5.90805 14.1649 5.94932C14.2064 5.98208 14.2247 5.92939 14.2304 5.88953C14.236 5.84966 14.4154 5.82404 14.3898 5.71014C14.3471 5.61618 14.0965 5.77278 14.0965 5.77278L13.9178 5.77179C13.9066 5.75173 13.8573 5.67127 13.8065 5.6709C13.7461 5.6731 13.7036 5.77278 13.7036 5.77278H13.4445H13.2993C13.2993 5.77278 13.2854 5.87652 13.4904 5.89646C13.5366 5.95674 13.5724 5.97358 13.6125 5.98918C13.5857 6.01148 13.5782 6.03845 13.5783 6.0746Z" fill="#FFC72C" stroke="black" stroke-width="0.0187817"/>
<path d="M13.6096 5.98561L13.9719 5.98438Z" fill="#FFC72C"/>
<path d="M13.6096 5.98561L13.9719 5.98438" stroke="black" stroke-width="0.0187817"/>
<path d="M13.4438 5.77246C13.4438 5.77246 13.4728 5.94188 13.6066 5.98201Z" fill="#FFC72C"/>
<path d="M13.4438 5.77246C13.4438 5.77246 13.4728 5.94188 13.6066 5.98201" stroke="black" stroke-width="0.0187817"/>
<path d="M13.4213 5.77035C13.4347 5.7057 13.4592 5.69456 13.486 5.61208C13.4904 5.53183 13.4213 5.54074 13.4414 5.48947C13.4771 5.43374 13.4592 5.38024 13.3924 5.33789C13.4057 5.41145 13.3054 5.48056 13.3054 5.54074C13.3054 5.60093 13.3567 5.58756 13.35 5.67895C13.3545 5.73245 13.3366 5.71908 13.3322 5.77035L13.4213 5.77035Z" fill="url(#paint0_linear_149_2534)" stroke="black" stroke-width="0.0187817"/>
<path d="M13.8581 5.36865C13.8581 5.39696 13.8352 5.41992 13.8069 5.41992C13.7786 5.41992 13.7556 5.39696 13.7556 5.36865C13.7556 5.34034 13.7786 5.31738 13.8069 5.31738C13.8352 5.31738 13.8581 5.34034 13.8581 5.36865Z" fill="#FFC72C" stroke="black" stroke-width="0.0187817"/>
<path d="M13.5103 6.59071L13.7908 6.17871L14.0727 6.59157" stroke="#FFC72C" stroke-width="0.0375614"/>
<path d="M13.8473 6.43756C13.8473 6.46834 13.8223 6.49329 13.7916 6.49329C13.7608 6.49329 13.7358 6.46834 13.7358 6.43756C13.7358 6.40679 13.7608 6.38184 13.7916 6.38184C13.8223 6.38184 13.8473 6.40679 13.8473 6.43756Z" fill="#FFC72C" stroke="black" stroke-width="0.0187817"/>
<path d="M13.5629 6.89492L13.9978 6.89615C13.9978 6.89615 14.0046 6.83971 13.9524 6.80541C14.1802 6.77409 14.121 6.57316 14.3118 6.56177C14.3488 6.56747 14.2121 6.6472 14.2121 6.6472C14.2121 6.6472 14.0971 6.72836 14.1495 6.76963C14.1911 6.80239 14.2093 6.7497 14.215 6.70984C14.2207 6.66998 14.4 6.64435 14.3744 6.53046C14.3317 6.43649 14.0811 6.5931 14.0811 6.5931L13.9024 6.5921C13.8912 6.57204 13.842 6.49158 13.7911 6.49121C13.7307 6.49341 13.6882 6.5931 13.6882 6.5931H13.4291H13.2839C13.2839 6.5931 13.27 6.69684 13.475 6.71677C13.5212 6.77705 13.557 6.79389 13.5971 6.8095C13.5703 6.83179 13.5628 6.85876 13.5629 6.89492Z" fill="#FFC72C" stroke="black" stroke-width="0.0187817"/>
<path d="M13.5942 6.80787L13.9565 6.80664Z" fill="#FFC72C"/>
<path d="M13.5942 6.80787L13.9565 6.80664" stroke="black" stroke-width="0.0187817"/>
<path d="M13.4285 6.59375C13.4285 6.59375 13.4574 6.76317 13.5912 6.80329Z" fill="#FFC72C"/>
<path d="M13.4285 6.59375C13.4285 6.59375 13.4574 6.76317 13.5912 6.80329" stroke="black" stroke-width="0.0187817"/>
<path d="M13.4062 6.59164C13.4196 6.52699 13.4441 6.51584 13.4708 6.43337C13.4753 6.35312 13.4062 6.36203 13.4263 6.31076C13.4619 6.25503 13.4441 6.20153 13.3772 6.15918C13.3906 6.23274 13.2903 6.30185 13.2903 6.36203C13.2903 6.42222 13.3416 6.40885 13.3349 6.50024C13.3393 6.55374 13.3215 6.54037 13.317 6.59164L13.4062 6.59164Z" fill="url(#paint1_linear_149_2534)" stroke="black" stroke-width="0.0187817"/>
<path d="M13.8427 6.18994C13.8427 6.21825 13.8198 6.24121 13.7915 6.24121C13.7632 6.24121 13.7402 6.21825 13.7402 6.18994C13.7402 6.16163 13.7632 6.13867 13.7915 6.13867C13.8198 6.13867 13.8427 6.16163 13.8427 6.18994Z" fill="#FFC72C" stroke="black" stroke-width="0.0187817"/>
<path d="M13.5039 7.40126L13.7844 6.98926L14.0663 7.40212" stroke="#FFC72C" stroke-width="0.0375614"/>
<path d="M13.8409 7.24811C13.8409 7.27889 13.816 7.30384 13.7852 7.30384C13.7544 7.30384 13.7295 7.27889 13.7295 7.24811C13.7295 7.21734 13.7544 7.19238 13.7852 7.19238C13.816 7.19238 13.8409 7.21734 13.8409 7.24811Z" fill="#FFC72C" stroke="black" stroke-width="0.0187817"/>
<path d="M13.5568 7.70644L13.9917 7.70768C13.9917 7.70768 13.9985 7.65124 13.9463 7.61693C14.1741 7.58561 14.1149 7.38469 14.3057 7.3733C14.3427 7.37899 14.206 7.45872 14.206 7.45872C14.206 7.45872 14.091 7.53989 14.1434 7.58115C14.185 7.61392 14.2032 7.56123 14.2089 7.52136C14.2146 7.4815 14.3939 7.45587 14.3683 7.34198C14.3256 7.24802 14.075 7.40462 14.075 7.40462L13.8963 7.40363C13.8851 7.38356 13.8359 7.30311 13.785 7.30273C13.7246 7.30494 13.6821 7.40462 13.6821 7.40462H13.423H13.2778C13.2778 7.40462 13.2639 7.50836 13.4689 7.52829C13.5151 7.58857 13.5509 7.60542 13.591 7.62102C13.5642 7.64331 13.5567 7.67028 13.5568 7.70644Z" fill="#FFC72C" stroke="black" stroke-width="0.0187817"/>
<path d="M13.5881 7.61745L13.9504 7.61621Z" fill="#FFC72C"/>
<path d="M13.5881 7.61745L13.9504 7.61621" stroke="black" stroke-width="0.0187817"/>
<path d="M13.4221 7.4043C13.4221 7.4043 13.4511 7.57372 13.5848 7.61384Z" fill="#FFC72C"/>
<path d="M13.4221 7.4043C13.4221 7.4043 13.4511 7.57372 13.5848 7.61384" stroke="black" stroke-width="0.0187817"/>
<path d="M13.4001 7.40218C13.4135 7.33754 13.438 7.32639 13.4647 7.24391C13.4692 7.16366 13.4001 7.17258 13.4202 7.12131C13.4558 7.06558 13.438 7.01208 13.3711 6.96973C13.3845 7.04329 13.2842 7.11239 13.2842 7.17258C13.2842 7.23277 13.3355 7.21939 13.3288 7.31079C13.3332 7.36429 13.3154 7.35092 13.3109 7.40218L13.4001 7.40218Z" fill="url(#paint2_linear_149_2534)" stroke="black" stroke-width="0.0187817"/>
<path d="M13.8364 7.00049C13.8364 7.0288 13.8135 7.05175 13.7851 7.05175C13.7568 7.05175 13.7339 7.0288 13.7339 7.00049C13.7339 6.97218 13.7568 6.94922 13.7851 6.94922C13.8135 6.94922 13.8364 6.97218 13.8364 7.00049Z" fill="#FFC72C" stroke="black" stroke-width="0.0187817"/>
<path d="M14.0359 8.28017L14.3164 7.86816L14.5983 8.28103" stroke="#FFC72C" stroke-width="0.0375614"/>
<path d="M14.3727 8.12702C14.3727 8.15779 14.3477 8.18275 14.3169 8.18275C14.2862 8.18275 14.2612 8.15779 14.2612 8.12702C14.2612 8.09624 14.2862 8.07129 14.3169 8.07129C14.3477 8.07129 14.3727 8.09624 14.3727 8.12702Z" fill="#FFC72C" stroke="black" stroke-width="0.0187817"/>
<path d="M14.0886 8.58535L14.5235 8.58658C14.5235 8.58658 14.5303 8.53014 14.478 8.49584C14.7058 8.46452 14.6466 8.26359 14.8374 8.2522C14.8744 8.2579 14.7378 8.33763 14.7378 8.33763C14.7378 8.33763 14.6227 8.41879 14.6751 8.46006C14.7167 8.49282 14.7349 8.44013 14.7406 8.40027C14.7463 8.36041 14.9257 8.33478 14.9001 8.22089C14.8573 8.12692 14.6068 8.28352 14.6068 8.28352L14.428 8.28253C14.4169 8.26247 14.3676 8.18201 14.3167 8.18164C14.2564 8.18384 14.2138 8.28353 14.2138 8.28353H13.9547H13.8095C13.8095 8.28353 13.7957 8.38727 14.0007 8.4072C14.0468 8.46748 14.0826 8.48432 14.1227 8.49993C14.096 8.52222 14.0885 8.54919 14.0886 8.58535Z" fill="#FFC72C" stroke="black" stroke-width="0.0187817"/>
<path d="M14.1199 8.49733L14.4821 8.49609Z" fill="#FFC72C"/>
<path d="M14.1199 8.49733L14.4821 8.49609" stroke="black" stroke-width="0.0187817"/>
<path d="M13.9539 8.2832C13.9539 8.2832 13.9828 8.45262 14.1166 8.49275Z" fill="#FFC72C"/>
<path d="M13.9539 8.2832C13.9539 8.2832 13.9828 8.45262 14.1166 8.49275" stroke="black" stroke-width="0.0187817"/>
<path d="M13.9318 8.28109C13.9452 8.21645 13.9697 8.2053 13.9965 8.12282C14.0009 8.04257 13.9318 8.05149 13.9519 8.00022C13.9876 7.94449 13.9697 7.89099 13.9029 7.84863C13.9162 7.9222 13.8159 7.9913 13.8159 8.05149C13.8159 8.11167 13.8672 8.0983 13.8605 8.1897C13.865 8.24319 13.8471 8.22982 13.8427 8.28109L13.9318 8.28109Z" fill="url(#paint3_linear_149_2534)" stroke="black" stroke-width="0.0187817"/>
<path d="M14.3681 7.87939C14.3681 7.9077 14.3452 7.93066 14.3169 7.93066C14.2886 7.93066 14.2656 7.9077 14.2656 7.87939C14.2656 7.85108 14.2886 7.82812 14.3169 7.82812C14.3452 7.82812 14.3681 7.85108 14.3681 7.87939Z" fill="#FFC72C" stroke="black" stroke-width="0.0187817"/>
<path d="M13.4346 8.99794L13.7151 8.58594L13.997 8.9988" stroke="#FFC72C" stroke-width="0.0375614"/>
<path d="M13.7713 8.84479C13.7713 8.87557 13.7464 8.90052 13.7156 8.90052C13.6848 8.90052 13.6599 8.87557 13.6599 8.84479C13.6599 8.81402 13.6848 8.78906 13.7156 8.78906C13.7464 8.78906 13.7713 8.81402 13.7713 8.84479Z" fill="#FFC72C" stroke="black" stroke-width="0.0187817"/>
<path d="M13.4872 9.30312L13.9221 9.30436C13.9221 9.30436 13.929 9.24792 13.8767 9.21361C14.1045 9.18229 14.0453 8.98137 14.2361 8.96998C14.2731 8.97567 14.1364 9.0554 14.1364 9.0554C14.1364 9.0554 14.0214 9.13657 14.0738 9.17783C14.1154 9.2106 14.1336 9.15791 14.1393 9.11804C14.145 9.07818 14.3244 9.05255 14.2987 8.93866C14.256 8.8447 14.0055 9.0013 14.0055 9.0013L13.8267 9.00031C13.8156 8.98024 13.7663 8.89979 13.7154 8.89941C13.655 8.90162 13.6125 9.0013 13.6125 9.0013H13.3534H13.2082C13.2082 9.0013 13.1943 9.10504 13.3994 9.12497C13.4455 9.18525 13.4813 9.2021 13.5214 9.2177C13.4947 9.23999 13.4871 9.26696 13.4872 9.30312Z" fill="#FFC72C" stroke="black" stroke-width="0.0187817"/>
<path d="M13.5186 9.2151L13.8808 9.21387Z" fill="#FFC72C"/>
<path d="M13.5186 9.2151L13.8808 9.21387" stroke="black" stroke-width="0.0187817"/>
<path d="M13.3525 9.00098C13.3525 9.00098 13.3815 9.1704 13.5153 9.21052Z" fill="#FFC72C"/>
<path d="M13.3525 9.00098C13.3525 9.00098 13.3815 9.1704 13.5153 9.21052" stroke="black" stroke-width="0.0187817"/>
<path d="M13.3305 8.99886C13.3439 8.93422 13.3684 8.92307 13.3952 8.84059C13.3996 8.76034 13.3305 8.76926 13.3506 8.71799C13.3862 8.66226 13.3684 8.60876 13.3015 8.56641C13.3149 8.63997 13.2146 8.70907 13.2146 8.76926C13.2146 8.82945 13.2659 8.81607 13.2592 8.90747C13.2636 8.96097 13.2458 8.94759 13.2413 8.99886L13.3305 8.99886Z" fill="url(#paint4_linear_149_2534)" stroke="black" stroke-width="0.0187817"/>
<path d="M13.7668 8.59717C13.7668 8.62548 13.7439 8.64843 13.7156 8.64843C13.6872 8.64843 13.6643 8.62548 13.6643 8.59717C13.6643 8.56885 13.6872 8.5459 13.7156 8.5459C13.7439 8.5459 13.7668 8.56885 13.7668 8.59717Z" fill="#FFC72C" stroke="black" stroke-width="0.0187817"/>
<path d="M13.4504 9.84559L13.731 9.43359L14.0128 9.84646" stroke="#FFC72C" stroke-width="0.0375614"/>
<path d="M13.7872 9.69147C13.7872 9.72225 13.7623 9.7472 13.7315 9.7472C13.7007 9.7472 13.6758 9.72225 13.6758 9.69147C13.6758 9.6607 13.7007 9.63574 13.7315 9.63574C13.7623 9.63574 13.7872 9.6607 13.7872 9.69147Z" fill="#FFC72C" stroke="black" stroke-width="0.0187817"/>
<path d="M13.5031 10.1498L13.938 10.151C13.938 10.151 13.9448 10.0946 13.8926 10.0603C14.1204 10.029 14.0612 9.82805 14.252 9.81666C14.289 9.82235 14.1523 9.90208 14.1523 9.90208C14.1523 9.90208 14.0373 9.98325 14.0897 10.0245C14.1313 10.0573 14.1495 10.0046 14.1552 9.96472C14.1609 9.92486 14.3402 9.89923 14.3146 9.78534C14.2719 9.69138 14.0213 9.84798 14.0213 9.84798L13.8426 9.84699C13.8314 9.82692 13.7822 9.74647 13.7313 9.74609C13.6709 9.7483 13.6284 9.84798 13.6284 9.84798H13.3693H13.2241C13.2241 9.84798 13.2102 9.95172 13.4152 9.97165C13.4614 10.0319 13.4972 10.0488 13.5373 10.0644C13.5105 10.0867 13.503 10.1136 13.5031 10.1498Z" fill="#FFC72C" stroke="black" stroke-width="0.0187817"/>
<path d="M13.5344 10.0618L13.8967 10.0605Z" fill="#FFC72C"/>
<path d="M13.5344 10.0618L13.8967 10.0605" stroke="black" stroke-width="0.0187817"/>
<path d="M13.3687 9.84766C13.3687 9.84766 13.3976 10.0171 13.5314 10.0572Z" fill="#FFC72C"/>
<path d="M13.3687 9.84766C13.3687 9.84766 13.3976 10.0171 13.5314 10.0572" stroke="black" stroke-width="0.0187817"/>
<path d="M13.3461 9.84554C13.3595 9.7809 13.384 9.76975 13.4108 9.68727C13.4152 9.60702 13.3461 9.61594 13.3662 9.56467C13.4019 9.50894 13.384 9.45544 13.3172 9.41309C13.3305 9.48665 13.2302 9.55575 13.2302 9.61594C13.2302 9.67613 13.2815 9.66275 13.2748 9.75415C13.2793 9.80765 13.2614 9.79427 13.257 9.84554L13.3461 9.84554Z" fill="url(#paint5_linear_149_2534)" stroke="black" stroke-width="0.0187817"/>
<path d="M13.7827 9.44385C13.7827 9.47216 13.7597 9.49511 13.7314 9.49511C13.7031 9.49511 13.6802 9.47216 13.6802 9.44385C13.6802 9.41553 13.7031 9.39258 13.7314 9.39258C13.7597 9.39258 13.7827 9.41553 13.7827 9.44385Z" fill="#FFC72C" stroke="black" stroke-width="0.0187817"/>
<path d="M16.437 5.78309L16.7175 5.37109L16.9994 5.78396" stroke="#FFC72C" stroke-width="0.0375614"/>
<path d="M16.7738 5.62995C16.7738 5.66072 16.7488 5.68568 16.7181 5.68568C16.6873 5.68568 16.6623 5.66072 16.6624 5.62995C16.6623 5.59917 16.6873 5.57422 16.7181 5.57422C16.7488 5.57422 16.7738 5.59917 16.7738 5.62995Z" fill="#FFC72C" stroke="black" stroke-width="0.0187817"/>
<path d="M16.4897 6.08828L16.9246 6.08951C16.9246 6.08951 16.9314 6.03307 16.8792 5.99877C17.1069 5.96745 17.0478 5.76652 17.2385 5.75513C17.2756 5.76083 17.1389 5.84055 17.1389 5.84055C17.1389 5.84055 17.0239 5.92172 17.0762 5.96299C17.1178 5.99575 17.136 5.94306 17.1417 5.9032C17.1474 5.86333 17.3268 5.83771 17.3012 5.72382C17.2585 5.62985 17.0079 5.78645 17.0079 5.78645L16.8291 5.78546C16.818 5.7654 16.7687 5.68494 16.7178 5.68457C16.6575 5.68677 16.615 5.78646 16.615 5.78646H16.3559H16.2106C16.2106 5.78646 16.1968 5.8902 16.4018 5.91013C16.4479 5.97041 16.4837 5.98725 16.5239 6.00286C16.4971 6.02515 16.4896 6.05212 16.4897 6.08828Z" fill="#FFC72C" stroke="black" stroke-width="0.0187817"/>
<path d="M16.521 6.00026L16.8832 5.99902Z" fill="#FFC72C"/>
<path d="M16.521 6.00026L16.8832 5.99902" stroke="black" stroke-width="0.0187817"/>
<path d="M16.355 5.78613C16.355 5.78613 16.384 5.95555 16.5177 5.99568Z" fill="#FFC72C"/>
<path d="M16.355 5.78613C16.355 5.78613 16.384 5.95555 16.5177 5.99568" stroke="black" stroke-width="0.0187817"/>
<path d="M16.333 5.78402C16.3463 5.71938 16.3709 5.70823 16.3976 5.62575C16.4021 5.5455 16.333 5.55442 16.353 5.50315C16.3887 5.44742 16.3709 5.39392 16.304 5.35156C16.3174 5.42513 16.217 5.49423 16.217 5.55442C16.217 5.6146 16.2683 5.60123 16.2616 5.69263C16.2661 5.74612 16.2482 5.73275 16.2438 5.78402L16.333 5.78402Z" fill="url(#paint6_linear_149_2534)" stroke="black" stroke-width="0.0187817"/>
<path d="M16.7693 5.38232C16.7693 5.41063 16.7463 5.43359 16.718 5.43359C16.6897 5.43359 16.6667 5.41063 16.6667 5.38232C16.6667 5.35401 16.6897 5.33105 16.718 5.33105C16.7463 5.33105 16.7693 5.35401 16.7693 5.38232Z" fill="#FFC72C" stroke="black" stroke-width="0.0187817"/>
<path d="M16.4104 6.59071L16.6909 6.17871L16.9728 6.59157" stroke="#FFC72C" stroke-width="0.0375614"/>
<path d="M16.7472 6.43756C16.7472 6.46834 16.7222 6.49329 16.6915 6.49329C16.6607 6.49329 16.6357 6.46834 16.6357 6.43756C16.6357 6.40679 16.6607 6.38184 16.6915 6.38184C16.7222 6.38184 16.7472 6.40679 16.7472 6.43756Z" fill="#FFC72C" stroke="black" stroke-width="0.0187817"/>
<path d="M16.4631 6.89589L16.898 6.89713C16.898 6.89713 16.9048 6.84069 16.8525 6.80639C17.0803 6.77506 17.0212 6.57414 17.2119 6.56275C17.2489 6.56845 17.1123 6.64817 17.1123 6.64817C17.1123 6.64817 16.9972 6.72934 17.0496 6.77061C17.0912 6.80337 17.1094 6.75068 17.1151 6.71082C17.1208 6.67095 17.3002 6.64533 17.2746 6.53143C17.2319 6.43747 16.9813 6.59407 16.9813 6.59407L16.8025 6.59308C16.7914 6.57302 16.7421 6.49256 16.6912 6.49219C16.6309 6.49439 16.5884 6.59407 16.5884 6.59407H16.3292H16.184C16.184 6.59407 16.1702 6.69781 16.3752 6.71775C16.4213 6.77803 16.4571 6.79487 16.4972 6.81047C16.4705 6.83277 16.463 6.85974 16.4631 6.89589Z" fill="#FFC72C" stroke="black" stroke-width="0.0187817"/>
<path d="M16.4944 6.80787L16.8566 6.80664Z" fill="#FFC72C"/>
<path d="M16.4944 6.80787L16.8566 6.80664" stroke="black" stroke-width="0.0187817"/>
<path d="M16.3284 6.59375C16.3284 6.59375 16.3573 6.76317 16.4911 6.80329Z" fill="#FFC72C"/>
<path d="M16.3284 6.59375C16.3284 6.59375 16.3573 6.76317 16.4911 6.80329" stroke="black" stroke-width="0.0187817"/>
<path d="M16.3063 6.59164C16.3197 6.52699 16.3442 6.51584 16.371 6.43337C16.3755 6.35312 16.3063 6.36203 16.3264 6.31076C16.3621 6.25503 16.3442 6.20153 16.2774 6.15918C16.2907 6.23274 16.1904 6.30185 16.1904 6.36203C16.1904 6.42222 16.2417 6.40885 16.235 6.50024C16.2395 6.55374 16.2216 6.54037 16.2172 6.59164L16.3063 6.59164Z" fill="url(#paint7_linear_149_2534)" stroke="black" stroke-width="0.0187817"/>
<path d="M16.7426 6.18994C16.7427 6.21825 16.7197 6.24121 16.6914 6.24121C16.6631 6.24121 16.6401 6.21825 16.6401 6.18994C16.6401 6.16163 16.6631 6.13867 16.6914 6.13867C16.7197 6.13867 16.7427 6.16163 16.7426 6.18994Z" fill="#FFC72C" stroke="black" stroke-width="0.0187817"/>
<path d="M16.3745 7.41493L16.655 7.00293L16.9369 7.41579" stroke="#FFC72C" stroke-width="0.0375614"/>
<path d="M16.7115 7.26178C16.7115 7.29256 16.6866 7.31751 16.6558 7.31751C16.625 7.31751 16.6001 7.29256 16.6001 7.26178C16.6001 7.23101 16.625 7.20605 16.6558 7.20605C16.6866 7.20605 16.7115 7.23101 16.7115 7.26178Z" fill="#FFC72C" stroke="black" stroke-width="0.0187817"/>
<path d="M16.4274 7.72011L16.8623 7.72135C16.8623 7.72135 16.8691 7.66491 16.8169 7.6306C17.0447 7.59928 16.9855 7.39836 17.1763 7.38697C17.2133 7.39266 17.0766 7.47239 17.0766 7.47239C17.0766 7.47239 16.9616 7.55356 17.014 7.59483C17.0556 7.62759 17.0738 7.5749 17.0795 7.53503C17.0852 7.49517 17.2645 7.46954 17.2389 7.35565C17.1962 7.26169 16.9456 7.41829 16.9456 7.41829L16.7669 7.4173C16.7557 7.39724 16.7065 7.31678 16.6556 7.31641C16.5952 7.31861 16.5527 7.41829 16.5527 7.41829H16.2936H16.1484C16.1484 7.41829 16.1345 7.52203 16.3395 7.54196C16.3857 7.60225 16.4215 7.61909 16.4616 7.63469C16.4348 7.65699 16.4273 7.68395 16.4274 7.72011Z" fill="#FFC72C" stroke="black" stroke-width="0.0187817"/>
<path d="M16.4587 7.63209L16.821 7.63086Z" fill="#FFC72C"/>
<path d="M16.4587 7.63209L16.821 7.63086" stroke="black" stroke-width="0.0187817"/>
<path d="M16.2927 7.41797C16.2927 7.41797 16.3217 7.58739 16.4555 7.62751Z" fill="#FFC72C"/>
<path d="M16.2927 7.41797C16.2927 7.41797 16.3217 7.58739 16.4555 7.62751" stroke="black" stroke-width="0.0187817"/>
<path d="M16.2705 7.41586C16.2838 7.35121 16.3084 7.34006 16.3351 7.25758C16.3396 7.17734 16.2705 7.18625 16.2905 7.13498C16.3262 7.07925 16.3084 7.02575 16.2415 6.9834C16.2549 7.05696 16.1545 7.12607 16.1545 7.18625C16.1545 7.24644 16.2058 7.23306 16.1991 7.32446C16.2036 7.37796 16.1857 7.36459 16.1813 7.41586L16.2705 7.41586Z" fill="url(#paint8_linear_149_2534)" stroke="black" stroke-width="0.0187817"/>
<path d="M16.707 7.01416C16.707 7.04247 16.6841 7.06543 16.6557 7.06543C16.6274 7.06543 16.6045 7.04247 16.6045 7.01416C16.6045 6.98585 16.6274 6.96289 16.6557 6.96289C16.6841 6.96289 16.707 6.98585 16.707 7.01416Z" fill="#FFC72C" stroke="black" stroke-width="0.0187817"/>
<path d="M16.4146 8.22645L16.6951 7.81445L16.977 8.22732" stroke="#FFC72C" stroke-width="0.0375614"/>
<path d="M16.7513 8.07331C16.7513 8.10408 16.7264 8.12904 16.6956 8.12904C16.6648 8.12904 16.6399 8.10408 16.6399 8.07331C16.6399 8.04253 16.6648 8.01758 16.6956 8.01758C16.7264 8.01758 16.7513 8.04253 16.7513 8.07331Z" fill="#FFC72C" stroke="black" stroke-width="0.0187817"/>
<path d="M16.4672 8.53164L16.9021 8.53287C16.9021 8.53287 16.9089 8.47643 16.8567 8.44213C17.0845 8.41081 17.0253 8.20988 17.2161 8.19849C17.2531 8.20419 17.1164 8.28391 17.1164 8.28391C17.1164 8.28391 17.0014 8.36508 17.0538 8.40635C17.0954 8.43911 17.1136 8.38642 17.1193 8.34656C17.125 8.30669 17.3043 8.28107 17.2787 8.16718C17.236 8.07321 16.9854 8.22981 16.9854 8.22981L16.8067 8.22882C16.7955 8.20876 16.7463 8.1283 16.6954 8.12793C16.635 8.13013 16.5925 8.22981 16.5925 8.22981H16.3334H16.1882C16.1882 8.22981 16.1743 8.33356 16.3793 8.35349C16.4255 8.41377 16.4613 8.43061 16.5014 8.44622C16.4746 8.46851 16.4671 8.49548 16.4672 8.53164Z" fill="#FFC72C" stroke="black" stroke-width="0.0187817"/>
<path d="M16.4985 8.44362L16.8608 8.44238Z" fill="#FFC72C"/>
<path d="M16.4985 8.44362L16.8608 8.44238" stroke="black" stroke-width="0.0187817"/>
<path d="M16.3325 8.22949C16.3325 8.22949 16.3615 8.39891 16.4952 8.43904Z" fill="#FFC72C"/>
<path d="M16.3325 8.22949C16.3325 8.22949 16.3615 8.39891 16.4952 8.43904" stroke="black" stroke-width="0.0187817"/>
<path d="M16.3103 8.22738C16.3236 8.16274 16.3481 8.15159 16.3749 8.06911C16.3794 7.98886 16.3103 7.99777 16.3303 7.9465C16.366 7.89078 16.3481 7.83728 16.2813 7.79492C16.2946 7.86849 16.1943 7.93759 16.1943 7.99777C16.1943 8.05796 16.2456 8.04459 16.2389 8.13599C16.2434 8.18948 16.2255 8.17611 16.2211 8.22738L16.3103 8.22738Z" fill="url(#paint9_linear_149_2534)" stroke="black" stroke-width="0.0187817"/>
<path d="M16.7468 7.82568C16.7468 7.85399 16.7239 7.87695 16.6955 7.87695C16.6672 7.87695 16.6443 7.85399 16.6443 7.82568C16.6443 7.79737 16.6672 7.77441 16.6955 7.77441C16.7239 7.77441 16.7468 7.79737 16.7468 7.82568Z" fill="#FFC72C" stroke="black" stroke-width="0.0187817"/>
<path d="M16.4058 9.03798L16.6863 8.62598L16.9682 9.03884" stroke="#FFC72C" stroke-width="0.0375614"/>
<path d="M16.7425 8.88385C16.7425 8.91463 16.7176 8.93958 16.6868 8.93958C16.656 8.93958 16.6311 8.91463 16.6311 8.88385C16.6311 8.85308 16.656 8.82812 16.6868 8.82812C16.7176 8.82812 16.7425 8.85308 16.7425 8.88385Z" fill="#FFC72C" stroke="black" stroke-width="0.0187817"/>
<path d="M16.4584 9.34218L16.8933 9.34342C16.8933 9.34342 16.9001 9.28698 16.8479 9.25268C17.0757 9.22135 17.0165 9.02043 17.2073 9.00904C17.2443 9.01473 17.1076 9.09446 17.1076 9.09446C17.1076 9.09446 16.9926 9.17563 17.045 9.2169C17.0866 9.24966 17.1048 9.19697 17.1105 9.1571C17.1162 9.11724 17.2956 9.09162 17.2699 8.97772C17.2272 8.88376 16.9767 9.04036 16.9767 9.04036L16.7979 9.03937C16.7867 9.01931 16.7375 8.93885 16.6866 8.93848C16.6262 8.94068 16.5837 9.04036 16.5837 9.04036H16.3246H16.1794C16.1794 9.04036 16.1655 9.1441 16.3705 9.16403C16.4167 9.22432 16.4525 9.24116 16.4926 9.25676C16.4659 9.27906 16.4583 9.30602 16.4584 9.34218Z" fill="#FFC72C" stroke="black" stroke-width="0.0187817"/>
<path d="M16.4897 9.25416L16.852 9.25293Z" fill="#FFC72C"/>
<path d="M16.4897 9.25416L16.852 9.25293" stroke="black" stroke-width="0.0187817"/>
<path d="M16.324 9.04004C16.324 9.04004 16.353 9.20946 16.4867 9.24958Z" fill="#FFC72C"/>
<path d="M16.324 9.04004C16.324 9.04004 16.353 9.20946 16.4867 9.24958" stroke="black" stroke-width="0.0187817"/>
<path d="M16.3017 9.03793C16.3151 8.97328 16.3396 8.96213 16.3664 8.87965C16.3708 8.79941 16.3017 8.80832 16.3218 8.75705C16.3574 8.70132 16.3396 8.64782 16.2727 8.60547C16.2861 8.67903 16.1858 8.74814 16.1858 8.80832C16.1858 8.86851 16.2371 8.85514 16.2304 8.94653C16.2348 9.00003 16.217 8.98666 16.2125 9.03793L16.3017 9.03793Z" fill="url(#paint10_linear_149_2534)" stroke="black" stroke-width="0.0187817"/>
<path d="M16.738 8.63623C16.738 8.66454 16.7151 8.6875 16.6868 8.6875C16.6584 8.6875 16.6355 8.66454 16.6355 8.63623C16.6355 8.60792 16.6584 8.58496 16.6868 8.58496C16.7151 8.58496 16.738 8.60792 16.738 8.63623Z" fill="#FFC72C" stroke="black" stroke-width="0.0187817"/>
<path d="M16.4104 9.85341L16.6909 9.44141L16.9728 9.85427" stroke="#FFC72C" stroke-width="0.0375614"/>
<path d="M16.7472 9.69928C16.7472 9.73006 16.7222 9.75501 16.6915 9.75501C16.6607 9.75501 16.6357 9.73006 16.6357 9.69928C16.6357 9.66851 16.6607 9.64355 16.6915 9.64355C16.7222 9.64355 16.7472 9.66851 16.7472 9.69928Z" fill="#FFC72C" stroke="black" stroke-width="0.0187817"/>
<path d="M16.4631 10.1566L16.898 10.1579C16.898 10.1579 16.9048 10.1014 16.8525 10.0671C17.0803 10.0358 17.0212 9.83488 17.2119 9.82349C17.2489 9.82919 17.1123 9.90891 17.1123 9.90891C17.1123 9.90891 16.9972 9.99008 17.0496 10.0313C17.0912 10.0641 17.1094 10.0114 17.1151 9.97156C17.1208 9.93169 17.3002 9.90607 17.2746 9.79218C17.2319 9.69821 16.9813 9.85481 16.9813 9.85481L16.8025 9.85382C16.7914 9.83376 16.7421 9.7533 16.6912 9.75293C16.6309 9.75513 16.5884 9.85481 16.5884 9.85481H16.3292H16.184C16.184 9.85481 16.1702 9.95856 16.3752 9.97849C16.4213 10.0388 16.4571 10.0556 16.4972 10.0712C16.4705 10.0935 16.463 10.1205 16.4631 10.1566Z" fill="#FFC72C" stroke="black" stroke-width="0.0187817"/>
<path d="M16.4944 10.0696L16.8566 10.0684Z" fill="#FFC72C"/>
<path d="M16.4944 10.0696L16.8566 10.0684" stroke="black" stroke-width="0.0187817"/>
<path d="M16.3286 9.85547C16.3286 9.85547 16.3576 10.0249 16.4913 10.065Z" fill="#FFC72C"/>
<path d="M16.3286 9.85547C16.3286 9.85547 16.3576 10.0249 16.4913 10.065" stroke="black" stroke-width="0.0187817"/>
<path d="M16.3063 9.85336C16.3197 9.78871 16.3442 9.77756 16.371 9.69508C16.3755 9.61484 16.3063 9.62375 16.3264 9.57248C16.3621 9.51675 16.3442 9.46325 16.2774 9.4209C16.2907 9.49446 16.1904 9.56357 16.1904 9.62375C16.1904 9.68394 16.2417 9.67056 16.235 9.76196C16.2395 9.81546 16.2216 9.80209 16.2172 9.85336L16.3063 9.85336Z" fill="url(#paint11_linear_149_2534)" stroke="black" stroke-width="0.0187817"/>
<path d="M16.7426 9.45166C16.7427 9.47997 16.7197 9.50293 16.6914 9.50293C16.6631 9.50293 16.6401 9.47997 16.6401 9.45166C16.6401 9.42335 16.6631 9.40039 16.6914 9.40039C16.7197 9.40039 16.7427 9.42335 16.7426 9.45166Z" fill="#FFC72C" stroke="black" stroke-width="0.0187817"/>
<path d="M15.5368 10.2371C15.5368 10.2371 15.6503 10.4987 15.7795 10.338C15.9088 10.1772 15.8615 10.1078 15.8615 10.1078L15.5714 9.9502L15.4863 10.1299L15.5368 10.2371Z" fill="#FFC72C" stroke="black" stroke-width="0.0187817"/>
<path d="M15.7858 10.2022C15.7858 10.2022 15.8047 10.2054 15.8205 10.177C15.8363 10.1486 15.7858 10.136 15.7637 10.1045L15.7385 10.1549L15.7858 10.2022Z" fill="#FFC6B5" stroke="black" stroke-width="0.0187817"/>
<path d="M15.1303 10.1325L14.8749 10.2712C14.8749 10.2712 14.7488 10.2965 14.7394 10.2712C14.7299 10.246 14.7425 10.2239 14.8087 10.2208C14.8749 10.2176 15.0546 10.0537 15.0546 10.0537L15.1303 10.1325Z" fill="#FFC6B5" stroke="black" stroke-width="0.0187817"/>
<path d="M15.1333 5.59538C15.1333 5.59538 15.1397 5.65528 15.1428 5.6868C15.146 5.71833 15.0924 5.78453 15.0892 5.78138C15.0861 5.77823 15.0608 5.78453 15.064 5.80345C15.0671 5.82236 15.105 5.82867 15.105 5.82867C15.105 5.82867 15.0892 5.89487 15.105 5.89802C15.1207 5.90118 15.064 5.98314 15.105 6.00521C15.146 6.02728 15.2153 6.05565 15.2468 6.04934C15.2784 6.04304 15.2468 6.17229 15.2468 6.17229L15.1586 6.36144L15.6441 6.311L15.5432 6.15022C15.5432 6.15022 15.4959 6.1187 15.5085 6.02728C15.5211 5.93585 15.5022 5.52287 15.5022 5.52287L15.1554 5.47559L15.1333 5.59538Z" fill="#FFC6B5" stroke="black" stroke-width="0.0187817"/>
<path d="M15.045 6.31445C15.045 6.31445 14.8873 6.38696 14.8937 6.58242C14.8527 6.77157 14.8306 6.96072 14.8306 6.96072C14.8306 6.96072 14.6446 7.17194 14.5879 7.2476C14.5311 7.32326 14.446 7.47773 14.4145 7.51871C14.3829 7.5597 14.26 7.69526 14.2632 7.7457C14.2663 7.79613 14.2348 8.01997 14.3577 8.04518C14.3893 8.05779 14.4901 7.78668 14.4901 7.78668C14.4901 7.78668 14.4964 7.67004 14.4618 7.64797C14.4271 7.6259 14.5374 7.55024 14.5374 7.55024C14.5374 7.55024 14.7486 7.39576 14.7959 7.35794C14.8432 7.32011 14.9725 7.17509 14.9725 7.17509L15.045 6.31445Z" fill="#FFC6B5" stroke="black" stroke-width="0.0187817"/>
<path d="M15.2245 6.16726C15.2245 6.16726 15.2655 6.27759 15.3569 6.25868C15.4483 6.23976 15.5555 6.15465 15.5555 6.15465C15.5555 6.15465 15.6406 6.15149 15.6533 6.1641C15.6659 6.17671 15.8834 6.38793 15.8771 6.45413C15.8708 6.52034 15.7762 6.50142 15.7415 6.54556C15.7069 6.58969 15.6501 6.70003 15.6659 6.782C15.6816 6.86396 15.7289 6.97115 15.7226 7.01213C15.7163 7.05311 15.6816 7.06572 15.6816 7.08779C15.6816 7.10986 15.71 7.14769 15.71 7.18867C15.71 7.22966 15.6722 7.28955 15.6785 7.33054C15.6848 7.37152 15.6879 7.49131 15.6879 7.49131L15.6785 8.04616C15.6785 8.04616 15.71 8.06507 15.7132 8.0966C15.7163 8.12812 15.9275 9.0455 15.9275 9.0455C15.9275 9.0455 15.9181 9.07388 15.896 9.07072C15.8739 9.06757 15.9811 9.21258 15.9843 9.25357C15.9874 9.29455 16.0946 9.61611 16.0915 9.66024C16.0883 9.70438 16.0725 9.80211 16.0631 9.80526C16.0536 9.80841 16.1324 10.007 16.1198 10.0385C16.1072 10.0701 15.978 10.0669 15.978 10.0669L15.9433 10.0606C15.9433 10.0606 15.9464 10.1016 15.9212 10.1047C15.896 10.1079 15.71 10.0953 15.71 10.0953C15.71 10.0953 15.6564 10.1773 15.6249 10.1741C15.5934 10.1709 15.5524 10.1142 15.5429 10.1237C15.5335 10.1331 15.5713 10.1867 15.5618 10.2025C15.5524 10.2182 15.3916 10.2529 15.3601 10.1773C15.3285 10.1016 15.379 10.1205 15.3695 10.1047C15.3601 10.089 15.2876 10.048 15.2655 10.0606C15.2434 10.0732 15.3222 10.0921 15.3191 10.1237C15.3159 10.1552 15.2497 10.2025 15.2245 10.2025C15.1993 10.2025 15.1394 10.0858 15.0511 10.0984C14.9629 10.1111 14.9061 10.1331 14.9061 10.1331C14.9061 10.1331 14.8021 10.1773 14.7579 10.1678C14.7138 10.1583 14.6949 10.1237 14.6949 10.1047C14.6949 10.0858 14.7264 10.0039 14.7233 9.97865C14.7201 9.95343 14.6949 9.92821 14.6949 9.89037C14.6949 9.85255 14.7674 9.72329 14.7674 9.72329L14.7643 9.14323C14.7643 9.14323 14.698 9.14323 14.6949 9.10225C14.6917 9.06126 14.7958 8.18486 14.8115 8.12812C14.8273 8.07137 14.8683 7.86961 14.8683 7.86961C14.8683 7.86961 14.821 7.89168 14.8178 7.86961C14.8147 7.84755 14.9597 7.3463 14.9597 7.3463C14.9597 7.3463 14.9849 7.09725 14.9849 7.03104C14.9849 6.96484 14.9723 6.87342 14.9723 6.87342C14.9723 6.87342 14.8429 6.81863 14.8399 6.73471C14.8281 6.60119 14.9629 6.52664 14.9786 6.48251C14.9944 6.43837 15.0417 6.30597 15.0417 6.30597C15.0417 6.30597 15.111 6.18617 15.2245 6.16726Z" fill="white" stroke="black" stroke-width="0.0187817"/>
<path d="M15.1775 10.1706C15.1775 10.1706 14.8717 10.3313 14.8276 10.3439C14.7835 10.3566 14.7551 10.2904 14.7992 10.2777C14.8434 10.2651 14.9127 10.2588 14.9127 10.2588C14.9127 10.2588 14.8087 10.1769 14.8118 10.1737C14.815 10.1706 14.9537 10.1201 14.9569 10.1201C14.96 10.1201 15.001 10.2021 15.0294 10.1958C15.0577 10.1895 15.1397 10.1264 15.1397 10.1264C15.1397 10.1264 15.1838 10.1769 15.1775 10.1706Z" fill="#FFC72C" stroke="black" stroke-width="0.0187817"/>
<path d="M15.6082 10.2588C15.6371 10.296 15.6484 10.3607 15.7146 10.3229C15.7808 10.2851 15.6807 10.2148 15.6807 10.2148L15.6082 10.2588Z" fill="#FFC6B5" stroke="black" stroke-width="0.0187817"/>
<path d="M15.729 10.2526C15.729 10.2526 15.7605 10.2778 15.7889 10.2494C15.8173 10.221 15.7321 10.1611 15.7321 10.1611L15.6912 10.2084L15.729 10.2526Z" fill="#FFC6B5" stroke="black" stroke-width="0.0187817"/>
<path d="M15.8646 6.46875C15.8678 6.46875 15.9687 6.78085 15.9813 6.85966C15.9939 6.93847 16.0349 7.25373 16.0191 7.29786C16.0033 7.342 15.8426 7.55321 15.8236 7.60681C15.8047 7.6604 15.6912 7.86532 15.6912 7.86532C15.6912 7.86532 15.6629 8.06708 15.6503 8.07653C15.6376 8.08599 15.6828 8.13551 15.6786 8.15219C15.6724 8.17096 15.5872 8.25938 15.5494 8.24992C15.5115 8.24046 15.4516 8.19633 15.4485 8.15535C15.4453 8.11437 15.4516 7.97881 15.48 7.94413C15.5084 7.90945 15.6566 7.55952 15.666 7.53745C15.6755 7.51539 15.8016 7.24112 15.8047 7.19383C15.8079 7.14654 15.7655 7.03719 15.7209 6.99707C15.6217 6.70505 15.6607 6.52894 15.8646 6.46875Z" fill="#FFC6B5" stroke="black" stroke-width="0.0187817"/>
<path d="M15.1239 5.57721C15.1239 5.57721 15.1933 5.58666 15.2311 5.5646C15.269 5.54253 15.3131 5.53308 15.3446 5.57721C15.3762 5.62134 15.3982 5.61819 15.3982 5.61819C15.3982 5.61819 15.3509 5.73483 15.3982 5.74744C15.4455 5.76006 15.4676 5.76005 15.4707 5.77582C15.4739 5.79158 15.4297 5.82626 15.4424 5.84202C15.455 5.85778 15.477 5.8767 15.4802 5.88931C15.4833 5.90192 15.4518 5.95551 15.4613 5.96812C15.4707 5.98073 15.4991 6.03117 15.518 6.03117C15.5369 6.03117 15.5243 6.10999 15.5811 6.09107C15.6378 6.07215 15.6347 6.02171 15.6347 6.02171C15.6347 6.02171 15.6946 6.01226 15.7103 5.95866C15.7261 5.90507 15.7639 5.89246 15.7639 5.89246C15.7639 5.89246 15.8396 5.85148 15.7387 5.78843C15.7387 5.34708 15.4487 5.39436 15.4487 5.39436C15.4487 5.39436 15.414 5.31555 15.3572 5.32501C15.3005 5.33447 15.2973 5.40067 15.2564 5.39436C15.2154 5.38806 15.2059 5.35969 15.2028 5.36284C15.1996 5.36599 15.1649 5.42904 15.1649 5.4448C15.1649 5.46057 15.0546 5.42273 15.0641 5.5047C15.0735 5.58667 15.1271 5.58351 15.1239 5.57721Z" fill="#9C5100" stroke="black" stroke-width="0.0187817"/>
<path d="M15.6345 6.29004C15.6345 6.29004 15.3539 6.46973 15.3602 6.53278" stroke="black" stroke-width="0.0187817"/>
<path d="M15.6975 6.32031C15.6975 6.32031 15.6345 6.38967 15.6313 6.38967" stroke="black" stroke-width="0.0187817"/>
<path d="M15.7826 6.39648C15.7826 6.39648 15.6439 6.50998 15.666 6.58248" stroke="black" stroke-width="0.0187817"/>
<path d="M15.1269 6.27441C15.1269 6.27441 15.086 6.35953 15.0954 6.3879C15.1049 6.41628 15.1742 6.52346 15.1837 6.58967C15.1931 6.65587 15.1837 6.70316 15.1837 6.70316" stroke="black" stroke-width="0.0187817"/>
<path d="M15.0544 6.43164C15.0544 6.43164 15.0671 6.53252 15.086 6.55144C15.1049 6.57035 15.1553 6.65547 15.1616 6.69015" stroke="black" stroke-width="0.0187817"/>
<path d="M15.0293 6.85102C15.0293 6.85102 15.1113 6.892 15.1869 6.73438" stroke="black" stroke-width="0.0187817"/>
<path d="M15.3097 6.62305C15.3066 6.62305 15.2499 6.77752 15.3507 6.83426C15.4516 6.89101 15.5273 6.8847 15.5714 6.86894C15.6155 6.85318 15.6628 6.82481 15.6628 6.82481" stroke="black" stroke-width="0.0187817"/>
<path d="M15.2656 6.8125C15.2656 6.8125 15.2719 7.02057 15.5777 7.22548" stroke="black" stroke-width="0.0187817"/>
<path d="M15.2781 7.00781C15.2781 7.00781 15.2749 7.19066 15.3947 7.27262" stroke="black" stroke-width="0.0187817"/>
<path d="M15.2152 6.79395C15.2152 6.79395 15.1238 7.06506 15.0513 7.09343" stroke="black" stroke-width="0.0187817"/>
<path d="M15.1868 6.99219C15.1868 6.99219 15.1837 7.18764 15.1584 7.257" stroke="black" stroke-width="0.0187817"/>
<path d="M15.1333 7.30427C15.1333 7.30427 15.1964 7.38309 15.2657 7.37678C15.3351 7.37048 15.3634 7.28851 15.4107 7.30112C15.458 7.31373 15.5021 7.35156 15.6125 7.34211" stroke="black" stroke-width="0.0187817"/>
<path d="M15.4548 7.42383C15.4548 7.42383 15.4548 7.58461 15.4832 7.60037C15.5116 7.61613 15.499 7.7643 15.499 7.7643" stroke="black" stroke-width="0.0187817"/>
<path d="M15.07 7.34863C15.07 7.34863 15.0669 7.49996 15.048 7.55355C15.0291 7.60714 14.9912 7.69856 14.9975 7.77738" stroke="black" stroke-width="0.0187817"/>
<path d="M14.8779 7.86511C14.8937 7.85881 14.9473 7.81152 14.9473 7.81152" stroke="black" stroke-width="0.0187817"/>
<path d="M14.9757 7.84668C14.9757 7.84668 14.8402 8.42674 14.878 8.77352" stroke="black" stroke-width="0.0187817"/>
<path d="M15.007 7.875C15.007 7.875 14.9376 8.31005 14.9692 8.39201" stroke="black" stroke-width="0.0187817"/>
<path d="M14.9727 7.8623C14.9758 7.8623 15.2375 7.88122 15.2375 7.88122" stroke="black" stroke-width="0.0187817"/>
<path d="M15.2751 7.84668C15.2751 7.84668 15.3477 7.88451 15.4485 7.8782" stroke="black" stroke-width="0.0187817"/>
<path d="M15.2437 8.05762C15.2437 8.05762 15.2311 8.80161 15.2122 8.96554" stroke="black" stroke-width="0.0187817"/>
<path d="M15.6313 8.22754C15.6313 8.22754 15.7133 8.88011 15.7606 8.94001" stroke="black" stroke-width="0.0187817"/>
<path d="M15.4736 8.31055C15.4736 8.31055 15.5241 8.88746 15.5524 8.9379" stroke="black" stroke-width="0.0187817"/>
<path d="M14.7581 9.13885C14.7581 9.13885 14.8558 9.10732 14.9441 9.01275C15.0449 9.14831 15.1994 9.01906 15.1994 9.01906C15.1994 9.01906 15.439 9.18298 15.5462 9.00014C15.7101 9.10732 15.7921 8.98438 15.7921 8.98438C15.7921 8.98438 15.852 9.0758 15.8961 9.06634" stroke="black" stroke-width="0.0187817"/>
<path d="M15.6345 9.12988C15.6345 9.12988 15.7575 9.7068 15.9403 9.87073" stroke="black" stroke-width="0.0187817"/>
<path d="M15.001 9.07031C15.001 9.07031 15.0167 9.55265 15.0451 9.89312" stroke="black" stroke-width="0.0187817"/>
<path d="M14.9788 9.61523C14.9788 9.61523 14.963 9.93049 14.9441 9.95255" stroke="black" stroke-width="0.0187817"/>
<path d="M14.7927 9.98341C14.7927 9.98341 14.8274 10.119 15.0008 9.99287C15.1742 9.86677 15.1773 10.0402 15.1836 10.0591C15.1899 10.078 15.2183 10.2135 15.2845 10.1001" stroke="black" stroke-width="0.0187817"/>
<path d="M15.4233 9.91439C15.4233 9.91439 15.395 10.195 15.644 9.99005C15.8931 9.78514 15.934 9.9869 15.9404 10.0499" stroke="black" stroke-width="0.0187817"/>
<path d="M15.4265 5.46973C15.4265 5.46973 15.4044 5.60844 15.5526 5.59583C15.5336 5.67149 15.5904 5.69671 15.5904 5.69671" stroke="black" stroke-width="0.0187817"/>
<path d="M15.7007 5.78125C15.7038 5.78125 15.7669 5.82223 15.6975 5.87267" stroke="black" stroke-width="0.0187817"/>
<path d="M15.4863 5.89258C15.4863 5.89258 15.5178 5.93041 15.5525 5.92095C15.5872 5.9115 15.644 5.95563 15.644 5.95563C15.644 5.95563 15.6912 5.97139 15.6975 5.96194" stroke="black" stroke-width="0.0187817"/>
<path d="M15.2939 6.01207C15.2939 6.01207 15.4011 6.05305 15.4705 5.88281" stroke="black" stroke-width="0.0187817"/>
<path d="M15.0955 5.83203L15.1585 5.83518" stroke="black" stroke-width="0.0187817"/>
<path d="M14.396 7.82031L14.4009 7.95847" stroke="black" stroke-width="0.0187817"/>
<path d="M14.2664 7.81055C14.2664 7.81055 14.3549 7.95868 14.3475 8.03763" stroke="black" stroke-width="0.0187817"/>
<path d="M15.105 5.89551H15.1617L15.1113 5.91758" stroke="black" stroke-width="0.0187817" stroke-linejoin="round"/>
<path d="M15.4536 8.12002C15.4536 8.12002 15.5198 8.11306 15.5178 8.22363C15.56 8.08627 15.646 8.08301 15.646 8.08301" stroke="black" stroke-width="0.0187817" stroke-linejoin="round"/>
<path d="M15.1838 5.71858C15.1933 5.71858 15.228 5.70597 15.2343 5.71543C15.2406 5.72489 15.1964 5.7312 15.1838 5.71858Z" stroke="black" stroke-width="0.0338059" stroke-linejoin="round"/>
<path d="M15.2276 11.2789C16.559 11.2419 17.4188 10.2803 17.4096 10.2711C17.4004 10.2618 17.5853 10.003 17.7332 10.0399C17.8811 10.0769 18.0938 10.5115 18.3527 10.6039C18.4821 10.8073 18.3157 10.9923 18.2602 11.0292C18.2048 11.0662 17.9551 11.1679 17.9181 11.02C17.8812 10.8721 17.8072 10.8998 17.8072 10.8998C17.8072 10.8998 16.6237 12.0555 15.2553 12.0093C13.8407 12.0186 12.6757 10.8998 12.6757 10.8998L12.574 11.0108C12.574 11.0108 12.4631 11.131 12.4076 11.1217C12.3521 11.1125 12.1117 10.9553 12.0932 10.7981C12.0747 10.6409 12.2412 10.5392 12.2412 10.5392C12.2412 10.5392 12.648 10.2249 12.6942 10.0584C12.7867 9.96597 12.9623 10.1231 12.9623 10.1231C12.9623 10.1231 14.0348 11.3529 15.2276 11.2789Z" fill="#FFC72C" stroke="black" stroke-width="0.0375614"/>
<path d="M12.2136 10.5639C12.2136 10.5639 12.3236 10.5346 12.364 10.5804C12.4043 10.6263 12.6812 10.8977 12.6812 10.8977" stroke="black" stroke-width="0.0375614"/>
<path d="M12.4648 10.6924L12.3547 10.7749C12.3547 10.7749 12.6316 10.8299 12.5693 11.0114" stroke="black" stroke-width="0.0375614"/>
<path d="M18.2534 10.5545C18.2534 10.5545 18.1984 10.5252 18.1122 10.5894C18.0261 10.6536 17.8079 10.8974 17.8079 10.8974" stroke="black" stroke-width="0.0375614"/>
<path d="M18.006 10.6846L18.1251 10.7763C18.1251 10.7763 17.8758 10.7928 17.9308 11.0293" stroke="black" stroke-width="0.0375614"/>
<path d="M13.6225 10.8566C13.6153 10.8776 13.5962 10.8561 13.5804 10.8603C13.5387 10.8619 13.5041 10.889 13.4684 10.9076C13.3463 10.9788 13.2242 11.05 13.102 11.1212C13.0897 11.1171 13.0926 11.1072 13.0956 11.0972C13.1282 10.9447 13.162 10.7924 13.1937 10.6397C13.1989 10.613 13.2074 10.5798 13.1816 10.5604C13.1706 10.5529 13.1876 10.5377 13.1946 10.5515C13.2571 10.596 13.3195 10.6405 13.3819 10.685C13.3759 10.7026 13.3653 10.6903 13.3546 10.6832C13.3287 10.6582 13.2974 10.6813 13.2982 10.7128C13.2759 10.8133 13.2542 10.914 13.2321 11.0146C13.315 10.9653 13.3989 10.9176 13.481 10.8671C13.5104 10.854 13.532 10.8147 13.5015 10.7903C13.4899 10.7835 13.4708 10.7649 13.4899 10.762C13.5341 10.7936 13.5783 10.8251 13.6225 10.8566Z" fill="black"/>
<path d="M13.7541 11.493C13.7508 11.5043 13.7449 11.5068 13.7358 11.4987C13.6623 11.4585 13.5888 11.4183 13.5154 11.3781C13.5187 11.3667 13.5247 11.3642 13.5337 11.3724C13.5536 11.386 13.5862 11.3911 13.6007 11.3674C13.6298 11.3206 13.6544 11.2711 13.6815 11.223C13.7182 11.1549 13.7565 11.0877 13.7921 11.019C13.8091 10.9947 13.7901 10.9647 13.7663 10.9543C13.7582 10.95 13.7463 10.9468 13.7565 10.9372C13.7614 10.9311 13.7719 10.944 13.779 10.9456C13.8495 10.9841 13.9199 11.0226 13.9903 11.0611C13.987 11.0725 13.981 11.075 13.972 11.0668C13.952 11.0533 13.9194 11.0481 13.9047 11.0717C13.8755 11.1185 13.8509 11.168 13.8239 11.2161C13.7872 11.2841 13.7489 11.3514 13.7133 11.42C13.6962 11.4445 13.7152 11.4747 13.7394 11.4849C13.7443 11.4876 13.7492 11.4903 13.7541 11.493Z" fill="black"/>
<path d="M14.6022 11.2941C14.5823 11.3501 14.5623 11.4061 14.5424 11.4621C14.5179 11.4595 14.5342 11.4281 14.5265 11.4116C14.5178 11.3359 14.462 11.2653 14.386 11.2491C14.3279 11.2333 14.2666 11.2632 14.2325 11.3105C14.1809 11.3809 14.1496 11.4668 14.1452 11.554C14.1422 11.6035 14.165 11.6544 14.2082 11.6805C14.2426 11.7031 14.2842 11.7122 14.325 11.7111C14.3393 11.6687 14.3565 11.6272 14.3685 11.5841C14.3734 11.556 14.3444 11.5391 14.3212 11.5327C14.3176 11.5245 14.3266 11.5145 14.336 11.5233C14.4093 11.5494 14.4825 11.5754 14.5557 11.6015C14.5531 11.6285 14.5225 11.5994 14.5056 11.6101C14.4786 11.6205 14.4762 11.6531 14.466 11.6766C14.457 11.7017 14.4481 11.7267 14.4392 11.7518C14.3408 11.7587 14.2393 11.7379 14.1537 11.6883C14.0704 11.6359 14.014 11.5345 14.0304 11.4351C14.0431 11.3501 14.0961 11.2704 14.1746 11.2328C14.2466 11.1946 14.3345 11.1947 14.4093 11.225C14.4502 11.2388 14.4855 11.2641 14.5172 11.2929C14.5364 11.3188 14.5735 11.3188 14.5892 11.2894C14.5936 11.291 14.5979 11.2925 14.6022 11.2941Z" fill="black"/>
<path d="M14.9595 11.8671C14.959 11.876 14.958 11.8842 14.9473 11.8792C14.8635 11.8665 14.7796 11.8538 14.6958 11.8411C14.6962 11.8322 14.6972 11.824 14.7079 11.829C14.7297 11.8334 14.759 11.8331 14.7695 11.8095C14.7801 11.776 14.7823 11.7404 14.7884 11.7058C14.8028 11.6091 14.8182 11.5126 14.8319 11.4159C14.8372 11.395 14.8301 11.3714 14.8085 11.3633C14.7963 11.3575 14.7827 11.3567 14.7695 11.3545C14.77 11.3455 14.771 11.3373 14.7817 11.3423C14.8655 11.355 14.9493 11.3677 15.0332 11.3804C15.0327 11.3894 15.0317 11.3975 15.021 11.3926C14.9991 11.388 14.97 11.3886 14.9591 11.4119C14.9485 11.4455 14.9463 11.4811 14.9402 11.5157C14.9258 11.6124 14.9105 11.7089 14.8967 11.8056C14.8914 11.8264 14.8986 11.8505 14.9203 11.8584C14.9326 11.864 14.9463 11.8649 14.9595 11.8671Z" fill="black"/>
<path d="M15.6384 11.7026C15.6351 11.7621 15.6318 11.8215 15.6285 11.881C15.4789 11.8886 15.3293 11.8962 15.1798 11.9039C15.177 11.8929 15.1799 11.8871 15.1918 11.8894C15.2144 11.89 15.2434 11.8804 15.2463 11.8546C15.2483 11.8102 15.2433 11.7659 15.2418 11.7216C15.237 11.6332 15.2335 11.5447 15.2277 11.4564C15.2302 11.4301 15.2065 11.4106 15.1815 11.4114C15.1736 11.4074 15.1522 11.4197 15.1543 11.4052C15.1507 11.3935 15.167 11.3997 15.1738 11.3975C15.257 11.3933 15.3402 11.389 15.4234 11.3848C15.4262 11.3957 15.4233 11.4015 15.4114 11.3992C15.3883 11.3991 15.3583 11.4047 15.352 11.4307C15.3483 11.4691 15.3537 11.5076 15.3547 11.5461C15.3597 11.6381 15.3633 11.7303 15.3694 11.8222C15.3675 11.8463 15.3869 11.8676 15.4118 11.863C15.4482 11.8612 15.4854 11.8627 15.521 11.8536C15.5709 11.8403 15.5981 11.7909 15.6118 11.7447C15.6207 11.7322 15.6133 11.7011 15.6331 11.7029C15.6349 11.7028 15.6366 11.7027 15.6384 11.7026Z" fill="black"/>
<path d="M15.9883 11.2715C15.9765 11.2717 15.9817 11.2869 15.9787 11.2948C15.9588 11.4436 15.94 11.5926 15.9194 11.7413C15.9144 11.7742 15.9062 11.8127 15.8737 11.8294C15.8617 11.8336 15.8723 11.8525 15.8833 11.842C15.9332 11.827 15.9832 11.812 16.0331 11.797C16.0312 11.7718 16.0025 11.7947 15.9864 11.7903C15.952 11.7902 15.9469 11.7485 15.9517 11.7224C15.9537 11.7048 15.9558 11.6871 15.9579 11.6695C16.0151 11.6523 16.0723 11.6351 16.1295 11.6179C16.1514 11.6455 16.1756 11.6715 16.1954 11.7006C16.2103 11.7286 16.1741 11.7415 16.1531 11.7469C16.1433 11.7479 16.1519 11.7685 16.1608 11.7589C16.236 11.7364 16.3112 11.7138 16.3864 11.6913C16.3857 11.6658 16.353 11.6897 16.3392 11.6727C16.297 11.6409 16.2667 11.5968 16.2318 11.5577C16.1506 11.4623 16.0695 11.3669 15.9883 11.2715ZM15.9871 11.45C16.0277 11.4985 16.0684 11.547 16.109 11.5955C16.0603 11.61 16.0116 11.6245 15.9628 11.6391C15.9709 11.576 15.979 11.513 15.9871 11.45Z" fill="black"/>
<path d="M16.7558 10.9355C16.7774 10.9758 16.799 11.016 16.8206 11.0562C16.8005 11.0735 16.79 11.0333 16.7717 11.0272C16.7417 11.0019 16.6965 10.9972 16.6631 11.0186C16.6494 11.0257 16.6359 11.0331 16.6223 11.0404C16.6875 11.1611 16.7519 11.2824 16.8177 11.4028C16.8278 11.4337 16.8658 11.4395 16.8903 11.4221C16.8997 11.4152 16.9083 11.4113 16.9113 11.4258C16.8783 11.445 16.8421 11.4633 16.8078 11.4821C16.7646 11.5053 16.7214 11.5285 16.6782 11.5518C16.6681 11.5412 16.6749 11.5358 16.6863 11.5317C16.717 11.5203 16.7288 11.4831 16.7083 11.4569C16.6445 11.3369 16.5797 11.2175 16.5155 11.0978C16.4798 11.1176 16.4341 11.1354 16.4251 11.18C16.4149 11.2081 16.4299 11.2424 16.4299 11.2663C16.4189 11.2777 16.416 11.2621 16.4109 11.2539C16.3924 11.2195 16.3739 11.1851 16.3555 11.1508C16.4889 11.079 16.6224 11.0073 16.7558 10.9355Z" fill="black"/>
<path d="M17.0593 10.7559C17.1006 10.8107 17.142 10.8655 17.1833 10.9203C17.2121 10.902 17.2361 10.8694 17.2275 10.8337C17.2308 10.8058 17.1909 10.7742 17.2046 10.7547C17.2136 10.7491 17.219 10.7699 17.2264 10.7754C17.2736 10.838 17.3209 10.9006 17.3681 10.9632C17.3496 10.9843 17.3362 10.9414 17.3167 10.9368C17.2891 10.9171 17.2503 10.9074 17.2207 10.9289C17.1986 10.9359 17.1997 10.9483 17.2147 10.9619C17.248 11.0048 17.2788 11.0497 17.3143 11.0908C17.336 11.1119 17.363 11.0898 17.3814 11.0752C17.4289 11.0428 17.4706 10.9923 17.4682 10.9317C17.4713 10.9052 17.4547 10.8757 17.4549 10.8534C17.4655 10.8392 17.4685 10.8612 17.4746 10.8684C17.4969 10.9087 17.5193 10.9491 17.5416 10.9894C17.4252 11.0772 17.3088 11.165 17.1924 11.2528C17.1773 11.242 17.1922 11.2357 17.2018 11.2283C17.2344 11.2082 17.224 11.167 17.2 11.1445C17.1254 11.0462 17.0521 10.9469 16.9766 10.8494C16.9572 10.8232 16.9216 10.837 16.902 10.8553C16.894 10.8668 16.8813 10.8438 16.8966 10.8421C17.0064 10.7593 17.1161 10.6765 17.2259 10.5938C17.2559 10.6336 17.2859 10.6734 17.316 10.7132C17.2951 10.7344 17.2766 10.6872 17.2528 10.6847C17.2095 10.6622 17.1581 10.6804 17.1224 10.7088C17.101 10.724 17.0803 10.7402 17.0593 10.7559Z" fill="black"/>
<defs>
<linearGradient id="paint0_linear_149_2534" x1="13.361" y1="5.64629" x2="13.1339" y2="5.61281" gradientUnits="userSpaceOnUse">
<stop stop-color="#FF0000"/>
<stop offset="1" stop-color="#FFFF00"/>
</linearGradient>
<linearGradient id="paint1_linear_149_2534" x1="13.3458" y1="6.46758" x2="13.1187" y2="6.4341" gradientUnits="userSpaceOnUse">
<stop stop-color="#FF0000"/>
<stop offset="1" stop-color="#FFFF00"/>
</linearGradient>
<linearGradient id="paint2_linear_149_2534" x1="13.3397" y1="7.27813" x2="13.1126" y2="7.24464" gradientUnits="userSpaceOnUse">
<stop stop-color="#FF0000"/>
<stop offset="1" stop-color="#FFFF00"/>
</linearGradient>
<linearGradient id="paint3_linear_149_2534" x1="13.8715" y1="8.15704" x2="13.6444" y2="8.12355" gradientUnits="userSpaceOnUse">
<stop stop-color="#FF0000"/>
<stop offset="1" stop-color="#FFFF00"/>
</linearGradient>
<linearGradient id="paint4_linear_149_2534" x1="13.2701" y1="8.87481" x2="13.0431" y2="8.84132" gradientUnits="userSpaceOnUse">
<stop stop-color="#FF0000"/>
<stop offset="1" stop-color="#FFFF00"/>
</linearGradient>
<linearGradient id="paint5_linear_149_2534" x1="13.2858" y1="9.72149" x2="13.0587" y2="9.688" gradientUnits="userSpaceOnUse">
<stop stop-color="#FF0000"/>
<stop offset="1" stop-color="#FFFF00"/>
</linearGradient>
<linearGradient id="paint6_linear_149_2534" x1="16.2726" y1="5.65997" x2="16.0455" y2="5.62648" gradientUnits="userSpaceOnUse">
<stop stop-color="#FF0000"/>
<stop offset="1" stop-color="#FFFF00"/>
</linearGradient>
<linearGradient id="paint7_linear_149_2534" x1="16.246" y1="6.46758" x2="16.0189" y2="6.4341" gradientUnits="userSpaceOnUse">
<stop stop-color="#FF0000"/>
<stop offset="1" stop-color="#FFFF00"/>
</linearGradient>
<linearGradient id="paint8_linear_149_2534" x1="16.2101" y1="7.2918" x2="15.983" y2="7.25832" gradientUnits="userSpaceOnUse">
<stop stop-color="#FF0000"/>
<stop offset="1" stop-color="#FFFF00"/>
</linearGradient>
<linearGradient id="paint9_linear_149_2534" x1="16.2499" y1="8.10333" x2="16.0228" y2="8.06984" gradientUnits="userSpaceOnUse">
<stop stop-color="#FF0000"/>
<stop offset="1" stop-color="#FFFF00"/>
</linearGradient>
<linearGradient id="paint10_linear_149_2534" x1="16.2413" y1="8.91387" x2="16.0142" y2="8.88039" gradientUnits="userSpaceOnUse">
<stop stop-color="#FF0000"/>
<stop offset="1" stop-color="#FFFF00"/>
</linearGradient>
<linearGradient id="paint11_linear_149_2534" x1="16.246" y1="9.7293" x2="16.0189" y2="9.69582" gradientUnits="userSpaceOnUse">
<stop stop-color="#FF0000"/>
<stop offset="1" stop-color="#FFFF00"/>
</linearGradient>
<clipPath id="clip0_149_2534">
<path d="M0 1.6C0 0.716345 0.716345 0 1.6 0H11.2V6.4C11.2 7.28366 10.4837 8 9.6 8H0V1.6Z" fill="white"/>
</clipPath>
</defs>
</svg>
