<svg width="21" height="15" viewBox="0 0 21 15" fill="none" xmlns="http://www.w3.org/2000/svg">
<g clip-path="url(#clip0_149_2589)">
<rect width="21" height="15" rx="3" fill="#CE1126"/>
<path d="M14.9883 7.49121L13.4971 6H16.4795L14.9883 7.49121ZM14.4912 7.98828L13 6.49707V9.47949L14.4912 7.98828ZM14.9883 8.48535L13.4971 9.97656H16.4795L14.9883 8.48535ZM15.4854 7.98828L16.9766 6.49707V9.47949L15.4854 7.98828Z" fill="white"/>
<g clip-path="url(#clip1_149_2589)">
<path d="M0 0.6C0 -0.283655 0.716345 -1 1.6 -1H11.2V5.4C11.2 6.28366 10.4837 7 9.6 7H0V0.6Z" fill="white"/>
<path fill-rule="evenodd" clip-rule="evenodd" d="M7.46655 -1H11.1999V7H7.46655V-1Z" fill="#F93939"/>
<path fill-rule="evenodd" clip-rule="evenodd" d="M0 -1H3.73333V7H0V-1Z" fill="#1A47B8"/>
</g>
<path d="M1.6 -0.95H11.15V5.4C11.15 6.25604 10.456 6.95 9.6 6.95H0.05V0.6C0.05 -0.256041 0.743959 -0.95 1.6 -0.95Z" stroke="white" stroke-width="0.1"/>
</g>
<defs>
<clipPath id="clip0_149_2589">
<rect width="21" height="15" rx="3" fill="white"/>
</clipPath>
<clipPath id="clip1_149_2589">
<path d="M0 0.6C0 -0.283655 0.716345 -1 1.6 -1H11.2V5.4C11.2 6.28366 10.4837 7 9.6 7H0V0.6Z" fill="white"/>
</clipPath>
</defs>
</svg>
