<svg width="21" height="15" viewBox="0 0 21 15" fill="none" xmlns="http://www.w3.org/2000/svg">
<rect x="0.5" y="0.5" width="20" height="14" rx="2.5" fill="white"/>
<path d="M6.09253 3.93487V2.53608H6.54865L6.84696 3.6006L7.14119 2.53608H7.59934V3.93487H7.3102V2.80672L7.00578 3.93487H6.69017L6.38167 2.80672V3.93487H6.09253ZM8.47085 2.81622L8.26316 3.41163H8.67957L8.47085 2.81622ZM8.29166 2.53608H8.64801L9.18863 3.93487H8.86487L8.76305 3.64713H8.18171L8.08295 3.93487H7.75817L8.29166 2.53608ZM10.0133 3.93487H9.70482V3.41353L9.16012 2.53608H9.53785L9.85855 3.13909L10.1548 2.53608H10.5071L10.0133 3.41353V3.93487ZM10.8909 3.2369C10.8909 3.39074 10.9276 3.51039 11.0009 3.59586C11.0742 3.68069 11.1767 3.7231 11.3084 3.7231C11.4414 3.7231 11.5449 3.68069 11.6189 3.59586C11.6929 3.51039 11.7299 3.39074 11.7299 3.2369C11.7299 3.08306 11.6929 2.96373 11.6189 2.8789C11.5449 2.79343 11.4414 2.7507 11.3084 2.7507C11.1767 2.7507 11.0742 2.79311 11.0009 2.87795C10.9276 2.96278 10.8909 3.08243 10.8909 3.2369ZM10.5763 3.2369C10.5763 3.01089 10.6422 2.83173 10.7738 2.69942C10.9062 2.56647 11.0844 2.5 11.3084 2.5C11.5323 2.5 11.7105 2.56647 11.8429 2.69942C11.9759 2.83237 12.0424 3.01153 12.0424 3.2369C12.0424 3.46228 11.9759 3.64144 11.8429 3.77438C11.7105 3.90733 11.5323 3.9738 11.3084 3.9738C11.0844 3.9738 10.9062 3.90733 10.7738 3.77438C10.6422 3.64144 10.5763 3.46228 10.5763 3.2369ZM12.5973 3.93487V2.78583H12.1524V2.53608H13.3476V2.78583H12.9058V3.93487H12.5973ZM13.8353 3.93487V2.78583H13.3904V2.53608H14.5857V2.78583H14.1438V3.93487H13.8353ZM14.7628 3.93487V2.53609H15.8512V2.77919H15.0672V3.07737H15.784V3.31667H15.0672V3.67658H15.8878V3.93487L14.7628 3.93487Z" fill="#D42E12"/>
<path d="M7.03193 4.95845C6.90153 4.97682 6.80328 5.01263 6.67196 5.0916C6.62972 5.11731 6.59023 5.13568 6.58289 5.13293C6.57554 5.13017 6.56728 5.10813 6.5636 5.0815C6.55993 5.05671 6.55167 5.02824 6.54524 5.01998C6.52687 4.99426 6.50942 5.01538 6.47545 5.1017C6.45984 5.14303 6.44239 5.18251 6.4378 5.18802C6.42127 5.20823 6.39923 5.20088 6.3726 5.16782C6.34597 5.13384 6.30556 5.12374 6.29638 5.14854C6.29363 5.15588 6.29546 5.18527 6.30097 5.21465C6.3175 5.30097 6.29087 5.31383 6.21557 5.25598C6.15037 5.20547 6.12558 5.19537 6.10079 5.20823C6.07507 5.222 6.07599 5.24128 6.10905 5.3175C6.13752 5.38362 6.13935 5.43137 6.11181 5.3928C6.10446 5.3827 6.07048 5.35974 6.03559 5.34321C6.00069 5.32577 5.94651 5.2973 5.91437 5.27893C5.88223 5.26149 5.83816 5.24037 5.81612 5.2321C5.77571 5.21833 5.55716 5.18619 5.53879 5.19261C5.53328 5.19445 5.56359 5.21924 5.60491 5.24863C5.69582 5.31107 5.8703 5.47086 5.8703 5.49106C5.8703 5.503 5.8602 5.50483 5.79683 5.49932C5.71327 5.49198 5.71511 5.48922 5.73347 5.57646C5.7399 5.60676 5.74082 5.62696 5.73531 5.63247C5.7298 5.63798 5.70133 5.63615 5.65817 5.62696C5.62052 5.61962 5.58746 5.61319 5.58379 5.61319C5.57002 5.61319 5.57644 5.68573 5.59573 5.74726C5.61409 5.80511 5.61409 5.81062 5.5994 5.82072C5.58104 5.8345 5.55992 5.82807 5.42034 5.76379C5.33769 5.72522 5.31657 5.71879 5.27157 5.72063C5.24311 5.72155 5.20913 5.72798 5.19535 5.73532L5.16964 5.74818L5.22933 5.81246C5.30004 5.88959 5.37167 5.99244 5.38269 6.03377C5.40289 6.10264 5.33493 6.11458 5.10628 6.08519C4.98139 6.06866 4.89691 6.07142 4.85559 6.09345C4.82345 6.10998 4.71325 6.21283 4.71325 6.22661C4.71325 6.2312 4.76651 6.23763 4.83171 6.24038C4.96854 6.24589 5.06771 6.26977 5.14944 6.31476C5.22658 6.357 5.22474 6.36619 5.14118 6.36619C5.07139 6.36619 5.03098 6.37721 4.99425 6.40659C4.9768 6.42037 4.9768 6.42128 4.99425 6.44057C5.02088 6.46995 5.0723 6.49291 5.13567 6.50301C5.16781 6.50852 5.19535 6.51403 5.19719 6.51679C5.19903 6.51862 5.17056 6.52505 5.13383 6.53056C5.03833 6.54617 4.90426 6.58566 4.83906 6.61872C4.78029 6.6481 4.77753 6.65177 4.7656 6.73717L4.76009 6.77207L4.78947 6.76564C4.83539 6.75554 5.0723 6.75003 5.11087 6.75829C5.16964 6.77115 5.15311 6.78401 5.0622 6.79503C4.94834 6.8088 4.88406 6.82166 4.85375 6.83727L4.82988 6.85012L4.87946 6.874C4.90701 6.88777 4.97037 6.90706 5.02088 6.91716C5.23576 6.96124 5.26239 6.98603 5.08241 6.97685C4.93456 6.9695 4.87579 6.97501 4.88038 6.99797C4.88497 7.02368 4.97588 7.06776 5.07047 7.09163C5.12832 7.10633 5.10628 7.11735 5.0117 7.12102C4.9263 7.12377 4.86202 7.14581 4.83539 7.18163C4.81427 7.20826 4.82712 7.32947 4.85192 7.34508C4.85742 7.34784 4.86844 7.34416 4.87671 7.33682C4.88497 7.32855 4.92262 7.30835 4.96027 7.28998C5.03098 7.25601 5.0319 7.25601 5.13291 7.27162C5.17607 7.27805 5.21372 7.31386 5.24586 7.37998C5.26147 7.4112 5.29361 7.46079 5.31749 7.49017C5.34136 7.51956 5.36891 7.55353 5.37809 7.56547C5.39554 7.58659 5.39554 7.58751 5.37626 7.62608C5.36616 7.64812 5.35514 7.67291 5.35238 7.68117C5.33585 7.73811 5.05486 7.71882 4.83355 7.64536C4.74539 7.61598 4.615 7.5517 4.55623 7.50854L4.51123 7.47548V7.51129C4.51123 7.59945 4.5801 7.74913 4.64897 7.81065L4.69305 7.85014L4.64806 7.93646C4.59204 8.0439 4.58837 8.08522 4.63153 8.12838C4.64714 8.14491 4.65816 8.16328 4.65448 8.17062C4.65173 8.17797 4.62785 8.19633 4.60122 8.21103C4.51858 8.25786 4.52225 8.25327 4.55623 8.27071C4.57276 8.2799 4.61775 8.28908 4.65448 8.29184C4.69489 8.29551 4.72703 8.30194 4.73254 8.30928C4.7555 8.33683 4.70774 8.39744 4.6251 8.44703C4.61132 8.45529 4.62143 8.45896 4.68111 8.46815C4.72152 8.47366 4.78029 8.47917 4.81151 8.48008L4.86844 8.48192L4.84916 8.51682C4.8262 8.55814 4.78304 8.60314 4.74723 8.62517L4.72152 8.6417L4.74999 8.64538C4.7656 8.64813 4.79774 8.64629 4.82161 8.64262C4.89048 8.6316 4.97405 8.63344 4.99241 8.64629C5.02088 8.66742 4.997 8.71517 4.92538 8.78404L4.86293 8.84464L4.90334 8.85107C4.97956 8.86209 5.07598 8.85015 5.1274 8.82352C5.15403 8.81067 5.17699 8.80057 5.17883 8.8024C5.19168 8.81618 5.14209 8.94933 5.10995 8.98606C5.10261 8.99433 5.09893 9.00443 5.10261 9.00902C5.10628 9.01269 5.15587 9.01545 5.21188 9.01545C5.29178 9.01545 5.32208 9.01177 5.34595 8.99892C5.3634 8.99065 5.37901 8.98331 5.38085 8.98331C5.38177 8.98331 5.3836 9.00259 5.3836 9.02647C5.3836 9.05769 5.37718 9.07697 5.35973 9.09993L5.33677 9.13023H5.36248C5.42217 9.12931 5.56359 9.0834 5.61409 9.04667C5.64715 9.02371 5.64991 9.02463 5.64991 9.05861C5.64899 9.09717 5.62879 9.15319 5.60767 9.17706C5.58838 9.1991 5.59297 9.1991 5.68297 9.17615C5.76378 9.15594 5.8354 9.12748 5.87213 9.10177C5.90611 9.07697 5.90978 9.07973 5.90244 9.11829C5.89417 9.16421 5.87672 9.19084 5.84183 9.20921C5.82622 9.21655 5.8152 9.22573 5.81795 9.22757C5.8253 9.23584 6.01906 9.20553 6.06314 9.18992C6.08518 9.18257 6.11089 9.1688 6.12007 9.16054C6.13568 9.14676 6.1366 9.14676 6.1366 9.1688C6.1366 9.18166 6.1265 9.21104 6.11364 9.23492C6.10079 9.25879 6.09069 9.27991 6.09069 9.28267C6.09069 9.29001 6.14119 9.2744 6.19996 9.24869C6.2321 9.234 6.26975 9.22206 6.28353 9.22206C6.31475 9.22206 6.35148 9.25053 6.37995 9.29552C6.39556 9.32032 6.41943 9.33868 6.46535 9.36164L6.52963 9.39378L6.5333 9.35613C6.53789 9.32215 6.68941 8.92362 6.7041 8.90801C6.71053 8.90158 6.89511 9.0283 7.07325 9.16054C7.18069 9.24043 7.42771 9.48561 7.50026 9.58478C7.69953 9.8566 7.76472 10.0439 7.76564 10.347C7.76564 10.5141 7.75462 10.6032 7.71605 10.7639C7.63157 11.1073 7.43506 11.4342 7.21191 11.5995C7.06499 11.7088 6.89143 11.7455 6.5682 11.7354C6.177 11.7235 5.93274 11.6417 5.75184 11.4645C5.61777 11.3323 5.52961 11.1596 5.49288 10.9576C5.48737 10.9246 5.48278 10.8438 5.48278 10.7786C5.48278 10.5545 5.53328 10.3993 5.64348 10.2808C5.73898 10.1789 5.84091 10.1229 5.97131 10.1027C6.09528 10.0834 6.23669 10.1247 6.32393 10.2046C6.38454 10.2606 6.38729 10.2873 6.33954 10.3828C6.2973 10.4682 6.29363 10.4902 6.32026 10.5168C6.34505 10.5416 6.39648 10.5407 6.45525 10.5123C6.54065 10.4728 6.58289 10.3763 6.57554 10.2423C6.5682 10.122 6.51218 10.0439 6.38546 9.97965C6.26241 9.91812 6.19996 9.90619 6.00804 9.9071C5.84918 9.9071 5.83265 9.90894 5.75551 9.93282C5.60124 9.97965 5.50757 10.0421 5.43503 10.1431C5.26974 10.3763 5.17883 10.7767 5.23209 11.0357C5.27341 11.2331 5.3836 11.4471 5.53696 11.6234C5.79592 11.9227 6.13935 12.0596 6.63248 12.0596C6.99795 12.0596 7.25691 11.9898 7.51403 11.8227C7.80054 11.6372 7.98603 11.3966 8.14306 11.0081C8.1853 10.9016 8.20183 10.8355 8.20918 10.7437C8.21193 10.6987 8.21928 10.6619 8.22754 10.6528C8.26427 10.6105 8.27713 10.4902 8.25417 10.4122L8.2404 10.3681L8.26886 10.3433C8.31937 10.2983 8.31386 10.201 8.25693 10.1358L8.2303 10.1055L8.2606 10.0752C8.30009 10.0347 8.31753 9.95853 8.31019 9.85752C8.3056 9.78773 8.27437 9.69039 8.25693 9.69039C8.23856 9.69039 8.2505 9.66559 8.27713 9.64998C8.31845 9.62519 8.34049 9.58387 8.34049 9.52877C8.34049 9.41766 8.29458 9.24685 8.2606 9.234C8.24683 9.22849 8.24407 9.2037 8.25693 9.2037C8.27805 9.2037 8.30651 9.11738 8.31111 9.03932C8.31662 8.94106 8.29733 8.86577 8.25693 8.82536L8.2303 8.79781L8.25876 8.73904C8.28356 8.68854 8.28723 8.67384 8.28264 8.6316C8.27254 8.53426 8.1651 8.35428 8.08429 8.30102C8.0549 8.28173 8.04664 8.27071 8.04664 8.24959C8.04664 8.18807 7.99613 8.09716 7.91165 8.00625C7.82349 7.91258 7.79503 7.87034 7.77666 7.80422C7.76381 7.76198 7.75003 7.73994 7.71146 7.70138C7.66647 7.65638 7.57097 7.59945 7.51403 7.58475C7.50209 7.582 7.49567 7.57282 7.49567 7.55812C7.49475 7.49935 7.4222 7.4011 7.35792 7.37171C7.32578 7.35702 7.32119 7.35151 7.32119 7.32488C7.32119 7.28723 7.28997 7.24958 7.21651 7.19907C7.14672 7.15224 7.03652 7.12377 6.86664 7.10908C6.50942 7.0797 6.35056 7.02001 6.18251 6.85288C6.08058 6.75187 6.0411 6.68391 6.00437 6.54984C5.97406 6.43873 5.97223 6.33496 5.99977 6.25415C6.01906 6.19722 6.08058 6.08152 6.0916 6.08152C6.09528 6.08152 6.08977 6.11182 6.07967 6.14763C6.05579 6.23487 6.05304 6.37812 6.07507 6.44791C6.10538 6.54525 6.16507 6.6178 6.24863 6.66096C6.30556 6.69034 6.33311 6.69677 6.43045 6.70595C6.53146 6.71514 6.59942 6.73534 6.63248 6.76564C6.68206 6.81156 6.79318 6.81707 6.8997 6.78033C6.92725 6.77023 6.97867 6.75921 7.01448 6.75646L7.0806 6.75003L7.166 6.80972C7.25416 6.87033 7.63525 7.08521 7.70228 7.11184C7.82441 7.1605 7.96216 7.12653 8.02001 7.03378C8.06684 6.9594 8.0246 6.88961 7.82533 6.70963C7.66371 6.56454 7.62514 6.51495 7.60402 6.43047C7.59484 6.39465 7.56546 6.3166 7.53699 6.25783C7.46995 6.11366 7.46904 6.08886 7.5324 6.02275C7.55719 5.99612 7.58474 5.95938 7.59209 5.9401C7.60678 5.90612 7.61321 5.82899 7.60311 5.81797C7.5976 5.81338 7.53607 5.82623 7.50393 5.83817C7.49383 5.84184 7.49199 5.82807 7.49475 5.76471C7.49658 5.71512 7.49291 5.67563 7.48648 5.65819L7.47455 5.63064L7.44149 5.66278C7.40751 5.69584 7.38272 5.7041 7.3717 5.68665C7.36894 5.68206 7.36251 5.65543 7.35792 5.62788C7.34874 5.57003 7.31201 5.48004 7.30283 5.49106C7.29915 5.49473 7.29089 5.51401 7.28446 5.53238C7.27895 5.55166 7.27069 5.56728 7.26609 5.56728C7.26242 5.56728 7.25599 5.54524 7.25232 5.51861C7.24222 5.43963 7.2312 5.40658 7.20641 5.38362C7.1862 5.36433 7.18069 5.36342 7.17427 5.37444C7.16967 5.38178 7.16508 5.39831 7.16508 5.41117C7.16508 5.45157 7.13937 5.5333 7.10539 5.60217C7.03928 5.7344 6.97683 5.72155 6.84827 5.55166C6.77481 5.45433 6.76379 5.42402 6.78399 5.37994C6.83266 5.2771 7.03652 5.13844 7.22844 5.07875C7.26426 5.06773 7.29364 5.05579 7.29364 5.05212C7.29364 5.03467 7.24773 4.99335 7.20732 4.97406C7.16141 4.95294 7.10815 4.94835 7.03193 4.95845Z" fill="#DFDFDF"/>
<path d="M5.13469 6.78306C5.193 6.75065 4.91009 6.75576 4.85028 6.75638C4.80978 6.76859 4.77259 6.78624 4.76014 6.78048C4.7477 6.77471 4.75771 6.72948 4.77032 6.65262C4.81485 6.61608 4.86095 6.59648 4.91004 6.58217C4.95683 6.56557 4.99812 6.55469 5.05152 6.53766C5.10271 6.53154 5.11928 6.53388 5.19213 6.51799C5.10668 6.5044 5.04601 6.51483 4.96105 6.42535C4.99539 6.40471 5.00892 6.37857 5.05021 6.36866C5.09151 6.35981 5.10601 6.36121 5.13992 6.36121C5.20493 6.36121 5.22394 6.37309 5.18044 6.34173C5.13694 6.31038 5.05387 6.27478 4.96059 6.25782C4.87863 6.24369 4.75426 6.24325 4.69432 6.24084C4.72183 6.18647 4.77302 6.15468 4.80411 6.12076C4.85499 6.05858 4.9719 6.05997 5.14714 6.08824C5.42413 6.12216 5.44108 6.08824 5.26585 5.86778L5.15446 5.74519L5.22512 5.71714L5.30227 5.71505C5.37576 5.73201 5.46935 5.78864 5.52588 5.81125C5.61632 5.85082 5.61141 5.81356 5.58314 5.74007C5.56053 5.67789 5.57693 5.67822 5.56816 5.6094C5.61338 5.6094 5.73262 5.65464 5.73262 5.62638C5.73262 5.59246 5.71699 5.56976 5.70822 5.49175C5.74779 5.49175 5.8365 5.50238 5.85602 5.49817C5.87553 5.49396 5.82886 5.44899 5.78132 5.40638L5.65896 5.29671L5.48612 5.18017L5.74257 5.21229C5.82171 5.21229 5.94692 5.29826 6.01334 5.33288C6.04655 5.35019 6.07806 5.35555 6.09802 5.37649C6.14369 5.39344 6.08881 5.4387 6.12191 5.39702C6.13878 5.3667 6.06062 5.27705 6.07124 5.2302C6.12728 5.12334 6.25288 5.31899 6.28021 5.28738C6.3325 5.28173 6.25461 5.15997 6.29608 5.13529C6.35527 5.10006 6.38896 5.22106 6.42082 5.19967C6.45267 5.17827 6.47331 5.02317 6.52366 5.00369C6.57401 4.9842 6.5535 5.16197 6.58742 5.13795C6.66091 5.08707 6.81996 4.98725 6.95078 4.96914C7.0162 4.96008 7.0924 4.94128 7.15693 4.9529C7.22145 4.96453 7.28233 5.00888 7.29989 5.06307C7.21299 5.08842 7.19926 5.09075 7.10882 5.13032C7.01837 5.16424 6.89966 5.24903 6.84313 5.30556C6.74703 5.41297 6.74703 5.42427 6.85444 5.55994C6.99011 5.74648 7.05794 5.73518 7.13143 5.52037C7.16252 5.43558 7.15283 5.38171 7.16758 5.35285C7.17611 5.35907 7.20705 5.37188 7.22567 5.40099C7.24196 5.42644 7.25648 5.53899 7.25633 5.56836C7.26993 5.56008 7.28264 5.52312 7.29536 5.46384C7.32936 5.52934 7.33909 5.55091 7.35039 5.582C7.3617 5.61309 7.35189 5.69561 7.3858 5.69561C7.40559 5.69561 7.42961 5.65741 7.47173 5.62019C7.50811 5.6885 7.50293 5.77384 7.48839 5.83854C7.51687 5.82926 7.57528 5.80936 7.60363 5.8067C7.61248 5.84075 7.61192 5.88172 7.60504 5.91271C7.58439 5.95703 7.578 5.99521 7.53278 6.02912C7.46494 6.08565 7.46494 6.11957 7.53278 6.24958C7.578 6.33438 7.61192 6.43048 7.61192 6.47005C7.61192 6.50396 7.71367 6.61702 7.84368 6.72442C8.00196 6.86009 8.05849 6.94488 8.03588 7.00707C7.97935 7.14273 7.80411 7.1823 7.64584 7.09751C7.57235 7.05794 7.40842 6.9675 7.2784 6.89401C7.19078 6.84596 7.1331 6.79357 7.07966 6.75997C6.99377 6.75882 6.92834 6.76672 6.85444 6.80356C6.74138 6.82052 6.65094 6.80922 6.62832 6.7753C6.60571 6.74138 6.51527 6.71312 6.43048 6.71312C6.20436 6.71312 6.05632 6.56357 6.04748 6.34462C6.04408 6.24947 6.05692 6.18935 6.0885 6.08221C5.96371 6.2793 5.95637 6.37017 6.00119 6.54405C6.05519 6.78675 6.30611 7.09751 6.86009 7.10317C6.96467 7.10599 7.05227 7.13565 7.15118 7.15546C7.21439 7.1929 7.34926 7.26458 7.32187 7.35445C7.42444 7.38181 7.49484 7.48815 7.49633 7.5754C7.74817 7.65076 7.7815 7.79847 7.7815 7.82673C7.7815 7.85499 7.84368 7.93979 7.92282 8.01327C8.00196 8.08676 8.05441 8.20557 8.04468 8.27109C8.13228 8.31632 8.16369 8.38238 8.21697 8.45419C8.26214 8.54589 8.33735 8.66 8.22641 8.79716C8.34257 8.84024 8.33747 9.16916 8.24474 9.21679C8.31297 9.26368 8.32762 9.37811 8.34217 9.53388C8.34281 9.5863 8.32586 9.63321 8.24263 9.67468C8.26482 9.68586 8.28245 9.71657 8.29452 9.75672C8.30659 9.79688 8.3131 9.84648 8.31304 9.89543C8.31296 9.94439 8.30633 9.9927 8.29209 10.0303C8.27786 10.0679 8.25603 10.0947 8.2256 10.1008C8.32933 10.1685 8.32683 10.3477 8.23741 10.3661C8.28751 10.4576 8.27177 10.6374 8.20788 10.6727C8.22186 10.8572 8.14876 10.9881 8.11008 11.0856C8.0327 11.2806 7.93077 11.446 7.80297 11.5848C7.67516 11.7237 7.52147 11.836 7.34058 11.925C6.94488 12.1172 6.2722 12.1116 5.8878 11.9137C5.54863 11.7385 5.27164 11.3598 5.21512 10.9923C5.16424 10.6645 5.32252 10.184 5.52602 10.0313C5.84823 9.79391 6.4757 9.87305 6.56614 10.1613C6.61137 10.3083 6.55484 10.4836 6.44743 10.5231C6.30611 10.574 6.24959 10.5062 6.32873 10.3818C6.38525 10.2857 6.3796 10.2574 6.28915 10.184C6.01782 9.98611 5.61082 10.1613 5.51472 10.5118C5.39601 10.9641 5.58255 11.4219 5.96129 11.6085C6.27785 11.7668 6.91662 11.7781 7.14273 11.6367C7.58365 11.3597 7.86064 10.6079 7.72498 10.0426C7.65149 9.73173 7.34624 9.34734 6.95054 9.08166L6.70181 8.90642L6.61137 9.13819C6.56332 9.25972 6.52092 9.32721 6.53236 9.404C6.45891 9.3592 6.4324 9.36729 6.38173 9.31957C6.35912 9.2687 6.31742 9.21167 6.25524 9.22863C6.24111 9.23287 6.15542 9.28331 6.07011 9.29493C6.0995 9.22625 6.12927 9.22428 6.1258 9.1558C6.08006 9.21412 5.94902 9.22137 5.77912 9.23934C5.91204 9.16326 5.88681 9.14837 5.89669 9.08441C5.84582 9.14196 5.71883 9.17783 5.572 9.20425C5.64771 9.12514 5.63475 9.10081 5.64218 9.02879C5.56773 9.10205 5.38636 9.14298 5.31909 9.13866C5.37801 9.07011 5.37898 9.07102 5.37782 8.98625C5.3117 9.03815 5.18951 9.03084 5.08023 9.0115C5.1476 8.93939 5.16823 8.85984 5.17207 8.79939C5.08347 8.88175 4.93837 8.864 4.84358 8.84828C4.91783 8.78241 4.96283 8.74531 4.98589 8.70398C5.01276 8.65204 4.99466 8.63508 4.90421 8.63508C4.84203 8.63508 4.799 8.67495 4.70723 8.6398C4.8403 8.5872 4.87644 8.41716 4.90631 8.41373C5.02535 8.40006 4.7407 8.63038 4.99553 8.58188C5.05918 8.57274 5.08812 8.57385 5.13534 8.57656C5.10225 8.62514 5.09661 8.62714 5.06814 8.66335C5.03615 8.7105 5.02978 8.77194 4.95409 8.81169C5.01834 8.81206 5.07086 8.81793 5.1134 8.78416C5.15595 8.7504 5.15639 8.73665 5.24609 8.67208C5.25831 8.7397 5.25228 8.75323 5.24565 8.79803C5.23417 8.87559 5.2192 8.89599 5.19586 8.95731C5.29323 8.97989 5.35309 8.94918 5.3701 8.90716C5.39552 8.88061 5.43186 8.81297 5.48177 8.79929C5.50205 8.86023 5.48047 8.86259 5.47302 8.9142C5.4518 8.97224 5.44651 9.01358 5.42833 9.06804C5.52715 9.03992 5.58783 9.00428 5.65038 8.92903C5.75779 8.83859 5.75779 8.83859 5.72387 8.95729C5.7099 9.03643 5.71328 9.05413 5.68456 9.12243C5.77972 9.10585 5.86802 9.06187 5.91607 8.98556C5.97259 8.90077 5.97825 8.90642 5.95564 9.01382C5.95244 9.08608 5.965 9.09777 5.94721 9.16766C6.0336 9.14939 6.09696 9.11557 6.14218 9.04209C6.19871 8.9573 6.20436 8.96295 6.18175 9.07035C6.16762 9.13819 6.19357 9.15217 6.15353 9.22295C6.25114 9.18132 6.25524 9.19189 6.28915 9.13819C6.31177 9.09296 6.34904 9.15335 6.39426 9.23814C6.43101 9.30315 6.46085 9.30812 6.48822 9.31129C6.49495 9.26169 6.51527 9.22863 6.56049 9.12123C6.61137 8.99686 6.64528 8.89511 6.63963 8.88381C6.62832 8.87816 6.487 8.80467 6.32872 8.71988C6.16479 8.64074 6.02912 8.55029 6.02912 8.51637C6.02912 8.48811 6.00086 8.4655 5.96129 8.4655C5.87084 8.4655 5.63342 8.23938 5.63342 8.15459C5.63342 8.11502 5.58255 8.01892 5.52037 7.94544C5.43558 7.83238 5.33948 7.79281 5.0851 7.76455C4.90527 7.73276 4.75437 7.68541 4.66114 7.63453C4.61448 7.61012 4.6081 7.58947 4.57227 7.57556C4.57086 7.60524 4.59048 7.69671 4.65548 7.75889C4.69223 7.79846 4.72986 7.80705 4.7633 7.8277C4.73185 7.85971 4.70919 7.92 4.68375 7.9624C4.62722 8.05284 4.62722 8.08111 4.70636 8.10937C4.77985 8.13763 4.77985 8.15459 4.71767 8.19416C4.69223 8.21395 4.65392 8.22755 4.62711 8.24484C4.66912 8.25526 4.70197 8.2579 4.78214 8.23742C4.88389 8.17581 4.89167 8.194 4.84768 8.25634C4.81163 8.31074 4.78726 8.37149 4.73485 8.4137C4.79486 8.4169 4.82224 8.40614 4.87594 8.38636C4.93247 8.36375 4.98032 8.34859 4.94148 8.43633C4.90458 8.49767 4.92495 8.40335 4.88993 8.48427C4.82957 8.49593 4.69251 8.48154 4.59228 8.4573C4.68247 8.40783 4.71545 8.36916 4.72675 8.34372C4.74371 8.29285 4.69505 8.29591 4.64983 8.29591C4.63005 8.29591 4.56465 8.30382 4.51578 8.2496C4.55638 8.2275 4.6181 8.20751 4.65525 8.16089C4.53936 8.09406 4.6067 7.9928 4.63371 7.9447C4.65607 7.90626 4.6579 7.8859 4.68388 7.846C4.64821 7.8434 4.59613 7.77585 4.57069 7.73063C4.51699 7.63453 4.49368 7.54322 4.50146 7.46466C4.57807 7.52375 4.60776 7.54282 4.65548 7.56653C4.73647 7.61495 4.91029 7.67588 5.06387 7.69911C5.21745 7.72233 5.35078 7.71932 5.35078 7.66279C5.35078 7.60627 5.41224 7.61096 5.36779 7.56576C5.28457 7.48114 5.23977 7.40514 5.21385 7.33027C5.1654 7.27163 5.10422 7.2673 5.02313 7.26645C4.9801 7.28946 4.89617 7.30949 4.85744 7.36547C4.82101 7.34803 4.80223 7.23577 4.82068 7.18234C4.82861 7.15939 4.92223 7.11543 4.97502 7.11358C5.02781 7.11172 5.05583 7.12674 5.10232 7.10706C5.0476 7.09129 5.01768 7.09221 4.96066 7.0638C4.90996 7.03853 4.86082 7.02351 4.86745 6.99133C4.87566 6.95151 5.15608 6.97866 5.19565 6.98007C5.22816 6.98149 5.13436 6.94257 5.06523 6.93382C5.01988 6.91757 4.91878 6.92392 4.81651 6.84802C4.89197 6.79952 4.93173 6.81992 4.99361 6.7971M5.22653 6.80638C5.20377 6.85433 4.93121 6.84128 5.007 6.86108C5.007 6.86108 5.21752 6.89987 5.28719 6.95968C5.29952 7.01261 5.22606 7.03608 5.22606 7.03608L4.95908 7.00763C4.95622 7.04418 5.2186 7.05796 5.20957 7.11286C5.20665 7.13066 5.2241 7.1642 5.13678 7.15425C5.05727 7.15789 4.95972 7.1498 4.90068 7.18034C4.85779 7.20172 4.85262 7.24928 4.8661 7.28998C4.90493 7.25834 4.96672 7.23228 5.00064 7.22097C5.07306 7.2116 5.12545 7.22647 5.17439 7.24741C5.22333 7.26835 5.25734 7.29077 5.29991 7.3745C5.32817 7.44799 5.41862 7.53278 5.50341 7.5667C5.59385 7.59496 5.73836 7.67238 5.80301 7.75889C5.87468 7.85479 5.92816 7.93251 6.10079 8.03224C6.27037 8.18487 6.12391 8.13061 6.19655 8.14176C6.3912 8.17165 6.49831 8.21677 6.53222 8.26199C6.57179 8.30722 6.66224 8.35809 6.73573 8.37505C6.81486 8.39766 6.87705 8.43723 6.87705 8.4655C6.87705 8.49941 6.91662 8.52202 6.96749 8.52202C7.09185 8.52202 7.64583 9.10427 7.74758 9.33603C7.93978 9.7713 7.9737 9.92958 7.9737 10.3535C7.96804 10.6362 7.93413 10.8906 7.88325 11.0093C7.77019 11.275 7.28808 11.8088 7.15807 11.8088C7.13509 11.8153 7.14437 11.8129 7.11712 11.8173C7.10462 11.836 7.09748 11.8378 7.05331 11.8584C6.98912 11.8905 6.90684 11.9062 6.80649 11.909C6.70614 11.9119 6.58772 11.9019 6.45127 11.8828C6.31482 11.8637 6.18102 11.8354 6.08133 11.8023C5.98164 11.7692 5.94497 11.7514 5.91606 11.7208C5.90743 11.7117 5.88448 11.6999 5.88831 11.6602C5.86781 11.6788 5.82014 11.6744 5.76319 11.6229C5.71693 11.581 5.67242 11.5615 5.6956 11.5194C5.63443 11.5131 5.62401 11.4871 5.57581 11.4193C5.54411 11.3748 5.50807 11.3354 5.52351 11.2723C5.48138 11.2807 5.46049 11.2218 5.43636 11.1659C5.4152 11.117 5.37747 11.0503 5.42442 11.0262C5.37044 11.0275 5.38058 10.9615 5.37402 10.9156C5.36746 10.8697 5.35393 10.7985 5.40835 10.786C5.3526 10.7684 5.37645 10.7108 5.38485 10.6592C5.39662 10.5867 5.40328 10.5476 5.44954 10.538C5.4082 10.5195 5.43339 10.4515 5.46064 10.3587C5.48249 10.2844 5.53256 10.2572 5.59017 10.2696C5.53507 10.2276 5.63569 10.159 5.65732 10.1409C5.7174 10.0908 5.78571 10.0722 5.79913 10.1048C5.79334 10.0437 6.00643 10.0384 6.08795 10.0476C6.16947 10.0568 6.2411 10.0935 6.31742 10.1557C6.43612 10.2518 6.44178 10.2801 6.3796 10.3818C6.30611 10.5118 6.36264 10.5401 6.47004 10.4327C6.5831 10.3196 6.54918 10.1783 6.38525 10.0483C6.26089 9.94654 6.17609 9.92958 5.96129 9.94654C5.58255 9.98611 5.42992 10.1048 5.32252 10.4553C5.15293 11.0375 5.3847 11.6141 5.89345 11.8629C6.11957 11.9703 6.25523 11.9985 6.62267 11.9985C7.15969 11.9929 7.49321 11.8629 7.80411 11.518C7.99631 11.3089 8.21112 10.7625 8.14328 10.6607C8.03293 10.6138 8.14328 10.6136 8.1772 10.6136C8.22242 10.6136 8.23938 10.3794 8.15518 10.3368C8.32319 10.3374 8.23423 10.1275 8.13306 10.0861C8.22364 10.084 8.26844 9.99543 8.27113 9.90175C8.27382 9.80807 8.23439 9.70927 8.1565 9.68661C8.09779 9.66953 8.15186 9.65392 8.20699 9.64139C8.2727 9.62644 8.29798 9.61661 8.28987 9.49953C8.28013 9.42279 8.25312 9.29452 8.1975 9.27088C8.14024 9.24655 8.05108 9.23947 8.00136 9.23502C8.06173 9.21555 8.1193 9.20425 8.16589 9.20037C8.26764 9.15797 8.30195 8.95219 8.21047 8.89457C8.11898 8.83695 7.88871 8.9502 7.8766 8.90347C7.92149 8.85434 8.06058 8.84225 8.12234 8.79734C8.19794 8.72302 8.26764 8.65204 8.14328 8.4768C8.0811 8.38071 8.09099 8.35689 8.019 8.33033C7.92356 8.32648 7.71889 8.45495 7.5623 8.44996C7.63402 8.39027 7.87793 8.34236 7.95576 8.28592C8.03359 8.22949 7.97453 8.14181 7.89456 8.04154C7.79846 7.95674 7.75889 7.95109 7.63453 8.00762C7.54974 8.04154 7.41554 8.07685 7.2701 8.10118C7.32656 8.04293 7.58365 7.97935 7.64018 7.93413C7.74758 7.85499 7.74758 7.82181 7.64583 7.70875L7.49361 7.64617L7.32362 7.73628C7.19926 7.79281 7.00681 7.85991 7.00681 7.84295C7.00681 7.83165 7.1823 7.75324 7.27275 7.70237C7.36884 7.65149 7.42739 7.578 7.42739 7.53843C7.42739 7.39711 7.29698 7.37834 7.09711 7.51764C6.99536 7.577 6.74135 7.65445 6.72618 7.62588C6.70736 7.59044 6.8965 7.55576 6.99011 7.51017C7.08301 7.45716 7.25751 7.37024 7.25751 7.32502C7.23457 7.24834 7.13143 7.19361 6.68485 7.14273C6.35134 7.10316 6.1761 6.99576 6.02912 6.75269C5.84823 6.45874 5.88215 6.20436 6.12522 5.9726L6.32872 5.7804L6.21001 5.96129C5.98955 6.27785 6.09696 6.65659 6.40786 6.65659C6.48135 6.65659 6.58875 6.68485 6.64528 6.72442C6.72442 6.76965 6.79332 6.75988 6.85976 6.74032L6.9678 6.70851L7.00525 6.70043L6.84878 6.59441C6.67355 6.50962 6.60006 6.34569 6.69616 6.24959C6.73008 6.21567 6.74138 6.24959 6.72442 6.34003C6.70181 6.44744 6.72442 6.49831 6.80356 6.52658C6.86009 6.55484 6.97315 6.61702 7.04663 6.67355C7.28971 6.84879 7.61757 7.05229 7.65149 7.05229C7.66845 7.05229 7.64018 6.99576 7.578 6.92227C7.51582 6.85444 7.54974 6.86575 7.65149 6.96184C7.80411 7.09751 7.84934 7.11447 7.92282 7.05229C8.04719 6.95054 8.03023 6.90532 7.81542 6.76965C7.6854 6.69616 7.59496 6.57745 7.54974 6.44178C7.51582 6.32873 7.45929 6.20436 7.43668 6.17045C7.40276 6.13088 7.41972 6.08 7.4706 6.03478C7.51865 5.99521 7.56668 5.9033 7.56157 5.86965C7.53925 5.87386 7.52229 5.88011 7.49886 5.89346C7.4706 5.91042 7.44233 5.88781 7.44233 5.83693C7.44233 5.81149 7.46192 5.71512 7.45661 5.69146C7.44328 5.71598 7.40276 5.77192 7.3858 5.7804C7.35754 5.79736 7.32362 5.7804 7.32362 5.74083C7.31514 5.65887 7.30462 5.63488 7.2976 5.59632C7.286 5.6174 7.22744 5.70189 7.20089 5.72218C7.22347 5.65978 7.20563 5.45951 7.19593 5.4409C7.19426 5.49456 7.16403 5.58993 7.15494 5.62442C7.09492 5.70904 7.08032 5.72754 7.01276 5.74801C6.95553 5.75013 6.92792 5.7267 6.84878 5.63343C6.76965 5.53733 6.72123 5.46532 6.71664 5.41633C6.71664 5.36545 6.88434 5.16424 7.08293 5.08854C7.16707 5.05799 7.17848 5.04932 7.23009 5.03555C7.21604 5.03238 7.1954 5.01275 7.13405 5.00129C7.1019 4.99529 6.97177 4.99574 6.88777 5.03562C6.81265 5.05971 6.63903 5.13387 6.55989 5.21301C6.51698 5.22023 6.56568 5.07583 6.51558 5.09668C6.46549 5.11752 6.4853 5.26792 6.44302 5.29048C6.37961 5.3243 6.36937 5.21325 6.34111 5.21325C6.31284 5.21607 6.36388 5.34499 6.31139 5.37503C6.27703 5.39469 6.15802 5.24864 6.14389 5.27125C6.13347 5.28889 6.23577 5.40967 6.20819 5.42762C6.17413 5.45446 6.17742 5.4904 6.10206 5.46056C6.04031 5.42941 5.76752 5.25815 5.69726 5.26306C5.76247 5.30583 5.81314 5.3578 5.88385 5.42239C5.9969 5.54109 6.02886 5.55589 5.93841 5.56965C5.85439 5.55589 5.83362 5.53048 5.79216 5.55853C5.77143 5.57255 5.81113 5.67957 5.78304 5.69669C5.75496 5.71381 5.65854 5.67617 5.64776 5.6873C5.60466 5.73181 5.68133 5.79147 5.6559 5.85648C5.62198 5.95257 5.60502 5.95257 5.49196 5.87343C5.40152 5.80843 5.28592 5.76191 5.28245 5.78652C5.27789 5.81884 5.30542 5.83386 5.3563 5.90735C5.52023 6.13912 5.475 6.18434 5.15279 6.15042C5.15279 6.15042 4.89041 6.07389 4.81182 6.19383C4.88945 6.17926 5.07543 6.21626 5.12503 6.23777C5.1519 6.24943 5.21007 6.28427 5.2603 6.3242C5.28542 6.34416 5.27089 6.35985 5.25568 6.40398C5.19688 6.42518 5.13281 6.43812 5.06343 6.43424C5.27324 6.51871 5.25446 6.44889 5.33052 6.4913C5.27588 6.58143 5.2324 6.57476 5.04553 6.60092C4.99925 6.62304 4.95452 6.6335 4.90365 6.64763C4.85136 6.66177 4.81901 6.70232 4.83192 6.70694C4.84483 6.71156 4.89612 6.69861 4.95373 6.69292C5.0213 6.6938 4.98632 6.69321 5.13775 6.7088C5.20853 6.72607 5.24022 6.77804 5.22653 6.80638Z" fill="black"/>
<path d="M7.15016 6.23949C7.15016 6.27252 7.13097 6.29929 7.10731 6.29929C7.08364 6.29929 7.06445 6.27252 7.06445 6.23949C7.06445 6.20646 7.08364 6.17969 7.10731 6.17969C7.13039 6.17969 7.14932 6.20519 7.15013 6.23738" fill="black"/>
<path d="M7.23601 6.28396C7.20888 6.35261 7.1292 6.38704 7.05804 6.36087C6.98689 6.3347 6.95119 6.25783 6.97832 6.18919C7.00545 6.12054 7.08513 6.08611 7.15628 6.11228C7.22735 6.13841 7.26306 6.21512 7.2361 6.28373" stroke="black" stroke-width="0.0408"/>
<path d="M6.7373 6.06187C6.91575 5.96778 7.16233 6.11378 7.16233 6.11378" stroke="black" stroke-width="0.0408"/>
<path d="M5.39944 7.68137C5.39307 7.65104 5.40689 7.63598 5.45599 7.60449C5.51656 7.61201 5.6218 7.65511 5.68849 7.71418C5.80213 7.81481 5.81937 7.85231 5.88342 7.93842C5.85729 7.99015 5.84031 8.00133 5.79075 8.04955C5.74044 8.08249 5.71065 8.1025 5.67648 8.11884C5.64919 8.03424 5.61601 7.99241 5.54064 7.8952C5.5054 7.84144 5.40122 7.80051 5.34839 7.76071C5.35979 7.71862 5.38068 7.71532 5.39944 7.68137Z" fill="#DFDFDF"/>
<path d="M5.82448 8.08038C5.87651 8.0468 5.89032 7.99929 5.92644 7.97754C5.97403 7.99803 5.96166 8.0039 6.03891 8.0418C6.12196 8.09429 6.09192 8.0826 6.15597 8.16871C6.12984 8.22044 6.1161 8.2446 6.07628 8.2993C6.03246 8.33874 6.03186 8.36848 5.9912 8.41727C5.91524 8.39755 5.86584 8.3687 5.8067 8.30069C5.76497 8.25018 5.71595 8.24818 5.69556 8.16296C5.74914 8.12735 5.79274 8.11108 5.82448 8.08038Z" fill="#DFDFDF"/>
<path d="M6.1197 8.32117C6.15875 8.26813 6.16607 8.23036 6.19895 8.19238C6.25627 8.1999 6.3023 8.20901 6.36981 8.23069C6.4626 8.25074 6.47474 8.28122 6.52256 8.33165C6.49643 8.38338 6.49243 8.44971 6.47207 8.54335C6.45745 8.60874 6.44388 8.64497 6.4162 8.70349C6.34024 8.6708 6.28435 8.64195 6.21872 8.59989C6.15103 8.55911 6.08579 8.51818 6.05566 8.43296C6.08978 8.3714 6.08795 8.35188 6.1197 8.32117Z" fill="#DFDFDF"/>
<path d="M6.52525 8.57287C6.54159 8.50036 6.53918 8.42365 6.5753 8.36621C6.63262 8.37372 6.62349 8.39257 6.69101 8.41425C6.76108 8.44403 6.80891 8.4518 6.847 8.52819C6.78518 8.5864 6.77144 8.57811 6.75109 8.67175C6.73647 8.73715 6.76508 8.82853 6.73739 8.88705C6.66143 8.85436 6.65421 8.83524 6.58858 8.79319C6.52089 8.75241 6.51405 8.76987 6.47095 8.72683C6.49533 8.65229 6.50973 8.61655 6.52525 8.57287Z" fill="#DFDFDF"/>
<path d="M6.80429 8.678C6.83685 8.61198 6.85066 8.59692 6.88678 8.56543C6.95384 8.59241 6.98364 8.57557 7.04792 8.63294C7.10826 8.6757 7.23395 8.7808 7.28177 8.83123C7.23618 8.85376 7.19362 8.86932 7.14044 8.93911C7.08726 9.00889 7.10252 9.02775 7.07159 9.10574C7.01509 9.0698 6.98841 9.05068 6.93575 9.01836C6.88104 8.96785 6.85798 8.95287 6.79541 8.90983C6.81979 8.83853 6.79526 8.73466 6.80429 8.678Z" fill="#DFDFDF"/>
<path d="M7.17735 8.98237C7.20991 8.91635 7.25617 8.90453 7.29229 8.87305C7.35935 8.90003 7.3859 8.95781 7.45018 9.01518C7.52998 9.10336 7.54212 9.11762 7.58021 9.17129C7.52164 9.20031 7.50503 9.20289 7.45185 9.24997C7.39684 9.29867 7.38149 9.29968 7.34407 9.34197C7.3038 9.29631 7.30955 9.2999 7.2569 9.24811C7.20219 9.1976 7.19535 9.19884 7.12305 9.13309C7.14418 9.05855 7.15534 9.03254 7.17735 8.98237Z" fill="#DFDFDF"/>
<path d="M7.48871 9.29629C7.52776 9.26596 7.56428 9.24441 7.59716 9.22266C7.62853 9.25937 7.65833 9.28795 7.67718 9.3291C7.70832 9.36861 7.71073 9.37638 7.73584 9.43005C7.67727 9.45907 7.68337 9.45193 7.63993 9.47304C7.59768 9.49358 7.57929 9.51627 7.5289 9.54883C7.48863 9.50316 7.51709 9.51973 7.46444 9.46794C7.43893 9.43689 7.4256 9.41218 7.38574 9.37239C7.44257 9.32381 7.45048 9.31726 7.48871 9.29629Z" fill="#DFDFDF"/>
<path d="M7.64288 9.52553C7.69004 9.50331 7.71034 9.4915 7.74971 9.47461C7.77621 9.5243 7.7833 9.53179 7.80215 9.57294C7.81383 9.60759 7.82272 9.62509 7.84297 9.68201C7.79899 9.69805 7.78563 9.70226 7.75679 9.71526C7.72731 9.72856 7.69615 9.74713 7.66198 9.76671C7.62982 9.70645 7.63071 9.71977 7.61212 9.68421C7.59472 9.64991 7.58302 9.6398 7.55127 9.59352C7.59836 9.55791 7.61276 9.54488 7.64288 9.52553Z" fill="#DFDFDF"/>
<path d="M7.75987 9.7593C7.80704 9.73708 7.80669 9.74247 7.84606 9.72559C7.87256 9.77528 7.89112 9.86307 7.90538 9.91683C7.91591 9.97786 7.9248 10.0458 7.92784 10.12C7.88616 10.128 7.90337 10.123 7.8669 10.1303C7.83063 10.1375 7.82867 10.1389 7.78991 10.155C7.7784 10.0741 7.76843 10.0295 7.74747 9.97419C7.73351 9.9353 7.7046 9.84719 7.67285 9.8009C7.71306 9.77907 7.72975 9.77865 7.75987 9.7593Z" fill="#DFDFDF"/>
<path d="M7.86197 10.1784C7.87654 10.175 7.89214 10.1724 7.92291 10.1699C7.92877 10.2758 7.92898 10.3017 7.92603 10.407C7.91821 10.5174 7.91677 10.6072 7.89917 10.7192C7.87925 10.7134 7.87469 10.7073 7.83823 10.7054C7.80181 10.7034 7.80397 10.7028 7.76636 10.7052C7.7927 10.6002 7.79359 10.5642 7.80139 10.4392C7.80463 10.3418 7.8044 10.3103 7.79654 10.2006C7.82528 10.1914 7.83758 10.1851 7.86197 10.1784Z" fill="#DFDFDF"/>
<path d="M7.81135 10.7572C7.82592 10.7538 7.86216 10.7582 7.89294 10.7556C7.8598 10.9418 7.83247 11.0113 7.76988 11.1258C7.69552 11.2339 7.62297 11.3351 7.52737 11.4379C7.51556 11.4297 7.50749 11.4189 7.49625 11.4081C7.48541 11.3977 7.47629 11.3945 7.46338 11.3827C7.57231 11.2387 7.59156 11.1958 7.65671 11.0639C7.71042 10.9321 7.71936 10.896 7.7551 10.752C7.78384 10.7634 7.78696 10.764 7.81135 10.7572Z" fill="#DFDFDF"/>
<path d="M7.4696 11.438C7.48823 11.45 7.47912 11.4458 7.50761 11.4639C7.46299 11.5171 7.43108 11.5475 7.34784 11.6299C7.28495 11.6761 7.26614 11.7163 7.13742 11.7682C7.12209 11.751 7.12144 11.7487 7.11399 11.7377C7.10681 11.7271 7.10377 11.7244 7.0957 11.7037C7.16105 11.6836 7.23834 11.638 7.28743 11.5886C7.36868 11.5188 7.38909 11.4873 7.44318 11.4189C7.4557 11.4271 7.46144 11.4301 7.4696 11.438Z" fill="#DFDFDF"/>
<path d="M7.06344 11.7564C7.07368 11.7726 7.0698 11.7773 7.07941 11.7964C7.02103 11.8312 7.00799 11.8341 6.86477 11.8621C6.68877 11.868 6.61463 11.8638 6.53198 11.8527C6.53497 11.8307 6.53524 11.8286 6.53622 11.8078C6.53714 11.7881 6.53458 11.7945 6.53614 11.7735C6.70072 11.7844 6.7507 11.7734 6.8158 11.7692C6.93292 11.7582 7.02123 11.7307 7.04905 11.7236C7.06157 11.7464 7.06014 11.7404 7.06344 11.7564Z" fill="#DFDFDF"/>
<path d="M6.48869 11.8117C6.48516 11.8291 6.48586 11.8234 6.48056 11.8483C6.34418 11.8246 6.34147 11.8275 6.17645 11.7935C6.05208 11.7581 6.01104 11.7313 5.93412 11.6904C5.92852 11.6632 5.93007 11.6665 5.93626 11.6551C5.9444 11.6402 5.93826 11.645 5.9567 11.6338C6.04815 11.6887 6.14611 11.7048 6.19859 11.7224C6.32375 11.7482 6.38567 11.7551 6.49149 11.7663C6.49024 11.7903 6.48998 11.7958 6.48869 11.8117Z" fill="#DFDFDF"/>
<path d="M5.89903 11.6197C5.87832 11.6353 5.87677 11.6426 5.85076 11.639C5.80827 11.6331 5.8028 11.6211 5.762 11.5878C5.742 11.5714 5.71092 11.5398 5.71711 11.5285C5.72526 11.5136 5.73901 11.4688 5.75705 11.4979C5.77284 11.5235 5.84015 11.563 5.88004 11.5903C5.91177 11.6121 5.90708 11.6136 5.89903 11.6197Z" fill="#DFDFDF"/>
<path d="M5.69508 11.4806C5.67093 11.4882 5.67699 11.493 5.65713 11.4758C5.64103 11.4619 5.62983 11.4384 5.6005 11.4039C5.58376 11.3843 5.55028 11.3276 5.54872 11.3148C5.54425 11.2781 5.56471 11.2539 5.58064 11.2843C5.60904 11.3385 5.64538 11.3952 5.69559 11.4409C5.72405 11.4668 5.7047 11.4776 5.69508 11.4806Z" fill="#DFDFDF"/>
<path d="M5.54799 11.2446C5.52385 11.2522 5.52646 11.257 5.5066 11.2398C5.4905 11.2259 5.4744 11.1896 5.4557 11.1484C5.4447 11.1242 5.42025 11.0879 5.42916 11.0639C5.43906 11.0373 5.47383 11.019 5.48287 11.0517C5.4992 11.1107 5.50457 11.1115 5.53245 11.1808C5.54319 11.2075 5.55762 11.2415 5.54799 11.2446Z" fill="#DFDFDF"/>
<path d="M5.46886 10.9932C5.45941 11.0113 5.44199 11.0091 5.41371 10.9964C5.39092 10.9862 5.39947 10.9502 5.39608 10.905C5.39425 10.8808 5.3893 10.8582 5.39592 10.8262C5.40167 10.7984 5.45415 10.7884 5.45766 10.8221C5.46022 10.8467 5.45659 10.861 5.46135 10.903C5.46906 10.971 5.47624 10.979 5.46886 10.9932Z" fill="#DFDFDF"/>
<path d="M5.44838 10.7549C5.44288 10.7703 5.42036 10.7652 5.40699 10.749C5.39106 10.7298 5.40996 10.6959 5.41115 10.6576C5.4119 10.6333 5.41868 10.6088 5.43164 10.5788C5.43969 10.5602 5.46875 10.558 5.46929 10.5919C5.46955 10.6084 5.46487 10.6299 5.46036 10.6659C5.45542 10.7054 5.45715 10.7304 5.44838 10.7549Z" fill="#DFDFDF"/>
<path d="M5.48844 10.5149C5.48295 10.5302 5.45844 10.5157 5.45394 10.4952C5.44718 10.4645 5.4685 10.4306 5.4776 10.3935C5.48524 10.3623 5.49929 10.3252 5.52447 10.3044C5.54284 10.2892 5.57606 10.2808 5.569 10.314C5.56353 10.3397 5.52673 10.3887 5.51419 10.4305C5.50274 10.4686 5.49722 10.4903 5.48844 10.5149Z" fill="#DFDFDF"/>
<path d="M5.63873 10.2421C5.62244 10.2427 5.60353 10.2473 5.60882 10.227C5.61353 10.2089 5.6311 10.2 5.66459 10.1734C5.68171 10.1599 5.71181 10.1351 5.72867 10.1268C5.74811 10.1171 5.78628 10.1051 5.77321 10.1364C5.76774 10.1495 5.75043 10.1549 5.71954 10.176C5.68665 10.1985 5.6498 10.2416 5.63873 10.2421Z" fill="#DFDFDF"/>
<path d="M14.9681 4.95845C15.0985 4.97682 15.1967 5.01263 15.328 5.0916C15.3703 5.11731 15.4098 5.13568 15.4171 5.13293C15.4245 5.13017 15.4327 5.10813 15.4364 5.0815C15.4401 5.05671 15.4483 5.02824 15.4548 5.01998C15.4731 4.99426 15.4906 5.01538 15.5246 5.1017C15.5402 5.14303 15.5576 5.18251 15.5622 5.18802C15.5787 5.20823 15.6008 5.20088 15.6274 5.16782C15.654 5.13384 15.6944 5.12374 15.7036 5.14854C15.7064 5.15588 15.7045 5.18527 15.699 5.21465C15.6825 5.30097 15.7091 5.31383 15.7844 5.25598C15.8496 5.20547 15.8744 5.19537 15.8992 5.20823C15.9249 5.222 15.924 5.24128 15.8909 5.3175C15.8625 5.38362 15.8606 5.43137 15.8882 5.3928C15.8955 5.3827 15.9295 5.35974 15.9644 5.34321C15.9993 5.32577 16.0535 5.2973 16.0856 5.27893C16.1178 5.26149 16.1618 5.24037 16.1839 5.2321C16.2243 5.21833 16.4428 5.18619 16.4612 5.19261C16.4667 5.19445 16.4364 5.21924 16.3951 5.24863C16.3042 5.31107 16.1297 5.47086 16.1297 5.49106C16.1297 5.503 16.1398 5.50483 16.2032 5.49932C16.2867 5.49198 16.2849 5.48922 16.2665 5.57646C16.2601 5.60676 16.2592 5.62696 16.2647 5.63247C16.2702 5.63798 16.2987 5.63615 16.3418 5.62696C16.3795 5.61962 16.4125 5.61319 16.4162 5.61319C16.43 5.61319 16.4236 5.68573 16.4043 5.74726C16.3859 5.80511 16.3859 5.81062 16.4006 5.82072C16.419 5.8345 16.4401 5.82807 16.5797 5.76379C16.6623 5.72522 16.6834 5.71879 16.7284 5.72063C16.7569 5.72155 16.7909 5.72798 16.8046 5.73532L16.8304 5.74818L16.7707 5.81246C16.7 5.88959 16.6283 5.99244 16.6173 6.03377C16.5971 6.10264 16.6651 6.11458 16.8937 6.08519C17.0186 6.06866 17.1031 6.07142 17.1444 6.09345C17.1766 6.10998 17.2867 6.21283 17.2867 6.22661C17.2867 6.2312 17.2335 6.23763 17.1683 6.24038C17.0315 6.24589 16.9323 6.26977 16.8506 6.31476C16.7734 6.357 16.7753 6.36619 16.8588 6.36619C16.9286 6.36619 16.969 6.37721 17.0058 6.40659C17.0232 6.42037 17.0232 6.42128 17.0058 6.44057C16.9791 6.46995 16.9277 6.49291 16.8643 6.50301C16.8322 6.50852 16.8046 6.51403 16.8028 6.51679C16.801 6.51862 16.8294 6.52505 16.8662 6.53056C16.9617 6.54617 17.0957 6.58566 17.1609 6.61872C17.2197 6.6481 17.2225 6.65177 17.2344 6.73717L17.2399 6.77207L17.2105 6.76564C17.1646 6.75554 16.9277 6.75003 16.8891 6.75829C16.8304 6.77115 16.8469 6.78401 16.9378 6.79503C17.0517 6.8088 17.1159 6.82166 17.1462 6.83727L17.1701 6.85012L17.1205 6.874C17.093 6.88777 17.0296 6.90706 16.9791 6.91716C16.7642 6.96124 16.7376 6.98603 16.9176 6.97685C17.0654 6.9695 17.1242 6.97501 17.1196 6.99797C17.115 7.02368 17.0241 7.06776 16.9295 7.09163C16.8717 7.10633 16.8937 7.11735 16.9883 7.12102C17.0737 7.12377 17.138 7.14581 17.1646 7.18163C17.1857 7.20826 17.1729 7.32947 17.1481 7.34508C17.1426 7.34784 17.1316 7.34416 17.1233 7.33682C17.115 7.32855 17.0774 7.30835 17.0397 7.28998C16.969 7.25601 16.9681 7.25601 16.8671 7.27162C16.8239 7.27805 16.7863 7.31386 16.7541 7.37998C16.7385 7.4112 16.7064 7.46079 16.6825 7.49017C16.6586 7.51956 16.6311 7.55353 16.6219 7.56547C16.6045 7.58659 16.6045 7.58751 16.6237 7.62608C16.6338 7.64812 16.6449 7.67291 16.6476 7.68117C16.6641 7.73811 16.9451 7.71882 17.1665 7.64536C17.2546 7.61598 17.385 7.5517 17.4438 7.50854L17.4888 7.47548V7.51129C17.4888 7.59945 17.4199 7.74913 17.351 7.81065L17.3069 7.85014L17.3519 7.93646C17.408 8.0439 17.4116 8.08522 17.3685 8.12838C17.3529 8.14491 17.3418 8.16328 17.3455 8.17062C17.3483 8.17797 17.3721 8.19633 17.3988 8.21103C17.4814 8.25786 17.4778 8.25327 17.4438 8.27071C17.4272 8.2799 17.3822 8.28908 17.3455 8.29184C17.3051 8.29551 17.273 8.30194 17.2675 8.30928C17.2445 8.33683 17.2923 8.39744 17.3749 8.44703C17.3887 8.45529 17.3786 8.45896 17.3189 8.46815C17.2785 8.47366 17.2197 8.47917 17.1885 8.48008L17.1316 8.48192L17.1508 8.51682C17.1738 8.55814 17.217 8.60314 17.2528 8.62517L17.2785 8.6417L17.25 8.64538C17.2344 8.64813 17.2023 8.64629 17.1784 8.64262C17.1095 8.6316 17.026 8.63344 17.0076 8.64629C16.9791 8.66742 17.003 8.71517 17.0746 8.78404L17.1371 8.84464L17.0967 8.85107C17.0204 8.86209 16.924 8.85015 16.8726 8.82352C16.846 8.81067 16.823 8.80057 16.8212 8.8024C16.8083 8.81618 16.8579 8.94933 16.89 8.98606C16.8974 8.99433 16.9011 9.00443 16.8974 9.00902C16.8937 9.01269 16.8441 9.01545 16.7881 9.01545C16.7082 9.01545 16.6779 9.01177 16.654 8.99892C16.6366 8.99065 16.621 8.98331 16.6192 8.98331C16.6182 8.98331 16.6164 9.00259 16.6164 9.02647C16.6164 9.05769 16.6228 9.07697 16.6403 9.09993L16.6632 9.13023H16.6375C16.5778 9.12931 16.4364 9.0834 16.3859 9.04667C16.3528 9.02371 16.3501 9.02463 16.3501 9.05861C16.351 9.09717 16.3712 9.15319 16.3923 9.17706C16.4116 9.1991 16.407 9.1991 16.317 9.17615C16.2362 9.15594 16.1646 9.12748 16.1279 9.10177C16.0939 9.07697 16.0902 9.07973 16.0976 9.11829C16.1058 9.16421 16.1233 9.19084 16.1582 9.20921C16.1738 9.21655 16.1848 9.22573 16.182 9.22757C16.1747 9.23584 15.9809 9.20553 15.9369 9.18992C15.9148 9.18257 15.8891 9.1688 15.8799 9.16054C15.8643 9.14676 15.8634 9.14676 15.8634 9.1688C15.8634 9.18166 15.8735 9.21104 15.8864 9.23492C15.8992 9.25879 15.9093 9.27991 15.9093 9.28267C15.9093 9.29001 15.8588 9.2744 15.8 9.24869C15.7679 9.234 15.7302 9.22206 15.7165 9.22206C15.6853 9.22206 15.6485 9.25053 15.6201 9.29552C15.6044 9.32032 15.5806 9.33868 15.5347 9.36164L15.4704 9.39378L15.4667 9.35613C15.4621 9.32215 15.3106 8.92362 15.2959 8.90801C15.2895 8.90158 15.1049 9.0283 14.9267 9.16054C14.8193 9.24043 14.5723 9.48561 14.4997 9.58478C14.3005 9.8566 14.2353 10.0439 14.2344 10.347C14.2344 10.5141 14.2454 10.6032 14.2839 10.7639C14.3684 11.1073 14.5649 11.4342 14.7881 11.5995C14.935 11.7088 15.1086 11.7455 15.4318 11.7354C15.823 11.7235 16.0673 11.6417 16.2482 11.4645C16.3822 11.3323 16.4704 11.1596 16.5071 10.9576C16.5126 10.9246 16.5172 10.8438 16.5172 10.7786C16.5172 10.5545 16.4667 10.3993 16.3565 10.2808C16.261 10.1789 16.1591 10.1229 16.0287 10.1027C15.9047 10.0834 15.7633 10.1247 15.6761 10.2046C15.6155 10.2606 15.6127 10.2873 15.6605 10.3828C15.7027 10.4682 15.7064 10.4902 15.6797 10.5168C15.6549 10.5416 15.6035 10.5407 15.5448 10.5123C15.4594 10.4728 15.4171 10.3763 15.4245 10.2423C15.4318 10.122 15.4878 10.0439 15.6145 9.97965C15.7376 9.91812 15.8 9.90619 15.992 9.9071C16.1508 9.9071 16.1674 9.90894 16.2445 9.93282C16.3988 9.97965 16.4924 10.0421 16.565 10.1431C16.7303 10.3763 16.8212 10.7767 16.7679 11.0357C16.7266 11.2331 16.6164 11.4471 16.463 11.6234C16.2041 11.9227 15.8606 12.0596 15.3675 12.0596C15.002 12.0596 14.7431 11.9898 14.486 11.8227C14.1995 11.6372 14.014 11.3966 13.8569 11.0081C13.8147 10.9016 13.7982 10.8355 13.7908 10.7437C13.7881 10.6987 13.7807 10.6619 13.7725 10.6528C13.7357 10.6105 13.7229 10.4902 13.7458 10.4122L13.7596 10.3681L13.7311 10.3433C13.6806 10.2983 13.6861 10.201 13.7431 10.1358L13.7697 10.1055L13.7394 10.0752C13.6999 10.0347 13.6825 9.95853 13.6898 9.85752C13.6944 9.78773 13.7256 9.69039 13.7431 9.69039C13.7614 9.69039 13.7495 9.66559 13.7229 9.64998C13.6815 9.62519 13.6595 9.58387 13.6595 9.52877C13.6595 9.41766 13.7054 9.24685 13.7394 9.234C13.7532 9.22849 13.7559 9.2037 13.7431 9.2037C13.722 9.2037 13.6935 9.11738 13.6889 9.03932C13.6834 8.94106 13.7027 8.86577 13.7431 8.82536L13.7697 8.79781L13.7412 8.73904C13.7164 8.68854 13.7128 8.67384 13.7174 8.6316C13.7275 8.53426 13.8349 8.35428 13.9157 8.30102C13.9451 8.28173 13.9534 8.27071 13.9534 8.24959C13.9534 8.18807 14.0039 8.09716 14.0883 8.00625C14.1765 7.91258 14.205 7.87034 14.2233 7.80422C14.2362 7.76198 14.25 7.73994 14.2885 7.70138C14.3335 7.65638 14.429 7.59945 14.486 7.58475C14.4979 7.582 14.5043 7.57282 14.5043 7.55812C14.5053 7.49935 14.5778 7.4011 14.6421 7.37171C14.6742 7.35702 14.6788 7.35151 14.6788 7.32488C14.6788 7.28723 14.71 7.24958 14.7835 7.19907C14.8533 7.15224 14.9635 7.12377 15.1334 7.10908C15.4906 7.0797 15.6494 7.02001 15.8175 6.85288C15.9194 6.75187 15.9589 6.68391 15.9956 6.54984C16.0259 6.43873 16.0278 6.33496 16.0002 6.25415C15.9809 6.19722 15.9194 6.08152 15.9084 6.08152C15.9047 6.08152 15.9102 6.11182 15.9203 6.14763C15.9442 6.23487 15.947 6.37812 15.9249 6.44791C15.8946 6.54525 15.8349 6.6178 15.7514 6.66096C15.6944 6.69034 15.6669 6.69677 15.5695 6.70595C15.4685 6.71514 15.4006 6.73534 15.3675 6.76564C15.3179 6.81156 15.2068 6.81707 15.1003 6.78033C15.0728 6.77023 15.0213 6.75921 14.9855 6.75646L14.9194 6.75003L14.834 6.80972C14.7458 6.87033 14.3648 7.08521 14.2977 7.11184C14.1756 7.1605 14.0378 7.12653 13.98 7.03378C13.9332 6.9594 13.9754 6.88961 14.1747 6.70963C14.3363 6.56454 14.3749 6.51495 14.396 6.43047C14.4052 6.39465 14.4345 6.3166 14.463 6.25783C14.53 6.11366 14.531 6.08886 14.4676 6.02275C14.4428 5.99612 14.4153 5.95938 14.4079 5.9401C14.3932 5.90612 14.3868 5.82899 14.3969 5.81797C14.4024 5.81338 14.4639 5.82623 14.4961 5.83817C14.5062 5.84184 14.508 5.82807 14.5053 5.76471C14.5034 5.71512 14.5071 5.67563 14.5135 5.65819L14.5255 5.63064L14.5585 5.66278C14.5925 5.69584 14.6173 5.7041 14.6283 5.68665C14.6311 5.68206 14.6375 5.65543 14.6421 5.62788C14.6513 5.57003 14.688 5.48004 14.6972 5.49106C14.7008 5.49473 14.7091 5.51401 14.7155 5.53238C14.7211 5.55166 14.7293 5.56728 14.7339 5.56728C14.7376 5.56728 14.744 5.54524 14.7477 5.51861C14.7578 5.43963 14.7688 5.40658 14.7936 5.38362C14.8138 5.36433 14.8193 5.36342 14.8257 5.37444C14.8303 5.38178 14.8349 5.39831 14.8349 5.41117C14.8349 5.45157 14.8606 5.5333 14.8946 5.60217C14.9607 5.7344 15.0232 5.72155 15.1517 5.55166C15.2252 5.45433 15.2362 5.42402 15.216 5.37994C15.1673 5.2771 14.9635 5.13844 14.7716 5.07875C14.7357 5.06773 14.7064 5.05579 14.7064 5.05212C14.7064 5.03467 14.7523 4.99335 14.7927 4.97406C14.8386 4.95294 14.8919 4.94835 14.9681 4.95845Z" fill="#DFDFDF"/>
<path d="M16.8653 6.78306C16.807 6.75065 17.0899 6.75576 17.1497 6.75638C17.1902 6.76859 17.2274 6.78624 17.2399 6.78048C17.2523 6.77471 17.2423 6.72948 17.2297 6.65262C17.1852 6.61608 17.139 6.59648 17.09 6.58217C17.0432 6.56557 17.0019 6.55469 16.9485 6.53766C16.8973 6.53154 16.8807 6.53388 16.8079 6.51799C16.8933 6.5044 16.954 6.51483 17.0389 6.42535C17.0046 6.40471 16.9911 6.37857 16.9498 6.36866C16.9085 6.35981 16.894 6.36121 16.8601 6.36121C16.7951 6.36121 16.7761 6.37309 16.8196 6.34173C16.8631 6.31038 16.9461 6.27478 17.0394 6.25782C17.1214 6.24369 17.2457 6.24325 17.3057 6.24084C17.2782 6.18647 17.227 6.15468 17.1959 6.12076C17.145 6.05858 17.0281 6.05997 16.8529 6.08824C16.5759 6.12216 16.5589 6.08824 16.7342 5.86778L16.8455 5.74519L16.7749 5.71714L16.6977 5.71505C16.6242 5.73201 16.5307 5.78864 16.4741 5.81125C16.3837 5.85082 16.3886 5.81356 16.4169 5.74007C16.4395 5.67789 16.4231 5.67822 16.4318 5.6094C16.3866 5.6094 16.2674 5.65464 16.2674 5.62638C16.2674 5.59246 16.283 5.56976 16.2918 5.49175C16.2522 5.49175 16.1635 5.50238 16.144 5.49817C16.1245 5.49396 16.1711 5.44899 16.2187 5.40638L16.341 5.29671L16.5139 5.18017L16.2574 5.21229C16.1783 5.21229 16.0531 5.29826 15.9867 5.33288C15.9534 5.35019 15.9219 5.35555 15.902 5.37649C15.8563 5.39344 15.9112 5.4387 15.8781 5.39702C15.8612 5.3667 15.9394 5.27705 15.9288 5.2302C15.8727 5.12334 15.7471 5.31899 15.7198 5.28738C15.6675 5.28173 15.7454 5.15997 15.7039 5.13529C15.6447 5.10006 15.611 5.22106 15.5792 5.19967C15.5473 5.17827 15.5267 5.02317 15.4763 5.00369C15.426 4.9842 15.4465 5.16197 15.4126 5.13795C15.3391 5.08707 15.18 4.98725 15.0492 4.96914C14.9838 4.96008 14.9076 4.94128 14.8431 4.9529C14.7785 4.96453 14.7177 5.00888 14.7001 5.06307C14.787 5.08842 14.8007 5.09075 14.8912 5.13032C14.9816 5.16424 15.1003 5.24903 15.1569 5.30556C15.253 5.41297 15.253 5.42427 15.1456 5.55994C15.0099 5.74648 14.9421 5.73518 14.8686 5.52037C14.8375 5.43558 14.8472 5.38171 14.8324 5.35285C14.8239 5.35907 14.793 5.37188 14.7743 5.40099C14.758 5.42644 14.7435 5.53899 14.7437 5.56836C14.7301 5.56008 14.7174 5.52312 14.7046 5.46384C14.6706 5.52934 14.6609 5.55091 14.6496 5.582C14.6383 5.61309 14.6481 5.69561 14.6142 5.69561C14.5944 5.69561 14.5704 5.65741 14.5283 5.62019C14.4919 5.6885 14.4971 5.77384 14.5116 5.83854C14.4831 5.82926 14.4247 5.80936 14.3964 5.8067C14.3875 5.84075 14.3881 5.88172 14.395 5.91271C14.4156 5.95703 14.422 5.99521 14.4672 6.02912C14.5351 6.08565 14.5351 6.11957 14.4672 6.24958C14.422 6.33438 14.3881 6.43048 14.3881 6.47005C14.3881 6.50396 14.2863 6.61702 14.1563 6.72442C13.998 6.86009 13.9415 6.94488 13.9641 7.00707C14.0206 7.14273 14.1959 7.1823 14.3542 7.09751C14.4277 7.05794 14.5916 6.9675 14.7216 6.89401C14.8092 6.84596 14.8669 6.79357 14.9203 6.75997C15.0062 6.75882 15.0717 6.76672 15.1456 6.80356C15.2586 6.82052 15.3491 6.80922 15.3717 6.7753C15.3943 6.74138 15.4847 6.71312 15.5695 6.71312C15.7956 6.71312 15.9437 6.56357 15.9525 6.34462C15.9559 6.24947 15.9431 6.18935 15.9115 6.08221C16.0363 6.2793 16.0436 6.37017 15.9988 6.54405C15.9448 6.78675 15.6939 7.09751 15.1399 7.10317C15.0353 7.10599 14.9477 7.13565 14.8488 7.15546C14.7856 7.1929 14.6507 7.26458 14.6781 7.35445C14.5756 7.38181 14.5052 7.48815 14.5037 7.5754C14.2518 7.65076 14.2185 7.79847 14.2185 7.82673C14.2185 7.85499 14.1563 7.93979 14.0772 8.01327C13.998 8.08676 13.9456 8.20557 13.9553 8.27109C13.8677 8.31632 13.8363 8.38238 13.783 8.45419C13.7379 8.54589 13.6626 8.66 13.7736 8.79716C13.6574 8.84024 13.6625 9.16916 13.7553 9.21679C13.687 9.26368 13.6724 9.37811 13.6578 9.53388C13.6572 9.5863 13.6741 9.63321 13.7574 9.67468C13.7352 9.68586 13.7175 9.71657 13.7055 9.75672C13.6934 9.79688 13.6869 9.84648 13.687 9.89543C13.687 9.94439 13.6937 9.9927 13.7079 10.0303C13.7221 10.0679 13.744 10.0947 13.7744 10.1008C13.6707 10.1685 13.6732 10.3477 13.7626 10.3661C13.7125 10.4576 13.7282 10.6374 13.7921 10.6727C13.7781 10.8572 13.8512 10.9881 13.8899 11.0856C13.9673 11.2806 14.0692 11.446 14.197 11.5848C14.3248 11.7237 14.4785 11.836 14.6594 11.925C15.0551 12.1172 15.7278 12.1116 16.1122 11.9137C16.4514 11.7385 16.7284 11.3598 16.7849 10.9923C16.8358 10.6645 16.6775 10.184 16.474 10.0313C16.1518 9.79391 15.5243 9.87305 15.4339 10.1613C15.3886 10.3083 15.4452 10.4836 15.5526 10.5231C15.6939 10.574 15.7504 10.5062 15.6713 10.3818C15.6147 10.2857 15.6204 10.2574 15.7108 10.184C15.9822 9.98611 16.3892 10.1613 16.4853 10.5118C16.604 10.9641 16.4174 11.4219 16.0387 11.6085C15.7222 11.7668 15.0834 11.7781 14.8573 11.6367C14.4163 11.3597 14.1394 10.6079 14.275 10.0426C14.3485 9.73173 14.6538 9.34734 15.0495 9.08166L15.2982 8.90642L15.3886 9.13819C15.4367 9.25972 15.4791 9.32721 15.4676 9.404C15.5411 9.3592 15.5676 9.36729 15.6183 9.31957C15.6409 9.2687 15.6826 9.21167 15.7448 9.22863C15.7589 9.23287 15.8446 9.28331 15.9299 9.29493C15.9005 9.22625 15.8707 9.22428 15.8742 9.1558C15.9199 9.21412 16.051 9.22137 16.2209 9.23934C16.088 9.16326 16.1132 9.14837 16.1033 9.08441C16.1542 9.14196 16.2812 9.17783 16.428 9.20425C16.3523 9.12514 16.3652 9.10081 16.3578 9.02879C16.4323 9.10205 16.6136 9.14298 16.6809 9.13866C16.622 9.07011 16.621 9.07102 16.6222 8.98625C16.6883 9.03815 16.8105 9.03084 16.9198 9.0115C16.8524 8.93939 16.8318 8.85984 16.8279 8.79939C16.9165 8.88175 17.0616 8.864 17.1564 8.84828C17.0822 8.78241 17.0372 8.74531 17.0141 8.70398C16.9872 8.65204 17.0053 8.63508 17.0958 8.63508C17.158 8.63508 17.201 8.67495 17.2928 8.6398C17.1597 8.5872 17.1236 8.41716 17.0937 8.41373C16.9747 8.40006 17.2593 8.63038 17.0045 8.58188C16.9408 8.57274 16.9119 8.57385 16.8647 8.57656C16.8977 8.62514 16.9034 8.62714 16.9319 8.66335C16.9638 8.7105 16.9702 8.77194 17.0459 8.81169C16.9817 8.81206 16.9291 8.81793 16.8866 8.78416C16.8441 8.7504 16.8436 8.73665 16.7539 8.67208C16.7417 8.7397 16.7477 8.75323 16.7544 8.79803C16.7658 8.87559 16.7808 8.89599 16.8041 8.95731C16.7068 8.97989 16.6469 8.94918 16.6299 8.90716C16.6045 8.88061 16.5681 8.81297 16.5182 8.79929C16.498 8.86023 16.5195 8.86259 16.527 8.9142C16.5482 8.97224 16.5535 9.01358 16.5717 9.06804C16.4728 9.03992 16.4122 9.00428 16.3496 8.92903C16.2422 8.83859 16.2422 8.83859 16.2761 8.95729C16.2901 9.03643 16.2867 9.05413 16.3154 9.12243C16.2203 9.10585 16.132 9.06187 16.0839 8.98556C16.0274 8.90077 16.0218 8.90642 16.0444 9.01382C16.0476 9.08608 16.035 9.09777 16.0528 9.16766C15.9664 9.14939 15.903 9.11557 15.8578 9.04209C15.8013 8.9573 15.7956 8.96295 15.8182 9.07035C15.8324 9.13819 15.8064 9.15217 15.8465 9.22295C15.7489 9.18132 15.7448 9.19189 15.7108 9.13819C15.6882 9.09296 15.651 9.15335 15.6057 9.23814C15.569 9.30315 15.5392 9.30812 15.5118 9.31129C15.505 9.26169 15.4847 9.22863 15.4395 9.12123C15.3886 8.99686 15.3547 8.89511 15.3604 8.88381C15.3717 8.87816 15.513 8.80467 15.6713 8.71988C15.8352 8.64074 15.9709 8.55029 15.9709 8.51637C15.9709 8.48811 15.9991 8.4655 16.0387 8.4655C16.1292 8.4655 16.3666 8.23938 16.3666 8.15459C16.3666 8.11502 16.4175 8.01892 16.4796 7.94544C16.5644 7.83238 16.6605 7.79281 16.9149 7.76455C17.0947 7.73276 17.2456 7.68541 17.3389 7.63453C17.3855 7.61012 17.3919 7.58947 17.4277 7.57556C17.4291 7.60524 17.4095 7.69671 17.3445 7.75889C17.3078 7.79846 17.2701 7.80705 17.2367 7.8277C17.2682 7.85971 17.2908 7.92 17.3163 7.9624C17.3728 8.05284 17.3728 8.08111 17.2936 8.10937C17.2202 8.13763 17.2202 8.15459 17.2823 8.19416C17.3078 8.21395 17.3461 8.22755 17.3729 8.24484C17.3309 8.25526 17.298 8.2579 17.2179 8.23742C17.1161 8.17581 17.1083 8.194 17.1523 8.25634C17.1884 8.31074 17.2127 8.37149 17.2651 8.4137C17.2051 8.4169 17.1778 8.40614 17.1241 8.38636C17.0675 8.36375 17.0197 8.34859 17.0585 8.43633C17.0954 8.49767 17.075 8.40335 17.1101 8.48427C17.1704 8.49593 17.3075 8.48154 17.4077 8.4573C17.3175 8.40783 17.2846 8.36916 17.2732 8.34372C17.2563 8.29285 17.3049 8.29591 17.3502 8.29591C17.37 8.29591 17.4354 8.30382 17.4842 8.2496C17.4436 8.2275 17.3819 8.20751 17.3447 8.16089C17.4606 8.09406 17.3933 7.9928 17.3663 7.9447C17.3439 7.90626 17.3421 7.8859 17.3161 7.846C17.3518 7.8434 17.4039 7.77585 17.4293 7.73063C17.483 7.63453 17.5063 7.54322 17.4985 7.46466C17.4219 7.52375 17.3922 7.54282 17.3445 7.56653C17.2635 7.61495 17.0897 7.67588 16.9361 7.69911C16.7826 7.72233 16.6492 7.71932 16.6492 7.66279C16.6492 7.60627 16.5878 7.61096 16.6322 7.56576C16.7154 7.48114 16.7602 7.40514 16.7861 7.33027C16.8346 7.27163 16.8958 7.2673 16.9769 7.26645C17.0199 7.28946 17.1038 7.30949 17.1426 7.36547C17.179 7.34803 17.1978 7.23577 17.1793 7.18234C17.1714 7.15939 17.0778 7.11543 17.025 7.11358C16.9722 7.11172 16.9442 7.12674 16.8977 7.10706C16.9524 7.09129 16.9823 7.09221 17.0393 7.0638C17.09 7.03853 17.1392 7.02351 17.1325 6.99133C17.1243 6.95151 16.8439 6.97866 16.8043 6.98007C16.7718 6.98149 16.8656 6.94257 16.9348 6.93382C16.9801 6.91757 17.0812 6.92392 17.1835 6.84802C17.108 6.79952 17.0683 6.81992 17.0064 6.7971M16.7735 6.80638C16.7962 6.85433 17.0688 6.84128 16.993 6.86108C16.993 6.86108 16.7825 6.89987 16.7128 6.95968C16.7005 7.01261 16.7739 7.03608 16.7739 7.03608L17.0409 7.00763C17.0438 7.04418 16.7814 7.05796 16.7904 7.11286C16.7934 7.13066 16.7759 7.1642 16.8632 7.15425C16.9427 7.15789 17.0403 7.1498 17.0993 7.18034C17.1422 7.20172 17.1474 7.24928 17.1339 7.28998C17.0951 7.25834 17.0333 7.23228 16.9994 7.22097C16.9269 7.2116 16.8746 7.22647 16.8256 7.24741C16.7767 7.26835 16.7427 7.29077 16.7001 7.3745C16.6718 7.44799 16.5814 7.53278 16.4966 7.5667C16.4061 7.59496 16.2616 7.67238 16.197 7.75889C16.1253 7.85479 16.0718 7.93251 15.8992 8.03224C15.7296 8.18487 15.8761 8.13061 15.8034 8.14176C15.6088 8.17165 15.5017 8.21677 15.4678 8.26199C15.4282 8.30722 15.3378 8.35809 15.2643 8.37505C15.1851 8.39766 15.123 8.43723 15.123 8.4655C15.123 8.49941 15.0834 8.52202 15.0325 8.52202C14.9081 8.52202 14.3542 9.10427 14.2524 9.33603C14.0602 9.7713 14.0263 9.92958 14.0263 10.3535C14.032 10.6362 14.0659 10.8906 14.1167 11.0093C14.2298 11.275 14.7119 11.8088 14.8419 11.8088C14.8649 11.8153 14.8556 11.8129 14.8829 11.8173C14.8954 11.836 14.9025 11.8378 14.9467 11.8584C15.0109 11.8905 15.0932 11.9062 15.1935 11.909C15.2939 11.9119 15.4123 11.9019 15.5487 11.8828C15.6852 11.8637 15.819 11.8354 15.9187 11.8023C16.0184 11.7692 16.055 11.7514 16.0839 11.7208C16.0926 11.7117 16.1155 11.6999 16.1117 11.6602C16.1322 11.6788 16.1799 11.6744 16.2368 11.6229C16.2831 11.581 16.3276 11.5615 16.3044 11.5194C16.3656 11.5131 16.376 11.4871 16.4242 11.4193C16.4559 11.3748 16.4919 11.3354 16.4765 11.2723C16.5186 11.2807 16.5395 11.2218 16.5636 11.1659C16.5848 11.117 16.6225 11.0503 16.5756 11.0262C16.6296 11.0275 16.6194 10.9615 16.626 10.9156C16.6325 10.8697 16.6461 10.7985 16.5917 10.786C16.6474 10.7684 16.6235 10.7108 16.6152 10.6592C16.6034 10.5867 16.5967 10.5476 16.5505 10.538C16.5918 10.5195 16.5666 10.4515 16.5394 10.3587C16.5175 10.2844 16.4674 10.2572 16.4098 10.2696C16.4649 10.2276 16.3643 10.159 16.3427 10.1409C16.2826 10.0908 16.2143 10.0722 16.2009 10.1048C16.2067 10.0437 15.9936 10.0384 15.9121 10.0476C15.8305 10.0568 15.7589 10.0935 15.6826 10.1557C15.5639 10.2518 15.5582 10.2801 15.6204 10.3818C15.6939 10.5118 15.6374 10.5401 15.53 10.4327C15.4169 10.3196 15.4508 10.1783 15.6148 10.0483C15.7391 9.94654 15.8239 9.92958 16.0387 9.94654C16.4175 9.98611 16.5701 10.1048 16.6775 10.4553C16.8471 11.0375 16.6153 11.6141 16.1065 11.8629C15.8804 11.9703 15.7448 11.9985 15.3773 11.9985C14.8403 11.9929 14.5068 11.8629 14.1959 11.518C14.0037 11.3089 13.7889 10.7625 13.8567 10.6607C13.9671 10.6138 13.8567 10.6136 13.8228 10.6136C13.7776 10.6136 13.7606 10.3794 13.8448 10.3368C13.6768 10.3374 13.7658 10.1275 13.8669 10.0861C13.7764 10.084 13.7316 9.99543 13.7289 9.90175C13.7262 9.80807 13.7656 9.70927 13.8435 9.68661C13.9022 9.66953 13.8481 9.65392 13.793 9.64139C13.7273 9.62644 13.702 9.61661 13.7101 9.49953C13.7199 9.42279 13.7469 9.29452 13.8025 9.27088C13.8598 9.24655 13.9489 9.23947 13.9986 9.23502C13.9383 9.21555 13.8807 9.20425 13.8341 9.20037C13.7324 9.15797 13.698 8.95219 13.7895 8.89457C13.881 8.83695 14.1113 8.9502 14.1234 8.90347C14.0785 8.85434 13.9394 8.84225 13.8777 8.79734C13.8021 8.72302 13.7324 8.65204 13.8567 8.4768C13.9189 8.38071 13.909 8.35689 13.981 8.33033C14.0764 8.32648 14.2811 8.45495 14.4377 8.44996C14.366 8.39027 14.1221 8.34236 14.0442 8.28592C13.9664 8.22949 14.0255 8.14181 14.1054 8.04154C14.2015 7.95674 14.2411 7.95109 14.3655 8.00762C14.4503 8.04154 14.5845 8.07685 14.7299 8.10118C14.6734 8.04293 14.4163 7.97935 14.3598 7.93413C14.2524 7.85499 14.2524 7.82181 14.3542 7.70875L14.5064 7.64617L14.6764 7.73628C14.8007 7.79281 14.9932 7.85991 14.9932 7.84295C14.9932 7.83165 14.8177 7.75324 14.7273 7.70237C14.6312 7.65149 14.5726 7.578 14.5726 7.53843C14.5726 7.39711 14.703 7.37834 14.9029 7.51764C15.0046 7.577 15.2586 7.65445 15.2738 7.62588C15.2926 7.59044 15.1035 7.55576 15.0099 7.51017C14.917 7.45716 14.7425 7.37024 14.7425 7.32502C14.7654 7.24834 14.8686 7.19361 15.3151 7.14273C15.6487 7.10316 15.8239 6.99576 15.9709 6.75269C16.1518 6.45874 16.1179 6.20436 15.8748 5.9726L15.6713 5.7804L15.79 5.96129C16.0104 6.27785 15.903 6.65659 15.5921 6.65659C15.5186 6.65659 15.4112 6.68485 15.3547 6.72442C15.2756 6.76965 15.2067 6.75988 15.1402 6.74032L15.0322 6.70851L14.9948 6.70043L15.1512 6.59441C15.3265 6.50962 15.3999 6.34569 15.3038 6.24959C15.2699 6.21567 15.2586 6.24959 15.2756 6.34003C15.2982 6.44744 15.2756 6.49831 15.1964 6.52658C15.1399 6.55484 15.0269 6.61702 14.9534 6.67355C14.7103 6.84879 14.3824 7.05229 14.3485 7.05229C14.3316 7.05229 14.3598 6.99576 14.422 6.92227C14.4842 6.85444 14.4503 6.86575 14.3485 6.96184C14.1959 7.09751 14.1507 7.11447 14.0772 7.05229C13.9528 6.95054 13.9698 6.90532 14.1846 6.76965C14.3146 6.69616 14.405 6.57745 14.4503 6.44178C14.4842 6.32873 14.5407 6.20436 14.5633 6.17045C14.5972 6.13088 14.5803 6.08 14.5294 6.03478C14.4814 5.99521 14.4333 5.9033 14.4384 5.86965C14.4608 5.87386 14.4777 5.88011 14.5011 5.89346C14.5294 5.91042 14.5577 5.88781 14.5577 5.83693C14.5577 5.81149 14.5381 5.71512 14.5434 5.69146C14.5567 5.71598 14.5972 5.77192 14.6142 5.7804C14.6425 5.79736 14.6764 5.7804 14.6764 5.74083C14.6849 5.65887 14.6954 5.63488 14.7024 5.59632C14.714 5.6174 14.7726 5.70189 14.7991 5.72218C14.7765 5.65978 14.7944 5.45951 14.8041 5.4409C14.8057 5.49456 14.836 5.58993 14.8451 5.62442C14.9051 5.70904 14.9197 5.72754 14.9872 5.74801C15.0445 5.75013 15.0721 5.7267 15.1512 5.63343C15.2304 5.53733 15.2788 5.46532 15.2834 5.41633C15.2834 5.36545 15.1157 5.16424 14.9171 5.08854C14.8329 5.05799 14.8215 5.04932 14.7699 5.03555C14.784 5.03238 14.8046 5.01275 14.866 5.00129C14.8981 4.99529 15.0282 4.99574 15.1122 5.03562C15.1874 5.05971 15.361 5.13387 15.4401 5.21301C15.483 5.22023 15.4343 5.07583 15.4844 5.09668C15.5345 5.11752 15.5147 5.26792 15.557 5.29048C15.6204 5.3243 15.6306 5.21325 15.6589 5.21325C15.6872 5.21607 15.6361 5.34499 15.6886 5.37503C15.723 5.39469 15.842 5.24864 15.8561 5.27125C15.8665 5.28889 15.7642 5.40967 15.7918 5.42762C15.8259 5.45446 15.8226 5.4904 15.8979 5.46056C15.9597 5.42941 16.2325 5.25815 16.3027 5.26306C16.2375 5.30583 16.1869 5.3578 16.1162 5.42239C16.0031 5.54109 15.9711 5.55589 16.0616 5.56965C16.1456 5.55589 16.1664 5.53048 16.2078 5.55853C16.2286 5.57255 16.1889 5.67957 16.217 5.69669C16.245 5.71381 16.3415 5.67617 16.3522 5.6873C16.3953 5.73181 16.3187 5.79147 16.3441 5.85648C16.378 5.95257 16.395 5.95257 16.508 5.87343C16.5985 5.80843 16.7141 5.76191 16.7176 5.78652C16.7221 5.81884 16.6946 5.83386 16.6437 5.90735C16.4798 6.13912 16.525 6.18434 16.8472 6.15042C16.8472 6.15042 17.1096 6.07389 17.1882 6.19383C17.1105 6.17926 16.9246 6.21626 16.875 6.23777C16.8481 6.24943 16.7899 6.28427 16.7397 6.3242C16.7146 6.34416 16.7291 6.35985 16.7443 6.40398C16.8031 6.42518 16.8672 6.43812 16.9366 6.43424C16.7268 6.51871 16.7455 6.44889 16.6695 6.4913C16.7241 6.58143 16.7676 6.57476 16.9545 6.60092C17.0007 6.62304 17.0455 6.6335 17.0964 6.64763C17.1486 6.66177 17.181 6.70232 17.1681 6.70694C17.1552 6.71156 17.1039 6.69861 17.0463 6.69292C16.9787 6.6938 17.0137 6.69321 16.8623 6.7088C16.7915 6.72607 16.7598 6.77804 16.7735 6.80638Z" fill="black"/>
<path d="M14.8498 6.23949C14.8498 6.27252 14.869 6.29929 14.8927 6.29929C14.9164 6.29929 14.9355 6.27252 14.9355 6.23949C14.9355 6.20646 14.9164 6.17969 14.8927 6.17969C14.8696 6.17969 14.8507 6.20519 14.8499 6.23738" fill="black"/>
<path d="M14.764 6.28396C14.7911 6.35261 14.8708 6.38704 14.942 6.36087C15.0131 6.3347 15.0488 6.25783 15.0217 6.18919C14.9946 6.12054 14.9149 6.08611 14.8437 6.11228C14.7727 6.13841 14.7369 6.21512 14.7639 6.28373" stroke="black" stroke-width="0.0408"/>
<path d="M15.2627 6.06187C15.0843 5.96778 14.8377 6.11378 14.8377 6.11378" stroke="black" stroke-width="0.0408"/>
<path d="M16.6006 7.68137C16.6069 7.65104 16.5931 7.63598 16.544 7.60449C16.4834 7.61201 16.3782 7.65511 16.3115 7.71418C16.1979 7.81481 16.1806 7.85231 16.1166 7.93842C16.1427 7.99015 16.1597 8.00133 16.2092 8.04955C16.2596 8.08249 16.2894 8.1025 16.3235 8.11884C16.3508 8.03424 16.384 7.99241 16.4594 7.8952C16.4946 7.84144 16.5988 7.80051 16.6516 7.76071C16.6402 7.71862 16.6193 7.71532 16.6006 7.68137Z" fill="#DFDFDF"/>
<path d="M16.1755 8.08038C16.1235 8.0468 16.1097 7.99929 16.0736 7.97754C16.026 7.99803 16.0383 8.0039 15.9611 8.0418C15.878 8.09429 15.9081 8.0826 15.844 8.16871C15.8702 8.22044 15.8839 8.2446 15.9237 8.2993C15.9675 8.33874 15.9681 8.36848 16.0088 8.41727C16.0848 8.39755 16.1342 8.3687 16.1933 8.30069C16.235 8.25018 16.2841 8.24818 16.3044 8.16296C16.2509 8.12735 16.2073 8.11108 16.1755 8.08038Z" fill="#DFDFDF"/>
<path d="M15.8803 8.32117C15.8413 8.26813 15.8339 8.23036 15.8011 8.19238C15.7437 8.1999 15.6977 8.20901 15.6302 8.23069C15.5374 8.25074 15.5253 8.28122 15.4774 8.33165C15.5036 8.38338 15.5076 8.44971 15.5279 8.54335C15.5425 8.60874 15.5561 8.64497 15.5838 8.70349C15.6598 8.6708 15.7157 8.64195 15.7813 8.59989C15.849 8.55911 15.9142 8.51818 15.9443 8.43296C15.9102 8.3714 15.912 8.35188 15.8803 8.32117Z" fill="#DFDFDF"/>
<path d="M15.4748 8.57287C15.4584 8.50036 15.4608 8.42365 15.4247 8.36621C15.3674 8.37372 15.3765 8.39257 15.309 8.41425C15.2389 8.44403 15.1911 8.4518 15.153 8.52819C15.2148 8.5864 15.2286 8.57811 15.2489 8.67175C15.2635 8.73715 15.2349 8.82853 15.2626 8.88705C15.3386 8.85436 15.3458 8.83524 15.4114 8.79319C15.4791 8.75241 15.486 8.76987 15.5291 8.72683C15.5047 8.65229 15.4903 8.61655 15.4748 8.57287Z" fill="#DFDFDF"/>
<path d="M15.1957 8.678C15.1631 8.61198 15.1493 8.59692 15.1132 8.56543C15.0462 8.59241 15.0164 8.57557 14.9521 8.63294C14.8917 8.6757 14.7661 8.7808 14.7182 8.83123C14.7638 8.85376 14.8064 8.86932 14.8596 8.93911C14.9127 9.00889 14.8975 9.02775 14.9284 9.10574C14.9849 9.0698 15.0116 9.05068 15.0642 9.01836C15.119 8.96785 15.142 8.95287 15.2046 8.90983C15.1802 8.83853 15.2047 8.73466 15.1957 8.678Z" fill="#DFDFDF"/>
<path d="M14.8227 8.98237C14.7901 8.91635 14.7438 8.90453 14.7077 8.87305C14.6407 8.90003 14.6141 8.95781 14.5498 9.01518C14.47 9.10336 14.4579 9.11762 14.4198 9.17129C14.4784 9.20031 14.495 9.20289 14.5481 9.24997C14.6032 9.29867 14.6185 9.29968 14.6559 9.34197C14.6962 9.29631 14.6904 9.2999 14.7431 9.24811C14.7978 9.1976 14.8047 9.19884 14.877 9.13309C14.8558 9.05855 14.8447 9.03254 14.8227 8.98237Z" fill="#DFDFDF"/>
<path d="M14.5113 9.29629C14.4722 9.26596 14.4357 9.24441 14.4028 9.22266C14.3715 9.25937 14.3417 9.28795 14.3228 9.3291C14.2917 9.36861 14.2893 9.37638 14.2642 9.43005C14.3227 9.45907 14.3166 9.45193 14.3601 9.47304C14.4023 9.49358 14.4207 9.51627 14.4711 9.54883C14.5114 9.50316 14.4829 9.51973 14.5356 9.46794C14.5611 9.43689 14.5744 9.41218 14.6143 9.37239C14.5574 9.32381 14.5495 9.31726 14.5113 9.29629Z" fill="#DFDFDF"/>
<path d="M14.3571 9.52553C14.31 9.50331 14.2897 9.4915 14.2503 9.47461C14.2238 9.5243 14.2167 9.53179 14.1978 9.57294C14.1862 9.60759 14.1773 9.62509 14.157 9.68201C14.201 9.69805 14.2144 9.70226 14.2432 9.71526C14.2727 9.72856 14.3038 9.74713 14.338 9.76671C14.3702 9.70645 14.3693 9.71977 14.3879 9.68421C14.4053 9.64991 14.417 9.6398 14.4487 9.59352C14.4016 9.55791 14.3872 9.54488 14.3571 9.52553Z" fill="#DFDFDF"/>
<path d="M14.2401 9.7593C14.193 9.73708 14.1933 9.74247 14.1539 9.72559C14.1274 9.77528 14.1089 9.86307 14.0946 9.91683C14.0841 9.97786 14.0752 10.0458 14.0722 10.12C14.1138 10.128 14.0966 10.123 14.1331 10.1303C14.1694 10.1375 14.1713 10.1389 14.2101 10.155C14.2216 10.0741 14.2316 10.0295 14.2525 9.97419C14.2665 9.9353 14.2954 9.84719 14.3271 9.8009C14.2869 9.77907 14.2702 9.77865 14.2401 9.7593Z" fill="#DFDFDF"/>
<path d="M14.138 10.1784C14.1235 10.175 14.1079 10.1724 14.0771 10.1699C14.0712 10.2758 14.071 10.3017 14.074 10.407C14.0818 10.5174 14.0832 10.6072 14.1008 10.7192C14.1208 10.7134 14.1253 10.7073 14.1618 10.7054C14.1982 10.7034 14.196 10.7028 14.2336 10.7052C14.2073 10.6002 14.2064 10.5642 14.1986 10.4392C14.1954 10.3418 14.1956 10.3103 14.2035 10.2006C14.1747 10.1914 14.1624 10.1851 14.138 10.1784Z" fill="#DFDFDF"/>
<path d="M14.1887 10.7572C14.1741 10.7538 14.1378 10.7582 14.1071 10.7556C14.1402 10.9418 14.1675 11.0113 14.2301 11.1258C14.3045 11.2339 14.377 11.3351 14.4726 11.4379C14.4844 11.4297 14.4925 11.4189 14.5038 11.4081C14.5146 11.3977 14.5237 11.3945 14.5366 11.3827C14.4277 11.2387 14.4084 11.1958 14.3433 11.0639C14.2896 10.9321 14.2806 10.896 14.2449 10.752C14.2162 10.7634 14.213 10.764 14.1887 10.7572Z" fill="#DFDFDF"/>
<path d="M14.5304 11.438C14.5118 11.45 14.5209 11.4458 14.4924 11.4639C14.537 11.5171 14.5689 11.5475 14.6522 11.6299C14.715 11.6761 14.7339 11.7163 14.8626 11.7682C14.8779 11.751 14.8786 11.7487 14.886 11.7377C14.8932 11.7271 14.8962 11.7244 14.9043 11.7037C14.839 11.6836 14.7617 11.638 14.7126 11.5886C14.6313 11.5188 14.6109 11.4873 14.5568 11.4189C14.5443 11.4271 14.5386 11.4301 14.5304 11.438Z" fill="#DFDFDF"/>
<path d="M14.9366 11.7564C14.9263 11.7726 14.9302 11.7773 14.9206 11.7964C14.979 11.8312 14.992 11.8341 15.1352 11.8621C15.3112 11.868 15.3854 11.8638 15.468 11.8527C15.465 11.8307 15.4648 11.8286 15.4638 11.8078C15.4629 11.7881 15.4654 11.7945 15.4639 11.7735C15.2993 11.7844 15.2493 11.7734 15.1842 11.7692C15.0671 11.7582 14.9788 11.7307 14.9509 11.7236C14.9384 11.7464 14.9399 11.7404 14.9366 11.7564Z" fill="#DFDFDF"/>
<path d="M15.5113 11.8117C15.5148 11.8291 15.5141 11.8234 15.5194 11.8483C15.6558 11.8246 15.6585 11.8275 15.8235 11.7935C15.9479 11.7581 15.989 11.7313 16.0659 11.6904C16.0715 11.6632 16.0699 11.6665 16.0637 11.6551C16.0556 11.6402 16.0617 11.645 16.0433 11.6338C15.9519 11.6887 15.8539 11.7048 15.8014 11.7224C15.6763 11.7482 15.6143 11.7551 15.5085 11.7663C15.5098 11.7903 15.51 11.7958 15.5113 11.8117Z" fill="#DFDFDF"/>
<path d="M16.101 11.6197C16.1217 11.6353 16.1232 11.6426 16.1492 11.639C16.1917 11.6331 16.1972 11.6211 16.238 11.5878C16.258 11.5714 16.2891 11.5398 16.2829 11.5285C16.2747 11.5136 16.261 11.4688 16.2429 11.4979C16.2272 11.5235 16.1599 11.563 16.12 11.5903C16.0882 11.6121 16.0929 11.6136 16.101 11.6197Z" fill="#DFDFDF"/>
<path d="M16.3049 11.4806C16.3291 11.4882 16.323 11.493 16.3429 11.4758C16.359 11.4619 16.3702 11.4384 16.3995 11.4039C16.4162 11.3843 16.4497 11.3276 16.4513 11.3148C16.4558 11.2781 16.4353 11.2539 16.4194 11.2843C16.391 11.3385 16.3546 11.3952 16.3044 11.4409C16.2759 11.4668 16.2953 11.4776 16.3049 11.4806Z" fill="#DFDFDF"/>
<path d="M16.452 11.2446C16.4762 11.2522 16.4735 11.257 16.4934 11.2398C16.5095 11.2259 16.5256 11.1896 16.5443 11.1484C16.5553 11.1242 16.5798 11.0879 16.5708 11.0639C16.5609 11.0373 16.5262 11.019 16.5171 11.0517C16.5008 11.1107 16.4954 11.1115 16.4676 11.1808C16.4568 11.2075 16.4424 11.2415 16.452 11.2446Z" fill="#DFDFDF"/>
<path d="M16.5311 10.9932C16.5406 11.0113 16.558 11.0091 16.5863 10.9964C16.6091 10.9862 16.6005 10.9502 16.6039 10.905C16.6058 10.8808 16.6107 10.8582 16.6041 10.8262C16.5983 10.7984 16.5458 10.7884 16.5423 10.8221C16.5398 10.8467 16.5434 10.861 16.5386 10.903C16.5309 10.971 16.5238 10.979 16.5311 10.9932Z" fill="#DFDFDF"/>
<path d="M16.5516 10.7549C16.5571 10.7703 16.5796 10.7652 16.593 10.749C16.6089 10.7298 16.59 10.6959 16.5889 10.6576C16.5881 10.6333 16.5813 10.6088 16.5684 10.5788C16.5603 10.5602 16.5312 10.558 16.5307 10.5919C16.5304 10.6084 16.5351 10.6299 16.5396 10.6659C16.5446 10.7054 16.5428 10.7304 16.5516 10.7549Z" fill="#DFDFDF"/>
<path d="M16.5116 10.5149C16.5171 10.5302 16.5416 10.5157 16.5461 10.4952C16.5528 10.4645 16.5315 10.4306 16.5224 10.3935C16.5148 10.3623 16.5007 10.3252 16.4755 10.3044C16.4572 10.2892 16.4239 10.2808 16.431 10.314C16.4365 10.3397 16.4733 10.3887 16.4858 10.4305C16.4973 10.4686 16.5028 10.4903 16.5116 10.5149Z" fill="#DFDFDF"/>
<path d="M16.3613 10.2421C16.3776 10.2427 16.3965 10.2473 16.3912 10.227C16.3865 10.2089 16.3689 10.2 16.3354 10.1734C16.3183 10.1599 16.2882 10.1351 16.2713 10.1268C16.2519 10.1171 16.2137 10.1051 16.2268 10.1364C16.2323 10.1495 16.2496 10.1549 16.2805 10.176C16.3133 10.1985 16.3502 10.2416 16.3613 10.2421Z" fill="#DFDFDF"/>
<path d="M8.52966 11.8327C8.19614 11.9458 7.71565 12.1775 7.52346 12.3075C7.46127 12.3528 7.46693 12.4036 7.56303 12.5958C7.63086 12.7202 7.69869 12.8276 7.71 12.8276C7.72696 12.8276 7.9135 12.7428 8.12266 12.6354C8.33181 12.5337 8.59906 12.3994 8.72186 12.3754C8.81577 12.357 8.90154 12.3396 8.95462 12.3176C8.976 12.3695 8.96286 12.3405 9.0018 12.4221C9.05779 12.5393 9.02294 12.5366 9.11977 12.5687C9.22187 12.6025 9.47368 12.4658 9.47368 12.4658C9.76763 12.3641 9.93156 12.3528 10.9886 12.3528C12.0457 12.3528 12.2097 12.3641 12.5036 12.4715C12.5036 12.4715 12.7402 12.5519 12.7706 12.5617C12.8008 12.5714 12.8167 12.579 12.8486 12.5713C12.8778 12.5643 12.9081 12.5198 12.9215 12.4929C12.9215 12.4929 12.9865 12.3367 13.0032 12.2819C13.0595 12.309 13.1622 12.3443 13.2611 12.3754C13.3798 12.4149 13.6455 12.5337 13.8546 12.6354C14.0638 12.7428 14.2503 12.8276 14.2673 12.8276C14.2786 12.8276 14.3464 12.7202 14.4143 12.5958C14.5499 12.3302 14.5612 12.3528 14.0694 12.0984C13.4137 11.7592 12.758 11.6066 12.6958 11.7705C12.6845 11.8016 12.6749 11.8198 12.6594 11.8601C12.5937 11.845 12.4216 11.8044 12.2492 11.7762C11.7179 11.6801 10.2594 11.6801 9.72806 11.7762C9.55565 11.8044 9.43909 11.8516 9.34168 11.8786C9.28653 11.7683 9.29807 11.8122 9.28677 11.7811C9.24154 11.668 8.94232 11.6857 8.52966 11.8327Z" fill="black"/>
<path d="M9.06649 11.7512C8.82377 11.7589 8.36848 11.9143 7.90782 12.1487C7.51212 12.3466 7.50091 12.3579 7.60832 12.5671C7.65354 12.6632 7.70464 12.7485 7.71029 12.7598C7.71042 12.7598 7.71095 12.7605 7.7111 12.7606C7.73218 12.7661 7.90835 12.688 8.11097 12.5839C8.32578 12.4765 8.59769 12.3585 8.7164 12.3246C8.80402 12.2935 8.86769 12.2906 8.94605 12.274C8.93174 12.1907 8.94946 12.2625 8.89385 12.1037C8.95799 11.9429 9.08185 11.804 9.20219 11.7737C9.17125 11.7572 9.12538 11.7494 9.06649 11.7512Z" fill="#DFDFDF"/>
<path d="M10.9236 11.7549C10.455 11.7594 9.99422 11.7823 9.78339 11.8152C9.42443 11.8745 9.23086 11.9883 9.09766 12.0576C9.04892 12.094 9.00618 12.1028 8.95312 12.1347C8.99517 12.23 8.99354 12.2874 9.02941 12.3708C9.06714 12.4586 9.04829 12.5141 9.15146 12.5169C9.25462 12.5198 9.47906 12.4085 9.47906 12.4085C9.76736 12.3068 9.9372 12.2953 10.9886 12.2953C12.0457 12.2953 12.2587 12.329 12.503 12.4142C12.6801 12.4751 12.7532 12.5233 12.8242 12.5105C12.8607 12.504 12.8797 12.4513 12.9053 12.3877C12.9402 12.301 12.9822 12.1847 13.0033 12.0392C12.9477 12.0311 12.9722 12.0595 12.8965 12.0255C12.7328 11.9522 12.7017 11.9466 12.5937 11.9011C12.4656 11.847 12.3457 11.8469 12.1577 11.8119C11.9373 11.778 11.4473 11.7647 10.9686 11.7549C10.9534 11.755 10.9387 11.7548 10.9236 11.7549Z" fill="#DFDFDF"/>
<path d="M12.8878 11.7559C12.8559 11.7561 12.8288 11.7596 12.8059 11.7663C12.8552 11.7973 12.9128 11.8491 12.9448 11.8659C13.0635 11.9281 13.063 11.9855 13.0516 12.0923C13.0463 12.1417 13.0418 12.1605 13.0227 12.228C13.067 12.248 13.1764 12.2933 13.2668 12.3244C13.3799 12.3583 13.651 12.4763 13.8658 12.5837C14.0652 12.6861 14.2393 12.7632 14.2649 12.7604C14.2654 12.7603 14.2661 12.7597 14.2665 12.7596C14.2665 12.7595 14.2672 12.7596 14.2673 12.7596C14.2729 12.7483 14.324 12.663 14.3693 12.5669C14.4428 12.4255 14.4483 12.3752 14.3918 12.33C14.2674 12.2282 13.7643 11.9959 13.4025 11.8715C13.1709 11.7943 13.0006 11.755 12.8878 11.7559Z" fill="#DFDFDF"/>
<path d="M12.7455 11.8018C12.7416 11.806 12.7383 11.8105 12.7351 11.8154C12.718 11.8363 12.7155 11.8587 12.7102 11.8845C12.7477 11.8977 12.874 11.9764 12.939 11.9736C12.953 11.9736 12.964 11.973 12.9704 11.9704C12.9707 11.9702 12.9717 11.9697 12.972 11.9696C12.9721 11.9695 12.9726 11.9689 12.9728 11.9688C12.9733 11.9684 12.974 11.9676 12.9744 11.9672C12.9746 11.967 12.975 11.9666 12.9752 11.9664C12.9753 11.9662 12.9759 11.9657 12.976 11.9656C12.976 11.9654 12.976 11.9649 12.976 11.9648C12.976 11.9646 12.976 11.9641 12.976 11.964C12.976 11.9638 12.976 11.9633 12.976 11.9632C12.976 11.963 12.976 11.9625 12.976 11.9624C12.9759 11.9617 12.9755 11.9606 12.9752 11.96C12.975 11.9596 12.9746 11.9587 12.9744 11.9583C12.974 11.9578 12.9732 11.9565 12.9728 11.9559C12.9637 11.9442 12.9362 11.9251 12.882 11.8949C12.8438 11.8736 12.782 11.8315 12.7455 11.8018Z" fill="#DFDFDF"/>
<path d="M9.23595 11.8027C9.19884 11.831 9.13588 11.87 9.09544 11.8975C9.02278 11.9468 9.01196 11.9851 8.98061 12.0541C8.97997 12.0555 8.9792 12.0573 8.97901 12.0581C8.979 12.0582 8.979 12.0588 8.97901 12.0589C8.97906 12.0589 8.97976 12.0589 8.97981 12.0589C8.97989 12.0589 8.98053 12.0589 8.98061 12.0589C8.99087 12.0542 9.04583 12.0047 9.17734 11.9601C9.29013 11.918 9.23012 11.9386 9.30019 11.9095C9.25403 11.8382 9.24803 11.8333 9.24238 11.8164C9.24074 11.8115 9.23854 11.8071 9.23595 11.8027Z" fill="#DFDFDF"/>
<path d="M9.72595 11.9714L9.7389 12.0833L9.81562 12.0744C9.84329 12.0712 9.86229 12.0645 9.87261 12.0542C9.88309 12.0439 9.88712 12.0283 9.8847 12.0073C9.88243 11.9877 9.87545 11.9745 9.86375 11.9677C9.85204 11.9609 9.83169 11.9591 9.80267 11.9625L9.72595 11.9714ZM9.67749 11.9376L9.80559 11.9228C9.82638 11.9204 9.84173 11.9195 9.85166 11.9202C9.86174 11.9209 9.87091 11.9228 9.87917 11.9261C9.89396 11.9321 9.90574 11.9415 9.91449 11.9543C9.92339 11.9671 9.92891 11.9827 9.93103 12.0011C9.93309 12.0189 9.93104 12.0346 9.92488 12.0482C9.91871 12.0616 9.90849 12.0728 9.89421 12.0817C9.90749 12.0838 9.91731 12.0888 9.92368 12.0967C9.9302 12.1046 9.93531 12.1186 9.93901 12.1388L9.94913 12.1929C9.95122 12.2045 9.95373 12.213 9.95665 12.2186C9.9597 12.224 9.96368 12.2277 9.96859 12.2295L9.96966 12.2387L9.91784 12.2447C9.91285 12.2383 9.90823 12.2239 9.90398 12.2015C9.9039 12.2009 9.90385 12.2005 9.90382 12.2002L9.89615 12.1574C9.89209 12.1355 9.88572 12.1216 9.87703 12.116C9.86835 12.1103 9.84815 12.1093 9.81644 12.113L9.74376 12.1214L9.76013 12.2629L9.71571 12.2681L9.67749 11.9376ZM10.0699 12.0927L10.1733 12.0851L10.1112 11.9425L10.0699 12.0927ZM9.98407 12.2376L10.0829 11.8968L10.1327 11.8932L10.2807 12.2158L10.2318 12.2194L10.1894 12.1229L10.0588 12.1325L10.0307 12.2342L9.98407 12.2376ZM10.4412 12.2087L10.4314 11.8762L10.4766 11.8748L10.4806 12.0114L10.653 12.0064L10.649 11.8698L10.6944 11.8685L10.7042 12.201L10.6588 12.2023L10.6542 12.0465L10.4817 12.0516L10.4863 12.2073L10.4412 12.2087ZM10.8338 12.0616L10.9375 12.0611L10.8852 11.9146L10.8338 12.0616ZM10.7383 12.2003L10.8601 11.8671L10.91 11.8668L11.0357 12.1988L10.9867 12.1991L10.951 12.0999L10.82 12.1006L10.785 12.2001L10.7383 12.2003ZM11.3048 12.0797L11.3486 12.0804C11.3459 12.1209 11.3315 12.1529 11.3053 12.1766C11.2793 12.2001 11.246 12.2114 11.2054 12.2107C11.1586 12.2099 11.1221 12.1933 11.096 12.161C11.0701 12.1286 11.0576 12.0842 11.0586 12.0277C11.0595 11.9757 11.0741 11.9346 11.1025 11.9045C11.1309 11.8743 11.1687 11.8596 11.2159 11.8604C11.2536 11.861 11.2842 11.8713 11.3078 11.8911C11.3315 11.9109 11.345 11.9377 11.3482 11.9713L11.3039 11.9705C11.3001 11.9485 11.2904 11.9315 11.2748 11.9194C11.2592 11.9073 11.2387 11.901 11.2134 11.9005C11.1797 11.9 11.1533 11.9113 11.1343 11.9346C11.1153 11.958 11.1055 11.9911 11.1048 12.0342C11.104 12.0748 11.1131 12.1076 11.132 12.1325C11.151 12.1573 11.1764 12.17 11.2083 12.1706C11.2356 12.1711 11.258 12.163 11.2756 12.1465C11.2934 12.1297 11.3031 12.1075 11.3048 12.0797ZM11.3997 12.2056L11.415 11.8733L11.4601 11.8753L11.4538 12.0118L11.6262 12.0197L11.6324 11.8832L11.6778 11.8853L11.6626 12.2176L11.6172 12.2155L11.6243 12.0599L11.452 12.052L11.4449 12.2076L11.3997 12.2056ZM11.7343 12.2229L11.7573 11.891L11.8024 11.8942L11.7793 12.226L11.7343 12.2229ZM11.9249 11.9427L11.914 12.0548L11.9909 12.0623C12.0186 12.065 12.0386 12.0624 12.0509 12.0545C12.0633 12.0467 12.0705 12.0322 12.0726 12.0113C12.0745 11.9916 12.0704 11.9773 12.0604 11.9681C12.0504 11.959 12.0309 11.953 12.0018 11.9502L11.9249 11.9427ZM11.8847 11.8995L12.013 11.912C12.0338 11.914 12.049 11.9164 12.0586 11.9191C12.0683 11.9219 12.0769 11.9258 12.0843 11.9307C12.0974 11.9397 12.107 11.9514 12.1128 11.9657C12.1189 11.9801 12.121 11.9965 12.1192 12.0149C12.1174 12.0327 12.1121 12.0476 12.1033 12.0596C12.0944 12.0715 12.082 12.0803 12.0662 12.086C12.0787 12.0908 12.0873 12.0978 12.0919 12.1069C12.0966 12.1159 12.0986 12.1307 12.098 12.1512L12.0965 12.2062C12.0961 12.218 12.0967 12.2269 12.0984 12.233C12.1003 12.2389 12.1034 12.2433 12.1078 12.2461L12.1069 12.2553L12.055 12.2503C12.0515 12.243 12.05 12.2279 12.0505 12.2052C12.0506 12.2046 12.0506 12.2041 12.0507 12.2038L12.0522 12.1604C12.0528 12.1381 12.0495 12.1232 12.0422 12.1159C12.0349 12.1085 12.0154 12.1033 11.9836 12.1002L11.9108 12.0931L11.897 12.2349L11.8525 12.2306L11.8847 11.8995ZM12.1588 12.263L12.2021 11.9332L12.2469 11.9391L12.2036 12.2689L12.1588 12.263Z" fill="black"/>
<path d="M9.06558 5.3601C8.91256 5.43975 8.8329 5.55714 8.82032 5.71645C8.80775 5.88835 8.84548 6.00993 8.944 6.10216C8.98802 6.14618 9.02575 6.18811 9.02575 6.19859C9.02575 6.20697 8.99221 6.2489 8.95029 6.28872C8.85177 6.38096 8.79517 6.50254 8.79517 6.62831C8.79517 6.75828 8.835 6.84841 8.94191 6.9658L9.02995 7.06223L8.93352 7.16914C8.74067 7.38295 8.74696 7.62821 8.94819 7.83154L9.03414 7.92168H11.0088H12.9813L13.0778 7.81897C13.2643 7.61983 13.2643 7.40392 13.0799 7.17543L12.9855 7.06014L13.0736 6.95532C13.2664 6.72474 13.2622 6.51302 13.0631 6.29082C12.9729 6.1923 12.9708 6.17343 13.0421 6.12731C13.1574 6.04975 13.2287 5.78773 13.1763 5.62841C13.0987 5.38944 12.7654 5.23013 12.5621 5.33494C12.5244 5.35381 12.4489 5.40621 12.3923 5.45023C12.3357 5.49635 12.2833 5.53199 12.2728 5.53199C12.2644 5.53199 12.2141 5.49425 12.1617 5.44814C11.9584 5.27415 11.7194 5.28673 11.5161 5.48377L11.4385 5.55924L11.3358 5.46491C11.1283 5.26996 10.8683 5.27834 10.6566 5.48377L10.5791 5.55924L10.4952 5.48377C10.3715 5.37058 10.2898 5.33704 10.1472 5.33494C10.011 5.33284 9.88311 5.38944 9.7825 5.49845L9.73219 5.55085L9.62318 5.45862C9.42195 5.28673 9.26053 5.25738 9.06558 5.3601Z" fill="#171796" stroke="black" stroke-width="0.048"/>
<path d="M8.96386 8.04412C8.75843 8.27261 8.76053 8.50529 8.96806 8.73587L9.04562 8.82182L8.95757 8.91825C8.90936 8.97065 8.85695 9.04611 8.84019 9.08385C8.77311 9.24526 8.82342 9.46117 8.95548 9.58484C9.03513 9.6624 9.03723 9.69385 8.96177 9.78608C8.92823 9.82591 8.8884 9.88251 8.87372 9.91186C8.71651 10.2095 8.95129 10.5826 9.29926 10.5826C9.43761 10.5826 9.54242 10.5386 9.63675 10.438C9.71221 10.3583 9.75204 10.3563 9.81912 10.4275C9.91764 10.5365 10.0476 10.6036 10.1566 10.6036C10.2845 10.6036 10.3641 10.5638 10.4941 10.4401L10.5926 10.3437L10.6828 10.4422C10.8777 10.6518 11.0748 10.6581 11.3368 10.459L11.4437 10.3793L11.5359 10.4632C11.6512 10.5638 11.7372 10.6036 11.8504 10.6036C11.9636 10.6036 12.0474 10.5596 12.1795 10.4296L12.2885 10.3248L12.3723 10.4003C12.5337 10.5449 12.6218 10.591 12.7392 10.591C12.8607 10.591 12.9467 10.5512 13.0683 10.4422C13.1815 10.3395 13.2423 10.22 13.2276 10.1215C13.2129 10.0146 13.1165 9.81962 13.0452 9.75254L12.9844 9.69385L13.0788 9.58694C13.2842 9.34588 13.2863 9.15931 13.0829 8.92034L12.9991 8.81972L13.0871 8.71282C13.2842 8.48014 13.2821 8.26423 13.0829 8.05251L12.976 7.94141L11.014 7.9435L9.05191 7.9456L8.96386 8.04412Z" fill="#D42E12" stroke="black" stroke-width="0.048"/>
<path d="M8.52954 7.77266C8.52954 7.77266 8.53082 9.73402 8.53482 10.483C8.52815 10.5938 8.59308 10.6206 8.68819 10.6944C8.842 10.8138 9.00607 10.9387 9.88622 10.8704C10.6946 10.8761 10.8642 10.9383 10.949 11.2605L10.9942 11.4414L11.0337 11.2605C11.0959 10.9496 11.2878 10.8761 12.0678 10.8704C13.0721 10.8855 13.1555 10.8225 13.2994 10.6997C13.2994 10.6997 13.4046 10.6188 13.4317 10.5411C13.4621 10.4539 13.4475 10.3825 13.4475 10.3825V7.77267V5.02539H10.9885H8.52954V7.77266ZM13.391 7.79527L13.4015 10.0582C13.4015 10.3628 13.4235 10.4562 13.391 10.5143C13.3585 10.5723 13.2927 10.6496 13.2927 10.6496C13.14 10.8022 13.0108 10.8334 12.3147 10.8244C11.8651 10.8257 11.6222 10.8381 11.2679 10.894C11.2123 10.9439 11.0596 10.9395 10.9885 11.2301C10.8964 10.9395 10.8306 10.9521 10.8306 10.9521C10.4542 10.7942 10.2859 10.8257 9.68272 10.8195C9.29267 10.8761 8.87436 10.8026 8.71608 10.6443C8.71608 10.6443 8.69253 10.6507 8.58607 10.5249C8.58711 9.9736 8.58607 7.79528 8.58607 7.79528V5.08192H10.9885H13.391L13.391 7.79527Z" fill="black"/>
<path d="M10.3086 6.26089C10.1598 6.56876 10.1535 6.70691 10.2771 6.95361C10.3735 7.14307 10.4867 7.26345 10.6418 7.34042C11.0463 7.5437 11.564 7.39371 11.7672 7.01479C11.893 6.78191 11.8783 6.39312 11.74 6.22339L11.7023 6.178L11.6666 6.3122C11.6163 6.50364 11.566 6.60034 11.4654 6.70297C11.2768 6.8944 11.0169 6.93782 10.7487 6.81941C10.5412 6.72665 10.4574 6.59837 10.3798 6.24115L10.361 6.15234L10.3086 6.26089Z" fill="white"/>
<path d="M10.2593 6.28044C10.1349 6.56309 10.1462 6.70441 10.2988 7.00401C10.6945 7.7841 11.8703 7.49015 11.8647 6.60831C11.859 6.46699 11.8634 6.37496 11.7855 6.21826C11.7488 6.15326 11.7331 6.13396 11.7069 6.09465C11.6965 6.13722 11.681 6.21261 11.6499 6.33697C11.5368 6.77224 11.1637 6.97574 10.7737 6.81181C10.5532 6.72137 10.4515 6.57439 10.3949 6.26914L10.3554 6.07129L10.2593 6.28044ZM10.6437 6.84007C10.915 7.01531 11.3277 6.95878 11.5368 6.72702C11.6216 6.63092 11.6737 6.48099 11.6951 6.40481C11.7162 6.32963 11.7204 6.31838 11.7331 6.24325C11.7659 6.31605 11.784 6.35431 11.7994 6.46691C11.8223 6.63324 11.7855 6.77224 11.746 6.87399C11.5481 7.39405 10.915 7.55233 10.5193 7.17925C10.3271 7.00401 10.1745 6.65964 10.258 6.43745C10.2876 6.35866 10.2943 6.31374 10.333 6.23057C10.34 6.28739 10.3441 6.36524 10.3836 6.48395C10.4345 6.64788 10.525 6.76659 10.6437 6.84007Z" fill="black"/>
<path d="M10.0341 8.88013C10.0303 9.00241 10.0362 9.05836 10.0555 9.14899C9.99397 9.08959 9.93198 9.0481 9.84671 8.9986C9.73809 8.93556 9.60093 8.87539 9.55435 8.9523C9.50951 9.02635 9.63811 9.12772 9.73879 9.18453C9.84887 9.24665 9.91232 9.25514 9.98394 9.28324C9.9233 9.31529 9.84058 9.33683 9.7489 9.39565C9.65894 9.45334 9.52445 9.57276 9.57547 9.64899C9.6274 9.72658 9.77742 9.63939 9.86202 9.58277C9.93247 9.53562 10.0257 9.4612 10.0619 9.4231C10.0548 9.4778 10.0331 9.58677 10.0347 9.69099C10.0367 9.81755 10.0542 9.95917 10.1484 9.95894C10.2447 9.9587 10.2651 9.79191 10.2636 9.67914C10.262 9.5613 10.2486 9.478 10.237 9.41985C10.2787 9.46238 10.3416 9.52333 10.4245 9.58869C10.4929 9.64265 10.6605 9.72255 10.7107 9.646C10.7618 9.56808 10.6823 9.49062 10.5361 9.39786C10.4337 9.33284 10.3611 9.31059 10.2944 9.28294C10.3618 9.25529 10.4356 9.24819 10.5435 9.18262C10.7036 9.08533 10.7714 9.02026 10.7223 8.93651C10.6746 8.85508 10.5783 8.89957 10.4319 8.99268C10.3535 9.04257 10.2801 9.10869 10.2304 9.15625C10.2417 9.08141 10.254 8.9711 10.253 8.88936C10.2516 8.76787 10.225 8.61083 10.1423 8.61035C10.0596 8.60987 10.0382 8.74639 10.0341 8.88013Z" fill="#E9D315" stroke="black" stroke-width="0.039"/>
<path d="M10.2717 9.28404C10.2717 9.35516 10.214 9.41281 10.1429 9.41281C10.0718 9.41281 10.0142 9.35516 10.0142 9.28404C10.0142 9.21292 10.0718 9.15527 10.1429 9.15527C10.214 9.15527 10.2716 9.21283 10.2717 9.28389" fill="white"/>
<path d="M10.2717 9.28404C10.2717 9.35516 10.214 9.41281 10.1429 9.41281C10.0718 9.41281 10.0142 9.35516 10.0142 9.28404C10.0142 9.21292 10.0718 9.15527 10.1429 9.15527C10.214 9.15527 10.2716 9.21283 10.2717 9.28389" stroke="black" stroke-width="0.0448449"/>
<path d="M11.7206 8.88013C11.7168 9.00241 11.7227 9.05836 11.7421 9.14899C11.6805 9.08959 11.6185 9.0481 11.5332 8.9986C11.4246 8.93556 11.2875 8.87539 11.2409 8.9523C11.196 9.02635 11.3246 9.12772 11.4253 9.18453C11.5354 9.24665 11.5988 9.25514 11.6705 9.28324C11.6098 9.31529 11.5271 9.33683 11.4354 9.39565C11.3455 9.45334 11.211 9.57276 11.262 9.64899C11.3139 9.72658 11.4639 9.63939 11.5485 9.58277C11.619 9.53562 11.7122 9.4612 11.7485 9.4231C11.7413 9.4778 11.7196 9.58677 11.7213 9.69099C11.7232 9.81755 11.7407 9.95917 11.835 9.95894C11.9312 9.9587 11.9516 9.79191 11.9501 9.67914C11.9485 9.5613 11.9351 9.478 11.9235 9.41985C11.9652 9.46238 12.0281 9.52333 12.111 9.58869C12.1794 9.64265 12.347 9.72255 12.3972 9.646C12.4484 9.56808 12.3688 9.49062 12.2226 9.39786C12.1202 9.33284 12.0476 9.31059 11.9809 9.28294C12.0484 9.25529 12.1222 9.24819 12.23 9.18262C12.3901 9.08533 12.4579 9.02026 12.4089 8.93651C12.3612 8.85508 12.2648 8.89957 12.1184 8.99268C12.04 9.04257 11.9666 9.10869 11.9169 9.15625C11.9283 9.08141 11.9405 8.9711 11.9396 8.88936C11.9381 8.76787 11.9115 8.61083 11.8288 8.61035C11.7461 8.60987 11.7247 8.74639 11.7206 8.88013Z" fill="#E9D315" stroke="black" stroke-width="0.039"/>
<path d="M11.958 9.28404C11.958 9.35516 11.9003 9.41281 11.8292 9.41281C11.7581 9.41281 11.7004 9.35516 11.7004 9.28404C11.7004 9.21292 11.7581 9.15527 11.8292 9.15527C11.9003 9.15527 11.9579 9.21283 11.958 9.28389" fill="white"/>
<path d="M11.958 9.28404C11.958 9.35516 11.9003 9.41281 11.8292 9.41281C11.7581 9.41281 11.7004 9.35516 11.7004 9.28404C11.7004 9.21292 11.7581 9.15527 11.8292 9.15527C11.9003 9.15527 11.9579 9.21283 11.958 9.28389" stroke="black" stroke-width="0.0448449"/>
<rect x="0.5" y="0.5" width="20" height="14" rx="2.5" stroke="#E3E3E3"/>
</svg>
