<svg viewBox="0 0 24 24" fill="none" xmlns="http://www.w3.org/2000/svg">
<path d="M2 18.25C2 17.7422 2.39062 17.3125 2.9375 17.3125H5.24219C5.63281 16.0625 6.84375 15.125 8.25 15.125C9.61719 15.125 10.8281 16.0625 11.2188 17.3125H21.0625C21.5703 17.3125 22 17.7422 22 18.25C22 18.7969 21.5703 19.1875 21.0625 19.1875H11.2188C10.8281 20.4766 9.61719 21.375 8.25 21.375C6.84375 21.375 5.63281 20.4766 5.24219 19.1875H2.9375C2.39062 19.1875 2 18.7969 2 18.25ZM9.5 18.25C9.5 17.5859 8.91406 17 8.25 17C7.54688 17 7 17.5859 7 18.25C7 18.9531 7.54688 19.5 8.25 19.5C8.91406 19.5 9.5 18.9531 9.5 18.25ZM15.75 8.875C17.1172 8.875 18.3281 9.8125 18.7188 11.0625H21.0625C21.5703 11.0625 22 11.4922 22 12C22 12.5469 21.5703 12.9375 21.0625 12.9375H18.7188C18.3281 14.2266 17.1172 15.125 15.75 15.125C14.3438 15.125 13.1328 14.2266 12.7422 12.9375H2.9375C2.39062 12.9375 2 12.5469 2 12C2 11.4922 2.39062 11.0625 2.9375 11.0625H12.7422C13.1328 9.8125 14.3438 8.875 15.75 8.875ZM17 12C17 11.3359 16.4141 10.75 15.75 10.75C15.0469 10.75 14.5 11.3359 14.5 12C14.5 12.7031 15.0469 13.25 15.75 13.25C16.4141 13.25 17 12.7031 17 12ZM21.0625 4.8125C21.5703 4.8125 22 5.24219 22 5.75C22 6.29688 21.5703 6.6875 21.0625 6.6875H12.4688C12.0781 7.97656 10.8672 8.875 9.5 8.875C8.09375 8.875 6.88281 7.97656 6.49219 6.6875H2.9375C2.39062 6.6875 2 6.29688 2 5.75C2 5.24219 2.39062 4.8125 2.9375 4.8125H6.49219C6.88281 3.5625 8.09375 2.625 9.5 2.625C10.8672 2.625 12.0781 3.5625 12.4688 4.8125H21.0625ZM8.25 5.75C8.25 6.45312 8.79688 7 9.5 7C10.1641 7 10.75 6.45312 10.75 5.75C10.75 5.08594 10.1641 4.5 9.5 4.5C8.79688 4.5 8.25 5.08594 8.25 5.75Z"  />
</svg>
