<svg width="587" height="174" viewBox="0 0 587 174" fill="none" xmlns="http://www.w3.org/2000/svg">
<path d="M334.366 -70.7382C295.612 -80.5383 242.64 -103.58 196.774 -88.1352C180.942 -82.804 165.771 -74.915 150.715 -67.4092C111.067 -47.6433 70.086 -27.2223 28.7932 -12.2258C-1.4578 -1.23943 -32.6663 9.76114 -63.7713 13.8365C-85.9369 16.7407 -107.685 15.824 -129.792 17.9725C-159.702 20.8794 -192.567 21.6356 -222.572 29.6194C-252.596 37.6083 -267.698 51.951 -292.212 69.8262C-305.054 79.19 -317.562 91.5285 -333 94.4238" stroke="url(#paint0_linear_2578_8146)" stroke-width="39.3034" stroke-linecap="round"/>
<path d="M411.733 -0.409058C372.979 -10.2092 320.007 -33.2513 274.141 -17.8061C258.309 -12.4749 243.138 -4.58595 228.082 2.91992C188.434 22.6858 147.453 43.1068 106.16 58.1033C75.9094 69.0897 44.7009 80.0902 13.5959 84.1656C-8.56974 87.0698 -30.3178 86.1531 -52.4247 88.3016C-82.3351 91.2085 -115.2 91.9647 -145.205 99.9485C-175.229 107.937 -190.331 122.28 -214.845 140.155C-227.687 149.519 -240.195 161.858 -255.633 164.753" stroke="url(#paint1_linear_2578_8146)" stroke-width="39.3034" stroke-linecap="round"/>
<path d="M489.1 69.92C450.345 60.1199 397.373 37.0778 351.507 52.523C335.676 57.8542 320.504 65.7432 305.448 73.249C265.801 93.0149 224.819 113.436 183.527 128.432C153.276 139.419 122.067 150.419 90.9621 154.495C68.7965 157.399 47.0484 156.482 24.9415 158.631C-4.96888 161.538 -37.8337 162.294 -67.8385 170.278C-97.8627 178.267 -112.964 192.609 -137.479 210.484C-150.321 219.848 -162.829 232.187 -178.267 235.082" stroke="url(#paint2_linear_2578_8146)" stroke-width="39.3034" stroke-linecap="round"/>
<path d="M566.466 140.567C527.712 130.766 474.74 107.724 428.873 123.169C413.042 128.501 397.87 136.39 382.815 143.896C343.167 163.661 302.186 184.082 260.893 199.079C230.642 210.065 199.433 221.066 168.328 225.141C146.163 228.045 124.415 227.129 102.308 229.277C72.3973 232.184 39.5325 232.94 9.52772 240.924C-20.4965 248.913 -35.5981 263.256 -60.1128 281.131C-72.9548 290.495 -85.4625 302.833 -100.901 305.729" stroke="url(#paint3_linear_2578_8146)" stroke-width="39.3034" stroke-linecap="round"/>
<defs>
<linearGradient id="paint0_linear_2578_8146" x1="172.271" y1="-274" x2="333.04" y2="57.553" gradientUnits="userSpaceOnUse">
<stop offset="0.372917" stop-color="#E5383B"/>
<stop offset="1" stop-color="#FF6B00"/>
</linearGradient>
<linearGradient id="paint1_linear_2578_8146" x1="249.639" y1="-203.671" x2="410.407" y2="127.882" gradientUnits="userSpaceOnUse">
<stop offset="0.372917" stop-color="#E5383B"/>
<stop offset="1" stop-color="#FF6B00"/>
</linearGradient>
<linearGradient id="paint2_linear_2578_8146" x1="327.005" y1="-133.342" x2="487.773" y2="198.211" gradientUnits="userSpaceOnUse">
<stop offset="0.372917" stop-color="#E5383B"/>
<stop offset="1" stop-color="#FF6B00"/>
</linearGradient>
<linearGradient id="paint3_linear_2578_8146" x1="404.371" y1="-62.6953" x2="565.139" y2="268.858" gradientUnits="userSpaceOnUse">
<stop offset="0.372917" stop-color="#E5383B"/>
<stop offset="1" stop-color="#FF6B00"/>
</linearGradient>
</defs>
</svg>
